<svg version="1.1" viewBox="0.0 0.0 694.9606299212599 427.5774278215223" fill="none" stroke="none" stroke-linecap="square" stroke-miterlimit="10" xmlns:xlink="http://www.w3.org/1999/xlink" xmlns="http://www.w3.org/2000/svg"><clipPath id="p.0"><path d="m0 0l694.96063 0l0 427.57742l-694.96063 0l0 -427.57742z" clip-rule="nonzero"/></clipPath><g clip-path="url(#p.0)"><path fill="#000000" fill-opacity="0.0" d="m0 0l694.96063 0l0 427.57742l-694.96063 0z" fill-rule="evenodd"/><path fill="#c9daf8" d="m0 13.270607l0 0c0 -7.329154 5.941453 -13.270607 13.270607 -13.270607l162.43515 0c3.5195923 0 6.8950195 1.3981491 9.383743 3.8868706c2.4887238 2.4887216 3.8868713 5.864153 3.8868713 9.383737l0 53.080833c0 7.329155 -5.941452 13.270607 -13.270615 13.270607l-162.43515 0c-7.329154 0 -13.270607 -5.941452 -13.270607 -13.270607z" fill-rule="evenodd"/><path stroke="#1c4587" stroke-width="1.0" stroke-linejoin="round" stroke-linecap="butt" d="m0 13.270607l0 0c0 -7.329154 5.941453 -13.270607 13.270607 -13.270607l162.43515 0c3.5195923 0 6.8950195 1.3981491 9.383743 3.8868706c2.4887238 2.4887216 3.8868713 5.864153 3.8868713 9.383737l0 53.080833c0 7.329155 -5.941452 13.270607 -13.270615 13.270607l-162.43515 0c-7.329154 0 -13.270607 -5.941452 -13.270607 -13.270607z" fill-rule="evenodd"/><path fill="#1c4587" d="m60.263508 43.103527l-4.234375 0l-1.1875 4.1875l-1.578125 0l4.5 -15.171875l0.875 0l4.5 15.171875l-1.671875 0l-1.203125 -4.1875zm-3.796875 -1.421875l3.40625 0l-1.296875 -4.609375l-0.40625 -2.234375l-0.046875 0l-0.40625 2.28125l-1.25 4.5625zm9.681988 3.078125q0 0.734375 0.203125 1.0625q0.203125 0.3125 0.5625 0.3125q0.4375 0 1.046875 -0.234375l0.140625 1.234375q-0.28125 0.171875 -0.78125 0.28125q-0.5 0.109375 -0.90625 0.109375q-0.796875 0 -1.3125 -0.5q-0.5 -0.5 -0.5 -1.765625l0 -12.90625l1.546875 0l0 12.40625zm5.641342 -2.265625l-0.78125 0l0 4.796875l-1.53125 0l0 -14.9375l1.53125 0l0 9.09375l0.703125 -0.296875l2.5 -4.53125l1.765625 0l-2.515625 4.3125l-0.75 0.6875l0.875 0.828125l2.75 4.84375l-1.859375 0l-2.6875 -4.796875zm5.85347 -5.234375q0.609375 -0.375 1.5 -0.578125q0.890625 -0.21875 1.859375 -0.21875q0.90625 0 1.4375 0.265625q0.546875 0.265625 0.859375 0.71875q0.3125 0.453125 0.40625 1.046875q0.09375 0.578125 0.09375 1.21875q0 1.28125 -0.0625 2.5q-0.046875 1.21875 -0.046875 2.3125q0 0.796875 0.046875 1.5q0.0625 0.6875 0.21875 1.3125l-1.171875 0l-0.375 -1.265625l-0.078125 0q-0.3125 0.5625 -0.9375 0.96875q-0.625 0.40625 -1.671875 0.40625q-1.140625 0 -1.875 -0.796875q-0.734375 -0.8125 -0.734375 -2.21875q0 -0.921875 0.296875 -1.53125q0.3125 -0.625 0.875 -1.0q0.578125 -0.390625 1.34375 -0.546875q0.78125 -0.15625 1.75 -0.15625q0.203125 0 0.421875 0q0.21875 0 0.453125 0.015625q0.0625 -0.65625 0.0625 -1.171875q0 -1.21875 -0.375 -1.703125q-0.359375 -0.5 -1.3125 -0.5q-0.59375 0 -1.296875 0.1875q-0.703125 0.1875 -1.1875 0.453125l-0.5 -1.21875zm4.625 5.171875q-0.21875 -0.03125 -0.4375 -0.03125q-0.203125 -0.015625 -0.421875 -0.015625q-0.5 0 -1.0 0.09375q-0.484375 0.078125 -0.875 0.296875q-0.375 0.203125 -0.609375 0.578125q-0.21875 0.359375 -0.21875 0.90625q0 0.859375 0.40625 1.328125q0.421875 0.46875 1.09375 0.46875q0.890625 0 1.375 -0.421875q0.5 -0.4375 0.6875 -0.953125l0 -2.25zm5.6562805 2.328125q0 0.734375 0.203125 1.0625q0.203125 0.3125 0.5625 0.3125q0.4375 0 1.046875 -0.234375l0.140625 1.234375q-0.28125 0.171875 -0.78125 0.28125q-0.5 0.109375 -0.90625 0.109375q-0.796875 0 -1.3125 -0.5q-0.5 -0.5 -0.5 -1.765625l0 -12.90625l1.546875 0l0 12.40625zm8.313217 2.53125l0 -6.328125q0 -0.859375 -0.0625 -1.46875q-0.046875 -0.609375 -0.21875 -0.984375q-0.171875 -0.390625 -0.46875 -0.5625q-0.296875 -0.1875 -0.78125 -0.1875q-0.734375 0 -1.234375 0.5625q-0.5 0.5625 -0.6875 1.296875l0 7.671875l-1.53125 0l0 -10.671875l1.078125 0l0.28125 1.140625l0.0625 0q0.453125 -0.625 1.0625 -1.0q0.625 -0.390625 1.578125 -0.390625q0.8125 0 1.328125 0.359375q0.53125 0.34375 0.828125 1.234375q0.390625 -0.734375 1.09375 -1.15625q0.71875 -0.4375 1.578125 -0.4375q0.703125 0 1.203125 0.1875q0.5 0.171875 0.8125 0.640625q0.3125 0.453125 0.453125 1.21875q0.15625 0.75 0.15625 1.90625l0 6.96875l-1.546875 0l0 -6.78125q0 -1.390625 -0.265625 -2.0625q-0.265625 -0.6875 -1.21875 -0.6875q-0.8125 0 -1.296875 0.5q-0.46875 0.5 -0.671875 1.359375l0 7.671875l-1.53125 0zm8.790909 -10.03125q0.609375 -0.375 1.5 -0.578125q0.890625 -0.21875 1.859375 -0.21875q0.90625 0 1.4375 0.265625q0.546875 0.265625 0.859375 0.71875q0.3125 0.453125 0.40625 1.046875q0.09375 0.578125 0.09375 1.21875q0 1.28125 -0.0625 2.5q-0.046875 1.21875 -0.046875 2.3125q0 0.796875 0.046875 1.5q0.0625 0.6875 0.21875 1.3125l-1.171875 0l-0.375 -1.265625l-0.078125 0q-0.3125 0.5625 -0.9375 0.96875q-0.625 0.40625 -1.671875 0.40625q-1.140625 0 -1.875 -0.796875q-0.734375 -0.8125 -0.734375 -2.21875q0 -0.921875 0.296875 -1.53125q0.3125 -0.625 0.875 -1.0q0.578125 -0.390625 1.34375 -0.546875q0.78125 -0.15625 1.75 -0.15625q0.203125 0 0.421875 0q0.21875 0 0.453125 0.015625q0.0625 -0.65625 0.0625 -1.171875q0 -1.21875 -0.375 -1.703125q-0.359375 -0.5 -1.3125 -0.5q-0.59375 0 -1.296875 0.1875q-0.703125 0.1875 -1.1875 0.453125l-0.5 -1.21875zm4.625 5.171875q-0.21875 -0.03125 -0.4375 -0.03125q-0.203125 -0.015625 -0.421875 -0.015625q-0.5 0 -1.0 0.09375q-0.484375 0.078125 -0.875 0.296875q-0.375 0.203125 -0.609375 0.578125q-0.21875 0.359375 -0.21875 0.90625q0 0.859375 0.40625 1.328125q0.421875 0.46875 1.09375 0.46875q0.890625 0 1.375 -0.421875q0.5 -0.4375 0.6875 -0.953125l0 -2.25zm3.4375305 3.46875l3.96875 -6.96875l0.734375 -0.921875l-4.703125 0l0 -1.390625l6.21875 0l0 1.390625l-3.984375 7.046875l-0.71875 0.84375l4.703125 0l0 1.390625l-6.21875 0l0 -1.390625zm8.146912 -8.640625q0.609375 -0.375 1.5 -0.578125q0.890625 -0.21875 1.859375 -0.21875q0.90625 0 1.4375 0.265625q0.546875 0.265625 0.859375 0.71875q0.3125 0.453125 0.40625 1.046875q0.09375 0.578125 0.09375 1.21875q0 1.28125 -0.0625 2.5q-0.046875 1.21875 -0.046875 2.3125q0 0.796875 0.046875 1.5q0.0625 0.6875 0.21875 1.3125l-1.171875 0l-0.375 -1.265625l-0.078125 0q-0.3125 0.5625 -0.9375 0.96875q-0.625 0.40625 -1.671875 0.40625q-1.140625 0 -1.875 -0.796875q-0.734375 -0.8125 -0.734375 -2.21875q0 -0.921875 0.296875 -1.53125q0.3125 -0.625 0.875 -1.0q0.578125 -0.390625 1.34375 -0.546875q0.78125 -0.15625 1.75 -0.15625q0.203125 0 0.421875 0q0.21875 0 0.453125 0.015625q0.0625 -0.65625 0.0625 -1.171875q0 -1.21875 -0.375 -1.703125q-0.359375 -0.5 -1.3125 -0.5q-0.59375 0 -1.296875 0.1875q-0.703125 0.1875 -1.1875 0.453125l-0.5 -1.21875zm4.625 5.171875q-0.21875 -0.03125 -0.4375 -0.03125q-0.203125 -0.015625 -0.421875 -0.015625q-0.5 0 -1.0 0.09375q-0.484375 0.078125 -0.875 0.296875q-0.375 0.203125 -0.609375 0.578125q-0.21875 0.359375 -0.21875 0.90625q0 0.859375 0.40625 1.328125q0.421875 0.46875 1.09375 0.46875q0.890625 0 1.375 -0.421875q0.5 -0.4375 0.6875 -0.953125l0 -2.25zm-1.5 -10.500002l1.671875 0l0 0.4531269l-1.75 2.734375l-0.921875 0l1.0 -3.187502zm5.3437805 13.609377q0.421875 0.25 1.0 0.4375q0.59375 0.1875 1.21875 0.1875q0.703125 0 1.1875 -0.34375q0.484375 -0.359375 0.484375 -1.15625q0 -0.65625 -0.296875 -1.078125q-0.296875 -0.4375 -0.765625 -0.765625q-0.453125 -0.34375 -0.984375 -0.625q-0.53125 -0.296875 -0.984375 -0.703125q-0.453125 -0.40625 -0.765625 -0.953125q-0.296875 -0.5625 -0.296875 -1.421875q0 -1.359375 0.734375 -2.046875q0.75 -0.703125 2.09375 -0.703125q0.859375 0 1.5 0.171875q0.640625 0.15625 1.109375 0.421875l-0.40625 1.28125q-0.390625 -0.203125 -0.9375 -0.34375q-0.53125 -0.140625 -1.078125 -0.140625q-0.765625 0 -1.125 0.328125q-0.34375 0.3125 -0.34375 0.984375q0 0.546875 0.296875 0.921875q0.296875 0.359375 0.75 0.671875q0.46875 0.3125 1.0 0.640625q0.53125 0.3125 0.984375 0.75q0.453125 0.4375 0.75 1.046875q0.3125 0.609375 0.3125 1.515625q0 0.609375 -0.203125 1.140625q-0.1875 0.53125 -0.578125 0.921875q-0.390625 0.390625 -0.984375 0.625q-0.578125 0.234375 -1.375 0.234375q-0.9375 0 -1.625 -0.1875q-0.671875 -0.171875 -1.140625 -0.46875l0.46875 -1.34375z" fill-rule="nonzero"/><path fill="#c9daf8" d="m0 129.21811l0 0c0 -7.3291473 5.941453 -13.270599 13.270607 -13.270599l162.43515 0c3.5195923 0 6.8950195 1.3981476 9.383743 3.8868637c2.4887238 2.4887238 3.8868713 5.8641586 3.8868713 9.383736l0 53.08084c0 7.3291473 -5.941452 13.270599 -13.270615 13.270599l-162.43515 0c-7.329154 0 -13.270607 -5.941452 -13.270607 -13.270599z" fill-rule="evenodd"/><path stroke="#1c4587" stroke-width="1.0" stroke-linejoin="round" stroke-linecap="butt" d="m0 129.21811l0 0c0 -7.3291473 5.941453 -13.270599 13.270607 -13.270599l162.43515 0c3.5195923 0 6.8950195 1.3981476 9.383743 3.8868637c2.4887238 2.4887238 3.8868713 5.8641586 3.8868713 9.383736l0 53.08084c0 7.3291473 -5.941452 13.270599 -13.270615 13.270599l-162.43515 0c-7.329154 0 -13.270607 -5.941452 -13.270607 -13.270599z" fill-rule="evenodd"/><path fill="#1c4587" d="m55.330494 162.6604q-0.53125 0.453125 -1.34375 0.640625q-0.8125 0.1875 -1.703125 0.1875q-1.140625 0 -2.09375 -0.421875q-0.953125 -0.421875 -1.65625 -1.34375q-0.6875 -0.9375 -1.078125 -2.40625q-0.375 -1.46875 -0.375 -3.546875q0 -2.125 0.4375 -3.59375q0.4375 -1.484375 1.15625 -2.390625q0.71875 -0.921875 1.671875 -1.328125q0.953125 -0.40625 1.953125 -0.40625q1.03125 0 1.703125 0.15625q0.671875 0.140625 1.15625 0.359375l-0.390625 1.453125q-0.421875 -0.234375 -1.0 -0.359375q-0.578125 -0.140625 -1.3125 -0.140625q-0.75 0 -1.421875 0.34375q-0.65625 0.328125 -1.171875 1.0625q-0.5 0.734375 -0.796875 1.9375q-0.296875 1.1875 -0.296875 2.90625q0 3.125 1.0625 4.6875q1.0625 1.5625 2.828125 1.5625q0.734375 0 1.296875 -0.203125q0.578125 -0.203125 0.984375 -0.46875l0.390625 1.3125zm0.79599 -4.75q0 -2.890625 0.984375 -4.234375q0.984375 -1.359375 2.828125 -1.359375q1.953125 0 2.875 1.390625q0.9375 1.390625 0.9375 4.203125q0 2.890625 -1.0 4.234375q-1.0 1.34375 -2.8125 1.34375q-1.96875 0 -2.890625 -1.375q-0.921875 -1.390625 -0.921875 -4.203125zm1.59375 0q0 0.9375 0.109375 1.703125q0.125 0.765625 0.390625 1.328125q0.265625 0.546875 0.6875 0.859375q0.4375 0.3125 1.03125 0.3125q1.109375 0 1.65625 -0.984375q0.5625 -1.0 0.5625 -3.21875q0 -0.921875 -0.125 -1.703125q-0.109375 -0.78125 -0.375 -1.328125q-0.265625 -0.5625 -0.703125 -0.859375q-0.421875 -0.3125 -1.015625 -0.3125q-1.09375 0 -1.65625 1.0q-0.5625 1.0 -0.5625 3.203125zm8.088787 -5.34375l1.078125 0l0.28125 1.140625l0.0625 0q0.296875 -0.625 0.78125 -0.96875q0.484375 -0.359375 1.15625 -0.359375q0.5 0 1.109375 0.1875l-0.296875 1.5625q-0.546875 -0.1875 -0.984375 -0.1875q-0.671875 0 -1.109375 0.390625q-0.421875 0.390625 -0.546875 1.0625l0 7.84375l-1.53125 0l0 -10.671875zm12.218933 9.953125q-0.515625 0.46875 -1.3125 0.71875q-0.78125 0.25 -1.65625 0.25q-1.0 0 -1.734375 -0.390625q-0.734375 -0.390625 -1.21875 -1.125q-0.484375 -0.734375 -0.703125 -1.75q-0.21875 -1.03125 -0.21875 -2.3125q0 -2.734375 1.0 -4.15625q1.0 -1.4375 2.828125 -1.4375q0.59375 0 1.1875 0.15625q0.59375 0.140625 1.0625 0.59375q0.46875 0.453125 0.75 1.265625q0.28125 0.796875 0.28125 2.109375q0 0.359375 -0.03125 0.78125q-0.03125 0.40625 -0.0625 0.859375l-5.421875 0q0 0.90625 0.140625 1.65625q0.15625 0.75 0.46875 1.28125q0.328125 0.515625 0.828125 0.8125q0.5 0.28125 1.25 0.28125q0.578125 0 1.140625 -0.21875q0.5625 -0.21875 0.859375 -0.515625l0.5625 1.140625zm-1.203125 -5.71875q0.046875 -1.609375 -0.453125 -2.34375q-0.484375 -0.75 -1.328125 -0.75q-0.984375 0 -1.5625 0.75q-0.578125 0.734375 -0.6875 2.34375l4.03125 0zm8.876999 -8.5l1.59375 0l0 11.59375q0 1.75 -0.5625 2.65625q-0.5625 0.90625 -1.96875 0.90625q-0.34375 0 -0.828125 -0.09375q-0.46875 -0.078125 -0.765625 -0.25l0.328125 -1.390625q0.21875 0.125 0.484375 0.1875q0.265625 0.0625 0.546875 0.0625q0.375 0 0.609375 -0.15625q0.234375 -0.171875 0.359375 -0.484375q0.140625 -0.3125 0.171875 -0.75q0.03125 -0.4375 0.03125 -0.984375l0 -11.296875zm4.311981 4.90625q0.609375 -0.375 1.5 -0.578125q0.890625 -0.21875 1.859375 -0.21875q0.90625 0 1.4375 0.265625q0.546875 0.265625 0.859375 0.71875q0.3125 0.453125 0.40625 1.046875q0.09375 0.578125 0.09375 1.21875q0 1.28125 -0.0625 2.5q-0.046875 1.21875 -0.046875 2.3125q0 0.796875 0.046875 1.5q0.0625 0.6875 0.21875 1.3125l-1.171875 0l-0.375 -1.265625l-0.078125 0q-0.3125 0.5625 -0.9375 0.96875q-0.625 0.40625 -1.671875 0.40625q-1.140625 0 -1.875 -0.796875q-0.734375 -0.8125 -0.734375 -2.21875q0 -0.921875 0.296875 -1.53125q0.3125 -0.625 0.875 -1.0q0.578125 -0.390625 1.34375 -0.546875q0.78125 -0.15625 1.75 -0.15625q0.203125 0 0.421875 0q0.21875 0 0.453125 0.015625q0.0625 -0.65625 0.0625 -1.171875q0 -1.21875 -0.375 -1.703125q-0.359375 -0.5 -1.3125 -0.5q-0.59375 0 -1.296875 0.1875q-0.703125 0.1875 -1.1875 0.453125l-0.5 -1.21875zm4.625 5.171875q-0.21875 -0.03125 -0.4375 -0.03125q-0.203125 -0.015625 -0.421875 -0.015625q-0.5 0 -1.0 0.09375q-0.484375 0.078125 -0.875 0.296875q-0.375 0.203125 -0.609375 0.578125q-0.21875 0.359375 -0.21875 0.90625q0 0.859375 0.40625 1.328125q0.421875 0.46875 1.09375 0.46875q0.890625 0 1.375 -0.421875q0.5 -0.4375 0.6875 -0.953125l0 -2.25zm6.5937805 0.4375l0.421875 2.125l0.046875 0l0.375 -2.15625l1.875 -6.21875l1.625 0l-3.640625 10.90625l-0.75 0l-3.71875 -10.90625l1.75 0l2.015625 6.25zm5.587845 -5.609375q0.609375 -0.375 1.5 -0.578125q0.890625 -0.21875 1.859375 -0.21875q0.90625 0 1.4375 0.265625q0.546875 0.265625 0.859375 0.71875q0.3125 0.453125 0.40625 1.046875q0.09375 0.578125 0.09375 1.21875q0 1.28125 -0.0625 2.5q-0.046875 1.21875 -0.046875 2.3125q0 0.796875 0.046875 1.5q0.0625 0.6875 0.21875 1.3125l-1.171875 0l-0.375 -1.265625l-0.078125 0q-0.3125 0.5625 -0.9375 0.96875q-0.625 0.40625 -1.671875 0.40625q-1.140625 0 -1.875 -0.796875q-0.734375 -0.8125 -0.734375 -2.21875q0 -0.921875 0.296875 -1.53125q0.3125 -0.625 0.875 -1.0q0.578125 -0.390625 1.34375 -0.546875q0.78125 -0.15625 1.75 -0.15625q0.203125 0 0.421875 0q0.21875 0 0.453125 0.015625q0.0625 -0.65625 0.0625 -1.171875q0 -1.21875 -0.375 -1.703125q-0.359375 -0.5 -1.3125 -0.5q-0.59375 0 -1.296875 0.1875q-0.703125 0.1875 -1.1875 0.453125l-0.5 -1.21875zm4.625 5.171875q-0.21875 -0.03125 -0.4375 -0.03125q-0.203125 -0.015625 -0.421875 -0.015625q-0.5 0 -1.0 0.09375q-0.484375 0.078125 -0.875 0.296875q-0.375 0.203125 -0.609375 0.578125q-0.21875 0.359375 -0.21875 0.90625q0 0.859375 0.40625 1.328125q0.421875 0.46875 1.09375 0.46875q0.890625 0 1.375 -0.421875q0.5 -0.4375 0.6875 -0.953125l0 -2.25zm13.804977 0.671875l-4.234375 0l-1.1875 4.1875l-1.578125 0l4.5 -15.171875l0.875 0l4.5 15.171875l-1.671875 0l-1.203125 -4.1875zm-3.796875 -1.421875l3.40625 0l-1.296875 -4.609375l-0.40625 -2.234375l-0.046875 0l-0.40625 2.28125l-1.25 4.5625zm8.135117 -9.171875q0.6875 -0.1875 1.453125 -0.25q0.765625 -0.0625 1.515625 -0.0625q0.859375 0 1.6875 0.1875q0.828125 0.1875 1.5 0.703125q0.671875 0.515625 1.078125 1.40625q0.421875 0.890625 0.421875 2.28125q0 1.34375 -0.390625 2.28125q-0.390625 0.9375 -1.046875 1.53125q-0.640625 0.578125 -1.484375 0.84375q-0.84375 0.265625 -1.75 0.265625q-0.078125 0 -0.28125 0q-0.1875 0 -0.40625 0q-0.203125 -0.015625 -0.40625 -0.03125q-0.203125 -0.03125 -0.28125 -0.046875l0 5.671875l-1.609375 0l0 -14.78125zm3.0625 1.15625q-0.4375 0 -0.828125 0.03125q-0.390625 0.03125 -0.625 0.09375l0 6.359375q0.078125 0.03125 0.25 0.046875q0.1875 0.015625 0.375 0.03125q0.203125 0 0.375 0q0.1875 0 0.28125 0q0.59375 0 1.140625 -0.140625q0.5625 -0.15625 0.984375 -0.546875q0.421875 -0.390625 0.6875 -1.0625q0.28125 -0.671875 0.28125 -1.703125q0 -0.890625 -0.25 -1.484375q-0.25 -0.609375 -0.640625 -0.96875q-0.390625 -0.359375 -0.9375 -0.5q-0.53125 -0.15625 -1.09375 -0.15625zm6.8846436 -1.3125l1.59375 0l0 14.9375l-1.59375 0l0 -14.9375z" fill-rule="nonzero"/><path fill="#000000" fill-opacity="0.0" d="m94.48819 79.62205l0 36.314957" fill-rule="evenodd"/><path stroke="#000000" stroke-width="1.0" stroke-linejoin="round" stroke-linecap="butt" d="m94.48819 79.62205l0 30.314957" fill-rule="evenodd"/><path fill="#000000" stroke="#000000" stroke-width="1.0" stroke-linecap="butt" d="m92.83646 109.93701l1.6517334 4.5380936l1.6517334 -4.5380936z" fill-rule="evenodd"/><path fill="#fff2cc" d="m534.2441 115.94751l125.98425 0c17.394836 0 31.496094 17.824005 31.496094 39.81102c0 21.987015 -14.101257 39.81102 -31.496094 39.81102l-125.98425 0l0 0c-17.394775 0 -31.496063 -17.824005 -31.496063 -39.81102c0 -21.987015 14.101288 -39.81102 31.496063 -39.81102z" fill-rule="evenodd"/><path fill="#000000" fill-opacity="0.0" d="m660.22833 195.56955c-17.394775 0 -31.496033 -17.824005 -31.496033 -39.81102c0 -21.987015 14.101257 -39.81102 31.496033 -39.81102" fill-rule="evenodd"/><path fill="#000000" fill-opacity="0.0" d="m534.2441 115.94751l125.98425 0c17.394836 0 31.496094 17.824005 31.496094 39.81102c0 21.987015 -14.101257 39.81102 -31.496094 39.81102l-125.98425 0l0 0c-17.394775 0 -31.496063 -17.824005 -31.496063 -39.81102c0 -21.987015 14.101288 -39.81102 31.496063 -39.81102z" fill-rule="evenodd"/><path stroke="#7f6000" stroke-width="1.0" stroke-linejoin="round" stroke-linecap="butt" d="m660.22833 195.56955c-17.394775 0 -31.496033 -17.824005 -31.496033 -39.81102c0 -21.987015 14.101257 -39.81102 31.496033 -39.81102" fill-rule="evenodd"/><path stroke="#7f6000" stroke-width="1.0" stroke-linejoin="round" stroke-linecap="butt" d="m534.2441 115.94751l125.98425 0c17.394836 0 31.496094 17.824005 31.496094 39.81102c0 21.987015 -14.101257 39.81102 -31.496094 39.81102l-125.98425 0l0 0c-17.394775 0 -31.496063 -17.824005 -31.496063 -39.81102c0 -21.987015 14.101288 -39.81102 31.496063 -39.81102z" fill-rule="evenodd"/><path fill="#7f6000" d="m553.3316 148.25415q0.390625 0.28125 1.125 0.53125q0.75 0.234375 1.6875 0.234375q1.1875 0 1.9375 -0.578125q0.75 -0.59375 0.75 -1.84375q0 -0.84375 -0.4375 -1.453125q-0.421875 -0.625 -1.0625 -1.140625q-0.640625 -0.53125 -1.375 -1.03125q-0.734375 -0.5 -1.375 -1.109375q-0.640625 -0.609375 -1.0625 -1.390625q-0.421875 -0.796875 -0.421875 -1.90625q0 -1.78125 1.0625 -2.640625q1.078125 -0.875 2.8125 -0.875q1.0625 0 1.890625 0.203125q0.84375 0.1875 1.34375 0.484375l-0.5 1.40625q-0.390625 -0.234375 -1.109375 -0.421875q-0.703125 -0.203125 -1.640625 -0.203125q-1.15625 0 -1.71875 0.578125q-0.546875 0.5625 -0.546875 1.40625q0 0.75 0.421875 1.328125q0.421875 0.578125 1.0625 1.09375q0.640625 0.5 1.375 1.03125q0.75 0.515625 1.375 1.15625q0.640625 0.640625 1.0625 1.453125q0.4375 0.8125 0.4375 1.921875q0 1.875 -1.109375 2.9375q-1.109375 1.0625 -3.140625 1.0625q-1.265625 0 -2.09375 -0.234375q-0.828125 -0.234375 -1.3125 -0.53125l0.5625 -1.46875zm15.503479 1.265625q-0.515625 0.46875 -1.3125 0.71875q-0.78125 0.25 -1.65625 0.25q-1.0 0 -1.734375 -0.390625q-0.734375 -0.390625 -1.21875 -1.125q-0.484375 -0.734375 -0.703125 -1.75q-0.21875 -1.03125 -0.21875 -2.3125q0 -2.734375 1.0 -4.15625q1.0 -1.4375 2.828125 -1.4375q0.59375 0 1.1875 0.15625q0.59375 0.140625 1.0625 0.59375q0.46875 0.453125 0.75 1.265625q0.28125 0.796875 0.28125 2.109375q0 0.359375 -0.03125 0.78125q-0.03125 0.40625 -0.0625 0.859375l-5.421875 0q0 0.90625 0.140625 1.65625q0.15625 0.75 0.46875 1.28125q0.328125 0.515625 0.828125 0.8125q0.5 0.28125 1.25 0.28125q0.578125 0 1.140625 -0.21875q0.5625 -0.21875 0.859375 -0.515625l0.5625 1.140625zm-1.203125 -5.71875q0.046875 -1.609375 -0.453125 -2.34375q-0.484375 -0.75 -1.328125 -0.75q-0.984375 0 -1.5625 0.75q-0.578125 0.734375 -0.6875 2.34375l4.03125 0zm9.341003 5.90625q-0.53125 0.40625 -1.21875 0.59375q-0.671875 0.1875 -1.421875 0.1875q-1.03125 0 -1.734375 -0.390625q-0.703125 -0.390625 -1.140625 -1.125q-0.4375 -0.734375 -0.640625 -1.765625q-0.1875 -1.046875 -0.1875 -2.296875q0 -2.734375 0.96875 -4.15625q0.96875 -1.4375 2.78125 -1.4375q0.828125 0 1.421875 0.15625q0.59375 0.140625 1.03125 0.375l-0.4375 1.34375q-0.84375 -0.484375 -1.84375 -0.484375q-1.15625 0 -1.75 1.015625q-0.578125 1.015625 -0.578125 3.1875q0 0.875 0.125 1.640625q0.125 0.765625 0.421875 1.328125q0.296875 0.5625 0.765625 0.90625q0.484375 0.328125 1.1875 0.328125q0.546875 0 1.03125 -0.1875q0.484375 -0.203125 0.78125 -0.453125l0.4375 1.234375zm3.0928345 -10.140625l0 6.53125q0 1.625 0.328125 2.328125q0.34375 0.6875 1.21875 0.6875q0.4375 0 0.78125 -0.1875q0.359375 -0.1875 0.640625 -0.484375q0.28125 -0.296875 0.484375 -0.671875q0.21875 -0.390625 0.34375 -0.796875l0 -7.40625l1.546875 0l0 7.640625q0 0.765625 0.046875 1.59375q0.046875 0.8125 0.15625 1.4375l-1.078125 0l-0.390625 -1.5l-0.0625 0q-0.359375 0.703125 -1.046875 1.234375q-0.6875 0.515625 -1.703125 0.515625q-0.6875 0 -1.203125 -0.171875q-0.5 -0.15625 -0.875 -0.609375q-0.359375 -0.453125 -0.546875 -1.21875q-0.171875 -0.78125 -0.171875 -2.0l0 -6.921875l1.53125 0zm7.8814087 0l1.078125 0l0.28125 1.140625l0.0625 0q0.296875 -0.625 0.78125 -0.96875q0.484375 -0.359375 1.15625 -0.359375q0.5 0 1.109375 0.1875l-0.296875 1.5625q-0.546875 -0.1875 -0.984375 -0.1875q-0.671875 0 -1.109375 0.390625q-0.421875 0.390625 -0.546875 1.0625l0 7.84375l-1.53125 0l0 -10.671875zm6.093933 0l1.53125 0l0 10.671875l-1.53125 0l0 -10.671875zm-0.28125 -3.234375q0 -0.515625 0.28125 -0.828125q0.296875 -0.328125 0.765625 -0.328125q0.46875 0 0.78125 0.3125q0.3125 0.3125 0.3125 0.84375q0 0.515625 -0.3125 0.8125q-0.3125 0.28125 -0.78125 0.28125q-0.46875 0 -0.765625 -0.296875q-0.28125 -0.3125 -0.28125 -0.796875zm3.5813599 3.234375l1.3125 0l0 -2.109375l1.53125 -0.484375l0 2.59375l2.296875 0l0 1.390625l-2.296875 0l0 6.359375q0 0.9375 0.21875 1.359375q0.21875 0.40625 0.734375 0.40625q0.4375 0 0.734375 -0.09375q0.3125 -0.09375 0.671875 -0.25l0.296875 1.21875q-0.46875 0.234375 -1.03125 0.375q-0.5625 0.140625 -1.1875 0.140625q-1.0625 0 -1.515625 -0.6875q-0.453125 -0.703125 -0.453125 -2.25l0 -6.578125l-1.3125 0l0 -1.390625zm9.455994 6.890625l0.4375 2.078125l0.109375 0l0.328125 -2.078125l1.625 -6.890625l1.546875 0l-2.53125 9.578125q-0.296875 1.15625 -0.609375 2.15625q-0.296875 1.0 -0.65625 1.734375q-0.34375 0.75 -0.78125 1.15625q-0.4375 0.421875 -1.03125 0.421875q-0.59375 0 -1.046875 -0.1875l0.265625 -1.453125q0.296875 0.109375 0.59375 0.03125q0.296875 -0.0625 0.5625 -0.359375q0.265625 -0.296875 0.484375 -0.890625q0.234375 -0.578125 0.40625 -1.515625l-3.453125 -10.671875l1.734375 0l2.015625 6.890625z" fill-rule="nonzero"/><path fill="#7f6000" d="m561.2422 161.45728q0.6875 -0.1875 1.453125 -0.25q0.765625 -0.0625 1.515625 -0.0625q0.859375 0 1.6875 0.1875q0.828125 0.1875 1.5 0.703125q0.671875 0.515625 1.078125 1.40625q0.421875 0.890625 0.421875 2.28125q0 1.34375 -0.390625 2.28125q-0.390625 0.9375 -1.046875 1.53125q-0.640625 0.578125 -1.484375 0.84375q-0.84375 0.265625 -1.75 0.265625q-0.078125 0 -0.28125 0q-0.1875 0 -0.40625 0q-0.203125 -0.015625 -0.40625 -0.03125q-0.203125 -0.03125 -0.28125 -0.046875l0 5.671875l-1.609375 0l0 -14.78125zm3.0625 1.15625q-0.4375 0 -0.828125 0.03125q-0.390625 0.03125 -0.625 0.09375l0 6.359375q0.078125 0.03125 0.25 0.046875q0.1875 0.015625 0.375 0.03125q0.203125 0 0.375 0q0.1875 0 0.28125 0q0.59375 0 1.140625 -0.140625q0.5625 -0.15625 0.984375 -0.546875q0.421875 -0.390625 0.6875 -1.0625q0.28125 -0.671875 0.28125 -1.703125q0 -0.890625 -0.25 -1.484375q-0.25 -0.609375 -0.640625 -0.96875q-0.390625 -0.359375 -0.9375 -0.5q-0.53125 -0.15625 -1.09375 -0.15625zm5.375366 8.296875q0 -2.890625 0.984375 -4.234375q0.984375 -1.359375 2.828125 -1.359375q1.953125 0 2.875 1.390625q0.9375 1.390625 0.9375 4.203125q0 2.890625 -1.0 4.234375q-1.0 1.34375 -2.8125 1.34375q-1.96875 0 -2.890625 -1.375q-0.921875 -1.390625 -0.921875 -4.203125zm1.59375 0q0 0.9375 0.109375 1.703125q0.125 0.765625 0.390625 1.328125q0.265625 0.546875 0.6875 0.859375q0.4375 0.3125 1.03125 0.3125q1.109375 0 1.65625 -0.984375q0.5625 -1.0 0.5625 -3.21875q0 -0.921875 -0.125 -1.703125q-0.109375 -0.78125 -0.375 -1.328125q-0.265625 -0.5625 -0.703125 -0.859375q-0.421875 -0.3125 -1.015625 -0.3125q-1.09375 0 -1.65625 1.0q-0.5625 1.0 -0.5625 3.203125zm9.72937 2.796875q0 0.734375 0.203125 1.0625q0.203125 0.3125 0.5625 0.3125q0.4375 0 1.046875 -0.234375l0.140625 1.234375q-0.28125 0.171875 -0.78125 0.28125q-0.5 0.109375 -0.90625 0.109375q-0.796875 0 -1.3125 -0.5q-0.5 -0.5 -0.5 -1.765625l0 -12.90625l1.546875 0l0 12.40625zm3.5788574 -8.140625l1.53125 0l0 10.671875l-1.53125 0l0 -10.671875zm-0.28125 -3.234375q0 -0.515625 0.28125 -0.828125q0.296875 -0.328125 0.765625 -0.328125q0.46875 0 0.78125 0.3125q0.3125 0.3125 0.3125 0.84375q0 0.515625 -0.3125 0.8125q-0.3125 0.28125 -0.78125 0.28125q-0.46875 0 -0.765625 -0.296875q-0.28125 -0.3125 -0.28125 -0.796875zm10.534485 13.375q-0.53125 0.40625 -1.21875 0.59375q-0.671875 0.1875 -1.421875 0.1875q-1.03125 0 -1.734375 -0.390625q-0.703125 -0.390625 -1.140625 -1.125q-0.4375 -0.734375 -0.640625 -1.765625q-0.1875 -1.046875 -0.1875 -2.296875q0 -2.734375 0.96875 -4.15625q0.96875 -1.4375 2.78125 -1.4375q0.828125 0 1.421875 0.15625q0.59375 0.140625 1.03125 0.375l-0.4375 1.34375q-0.84375 -0.484375 -1.84375 -0.484375q-1.15625 0 -1.75 1.015625q-0.578125 1.015625 -0.578125 3.1875q0 0.875 0.125 1.640625q0.125 0.765625 0.421875 1.328125q0.296875 0.5625 0.765625 0.90625q0.484375 0.328125 1.1875 0.328125q0.546875 0 1.03125 -0.1875q0.484375 -0.203125 0.78125 -0.453125l0.4375 1.234375zm4.1451416 -3.25l0.4375 2.078125l0.109375 0l0.328125 -2.078125l1.625 -6.890625l1.546875 0l-2.53125 9.578125q-0.296875 1.15625 -0.609375 2.15625q-0.296875 1.0 -0.65625 1.734375q-0.34375 0.75 -0.78125 1.15625q-0.4375 0.421875 -1.03125 0.421875q-0.59375 0 -1.046875 -0.1875l0.265625 -1.453125q0.296875 0.109375 0.59375 0.03125q0.296875 -0.0625 0.5625 -0.359375q0.265625 -0.296875 0.484375 -0.890625q0.234375 -0.578125 0.40625 -1.515625l-3.453125 -10.671875l1.734375 0l2.015625 6.890625z" fill-rule="nonzero"/><path fill="#c9daf8" d="m0 358.13675l0 0c0 -7.3291626 5.941453 -13.270599 13.270607 -13.270599l162.43515 0c3.5195923 0 6.8950195 1.3981323 9.383743 3.8868713c2.4887238 2.4887085 3.8868713 5.8641357 3.8868713 9.383728l0 53.08084c0 7.329132 -5.941452 13.270599 -13.270615 13.270599l-162.43515 0c-7.329154 0 -13.270607 -5.9414673 -13.270607 -13.270599z" fill-rule="evenodd"/><path stroke="#1c4587" stroke-width="1.0" stroke-linejoin="round" stroke-linecap="butt" d="m0 358.13675l0 0c0 -7.3291626 5.941453 -13.270599 13.270607 -13.270599l162.43515 0c3.5195923 0 6.8950195 1.3981323 9.383743 3.8868713c2.4887238 2.4887085 3.8868713 5.8641357 3.8868713 9.383728l0 53.08084c0 7.329132 -5.941452 13.270599 -13.270615 13.270599l-162.43515 0c-7.329154 0 -13.270607 -5.9414673 -13.270607 -13.270599z" fill-rule="evenodd"/><path fill="#1c4587" d="m40.90584 384.68842q0 -3.796875 1.203125 -5.75q1.21875 -1.96875 3.71875 -1.96875q1.34375 0 2.28125 0.546875q0.9375 0.546875 1.515625 1.546875q0.59375 1.0 0.875 2.4375q0.28125 1.421875 0.28125 3.1875q0 3.796875 -1.234375 5.765625q-1.21875 1.953125 -3.71875 1.953125q-1.328125 0 -2.265625 -0.53125q-0.9375 -0.546875 -1.53125 -1.546875q-0.59375 -1.015625 -0.859375 -2.4375q-0.265625 -1.421875 -0.265625 -3.203125zm1.6875 0q0 1.265625 0.171875 2.390625q0.1875 1.125 0.5625 1.984375q0.390625 0.859375 1.0 1.375q0.625 0.5 1.5 0.5q1.59375 0 2.421875 -1.53125q0.84375 -1.53125 0.84375 -4.71875q0 -1.234375 -0.1875 -2.359375q-0.171875 -1.140625 -0.5625 -2.0q-0.375 -0.859375 -1.0 -1.375q-0.625 -0.515625 -1.515625 -0.515625q-1.578125 0 -2.40625 1.546875q-0.828125 1.53125 -0.828125 4.703125zm10.365433 5.484375q0.390625 0.28125 1.125 0.53125q0.75 0.234375 1.6875 0.234375q1.1875 0 1.9375 -0.578125q0.75 -0.59375 0.75 -1.84375q0 -0.84375 -0.4375 -1.453125q-0.421875 -0.625 -1.0625 -1.140625q-0.640625 -0.53125 -1.375 -1.03125q-0.734375 -0.5 -1.375 -1.109375q-0.640625 -0.609375 -1.0625 -1.390625q-0.421875 -0.796875 -0.421875 -1.90625q0 -1.78125 1.0625 -2.640625q1.078125 -0.875 2.8125 -0.875q1.0625 0 1.890625 0.203125q0.84375 0.1875 1.34375 0.484375l-0.5 1.40625q-0.390625 -0.234375 -1.109375 -0.421875q-0.703125 -0.203125 -1.640625 -0.203125q-1.15625 0 -1.71875 0.578125q-0.546875 0.5625 -0.546875 1.40625q0 0.75 0.421875 1.328125q0.421875 0.578125 1.0625 1.09375q0.640625 0.5 1.375 1.03125q0.75 0.515625 1.375 1.15625q0.640625 0.640625 1.0625 1.453125q0.4375 0.8125 0.4375 1.921875q0 1.875 -1.109375 2.9375q-1.109375 1.0625 -3.140625 1.0625q-1.265625 0 -2.09375 -0.234375q-0.828125 -0.234375 -1.3125 -0.53125l0.5625 -1.46875zm13.743801 -12.953125l6.640625 0l0 1.484375l-5.03125 0l0 5.046875l4.625 0l0 1.46875l-4.625 0l0 5.46875l5.140625 0l0 1.46875l-6.75 0l0 -14.9375zm9.056046 4.265625l1.078125 0l0.28125 1.140625l0.0625 0q0.296875 -0.625 0.78125 -0.96875q0.484375 -0.359375 1.15625 -0.359375q0.5 0 1.109375 0.1875l-0.296875 1.5625q-0.546875 -0.1875 -0.984375 -0.1875q-0.671875 0 -1.109375 0.390625q-0.421875 0.390625 -0.546875 1.0625l0 7.84375l-1.53125 0l0 -10.671875zm5.375183 5.34375q0 -2.890625 0.984375 -4.234375q0.984375 -1.359375 2.828125 -1.359375q1.953125 0 2.875 1.390625q0.9375 1.390625 0.9375 4.203125q0 2.890625 -1.0 4.234375q-1.0 1.34375 -2.8125 1.34375q-1.96875 0 -2.890625 -1.375q-0.921875 -1.390625 -0.921875 -4.203125zm1.59375 0q0 0.9375 0.109375 1.703125q0.125 0.765625 0.390625 1.328125q0.265625 0.546875 0.6875 0.859375q0.4375 0.3125 1.03125 0.3125q1.109375 0 1.65625 -0.984375q0.5625 -1.0 0.5625 -3.21875q0 -0.921875 -0.125 -1.703125q-0.109375 -0.78125 -0.375 -1.328125q-0.265625 -0.5625 -0.703125 -0.859375q-0.421875 -0.3125 -1.015625 -0.3125q-1.09375 0 -1.65625 1.0q-0.5625 1.0 -0.5625 3.203125zm1.484375 -9.609375l1.46875 0l0 0.34375l-1.234375 2.421875l-0.828125 0l0.59375 -2.765625zm2.625 0l1.59375 0l0 0.34375l-1.953125 2.421875l-0.90625 0l1.265625 -2.765625zm3.057541 4.265625l1.296875 0l0 -0.59375q0 -2.0 0.578125 -2.890625q0.578125 -0.90625 1.96875 -0.90625q0.546875 0 0.984375 0.0625q0.453125 0.0625 0.921875 0.28125l-0.375 1.328125q-0.390625 -0.171875 -0.71875 -0.21875q-0.328125 -0.0625 -0.625 -0.0625q-0.421875 0 -0.671875 0.171875q-0.234375 0.171875 -0.359375 0.53125q-0.109375 0.359375 -0.140625 0.9375q-0.03125 0.5625 -0.03125 1.359375l2.21875 0l0 1.390625l-2.21875 0l0 9.28125l-1.53125 0l0 -9.28125l-1.296875 0l0 -1.390625zm5.763809 5.34375q0 -2.890625 0.984375 -4.234375q0.984375 -1.359375 2.828125 -1.359375q1.953125 0 2.875 1.390625q0.9375 1.390625 0.9375 4.203125q0 2.890625 -1.0 4.234375q-1.0 1.34375 -2.8125 1.34375q-1.96875 0 -2.890625 -1.375q-0.921875 -1.390625 -0.921875 -4.203125zm1.59375 0q0 0.9375 0.109375 1.703125q0.125 0.765625 0.390625 1.328125q0.265625 0.546875 0.6875 0.859375q0.4375 0.3125 1.03125 0.3125q1.109375 0 1.65625 -0.984375q0.5625 -1.0 0.5625 -3.21875q0 -0.921875 -0.125 -1.703125q-0.109375 -0.78125 -0.375 -1.328125q-0.265625 -0.5625 -0.703125 -0.859375q-0.421875 -0.3125 -1.015625 -0.3125q-1.09375 0 -1.65625 1.0q-0.5625 1.0 -0.5625 3.203125zm8.088791 -5.34375l1.078125 0l0.28125 1.140625l0.0625 0q0.296875 -0.625 0.78125 -0.96875q0.484375 -0.359375 1.15625 -0.359375q0.5 0 1.109375 0.1875l-0.296875 1.5625q-0.546875 -0.1875 -0.984375 -0.1875q-0.671875 0 -1.109375 0.390625q-0.421875 0.390625 -0.546875 1.0625l0 7.84375l-1.53125 0l0 -10.671875zm5.843933 0l1.078125 0l0.28125 1.140625l0.0625 0q0.296875 -0.625 0.78125 -0.96875q0.484375 -0.359375 1.15625 -0.359375q0.5 0 1.109375 0.1875l-0.296875 1.5625q-0.546875 -0.1875 -0.984375 -0.1875q-0.671875 0 -1.109375 0.390625q-0.421875 0.390625 -0.546875 1.0625l0 7.84375l-1.53125 0l0 -10.671875zm5.734558 0.640625q0.609375 -0.375 1.5 -0.578125q0.890625 -0.21875 1.859375 -0.21875q0.90625 0 1.4375 0.265625q0.546875 0.265625 0.859375 0.71875q0.3125 0.453125 0.40625 1.046875q0.09375 0.578125 0.09375 1.21875q0 1.28125 -0.0625 2.5q-0.046875 1.21875 -0.046875 2.3125q0 0.796875 0.046875 1.5q0.0625 0.6875 0.21875 1.3125l-1.171875 0l-0.375 -1.265625l-0.078125 0q-0.3125 0.5625 -0.9375 0.96875q-0.625 0.40625 -1.671875 0.40625q-1.140625 0 -1.875 -0.796875q-0.734375 -0.8125 -0.734375 -2.21875q0 -0.921875 0.296875 -1.53125q0.3125 -0.625 0.875 -1.0q0.578125 -0.390625 1.34375 -0.546875q0.78125 -0.15625 1.75 -0.15625q0.203125 0 0.421875 0q0.21875 0 0.453125 0.015625q0.0625 -0.65625 0.0625 -1.171875q0 -1.21875 -0.375 -1.703125q-0.359375 -0.5 -1.3125 -0.5q-0.59375 0 -1.296875 0.1875q-0.703125 0.1875 -1.1875 0.453125l-0.5 -1.21875zm4.625 5.171875q-0.21875 -0.03125 -0.4375 -0.03125q-0.203125 -0.015625 -0.421875 -0.015625q-0.5 0 -1.0 0.09375q-0.484375 0.078125 -0.875 0.296875q-0.375 0.203125 -0.609375 0.578125q-0.21875 0.359375 -0.21875 0.90625q0 0.859375 0.40625 1.328125q0.421875 0.46875 1.09375 0.46875q0.890625 0 1.375 -0.421875q0.5 -0.4375 0.6875 -0.953125l0 -2.25zm-1.5 -10.5l1.671875 0l0 0.453125l-1.75 2.734375l-0.921875 0l1.0 -3.1875zm5.3437805 13.609375q0.421875 0.25 1.0 0.4375q0.59375 0.1875 1.21875 0.1875q0.703125 0 1.1875 -0.34375q0.484375 -0.359375 0.484375 -1.15625q0 -0.65625 -0.296875 -1.078125q-0.296875 -0.4375 -0.765625 -0.765625q-0.453125 -0.34375 -0.984375 -0.625q-0.53125 -0.296875 -0.984375 -0.703125q-0.453125 -0.40625 -0.765625 -0.953125q-0.296875 -0.5625 -0.296875 -1.421875q0 -1.359375 0.734375 -2.046875q0.75 -0.703125 2.09375 -0.703125q0.859375 0 1.5 0.171875q0.640625 0.15625 1.109375 0.421875l-0.40625 1.28125q-0.390625 -0.203125 -0.9375 -0.34375q-0.53125 -0.140625 -1.078125 -0.140625q-0.765625 0 -1.125 0.328125q-0.34375 0.3125 -0.34375 0.984375q0 0.546875 0.296875 0.921875q0.296875 0.359375 0.75 0.671875q0.46875 0.3125 1.0 0.640625q0.53125 0.3125 0.984375 0.75q0.453125 0.4375 0.75 1.046875q0.3125 0.609375 0.3125 1.515625q0 0.609375 -0.203125 1.140625q-0.1875 0.53125 -0.578125 0.921875q-0.390625 0.390625 -0.984375 0.625q-0.578125 0.234375 -1.375 0.234375q-0.9375 0 -1.625 -0.1875q-0.671875 -0.171875 -1.140625 -0.46875l0.46875 -1.34375zm6.9120636 -3.578125q0 -2.890625 0.984375 -4.234375q0.984375 -1.359375 2.828125 -1.359375q1.953125 0 2.875 1.390625q0.9375 1.390625 0.9375 4.203125q0 2.890625 -1.0 4.234375q-1.0 1.34375 -2.8125 1.34375q-1.96875 0 -2.890625 -1.375q-0.921875 -1.390625 -0.921875 -4.203125zm1.59375 0q0 0.9375 0.109375 1.703125q0.125 0.765625 0.390625 1.328125q0.265625 0.546875 0.6875 0.859375q0.4375 0.3125 1.03125 0.3125q1.109375 0 1.65625 -0.984375q0.5625 -1.0 0.5625 -3.21875q0 -0.921875 -0.125 -1.703125q-0.109375 -0.78125 -0.375 -1.328125q-0.265625 -0.5625 -0.703125 -0.859375q-0.421875 -0.3125 -1.015625 -0.3125q-1.09375 0 -1.65625 1.0q-0.5625 1.0 -0.5625 3.203125zm10.401291 0.53125l-0.78125 0l0 4.796875l-1.53125 0l0 -14.9375l1.53125 0l0 9.09375l0.703125 -0.296875l2.5 -4.53125l1.765625 0l-2.515625 4.3125l-0.75 0.6875l0.875 0.828125l2.75 4.84375l-1.859375 0l-2.6875 -4.796875z" fill-rule="nonzero"/><path fill="#c9daf8" d="m253.16142 243.67612l0 0c0 -7.3291473 5.941452 -13.270599 13.270615 -13.270599l162.43515 0c3.5195923 0 6.8950195 1.3981476 9.383728 3.8868713c2.488739 2.4887085 3.8868713 5.864151 3.8868713 9.383728l0 53.08084c0 7.3291626 -5.941437 13.270599 -13.270599 13.270599l-162.43515 0c-7.3291626 0 -13.270615 -5.941437 -13.270615 -13.270599z" fill-rule="evenodd"/><path stroke="#1c4587" stroke-width="1.0" stroke-linejoin="round" stroke-linecap="butt" d="m253.16142 243.67612l0 0c0 -7.3291473 5.941452 -13.270599 13.270615 -13.270599l162.43515 0c3.5195923 0 6.8950195 1.3981476 9.383728 3.8868713c2.488739 2.4887085 3.8868713 5.864151 3.8868713 9.383728l0 53.08084c0 7.3291626 -5.941437 13.270599 -13.270599 13.270599l-162.43515 0c-7.3291626 0 -13.270615 -5.941437 -13.270615 -13.270599z" fill-rule="evenodd"/><path fill="#1c4587" d="m285.60254 275.71216q0.390625 0.28125 1.125 0.53125q0.75 0.234375 1.6875 0.234375q1.1875 0 1.9375 -0.578125q0.75 -0.59375 0.75 -1.84375q0 -0.84375 -0.4375 -1.453125q-0.421875 -0.625 -1.0625 -1.140625q-0.640625 -0.53125 -1.375 -1.03125q-0.734375 -0.5 -1.375 -1.109375q-0.640625 -0.609375 -1.0625 -1.390625q-0.421875 -0.796875 -0.421875 -1.90625q0 -1.78125 1.0625 -2.640625q1.078125 -0.875 2.8125 -0.875q1.0625 0 1.890625 0.203125q0.84375 0.1875 1.34375 0.484375l-0.5 1.40625q-0.390625 -0.234375 -1.109375 -0.421875q-0.703125 -0.203125 -1.640625 -0.203125q-1.15625 0 -1.71875 0.578125q-0.546875 0.5625 -0.546875 1.40625q0 0.75 0.421875 1.328125q0.421875 0.578125 1.0625 1.09375q0.640625 0.5 1.375 1.03125q0.75 0.515625 1.375 1.15625q0.640625 0.640625 1.0625 1.453125q0.4375 0.8125 0.4375 1.921875q0 1.875 -1.109375 2.9375q-1.109375 1.0625 -3.140625 1.0625q-1.265625 0 -2.09375 -0.234375q-0.828125 -0.234375 -1.3125 -0.53125l0.5625 -1.46875zm15.503479 1.265625q-0.515625 0.46875 -1.3125 0.71875q-0.78125 0.25 -1.65625 0.25q-1.0 0 -1.734375 -0.390625q-0.734375 -0.390625 -1.21875 -1.125q-0.484375 -0.734375 -0.703125 -1.75q-0.21875 -1.03125 -0.21875 -2.3125q0 -2.734375 1.0 -4.15625q1.0 -1.4375 2.828125 -1.4375q0.59375 0 1.1875 0.15625q0.59375 0.140625 1.0625 0.59375q0.46875 0.453125 0.75 1.265625q0.28125 0.796875 0.28125 2.109375q0 0.359375 -0.03125 0.78125q-0.03125 0.40625 -0.0625 0.859375l-5.421875 0q0 0.90625 0.140625 1.65625q0.15625 0.75 0.46875 1.28125q0.328125 0.515625 0.828125 0.8125q0.5 0.28125 1.25 0.28125q0.578125 0 1.140625 -0.21875q0.5625 -0.21875 0.859375 -0.515625l0.5625 1.140625zm-1.203125 -5.71875q0.046875 -1.609375 -0.453125 -2.34375q-0.484375 -0.75 -1.328125 -0.75q-0.984375 0 -1.5625 0.75q-0.578125 0.734375 -0.6875 2.34375l4.03125 0zm9.341003 5.90625q-0.53125 0.40625 -1.21875 0.59375q-0.671875 0.1875 -1.421875 0.1875q-1.03125 0 -1.734375 -0.390625q-0.703125 -0.390625 -1.140625 -1.125q-0.4375 -0.734375 -0.640625 -1.765625q-0.1875 -1.046875 -0.1875 -2.296875q0 -2.734375 0.96875 -4.15625q0.96875 -1.4375 2.78125 -1.4375q0.828125 0 1.421875 0.15625q0.59375 0.140625 1.03125 0.375l-0.4375 1.34375q-0.84375 -0.484375 -1.84375 -0.484375q-1.15625 0 -1.75 1.015625q-0.578125 1.015625 -0.578125 3.1875q0 0.875 0.125 1.640625q0.125 0.765625 0.421875 1.328125q0.296875 0.5625 0.765625 0.90625q0.484375 0.328125 1.1875 0.328125q0.546875 0 1.03125 -0.1875q0.484375 -0.203125 0.78125 -0.453125l0.4375 1.234375zm3.092865 -10.140625l0 6.53125q0 1.625 0.328125 2.328125q0.34375 0.6875 1.21875 0.6875q0.4375 0 0.78125 -0.1875q0.359375 -0.1875 0.640625 -0.484375q0.28125 -0.296875 0.484375 -0.671875q0.21875 -0.390625 0.34375 -0.796875l0 -7.40625l1.546875 0l0 7.640625q0 0.765625 0.046875 1.59375q0.046875 0.8125 0.15625 1.4375l-1.078125 0l-0.390625 -1.5l-0.0625 0q-0.359375 0.703125 -1.046875 1.234375q-0.6875 0.515625 -1.703125 0.515625q-0.6875 0 -1.203125 -0.171875q-0.5 -0.15625 -0.875 -0.609375q-0.359375 -0.453125 -0.546875 -1.21875q-0.171875 -0.78125 -0.171875 -2.0l0 -6.921875l1.53125 0zm7.881439 0l1.078125 0l0.28125 1.140625l0.0625 0q0.296875 -0.625 0.78125 -0.96875q0.484375 -0.359375 1.15625 -0.359375q0.5 0 1.109375 0.1875l-0.296875 1.5625q-0.546875 -0.1875 -0.984375 -0.1875q-0.671875 0 -1.109375 0.390625q-0.421875 0.390625 -0.546875 1.0625l0 7.84375l-1.53125 0l0 -10.671875zm6.093933 0l1.53125 0l0 10.671875l-1.53125 0l0 -10.671875zm-0.28125 -3.234375q0 -0.515625 0.28125 -0.828125q0.296875 -0.328125 0.765625 -0.328125q0.46875 0 0.78125 0.3125q0.3125 0.3125 0.3125 0.84375q0 0.515625 -0.3125 0.8125q-0.3125 0.28125 -0.78125 0.28125q-0.46875 0 -0.765625 -0.296875q-0.28125 -0.3125 -0.28125 -0.796875zm3.5813293 3.234375l1.3125 0l0 -2.109375l1.53125 -0.484375l0 2.59375l2.296875 0l0 1.390625l-2.296875 0l0 6.359375q0 0.9375 0.21875 1.359375q0.21875 0.40625 0.734375 0.40625q0.4375 0 0.734375 -0.09375q0.3125 -0.09375 0.671875 -0.25l0.296875 1.21875q-0.46875 0.234375 -1.03125 0.375q-0.5625 0.140625 -1.1875 0.140625q-1.0625 0 -1.515625 -0.6875q-0.453125 -0.703125 -0.453125 -2.25l0 -6.578125l-1.3125 0l0 -1.390625zm9.456024 6.890625l0.4375 2.078125l0.109375 0l0.328125 -2.078125l1.625 -6.890625l1.546875 0l-2.53125 9.578125q-0.296875 1.15625 -0.609375 2.15625q-0.296875 1.0 -0.65625 1.734375q-0.34375 0.75 -0.78125 1.15625q-0.4375 0.421875 -1.03125 0.421875q-0.59375 0 -1.046875 -0.1875l0.265625 -1.453125q0.296875 0.109375 0.59375 0.03125q0.296875 -0.0625 0.5625 -0.359375q0.265625 -0.296875 0.484375 -0.890625q0.234375 -0.578125 0.40625 -1.515625l-3.453125 -10.671875l1.734375 0l2.015625 6.890625zm18.641052 -6.03125l0.1875 -2.265625l-0.078125 0l-0.6875 2.125l-3.015625 6.484375l-0.53125 0l-3.15625 -6.484375l-0.65625 -2.125l-0.078125 0l0.296875 2.265625l0 9.8125l-1.546875 0l0 -14.9375l1.34375 0l3.609375 7.34375l0.53125 1.75l0.046875 0l0.515625 -1.765625l3.40625 -7.328125l1.40625 0l0 14.9375l-1.59375 0l0 -9.8125zm4.11734 -0.21875q0.609375 -0.375 1.5 -0.578125q0.890625 -0.21875 1.859375 -0.21875q0.90625 0 1.4375 0.265625q0.546875 0.265625 0.859375 0.71875q0.3125 0.453125 0.40625 1.046875q0.09375 0.578125 0.09375 1.21875q0 1.28125 -0.0625 2.5q-0.046875 1.21875 -0.046875 2.3125q0 0.796875 0.046875 1.5q0.0625 0.6875 0.21875 1.3125l-1.171875 0l-0.375 -1.265625l-0.078125 0q-0.3125 0.5625 -0.9375 0.96875q-0.625 0.40625 -1.671875 0.40625q-1.140625 0 -1.875 -0.796875q-0.734375 -0.8125 -0.734375 -2.21875q0 -0.921875 0.296875 -1.53125q0.3125 -0.625 0.875 -1.0q0.578125 -0.390625 1.34375 -0.546875q0.78125 -0.15625 1.75 -0.15625q0.203125 0 0.421875 0q0.21875 0 0.453125 0.015625q0.0625 -0.65625 0.0625 -1.171875q0 -1.21875 -0.375 -1.703125q-0.359375 -0.5 -1.3125 -0.5q-0.59375 0 -1.296875 0.1875q-0.703125 0.1875 -1.1875 0.453125l-0.5 -1.21875zm4.625 5.171875q-0.21875 -0.03125 -0.4375 -0.03125q-0.203125 -0.015625 -0.421875 -0.015625q-0.5 0 -1.0 0.09375q-0.484375 0.078125 -0.875 0.296875q-0.375 0.203125 -0.609375 0.578125q-0.21875 0.359375 -0.21875 0.90625q0 0.859375 0.40625 1.328125q0.421875 0.46875 1.09375 0.46875q0.890625 0 1.375 -0.421875q0.5 -0.4375 0.6875 -0.953125l0 -2.25zm9.4687805 4.859375l0 -6.5q0 -1.609375 -0.375 -2.3125q-0.375 -0.71875 -1.328125 -0.71875q-0.859375 0 -1.421875 0.515625q-0.546875 0.5 -0.796875 1.25l0 7.765625l-1.53125 0l0 -10.671875l1.109375 0l0.265625 1.140625l0.0625 0q0.40625 -0.578125 1.09375 -0.984375q0.703125 -0.40625 1.65625 -0.40625q0.6875 0 1.203125 0.203125q0.53125 0.1875 0.875 0.640625q0.359375 0.453125 0.53125 1.234375q0.1875 0.765625 0.1875 1.9375l0 6.90625l-1.53125 0zm3.8005676 -10.03125q0.609375 -0.375 1.5 -0.578125q0.890625 -0.21875 1.859375 -0.21875q0.90625 0 1.4375 0.265625q0.546875 0.265625 0.859375 0.71875q0.3125 0.453125 0.40625 1.046875q0.09375 0.578125 0.09375 1.21875q0 1.28125 -0.0625 2.5q-0.046875 1.21875 -0.046875 2.3125q0 0.796875 0.046875 1.5q0.0625 0.6875 0.21875 1.3125l-1.171875 0l-0.375 -1.265625l-0.078125 0q-0.3125 0.5625 -0.9375 0.96875q-0.625 0.40625 -1.671875 0.40625q-1.140625 0 -1.875 -0.796875q-0.734375 -0.8125 -0.734375 -2.21875q0 -0.921875 0.296875 -1.53125q0.3125 -0.625 0.875 -1.0q0.578125 -0.390625 1.34375 -0.546875q0.78125 -0.15625 1.75 -0.15625q0.203125 0 0.421875 0q0.21875 0 0.453125 0.015625q0.0625 -0.65625 0.0625 -1.171875q0 -1.21875 -0.375 -1.703125q-0.359375 -0.5 -1.3125 -0.5q-0.59375 0 -1.296875 0.1875q-0.703125 0.1875 -1.1875 0.453125l-0.5 -1.21875zm4.625 5.171875q-0.21875 -0.03125 -0.4375 -0.03125q-0.203125 -0.015625 -0.421875 -0.015625q-0.5 0 -1.0 0.09375q-0.484375 0.078125 -0.875 0.296875q-0.375 0.203125 -0.609375 0.578125q-0.21875 0.359375 -0.21875 0.90625q0 0.859375 0.40625 1.328125q0.421875 0.46875 1.09375 0.46875q0.890625 0 1.375 -0.421875q0.5 -0.4375 0.6875 -0.953125l0 -2.25zm10.7344055 5.34375q0 2.078125 -0.921875 3.046875q-0.921875 0.984375 -2.671875 0.984375q-1.0625 0 -1.75 -0.1875q-0.671875 -0.171875 -1.109375 -0.40625l0.453125 -1.3125q0.421875 0.1875 0.9375 0.359375q0.515625 0.171875 1.265625 0.171875q1.296875 0 1.765625 -0.734375q0.484375 -0.71875 0.484375 -2.421875l0 -0.796875l-0.0625 0q-0.34375 0.5 -0.875 0.78125q-0.53125 0.265625 -1.359375 0.265625q-1.734375 0 -2.546875 -1.328125q-0.796875 -1.34375 -0.796875 -4.203125q0 -2.75 1.046875 -4.15625q1.0625 -1.40625 3.125 -1.40625q1.0 0 1.71875 0.203125q0.734375 0.1875 1.296875 0.4375l0 10.703125zm-1.546875 -9.609375q-0.640625 -0.34375 -1.640625 -0.34375q-1.078125 0 -1.75 1.0q-0.65625 0.984375 -0.65625 3.15625q0 0.890625 0.109375 1.65625q0.109375 0.75 0.359375 1.328125q0.25 0.5625 0.640625 0.875q0.40625 0.296875 0.984375 0.296875q0.8125 0 1.28125 -0.421875q0.46875 -0.421875 0.671875 -1.28125l0 -6.265625zm10.416931 8.40625q-0.515625 0.46875 -1.3125 0.71875q-0.78125 0.25 -1.65625 0.25q-1.0 0 -1.734375 -0.390625q-0.734375 -0.390625 -1.21875 -1.125q-0.484375 -0.734375 -0.703125 -1.75q-0.21875 -1.03125 -0.21875 -2.3125q0 -2.734375 1.0 -4.15625q1.0 -1.4375 2.828125 -1.4375q0.59375 0 1.1875 0.15625q0.59375 0.140625 1.0625 0.59375q0.46875 0.453125 0.75 1.265625q0.28125 0.796875 0.28125 2.109375q0 0.359375 -0.03125 0.78125q-0.03125 0.40625 -0.0625 0.859375l-5.421875 0q0 0.90625 0.140625 1.65625q0.15625 0.75 0.46875 1.28125q0.328125 0.515625 0.828125 0.8125q0.5 0.28125 1.25 0.28125q0.578125 0 1.140625 -0.21875q0.5625 -0.21875 0.859375 -0.515625l0.5625 1.140625zm-1.203125 -5.71875q0.046875 -1.609375 -0.453125 -2.34375q-0.484375 -0.75 -1.328125 -0.75q-0.984375 0 -1.5625 0.75q-0.578125 0.734375 -0.6875 2.34375l4.03125 0zm3.6366577 -4.234375l1.078125 0l0.28125 1.140625l0.0625 0q0.296875 -0.625 0.78125 -0.96875q0.484375 -0.359375 1.15625 -0.359375q0.5 0 1.109375 0.1875l-0.296875 1.5625q-0.546875 -0.1875 -0.984375 -0.1875q-0.671875 0 -1.109375 0.390625q-0.421875 0.390625 -0.546875 1.0625l0 7.84375l-1.53125 0l0 -10.671875z" fill-rule="nonzero"/><path fill="#c9daf8" d="m502.74802 243.67743l0 0c0 -7.3291473 5.9414673 -13.270599 13.270599 -13.270599l162.43518 0c3.5195923 0 6.8950195 1.3981476 9.383728 3.8868713c2.4887085 2.4887085 3.8869019 5.864151 3.8869019 9.383728l0 53.08084c0 7.3291626 -5.9414673 13.270599 -13.27063 13.270599l-162.43518 0c-7.329132 0 -13.270599 -5.941437 -13.270599 -13.270599z" fill-rule="evenodd"/><path stroke="#1c4587" stroke-width="1.0" stroke-linejoin="round" stroke-linecap="butt" d="m502.74802 243.67743l0 0c0 -7.3291473 5.9414673 -13.270599 13.270599 -13.270599l162.43518 0c3.5195923 0 6.8950195 1.3981476 9.383728 3.8868713c2.4887085 2.4887085 3.8869019 5.864151 3.8869019 9.383728l0 53.08084c0 7.3291626 -5.9414673 13.270599 -13.27063 13.270599l-162.43518 0c-7.329132 0 -13.270599 -5.941437 -13.270599 -13.270599z" fill-rule="evenodd"/><path fill="#1c4587" d="m541.6835 273.51035l-4.234375 0l-1.1875 4.1875l-1.578125 0l4.5 -15.171875l0.875 0l4.5 15.171875l-1.671875 0l-1.203125 -4.1875zm-3.796875 -1.421875l3.40625 0l-1.296875 -4.609375l-0.40625 -2.234375l-0.046875 0l-0.40625 2.28125l-1.25 4.5625zm13.681702 5.078125q-0.53125 0.40625 -1.21875 0.59375q-0.671875 0.1875 -1.421875 0.1875q-1.03125 0 -1.734375 -0.390625q-0.703125 -0.390625 -1.140625 -1.125q-0.4375 -0.734375 -0.640625 -1.765625q-0.1875 -1.046875 -0.1875 -2.296875q0 -2.734375 0.96875 -4.15625q0.96875 -1.4375 2.78125 -1.4375q0.828125 0 1.421875 0.15625q0.59375 0.140625 1.03125 0.375l-0.4375 1.34375q-0.84375 -0.484375 -1.84375 -0.484375q-1.15625 0 -1.75 1.015625q-0.578125 1.015625 -0.578125 3.1875q0 0.875 0.125 1.640625q0.125 0.765625 0.421875 1.328125q0.296875 0.5625 0.765625 0.90625q0.484375 0.328125 1.1875 0.328125q0.546875 0 1.03125 -0.1875q0.484375 -0.203125 0.78125 -0.453125l0.4375 1.234375zm7.2302246 0q-0.53125 0.40625 -1.21875 0.59375q-0.671875 0.1875 -1.421875 0.1875q-1.03125 0 -1.734375 -0.390625q-0.703125 -0.390625 -1.140625 -1.125q-0.4375 -0.734375 -0.640625 -1.765625q-0.1875 -1.046875 -0.1875 -2.296875q0 -2.734375 0.96875 -4.15625q0.96875 -1.4375 2.78125 -1.4375q0.828125 0 1.421875 0.15625q0.59375 0.140625 1.03125 0.375l-0.4375 1.34375q-0.84375 -0.484375 -1.84375 -0.484375q-1.15625 0 -1.75 1.015625q-0.578125 1.015625 -0.578125 3.1875q0 0.875 0.125 1.640625q0.125 0.765625 0.421875 1.328125q0.296875 0.5625 0.765625 0.90625q0.484375 0.328125 1.1875 0.328125q0.546875 0 1.03125 -0.1875q0.484375 -0.203125 0.78125 -0.453125l0.4375 1.234375zm7.7301636 -0.1875q-0.515625 0.46875 -1.3125 0.71875q-0.78125 0.25 -1.65625 0.25q-1.0 0 -1.734375 -0.390625q-0.734375 -0.390625 -1.21875 -1.125q-0.484375 -0.734375 -0.703125 -1.75q-0.21875 -1.03125 -0.21875 -2.3125q0 -2.734375 1.0 -4.15625q1.0 -1.4375 2.828125 -1.4375q0.59375 0 1.1875 0.15625q0.59375 0.140625 1.0625 0.59375q0.46875 0.453125 0.75 1.265625q0.28125 0.796875 0.28125 2.109375q0 0.359375 -0.03125 0.78125q-0.03125 0.40625 -0.0625 0.859375l-5.421875 0q0 0.90625 0.140625 1.65625q0.15625 0.75 0.46875 1.28125q0.328125 0.515625 0.828125 0.8125q0.5 0.28125 1.25 0.28125q0.578125 0 1.140625 -0.21875q0.5625 -0.21875 0.859375 -0.515625l0.5625 1.140625zm-1.203125 -5.71875q0.046875 -1.609375 -0.453125 -2.34375q-0.484375 -0.75 -1.328125 -0.75q-0.984375 0 -1.5625 0.75q-0.578125 0.734375 -0.6875 2.34375l4.03125 0zm3.4647827 4.6875q0.421875 0.25 1.0 0.4375q0.59375 0.1875 1.21875 0.1875q0.703125 0 1.1875 -0.34375q0.484375 -0.359375 0.484375 -1.15625q0 -0.65625 -0.296875 -1.078125q-0.296875 -0.4375 -0.765625 -0.765625q-0.453125 -0.34375 -0.984375 -0.625q-0.53125 -0.296875 -0.984375 -0.703125q-0.453125 -0.40625 -0.765625 -0.953125q-0.296875 -0.5625 -0.296875 -1.421875q0 -1.359375 0.734375 -2.046875q0.75 -0.703125 2.09375 -0.703125q0.859375 0 1.5 0.171875q0.640625 0.15625 1.109375 0.421875l-0.40625 1.28125q-0.390625 -0.203125 -0.9375 -0.34375q-0.53125 -0.140625 -1.078125 -0.140625q-0.765625 0 -1.125 0.328125q-0.34375 0.3125 -0.34375 0.984375q0 0.546875 0.296875 0.921875q0.296875 0.359375 0.75 0.671875q0.46875 0.3125 1.0 0.640625q0.53125 0.3125 0.984375 0.75q0.453125 0.4375 0.75 1.046875q0.3125 0.609375 0.3125 1.515625q0 0.609375 -0.203125 1.140625q-0.1875 0.53125 -0.578125 0.921875q-0.390625 0.390625 -0.984375 0.625q-0.578125 0.234375 -1.375 0.234375q-0.9375 0 -1.625 -0.1875q-0.671875 -0.171875 -1.140625 -0.46875l0.46875 -1.34375zm7.2089233 0q0.421875 0.25 1.0 0.4375q0.59375 0.1875 1.21875 0.1875q0.703125 0 1.1875 -0.34375q0.484375 -0.359375 0.484375 -1.15625q0 -0.65625 -0.296875 -1.078125q-0.296875 -0.4375 -0.765625 -0.765625q-0.453125 -0.34375 -0.984375 -0.625q-0.53125 -0.296875 -0.984375 -0.703125q-0.453125 -0.40625 -0.765625 -0.953125q-0.296875 -0.5625 -0.296875 -1.421875q0 -1.359375 0.734375 -2.046875q0.75 -0.703125 2.09375 -0.703125q0.859375 0 1.5 0.171875q0.640625 0.15625 1.109375 0.421875l-0.40625 1.28125q-0.390625 -0.203125 -0.9375 -0.34375q-0.53125 -0.140625 -1.078125 -0.140625q-0.765625 0 -1.125 0.328125q-0.34375 0.3125 -0.34375 0.984375q0 0.546875 0.296875 0.921875q0.296875 0.359375 0.75 0.671875q0.46875 0.3125 1.0 0.640625q0.53125 0.3125 0.984375 0.75q0.453125 0.4375 0.75 1.046875q0.3125 0.609375 0.3125 1.515625q0 0.609375 -0.203125 1.140625q-0.1875 0.53125 -0.578125 0.921875q-0.390625 0.390625 -0.984375 0.625q-0.578125 0.234375 -1.375 0.234375q-0.9375 0 -1.625 -0.1875q-0.671875 -0.171875 -1.140625 -0.46875l0.46875 -1.34375zm19.808655 1.171875q-0.53125 0.453125 -1.34375 0.640625q-0.8125 0.1875 -1.703125 0.1875q-1.140625 0 -2.09375 -0.421875q-0.953125 -0.421875 -1.65625 -1.34375q-0.6875 -0.9375 -1.078125 -2.40625q-0.375 -1.46875 -0.375 -3.546875q0 -2.125 0.4375 -3.59375q0.4375 -1.484375 1.15625 -2.390625q0.71875 -0.921875 1.671875 -1.328125q0.953125 -0.40625 1.953125 -0.40625q1.03125 0 1.703125 0.15625q0.671875 0.140625 1.15625 0.359375l-0.390625 1.453125q-0.421875 -0.234375 -1.0 -0.359375q-0.578125 -0.140625 -1.3125 -0.140625q-0.75 0 -1.421875 0.34375q-0.65625 0.328125 -1.171875 1.0625q-0.5 0.734375 -0.796875 1.9375q-0.296875 1.1875 -0.296875 2.90625q0 3.125 1.0625 4.6875q1.0625 1.5625 2.828125 1.5625q0.734375 0 1.296875 -0.203125q0.578125 -0.203125 0.984375 -0.46875l0.390625 1.3125zm0.7960205 -4.75q0 -2.890625 0.984375 -4.234375q0.984375 -1.359375 2.828125 -1.359375q1.953125 0 2.875 1.390625q0.9375 1.390625 0.9375 4.203125q0 2.890625 -1.0 4.234375q-1.0 1.34375 -2.8125 1.34375q-1.96875 0 -2.890625 -1.375q-0.921875 -1.390625 -0.921875 -4.203125zm1.59375 0q0 0.9375 0.109375 1.703125q0.125 0.765625 0.390625 1.328125q0.265625 0.546875 0.6875 0.859375q0.4375 0.3125 1.03125 0.3125q1.109375 0 1.65625 -0.984375q0.5625 -1.0 0.5625 -3.21875q0 -0.921875 -0.125 -1.703125q-0.109375 -0.78125 -0.375 -1.328125q-0.265625 -0.5625 -0.703125 -0.859375q-0.421875 -0.3125 -1.015625 -0.3125q-1.09375 0 -1.65625 1.0q-0.5625 1.0 -0.5625 3.203125zm13.54187 5.328125l0 -6.5q0 -1.609375 -0.375 -2.3125q-0.375 -0.71875 -1.328125 -0.71875q-0.859375 0 -1.421875 0.515625q-0.546875 0.5 -0.796875 1.25l0 7.765625l-1.53125 0l0 -10.671875l1.109375 0l0.265625 1.140625l0.0625 0q0.40625 -0.578125 1.09375 -0.984375q0.703125 -0.40625 1.65625 -0.40625q0.6875 0 1.203125 0.203125q0.53125 0.1875 0.875 0.640625q0.359375 0.453125 0.53125 1.234375q0.1875 0.765625 0.1875 1.9375l0 6.90625l-1.53125 0zm2.8318481 -10.671875l1.3125 0l0 -2.109375l1.53125 -0.484375l0 2.59375l2.296875 0l0 1.390625l-2.296875 0l0 6.359375q0 0.9375 0.21875 1.359375q0.21875 0.40625 0.734375 0.40625q0.4375 0 0.734375 -0.09375q0.3125 -0.09375 0.671875 -0.25l0.296875 1.21875q-0.46875 0.234375 -1.03125 0.375q-0.5625 0.140625 -1.1875 0.140625q-1.0625 0 -1.515625 -0.6875q-0.453125 -0.703125 -0.453125 -2.25l0 -6.578125l-1.3125 0l0 -1.390625zm6.9434204 0l1.078125 0l0.28125 1.140625l0.0625 0q0.296875 -0.625 0.78125 -0.96875q0.484375 -0.359375 1.15625 -0.359375q0.5 0 1.109375 0.1875l-0.296875 1.5625q-0.546875 -0.1875 -0.984375 -0.1875q-0.671875 0 -1.109375 0.390625q-0.421875 0.390625 -0.546875 1.0625l0 7.84375l-1.53125 0l0 -10.671875zm5.375183 5.34375q0 -2.890625 0.984375 -4.234375q0.984375 -1.359375 2.828125 -1.359375q1.953125 0 2.875 1.390625q0.9375 1.390625 0.9375 4.203125q0 2.890625 -1.0 4.234375q-1.0 1.34375 -2.8125 1.34375q-1.96875 0 -2.890625 -1.375q-0.921875 -1.390625 -0.921875 -4.203125zm1.59375 0q0 0.9375 0.109375 1.703125q0.125 0.765625 0.390625 1.328125q0.265625 0.546875 0.6875 0.859375q0.4375 0.3125 1.03125 0.3125q1.109375 0 1.65625 -0.984375q0.5625 -1.0 0.5625 -3.21875q0 -0.921875 -0.125 -1.703125q-0.109375 -0.78125 -0.375 -1.328125q-0.265625 -0.5625 -0.703125 -0.859375q-0.421875 -0.3125 -1.015625 -0.3125q-1.09375 0 -1.65625 1.0q-0.5625 1.0 -0.5625 3.203125zm9.729431 2.796875q0 0.734375 0.203125 1.0625q0.203125 0.3125 0.5625 0.3125q0.4375 0 1.046875 -0.234375l0.140625 1.234375q-0.28125 0.171875 -0.78125 0.28125q-0.5 0.109375 -0.90625 0.109375q-0.796875 0 -1.3125 -0.5q-0.5 -0.5 -0.5 -1.765625l0 -12.90625l1.546875 0l0 12.40625zm4.9694214 0q0 0.734375 0.203125 1.0625q0.203125 0.3125 0.5625 0.3125q0.4375 0 1.046875 -0.234375l0.140625 1.234375q-0.28125 0.171875 -0.78125 0.28125q-0.5 0.109375 -0.90625 0.109375q-0.796875 0 -1.3125 -0.5q-0.5 -0.5 -0.5 -1.765625l0 -12.90625l1.546875 0l0 12.40625zm9.703857 1.8125q-0.515625 0.46875 -1.3125 0.71875q-0.78125 0.25 -1.65625 0.25q-1.0 0 -1.734375 -0.390625q-0.734375 -0.390625 -1.21875 -1.125q-0.484375 -0.734375 -0.703125 -1.75q-0.21875 -1.03125 -0.21875 -2.3125q0 -2.734375 1.0 -4.15625q1.0 -1.4375 2.828125 -1.4375q0.59375 0 1.1875 0.15625q0.59375 0.140625 1.0625 0.59375q0.46875 0.453125 0.75 1.265625q0.28125 0.796875 0.28125 2.109375q0 0.359375 -0.03125 0.78125q-0.03125 0.40625 -0.0625 0.859375l-5.421875 0q0 0.90625 0.140625 1.65625q0.15625 0.75 0.46875 1.28125q0.328125 0.515625 0.828125 0.8125q0.5 0.28125 1.25 0.28125q0.578125 0 1.140625 -0.21875q0.5625 -0.21875 0.859375 -0.515625l0.5625 1.140625zm-1.203125 -5.71875q0.046875 -1.609375 -0.453125 -2.34375q-0.484375 -0.75 -1.328125 -0.75q-0.984375 0 -1.5625 0.75q-0.578125 0.734375 -0.6875 2.34375l4.03125 0zm3.6366577 -4.234375l1.078125 0l0.28125 1.140625l0.0625 0q0.296875 -0.625 0.78125 -0.96875q0.484375 -0.359375 1.15625 -0.359375q0.5 0 1.109375 0.1875l-0.296875 1.5625q-0.546875 -0.1875 -0.984375 -0.1875q-0.671875 0 -1.109375 0.390625q-0.421875 0.390625 -0.546875 1.0625l0 7.84375l-1.53125 0l0 -10.671875z" fill-rule="nonzero"/><path fill="#000000" fill-opacity="0.0" d="m597.2362 195.56955l0 34.834656" fill-rule="evenodd"/><path stroke="#000000" stroke-width="1.0" stroke-linejoin="round" stroke-linecap="butt" d="m597.2362 195.56955l0 28.834656" fill-rule="evenodd"/><path fill="#000000" stroke="#000000" stroke-width="1.0" stroke-linecap="butt" d="m595.5845 224.4042l1.6517334 4.538086l1.6517334 -4.538086z" fill-rule="evenodd"/><path fill="#000000" fill-opacity="0.0" d="m502.74802 270.21783l-60.59842 0" fill-rule="evenodd"/><path stroke="#000000" stroke-width="1.0" stroke-linejoin="round" stroke-linecap="butt" d="m502.74802 270.21783l-54.59842 0" fill-rule="evenodd"/><path fill="#000000" stroke="#000000" stroke-width="1.0" stroke-linecap="butt" d="m448.1496 268.5661l-4.538086 1.6517334l4.538086 1.6517334z" fill-rule="evenodd"/><path fill="#d9ead3" d="m36.425198 270.21652l58.062992 -33.347763l58.06299 33.347763l-58.06299 33.34778z" fill-rule="evenodd"/><path stroke="#274e13" stroke-width="1.0" stroke-linejoin="round" stroke-linecap="butt" d="m36.425198 270.21652l58.062992 -33.347763l58.06299 33.347763l-58.06299 33.34778z" fill-rule="evenodd"/><path fill="#274e13" d="m75.487946 264.8734q0.25 -0.046875 0.5625 -0.0625q0.3125 -0.03125 0.625 -0.03125q0.328125 -0.015625 0.640625 -0.015625q0.3125 -0.015625 0.578125 -0.015625q1.171875 0 1.984375 0.40625q0.8125 0.390625 1.328125 1.140625q0.515625 0.734375 0.734375 1.78125q0.234375 1.046875 0.234375 2.3125q0 1.15625 -0.21875 2.21875q-0.21875 1.046875 -0.734375 1.859375q-0.515625 0.796875 -1.359375 1.28125q-0.828125 0.46875 -2.09375 0.46875q-0.203125 0 -0.53125 -0.015625q-0.3125 0 -0.65625 -0.03125q-0.34375 -0.015625 -0.640625 -0.03125q-0.296875 -0.015625 -0.453125 -0.046875l0 -11.21875zm2.46875 0.984375q-0.15625 0 -0.34375 0q-0.1875 0 -0.359375 0.015625q-0.171875 0.015625 -0.328125 0.03125q-0.15625 0.015625 -0.25 0.03125l0 9.109375q0.0625 0.015625 0.234375 0.03125q0.171875 0.015625 0.34375 0.03125q0.1875 0 0.359375 0.015625q0.171875 0 0.25 0q0.875 0 1.46875 -0.390625q0.59375 -0.390625 0.9375 -1.03125q0.34375 -0.65625 0.484375 -1.5q0.15625 -0.859375 0.15625 -1.828125q0 -0.84375 -0.140625 -1.65625q-0.125 -0.8125 -0.453125 -1.4375q-0.328125 -0.640625 -0.890625 -1.03125q-0.5625 -0.390625 -1.46875 -0.390625zm5.4937744 6.21875q0 -2.15625 0.734375 -3.171875q0.75 -1.015625 2.125 -1.015625q1.46875 0 2.15625 1.046875q0.703125 1.03125 0.703125 3.140625q0 2.171875 -0.75 3.1875q-0.75 1.0 -2.109375 1.0q-1.46875 0 -2.171875 -1.03125q-0.6875 -1.046875 -0.6875 -3.15625zm1.203125 0q0 0.703125 0.078125 1.28125q0.09375 0.578125 0.296875 1.0q0.203125 0.40625 0.515625 0.640625q0.328125 0.234375 0.765625 0.234375q0.828125 0 1.25 -0.75q0.421875 -0.75 0.421875 -2.40625q0 -0.6875 -0.09375 -1.265625q-0.09375 -0.59375 -0.296875 -1.0q-0.1875 -0.421875 -0.515625 -0.65625q-0.3125 -0.234375 -0.765625 -0.234375q-0.8125 0 -1.234375 0.765625q-0.421875 0.75 -0.421875 2.390625zm0.15625 -6.453125q0 -0.359375 0.1875 -0.5625q0.1875 -0.21875 0.5 -0.21875q0.328125 0 0.515625 0.21875q0.1875 0.203125 0.1875 0.5625q0 0.34375 -0.1875 0.546875q-0.1875 0.203125 -0.515625 0.203125q-0.3125 0 -0.5 -0.203125q-0.1875 -0.203125 -0.1875 -0.546875zm2.546875 0q0 -0.359375 0.1875 -0.5625q0.1875 -0.21875 0.5 -0.21875q0.328125 0 0.5 0.21875q0.1875 0.203125 0.1875 0.5625q0 0.34375 -0.1875 0.546875q-0.171875 0.203125 -0.5 0.203125q-0.3125 0 -0.5 -0.203125q-0.1875 -0.203125 -0.1875 -0.546875zm7.458893 10.453125l0 -4.875q0 -1.203125 -0.28125 -1.734375q-0.28125 -0.546875 -1.0 -0.546875q-0.640625 0 -1.0625 0.390625q-0.421875 0.375 -0.609375 0.9375l0 5.828125l-1.15625 0l0 -8.0l0.84375 0l0.203125 0.84375l0.046875 0q0.3125 -0.421875 0.828125 -0.71875q0.515625 -0.3125 1.234375 -0.3125q0.515625 0 0.90625 0.140625q0.390625 0.140625 0.65625 0.484375q0.265625 0.34375 0.390625 0.921875q0.140625 0.578125 0.140625 1.453125l0 5.1875l-1.140625 0zm2.1177673 -8.0l0.984375 0l0 -1.578125l1.140625 -0.375l0 1.953125l1.734375 0l0 1.046875l-1.734375 0l0 4.765625q0 0.703125 0.171875 1.015625q0.171875 0.3125 0.546875 0.3125q0.328125 0 0.5625 -0.078125q0.234375 -0.078125 0.5 -0.1875l0.21875 0.921875q-0.34375 0.171875 -0.765625 0.265625q-0.421875 0.109375 -0.890625 0.109375q-0.796875 0 -1.140625 -0.515625q-0.34375 -0.515625 -0.34375 -1.6875l0 -4.921875l-0.984375 0l0 -1.046875zm9.865753 7.453125q-0.390625 0.359375 -0.984375 0.546875q-0.59375 0.1875 -1.25 0.1875q-0.75 0 -1.3125 -0.296875q-0.546875 -0.296875 -0.90625 -0.84375q-0.359375 -0.546875 -0.53125 -1.3125q-0.15625 -0.78125 -0.15625 -1.734375q0 -2.046875 0.75 -3.109375q0.75 -1.078125 2.125 -1.078125q0.453125 0 0.890625 0.109375q0.4375 0.109375 0.78125 0.453125q0.359375 0.328125 0.578125 0.9375q0.21875 0.609375 0.21875 1.578125q0 0.28125 -0.03125 0.59375q-0.015625 0.3125 -0.046875 0.640625l-4.0625 0q0 0.6875 0.109375 1.25q0.109375 0.5625 0.34375 0.953125q0.25 0.390625 0.625 0.609375q0.375 0.21875 0.9375 0.21875q0.421875 0 0.84375 -0.15625q0.4375 -0.171875 0.65625 -0.390625l0.421875 0.84375zm-0.90625 -4.28125q0.03125 -1.203125 -0.34375 -1.765625q-0.359375 -0.5625 -1.0 -0.5625q-0.734375 0 -1.171875 0.5625q-0.421875 0.5625 -0.5 1.765625l3.015625 0zm-1.109375 -6.6875l1.234375 0l0 0.328125l-1.3125 2.046875l-0.6875 0l0.765625 -2.375zm3.701767 10.203125q0.328125 0.1875 0.765625 0.328125q0.4375 0.140625 0.90625 0.140625q0.53125 0 0.890625 -0.265625q0.375 -0.265625 0.375 -0.859375q0 -0.5 -0.234375 -0.8125q-0.21875 -0.328125 -0.5625 -0.578125q-0.34375 -0.25 -0.75 -0.46875q-0.390625 -0.21875 -0.734375 -0.515625q-0.34375 -0.3125 -0.578125 -0.71875q-0.21875 -0.421875 -0.21875 -1.0625q0 -1.03125 0.546875 -1.546875q0.5625 -0.515625 1.5625 -0.515625q0.65625 0 1.140625 0.125q0.484375 0.109375 0.828125 0.3125l-0.296875 0.96875q-0.3125 -0.15625 -0.71875 -0.265625q-0.390625 -0.109375 -0.8125 -0.109375q-0.5625 0 -0.828125 0.25q-0.265625 0.234375 -0.265625 0.75q0 0.390625 0.21875 0.671875q0.21875 0.28125 0.5625 0.515625q0.34375 0.234375 0.75 0.484375q0.40625 0.234375 0.75 0.5625q0.34375 0.328125 0.5625 0.78125q0.21875 0.453125 0.21875 1.140625q0 0.453125 -0.140625 0.859375q-0.140625 0.390625 -0.4375 0.6875q-0.296875 0.296875 -0.734375 0.46875q-0.4375 0.171875 -1.03125 0.171875q-0.703125 0 -1.21875 -0.140625q-0.515625 -0.125 -0.859375 -0.34375l0.34375 -1.015625z" fill-rule="nonzero"/><path fill="#000000" fill-opacity="0.0" d="m94.48819 195.56955l0 41.291336" fill-rule="evenodd"/><path stroke="#000000" stroke-width="1.0" stroke-linejoin="round" stroke-linecap="butt" d="m94.48819 195.56955l0 35.291336" fill-rule="evenodd"/><path fill="#000000" stroke="#000000" stroke-width="1.0" stroke-linecap="butt" d="m92.83646 230.86089l1.6517334 4.538101l1.6517334 -4.538101z" fill-rule="evenodd"/><path fill="#000000" fill-opacity="0.0" d="m94.48819 303.5643l0 41.29135" fill-rule="evenodd"/><path stroke="#000000" stroke-width="1.0" stroke-linejoin="round" stroke-linecap="butt" d="m94.48819 303.5643l0 35.29135" fill-rule="evenodd"/><path fill="#000000" stroke="#000000" stroke-width="1.0" stroke-linecap="butt" d="m92.83646 338.85565l1.6517334 4.538086l1.6517334 -4.538086z" fill-rule="evenodd"/><path fill="#000000" fill-opacity="0.0" d="m253.16142 270.21652l-100.598434 0" fill-rule="evenodd"/><path stroke="#000000" stroke-width="1.0" stroke-linejoin="round" stroke-linecap="butt" d="m253.16142 270.21652l-94.598434 0" fill-rule="evenodd"/><path fill="#000000" stroke="#000000" stroke-width="1.0" stroke-linecap="butt" d="m158.56299 268.5648l-4.538101 1.6517334l4.538101 1.6517334z" fill-rule="evenodd"/></g></svg>