<svg version="1.1" viewBox="0.0 0.0 705.6797900262467 348.37270341207346" fill="none" stroke="none" stroke-linecap="square" stroke-miterlimit="10" xmlns:xlink="http://www.w3.org/1999/xlink" xmlns="http://www.w3.org/2000/svg"><clipPath id="p.0"><path d="m0 0l705.6798 0l0 348.3727l-705.6798 0l0 -348.3727z" clip-rule="nonzero"/></clipPath><g clip-path="url(#p.0)"><path fill="#000000" fill-opacity="0.0" d="m0 0l705.6798 0l0 348.3727l-705.6798 0z" fill-rule="evenodd"/><path fill="#000000" fill-opacity="0.0" d="m278.52756 234.92914l227.3071 0l0 107.08661l-227.3071 0z" fill-rule="evenodd"/><path stroke="#434343" stroke-width="1.0" stroke-linejoin="round" stroke-linecap="butt" d="m278.52756 234.92914l227.3071 0l0 107.08661l-227.3071 0z" fill-rule="evenodd"/><path fill="#434343" d="m371.44193 254.10164l-0.578125 0l0 5.1874847l-1.1875 0l0 -11.20311l1.1875 0l0 5.21875l0.5625 -0.21875l2.921875 -5.0l1.375 0l-2.9375 4.828125l-0.5625 0.515625l0.65625 0.640625l3.25 5.2187347l-1.515625 0l-3.171875 -5.1874847zm6.7395325 -2.8125l0 4.8906097q0 1.21875 0.25 1.75q0.25 0.515625 0.90625 0.515625q0.328125 0 0.59375 -0.140625q0.265625 -0.140625 0.46875 -0.359375q0.21875 -0.21875 0.375 -0.5q0.15625 -0.296875 0.25 -0.609375l0 -5.5468597l1.15625 0l0 5.7343597q0 0.5625 0.03125 1.1875q0.046875 0.609375 0.125 1.078125l-0.8125 0l-0.28125 -1.125l-0.0625 0q-0.265625 0.53125 -0.78125 0.921875q-0.5 0.390625 -1.28125 0.390625q-0.5 0 -0.890625 -0.125q-0.390625 -0.125 -0.65625 -0.453125q-0.265625 -0.34375 -0.40625 -0.921875q-0.140625 -0.59375 -0.140625 -1.5l0 -5.1874847l1.15625 0zm7.1315002 6.0937347q0 0.5625 0.15625 0.8125q0.15625 0.234375 0.421875 0.234375q0.34375 0 0.78125 -0.1875l0.109375 0.9375q-0.203125 0.125 -0.578125 0.203125q-0.375 0.078125 -0.671875 0.078125q-0.609375 0 -0.984375 -0.375q-0.375 -0.375 -0.375 -1.3125l0 -9.687485l1.140625 0l0 9.29686zm6.9155273 1.5q-0.40625 0.3125 -0.921875 0.453125q-0.5 0.140625 -1.0625 0.140625q-0.765625 0 -1.296875 -0.296875q-0.53125 -0.296875 -0.859375 -0.84375q-0.328125 -0.546875 -0.484375 -1.328125q-0.140625 -0.78125 -0.140625 -1.7187347q0 -2.046875 0.71875 -3.109375q0.734375 -1.078125 2.09375 -1.078125q0.625 0 1.0625 0.109375q0.453125 0.109375 0.78125 0.28125l-0.328125 1.015625q-0.640625 -0.375 -1.390625 -0.375q-0.859375 0 -1.296875 0.765625q-0.4375 0.765625 -0.4375 2.390625q0 0.65625 0.09375 1.2343597q0.09375 0.578125 0.3125 1.0q0.234375 0.421875 0.578125 0.671875q0.359375 0.25 0.875 0.25q0.421875 0 0.78125 -0.140625q0.359375 -0.15625 0.59375 -0.34375l0.328125 0.921875zm1.1491394 -0.90625q0.328125 0.1875 0.765625 0.328125q0.4375 0.140625 0.90625 0.140625q0.53125 0 0.890625 -0.265625q0.375 -0.265625 0.375 -0.859375q0 -0.5 -0.234375 -0.8125q-0.21875 -0.328125 -0.5625 -0.57810974q-0.34375 -0.25 -0.75 -0.46875q-0.390625 -0.21875 -0.734375 -0.515625q-0.34375 -0.3125 -0.578125 -0.71875q-0.21875 -0.421875 -0.21875 -1.0625q0 -1.03125 0.546875 -1.546875q0.5625 -0.515625 1.5625 -0.515625q0.65625 0 1.140625 0.125q0.484375 0.109375 0.828125 0.3125l-0.296875 0.96875q-0.3125 -0.15625 -0.71875 -0.265625q-0.390625 -0.109375 -0.8125 -0.109375q-0.5625 0 -0.828125 0.25q-0.265625 0.234375 -0.265625 0.75q0 0.390625 0.21875 0.671875q0.21875 0.28125 0.5625 0.515625q0.34375 0.234375 0.75 0.484375q0.40625 0.234375 0.75 0.5625q0.34375 0.328125 0.5625 0.78123474q0.21875 0.453125 0.21875 1.140625q0 0.453125 -0.140625 0.859375q-0.140625 0.390625 -0.4375 0.6875q-0.296875 0.296875 -0.734375 0.46875q-0.4375 0.171875 -1.03125 0.171875q-0.703125 0 -1.21875 -0.140625q-0.515625 -0.125 -0.859375 -0.34375l0.34375 -1.015625zm5.5329895 -6.6874847l0.828125 0l0.171875 0.859375l0.0625 0q0.59375 -1.046875 1.859375 -1.046875q1.265625 0 1.890625 0.953125q0.640625 0.9375 0.640625 3.078125q0 0.99998474 -0.21875 1.8124847q-0.203125 0.8125 -0.59375 1.375q-0.375 0.5625 -0.9375 0.859375q-0.546875 0.296875 -1.21875 0.296875q-0.46875 0 -0.734375 -0.0625q-0.265625 -0.046875 -0.59375 -0.21875l0 3.296875l-1.15625 0l0 -11.20311zm1.15625 6.7343597q0.21875 0.1875 0.5 0.3125q0.28125 0.109375 0.75 0.109375q0.84375 0 1.34375 -0.859375q0.5 -0.875 0.5 -2.4687347q0 -0.671875 -0.09375 -1.21875q-0.078125 -0.546875 -0.28125 -0.9375q-0.1875 -0.390625 -0.484375 -0.609375q-0.296875 -0.21875 -0.734375 -0.21875q-1.15625 0 -1.5 1.421875l0 4.4687347zm5.725647 -6.2499847q0.46875 -0.296875 1.125 -0.453125q0.671875 -0.15625 1.40625 -0.15625q0.671875 0 1.078125 0.203125q0.40625 0.1875 0.640625 0.53125q0.234375 0.34375 0.296875 0.796875q0.078125 0.4375 0.078125 0.90625q0 0.96875 -0.046875 1.890625q-0.03125 0.90623474 -0.03125 1.7187347q0 0.609375 0.03125 1.125q0.046875 0.515625 0.15625 0.984375l-0.875 0l-0.265625 -0.9375l-0.0625 0q-0.25 0.40625 -0.71875 0.71875q-0.453125 0.296875 -1.234375 0.296875q-0.875 0 -1.421875 -0.59375q-0.546875 -0.609375 -0.546875 -1.65625q0 -0.6875 0.21875 -1.1562347q0.234375 -0.46875 0.65625 -0.75q0.4375 -0.296875 1.015625 -0.40625q0.578125 -0.125 1.296875 -0.125q0.171875 0 0.328125 0q0.15625 0 0.328125 0.015625q0.0625 -0.5 0.0625 -0.875q0 -0.921875 -0.28125 -1.28125q-0.265625 -0.375 -0.984375 -0.375q-0.453125 0 -0.984375 0.140625q-0.53125 0.140625 -0.875 0.34375l-0.390625 -0.90625zm3.484375 3.875q-0.171875 -0.015625 -0.328125 -0.03125q-0.15625 -0.015625 -0.3125 -0.015625q-0.390625 0 -0.765625 0.078125q-0.359375 0.0625 -0.65625 0.21875q-0.28125 0.15623474 -0.453125 0.43748474q-0.171875 0.265625 -0.171875 0.6875q0 0.640625 0.3125 1.0q0.3125 0.34375 0.8125 0.34375q0.671875 0 1.03125 -0.3125q0.375 -0.328125 0.53125 -0.71875l0 -1.6874847zm-1.625 -7.875l1.234375 0l0 0.328125l-1.3125 2.046875l-0.6875 0l0.765625 -2.375zm4.618744 3.515625l0.828125 0l0.203125 0.84375l0.046875 0q0.21875 -0.453125 0.578125 -0.71875q0.359375 -0.265625 0.875 -0.265625q0.375 0 0.828125 0.140625l-0.21875 1.171875q-0.421875 -0.140625 -0.734375 -0.140625q-0.515625 0 -0.84375 0.296875q-0.3125 0.28125 -0.40625 0.78125l0 5.8906097l-1.15625 0l0 -7.9999847z" fill-rule="nonzero"/><path fill="#fce5cd" d="m313.67715 38.60648l0 0c0 -4.946022 4.009552 -8.955561 8.955566 -8.955561l130.68732 0c2.3751526 0 4.6530457 0.9435291 6.3325195 2.623022c1.6795044 1.679493 2.6230469 3.9573746 2.6230469 6.3325386l0 35.821163c0 4.946022 -4.009552 8.955559 -8.955566 8.955559l-130.68732 0c-4.9460144 0 -8.955566 -4.0095367 -8.955566 -8.955559z" fill-rule="evenodd"/><path stroke="#783f04" stroke-width="1.0" stroke-linejoin="round" stroke-linecap="butt" d="m313.67715 38.60648l0 0c0 -4.946022 4.009552 -8.955561 8.955566 -8.955561l130.68732 0c2.3751526 0 4.6530457 0.9435291 6.3325195 2.623022c1.6795044 1.679493 2.6230469 3.9573746 2.6230469 6.3325386l0 35.821163c0 4.946022 -4.009552 8.955559 -8.955566 8.955559l-130.68732 0c-4.9460144 0 -8.955566 -4.0095367 -8.955566 -8.955559z" fill-rule="evenodd"/><path fill="#783f04" d="m373.27423 52.28331l-2.75 0l0 10.09375l-1.203125 0l0 -10.09375l-2.75 0l0 -1.109375l6.703125 0l0 1.109375zm0.12948608 2.578125q0.46875 -0.296875 1.125 -0.453125q0.671875 -0.15625 1.40625 -0.15625q0.671875 0 1.078125 0.203125q0.40625 0.1875 0.640625 0.53125q0.234375 0.34375 0.296875 0.796875q0.078125 0.4375 0.078125 0.90625q0 0.96875 -0.046875 1.890625q-0.03125 0.90625 -0.03125 1.71875q0 0.609375 0.03125 1.125q0.046875 0.515625 0.15625 0.984375l-0.875 0l-0.265625 -0.9375l-0.0625 0q-0.25 0.40625 -0.71875 0.71875q-0.453125 0.296875 -1.234375 0.296875q-0.875 0 -1.421875 -0.59375q-0.546875 -0.609375 -0.546875 -1.65625q0 -0.6875 0.21875 -1.15625q0.234375 -0.46875 0.65625 -0.75q0.4375 -0.296875 1.015625 -0.40625q0.578125 -0.125 1.296875 -0.125q0.171875 0 0.328125 0q0.15625 0 0.328125 0.015625q0.0625 -0.5 0.0625 -0.875q0 -0.921875 -0.28125 -1.28125q-0.265625 -0.375 -0.984375 -0.375q-0.453125 0 -0.984375 0.140625q-0.53125 0.140625 -0.875 0.34375l-0.390625 -0.90625zm3.484375 3.875q-0.171875 -0.015625 -0.328125 -0.03125q-0.15625 -0.015625 -0.3125 -0.015625q-0.390625 0 -0.765625 0.078125q-0.359375 0.0625 -0.65625 0.21875q-0.28125 0.15625 -0.453125 0.4375q-0.171875 0.265625 -0.171875 0.6875q0 0.640625 0.3125 1.0q0.3125 0.34375 0.8125 0.34375q0.671875 0 1.03125 -0.3125q0.375 -0.328125 0.53125 -0.71875l0 -1.6875zm-1.625 -7.875l1.234375 0l0 0.328125l-1.3125 2.046875l-0.6875 0l0.765625 -2.375zm8.368774 11.515625l0 -4.75q0 -0.640625 -0.046875 -1.09375q-0.03125 -0.453125 -0.15625 -0.734375q-0.125 -0.296875 -0.359375 -0.4375q-0.21875 -0.140625 -0.59375 -0.140625q-0.546875 0 -0.921875 0.4375q-0.375 0.421875 -0.515625 0.953125l0 5.765625l-1.15625 0l0 -8.0l0.828125 0l0.203125 0.84375l0.046875 0q0.34375 -0.453125 0.796875 -0.734375q0.46875 -0.296875 1.1875 -0.296875q0.609375 0 1.0 0.265625q0.390625 0.265625 0.609375 0.9375q0.296875 -0.5625 0.828125 -0.875q0.53125 -0.328125 1.171875 -0.328125q0.53125 0 0.90625 0.140625q0.375 0.125 0.609375 0.46875q0.234375 0.34375 0.34375 0.921875q0.109375 0.5625 0.109375 1.421875l0 5.234375l-1.140625 0l0 -5.09375q0 -1.03125 -0.203125 -1.546875q-0.203125 -0.515625 -0.921875 -0.515625q-0.609375 0 -0.96875 0.375q-0.359375 0.375 -0.5 1.015625l0 5.765625l-1.15625 0zm6.5878906 -7.515625q0.46875 -0.296875 1.125 -0.453125q0.671875 -0.15625 1.40625 -0.15625q0.671875 0 1.078125 0.203125q0.40625 0.1875 0.640625 0.53125q0.234375 0.34375 0.296875 0.796875q0.078125 0.4375 0.078125 0.90625q0 0.96875 -0.046875 1.890625q-0.03125 0.90625 -0.03125 1.71875q0 0.609375 0.03125 1.125q0.046875 0.515625 0.15625 0.984375l-0.875 0l-0.265625 -0.9375l-0.0625 0q-0.25 0.40625 -0.71875 0.71875q-0.453125 0.296875 -1.234375 0.296875q-0.875 0 -1.421875 -0.59375q-0.546875 -0.609375 -0.546875 -1.65625q0 -0.6875 0.21875 -1.15625q0.234375 -0.46875 0.65625 -0.75q0.4375 -0.296875 1.015625 -0.40625q0.578125 -0.125 1.296875 -0.125q0.171875 0 0.328125 0q0.15625 0 0.328125 0.015625q0.0625 -0.5 0.0625 -0.875q0 -0.921875 -0.28125 -1.28125q-0.265625 -0.375 -0.984375 -0.375q-0.453125 0 -0.984375 0.140625q-0.53125 0.140625 -0.875 0.34375l-0.390625 -0.90625zm3.484375 3.875q-0.171875 -0.015625 -0.328125 -0.03125q-0.15625 -0.015625 -0.3125 -0.015625q-0.390625 0 -0.765625 0.078125q-0.359375 0.0625 -0.65625 0.21875q-0.28125 0.15625 -0.453125 0.4375q-0.171875 0.265625 -0.171875 0.6875q0 0.640625 0.3125 1.0q0.3125 0.34375 0.8125 0.34375q0.671875 0 1.03125 -0.3125q0.375 -0.328125 0.53125 -0.71875l0 -1.6875zm8.040619 0.890625q0 0.8125 0.015625 1.484375q0.015625 0.65625 0.109375 1.296875l-0.78125 0l-0.25 -0.953125l-0.0625 0q-0.234375 0.46875 -0.71875 0.796875q-0.46875 0.3125 -1.140625 0.3125q-1.296875 0 -1.9375 -1.0q-0.625 -1.015625 -0.625 -3.171875q0 -2.046875 0.765625 -3.09375q0.78125 -1.0625 2.140625 -1.0625q0.46875 0 0.734375 0.0625q0.28125 0.046875 0.59375 0.171875l0 -3.296875l1.15625 0l0 8.453125zm-1.15625 -3.984375q-0.21875 -0.1875 -0.5 -0.28125q-0.28125 -0.09375 -0.75 -0.09375q-0.84375 0 -1.3125 0.78125q-0.46875 0.765625 -0.46875 2.359375q0 0.703125 0.078125 1.28125q0.09375 0.5625 0.28125 0.984375q0.1875 0.40625 0.46875 0.640625q0.296875 0.21875 0.734375 0.21875q1.15625 0 1.46875 -1.359375l0 -4.53125zm2.693634 2.734375q0 -2.15625 0.734375 -3.171875q0.75 -1.015625 2.125 -1.015625q1.46875 0 2.15625 1.046875q0.703125 1.03125 0.703125 3.140625q0 2.171875 -0.75 3.1875q-0.75 1.0 -2.109375 1.0q-1.46875 0 -2.171875 -1.03125q-0.6875 -1.046875 -0.6875 -3.15625zm1.203125 0q0 0.703125 0.078125 1.28125q0.09375 0.578125 0.296875 1.0q0.203125 0.40625 0.515625 0.640625q0.328125 0.234375 0.765625 0.234375q0.828125 0 1.25 -0.75q0.421875 -0.75 0.421875 -2.40625q0 -0.6875 -0.09375 -1.265625q-0.09375 -0.59375 -0.296875 -1.0q-0.1875 -0.421875 -0.515625 -0.65625q-0.3125 -0.234375 -0.765625 -0.234375q-0.8125 0 -1.234375 0.765625q-0.421875 0.75 -0.421875 2.390625zm1.921875 -7.515625l1.234375 0l0 0.328125l-1.3125 2.046875l-0.6875 0l0.765625 -2.375z" fill-rule="nonzero"/><path fill="#c9daf8" d="m185.5643 125.840126l0 0c0 -6.302841 5.1094666 -11.412308 11.412308 -11.412308l104.923416 0c3.0267334 0 5.9295044 1.2023697 8.069733 3.3425903c2.1402283 2.1402206 3.3425903 5.042984 3.3425903 8.069717l0 45.647835c0 6.302841 -5.1094666 11.412308 -11.412323 11.412308l-104.923416 0c-6.302841 0 -11.412308 -5.1094666 -11.412308 -11.412308z" fill-rule="evenodd"/><path stroke="#1c4587" stroke-width="1.0" stroke-linejoin="round" stroke-linecap="butt" d="m185.5643 125.840126l0 0c0 -6.302841 5.1094666 -11.412308 11.412308 -11.412308l104.923416 0c3.0267334 0 5.9295044 1.2023697 8.069733 3.3425903c2.1402283 2.1402206 3.3425903 5.042984 3.3425903 8.069717l0 45.647835c0 6.302841 -5.1094666 11.412308 -11.412323 11.412308l-104.923416 0c-6.302841 0 -11.412308 -5.1094666 -11.412308 -11.412308z" fill-rule="evenodd"/><path fill="#1c4587" d="m229.82416 144.4303l-2.75 0l0 10.09375l-1.203125 0l0 -10.09375l-2.75 0l0 -1.109375l6.703125 0l0 1.109375zm1.370758 2.09375l1.140625 0l0 8.0l-1.140625 0l0 -8.0zm-0.21875 -2.4375q0 -0.375 0.21875 -0.609375q0.21875 -0.25 0.578125 -0.25q0.34375 0 0.578125 0.234375q0.234375 0.234375 0.234375 0.625q0 0.390625 -0.234375 0.609375q-0.234375 0.21875 -0.578125 0.21875q-0.359375 0 -0.578125 -0.21875q-0.21875 -0.234375 -0.21875 -0.609375zm2.6907501 2.4375l0.984375 0l0 -1.578125l1.140625 -0.375l0 1.953125l1.734375 0l0 1.046875l-1.734375 0l0 4.765625q0 0.703125 0.171875 1.015625q0.171875 0.3125 0.546875 0.3125q0.328125 0 0.5625 -0.078125q0.234375 -0.078125 0.5 -0.1875l0.21875 0.921875q-0.34375 0.171875 -0.765625 0.265625q-0.421875 0.109375 -0.890625 0.109375q-0.796875 0 -1.140625 -0.515625q-0.34375 -0.515625 -0.34375 -1.6875l0 -4.921875l-0.984375 0l0 -1.046875zm6.946884 4.40625l-0.59375 0l0 3.59375l-1.15625 0l0 -11.203125l1.15625 0l0 6.8125l0.53125 -0.21875l1.875 -3.390625l1.328125 0l-1.890625 3.234375l-0.5625 0.515625l0.65625 0.625l2.0625 3.625l-1.390625 0l-2.015625 -3.59375zm3.9542542 -0.40625q0 -2.15625 0.734375 -3.171875q0.75 -1.015625 2.125 -1.015625q1.46875 0 2.15625 1.046875q0.703125 1.03125 0.703125 3.140625q0 2.171875 -0.75 3.1875q-0.75 1.0 -2.109375 1.0q-1.46875 0 -2.171875 -1.03125q-0.6875 -1.046875 -0.6875 -3.15625zm1.203125 0q0 0.703125 0.078125 1.28125q0.09375 0.578125 0.296875 1.0q0.203125 0.40625 0.515625 0.640625q0.328125 0.234375 0.765625 0.234375q0.828125 0 1.25 -0.75q0.421875 -0.75 0.421875 -2.40625q0 -0.6875 -0.09375 -1.265625q-0.09375 -0.59375 -0.296875 -1.0q-0.1875 -0.421875 -0.515625 -0.65625q-0.3125 -0.234375 -0.765625 -0.234375q-0.8125 0 -1.234375 0.765625q-0.421875 0.75 -0.421875 2.390625zm5.927643 2.6875q0.328125 0.1875 0.765625 0.328125q0.4375 0.140625 0.90626526 0.140625q0.53125 0 0.890625 -0.265625q0.375 -0.265625 0.375 -0.859375q0 -0.5 -0.234375 -0.8125q-0.21875 -0.328125 -0.5625 -0.578125q-0.34375 -0.25 -0.75 -0.46875q-0.39064026 -0.21875 -0.73439026 -0.515625q-0.34375 -0.3125 -0.578125 -0.71875q-0.21875 -0.421875 -0.21875 -1.0625q0 -1.03125 0.546875 -1.546875q0.5625 -0.515625 1.5625153 -0.515625q0.65625 0 1.140625 0.125q0.484375 0.109375 0.828125 0.3125l-0.296875 0.96875q-0.3125 -0.15625 -0.71875 -0.265625q-0.390625 -0.109375 -0.8125 -0.109375q-0.5625 0 -0.828125 0.25q-0.26564026 0.234375 -0.26564026 0.75q0 0.390625 0.21876526 0.671875q0.21875 0.28125 0.5625 0.515625q0.34375 0.234375 0.75 0.484375q0.40625 0.234375 0.75 0.5625q0.34375 0.328125 0.5625 0.78125q0.21875 0.453125 0.21875 1.140625q0 0.453125 -0.140625 0.859375q-0.140625 0.390625 -0.4375 0.6875q-0.296875 0.296875 -0.734375 0.46875q-0.4375 0.171875 -1.03125 0.171875q-0.70314026 0 -1.2187653 -0.140625q-0.515625 -0.125 -0.859375 -0.34375l0.34375 -1.015625zm5.75177 -6.6875l1.140625 0l0 8.0l-1.140625 0l0 -8.0zm0.5625 -3.515625l1.234375 0l0 0.328125l-1.3125 2.046875l-0.6875 0l0.765625 -2.375zm1.8938599 3.515625l0.984375 0l0 -1.578125l1.140625 -0.375l0 1.953125l1.734375 0l0 1.046875l-1.734375 0l0 4.765625q0 0.703125 0.171875 1.015625q0.171875 0.3125 0.546875 0.3125q0.328125 0 0.5625 -0.078125q0.234375 -0.078125 0.5 -0.1875l0.21875 0.921875q-0.34375 0.171875 -0.765625 0.265625q-0.421875 0.109375 -0.890625 0.109375q-0.796875 0 -1.140625 -0.515625q-0.34375 -0.515625 -0.34375 -1.6875l0 -4.921875l-0.984375 0l0 -1.046875zm5.1187744 0.484375q0.46875 -0.296875 1.125 -0.453125q0.671875 -0.15625 1.40625 -0.15625q0.671875 0 1.078125 0.203125q0.40625 0.1875 0.640625 0.53125q0.234375 0.34375 0.296875 0.796875q0.078125 0.4375 0.078125 0.90625q0 0.96875 -0.046875 1.890625q-0.03125 0.90625 -0.03125 1.71875q0 0.609375 0.03125 1.125q0.046875 0.515625 0.15625 0.984375l-0.875 0l-0.265625 -0.9375l-0.0625 0q-0.25 0.40625 -0.71875 0.71875q-0.453125 0.296875 -1.234375 0.296875q-0.875 0 -1.421875 -0.59375q-0.546875 -0.609375 -0.546875 -1.65625q0 -0.6875 0.21875 -1.15625q0.234375 -0.46875 0.65625 -0.75q0.4375 -0.296875 1.015625 -0.40625q0.578125 -0.125 1.296875 -0.125q0.171875 0 0.328125 0q0.15625 0 0.328125 0.015625q0.0625 -0.5 0.0625 -0.875q0 -0.921875 -0.28125 -1.28125q-0.265625 -0.375 -0.984375 -0.375q-0.453125 0 -0.984375 0.140625q-0.53125 0.140625 -0.875 0.34375l-0.390625 -0.90625zm3.484375 3.875q-0.171875 -0.015625 -0.328125 -0.03125q-0.15625 -0.015625 -0.3125 -0.015625q-0.390625 0 -0.765625 0.078125q-0.359375 0.0625 -0.65625 0.21875q-0.28125 0.15625 -0.453125 0.4375q-0.171875 0.265625 -0.171875 0.6875q0 0.640625 0.3125 1.0q0.3125 0.34375 0.8125 0.34375q0.671875 0 1.03125 -0.3125q0.375 -0.328125 0.53125 -0.71875l0 -1.6875zm-1.625 -7.875l1.234375 0l0 0.328125l-1.3125 2.046875l-0.6875 0l0.765625 -2.375zm4.493744 10.203125q0.328125 0.1875 0.765625 0.328125q0.4375 0.140625 0.90625 0.140625q0.53125 0 0.890625 -0.265625q0.375 -0.265625 0.375 -0.859375q0 -0.5 -0.234375 -0.8125q-0.21875 -0.328125 -0.5625 -0.578125q-0.34375 -0.25 -0.75 -0.46875q-0.390625 -0.21875 -0.734375 -0.515625q-0.34375 -0.3125 -0.578125 -0.71875q-0.21875 -0.421875 -0.21875 -1.0625q0 -1.03125 0.546875 -1.546875q0.5625 -0.515625 1.5625 -0.515625q0.65625 0 1.140625 0.125q0.484375 0.109375 0.828125 0.3125l-0.296875 0.96875q-0.3125 -0.15625 -0.71875 -0.265625q-0.390625 -0.109375 -0.8125 -0.109375q-0.5625 0 -0.828125 0.25q-0.265625 0.234375 -0.265625 0.75q0 0.390625 0.21875 0.671875q0.21875 0.28125 0.5625 0.515625q0.34375 0.234375 0.75 0.484375q0.40625 0.234375 0.75 0.5625q0.34375 0.328125 0.5625 0.78125q0.21875 0.453125 0.21875 1.140625q0 0.453125 -0.140625 0.859375q-0.140625 0.390625 -0.4375 0.6875q-0.296875 0.296875 -0.734375 0.46875q-0.4375 0.171875 -1.03125 0.171875q-0.703125 0 -1.21875 -0.140625q-0.515625 -0.125 -0.859375 -0.34375l0.34375 -1.015625z" fill-rule="nonzero"/><path fill="#d9ead3" d="m344.80316 126.141754l86.34897 0l0 36.294357c-43.1745 0 -43.1745 13.828827 -86.34897 5.9715424z" fill-rule="evenodd"/><path stroke="#274e13" stroke-width="1.0" stroke-linejoin="round" stroke-linecap="butt" d="m344.80316 126.141754l86.34897 0l0 36.294357c-43.1745 0 -43.1745 13.828827 -86.34897 5.9715424z" fill-rule="evenodd"/><path fill="#274e13" d="m374.86185 138.94582l1.15625 0l0 7.5q0 2.046875 -0.796875 2.953125q-0.78125 0.890625 -2.25 0.890625q-1.6875 0 -2.46875 -0.875q-0.765625 -0.875 -0.765625 -2.703125l0 -7.765625l1.1875 0l0 7.140625q0 0.859375 0.109375 1.453125q0.125 0.59375 0.375 0.96875q0.25 0.359375 0.640625 0.53125q0.390625 0.15625 0.9375 0.15625q1.0625 0 1.46875 -0.734375q0.40625 -0.75 0.40625 -2.375l0 -7.140625zm-4.203125 -1.5q0 -0.34375 0.203125 -0.546875q0.203125 -0.203125 0.5625 -0.203125q0.328125 0 0.53125 0.203125q0.203125 0.203125 0.203125 0.546875q0 0.328125 -0.203125 0.53125q-0.203125 0.203125 -0.53125 0.203125q-0.359375 0 -0.5625 -0.203125q-0.203125 -0.203125 -0.203125 -0.53125zm2.53125 0q0 -0.34375 0.203125 -0.546875q0.203125 -0.203125 0.53125 -0.203125q0.359375 0 0.546875 0.203125q0.203125 0.203125 0.203125 0.546875q0 0.328125 -0.203125 0.53125q-0.1875 0.203125 -0.546875 0.203125q-0.328125 0 -0.53125 -0.203125q-0.203125 -0.203125 -0.203125 -0.53125zm4.3672485 11.65625l2.96875 -5.21875l0.5625 -0.6875l-3.53125 0l0 -1.046875l4.671875 0l0 1.046875l-3.0 5.265625l-0.546875 0.640625l3.546875 0l0 1.046875l-4.671875 0l0 -1.046875zm10.786774 0.5q-0.390625 0.359375 -0.984375 0.546875q-0.59375 0.1875 -1.25 0.1875q-0.75 0 -1.3125 -0.296875q-0.546875 -0.296875 -0.90625 -0.84375q-0.359375 -0.546875 -0.53125 -1.3125q-0.15625 -0.78125 -0.15625 -1.734375q0 -2.046875 0.75 -3.109375q0.75 -1.078125 2.125 -1.078125q0.453125 0 0.890625 0.109375q0.4375 0.109375 0.78125 0.453125q0.359375 0.328125 0.578125 0.9375q0.21875 0.609375 0.21875 1.578125q0 0.28125 -0.03125 0.59375q-0.015625 0.3125 -0.046875 0.640625l-4.0625 0q0 0.6875 0.109375 1.25q0.109375 0.5625 0.34375 0.953125q0.25 0.390625 0.625 0.609375q0.375 0.21875 0.9375 0.21875q0.421875 0 0.84375 -0.15625q0.4375 -0.171875 0.65625 -0.390625l0.421875 0.84375zm-0.90625 -4.28125q0.03125 -1.203125 -0.34375 -1.765625q-0.359375 -0.5625 -1.0 -0.5625q-0.734375 0 -1.171875 0.5625q-0.421875 0.5625 -0.5 1.765625l3.015625 0zm6.8267517 4.828125l0 -4.875q0 -1.203125 -0.28125 -1.734375q-0.28125 -0.546875 -1.0 -0.546875q-0.640625 0 -1.0625 0.390625q-0.421875 0.375 -0.609375 0.9375l0 5.828125l-1.15625 0l0 -8.0l0.84375 0l0.203125 0.84375l0.046875 0q0.3125 -0.421875 0.828125 -0.71875q0.515625 -0.3125 1.234375 -0.3125q0.515625 0 0.90625 0.140625q0.390625 0.140625 0.65625 0.484375q0.265625 0.34375 0.390625 0.921875q0.140625 0.578125 0.140625 1.453125l0 5.1875l-1.140625 0zm7.7115173 -0.546875q-0.390625 0.359375 -0.984375 0.546875q-0.59375 0.1875 -1.25 0.1875q-0.75 0 -1.3125 -0.296875q-0.546875 -0.296875 -0.90625 -0.84375q-0.359375 -0.546875 -0.53125 -1.3125q-0.15625 -0.78125 -0.15625 -1.734375q0 -2.046875 0.75 -3.109375q0.75 -1.078125 2.125 -1.078125q0.453125 0 0.890625 0.109375q0.4375 0.109375 0.78125 0.453125q0.359375 0.328125 0.578125 0.9375q0.21875 0.609375 0.21875 1.578125q0 0.28125 -0.03125 0.59375q-0.015625 0.3125 -0.046875 0.640625l-4.0625 0q0 0.6875 0.109375 1.25q0.109375 0.5625 0.34375 0.953125q0.25 0.390625 0.625 0.609375q0.375 0.21875 0.9375 0.21875q0.421875 0 0.84375 -0.15625q0.4375 -0.171875 0.65625 -0.390625l0.421875 0.84375zm-0.90625 -4.28125q0.03125 -1.203125 -0.34375 -1.765625q-0.359375 -0.5625 -1.0 -0.5625q-0.734375 0 -1.171875 0.5625q-0.421875 0.5625 -0.5 1.765625l3.015625 0zm1.9205322 -3.171875l0.984375 0l0 -1.578125l1.140625 -0.375l0 1.953125l1.734375 0l0 1.046875l-1.734375 0l0 4.765625q0 0.703125 0.171875 1.015625q0.171875 0.3125 0.546875 0.3125q0.328125 0 0.5625 -0.078125q0.234375 -0.078125 0.5 -0.1875l0.21875 0.921875q-0.34375 0.171875 -0.765625 0.265625q-0.421875 0.109375 -0.890625 0.109375q-0.796875 0 -1.140625 -0.515625q-0.34375 -0.515625 -0.34375 -1.6875l0 -4.921875l-0.984375 0l0 -1.046875z" fill-rule="nonzero"/><path fill="#f4cccc" d="m77.850395 126.13784l76.223625 0l0 36.294365c-38.111816 0 -38.111816 13.828812 -76.223625 5.971527z" fill-rule="evenodd"/><path stroke="#660000" stroke-width="1.0" stroke-linejoin="round" stroke-linecap="butt" d="m77.850395 126.13784l76.223625 0l0 36.294365c-38.111816 0 -38.111816 13.828812 -76.223625 5.971527z" fill-rule="evenodd"/><path fill="#660000" d="m108.64231 147.0044l-3.171875 0l-0.890625 3.140625l-1.1875 0l3.375 -11.375l0.65625 0l3.375 11.375l-1.25 0l-0.90625 -3.140625zm-2.84375 -1.0625l2.5625 0l-0.984375 -3.453125l-0.296875 -1.6875l-0.03125 0l-0.3125 1.71875l-0.9375 3.421875zm11.068008 1.453125q0 0.8125 0.015625 1.484375q0.015625 0.65625 0.109375 1.296875l-0.78125 0l-0.25 -0.953125l-0.0625 0q-0.234375 0.46875 -0.71875 0.796875q-0.46875 0.3125 -1.140625 0.3125q-1.296875 0 -1.9375 -1.0q-0.625 -1.015625 -0.625 -3.171875q0 -2.046875 0.765625 -3.09375q0.78125 -1.0625 2.140625 -1.0625q0.46875 0 0.734375 0.0625q0.28125 0.046875 0.59375 0.171875l0 -3.296875l1.15625 0l0 8.453125zm-1.15625 -3.984375q-0.21875 -0.1875 -0.5 -0.28125q-0.28125 -0.09375 -0.75 -0.09375q-0.84375 0 -1.3125 0.78125q-0.46875 0.765625 -0.46875 2.359375q0 0.703125 0.078125 1.28125q0.09375 0.5625 0.28125 0.984375q0.1875 0.40625 0.46875 0.640625q0.296875 0.21875 0.734375 0.21875q1.15625 0 1.46875 -1.359375l0 -4.53125zm2.959259 -0.78125q0.46875 -0.296875 1.125 -0.453125q0.671875 -0.15625 1.40625 -0.15625q0.671875 0 1.078125 0.203125q0.40625 0.1875 0.640625 0.53125q0.234375 0.34375 0.296875 0.796875q0.078125 0.4375 0.078125 0.90625q0 0.96875 -0.046875 1.890625q-0.03125 0.90625 -0.03125 1.71875q0 0.609375 0.03125 1.125q0.046875 0.515625 0.15625 0.984375l-0.875 0l-0.265625 -0.9375l-0.0625 0q-0.25 0.40625 -0.71875 0.71875q-0.453125 0.296875 -1.234375 0.296875q-0.875 0 -1.421875 -0.59375q-0.546875 -0.609375 -0.546875 -1.65625q0 -0.6875 0.21875 -1.15625q0.234375 -0.46875 0.65625 -0.75q0.4375 -0.296875 1.015625 -0.40625q0.578125 -0.125 1.296875 -0.125q0.171875 0 0.328125 0q0.15625 0 0.328125 0.015625q0.0625 -0.5 0.0625 -0.875q0 -0.921875 -0.28125 -1.28125q-0.265625 -0.375 -0.984375 -0.375q-0.453125 0 -0.984375 0.140625q-0.53125 0.140625 -0.875 0.34375l-0.390625 -0.90625zm3.484375 3.875q-0.171875 -0.015625 -0.328125 -0.03125q-0.15625 -0.015625 -0.3125 -0.015625q-0.390625 0 -0.765625 0.078125q-0.359375 0.0625 -0.65625 0.21875q-0.28125 0.15625 -0.453125 0.4375q-0.171875 0.265625 -0.171875 0.6875q0 0.640625 0.3125 1.0q0.3125 0.34375 0.8125 0.34375q0.671875 0 1.03125 -0.3125q0.375 -0.328125 0.53125 -0.71875l0 -1.6875zm2.1968842 -4.359375l0.984375 0l0 -1.578125l1.140625 -0.375l0 1.953125l1.7343674 0l0 1.046875l-1.7343674 0l0 4.765625q0 0.703125 0.171875 1.015625q0.171875 0.3125 0.546875 0.3125q0.328125 0 0.5625 -0.078125q0.234375 -0.078125 0.49999237 -0.1875l0.21875 0.921875q-0.34375 0.171875 -0.7656174 0.265625q-0.421875 0.109375 -0.890625 0.109375q-0.796875 0 -1.140625 -0.515625q-0.34375 -0.515625 -0.34375 -1.6875l0 -4.921875l-0.984375 0l0 -1.046875z" fill-rule="nonzero"/><path fill="#000000" fill-opacity="0.0" d="m387.97638 83.3832l0 42.771652" fill-rule="evenodd"/><path stroke="#000000" stroke-width="1.0" stroke-linejoin="round" stroke-linecap="butt" d="m387.97638 83.3832l0 36.771652" fill-rule="evenodd"/><path fill="#000000" stroke="#000000" stroke-width="1.0" stroke-linecap="butt" d="m386.32465 120.154854l1.6517334 4.538101l1.6517334 -4.538101z" fill-rule="evenodd"/><path fill="#000000" fill-opacity="0.0" d="m154.07402 148.76682l31.496063 -0.09448242" fill-rule="evenodd"/><path stroke="#000000" stroke-width="1.0" stroke-linejoin="round" stroke-linecap="butt" d="m154.07402 148.76682l25.496094 -0.07649231" fill-rule="evenodd"/><path fill="#000000" stroke="#000000" stroke-width="1.0" stroke-linecap="butt" d="m179.57507 150.34206l4.5331116 -1.6653442l-4.54303 -1.6381073z" fill-rule="evenodd"/><path fill="#000000" fill-opacity="0.0" d="m313.31235 148.66405l31.496063 0.09448242" fill-rule="evenodd"/><path stroke="#000000" stroke-width="1.0" stroke-linejoin="round" stroke-linecap="butt" d="m313.31235 148.66405l25.496063 0.07647705" fill-rule="evenodd"/><path fill="#000000" stroke="#000000" stroke-width="1.0" stroke-linecap="butt" d="m338.80347 150.39226l4.54303 -1.6381073l-4.5331116 -1.6653442z" fill-rule="evenodd"/><path fill="#c9daf8" d="m462.2756 125.840126l0 0c0 -6.302841 5.109436 -11.412308 11.4122925 -11.412308l104.92343 0c3.0267334 0 5.9295044 1.2023697 8.069702 3.3425903c2.1401978 2.1402206 3.3425903 5.042984 3.3425903 8.069717l0 45.647835c0 6.302841 -5.109436 11.412308 -11.4122925 11.412308l-104.92343 0c-6.3028564 0 -11.4122925 -5.1094666 -11.4122925 -11.412308z" fill-rule="evenodd"/><path stroke="#1c4587" stroke-width="1.0" stroke-linejoin="round" stroke-linecap="butt" d="m462.2756 125.840126l0 0c0 -6.302841 5.109436 -11.412308 11.4122925 -11.412308l104.92343 0c3.0267334 0 5.9295044 1.2023697 8.069702 3.3425903c2.1401978 2.1402206 3.3425903 5.042984 3.3425903 8.069717l0 45.647835c0 6.302841 -5.109436 11.412308 -11.4122925 11.412308l-104.92343 0c-6.3028564 0 -11.4122925 -5.1094666 -11.4122925 -11.412308z" fill-rule="evenodd"/><path fill="#1c4587" d="m498.5088 143.32092q0.25 -0.046875 0.5625 -0.0625q0.3125 -0.03125 0.625 -0.03125q0.328125 -0.015625 0.640625 -0.015625q0.3125 -0.015625 0.578125 -0.015625q1.171875 0 1.984375 0.40625q0.8125 0.390625 1.328125 1.140625q0.515625 0.734375 0.734375 1.78125q0.234375 1.046875 0.234375 2.3125q0 1.15625 -0.21875 2.21875q-0.21875 1.046875 -0.734375 1.859375q-0.515625 0.796875 -1.359375 1.28125q-0.828125 0.46875 -2.09375 0.46875q-0.203125 0 -0.53125 -0.015625q-0.3125 0 -0.65625 -0.03125q-0.34375 -0.015625 -0.640625 -0.03125q-0.296875 -0.015625 -0.453125 -0.046875l0 -11.21875zm2.46875 0.984375q-0.15625 0 -0.34375 0q-0.1875 0 -0.359375 0.015625q-0.171875 0.015625 -0.328125 0.03125q-0.15625 0.015625 -0.25 0.03125l0 9.109375q0.0625 0.015625 0.234375 0.03125q0.171875 0.015625 0.34375 0.03125q0.1875 0 0.359375 0.015625q0.171875 0 0.25 0q0.875 0 1.46875 -0.390625q0.59375 -0.390625 0.9375 -1.03125q0.34375 -0.65625 0.484375 -1.5q0.15625 -0.859375 0.15625 -1.828125q0 -0.84375 -0.140625 -1.65625q-0.125 -0.8125 -0.453125 -1.4375q-0.328125 -0.640625 -0.890625 -1.03125q-0.5625 -0.390625 -1.46875 -0.390625zm10.634399 9.671875q-0.390625 0.359375 -0.984375 0.546875q-0.59375 0.1875 -1.25 0.1875q-0.75 0 -1.3125 -0.296875q-0.546875 -0.296875 -0.90625 -0.84375q-0.359375 -0.546875 -0.53125 -1.3125q-0.15625 -0.78125 -0.15625 -1.734375q0 -2.046875 0.75 -3.109375q0.75 -1.078125 2.125 -1.078125q0.453125 0 0.890625 0.109375q0.4375 0.109375 0.78125 0.453125q0.359375 0.328125 0.578125 0.9375q0.21875 0.609375 0.21875 1.578125q0 0.28125 -0.03125 0.59375q-0.015625 0.3125 -0.046875 0.640625l-4.0625 0q0 0.6875 0.109375 1.25q0.109375 0.5625 0.34375 0.953125q0.25 0.390625 0.625 0.609375q0.375 0.21875 0.9375 0.21875q0.421875 0 0.84375 -0.15625q0.4375 -0.171875 0.65625 -0.390625l0.421875 0.84375zm-0.90625 -4.28125q0.03125 -1.203125 -0.34375 -1.765625q-0.359375 -0.5625 -1.0 -0.5625q-0.734375 0 -1.171875 0.5625q-0.421875 0.5625 -0.5 1.765625l3.015625 0zm4.467407 1.234375l-0.59375 0l0 3.59375l-1.15625 0l0 -11.203125l1.15625 0l0 6.8125l0.53125 -0.21875l1.875 -3.390625l1.328125 0l-1.890625 3.234375l-0.5625 0.515625l0.65625 0.625l2.0625 3.625l-1.390625 0l-2.015625 -3.59375zm3.9542236 -0.40625q0 -2.15625 0.734375 -3.171875q0.75 -1.015625 2.125 -1.015625q1.46875 0 2.15625 1.046875q0.703125 1.03125 0.703125 3.140625q0 2.171875 -0.75 3.1875q-0.75 1.0 -2.109375 1.0q-1.46875 0 -2.171875 -1.03125q-0.6875 -1.046875 -0.6875 -3.15625zm1.203125 0q0 0.703125 0.078125 1.28125q0.09375 0.578125 0.296875 1.0q0.203125 0.40625 0.515625 0.640625q0.328125 0.234375 0.765625 0.234375q0.828125 0 1.25 -0.75q0.421875 -0.75 0.421875 -2.40625q0 -0.6875 -0.09375 -1.265625q-0.09375 -0.59375 -0.296875 -1.0q-0.1875 -0.421875 -0.515625 -0.65625q-0.3125 -0.234375 -0.765625 -0.234375q-0.8125 0 -1.234375 0.765625q-0.421875 0.75 -0.421875 2.390625zm1.921875 -7.515625l1.234375 0l0 0.328125l-1.3125 2.046875l-0.6875 0l0.765625 -2.375zm9.177673 8.765625q0 0.8125 0.015625 1.484375q0.015625 0.65625 0.109375 1.296875l-0.78125 0l-0.25 -0.953125l-0.0625 0q-0.234375 0.46875 -0.71875 0.796875q-0.46875 0.3125 -1.140625 0.3125q-1.296875 0 -1.9375 -1.0q-0.625 -1.015625 -0.625 -3.171875q0 -2.046875 0.765625 -3.09375q0.78125 -1.0625 2.140625 -1.0625q0.46875 0 0.734375 0.0625q0.28125 0.046875 0.59375 0.171875l0 -3.296875l1.15625 0l0 8.453125zm-1.15625 -3.984375q-0.21875 -0.1875 -0.5 -0.28125q-0.28125 -0.09375 -0.75 -0.09375q-0.84375 0 -1.3125 0.78125q-0.46875 0.765625 -0.46875 2.359375q0 0.703125 0.078125 1.28125q0.09375 0.5625 0.28125 0.984375q0.1875 0.40625 0.46875 0.640625q0.296875 0.21875 0.734375 0.21875q1.15625 0 1.46875 -1.359375l0 -4.53125zm2.6936035 2.734375q0 -2.15625 0.734375 -3.171875q0.75 -1.015625 2.125 -1.015625q1.46875 0 2.15625 1.046875q0.703125 1.03125 0.703125 3.140625q0 2.171875 -0.75 3.1875q-0.75 1.0 -2.109375 1.0q-1.46875 0 -2.171875 -1.03125q-0.6875 -1.046875 -0.6875 -3.15625zm1.203125 0q0 0.703125 0.078125 1.28125q0.09375 0.578125 0.296875 1.0q0.203125 0.40625 0.515625 0.640625q0.328125 0.234375 0.765625 0.234375q0.828125 0 1.25 -0.75q0.421875 -0.75 0.421875 -2.40625q0 -0.6875 -0.09375 -1.265625q-0.09375 -0.59375 -0.296875 -1.0q-0.1875 -0.421875 -0.515625 -0.65625q-0.3125 -0.234375 -0.765625 -0.234375q-0.8125 0 -1.234375 0.765625q-0.421875 0.75 -0.421875 2.390625zm7.2870483 2.09375q0 0.5625 0.15625 0.8125q0.15625 0.234375 0.421875 0.234375q0.34375 0 0.78125 -0.1875l0.109375 0.9375q-0.203125 0.125 -0.578125 0.203125q-0.375 0.078125 -0.671875 0.078125q-0.609375 0 -0.984375 -0.375q-0.375 -0.375 -0.375 -1.3125l0 -9.6875l1.140625 0l0 9.296875zm2.4155273 -5.609375q0.46875 -0.296875 1.125 -0.453125q0.671875 -0.15625 1.40625 -0.15625q0.671875 0 1.078125 0.203125q0.40625 0.1875 0.640625 0.53125q0.234375 0.34375 0.296875 0.796875q0.078125 0.4375 0.078125 0.90625q0 0.96875 -0.046875 1.890625q-0.03125 0.90625 -0.03125 1.71875q0 0.609375 0.03125 1.125q0.046875 0.515625 0.15625 0.984375l-0.875 0l-0.265625 -0.9375l-0.0625 0q-0.25 0.40625 -0.71875 0.71875q-0.453125 0.296875 -1.234375 0.296875q-0.875 0 -1.421875 -0.59375q-0.546875 -0.609375 -0.546875 -1.65625q0 -0.6875 0.21875 -1.15625q0.234375 -0.46875 0.65625 -0.75q0.4375 -0.296875 1.015625 -0.40625q0.578125 -0.125 1.296875 -0.125q0.171875 0 0.328125 0q0.15625 0 0.328125 0.015625q0.0625 -0.5 0.0625 -0.875q0 -0.921875 -0.28125 -1.28125q-0.265625 -0.375 -0.984375 -0.375q-0.453125 0 -0.984375 0.140625q-0.53125 0.140625 -0.875 0.34375l-0.390625 -0.90625zm3.484375 3.875q-0.171875 -0.015625 -0.328125 -0.03125q-0.15625 -0.015625 -0.3125 -0.015625q-0.390625 0 -0.765625 0.078125q-0.359375 0.0625 -0.65625 0.21875q-0.28125 0.15625 -0.453125 0.4375q-0.171875 0.265625 -0.171875 0.6875q0 0.640625 0.3125 1.0q0.3125 0.34375 0.8125 0.34375q0.671875 0 1.03125 -0.3125q0.375 -0.328125 0.53125 -0.71875l0 -1.6875zm-1.625 -7.875l1.234375 0l0 0.328125l-1.3125 2.046875l-0.6875 0l0.765625 -2.375zm4.4937134 10.203125q0.328125 0.1875 0.765625 0.328125q0.4375 0.140625 0.90625 0.140625q0.53125 0 0.890625 -0.265625q0.375 -0.265625 0.375 -0.859375q0 -0.5 -0.234375 -0.8125q-0.21875 -0.328125 -0.5625 -0.578125q-0.34375 -0.25 -0.75 -0.46875q-0.390625 -0.21875 -0.734375 -0.515625q-0.34375 -0.3125 -0.578125 -0.71875q-0.21875 -0.421875 -0.21875 -1.0625q0 -1.03125 0.546875 -1.546875q0.5625 -0.515625 1.5625 -0.515625q0.65625 0 1.140625 0.125q0.484375 0.109375 0.828125 0.3125l-0.296875 0.96875q-0.3125 -0.15625 -0.71875 -0.265625q-0.390625 -0.109375 -0.8125 -0.109375q-0.5625 0 -0.828125 0.25q-0.265625 0.234375 -0.265625 0.75q0 0.390625 0.21875 0.671875q0.21875 0.28125 0.5625 0.515625q0.34375 0.234375 0.75 0.484375q0.40625 0.234375 0.75 0.5625q0.34375 0.328125 0.5625 0.78125q0.21875 0.453125 0.21875 1.140625q0 0.453125 -0.140625 0.859375q-0.140625 0.390625 -0.4375 0.6875q-0.296875 0.296875 -0.734375 0.46875q-0.4375 0.171875 -1.03125 0.171875q-0.703125 0 -1.21875 -0.140625q-0.515625 -0.125 -0.859375 -0.34375l0.34375 -1.015625z" fill-rule="nonzero"/><path fill="#000000" fill-opacity="0.0" d="m431.15213 148.77074l31.118103 -0.09449768" fill-rule="evenodd"/><path stroke="#000000" stroke-width="1.0" stroke-linejoin="round" stroke-linecap="butt" d="m431.1521 148.77074l25.118164 -0.07627869" fill-rule="evenodd"/><path fill="#000000" stroke="#000000" stroke-width="1.0" stroke-linecap="butt" d="m456.27527 150.34619l4.5330505 -1.6655121l-4.543091 -1.6379395z" fill-rule="evenodd"/><path fill="#f4cccc" d="m621.1496 126.13913l76.22363 0l0 36.294357c-38.111816 0 -38.111816 13.828827 -76.22363 5.9715424z" fill-rule="evenodd"/><path stroke="#660000" stroke-width="1.0" stroke-linejoin="round" stroke-linecap="butt" d="m621.1496 126.13913l76.22363 0l0 36.294357c-38.111816 0 -38.111816 13.828827 -76.22363 5.9715424z" fill-rule="evenodd"/><path fill="#660000" d="m651.9415 147.00569l-3.171875 0l-0.890625 3.140625l-1.1875 0l3.375 -11.375l0.65625 0l3.375 11.375l-1.25 0l-0.90625 -3.140625zm-2.84375 -1.0625l2.5625 0l-0.984375 -3.453125l-0.296875 -1.6875l-0.03125 0l-0.3125 1.71875l-0.9375 3.421875zm11.067993 1.453125q0 0.8125 0.015625 1.484375q0.015625 0.65625 0.109375 1.296875l-0.78125 0l-0.25 -0.953125l-0.0625 0q-0.234375 0.46875 -0.71875 0.796875q-0.46875 0.3125 -1.140625 0.3125q-1.296875 0 -1.9375 -1.0q-0.625 -1.015625 -0.625 -3.171875q0 -2.046875 0.765625 -3.09375q0.78125 -1.0625 2.140625 -1.0625q0.46875 0 0.734375 0.0625q0.28125 0.046875 0.59375 0.171875l0 -3.296875l1.15625 0l0 8.453125zm-1.15625 -3.984375q-0.21875 -0.1875 -0.5 -0.28125q-0.28125 -0.09375 -0.75 -0.09375q-0.84375 0 -1.3125 0.78125q-0.46875 0.765625 -0.46875 2.359375q0 0.703125 0.078125 1.28125q0.09375 0.5625 0.28125 0.984375q0.1875 0.40625 0.46875 0.640625q0.296875 0.21875 0.734375 0.21875q1.15625 0 1.46875 -1.359375l0 -4.53125zm2.9592896 -0.78125q0.46875 -0.296875 1.125 -0.453125q0.671875 -0.15625 1.40625 -0.15625q0.671875 0 1.078125 0.203125q0.40625 0.1875 0.640625 0.53125q0.234375 0.34375 0.296875 0.796875q0.078125 0.4375 0.078125 0.90625q0 0.96875 -0.046875 1.890625q-0.03125 0.90625 -0.03125 1.71875q0 0.609375 0.03125 1.125q0.046875 0.515625 0.15625 0.984375l-0.875 0l-0.265625 -0.9375l-0.0625 0q-0.25 0.40625 -0.71875 0.71875q-0.453125 0.296875 -1.234375 0.296875q-0.875 0 -1.421875 -0.59375q-0.546875 -0.609375 -0.546875 -1.65625q0 -0.6875 0.21875 -1.15625q0.234375 -0.46875 0.65625 -0.75q0.4375 -0.296875 1.015625 -0.40625q0.578125 -0.125 1.296875 -0.125q0.171875 0 0.328125 0q0.15625 0 0.328125 0.015625q0.0625 -0.5 0.0625 -0.875q0 -0.921875 -0.28125 -1.28125q-0.265625 -0.375 -0.984375 -0.375q-0.453125 0 -0.984375 0.140625q-0.53125 0.140625 -0.875 0.34375l-0.390625 -0.90625zm3.484375 3.875q-0.171875 -0.015625 -0.328125 -0.03125q-0.15625 -0.015625 -0.3125 -0.015625q-0.390625 0 -0.765625 0.078125q-0.359375 0.0625 -0.65625 0.21875q-0.28125 0.15625 -0.453125 0.4375q-0.171875 0.265625 -0.171875 0.6875q0 0.640625 0.3125 1.0q0.3125 0.34375 0.8125 0.34375q0.671875 0 1.03125 -0.3125q0.375 -0.328125 0.53125 -0.71875l0 -1.6875zm2.1968384 -4.359375l0.984375 0l0 -1.578125l1.140625 -0.375l0 1.953125l1.734375 0l0 1.046875l-1.734375 0l0 4.765625q0 0.703125 0.171875 1.015625q0.171875 0.3125 0.546875 0.3125q0.328125 0 0.5625 -0.078125q0.234375 -0.078125 0.5 -0.1875l0.21875 0.921875q-0.34375 0.171875 -0.765625 0.265625q-0.421875 0.109375 -0.890625 0.109375q-0.796875 0 -1.140625 -0.515625q-0.34375 -0.515625 -0.34375 -1.6875l0 -4.921875l-0.984375 0l0 -1.046875z" fill-rule="nonzero"/><path fill="#000000" fill-opacity="0.0" d="m590.0236 148.66405l31.118103 0.09448242" fill-rule="evenodd"/><path stroke="#000000" stroke-width="1.0" stroke-linejoin="round" stroke-linecap="butt" d="m590.0236 148.66405l25.118164 0.07626343" fill-rule="evenodd"/><path fill="#000000" stroke="#000000" stroke-width="1.0" stroke-linecap="butt" d="m615.1367 150.39204l4.543091 -1.6379547l-4.53302 -1.6654968z" fill-rule="evenodd"/><path fill="#000000" fill-opacity="0.0" d="m443.77454 278.44754l82.36218 -95.55905" fill-rule="evenodd"/><path stroke="#000000" stroke-width="1.0" stroke-linejoin="round" stroke-linecap="butt" d="m443.77454 278.44754l78.44501 -91.014206" fill-rule="evenodd"/><path fill="#000000" stroke="#000000" stroke-width="1.0" stroke-linecap="butt" d="m523.4707 188.51169l1.7116089 -4.5158386l-4.213928 2.3591309z" fill-rule="evenodd"/><path fill="#000000" fill-opacity="0.0" d="m337.92282 278.44882l-88.47243 -95.55905" fill-rule="evenodd"/><path stroke="#000000" stroke-width="1.0" stroke-linejoin="round" stroke-linecap="butt" d="m337.92285 278.44882l-84.39621 -91.15631" fill-rule="evenodd"/><path fill="#000000" stroke="#000000" stroke-width="1.0" stroke-linecap="butt" d="m254.73868 186.17036l-4.295105 -2.2078705l1.871048 4.4521637z" fill-rule="evenodd"/><path fill="#fff2cc" d="m468.979 74.66404l18.38321 0l0 0l27.574799 0l64.34119 0l0 17.72966l0 0l0 7.598427l0 5.065613l-64.34119 0l-27.574799 0l0 0l-18.38321 0l0 -5.065613l-80.38937 10.979012l80.38937 -18.577438z" fill-rule="evenodd"/><path stroke="#7f6000" stroke-width="1.0" stroke-linejoin="round" stroke-linecap="butt" d="m468.979 74.66404l18.38321 0l0 0l27.574799 0l64.34119 0l0 17.72966l0 0l0 7.598427l0 5.065613l-64.34119 0l-27.574799 0l0 0l-18.38321 0l0 -5.065613l-80.38937 10.979012l80.38937 -18.577438z" fill-rule="evenodd"/><path fill="#7f6000" d="m481.52588 85.00714l-2.109375 0l-0.59375 2.09375l-0.796875 0l2.25 -7.578125l0.4375 0l2.25 7.578125l-0.828125 0l-0.609375 -2.09375zm-1.890625 -0.703125l1.703125 0l-0.65625 -2.3125l-0.203125 -1.109375l-0.015625 0l-0.203125 1.140625l-0.625 2.28125zm5.3851013 -2.53125l0.65625 0l0 -1.0625l0.765625 -0.234375l0 1.296875l1.15625 0l0 0.6875l-1.15625 0l0 3.1875q0 0.46875 0.109375 0.671875q0.109375 0.203125 0.375 0.203125q0.203125 0 0.359375 -0.046875q0.15625 -0.046875 0.34375 -0.125l0.140625 0.609375q-0.234375 0.125 -0.515625 0.1875q-0.28125 0.078125 -0.59375 0.078125q-0.53125 0 -0.765625 -0.34375q-0.21875 -0.359375 -0.21875 -1.140625l0 -3.28125l-0.65625 0l0 -0.6875zm3.414856 0.3125q0.3125 -0.1875 0.75 -0.28125q0.4375 -0.109375 0.9375 -0.109375q0.4375 0 0.703125 0.140625q0.28125 0.125 0.4375 0.359375q0.15625 0.21875 0.203125 0.515625q0.046875 0.28125 0.046875 0.609375q0 0.640625 -0.03125 1.25q-0.015625 0.609375 -0.015625 1.140625q0 0.40625 0.015625 0.765625q0.03125 0.34375 0.109375 0.640625l-0.59375 0l-0.171875 -0.625l-0.046875 0q-0.15625 0.28125 -0.46875 0.484375q-0.3125 0.203125 -0.828125 0.203125q-0.578125 0 -0.953125 -0.390625q-0.359375 -0.40625 -0.359375 -1.109375q0 -0.46875 0.15625 -0.765625q0.15625 -0.3125 0.4375 -0.5q0.28125 -0.203125 0.65625 -0.28125q0.390625 -0.078125 0.875 -0.078125q0.109375 0 0.21875 0q0.109375 0 0.21875 0.015625q0.03125 -0.34375 0.03125 -0.59375q0 -0.609375 -0.1875 -0.84375q-0.171875 -0.25 -0.65625 -0.25q-0.296875 0 -0.65625 0.09375q-0.34375 0.078125 -0.578125 0.21875l-0.25 -0.609375zm2.3125 2.59375q-0.109375 -0.015625 -0.21875 -0.015625q-0.109375 -0.015625 -0.203125 -0.015625q-0.265625 0 -0.515625 0.046875q-0.234375 0.046875 -0.4375 0.15625q-0.1875 0.09375 -0.296875 0.28125q-0.109375 0.171875 -0.109375 0.453125q0 0.421875 0.203125 0.65625q0.21875 0.234375 0.546875 0.234375q0.4375 0 0.6875 -0.203125q0.25 -0.21875 0.34375 -0.46875l0 -1.125zm-0.75 -5.25l0.828125 0l0 0.21875l-0.875 1.375l-0.453125 0l0.5 -1.59375zm5.2469177 7.671875l0 -3.171875q0 -0.421875 -0.03125 -0.71875q-0.03125 -0.3125 -0.109375 -0.5q-0.078125 -0.1875 -0.234375 -0.28125q-0.15625 -0.09375 -0.390625 -0.09375q-0.359375 0 -0.625 0.28125q-0.25 0.28125 -0.34375 0.640625l0 3.84375l-0.765625 0l0 -5.328125l0.546875 0l0.140625 0.5625l0.03125 0q0.21875 -0.3125 0.53125 -0.5q0.3125 -0.1875 0.796875 -0.1875q0.390625 0 0.65625 0.171875q0.265625 0.171875 0.40625 0.625q0.203125 -0.375 0.546875 -0.578125q0.359375 -0.21875 0.796875 -0.21875q0.34375 0 0.59375 0.09375q0.25 0.078125 0.40625 0.3125q0.15625 0.234375 0.234375 0.609375q0.078125 0.375 0.078125 0.953125l0 3.484375l-0.78125 0l0 -3.390625q0 -0.6875 -0.140625 -1.03125q-0.125 -0.34375 -0.59375 -0.34375q-0.40625 0 -0.65625 0.25q-0.234375 0.25 -0.328125 0.671875l0 3.84375l-0.765625 0zm4.3904114 -5.015625q0.3125 -0.1875 0.75 -0.28125q0.4375 -0.109375 0.9375 -0.109375q0.4375 0 0.703125 0.140625q0.28125 0.125 0.4375 0.359375q0.15625 0.21875 0.203125 0.515625q0.046875 0.28125 0.046875 0.609375q0 0.640625 -0.03125 1.25q-0.015625 0.609375 -0.015625 1.140625q0 0.40625 0.015625 0.765625q0.03125 0.34375 0.109375 0.640625l-0.59375 0l-0.171875 -0.625l-0.046875 0q-0.15625 0.28125 -0.46875 0.484375q-0.3125 0.203125 -0.828125 0.203125q-0.578125 0 -0.953125 -0.390625q-0.359375 -0.40625 -0.359375 -1.109375q0 -0.46875 0.15625 -0.765625q0.15625 -0.3125 0.4375 -0.5q0.28125 -0.203125 0.65625 -0.28125q0.390625 -0.078125 0.875 -0.078125q0.109375 0 0.21875 0q0.109375 0 0.21875 0.015625q0.03125 -0.34375 0.03125 -0.59375q0 -0.609375 -0.1875 -0.84375q-0.171875 -0.25 -0.65625 -0.25q-0.296875 0 -0.65625 0.09375q-0.34375 0.078125 -0.578125 0.21875l-0.25 -0.609375zm2.3125 2.59375q-0.109375 -0.015625 -0.21875 -0.015625q-0.109375 -0.015625 -0.203125 -0.015625q-0.265625 0 -0.515625 0.046875q-0.234375 0.046875 -0.4375 0.15625q-0.1875 0.09375 -0.296875 0.28125q-0.109375 0.171875 -0.109375 0.453125q0 0.421875 0.203125 0.65625q0.21875 0.234375 0.546875 0.234375q0.4375 0 0.6875 -0.203125q0.25 -0.21875 0.34375 -0.46875l0 -1.125zm5.3562927 0.59375q0 0.53125 0 0.984375q0.015625 0.4375 0.09375 0.859375l-0.53125 0l-0.171875 -0.640625l-0.046875 0q-0.140625 0.328125 -0.46875 0.546875q-0.3125 0.203125 -0.765625 0.203125q-0.859375 0 -1.28125 -0.671875q-0.421875 -0.671875 -0.421875 -2.109375q0 -1.359375 0.515625 -2.0625q0.515625 -0.703125 1.421875 -0.703125q0.3125 0 0.484375 0.046875q0.1875 0.03125 0.40625 0.109375l0 -2.1875l0.765625 0l0 5.625zm-0.765625 -2.65625q-0.15625 -0.125 -0.34375 -0.1875q-0.171875 -0.0625 -0.484375 -0.0625q-0.5625 0 -0.890625 0.515625q-0.3125 0.515625 -0.3125 1.578125q0 0.46875 0.0625 0.84375q0.0625 0.375 0.1875 0.65625q0.125 0.28125 0.3125 0.4375q0.203125 0.140625 0.484375 0.140625q0.765625 0 0.984375 -0.90625l0 -3.015625zm1.7860718 1.8125q0 -1.4375 0.5 -2.109375q0.5 -0.671875 1.40625 -0.671875q0.984375 0 1.4375 0.6875q0.46875 0.6875 0.46875 2.09375q0 1.453125 -0.5 2.125q-0.5 0.671875 -1.40625 0.671875q-0.96875 0 -1.4375 -0.6875q-0.46875 -0.6875 -0.46875 -2.109375zm0.796875 0q0 0.484375 0.0625 0.875q0.0625 0.375 0.1875 0.65625q0.140625 0.265625 0.34375 0.421875q0.21875 0.15625 0.515625 0.15625q0.5625 0 0.828125 -0.5q0.28125 -0.5 0.28125 -1.609375q0 -0.453125 -0.0625 -0.84375q-0.046875 -0.390625 -0.1875 -0.65625q-0.125 -0.28125 -0.34375 -0.4375q-0.21875 -0.15625 -0.515625 -0.15625q-0.53125 0 -0.828125 0.5q-0.28125 0.5 -0.28125 1.59375zm0.953125 -5.0l0.828125 0l0 0.21875l-0.875 1.375l-0.453125 0l0.5 -1.59375zm8.284607 7.40625q-0.265625 0.203125 -0.609375 0.296875q-0.328125 0.09375 -0.703125 0.09375q-0.515625 0 -0.875 -0.1875q-0.34375 -0.203125 -0.5625 -0.5625q-0.21875 -0.375 -0.328125 -0.890625q-0.09375 -0.515625 -0.09375 -1.15625q0 -1.359375 0.484375 -2.0625q0.484375 -0.71875 1.390625 -0.71875q0.421875 0 0.71875 0.078125q0.296875 0.0625 0.515625 0.1875l-0.21875 0.671875q-0.421875 -0.25 -0.921875 -0.25q-0.578125 0 -0.875 0.515625q-0.296875 0.5 -0.296875 1.578125q0 0.4375 0.0625 0.828125q0.078125 0.390625 0.21875 0.671875q0.15625 0.28125 0.390625 0.453125q0.234375 0.15625 0.578125 0.15625q0.28125 0 0.515625 -0.09375q0.25 -0.09375 0.390625 -0.234375l0.21875 0.625zm0.77801514 -0.609375q0.203125 0.125 0.5 0.21875q0.296875 0.09375 0.609375 0.09375q0.34375 0 0.59375 -0.171875q0.25 -0.1875 0.25 -0.578125q0 -0.328125 -0.15625 -0.53125q-0.15625 -0.21875 -0.390625 -0.390625q-0.21875 -0.171875 -0.484375 -0.3125q-0.265625 -0.15625 -0.5 -0.34375q-0.21875 -0.203125 -0.375 -0.484375q-0.140625 -0.28125 -0.140625 -0.703125q0 -0.6875 0.359375 -1.03125q0.375 -0.34375 1.046875 -0.34375q0.4375 0 0.75 0.078125q0.328125 0.078125 0.5625 0.21875l-0.203125 0.640625q-0.203125 -0.109375 -0.46875 -0.171875q-0.265625 -0.078125 -0.546875 -0.078125q-0.390625 0 -0.5625 0.171875q-0.171875 0.15625 -0.171875 0.484375q0 0.265625 0.140625 0.453125q0.15625 0.1875 0.375 0.34375q0.234375 0.15625 0.5 0.328125q0.265625 0.15625 0.5 0.375q0.234375 0.21875 0.375 0.515625q0.15625 0.296875 0.15625 0.765625q0 0.296875 -0.109375 0.5625q-0.09375 0.265625 -0.296875 0.46875q-0.1875 0.1875 -0.484375 0.296875q-0.28125 0.125 -0.6875 0.125q-0.46875 0 -0.8125 -0.09375q-0.328125 -0.078125 -0.5625 -0.234375l0.234375 -0.671875zm3.6331177 -4.140625q0.3125 -0.1875 0.75 -0.28125q0.4375 -0.109375 0.9375 -0.109375q0.4375 0 0.703125 0.140625q0.28125 0.125 0.4375 0.359375q0.15625 0.21875 0.203125 0.515625q0.046875 0.28125 0.046875 0.609375q0 0.640625 -0.03125 1.25q-0.015625 0.609375 -0.015625 1.140625q0 0.40625 0.015625 0.765625q0.03125 0.34375 0.109375 0.640625l-0.59375 0l-0.171875 -0.625l-0.046875 0q-0.15625 0.28125 -0.46875 0.484375q-0.3125 0.203125 -0.828125 0.203125q-0.578125 0 -0.953125 -0.390625q-0.359375 -0.40625 -0.359375 -1.109375q0 -0.46875 0.15625 -0.765625q0.15625 -0.3125 0.4375 -0.5q0.28125 -0.203125 0.65625 -0.28125q0.390625 -0.078125 0.875 -0.078125q0.109375 0 0.21875 0q0.109375 0 0.21875 0.015625q0.03125 -0.34375 0.03125 -0.59375q0 -0.609375 -0.1875 -0.84375q-0.171875 -0.25 -0.65625 -0.25q-0.296875 0 -0.65625 0.09375q-0.34375 0.078125 -0.578125 0.21875l-0.25 -0.609375zm2.3125 2.59375q-0.109375 -0.015625 -0.21875 -0.015625q-0.109375 -0.015625 -0.203125 -0.015625q-0.265625 0 -0.515625 0.046875q-0.234375 0.046875 -0.4375 0.15625q-0.1875 0.09375 -0.296875 0.28125q-0.109375 0.171875 -0.109375 0.453125q0 0.421875 0.203125 0.65625q0.21875 0.234375 0.546875 0.234375q0.4375 0 0.6875 -0.203125q0.25 -0.21875 0.34375 -0.46875l0 -1.125zm3.1687622 0.03125l-0.40625 0l0 2.390625l-0.765625 0l0 -7.453125l0.765625 0l0 4.53125l0.359375 -0.140625l1.25 -2.265625l0.875 0l-1.25 2.15625l-0.375 0.34375l0.4375 0.40625l1.375 2.421875l-0.921875 0l-1.34375 -2.390625zm4.9191284 -2.625q0.3125 -0.1875 0.75 -0.28125q0.4375 -0.109375 0.9375 -0.109375q0.4375 0 0.703125 0.140625q0.28125 0.125 0.4375 0.359375q0.15625 0.21875 0.203125 0.515625q0.046875 0.28125 0.046875 0.609375q0 0.640625 -0.03125 1.25q-0.015625 0.609375 -0.015625 1.140625q0 0.40625 0.015625 0.765625q0.03125 0.34375 0.109375 0.640625l-0.59375 0l-0.171875 -0.625l-0.046875 0q-0.15625 0.28125 -0.46875 0.484375q-0.3125 0.203125 -0.828125 0.203125q-0.578125 0 -0.953125 -0.390625q-0.359375 -0.40625 -0.359375 -1.109375q0 -0.46875 0.15625 -0.765625q0.15625 -0.3125 0.4375 -0.5q0.28125 -0.203125 0.65625 -0.28125q0.390625 -0.078125 0.875 -0.078125q0.109375 0 0.21875 0q0.109375 0 0.21875 0.015625q0.03125 -0.34375 0.03125 -0.59375q0 -0.609375 -0.1875 -0.84375q-0.171875 -0.25 -0.65625 -0.25q-0.296875 0 -0.65625 0.09375q-0.34375 0.078125 -0.578125 0.21875l-0.25 -0.609375zm2.3125 2.59375q-0.109375 -0.015625 -0.21875 -0.015625q-0.109375 -0.015625 -0.203125 -0.015625q-0.265625 0 -0.515625 0.046875q-0.234375 0.046875 -0.4375 0.15625q-0.1875 0.09375 -0.296875 0.28125q-0.109375 0.171875 -0.109375 0.453125q0 0.421875 0.203125 0.65625q0.21875 0.234375 0.546875 0.234375q0.4375 0 0.6875 -0.203125q0.25 -0.21875 0.34375 -0.46875l0 -1.125z" fill-rule="nonzero"/><path fill="#7f6000" d="m478.07275 94.772766l0.65625 0l0 -1.0625l0.765625 -0.234375l0 1.296875l1.15625 0l0 0.6875l-1.15625 0l0 3.1875q0 0.46875 0.109375 0.671875q0.109375 0.203125 0.375 0.203125q0.203125 0 0.359375 -0.046875q0.15625 -0.046875 0.34375 -0.125l0.140625 0.609375q-0.234375 0.125 -0.515625 0.1875q-0.28125 0.078125 -0.59375 0.078125q-0.53125 0 -0.765625 -0.34375q-0.21875 -0.359375 -0.21875 -1.140625l0 -3.28125l-0.65625 0l0 -0.6875zm3.586731 0l0.78125 0l0 5.328125l-0.78125 0l0 -5.328125zm-0.125 -1.625q0 -0.25 0.140625 -0.40625q0.140625 -0.15625 0.375 -0.15625q0.234375 0 0.390625 0.15625q0.15625 0.140625 0.15625 0.40625q0 0.265625 -0.15625 0.40625q-0.15625 0.140625 -0.390625 0.140625q-0.234375 0 -0.375 -0.140625q-0.140625 -0.15625 -0.140625 -0.40625zm1.781189 1.625l0.65625 0l0 -1.0625l0.765625 -0.234375l0 1.296875l1.15625 0l0 0.6875l-1.15625 0l0 3.1875q0 0.46875 0.109375 0.671875q0.109375 0.203125 0.375 0.203125q0.203125 0 0.359375 -0.046875q0.15625 -0.046875 0.34375 -0.125l0.140625 0.609375q-0.234375 0.125 -0.515625 0.1875q-0.28125 0.078125 -0.59375 0.078125q-0.53125 0 -0.765625 -0.34375q-0.21875 -0.359375 -0.21875 -1.140625l0 -3.28125l-0.65625 0l0 -0.6875zm4.633606 2.9375l-0.40625 0l0 2.390625l-0.765625 0l0 -7.453125l0.765625 0l0 4.53125l0.359375 -0.140625l1.25 -2.265625l0.875 0l-1.25 2.15625l-0.375 0.34375l0.4375 0.40625l1.375 2.421875l-0.921875 0l-1.34375 -2.390625zm2.6217651 -0.28125q0 -1.4375 0.5 -2.109375q0.5 -0.671875 1.40625 -0.671875q0.984375 0 1.4375 0.6875q0.46875 0.6875 0.46875 2.09375q0 1.453125 -0.5 2.125q-0.5 0.671875 -1.40625 0.671875q-0.96875 0 -1.4375 -0.6875q-0.46875 -0.6875 -0.46875 -2.109375zm0.796875 0q0 0.484375 0.0625 0.875q0.0625 0.375 0.1875 0.65625q0.140625 0.265625 0.34375 0.421875q0.21875 0.15625 0.515625 0.15625q0.5625 0 0.828125 -0.5q0.28125 -0.5 0.28125 -1.609375q0 -0.453125 -0.0625 -0.84375q-0.046875 -0.390625 -0.1875 -0.65625q-0.125 -0.28125 -0.34375 -0.4375q-0.21875 -0.15625 -0.515625 -0.15625q-0.53125 0 -0.828125 0.5q-0.28125 0.5 -0.28125 1.59375zm3.9629211 1.796875q0.203125 0.125 0.5 0.21875q0.296875 0.09375 0.609375 0.09375q0.34375 0 0.59375 -0.171875q0.25 -0.1875 0.25 -0.578125q0 -0.328125 -0.15625 -0.53125q-0.15625 -0.21875 -0.390625 -0.390625q-0.21875 -0.171875 -0.484375 -0.3125q-0.265625 -0.15625 -0.5 -0.34375q-0.21875 -0.203125 -0.375 -0.484375q-0.140625 -0.28125 -0.140625 -0.703125q0 -0.6875 0.359375 -1.03125q0.375 -0.34375 1.046875 -0.34375q0.4375 0 0.75 0.078125q0.328125 0.078125 0.5625 0.21875l-0.203125 0.640625q-0.203125 -0.109375 -0.46875 -0.171875q-0.265625 -0.078125 -0.546875 -0.078125q-0.390625 0 -0.5625 0.171875q-0.171875 0.15625 -0.171875 0.484375q0 0.265625 0.140625 0.453125q0.15625 0.1875 0.375 0.34375q0.234375 0.15625 0.5 0.328125q0.265625 0.15625 0.5 0.375q0.234375 0.21875 0.375 0.515625q0.15625 0.296875 0.15625 0.765625q0 0.296875 -0.109375 0.5625q-0.09375 0.265625 -0.296875 0.46875q-0.1875 0.1875 -0.484375 0.296875q-0.28125 0.125 -0.6875 0.125q-0.46875 0 -0.8125 -0.09375q-0.328125 -0.078125 -0.5625 -0.234375l0.234375 -0.671875zm3.8205872 -4.453125l0.765625 0l0 5.328125l-0.765625 0l0 -5.328125zm0.375 -2.34375l0.828125 0l0 0.21875l-0.875 1.375l-0.453125 0l0.5 -1.59375zm1.265564 2.34375l0.65625 0l0 -1.0625l0.765625 -0.234375l0 1.296875l1.15625 0l0 0.6875l-1.15625 0l0 3.1875q0 0.46875 0.109375 0.671875q0.109375 0.203125 0.375 0.203125q0.203125 0 0.359375 -0.046875q0.15625 -0.046875 0.34375 -0.125l0.140625 0.609375q-0.234375 0.125 -0.515625 0.1875q-0.28125 0.078125 -0.59375 0.078125q-0.53125 0 -0.765625 -0.34375q-0.21875 -0.359375 -0.21875 -1.140625l0 -3.28125l-0.65625 0l0 -0.6875zm3.1420288 2.65625q0 -1.4375 0.5 -2.109375q0.5 -0.671875 1.40625 -0.671875q0.984375 0 1.4375 0.6875q0.46875 0.6875 0.46875 2.09375q0 1.453125 -0.5 2.125q-0.5 0.671875 -1.40625 0.671875q-0.96875 0 -1.4375 -0.6875q-0.46875 -0.6875 -0.46875 -2.109375zm0.796875 0q0 0.484375 0.0625 0.875q0.0625 0.375 0.1875 0.65625q0.140625 0.265625 0.34375 0.421875q0.21875 0.15625 0.515625 0.15625q0.5625 0 0.828125 -0.5q0.28125 -0.5 0.28125 -1.609375q0 -0.453125 -0.0625 -0.84375q-0.046875 -0.390625 -0.1875 -0.65625q-0.125 -0.28125 -0.34375 -0.4375q-0.21875 -0.15625 -0.515625 -0.15625q-0.53125 0 -0.828125 0.5q-0.28125 0.5 -0.28125 1.59375zm3.5097961 -2.65625l0.65625 0l0 -1.0625l0.765625 -0.234375l0 1.296875l1.15625 0l0 0.6875l-1.15625 0l0 3.1875q0 0.46875 0.109375 0.671875q0.109375 0.203125 0.375 0.203125q0.203125 0 0.359375 -0.046875q0.15625 -0.046875 0.34375 -0.125l0.140625 0.609375q-0.234375 0.125 -0.515625 0.1875q-0.28125 0.078125 -0.59375 0.078125q-0.53125 0 -0.765625 -0.34375q-0.21875 -0.359375 -0.21875 -1.140625l0 -3.28125l-0.65625 0l0 -0.6875zm2.9305115 0l0.65625 0l0 -1.0625l0.765625 -0.234375l0 1.296875l1.15625 0l0 0.6875l-1.15625 0l0 3.1875q0 0.46875 0.109375 0.671875q0.109375 0.203125 0.375 0.203125q0.203125 0 0.359375 -0.046875q0.15625 -0.046875 0.34375 -0.125l0.140625 0.609375q-0.234375 0.125 -0.515625 0.1875q-0.28125 0.078125 -0.59375 0.078125q-0.53125 0 -0.765625 -0.34375q-0.21875 -0.359375 -0.21875 -1.140625l0 -3.28125l-0.65625 0l0 -0.6875zm6.424011 0l0 3.265625q0 0.8125 0.15625 1.15625q0.171875 0.34375 0.609375 0.34375q0.21875 0 0.390625 -0.09375q0.1875 -0.09375 0.3125 -0.234375q0.140625 -0.15625 0.25 -0.34375q0.109375 -0.1875 0.171875 -0.390625l0 -3.703125l0.765625 0l0 3.8125q0 0.390625 0.015625 0.796875q0.03125 0.40625 0.09375 0.71875l-0.546875 0l-0.1875 -0.75l-0.03125 0q-0.1875 0.359375 -0.53125 0.625q-0.328125 0.25 -0.84375 0.25q-0.34375 0 -0.609375 -0.09375q-0.25 -0.078125 -0.4375 -0.296875q-0.171875 -0.21875 -0.265625 -0.609375q-0.09375 -0.390625 -0.09375 -1.0l0 -3.453125l0.78125 0zm-0.6875 -1.625q0 -0.25 0.125 -0.390625q0.125 -0.140625 0.328125 -0.140625q0.21875 0 0.34375 0.140625q0.125 0.140625 0.125 0.390625q0 0.21875 -0.125 0.359375q-0.125 0.140625 -0.34375 0.140625q-0.203125 0 -0.328125 -0.140625q-0.125 -0.140625 -0.125 -0.359375zm1.6875 0q0 -0.25 0.125 -0.390625q0.125 -0.140625 0.34375 -0.140625q0.203125 0 0.328125 0.140625q0.125 0.140625 0.125 0.390625q0 0.21875 -0.125 0.359375q-0.125 0.140625 -0.328125 0.140625q-0.21875 0 -0.34375 -0.140625q-0.125 -0.140625 -0.125 -0.359375zm2.640503 6.265625l1.984375 -3.484375l0.375 -0.46875l-2.359375 0l0 -0.6875l3.109375 0l0 0.6875l-2.0 3.515625l-0.359375 0.4375l2.359375 0l0 0.6875l-3.109375 0l0 -0.6875zm7.177002 0.328125q-0.25 0.234375 -0.65625 0.359375q-0.390625 0.125 -0.828125 0.125q-0.5 0 -0.875 -0.1875q-0.359375 -0.203125 -0.59375 -0.5625q-0.234375 -0.375 -0.359375 -0.890625q-0.109375 -0.515625 -0.109375 -1.15625q0 -1.359375 0.5 -2.0625q0.5 -0.71875 1.421875 -0.71875q0.296875 0 0.59375 0.078125q0.296875 0.0625 0.53125 0.296875q0.234375 0.21875 0.375 0.625q0.140625 0.40625 0.140625 1.046875q0 0.1875 -0.015625 0.40625q-0.015625 0.203125 -0.03125 0.421875l-2.71875 0q0 0.453125 0.078125 0.828125q0.078125 0.375 0.234375 0.640625q0.15625 0.25 0.40625 0.40625q0.25 0.140625 0.625 0.140625q0.296875 0 0.578125 -0.109375q0.28125 -0.109375 0.421875 -0.25l0.28125 0.5625zm-0.59375 -2.859375q0.015625 -0.796875 -0.234375 -1.171875q-0.234375 -0.375 -0.65625 -0.375q-0.5 0 -0.796875 0.375q-0.28125 0.375 -0.328125 1.171875l2.015625 0zm4.541748 3.21875l0 -3.25q0 -0.796875 -0.1875 -1.15625q-0.1875 -0.359375 -0.671875 -0.359375q-0.421875 0 -0.703125 0.265625q-0.265625 0.25 -0.40625 0.625l0 3.875l-0.765625 0l0 -5.328125l0.5625 0l0.140625 0.5625l0.03125 0q0.203125 -0.28125 0.546875 -0.484375q0.34375 -0.203125 0.828125 -0.203125q0.328125 0 0.59375 0.09375q0.265625 0.09375 0.4375 0.328125q0.171875 0.21875 0.265625 0.609375q0.09375 0.390625 0.09375 0.96875l0 3.453125l-0.765625 0zm5.1312256 -0.359375q-0.25 0.234375 -0.65625 0.359375q-0.390625 0.125 -0.828125 0.125q-0.5 0 -0.875 -0.1875q-0.359375 -0.203125 -0.59375 -0.5625q-0.234375 -0.375 -0.359375 -0.890625q-0.109375 -0.515625 -0.109375 -1.15625q0 -1.359375 0.5 -2.0625q0.5 -0.71875 1.421875 -0.71875q0.296875 0 0.59375 0.078125q0.296875 0.0625 0.53125 0.296875q0.234375 0.21875 0.375 0.625q0.140625 0.40625 0.140625 1.046875q0 0.1875 -0.015625 0.40625q-0.015625 0.203125 -0.03125 0.421875l-2.71875 0q0 0.453125 0.078125 0.828125q0.078125 0.375 0.234375 0.640625q0.15625 0.25 0.40625 0.40625q0.25 0.140625 0.625 0.140625q0.296875 0 0.578125 -0.109375q0.28125 -0.109375 0.421875 -0.25l0.28125 0.5625zm-0.59375 -2.859375q0.015625 -0.796875 -0.234375 -1.171875q-0.234375 -0.375 -0.65625 -0.375q-0.5 0 -0.796875 0.375q-0.28125 0.375 -0.328125 1.171875l2.015625 0zm1.276123 -2.109375l0.65625 0l0 -1.0625l0.765625 -0.234375l0 1.296875l1.15625 0l0 0.6875l-1.15625 0l0 3.1875q0 0.46875 0.109375 0.671875q0.109375 0.203125 0.375 0.203125q0.203125 0 0.359375 -0.046875q0.15625 -0.046875 0.34375 -0.125l0.140625 0.609375q-0.234375 0.125 -0.515625 0.1875q-0.28125 0.078125 -0.59375 0.078125q-0.53125 0 -0.765625 -0.34375q-0.21875 -0.359375 -0.21875 -1.140625l0 -3.28125l-0.65625 0l0 -0.6875zm6.563904 4.96875q-0.25 0.234375 -0.65625 0.359375q-0.390625 0.125 -0.828125 0.125q-0.5 0 -0.875 -0.1875q-0.359375 -0.203125 -0.59375 -0.5625q-0.234375 -0.375 -0.359375 -0.890625q-0.109375 -0.515625 -0.109375 -1.15625q0 -1.359375 0.5 -2.0625q0.5 -0.71875 1.421875 -0.71875q0.296875 0 0.59375 0.078125q0.296875 0.0625 0.53125 0.296875q0.234375 0.21875 0.375 0.625q0.140625 0.40625 0.140625 1.046875q0 0.1875 -0.015625 0.40625q-0.015625 0.203125 -0.03125 0.421875l-2.71875 0q0 0.453125 0.078125 0.828125q0.078125 0.375 0.234375 0.640625q0.15625 0.25 0.40625 0.40625q0.25 0.140625 0.625 0.140625q0.296875 0 0.578125 -0.109375q0.28125 -0.109375 0.421875 -0.25l0.28125 0.5625zm-0.59375 -2.859375q0.015625 -0.796875 -0.234375 -1.171875q-0.234375 -0.375 -0.65625 -0.375q-0.5 0 -0.796875 0.375q-0.28125 0.375 -0.328125 1.171875l2.015625 0zm1.276062 -2.109375l0.65625 0l0 -1.0625l0.765625 -0.234375l0 1.296875l1.15625 0l0 0.6875l-1.15625 0l0 3.1875q0 0.46875 0.109375 0.671875q0.109375 0.203125 0.375 0.203125q0.203125 0 0.359375 -0.046875q0.15625 -0.046875 0.34375 -0.125l0.140625 0.609375q-0.234375 0.125 -0.515625 0.1875q-0.28125 0.078125 -0.59375 0.078125q-0.53125 0 -0.765625 -0.34375q-0.21875 -0.359375 -0.21875 -1.140625l0 -3.28125l-0.65625 0l0 -0.6875zm6.549011 4.0625q0 0.375 0.09375 0.53125q0.109375 0.15625 0.28125 0.15625q0.234375 0 0.53125 -0.109375l0.0625 0.609375q-0.125 0.09375 -0.375 0.140625q-0.25 0.0625 -0.453125 0.0625q-0.40625 0 -0.65625 -0.25q-0.25 -0.265625 -0.25 -0.890625l0 -6.4375l0.765625 0l0 6.1875zm1.6079712 -3.75q0.3125 -0.1875 0.75 -0.28125q0.4375 -0.109375 0.9375 -0.109375q0.4375 0 0.703125 0.140625q0.28125 0.125 0.4375 0.359375q0.15625 0.21875 0.203125 0.515625q0.046875 0.28125 0.046875 0.609375q0 0.640625 -0.03125 1.25q-0.015625 0.609375 -0.015625 1.140625q0 0.40625 0.015625 0.765625q0.03125 0.34375 0.109375 0.640625l-0.59375 0l-0.171875 -0.625l-0.046875 0q-0.15625 0.28125 -0.46875 0.484375q-0.3125 0.203125 -0.828125 0.203125q-0.578125 0 -0.953125 -0.390625q-0.359375 -0.40625 -0.359375 -1.109375q0 -0.46875 0.15625 -0.765625q0.15625 -0.3125 0.4375 -0.5q0.28125 -0.203125 0.65625 -0.28125q0.390625 -0.078125 0.875 -0.078125q0.109375 0 0.21875 0q0.109375 0 0.21875 0.015625q0.03125 -0.34375 0.03125 -0.59375q0 -0.609375 -0.1875 -0.84375q-0.171875 -0.25 -0.65625 -0.25q-0.296875 0 -0.65625 0.09375q-0.34375 0.078125 -0.578125 0.21875l-0.25 -0.609375zm2.3125 2.59375q-0.109375 -0.015625 -0.21875 -0.015625q-0.109375 -0.015625 -0.203125 -0.015625q-0.265625 0 -0.515625 0.046875q-0.234375 0.046875 -0.4375 0.15625q-0.1875 0.09375 -0.296875 0.28125q-0.109375 0.171875 -0.109375 0.453125q0 0.421875 0.203125 0.65625q0.21875 0.234375 0.546875 0.234375q0.4375 0 0.6875 -0.203125q0.25 -0.21875 0.34375 -0.46875l0 -1.125zm-0.75 -5.25l0.828125 0l0 0.21875l-0.875 1.375l-0.453125 0l0.5 -1.59375zm2.2156372 2.34375l0.65625 0l0 -1.0625l0.765625 -0.234375l0 1.296875l1.15625 0l0 0.6875l-1.15625 0l0 3.1875q0 0.46875 0.109375 0.671875q0.109375 0.203125 0.375 0.203125q0.203125 0 0.359375 -0.046875q0.15625 -0.046875 0.34375 -0.125l0.140625 0.609375q-0.234375 0.125 -0.515625 0.1875q-0.28125 0.078125 -0.59375 0.078125q-0.53125 0 -0.765625 -0.34375q-0.21875 -0.359375 -0.21875 -1.140625l0 -3.28125l-0.65625 0l0 -0.6875zm3.602356 0l0.765625 0l0 5.609375q0 1.109375 -0.359375 1.59375q-0.34375 0.484375 -1.125 0.359375l0 -0.6875q0.234375 0 0.375 -0.09375q0.140625 -0.09375 0.21875 -0.296875q0.078125 -0.203125 0.09375 -0.5q0.03125 -0.28125 0.03125 -0.671875l0 -5.3125zm-0.140625 -1.625q0 -0.25 0.140625 -0.40625q0.140625 -0.15625 0.375 -0.15625q0.234375 0 0.390625 0.15625q0.15625 0.140625 0.15625 0.40625q0 0.265625 -0.15625 0.40625q-0.15625 0.140625 -0.390625 0.140625q-0.234375 0 -0.375 -0.140625q-0.140625 -0.15625 -0.140625 -0.40625zm2.2442627 1.9375q0.3125 -0.1875 0.75 -0.28125q0.4375 -0.109375 0.9375 -0.109375q0.4375 0 0.703125 0.140625q0.28125 0.125 0.4375 0.359375q0.15625 0.21875 0.203125 0.515625q0.046875 0.28125 0.046875 0.609375q0 0.640625 -0.03125 1.25q-0.015625 0.609375 -0.015625 1.140625q0 0.40625 0.015625 0.765625q0.03125 0.34375 0.109375 0.640625l-0.59375 0l-0.171875 -0.625l-0.046875 0q-0.15625 0.28125 -0.46875 0.484375q-0.3125 0.203125 -0.828125 0.203125q-0.578125 0 -0.953125 -0.390625q-0.359375 -0.40625 -0.359375 -1.109375q0 -0.46875 0.15625 -0.765625q0.15625 -0.3125 0.4375 -0.5q0.28125 -0.203125 0.65625 -0.28125q0.390625 -0.078125 0.875 -0.078125q0.109375 0 0.21875 0q0.109375 0 0.21875 0.015625q0.03125 -0.34375 0.03125 -0.59375q0 -0.609375 -0.1875 -0.84375q-0.171875 -0.25 -0.65625 -0.25q-0.296875 0 -0.65625 0.09375q-0.34375 0.078125 -0.578125 0.21875l-0.25 -0.609375zm2.3125 2.59375q-0.109375 -0.015625 -0.21875 -0.015625q-0.109375 -0.015625 -0.203125 -0.015625q-0.265625 0 -0.515625 0.046875q-0.234375 0.046875 -0.4375 0.15625q-0.1875 0.09375 -0.296875 0.28125q-0.109375 0.171875 -0.109375 0.453125q0 0.421875 0.203125 0.65625q0.21875 0.234375 0.546875 0.234375q0.4375 0 0.6875 -0.203125q0.25 -0.21875 0.34375 -0.46875l0 -1.125z" fill-rule="nonzero"/><path fill="#f4cccc" d="m405.66272 278.44754l76.22363 0l0 36.294373c-38.111816 0 -38.111816 13.828827 -76.22363 5.971527z" fill-rule="evenodd"/><path stroke="#660000" stroke-width="1.0" stroke-linejoin="round" stroke-linecap="butt" d="m405.66272 278.44754l76.22363 0l0 36.294373c-38.111816 0 -38.111816 13.828827 -76.22363 5.971527z" fill-rule="evenodd"/><path fill="#660000" d="m428.98178 281.861q0.5 -0.140625 1.078125 -0.1875q0.578125 -0.046875 1.140625 -0.046875q0.640625 0 1.265625 0.140625q0.625 0.140625 1.125 0.53125q0.5 0.390625 0.8125 1.0625q0.3125 0.671875 0.3125 1.703125q0 1.015625 -0.296875 1.71875q-0.296875 0.703125 -0.78125 1.140625q-0.484375 0.4375 -1.125 0.640625q-0.625 0.203125 -1.296875 0.203125q-0.0625 0 -0.21875 0q-0.140625 0 -0.296875 0q-0.15625 -0.015625 -0.3125 -0.03125q-0.15625 -0.015625 -0.21875 -0.03125l0 4.25l-1.1875 0l0 -11.09375zm2.28125 0.875q-0.328125 0 -0.625 0.03125q-0.28125 0.015625 -0.46875 0.0625l0 4.765625q0.0625 0.03125 0.203125 0.046875q0.140625 0 0.28125 0.015625q0.140625 0 0.28125 0q0.140625 0 0.203125 0q0.4375 0 0.859375 -0.109375q0.421875 -0.109375 0.734375 -0.40625q0.328125 -0.296875 0.515625 -0.796875q0.203125 -0.515625 0.203125 -1.28125q0 -0.671875 -0.1875 -1.109375q-0.171875 -0.453125 -0.46875 -0.71875q-0.296875 -0.28125 -0.703125 -0.390625q-0.390625 -0.109375 -0.828125 -0.109375zm4.4089966 2.21875l0.828125 0l0.203125 0.84375l0.046875 0q0.21875 -0.453125 0.578125 -0.71875q0.359375 -0.265625 0.875 -0.265625q0.375 0 0.828125 0.140625l-0.21875 1.171875q-0.421875 -0.140625 -0.734375 -0.140625q-0.515625 0 -0.84375 0.296875q-0.3125 0.28125 -0.40625 0.78125l0 5.890625l-1.15625 0l0 -8.0zm4.5871277 0l1.140625 0l0 8.0l-1.140625 0l0 -8.0zm-0.21875 -2.4375q0 -0.375 0.21875 -0.609375q0.21875 -0.25 0.578125 -0.25q0.34375 0 0.578125 0.234375q0.234375 0.234375 0.234375 0.625q0 0.390625 -0.234375 0.609375q-0.234375 0.21875 -0.578125 0.21875q-0.359375 0 -0.578125 -0.21875q-0.21875 -0.234375 -0.21875 -0.609375zm5.4251404 7.125l0.328125 1.578125l0.03125 0l0.28125 -1.609375l1.40625 -4.65625l1.21875 0l-2.734375 8.171875l-0.5625 0l-2.78125 -8.171875l1.3125 0l1.5 4.6875zm4.192383 -4.203125q0.46875 -0.296875 1.125 -0.453125q0.671875 -0.15625 1.40625 -0.15625q0.671875 0 1.078125 0.203125q0.40625 0.1875 0.640625 0.53125q0.234375 0.34375 0.296875 0.796875q0.078125 0.4375 0.078125 0.90625q0 0.96875 -0.046875 1.890625q-0.03125 0.90625 -0.03125 1.71875q0 0.609375 0.03125 1.125q0.046875 0.515625 0.15625 0.984375l-0.875 0l-0.265625 -0.9375l-0.0625 0q-0.25 0.40625 -0.71875 0.71875q-0.453125 0.296875 -1.234375 0.296875q-0.875 0 -1.421875 -0.59375q-0.546875 -0.609375 -0.546875 -1.65625q0 -0.6875 0.21875 -1.15625q0.234375 -0.46875 0.65625 -0.75q0.4375 -0.296875 1.015625 -0.40625q0.578125 -0.125 1.296875 -0.125q0.171875 0 0.328125 0q0.15625 0 0.328125 0.015625q0.0625 -0.5 0.0625 -0.875q0 -0.921875 -0.28125 -1.28125q-0.265625 -0.375 -0.984375 -0.375q-0.453125 0 -0.984375 0.140625q-0.53125 0.140625 -0.875 0.34375l-0.390625 -0.90625zm3.484375 3.875q-0.171875 -0.015625 -0.328125 -0.03125q-0.15625 -0.015625 -0.3125 -0.015625q-0.390625 0 -0.765625 0.078125q-0.359375 0.0625 -0.65625 0.21875q-0.28125 0.15625 -0.453125 0.4375q-0.171875 0.265625 -0.171875 0.6875q0 0.640625 0.3125 1.0q0.3125 0.34375 0.8125 0.34375q0.671875 0 1.03125 -0.3125q0.375 -0.328125 0.53125 -0.71875l0 -1.6875zm-1.625 -7.875l1.234375 0l0 0.328125l-1.3125 2.046875l-0.6875 0l0.765625 -2.375zm3.821869 3.515625l0.984375 0l0 -1.578125l1.140625 -0.375l0 1.953125l1.734375 0l0 1.046875l-1.734375 0l0 4.765625q0 0.703125 0.171875 1.015625q0.171875 0.3125 0.546875 0.3125q0.328125 0 0.5625 -0.078125q0.234375 -0.078125 0.5 -0.1875l0.21875 0.921875q-0.34375 0.171875 -0.765625 0.265625q-0.421875 0.109375 -0.890625 0.109375q-0.796875 0 -1.140625 -0.515625q-0.34375 -0.515625 -0.34375 -1.6875l0 -4.921875l-0.984375 0l0 -1.046875z" fill-rule="nonzero"/><path fill="#660000" d="m431.90738 306.76724l-0.578125 0l0 5.1875l-1.1875 0l0 -11.203125l1.1875 0l0 5.21875l0.5625 -0.21875l2.921875 -5.0l1.375 0l-2.9375 4.828125l-0.5625 0.515625l0.65625 0.640625l3.25 5.21875l-1.515625 0l-3.171875 -5.1875zm6.7395325 -2.8125l0 4.890625q0 1.21875 0.25 1.75q0.25 0.515625 0.90625 0.515625q0.328125 0 0.59375 -0.140625q0.265625 -0.140625 0.46875 -0.359375q0.21875 -0.21875 0.375 -0.5q0.15625 -0.296875 0.25 -0.609375l0 -5.546875l1.15625 0l0 5.734375q0 0.5625 0.03125 1.1875q0.046875 0.609375 0.125 1.078125l-0.8125 0l-0.28125 -1.125l-0.0625 0q-0.265625 0.53125 -0.78125 0.921875q-0.5 0.390625 -1.28125 0.390625q-0.5 0 -0.890625 -0.125q-0.390625 -0.125 -0.65625 -0.453125q-0.265625 -0.34375 -0.40625 -0.921875q-0.140625 -0.59375 -0.140625 -1.5l0 -5.1875l1.15625 0zm7.1315002 6.09375q0 0.5625 0.15625 0.8125q0.15625 0.234375 0.421875 0.234375q0.34375 0 0.78125 -0.1875l0.109375 0.9375q-0.203125 0.125 -0.578125 0.203125q-0.375 0.078125 -0.671875 0.078125q-0.609375 0 -0.984375 -0.375q-0.375 -0.375 -0.375 -1.3125l0 -9.6875l1.140625 0l0 9.296875zm6.9155273 1.5q-0.40625 0.3125 -0.921875 0.453125q-0.5 0.140625 -1.0625 0.140625q-0.765625 0 -1.296875 -0.296875q-0.53125 -0.296875 -0.859375 -0.84375q-0.328125 -0.546875 -0.484375 -1.328125q-0.140625 -0.78125 -0.140625 -1.71875q0 -2.046875 0.71875 -3.109375q0.734375 -1.078125 2.09375 -1.078125q0.625 0 1.0625 0.109375q0.453125 0.109375 0.78125 0.28125l-0.328125 1.015625q-0.640625 -0.375 -1.390625 -0.375q-0.859375 0 -1.296875 0.765625q-0.4375 0.765625 -0.4375 2.390625q0 0.65625 0.09375 1.234375q0.09375 0.578125 0.3125 1.0q0.234375 0.421875 0.578125 0.671875q0.359375 0.25 0.875 0.25q0.421875 0 0.78125 -0.140625q0.359375 -0.15625 0.59375 -0.34375l0.328125 0.921875zm1.1491394 -0.90625q0.328125 0.1875 0.765625 0.328125q0.4375 0.140625 0.90625 0.140625q0.53125 0 0.890625 -0.265625q0.375 -0.265625 0.375 -0.859375q0 -0.5 -0.234375 -0.8125q-0.21875 -0.328125 -0.5625 -0.578125q-0.34375 -0.25 -0.75 -0.46875q-0.390625 -0.21875 -0.734375 -0.515625q-0.34375 -0.3125 -0.578125 -0.71875q-0.21875 -0.421875 -0.21875 -1.0625q0 -1.03125 0.546875 -1.546875q0.5625 -0.515625 1.5625 -0.515625q0.65625 0 1.140625 0.125q0.484375 0.109375 0.828125 0.3125l-0.296875 0.96875q-0.3125 -0.15625 -0.71875 -0.265625q-0.390625 -0.109375 -0.8125 -0.109375q-0.5625 0 -0.828125 0.25q-0.265625 0.234375 -0.265625 0.75q0 0.390625 0.21875 0.671875q0.21875 0.28125 0.5625 0.515625q0.34375 0.234375 0.75 0.484375q0.40625 0.234375 0.75 0.5625q0.34375 0.328125 0.5625 0.78125q0.21875 0.453125 0.21875 1.140625q0 0.453125 -0.140625 0.859375q-0.140625 0.390625 -0.4375 0.6875q-0.296875 0.296875 -0.734375 0.46875q-0.4375 0.171875 -1.03125 0.171875q-0.703125 0 -1.21875 -0.140625q-0.515625 -0.125 -0.859375 -0.34375l0.34375 -1.015625z" fill-rule="nonzero"/><path fill="#f4cccc" d="m299.81104 278.44882l76.2236 0l0 36.294373c-38.111816 0 -38.111816 13.828796 -76.2236 5.971527z" fill-rule="evenodd"/><path stroke="#660000" stroke-width="1.0" stroke-linejoin="round" stroke-linecap="butt" d="m299.81104 278.44882l76.2236 0l0 36.294373c-38.111816 0 -38.111816 13.828796 -76.2236 5.971527z" fill-rule="evenodd"/><path fill="#660000" d="m315.73804 281.86224q0.5 -0.140625 1.078125 -0.1875q0.578125 -0.046875 1.140625 -0.046875q0.640625 0 1.265625 0.140625q0.625 0.140625 1.125 0.53125q0.5 0.390625 0.8125 1.0625q0.3125 0.671875 0.3125 1.703125q0 1.015625 -0.296875 1.71875q-0.296875 0.703125 -0.78125 1.140625q-0.484375 0.4375 -1.125 0.640625q-0.625 0.203125 -1.296875 0.203125q-0.0625 0 -0.21875 0q-0.140625 0 -0.296875 0q-0.15625 -0.015625 -0.3125 -0.03125q-0.15625 -0.015625 -0.21875 -0.03125l0 4.25l-1.1875 0l0 -11.09375zm2.28125 0.875q-0.328125 0 -0.625 0.03125q-0.28125 0.015625 -0.46875 0.0625l0 4.765625q0.0625 0.03125 0.203125 0.046875q0.140625 0 0.28125 0.015625q0.140625 0 0.28125 0q0.140625 0 0.203125 0q0.4375 0 0.859375 -0.109375q0.421875 -0.109375 0.734375 -0.40625q0.328125 -0.296875 0.515625 -0.796875q0.203125 -0.515625 0.203125 -1.28125q0 -0.671875 -0.1875 -1.109375q-0.171875 -0.453125 -0.46875 -0.71875q-0.296875 -0.28125 -0.703125 -0.390625q-0.390625 -0.109375 -0.828125 -0.109375zm5.455902 2.21875l0 4.890625q0 1.21875 0.25 1.75q0.25 0.515625 0.90625 0.515625q0.328125 0 0.59375 -0.140625q0.265625 -0.140625 0.46875 -0.359375q0.21875 -0.21875 0.375 -0.5q0.15625 -0.296875 0.25 -0.609375l0 -5.546875l1.15625 0l0 5.734375q0 0.5625 0.03125 1.1875q0.046875 0.609375 0.125 1.078125l-0.8125 0l-0.28125 -1.125l-0.0625 0q-0.265625 0.53125 -0.78125 0.921875q-0.5 0.390625 -1.28125 0.390625q-0.5 0 -0.890625 -0.125q-0.390625 -0.125 -0.65625 -0.453125q-0.265625 -0.34375 -0.40625 -0.921875q-0.140625 -0.59375 -0.140625 -1.5l0 -5.1875l1.15625 0zm5.8971252 -3.203125l1.15625 0l0 3.8125l0.046875 0q0.65625 -0.796875 1.75 -0.796875q1.234375 0 1.84375 0.984375q0.625 0.96875 0.625 3.078125q0 2.15625 -0.828125 3.21875q-0.828125 1.046875 -2.328125 1.046875q-0.734375 0 -1.34375 -0.15625q-0.609375 -0.171875 -0.921875 -0.40625l0 -10.78125zm1.15625 10.03125q0.21875 0.125 0.546875 0.203125q0.328125 0.078125 0.703125 0.078125q0.828125 0 1.3125 -0.796875q0.5 -0.796875 0.5 -2.4375q0 -0.6875 -0.09375 -1.234375q-0.09375 -0.5625 -0.28125 -0.953125q-0.171875 -0.40625 -0.46875 -0.625q-0.296875 -0.21875 -0.71875 -0.21875q-0.5625 0 -0.953125 0.34375q-0.375 0.34375 -0.546875 0.9375l0 4.703125zm7.022156 -0.734375q0 0.5625 0.15625 0.8125q0.15625 0.234375 0.421875 0.234375q0.34375 0 0.78125 -0.1875l0.109375 0.9375q-0.203125 0.125 -0.578125 0.203125q-0.375 0.078125 -0.671875 0.078125q-0.609375 0 -0.984375 -0.375q-0.375 -0.375 -0.375 -1.3125l0 -9.6875l1.140625 0l0 9.296875zm2.6967468 -6.09375l1.140625 0l0 8.0l-1.140625 0l0 -8.0zm-0.21875 -2.4375q0 -0.375 0.21875 -0.609375q0.21875 -0.25 0.578125 -0.25q0.34375 0 0.578125 0.234375q0.234375 0.234375 0.234375 0.625q0 0.390625 -0.234375 0.609375q-0.234375 0.21875 -0.578125 0.21875q-0.359375 0 -0.578125 -0.21875q-0.21875 -0.234375 -0.21875 -0.609375zm5.2376404 6.84375l-0.59375 0l0 3.59375l-1.15625 0l0 -11.203125l1.15625 0l0 6.8125l0.53125 -0.21875l1.875 -3.390625l1.328125 0l-1.890625 3.234375l-0.5625 0.515625l0.65625 0.625l2.0625 3.625l-1.390625 0l-2.015625 -3.59375zm5.504883 -4.40625l0 4.890625q0 1.21875 0.25 1.75q0.25 0.515625 0.90625 0.515625q0.328125 0 0.59375 -0.140625q0.265625 -0.140625 0.46875 -0.359375q0.21875 -0.21875 0.375 -0.5q0.15625 -0.296875 0.25 -0.609375l0 -5.546875l1.15625 0l0 5.734375q0 0.5625 0.03125 1.1875q0.046875 0.609375 0.125 1.078125l-0.8125 0l-0.28125 -1.125l-0.0625 0q-0.265625 0.53125 -0.78125 0.921875q-0.5 0.390625 -1.28125 0.390625q-0.5 0 -0.890625 -0.125q-0.390625 -0.125 -0.65625 -0.453125q-0.265625 -0.34375 -0.40625 -0.921875q-0.140625 -0.59375 -0.140625 -1.5l0 -5.1875l1.15625 0zm5.7721252 6.6875q0.328125 0.1875 0.765625 0.328125q0.4375 0.140625 0.90625 0.140625q0.53125 0 0.890625 -0.265625q0.375 -0.265625 0.375 -0.859375q0 -0.5 -0.234375 -0.8125q-0.21875 -0.328125 -0.5625 -0.578125q-0.34375 -0.25 -0.75 -0.46875q-0.390625 -0.21875 -0.734375 -0.515625q-0.34375 -0.3125 -0.578125 -0.71875q-0.21875 -0.421875 -0.21875 -1.0625q0 -1.03125 0.546875 -1.546875q0.5625 -0.515625 1.5625 -0.515625q0.65625 0 1.140625 0.125q0.484375 0.109375 0.828125 0.3125l-0.296875 0.96875q-0.3125 -0.15625 -0.71875 -0.265625q-0.390625 -0.109375 -0.8125 -0.109375q-0.5625 0 -0.828125 0.25q-0.265625 0.234375 -0.265625 0.75q0 0.390625 0.21875 0.671875q0.21875 0.28125 0.5625 0.515625q0.34375 0.234375 0.75 0.484375q0.40625 0.234375 0.75 0.5625q0.34375 0.328125 0.5625 0.78125q0.21875 0.453125 0.21875 1.140625q0 0.453125 -0.140625 0.859375q-0.140625 0.390625 -0.4375 0.6875q-0.296875 0.296875 -0.734375 0.46875q-0.4375 0.171875 -1.03125 0.171875q-0.703125 0 -1.21875 -0.140625q-0.515625 -0.125 -0.859375 -0.34375l0.34375 -1.015625z" fill-rule="nonzero"/><path fill="#660000" d="m326.05566 306.7685l-0.578125 0l0 5.1875l-1.1875 0l0 -11.203125l1.1875 0l0 5.21875l0.5625 -0.21875l2.921875 -5.0l1.375 0l-2.9375 4.828125l-0.5625 0.515625l0.65625 0.640625l3.25 5.21875l-1.515625 0l-3.171875 -5.1875zm6.7395325 -2.8125l0 4.890625q0 1.21875 0.25 1.75q0.25 0.515625 0.90625 0.515625q0.328125 0 0.59375 -0.140625q0.265625 -0.140625 0.46875 -0.359375q0.21875 -0.21875 0.375 -0.5q0.15625 -0.296875 0.25 -0.609375l0 -5.546875l1.15625 0l0 5.734375q0 0.5625 0.03125 1.1875q0.046875 0.609375 0.125 1.078125l-0.8125 0l-0.28125 -1.125l-0.0625 0q-0.265625 0.53125 -0.78125 0.921875q-0.5 0.390625 -1.28125 0.390625q-0.5 0 -0.890625 -0.125q-0.390625 -0.125 -0.65625 -0.453125q-0.265625 -0.34375 -0.40625 -0.921875q-0.140625 -0.59375 -0.140625 -1.5l0 -5.1875l1.15625 0zm7.1315002 6.09375q0 0.5625 0.15625 0.8125q0.15625 0.234375 0.421875 0.234375q0.34375 0 0.78125 -0.1875l0.109375 0.9375q-0.203125 0.125 -0.578125 0.203125q-0.375 0.078125 -0.671875 0.078125q-0.609375 0 -0.984375 -0.375q-0.375 -0.375 -0.375 -1.3125l0 -9.6875l1.140625 0l0 9.296875zm6.9155273 1.5q-0.40625 0.3125 -0.921875 0.453125q-0.5 0.140625 -1.0625 0.140625q-0.765625 0 -1.296875 -0.296875q-0.53125 -0.296875 -0.859375 -0.84375q-0.328125 -0.546875 -0.484375 -1.328125q-0.140625 -0.78125 -0.140625 -1.71875q0 -2.046875 0.71875 -3.109375q0.734375 -1.078125 2.09375 -1.078125q0.625 0 1.0625 0.109375q0.453125 0.109375 0.78125 0.28125l-0.328125 1.015625q-0.640625 -0.375 -1.390625 -0.375q-0.859375 0 -1.296875 0.765625q-0.4375 0.765625 -0.4375 2.390625q0 0.65625 0.09375 1.234375q0.09375 0.578125 0.3125 1.0q0.234375 0.421875 0.578125 0.671875q0.359375 0.25 0.875 0.25q0.421875 0 0.78125 -0.140625q0.359375 -0.15625 0.59375 -0.34375l0.328125 0.921875zm1.1491394 -0.90625q0.328125 0.1875 0.765625 0.328125q0.4375 0.140625 0.90625 0.140625q0.53125 0 0.890625 -0.265625q0.375 -0.265625 0.375 -0.859375q0 -0.5 -0.234375 -0.8125q-0.21875 -0.328125 -0.5625 -0.578125q-0.34375 -0.25 -0.75 -0.46875q-0.390625 -0.21875 -0.734375 -0.515625q-0.34375 -0.3125 -0.578125 -0.71875q-0.21875 -0.421875 -0.21875 -1.0625q0 -1.03125 0.546875 -1.546875q0.5625 -0.515625 1.5625 -0.515625q0.65625 0 1.140625 0.125q0.484375 0.109375 0.828125 0.3125l-0.296875 0.96875q-0.3125 -0.15625 -0.71875 -0.265625q-0.390625 -0.109375 -0.8125 -0.109375q-0.5625 0 -0.828125 0.25q-0.265625 0.234375 -0.265625 0.75q0 0.390625 0.21875 0.671875q0.21875 0.28125 0.5625 0.515625q0.34375 0.234375 0.75 0.484375q0.40625 0.234375 0.75 0.5625q0.34375 0.328125 0.5625 0.78125q0.21875 0.453125 0.21875 1.140625q0 0.453125 -0.140625 0.859375q-0.140625 0.390625 -0.4375 0.6875q-0.296875 0.296875 -0.734375 0.46875q-0.4375 0.171875 -1.03125 0.171875q-0.703125 0 -1.21875 -0.140625q-0.515625 -0.125 -0.859375 -0.34375l0.34375 -1.015625z" fill-rule="nonzero"/></g></svg>