<svg version="1.1" viewBox="0.0 0.0 430.6902887139108 241.49606299212599" fill="none" stroke="none" stroke-linecap="square" stroke-miterlimit="10" xmlns:xlink="http://www.w3.org/1999/xlink" xmlns="http://www.w3.org/2000/svg"><clipPath id="p.0"><path d="m0 0l430.69028 0l0 241.49606l-430.69028 0l0 -241.49606z" clip-rule="nonzero"/></clipPath><g clip-path="url(#p.0)"><path fill="#000000" fill-opacity="0.0" d="m0 0l430.69028 0l0 241.49606l-430.69028 0z" fill-rule="evenodd"/><path fill="#c9daf8" d="m97.19948 121.27307l0 0c0 -2.919487 2.3667068 -5.286194 5.286194 -5.286194l68.010284 0c1.4019928 0 2.7465515 0.5569382 3.7378998 1.5482864c0.9913635 0.9913559 1.5482941 2.3359222 1.5482941 3.7379074l0 21.14415c0 2.9194794 -2.3667145 5.286194 -5.286194 5.286194l-68.010284 0l0 0c-2.919487 0 -5.286194 -2.3667145 -5.286194 -5.286194z" fill-rule="evenodd"/><path stroke="#1c4587" stroke-width="1.0" stroke-linejoin="round" stroke-linecap="butt" d="m97.19948 121.27307l0 0c0 -2.919487 2.3667068 -5.286194 5.286194 -5.286194l68.010284 0c1.4019928 0 2.7465515 0.5569382 3.7378998 1.5482864c0.9913635 0.9913559 1.5482941 2.3359222 1.5482941 3.7379074l0 21.14415c0 2.9194794 -2.3667145 5.286194 -5.286194 5.286194l-68.010284 0l0 0c-2.919487 0 -5.286194 -2.3667145 -5.286194 -5.286194z" fill-rule="evenodd"/><path fill="#1c4587" d="m116.876656 127.6114l-2.75 0l0 10.093742l-1.203125 0l0 -10.093742l-2.75 0l0 -1.109375l6.703125 0l0 1.109375zm1.370758 2.0937424l1.140625 0l0 8.0l-1.140625 0l0 -8.0zm-0.21875 -2.4374924q0 -0.375 0.21875 -0.609375q0.21875 -0.25 0.578125 -0.25q0.34375 0 0.578125 0.234375q0.234375 0.234375 0.234375 0.625q0 0.390625 -0.234375 0.609375q-0.234375 0.21874237 -0.578125 0.21874237q-0.359375 0 -0.578125 -0.21874237q-0.21875 -0.234375 -0.21875 -0.609375zm2.6907501 2.4374924l0.984375 0l0 -1.578125l1.140625 -0.37499237l0 1.9531174l1.734375 0l0 1.046875l-1.734375 0l0 4.765625q0 0.703125 0.171875 1.015625q0.171875 0.3125 0.546875 0.3125q0.328125 0 0.5625 -0.078125q0.234375 -0.078125 0.5 -0.1875l0.21875 0.921875q-0.34375 0.171875 -0.765625 0.265625q-0.421875 0.109375 -0.890625 0.109375q-0.796875 0 -1.140625 -0.515625q-0.34375 -0.515625 -0.34375 -1.6875l0 -4.921875l-0.984375 0l0 -1.046875zm6.946884 4.40625l-0.59375 0l0 3.59375l-1.15625 0l0 -11.203117l1.15625 0l0 6.8124924l0.53125 -0.21875l1.8749924 -3.390625l1.328125 0l-1.890625 3.234375l-0.5625 0.515625l0.65625 0.625l2.0625 3.625l-1.390625 0l-2.0156174 -3.59375zm3.9542465 -0.40625q0 -2.15625 0.734375 -3.171875q0.75 -1.015625 2.125 -1.015625q1.46875 0 2.15625 1.046875q0.703125 1.03125 0.703125 3.140625q0 2.171875 -0.75 3.1875q-0.75 1.0 -2.109375 1.0q-1.46875 0 -2.171875 -1.03125q-0.6875 -1.046875 -0.6875 -3.15625zm1.203125 0q0 0.703125 0.078125 1.28125q0.09375 0.578125 0.296875 1.0q0.203125 0.40625 0.515625 0.640625q0.328125 0.234375 0.765625 0.234375q0.828125 0 1.25 -0.75q0.421875 -0.75 0.421875 -2.40625q0 -0.6875 -0.09375 -1.265625q-0.09375 -0.59375 -0.296875 -1.0q-0.1875 -0.421875 -0.515625 -0.65625q-0.3125 -0.234375 -0.765625 -0.234375q-0.8125 0 -1.234375 0.765625q-0.421875 0.75 -0.421875 2.390625zm5.927643 2.6875q0.328125 0.1875 0.765625 0.328125q0.4375 0.140625 0.90625 0.140625q0.53125 0 0.890625 -0.265625q0.375 -0.265625 0.375 -0.859375q0 -0.5 -0.234375 -0.8125q-0.21875 -0.328125 -0.5625 -0.578125q-0.34375 -0.25 -0.75 -0.46875q-0.390625 -0.21875 -0.734375 -0.515625q-0.34375 -0.3125 -0.578125 -0.71875q-0.21875 -0.421875 -0.21875 -1.0625q0 -1.03125 0.546875 -1.546875q0.5625 -0.515625 1.5625 -0.515625q0.65625 0 1.140625 0.125q0.484375 0.109375 0.828125 0.3125l-0.296875 0.96875q-0.3125 -0.15625 -0.71875 -0.265625q-0.390625 -0.109375 -0.8125 -0.109375q-0.5625 0 -0.828125 0.25q-0.265625 0.234375 -0.265625 0.75q0 0.390625 0.21875 0.671875q0.21875 0.28125 0.5625 0.515625q0.34375 0.234375 0.75 0.484375q0.40625 0.234375 0.75 0.5625q0.34375 0.328125 0.5625 0.78125q0.21875 0.453125 0.21875 1.140625q0 0.453125 -0.140625 0.859375q-0.140625 0.390625 -0.4375 0.6875q-0.296875 0.296875 -0.734375 0.46875q-0.4375 0.171875 -1.03125 0.171875q-0.703125 0 -1.21875 -0.140625q-0.515625 -0.125 -0.859375 -0.34375l0.34375 -1.015625zm5.7517548 -6.6875l1.140625 0l0 8.0l-1.140625 0l0 -8.0zm0.5625 -3.5156174l1.234375 0l0 0.328125l-1.3125 2.0468674l-0.6875 0l0.765625 -2.3749924zm1.8938751 3.5156174l0.984375 0l0 -1.578125l1.140625 -0.37499237l0 1.9531174l1.734375 0l0 1.046875l-1.734375 0l0 4.765625q0 0.703125 0.171875 1.015625q0.171875 0.3125 0.546875 0.3125q0.328125 0 0.5625 -0.078125q0.234375 -0.078125 0.5 -0.1875l0.21875 0.921875q-0.34375 0.171875 -0.765625 0.265625q-0.421875 0.109375 -0.890625 0.109375q-0.796875 0 -1.140625 -0.515625q-0.34375 -0.515625 -0.34375 -1.6875l0 -4.921875l-0.984375 0l0 -1.046875zm5.118759 0.484375q0.46875 -0.296875 1.125 -0.453125q0.671875 -0.15625 1.40625 -0.15625q0.671875 0 1.078125 0.203125q0.40625 0.1875 0.640625 0.53125q0.234375 0.34375 0.296875 0.796875q0.078125 0.4375 0.078125 0.90625q0 0.96875 -0.046875 1.890625q-0.03125 0.90625 -0.03125 1.71875q0 0.609375 0.03125 1.125q0.046875 0.515625 0.15625 0.984375l-0.875 0l-0.265625 -0.9375l-0.0625 0q-0.25 0.40625 -0.71875 0.71875q-0.453125 0.296875 -1.234375 0.296875q-0.875 0 -1.421875 -0.59375q-0.546875 -0.609375 -0.546875 -1.65625q0 -0.6875 0.21875 -1.15625q0.234375 -0.46875 0.65625 -0.75q0.4375 -0.296875 1.015625 -0.40625q0.578125 -0.125 1.296875 -0.125q0.171875 0 0.328125 0q0.15625 0 0.328125 0.015625q0.0625 -0.5 0.0625 -0.875q0 -0.921875 -0.28125 -1.28125q-0.265625 -0.375 -0.984375 -0.375q-0.453125 0 -0.984375 0.140625q-0.53125 0.140625 -0.875 0.34375l-0.390625 -0.90625zm3.484375 3.875q-0.171875 -0.015625 -0.328125 -0.03125q-0.15625 -0.015625 -0.3125 -0.015625q-0.390625 0 -0.765625 0.078125q-0.359375 0.0625 -0.65625 0.21875q-0.28125 0.15625 -0.453125 0.4375q-0.171875 0.265625 -0.171875 0.6875q0 0.640625 0.3125 1.0q0.3125 0.34375 0.8125 0.34375q0.671875 0 1.03125 -0.3125q0.375 -0.328125 0.53125 -0.71875l0 -1.6875zm-1.625 -7.8749924l1.234375 0l0 0.328125l-1.3125 2.0468674l-0.6875 0l0.765625 -2.3749924zm4.493759 10.203117q0.328125 0.1875 0.765625 0.328125q0.4375 0.140625 0.90625 0.140625q0.53125 0 0.890625 -0.265625q0.375 -0.265625 0.375 -0.859375q0 -0.5 -0.234375 -0.8125q-0.21875 -0.328125 -0.5625 -0.578125q-0.34375 -0.25 -0.75 -0.46875q-0.390625 -0.21875 -0.734375 -0.515625q-0.34375 -0.3125 -0.578125 -0.71875q-0.21875 -0.421875 -0.21875 -1.0625q0 -1.03125 0.546875 -1.546875q0.5625 -0.515625 1.5625 -0.515625q0.65625 0 1.140625 0.125q0.484375 0.109375 0.828125 0.3125l-0.296875 0.96875q-0.3125 -0.15625 -0.71875 -0.265625q-0.390625 -0.109375 -0.8125 -0.109375q-0.5625 0 -0.828125 0.25q-0.265625 0.234375 -0.265625 0.75q0 0.390625 0.21875 0.671875q0.21875 0.28125 0.5625 0.515625q0.34375 0.234375 0.75 0.484375q0.40625 0.234375 0.75 0.5625q0.34375 0.328125 0.5625 0.78125q0.21875 0.453125 0.21875 1.140625q0 0.453125 -0.140625 0.859375q-0.140625 0.390625 -0.4375 0.6875q-0.296875 0.296875 -0.734375 0.46875q-0.4375 0.171875 -1.03125 0.171875q-0.703125 0 -1.21875 -0.140625q-0.515625 -0.125 -0.859375 -0.34375l0.34375 -1.015625z" fill-rule="nonzero"/><path fill="#d9ead3" d="m97.19948 196.75328l78.58205 0l0 25.44197c-39.29103 0 -39.29103 9.693863 -78.58205 4.1859894z" fill-rule="evenodd"/><path stroke="#274e13" stroke-width="1.0" stroke-linejoin="round" stroke-linecap="butt" d="m97.19948 196.75328l78.58205 0l0 25.44197c-39.29103 0 -39.29103 9.693863 -78.58205 4.1859894z" fill-rule="evenodd"/><path fill="#274e13" d="m123.37471 204.13115l1.15625 0l0 7.5q0 2.046875 -0.796875 2.953125q-0.78125 0.890625 -2.25 0.890625q-1.6875 0 -2.46875 -0.875q-0.765625 -0.875 -0.765625 -2.703125l0 -7.765625l1.1875 0l0 7.140625q0 0.859375 0.109375 1.453125q0.125 0.59375 0.375 0.96875q0.25 0.359375 0.640625 0.53125q0.390625 0.15625 0.9375 0.15625q1.0625 0 1.46875 -0.734375q0.40625 -0.75 0.40625 -2.375l0 -7.140625zm-4.203125 -1.5q0 -0.34375 0.203125 -0.546875q0.203125 -0.203125 0.5625 -0.203125q0.328125 0 0.53125 0.203125q0.203125 0.203125 0.203125 0.546875q0 0.328125 -0.203125 0.53125q-0.203125 0.203125 -0.53125 0.203125q-0.359375 0 -0.5625 -0.203125q-0.203125 -0.203125 -0.203125 -0.53125zm2.53125 0q0 -0.34375 0.203125 -0.546875q0.203125 -0.203125 0.53125 -0.203125q0.359375 0 0.546875 0.203125q0.203125 0.203125 0.203125 0.546875q0 0.328125 -0.203125 0.53125q-0.1875 0.203125 -0.546875 0.203125q-0.328125 0 -0.53125 -0.203125q-0.203125 -0.203125 -0.203125 -0.53125zm4.367264 11.65625l2.96875 -5.21875l0.5625 -0.6875l-3.53125 0l0 -1.046875l4.671875 0l0 1.046875l-3.0 5.265625l-0.546875 0.640625l3.546875 0l0 1.046875l-4.671875 0l0 -1.046875zm10.786758 0.5q-0.390625 0.359375 -0.984375 0.546875q-0.59375 0.1875 -1.25 0.1875q-0.75 0 -1.3125 -0.296875q-0.546875 -0.296875 -0.90625 -0.84375q-0.359375 -0.546875 -0.53125 -1.3125q-0.15625 -0.78125 -0.15625 -1.734375q0 -2.046875 0.75 -3.109375q0.75 -1.078125 2.125 -1.078125q0.453125 0 0.890625 0.109375q0.4375 0.109375 0.78125 0.453125q0.359375 0.328125 0.578125 0.9375q0.21875 0.609375 0.21875 1.578125q0 0.28125 -0.03125 0.59375q-0.015625 0.3125 -0.046875 0.640625l-4.0625 0q0 0.6875 0.109375 1.25q0.109375 0.5625 0.34375 0.953125q0.25 0.390625 0.625 0.609375q0.375 0.21875 0.9375 0.21875q0.421875 0 0.84375 -0.15625q0.4375 -0.171875 0.65625 -0.390625l0.421875 0.84375zm-0.90625 -4.28125q0.03125 -1.203125 -0.34375 -1.765625q-0.359375 -0.5625 -1.0 -0.5625q-0.734375 0 -1.171875 0.5625q-0.421875 0.5625 -0.5 1.765625l3.015625 0zm6.826767 4.828125l0 -4.875q0 -1.203125 -0.28125 -1.734375q-0.28125 -0.546875 -1.0 -0.546875q-0.640625 0 -1.0625 0.390625q-0.421875 0.375 -0.609375 0.9375l0 5.828125l-1.15625 0l0 -8.0l0.84375 0l0.203125 0.84375l0.046875 0q0.3125 -0.421875 0.828125 -0.71875q0.515625 -0.3125 1.234375 -0.3125q0.515625 0 0.90625 0.140625q0.390625 0.140625 0.65625 0.484375q0.265625 0.34375 0.390625 0.921875q0.140625 0.578125 0.140625 1.453125l0 5.1875l-1.140625 0zm7.7115173 -0.546875q-0.390625 0.359375 -0.984375 0.546875q-0.59375 0.1875 -1.25 0.1875q-0.75 0 -1.3125 -0.296875q-0.546875 -0.296875 -0.90625 -0.84375q-0.359375 -0.546875 -0.53125 -1.3125q-0.15625 -0.78125 -0.15625 -1.734375q0 -2.046875 0.75 -3.109375q0.75 -1.078125 2.125 -1.078125q0.453125 0 0.890625 0.109375q0.4375 0.109375 0.78125 0.453125q0.359375 0.328125 0.578125 0.9375q0.21875 0.609375 0.21875 1.578125q0 0.28125 -0.03125 0.59375q-0.015625 0.3125 -0.046875 0.640625l-4.0625 0q0 0.6875 0.109375 1.25q0.109375 0.5625 0.34375 0.953125q0.25 0.390625 0.625 0.609375q0.375 0.21875 0.9375 0.21875q0.421875 0 0.84375 -0.15625q0.4375 -0.171875 0.65625 -0.390625l0.421875 0.84375zm-0.90625 -4.28125q0.03125 -1.203125 -0.34375 -1.765625q-0.359375 -0.5625 -1.0 -0.5625q-0.734375 0 -1.171875 0.5625q-0.421875 0.5625 -0.5 1.765625l3.015625 0zm1.920517 -3.171875l0.984375 0l0 -1.578125l1.140625 -0.375l0 1.953125l1.734375 0l0 1.046875l-1.734375 0l0 4.765625q0 0.703125 0.171875 1.015625q0.171875 0.3125 0.546875 0.3125q0.328125 0 0.5625 -0.078125q0.234375 -0.078125 0.5 -0.1875l0.21875 0.921875q-0.34375 0.171875 -0.765625 0.265625q-0.421875 0.109375 -0.890625 0.109375q-0.796875 0 -1.140625 -0.515625q-0.34375 -0.515625 -0.34375 -1.6875l0 -4.921875l-0.984375 0l0 -1.046875z" fill-rule="nonzero"/><path fill="#f4cccc" d="m98.37795 35.212597l76.223625 0l0 25.44197c-38.111816 0 -38.111816 9.693859 -76.223625 4.1859856z" fill-rule="evenodd"/><path stroke="#660000" stroke-width="1.0" stroke-linejoin="round" stroke-linecap="butt" d="m98.37795 35.212597l76.223625 0l0 25.44197c-38.111816 0 -38.111816 9.693859 -76.223625 4.1859856z" fill-rule="evenodd"/><path fill="#660000" d="m129.16988 50.652958l-3.1718826 0l-0.890625 3.140625l-1.1875 0l3.375 -11.375l0.65625 0l3.3750076 11.375l-1.25 0l-0.90625 -3.140625zm-2.8437576 -1.0625l2.5625076 0l-0.9843826 -3.453125l-0.296875 -1.6875l-0.03125 0l-0.3125 1.71875l-0.9375 3.421875zm11.068016 1.453125q0 0.8125 0.015625 1.484375q0.015625 0.65625 0.109375 1.296875l-0.78125 0l-0.25 -0.953125l-0.0625 0q-0.234375 0.46875 -0.71875 0.796875q-0.46875 0.3125 -1.140625 0.3125q-1.296875 0 -1.9375 -1.0q-0.625 -1.015625 -0.625 -3.171875q0 -2.046875 0.765625 -3.09375q0.78125 -1.0625 2.140625 -1.0625q0.46875 0 0.734375 0.0625q0.28125 0.046875 0.59375 0.171875l0 -3.296875l1.15625 0l0 8.453125zm-1.15625 -3.984375q-0.21875 -0.1875 -0.5 -0.28125q-0.28125 -0.09375 -0.75 -0.09375q-0.84375 0 -1.3125 0.78125q-0.46875 0.765625 -0.46875 2.359375q0 0.703125 0.078125 1.28125q0.09375 0.5625 0.28125 0.984375q0.1875 0.40625 0.46875 0.640625q0.296875 0.21875 0.734375 0.21875q1.15625 0 1.46875 -1.359375l0 -4.53125zm2.959259 -0.78125q0.46875 -0.296875 1.125 -0.453125q0.671875 -0.15625 1.40625 -0.15625q0.671875 0 1.078125 0.203125q0.40625 0.1875 0.640625 0.53125q0.234375 0.34375 0.296875 0.796875q0.078125 0.4375 0.078125 0.90625q0 0.96875 -0.046875 1.890625q-0.03125 0.90625 -0.03125 1.71875q0 0.609375 0.03125 1.125q0.046875 0.515625 0.15625 0.984375l-0.875 0l-0.265625 -0.9375l-0.0625 0q-0.25 0.40625 -0.71875 0.71875q-0.453125 0.296875 -1.234375 0.296875q-0.875 0 -1.421875 -0.59375q-0.546875 -0.609375 -0.546875 -1.65625q0 -0.6875 0.21875 -1.15625q0.234375 -0.46875 0.65625 -0.75q0.4375 -0.296875 1.015625 -0.40625q0.578125 -0.125 1.296875 -0.125q0.171875 0 0.328125 0q0.15625 0 0.328125 0.015625q0.0625 -0.5 0.0625 -0.875q0 -0.921875 -0.28125 -1.28125q-0.265625 -0.375 -0.984375 -0.375q-0.453125 0 -0.984375 0.140625q-0.53125 0.140625 -0.875 0.34375l-0.390625 -0.90625zm3.484375 3.875q-0.171875 -0.015625 -0.328125 -0.03125q-0.15625 -0.015625 -0.3125 -0.015625q-0.390625 0 -0.765625 0.078125q-0.359375 0.0625 -0.65625 0.21875q-0.28125 0.15625 -0.453125 0.4375q-0.171875 0.265625 -0.171875 0.6875q0 0.640625 0.3125 1.0q0.3125 0.34375 0.8125 0.34375q0.671875 0 1.03125 -0.3125q0.375 -0.328125 0.53125 -0.71875l0 -1.6875zm2.1968842 -4.359375l0.984375 0l0 -1.578125l1.140625 -0.375l0 1.953125l1.734375 0l0 1.046875l-1.734375 0l0 4.765625q0 0.703125 0.171875 1.015625q0.171875 0.3125 0.546875 0.3125q0.328125 0 0.5625 -0.078125q0.234375 -0.078125 0.5 -0.1875l0.21875 0.921875q-0.34375 0.171875 -0.765625 0.265625q-0.421875 0.109375 -0.890625 0.109375q-0.796875 0 -1.140625 -0.515625q-0.34375 -0.515625 -0.34375 -1.6875l0 -4.921875l-0.984375 0l0 -1.046875z" fill-rule="nonzero"/><path fill="#fce5cd" d="m26.391077 121.27036l0 0c0 -2.9201508 11.290415 -5.2873993 25.217848 -5.2873993c13.927429 0 25.21785 2.3672485 25.21785 5.2873993l0 21.149605c0 2.9201508 -11.290421 5.2873993 -25.21785 5.2873993c-13.927433 0 -25.217848 -2.3672485 -25.217848 -5.2873993z" fill-rule="evenodd"/><path fill="#000000" fill-opacity="0.0" d="m76.826775 121.27036l0 0c0 2.9201508 -11.290421 5.2873993 -25.21785 5.2873993c-13.927433 0 -25.217848 -2.3672485 -25.217848 -5.2873993" fill-rule="evenodd"/><path fill="#000000" fill-opacity="0.0" d="m26.391077 121.27036l0 0c0 -2.9201508 11.290415 -5.2873993 25.217848 -5.2873993c13.927429 0 25.21785 2.3672485 25.21785 5.2873993l0 21.149605c0 2.9201508 -11.290421 5.2873993 -25.21785 5.2873993c-13.927433 0 -25.217848 -2.3672485 -25.217848 -5.2873993z" fill-rule="evenodd"/><path stroke="#783f04" stroke-width="1.0" stroke-linejoin="round" stroke-linecap="butt" d="m76.826775 121.27036l0 0c0 2.9201508 -11.290421 5.2873993 -25.21785 5.2873993c-13.927433 0 -25.217848 -2.3672485 -25.217848 -5.2873993" fill-rule="evenodd"/><path stroke="#783f04" stroke-width="1.0" stroke-linejoin="round" stroke-linecap="butt" d="m26.391077 121.27036l0 0c0 -2.9201508 11.290415 -5.2873993 25.217848 -5.2873993c13.927429 0 25.21785 2.3672485 25.21785 5.2873993l0 21.149605c0 2.9201508 -11.290421 5.2873993 -25.21785 5.2873993c-13.927433 0 -25.217848 -2.3672485 -25.217848 -5.2873993z" fill-rule="evenodd"/><path fill="#783f04" d="m39.741768 135.16136l-0.578125 0l0 5.1875l-1.1875 0l0 -11.203125l1.1875 0l0 5.21875l0.5625 -0.21875l2.921875 -5.0l1.375 0l-2.9375 4.828125l-0.5625 0.515625l0.65625 0.640625l3.25 5.21875l-1.515625 0l-3.171875 -5.1875zm6.739517 -2.8125l0 4.890625q0 1.21875 0.25 1.75q0.25 0.515625 0.90625 0.515625q0.328125 0 0.59375 -0.140625q0.265625 -0.140625 0.46875 -0.359375q0.21875 -0.21875 0.375 -0.5q0.15625 -0.296875 0.25 -0.609375l0 -5.546875l1.15625 0l0 5.734375q0 0.5625 0.03125 1.1875q0.046875 0.609375 0.125 1.078125l-0.8125 0l-0.28125 -1.125l-0.0625 0q-0.265625 0.53125 -0.78125 0.921875q-0.5 0.390625 -1.28125 0.390625q-0.5 0 -0.890625 -0.125q-0.390625 -0.125 -0.65625 -0.453125q-0.265625 -0.34375 -0.40625 -0.921875q-0.140625 -0.59375 -0.140625 -1.5l0 -5.1875l1.15625 0zm7.1315155 6.09375q0 0.5625 0.15625 0.8125q0.15625 0.234375 0.421875 0.234375q0.34375 0 0.78125 -0.1875l0.109375 0.9375q-0.203125 0.125 -0.578125 0.203125q-0.375 0.078125 -0.671875 0.078125q-0.609375 0 -0.984375 -0.375q-0.375 -0.375 -0.375 -1.3125l0 -9.6875l1.140625 0l0 9.296875zm6.915512 1.5q-0.40625 0.3125 -0.921875 0.453125q-0.5 0.140625 -1.0625 0.140625q-0.765625 0 -1.296875 -0.296875q-0.53125 -0.296875 -0.859375 -0.84375q-0.328125 -0.546875 -0.484375 -1.328125q-0.140625 -0.78125 -0.140625 -1.71875q0 -2.046875 0.71875 -3.109375q0.734375 -1.078125 2.09375 -1.078125q0.625 0 1.0625 0.109375q0.453125 0.109375 0.78125 0.28125l-0.328125 1.015625q-0.640625 -0.375 -1.390625 -0.375q-0.859375 0 -1.296875 0.765625q-0.4375 0.765625 -0.4375 2.390625q0 0.65625 0.09375 1.234375q0.09375 0.578125 0.3125 1.0q0.234375 0.421875 0.578125 0.671875q0.359375 0.25 0.875 0.25q0.421875 0 0.78125 -0.140625q0.359375 -0.15625 0.59375 -0.34375l0.328125 0.921875zm1.1491394 -0.90625q0.328125 0.1875 0.765625 0.328125q0.4375 0.140625 0.90625 0.140625q0.53125 0 0.890625 -0.265625q0.375 -0.265625 0.375 -0.859375q0 -0.5 -0.234375 -0.8125q-0.21875 -0.328125 -0.5625 -0.578125q-0.34375 -0.25 -0.75 -0.46875q-0.390625 -0.21875 -0.734375 -0.515625q-0.34375 -0.3125 -0.578125 -0.71875q-0.21875 -0.421875 -0.21875 -1.0625q0 -1.03125 0.546875 -1.546875q0.5625 -0.515625 1.5625 -0.515625q0.65625 0 1.140625 0.125q0.484375 0.109375 0.828125 0.3125l-0.296875 0.96875q-0.3125 -0.15625 -0.71875 -0.265625q-0.390625 -0.109375 -0.8125 -0.109375q-0.5625 0 -0.828125 0.25q-0.265625 0.234375 -0.265625 0.75q0 0.390625 0.21875 0.671875q0.21875 0.28125 0.5625 0.515625q0.34375 0.234375 0.75 0.484375q0.40625 0.234375 0.75 0.5625q0.34375 0.328125 0.5625 0.78125q0.21875 0.453125 0.21875 1.140625q0 0.453125 -0.140625 0.859375q-0.140625 0.390625 -0.4375 0.6875q-0.296875 0.296875 -0.734375 0.46875q-0.4375 0.171875 -1.03125 0.171875q-0.703125 0 -1.21875 -0.140625q-0.515625 -0.125 -0.859375 -0.34375l0.34375 -1.015625z" fill-rule="nonzero"/><path fill="#000000" fill-opacity="0.0" d="m76.826775 131.84517l20.377953 0" fill-rule="evenodd"/><path stroke="#000000" stroke-width="1.0" stroke-linejoin="round" stroke-linecap="butt" d="m76.826775 131.84517l16.950867 0" fill-rule="evenodd"/><path fill="#000000" stroke="#000000" stroke-width="1.0" stroke-linecap="butt" d="m93.77764 131.84517l-1.124588 1.1245728l3.0897675 -1.1245728l-3.0897675 -1.124588z" fill-rule="evenodd"/><path fill="#000000" fill-opacity="0.0" d="m136.48976 64.84055l0 17.952759" fill-rule="evenodd"/><path stroke="#000000" stroke-width="1.0" stroke-linejoin="round" stroke-linecap="butt" d="m136.48976 64.84055l0 14.525665" fill-rule="evenodd"/><path fill="#000000" stroke="#000000" stroke-width="1.0" stroke-linecap="butt" d="m136.48976 79.36622l-1.1245728 -1.1245804l1.1245728 3.0897675l1.124588 -3.0897675z" fill-rule="evenodd"/><path fill="#000000" fill-opacity="0.0" d="m136.49081 147.70341l0 49.039368" fill-rule="evenodd"/><path stroke="#000000" stroke-width="1.0" stroke-linejoin="round" stroke-linecap="butt" d="m136.49081 147.70341l0 45.61229" fill-rule="evenodd"/><path fill="#000000" stroke="#000000" stroke-width="1.0" stroke-linecap="butt" d="m136.49081 193.31569l-1.124588 -1.1245728l1.124588 3.0897675l1.124588 -3.0897675z" fill-rule="evenodd"/><path fill="#efefef" d="m127.62291 91.461945l0 0c0 -4.7835693 3.9694977 -8.661423 8.866135 -8.661423l0 0c2.3514557 0 4.6065826 0.91254425 6.2693176 2.5368729c1.6627197 1.6243286 2.5968323 3.8274002 2.5968323 6.12455l0 0c0 4.7835693 -3.969513 8.661415 -8.86615 8.661415l0 0c-4.896637 0 -8.866135 -3.8778458 -8.866135 -8.661415z" fill-rule="evenodd"/><path fill="#000000" fill-opacity="0.0" d="m136.48904 82.80052l0 17.322838m-8.866135 -8.661415l17.732285 0" fill-rule="evenodd"/><path fill="#000000" fill-opacity="0.0" d="m127.62291 91.461945l0 0c0 -4.7835693 3.9694977 -8.661423 8.866135 -8.661423l0 0c2.3514557 0 4.6065826 0.91254425 6.2693176 2.5368729c1.6627197 1.6243286 2.5968323 3.8274002 2.5968323 6.12455l0 0c0 4.7835693 -3.969513 8.661415 -8.86615 8.661415l0 0c-4.896637 0 -8.866135 -3.8778458 -8.866135 -8.661415z" fill-rule="evenodd"/><path stroke="#434343" stroke-width="1.0" stroke-linejoin="round" stroke-linecap="butt" d="m136.48904 82.80052l0 17.322838m-8.866135 -8.661415l17.732285 0" fill-rule="evenodd"/><path stroke="#434343" stroke-width="1.0" stroke-linejoin="round" stroke-linecap="butt" d="m127.62291 91.461945l0 0c0 -4.7835693 3.9694977 -8.661423 8.866135 -8.661423l0 0c2.3514557 0 4.6065826 0.91254425 6.2693176 2.5368729c1.6627197 1.6243286 2.5968323 3.8274002 2.5968323 6.12455l0 0c0 4.7835693 -3.969513 8.661415 -8.86615 8.661415l0 0c-4.896637 0 -8.866135 -3.8778458 -8.866135 -8.661415z" fill-rule="evenodd"/><path fill="#000000" fill-opacity="0.0" d="m136.48904 100.12336l0 15.874016" fill-rule="evenodd"/><path stroke="#000000" stroke-width="1.0" stroke-linejoin="round" stroke-linecap="butt" d="m136.48904 100.12336l0 12.44693" fill-rule="evenodd"/><path fill="#000000" stroke="#000000" stroke-width="1.0" stroke-linecap="butt" d="m136.48904 112.57029l-1.1245728 -1.124588l1.1245728 3.089775l1.124588 -3.089775z" fill-rule="evenodd"/><path fill="#f4cccc" d="m13.4973755 75.59974l76.223625 0l0 25.44197c-38.111813 0 -38.111813 9.693855 -76.223625 4.1859818z" fill-rule="evenodd"/><path stroke="#660000" stroke-width="1.0" stroke-linejoin="round" stroke-linecap="butt" d="m13.4973755 75.59974l76.223625 0l0 25.44197c-38.111813 0 -38.111813 9.693855 -76.223625 4.1859818z" fill-rule="evenodd"/><path fill="#660000" d="m47.306793 82.9776l1.203125 0l0 11.203125l-1.203125 0l0 -11.203125zm5.946762 7.671875l0.296875 1.703125l0.03125 0l0.3125 -1.734375l2.078125 -7.640625l1.234375 0l-3.390625 11.375l-0.640625 0l-3.4375 -11.375l1.328125 0l2.1875 7.671875z" fill-rule="nonzero"/><path fill="#000000" fill-opacity="0.0" d="m89.721 91.46241l37.889763 0" fill-rule="evenodd"/><path stroke="#000000" stroke-width="1.0" stroke-linejoin="round" stroke-linecap="butt" d="m89.72099 91.46242l31.889763 0" fill-rule="evenodd"/><path fill="#000000" stroke="#000000" stroke-width="1.0" stroke-linecap="butt" d="m121.610756 93.11414l4.538101 -1.6517258l-4.538101 -1.6517334z" fill-rule="evenodd"/><path fill="#c9daf8" d="m301.9895 121.27307l0 0c0 -2.919487 2.3666992 -5.286194 5.286194 -5.286194l68.010284 0c1.4019775 0 2.7465515 0.5569382 3.737915 1.5482864c0.991333 0.9913559 1.5482788 2.3359222 1.5482788 3.7379074l0 21.14415c0 2.9194794 -2.3666992 5.286194 -5.286194 5.286194l-68.010284 0l0 0c-2.9194946 0 -5.286194 -2.3667145 -5.286194 -5.286194z" fill-rule="evenodd"/><path stroke="#1c4587" stroke-width="1.0" stroke-linejoin="round" stroke-linecap="butt" d="m301.9895 121.27307l0 0c0 -2.919487 2.3666992 -5.286194 5.286194 -5.286194l68.010284 0c1.4019775 0 2.7465515 0.5569382 3.737915 1.5482864c0.991333 0.9913559 1.5482788 2.3359222 1.5482788 3.7379074l0 21.14415c0 2.9194794 -2.3666992 5.286194 -5.286194 5.286194l-68.010284 0l0 0c-2.9194946 0 -5.286194 -2.3667145 -5.286194 -5.286194z" fill-rule="evenodd"/><path fill="#1c4587" d="m321.6667 127.6114l-2.75 0l0 10.093742l-1.203125 0l0 -10.093742l-2.75 0l0 -1.109375l6.703125 0l0 1.109375zm1.370758 2.0937424l1.140625 0l0 8.0l-1.140625 0l0 -8.0zm-0.21875 -2.4374924q0 -0.375 0.21875 -0.609375q0.21875 -0.25 0.578125 -0.25q0.34375 0 0.578125 0.234375q0.234375 0.234375 0.234375 0.625q0 0.390625 -0.234375 0.609375q-0.234375 0.21874237 -0.578125 0.21874237q-0.359375 0 -0.578125 -0.21874237q-0.21875 -0.234375 -0.21875 -0.609375zm2.6907349 2.4374924l0.984375 0l0 -1.578125l1.140625 -0.37499237l0 1.9531174l1.734375 0l0 1.046875l-1.734375 0l0 4.765625q0 0.703125 0.171875 1.015625q0.171875 0.3125 0.546875 0.3125q0.328125 0 0.5625 -0.078125q0.234375 -0.078125 0.5 -0.1875l0.21875 0.921875q-0.34375 0.171875 -0.765625 0.265625q-0.421875 0.109375 -0.890625 0.109375q-0.796875 0 -1.140625 -0.515625q-0.34375 -0.515625 -0.34375 -1.6875l0 -4.921875l-0.984375 0l0 -1.046875zm6.9468994 4.40625l-0.59375 0l0 3.59375l-1.15625 0l0 -11.203117l1.15625 0l0 6.8124924l0.53125 -0.21875l1.875 -3.390625l1.328125 0l-1.890625 3.234375l-0.5625 0.515625l0.65625 0.625l2.0625 3.625l-1.390625 0l-2.015625 -3.59375zm3.9542542 -0.40625q0 -2.15625 0.734375 -3.171875q0.75 -1.015625 2.125 -1.015625q1.46875 0 2.15625 1.046875q0.703125 1.03125 0.703125 3.140625q0 2.171875 -0.75 3.1875q-0.75 1.0 -2.109375 1.0q-1.46875 0 -2.171875 -1.03125q-0.6875 -1.046875 -0.6875 -3.15625zm1.203125 0q0 0.703125 0.078125 1.28125q0.09375 0.578125 0.296875 1.0q0.203125 0.40625 0.515625 0.640625q0.328125 0.234375 0.765625 0.234375q0.828125 0 1.25 -0.75q0.421875 -0.75 0.421875 -2.40625q0 -0.6875 -0.09375 -1.265625q-0.09375 -0.59375 -0.296875 -1.0q-0.1875 -0.421875 -0.515625 -0.65625q-0.3125 -0.234375 -0.765625 -0.234375q-0.8125 0 -1.234375 0.765625q-0.421875 0.75 -0.421875 2.390625zm5.927643 2.6875q0.328125 0.1875 0.765625 0.328125q0.4375 0.140625 0.90625 0.140625q0.53125 0 0.890625 -0.265625q0.375 -0.265625 0.375 -0.859375q0 -0.5 -0.234375 -0.8125q-0.21875 -0.328125 -0.5625 -0.578125q-0.34375 -0.25 -0.75 -0.46875q-0.390625 -0.21875 -0.734375 -0.515625q-0.34375 -0.3125 -0.578125 -0.71875q-0.21875 -0.421875 -0.21875 -1.0625q0 -1.03125 0.546875 -1.546875q0.5625 -0.515625 1.5625 -0.515625q0.65625 0 1.140625 0.125q0.484375 0.109375 0.828125 0.3125l-0.296875 0.96875q-0.3125 -0.15625 -0.71875 -0.265625q-0.390625 -0.109375 -0.8125 -0.109375q-0.5625 0 -0.828125 0.25q-0.265625 0.234375 -0.265625 0.75q0 0.390625 0.21875 0.671875q0.21875 0.28125 0.5625 0.515625q0.34375 0.234375 0.75 0.484375q0.40625 0.234375 0.75 0.5625q0.34375 0.328125 0.5625 0.78125q0.21875 0.453125 0.21875 1.140625q0 0.453125 -0.140625 0.859375q-0.140625 0.390625 -0.4375 0.6875q-0.296875 0.296875 -0.734375 0.46875q-0.4375 0.171875 -1.03125 0.171875q-0.703125 0 -1.21875 -0.140625q-0.515625 -0.125 -0.859375 -0.34375l0.34375 -1.015625zm5.7517395 -6.6875l1.140625 0l0 8.0l-1.140625 0l0 -8.0zm0.5625 -3.5156174l1.234375 0l0 0.328125l-1.3125 2.0468674l-0.6875 0l0.765625 -2.3749924zm1.8938904 3.5156174l0.984375 0l0 -1.578125l1.140625 -0.37499237l0 1.9531174l1.734375 0l0 1.046875l-1.734375 0l0 4.765625q0 0.703125 0.171875 1.015625q0.171875 0.3125 0.546875 0.3125q0.328125 0 0.5625 -0.078125q0.234375 -0.078125 0.5 -0.1875l0.21875 0.921875q-0.34375 0.171875 -0.765625 0.265625q-0.421875 0.109375 -0.890625 0.109375q-0.796875 0 -1.140625 -0.515625q-0.34375 -0.515625 -0.34375 -1.6875l0 -4.921875l-0.984375 0l0 -1.046875zm5.118744 0.484375q0.46875 -0.296875 1.125 -0.453125q0.671875 -0.15625 1.40625 -0.15625q0.671875 0 1.078125 0.203125q0.40625 0.1875 0.640625 0.53125q0.234375 0.34375 0.296875 0.796875q0.078125 0.4375 0.078125 0.90625q0 0.96875 -0.046875 1.890625q-0.03125 0.90625 -0.03125 1.71875q0 0.609375 0.03125 1.125q0.046875 0.515625 0.15625 0.984375l-0.875 0l-0.265625 -0.9375l-0.0625 0q-0.25 0.40625 -0.71875 0.71875q-0.453125 0.296875 -1.234375 0.296875q-0.875 0 -1.421875 -0.59375q-0.546875 -0.609375 -0.546875 -1.65625q0 -0.6875 0.21875 -1.15625q0.234375 -0.46875 0.65625 -0.75q0.4375 -0.296875 1.015625 -0.40625q0.578125 -0.125 1.296875 -0.125q0.171875 0 0.328125 0q0.15625 0 0.328125 0.015625q0.0625 -0.5 0.0625 -0.875q0 -0.921875 -0.28125 -1.28125q-0.265625 -0.375 -0.984375 -0.375q-0.453125 0 -0.984375 0.140625q-0.53125 0.140625 -0.875 0.34375l-0.390625 -0.90625zm3.484375 3.875q-0.171875 -0.015625 -0.328125 -0.03125q-0.15625 -0.015625 -0.3125 -0.015625q-0.390625 0 -0.765625 0.078125q-0.359375 0.0625 -0.65625 0.21875q-0.28125 0.15625 -0.453125 0.4375q-0.171875 0.265625 -0.171875 0.6875q0 0.640625 0.3125 1.0q0.3125 0.34375 0.8125 0.34375q0.671875 0 1.03125 -0.3125q0.375 -0.328125 0.53125 -0.71875l0 -1.6875zm-1.625 -7.8749924l1.234375 0l0 0.328125l-1.3125 2.0468674l-0.6875 0l0.765625 -2.3749924zm4.4937744 10.203117q0.328125 0.1875 0.765625 0.328125q0.4375 0.140625 0.90625 0.140625q0.53125 0 0.890625 -0.265625q0.375 -0.265625 0.375 -0.859375q0 -0.5 -0.234375 -0.8125q-0.21875 -0.328125 -0.5625 -0.578125q-0.34375 -0.25 -0.75 -0.46875q-0.390625 -0.21875 -0.734375 -0.515625q-0.34375 -0.3125 -0.578125 -0.71875q-0.21875 -0.421875 -0.21875 -1.0625q0 -1.03125 0.546875 -1.546875q0.5625 -0.515625 1.5625 -0.515625q0.65625 0 1.140625 0.125q0.484375 0.109375 0.828125 0.3125l-0.296875 0.96875q-0.3125 -0.15625 -0.71875 -0.265625q-0.390625 -0.109375 -0.8125 -0.109375q-0.5625 0 -0.828125 0.25q-0.265625 0.234375 -0.265625 0.75q0 0.390625 0.21875 0.671875q0.21875 0.28125 0.5625 0.515625q0.34375 0.234375 0.75 0.484375q0.40625 0.234375 0.75 0.5625q0.34375 0.328125 0.5625 0.78125q0.21875 0.453125 0.21875 1.140625q0 0.453125 -0.140625 0.859375q-0.140625 0.390625 -0.4375 0.6875q-0.296875 0.296875 -0.734375 0.46875q-0.4375 0.171875 -1.03125 0.171875q-0.703125 0 -1.21875 -0.140625q-0.515625 -0.125 -0.859375 -0.34375l0.34375 -1.015625z" fill-rule="nonzero"/><path fill="#d9ead3" d="m301.9895 196.75328l78.58206 0l0 25.44197c-39.291046 0 -39.291046 9.693863 -78.58206 4.1859894z" fill-rule="evenodd"/><path stroke="#274e13" stroke-width="1.0" stroke-linejoin="round" stroke-linecap="butt" d="m301.9895 196.75328l78.58206 0l0 25.44197c-39.291046 0 -39.291046 9.693863 -78.58206 4.1859894z" fill-rule="evenodd"/><path fill="#274e13" d="m328.16473 204.13115l1.15625 0l0 7.5q0 2.046875 -0.796875 2.953125q-0.78125 0.890625 -2.25 0.890625q-1.6875 0 -2.46875 -0.875q-0.765625 -0.875 -0.765625 -2.703125l0 -7.765625l1.1875 0l0 7.140625q0 0.859375 0.109375 1.453125q0.125 0.59375 0.375 0.96875q0.25 0.359375 0.640625 0.53125q0.390625 0.15625 0.9375 0.15625q1.0625 0 1.46875 -0.734375q0.40625 -0.75 0.40625 -2.375l0 -7.140625zm-4.203125 -1.5q0 -0.34375 0.203125 -0.546875q0.203125 -0.203125 0.5625 -0.203125q0.328125 0 0.53125 0.203125q0.203125 0.203125 0.203125 0.546875q0 0.328125 -0.203125 0.53125q-0.203125 0.203125 -0.53125 0.203125q-0.359375 0 -0.5625 -0.203125q-0.203125 -0.203125 -0.203125 -0.53125zm2.53125 0q0 -0.34375 0.203125 -0.546875q0.203125 -0.203125 0.53125 -0.203125q0.359375 0 0.546875 0.203125q0.203125 0.203125 0.203125 0.546875q0 0.328125 -0.203125 0.53125q-0.1875 0.203125 -0.546875 0.203125q-0.328125 0 -0.53125 -0.203125q-0.203125 -0.203125 -0.203125 -0.53125zm4.3672485 11.65625l2.96875 -5.21875l0.5625 -0.6875l-3.53125 0l0 -1.046875l4.671875 0l0 1.046875l-3.0 5.265625l-0.546875 0.640625l3.546875 0l0 1.046875l-4.671875 0l0 -1.046875zm10.786774 0.5q-0.390625 0.359375 -0.984375 0.546875q-0.59375 0.1875 -1.25 0.1875q-0.75 0 -1.3125 -0.296875q-0.546875 -0.296875 -0.90625 -0.84375q-0.359375 -0.546875 -0.53125 -1.3125q-0.15625 -0.78125 -0.15625 -1.734375q0 -2.046875 0.75 -3.109375q0.75 -1.078125 2.125 -1.078125q0.453125 0 0.890625 0.109375q0.4375 0.109375 0.78125 0.453125q0.359375 0.328125 0.578125 0.9375q0.21875 0.609375 0.21875 1.578125q0 0.28125 -0.03125 0.59375q-0.015625 0.3125 -0.046875 0.640625l-4.0625 0q0 0.6875 0.109375 1.25q0.109375 0.5625 0.34375 0.953125q0.25 0.390625 0.625 0.609375q0.375 0.21875 0.9375 0.21875q0.421875 0 0.84375 -0.15625q0.4375 -0.171875 0.65625 -0.390625l0.421875 0.84375zm-0.90625 -4.28125q0.03125 -1.203125 -0.34375 -1.765625q-0.359375 -0.5625 -1.0 -0.5625q-0.734375 0 -1.171875 0.5625q-0.421875 0.5625 -0.5 1.765625l3.015625 0zm6.8267517 4.828125l0 -4.875q0 -1.203125 -0.28125 -1.734375q-0.28125 -0.546875 -1.0 -0.546875q-0.640625 0 -1.0625 0.390625q-0.421875 0.375 -0.609375 0.9375l0 5.828125l-1.15625 0l0 -8.0l0.84375 0l0.203125 0.84375l0.046875 0q0.3125 -0.421875 0.828125 -0.71875q0.515625 -0.3125 1.234375 -0.3125q0.515625 0 0.90625 0.140625q0.390625 0.140625 0.65625 0.484375q0.265625 0.34375 0.390625 0.921875q0.140625 0.578125 0.140625 1.453125l0 5.1875l-1.140625 0zm7.7115173 -0.546875q-0.390625 0.359375 -0.984375 0.546875q-0.59375 0.1875 -1.25 0.1875q-0.75 0 -1.3125 -0.296875q-0.546875 -0.296875 -0.90625 -0.84375q-0.359375 -0.546875 -0.53125 -1.3125q-0.15625 -0.78125 -0.15625 -1.734375q0 -2.046875 0.75 -3.109375q0.75 -1.078125 2.125 -1.078125q0.453125 0 0.890625 0.109375q0.4375 0.109375 0.78125 0.453125q0.359375 0.328125 0.578125 0.9375q0.21875 0.609375 0.21875 1.578125q0 0.28125 -0.03125 0.59375q-0.015625 0.3125 -0.046875 0.640625l-4.0625 0q0 0.6875 0.109375 1.25q0.109375 0.5625 0.34375 0.953125q0.25 0.390625 0.625 0.609375q0.375 0.21875 0.9375 0.21875q0.421875 0 0.84375 -0.15625q0.4375 -0.171875 0.65625 -0.390625l0.421875 0.84375zm-0.90625 -4.28125q0.03125 -1.203125 -0.34375 -1.765625q-0.359375 -0.5625 -1.0 -0.5625q-0.734375 0 -1.171875 0.5625q-0.421875 0.5625 -0.5 1.765625l3.015625 0zm1.9205322 -3.171875l0.984375 0l0 -1.578125l1.140625 -0.375l0 1.953125l1.734375 0l0 1.046875l-1.734375 0l0 4.765625q0 0.703125 0.171875 1.015625q0.171875 0.3125 0.546875 0.3125q0.328125 0 0.5625 -0.078125q0.234375 -0.078125 0.5 -0.1875l0.21875 0.921875q-0.34375 0.171875 -0.765625 0.265625q-0.421875 0.109375 -0.890625 0.109375q-0.796875 0 -1.140625 -0.515625q-0.34375 -0.515625 -0.34375 -1.6875l0 -4.921875l-0.984375 0l0 -1.046875z" fill-rule="nonzero"/><path fill="#f4cccc" d="m303.16797 35.212597l76.22363 0l0 25.44197c-38.111816 0 -38.111816 9.693859 -76.22363 4.1859856z" fill-rule="evenodd"/><path stroke="#660000" stroke-width="1.0" stroke-linejoin="round" stroke-linecap="butt" d="m303.16797 35.212597l76.22363 0l0 25.44197c-38.111816 0 -38.111816 9.693859 -76.22363 4.1859856z" fill-rule="evenodd"/><path fill="#660000" d="m333.9599 50.652958l-3.171875 0l-0.890625 3.140625l-1.1875 0l3.375 -11.375l0.65625 0l3.375 11.375l-1.25 0l-0.90625 -3.140625zm-2.84375 -1.0625l2.5625 0l-0.984375 -3.453125l-0.296875 -1.6875l-0.03125 0l-0.3125 1.71875l-0.9375 3.421875zm11.067993 1.453125q0 0.8125 0.015625 1.484375q0.015625 0.65625 0.109375 1.296875l-0.78125 0l-0.25 -0.953125l-0.0625 0q-0.234375 0.46875 -0.71875 0.796875q-0.46875 0.3125 -1.140625 0.3125q-1.296875 0 -1.9375 -1.0q-0.625 -1.015625 -0.625 -3.171875q0 -2.046875 0.765625 -3.09375q0.78125 -1.0625 2.140625 -1.0625q0.46875 0 0.734375 0.0625q0.28125 0.046875 0.59375 0.171875l0 -3.296875l1.15625 0l0 8.453125zm-1.15625 -3.984375q-0.21875 -0.1875 -0.5 -0.28125q-0.28125 -0.09375 -0.75 -0.09375q-0.84375 0 -1.3125 0.78125q-0.46875 0.765625 -0.46875 2.359375q0 0.703125 0.078125 1.28125q0.09375 0.5625 0.28125 0.984375q0.1875 0.40625 0.46875 0.640625q0.296875 0.21875 0.734375 0.21875q1.15625 0 1.46875 -1.359375l0 -4.53125zm2.959259 -0.78125q0.46875 -0.296875 1.125 -0.453125q0.671875 -0.15625 1.40625 -0.15625q0.671875 0 1.078125 0.203125q0.40625 0.1875 0.640625 0.53125q0.234375 0.34375 0.296875 0.796875q0.078125 0.4375 0.078125 0.90625q0 0.96875 -0.046875 1.890625q-0.03125 0.90625 -0.03125 1.71875q0 0.609375 0.03125 1.125q0.046875 0.515625 0.15625 0.984375l-0.875 0l-0.265625 -0.9375l-0.0625 0q-0.25 0.40625 -0.71875 0.71875q-0.453125 0.296875 -1.234375 0.296875q-0.875 0 -1.421875 -0.59375q-0.546875 -0.609375 -0.546875 -1.65625q0 -0.6875 0.21875 -1.15625q0.234375 -0.46875 0.65625 -0.75q0.4375 -0.296875 1.015625 -0.40625q0.578125 -0.125 1.296875 -0.125q0.171875 0 0.328125 0q0.15625 0 0.328125 0.015625q0.0625 -0.5 0.0625 -0.875q0 -0.921875 -0.28125 -1.28125q-0.265625 -0.375 -0.984375 -0.375q-0.453125 0 -0.984375 0.140625q-0.53125 0.140625 -0.875 0.34375l-0.390625 -0.90625zm3.484375 3.875q-0.171875 -0.015625 -0.328125 -0.03125q-0.15625 -0.015625 -0.3125 -0.015625q-0.390625 0 -0.765625 0.078125q-0.359375 0.0625 -0.65625 0.21875q-0.28125 0.15625 -0.453125 0.4375q-0.171875 0.265625 -0.171875 0.6875q0 0.640625 0.3125 1.0q0.3125 0.34375 0.8125 0.34375q0.671875 0 1.03125 -0.3125q0.375 -0.328125 0.53125 -0.71875l0 -1.6875zm2.1968994 -4.359375l0.984375 0l0 -1.578125l1.140625 -0.375l0 1.953125l1.734375 0l0 1.046875l-1.734375 0l0 4.765625q0 0.703125 0.171875 1.015625q0.171875 0.3125 0.546875 0.3125q0.328125 0 0.5625 -0.078125q0.234375 -0.078125 0.5 -0.1875l0.21875 0.921875q-0.34375 0.171875 -0.765625 0.265625q-0.421875 0.109375 -0.890625 0.109375q-0.796875 0 -1.140625 -0.515625q-0.34375 -0.515625 -0.34375 -1.6875l0 -4.921875l-0.984375 0l0 -1.046875z" fill-rule="nonzero"/><path fill="#fce5cd" d="m231.1811 121.27036l0 0c0 -2.9201508 11.290405 -5.2873993 25.21785 -5.2873993c13.927429 0 25.217834 2.3672485 25.217834 5.2873993l0 21.149605c0 2.9201508 -11.290405 5.2873993 -25.217834 5.2873993c-13.927444 0 -25.21785 -2.3672485 -25.21785 -5.2873993z" fill-rule="evenodd"/><path fill="#000000" fill-opacity="0.0" d="m281.6168 121.27036l0 0c0 2.9201508 -11.290405 5.2873993 -25.217834 5.2873993c-13.927444 0 -25.21785 -2.3672485 -25.21785 -5.2873993" fill-rule="evenodd"/><path fill="#000000" fill-opacity="0.0" d="m231.1811 121.27036l0 0c0 -2.9201508 11.290405 -5.2873993 25.21785 -5.2873993c13.927429 0 25.217834 2.3672485 25.217834 5.2873993l0 21.149605c0 2.9201508 -11.290405 5.2873993 -25.217834 5.2873993c-13.927444 0 -25.21785 -2.3672485 -25.21785 -5.2873993z" fill-rule="evenodd"/><path stroke="#783f04" stroke-width="1.0" stroke-linejoin="round" stroke-linecap="butt" d="m281.6168 121.27036l0 0c0 2.9201508 -11.290405 5.2873993 -25.217834 5.2873993c-13.927444 0 -25.21785 -2.3672485 -25.21785 -5.2873993" fill-rule="evenodd"/><path stroke="#783f04" stroke-width="1.0" stroke-linejoin="round" stroke-linecap="butt" d="m231.1811 121.27036l0 0c0 -2.9201508 11.290405 -5.2873993 25.21785 -5.2873993c13.927429 0 25.217834 2.3672485 25.217834 5.2873993l0 21.149605c0 2.9201508 -11.290405 5.2873993 -25.217834 5.2873993c-13.927444 0 -25.21785 -2.3672485 -25.21785 -5.2873993z" fill-rule="evenodd"/><path fill="#783f04" d="m244.5318 135.16136l-0.578125 0l0 5.1875l-1.1875 0l0 -11.203125l1.1875 0l0 5.21875l0.5625 -0.21875l2.921875 -5.0l1.375 0l-2.9375 4.828125l-0.5625 0.515625l0.65625 0.640625l3.25 5.21875l-1.515625 0l-3.171875 -5.1875zm6.739517 -2.8125l0 4.890625q0 1.21875 0.25 1.75q0.25 0.515625 0.90625 0.515625q0.328125 0 0.59375 -0.140625q0.265625 -0.140625 0.46875 -0.359375q0.21875 -0.21875 0.375 -0.5q0.15625 -0.296875 0.25 -0.609375l0 -5.546875l1.15625 0l0 5.734375q0 0.5625 0.03125 1.1875q0.046875 0.609375 0.125 1.078125l-0.8125 0l-0.28125 -1.125l-0.0625 0q-0.265625 0.53125 -0.78125 0.921875q-0.5 0.390625 -1.28125 0.390625q-0.5 0 -0.890625 -0.125q-0.390625 -0.125 -0.65625 -0.453125q-0.265625 -0.34375 -0.40625 -0.921875q-0.140625 -0.59375 -0.140625 -1.5l0 -5.1875l1.15625 0zm7.1315155 6.09375q0 0.5625 0.15625 0.8125q0.15625 0.234375 0.421875 0.234375q0.34375 0 0.78125 -0.1875l0.109375 0.9375q-0.203125 0.125 -0.578125 0.203125q-0.375 0.078125 -0.671875 0.078125q-0.609375 0 -0.984375 -0.375q-0.375 -0.375 -0.375 -1.3125l0 -9.6875l1.140625 0l0 9.296875zm6.915497 1.5q-0.40625 0.3125 -0.921875 0.453125q-0.5 0.140625 -1.0625 0.140625q-0.765625 0 -1.296875 -0.296875q-0.53125 -0.296875 -0.859375 -0.84375q-0.328125 -0.546875 -0.484375 -1.328125q-0.140625 -0.78125 -0.140625 -1.71875q0 -2.046875 0.71875 -3.109375q0.734375 -1.078125 2.09375 -1.078125q0.625 0 1.0625 0.109375q0.453125 0.109375 0.78125 0.28125l-0.328125 1.015625q-0.640625 -0.375 -1.390625 -0.375q-0.859375 0 -1.296875 0.765625q-0.4375 0.765625 -0.4375 2.390625q0 0.65625 0.09375 1.234375q0.09375 0.578125 0.3125 1.0q0.234375 0.421875 0.578125 0.671875q0.359375 0.25 0.875 0.25q0.421875 0 0.78125 -0.140625q0.359375 -0.15625 0.59375 -0.34375l0.328125 0.921875zm1.1491394 -0.90625q0.328125 0.1875 0.765625 0.328125q0.4375 0.140625 0.90625 0.140625q0.53125 0 0.890625 -0.265625q0.375 -0.265625 0.375 -0.859375q0 -0.5 -0.234375 -0.8125q-0.21875 -0.328125 -0.5625 -0.578125q-0.34375 -0.25 -0.75 -0.46875q-0.390625 -0.21875 -0.734375 -0.515625q-0.34375 -0.3125 -0.578125 -0.71875q-0.21875 -0.421875 -0.21875 -1.0625q0 -1.03125 0.546875 -1.546875q0.5625 -0.515625 1.5625 -0.515625q0.65625 0 1.140625 0.125q0.484375 0.109375 0.828125 0.3125l-0.296875 0.96875q-0.3125 -0.15625 -0.71875 -0.265625q-0.390625 -0.109375 -0.8125 -0.109375q-0.5625 0 -0.828125 0.25q-0.265625 0.234375 -0.265625 0.75q0 0.390625 0.21875 0.671875q0.21875 0.28125 0.5625 0.515625q0.34375 0.234375 0.75 0.484375q0.40625 0.234375 0.75 0.5625q0.34375 0.328125 0.5625 0.78125q0.21875 0.453125 0.21875 1.140625q0 0.453125 -0.140625 0.859375q-0.140625 0.390625 -0.4375 0.6875q-0.296875 0.296875 -0.734375 0.46875q-0.4375 0.171875 -1.03125 0.171875q-0.703125 0 -1.21875 -0.140625q-0.515625 -0.125 -0.859375 -0.34375l0.34375 -1.015625z" fill-rule="nonzero"/><path fill="#000000" fill-opacity="0.0" d="m281.6168 131.84517l20.37796 0" fill-rule="evenodd"/><path stroke="#000000" stroke-width="1.0" stroke-linejoin="round" stroke-linecap="butt" d="m281.6168 131.84517l16.950867 0" fill-rule="evenodd"/><path fill="#000000" stroke="#000000" stroke-width="1.0" stroke-linecap="butt" d="m298.56766 131.84517l-1.1245728 1.1245728l3.0897522 -1.1245728l-3.0897522 -1.124588z" fill-rule="evenodd"/><path fill="#000000" fill-opacity="0.0" d="m341.2798 64.84055l0 17.952759" fill-rule="evenodd"/><path stroke="#000000" stroke-width="1.0" stroke-linejoin="round" stroke-linecap="butt" d="m341.2798 64.84055l0 14.525665" fill-rule="evenodd"/><path fill="#000000" stroke="#000000" stroke-width="1.0" stroke-linecap="butt" d="m341.2798 79.36622l-1.1245728 -1.1245804l1.1245728 3.0897675l1.1246033 -3.0897675z" fill-rule="evenodd"/><path fill="#000000" fill-opacity="0.0" d="m341.28085 147.70341l0 49.039368" fill-rule="evenodd"/><path stroke="#000000" stroke-width="1.0" stroke-linejoin="round" stroke-linecap="butt" d="m341.28085 147.70341l0 45.61229" fill-rule="evenodd"/><path fill="#000000" stroke="#000000" stroke-width="1.0" stroke-linecap="butt" d="m341.28085 193.31569l-1.1246033 -1.1245728l1.1246033 3.0897675l1.1245728 -3.0897675z" fill-rule="evenodd"/><path fill="#efefef" d="m332.41293 91.461945l0 0c0 -4.7835693 3.969513 -8.661423 8.86615 -8.661423l0 0c2.3514404 0 4.6065674 0.91254425 6.269287 2.5368729c1.6627502 1.6243286 2.5968323 3.8274002 2.5968323 6.12455l0 0c0 4.7835693 -3.9694824 8.661415 -8.866119 8.661415l0 0c-4.896637 0 -8.86615 -3.8778458 -8.86615 -8.661415z" fill-rule="evenodd"/><path fill="#000000" fill-opacity="0.0" d="m341.27908 82.80052l0 17.322838m-8.86615 -8.661415l17.73227 0" fill-rule="evenodd"/><path fill="#000000" fill-opacity="0.0" d="m332.41293 91.461945l0 0c0 -4.7835693 3.969513 -8.661423 8.86615 -8.661423l0 0c2.3514404 0 4.6065674 0.91254425 6.269287 2.5368729c1.6627502 1.6243286 2.5968323 3.8274002 2.5968323 6.12455l0 0c0 4.7835693 -3.9694824 8.661415 -8.866119 8.661415l0 0c-4.896637 0 -8.86615 -3.8778458 -8.86615 -8.661415z" fill-rule="evenodd"/><path stroke="#434343" stroke-width="1.0" stroke-linejoin="round" stroke-linecap="butt" d="m341.27908 82.80052l0 17.322838m-8.86615 -8.661415l17.73227 0" fill-rule="evenodd"/><path stroke="#434343" stroke-width="1.0" stroke-linejoin="round" stroke-linecap="butt" d="m332.41293 91.461945l0 0c0 -4.7835693 3.969513 -8.661423 8.86615 -8.661423l0 0c2.3514404 0 4.6065674 0.91254425 6.269287 2.5368729c1.6627502 1.6243286 2.5968323 3.8274002 2.5968323 6.12455l0 0c0 4.7835693 -3.9694824 8.661415 -8.866119 8.661415l0 0c-4.896637 0 -8.86615 -3.8778458 -8.86615 -8.661415z" fill-rule="evenodd"/><path fill="#000000" fill-opacity="0.0" d="m341.27908 100.12336l0 15.874016" fill-rule="evenodd"/><path stroke="#000000" stroke-width="1.0" stroke-linejoin="round" stroke-linecap="butt" d="m341.27908 100.12336l0 12.44693" fill-rule="evenodd"/><path fill="#000000" stroke="#000000" stroke-width="1.0" stroke-linecap="butt" d="m341.27908 112.57029l-1.1246033 -1.124588l1.1246033 3.089775l1.1245728 -3.089775z" fill-rule="evenodd"/><path fill="#000000" fill-opacity="0.0" d="m136.49081 147.70341l0 25.000061l68.53093 0l0 -81.25203l127.40608 0" fill-rule="evenodd"/><path stroke="#000000" stroke-width="1.0" stroke-linejoin="round" stroke-linecap="butt" d="m136.49081 147.70341l0 25.000061l68.530914 0l0 -81.25203l123.979004 0" fill-rule="evenodd"/><path fill="#000000" stroke="#000000" stroke-width="1.0" stroke-linecap="butt" d="m329.00073 91.45145l-1.1245728 1.1245804l3.0897522 -1.1245804l-3.0897522 -1.124588z" fill-rule="evenodd"/><path fill="#fff2cc" d="m359.4882 75.5978l8.1102295 0l0 0l12.165375 0l28.385803 0l0 14.9186325l0 0l0 6.3936996l0 4.2624664l-28.385803 0l-12.165375 0l0 0l-8.1102295 0l0 -4.2624664l-5.876831 -5.2697754l5.876831 -1.1239243z" fill-rule="evenodd"/><path stroke="#7f6000" stroke-width="1.0" stroke-linejoin="round" stroke-linecap="butt" d="m359.4882 75.5978l8.1102295 0l0 0l12.165375 0l28.385803 0l0 14.9186325l0 0l0 6.3936996l0 4.2624664l-28.385803 0l-12.165375 0l0 0l-8.1102295 0l0 -4.2624664l-5.876831 -5.2697754l5.876831 -1.1239243z" fill-rule="evenodd"/><path fill="#7f6000" d="m370.64444 88.32832l-1.78125 -3.65625l0.953125 0l1.171875 2.515625l0.203125 0.625l0.21875 -0.625l1.21875 -2.515625l0.890625 0l-1.859375 3.578125l1.9375 3.875l-0.9375 0l-1.28125 -2.671875l-0.25 -0.65625l-0.21875 0.65625l-1.328125 2.671875l-0.890625 0l1.953125 -3.796875zm3.4117126 0.0625q0 -1.890625 0.609375 -2.875q0.609375 -0.984375 1.859375 -0.984375q0.671875 0 1.140625 0.28125q0.46875 0.265625 0.75 0.765625q0.296875 0.5 0.4375 1.21875q0.140625 0.71875 0.140625 1.59375q0 1.90625 -0.609375 2.890625q-0.609375 0.96875 -1.859375 0.96875q-0.65625 0 -1.125 -0.265625q-0.46875 -0.28125 -0.78125 -0.78125q-0.296875 -0.5 -0.4375 -1.203125q-0.125 -0.71875 -0.125 -1.609375zm0.84375 0q0 0.640625 0.09375 1.203125q0.09375 0.5625 0.28125 0.984375q0.1875 0.421875 0.5 0.6875q0.3125 0.25 0.75 0.25q0.796875 0 1.203125 -0.765625q0.421875 -0.765625 0.421875 -2.359375q0 -0.609375 -0.09375 -1.171875q-0.078125 -0.578125 -0.28125 -1.0q-0.1875 -0.4375 -0.5 -0.6875q-0.296875 -0.265625 -0.75 -0.265625q-0.796875 0 -1.21875 0.78125q-0.40625 0.765625 -0.40625 2.34375zm5.240967 -3.65625q0.34375 -0.078125 0.765625 -0.109375q0.421875 -0.046875 0.78125 -0.046875q0.40625 0 0.78125 0.109375q0.375 0.09375 0.640625 0.34375q0.28125 0.234375 0.4375 0.625q0.171875 0.390625 0.171875 0.96875q0 0.890625 -0.375 1.421875q-0.359375 0.53125 -0.953125 0.703125l0.390625 0.40625l1.484375 2.96875l-0.9375 0l-1.59375 -3.25l-0.796875 -0.15625l0 3.40625l-0.796875 0l0 -7.390625zm0.796875 3.453125l0.640625 0q0.609375 0 0.953125 -0.375q0.359375 -0.375 0.359375 -1.140625q0 -0.59375 -0.296875 -0.96875q-0.296875 -0.390625 -0.875 -0.390625q-0.203125 0 -0.4375 0.015625q-0.234375 0.015625 -0.34375 0.046875l0 2.8125z" fill-rule="nonzero"/></g></svg>