<svg version="1.1" viewBox="0.0 0.0 386.6666666666667 219.59317585301838" fill="none" stroke="none" stroke-linecap="square" stroke-miterlimit="10" xmlns:xlink="http://www.w3.org/1999/xlink" xmlns="http://www.w3.org/2000/svg"><clipPath id="p.0"><path d="m0 0l386.66666 0l0 219.59317l-386.66666 0l0 -219.59317z" clip-rule="nonzero"/></clipPath><g clip-path="url(#p.0)"><path fill="#000000" fill-opacity="0.0" d="m0 0l386.66666 0l0 219.59317l-386.66666 0z" fill-rule="evenodd"/><path fill="#c9daf8" d="m99.69685 88.00798l0 0c0 -2.919487 2.3667068 -5.286194 5.286194 -5.286194l67.31737 0c1.4019928 0 2.7465515 0.5569382 3.737915 1.5482864c0.99134827 0.9913559 1.5482788 2.3359222 1.5482788 3.7379074l0 21.144142c0 2.919487 -2.3666992 5.2862015 -5.286194 5.2862015l-67.31737 0l0 0c-2.919487 0 -5.286194 -2.3667145 -5.286194 -5.2862015z" fill-rule="evenodd"/><path stroke="#1c4587" stroke-width="1.0" stroke-linejoin="round" stroke-linecap="butt" d="m99.69685 88.00798l0 0c0 -2.919487 2.3667068 -5.286194 5.286194 -5.286194l67.31737 0c1.4019928 0 2.7465515 0.5569382 3.737915 1.5482864c0.99134827 0.9913559 1.5482788 2.3359222 1.5482788 3.7379074l0 21.144142c0 2.919487 -2.3666992 5.2862015 -5.286194 5.2862015l-67.31737 0l0 0c-2.919487 0 -5.286194 -2.3667145 -5.286194 -5.2862015z" fill-rule="evenodd"/><path fill="#1c4587" d="m122.30276 94.9738l-2.28125 0l0 8.40625l-1.0 0l0 -8.40625l-2.296875 0l0 -0.921875l5.578125 0l0 0.921875zm1.1451569 1.75l0.953125 0l0 6.65625l-0.953125 0l0 -6.65625zm-0.1875 -2.03125q0 -0.328125 0.1875 -0.515625q0.1875 -0.203125 0.46875 -0.203125q0.296875 0 0.484375 0.203125q0.203125 0.1875 0.203125 0.515625q0 0.3125 -0.203125 0.5q-0.1875 0.171875 -0.484375 0.171875q-0.28125 0 -0.46875 -0.1875q-0.1875 -0.1875 -0.1875 -0.484375zm2.2515717 2.03125l0.8125 0l0 -1.328125l0.953125 -0.3125l0 1.640625l1.4375076 0l0 0.859375l-1.4375076 0l0 3.96875q0 0.59375 0.140625 0.859375q0.140625 0.25 0.46875 0.25q0.26563263 0 0.45313263 -0.0625q0.1875 -0.0625 0.421875 -0.15625l0.1875 0.765625q-0.296875 0.140625 -0.65625 0.21875q-0.34375763 0.09375 -0.7343826 0.09375q-0.671875 0 -0.953125 -0.421875q-0.28125 -0.4375 -0.28125 -1.40625l0 -4.109375l-0.8125 0l0 -0.859375zm5.774605 3.65625l-0.484375 0l0 3.0l-0.96875 0l0 -9.328125l0.96875 0l0 5.671875l0.4375 -0.1875l1.5625 -2.8125l1.0937347 0l-1.5624847 2.6875l-0.46875 0.421875l0.546875 0.515625l1.7187347 3.03125l-1.1562347 0l-1.6875 -3.0zm3.3035736 -0.328125q0 -1.796875 0.609375 -2.640625q0.625 -0.859375 1.765625 -0.859375q1.234375 0 1.8125 0.875q0.578125 0.859375 0.578125 2.625q0 1.8125 -0.625 2.65625q-0.625 0.828125 -1.765625 0.828125q-1.21875 0 -1.796875 -0.859375q-0.578125 -0.875 -0.578125 -2.625zm1.0 0q0 0.578125 0.0625 1.0625q0.078125 0.484375 0.234375 0.828125q0.171875 0.34375 0.4375 0.546875q0.265625 0.1875 0.640625 0.1875q0.703125 0 1.046875 -0.625q0.34375 -0.625 0.34375 -2.0q0 -0.578125 -0.078125 -1.0625q-0.0625 -0.484375 -0.234375 -0.828125q-0.171875 -0.359375 -0.4375 -0.546875q-0.265625 -0.1875 -0.640625 -0.1875q-0.671875 0 -1.03125 0.625q-0.34375 0.625 -0.34375 2.0zm4.945236 2.234375q0.265625 0.15625 0.625 0.28125q0.359375 0.109375 0.75 0.109375q0.4375 0 0.75 -0.21875q0.3125 -0.21875 0.3125 -0.71875q0 -0.40625 -0.1875 -0.671875q-0.1875 -0.265625 -0.484375 -0.484375q-0.28125 -0.21875 -0.625 -0.390625q-0.328125 -0.1875 -0.609375 -0.4375q-0.28125 -0.25 -0.46875 -0.59375q-0.1875 -0.359375 -0.1875 -0.890625q0 -0.84375 0.453125 -1.28125q0.46875 -0.4375 1.296875 -0.4375q0.546875 0 0.953125 0.109375q0.40625 0.09375 0.6875 0.265625l-0.25 0.796875q-0.25 -0.125 -0.59375 -0.203125q-0.328125 -0.09375 -0.671875 -0.09375q-0.484375 0 -0.703125 0.203125q-0.21875 0.1875 -0.21875 0.625q0 0.328125 0.1875 0.5625q0.1875 0.234375 0.46875 0.4375q0.296875 0.1875 0.625 0.390625q0.328125 0.1875 0.609375 0.46875q0.296875 0.265625 0.484375 0.65625q0.1875 0.375 0.1875 0.9375q0 0.375 -0.125 0.71875q-0.109375 0.328125 -0.359375 0.578125q-0.25 0.234375 -0.625 0.375q-0.359375 0.15625 -0.84375 0.15625q-0.59375 0 -1.015625 -0.109375q-0.421875 -0.109375 -0.71875 -0.296875l0.296875 -0.84375zm4.770508 -5.5625l0.96875 0l0 6.65625l-0.96875 0l0 -6.65625zm0.46875 -2.9375l1.046875 0l0 0.28125l-1.09375 1.703125l-0.578125 0l0.625 -1.984375zm1.5953217 2.9375l0.8125 0l0 -1.328125l0.953125 -0.3125l0 1.640625l1.4375 0l0 0.859375l-1.4375 0l0 3.96875q0 0.59375 0.140625 0.859375q0.140625 0.25 0.46875 0.25q0.265625 0 0.453125 -0.0625q0.1875 -0.0625 0.421875 -0.15625l0.1875 0.765625q-0.296875 0.140625 -0.65625 0.21875q-0.34375 0.09375 -0.734375 0.09375q-0.671875 0 -0.953125 -0.421875q-0.28125 -0.4375 -0.28125 -1.40625l0 -4.109375l-0.8125 0l0 -0.859375zm4.258972 0.390625q0.390625 -0.234375 0.9375 -0.359375q0.5625 -0.140625 1.171875 -0.140625q0.5625 0 0.890625 0.171875q0.34375 0.15625 0.53125 0.453125q0.203125 0.28125 0.265625 0.65625q0.0625 0.359375 0.0625 0.75q0 0.796875 -0.046875 1.5625q-0.03125 0.765625 -0.03125 1.4375q0 0.515625 0.03125 0.953125q0.046875 0.421875 0.140625 0.8125l-0.734375 0l-0.234375 -0.796875l-0.046875 0q-0.203125 0.359375 -0.59375 0.609375q-0.390625 0.25 -1.03125 0.25q-0.71875 0 -1.1875 -0.5q-0.453125 -0.5 -0.453125 -1.375q0 -0.578125 0.1875 -0.953125q0.1875 -0.390625 0.546875 -0.625q0.359375 -0.25 0.84375 -0.34375q0.484375 -0.109375 1.078125 -0.109375q0.140625 0 0.265625 0q0.140625 0 0.28125 0.015625q0.046875 -0.421875 0.046875 -0.734375q0 -0.765625 -0.234375 -1.0625q-0.21875 -0.3125 -0.828125 -0.3125q-0.359375 0 -0.8125 0.125q-0.4375 0.109375 -0.71875 0.28125l-0.328125 -0.765625zm2.890625 3.234375q-0.125 -0.015625 -0.265625 -0.015625q-0.125 -0.015625 -0.265625 -0.015625q-0.3125 0 -0.625 0.0625q-0.3125 0.046875 -0.546875 0.1875q-0.234375 0.125 -0.375 0.359375q-0.140625 0.21875 -0.140625 0.5625q0 0.53125 0.25 0.828125q0.265625 0.296875 0.671875 0.296875q0.5625 0 0.859375 -0.265625q0.3125 -0.28125 0.4375 -0.59375l0 -1.40625zm-1.1875 -6.5625l1.046875 0l0 0.28125l-1.09375 1.703125l-0.578125 0l0.625 -1.984375zm3.5968628 8.5q0.265625 0.15625 0.625 0.28125q0.359375 0.109375 0.75 0.109375q0.4375 0 0.75 -0.21875q0.3125 -0.21875 0.3125 -0.71875q0 -0.40625 -0.1875 -0.671875q-0.1875 -0.265625 -0.484375 -0.484375q-0.28125 -0.21875 -0.625 -0.390625q-0.328125 -0.1875 -0.609375 -0.4375q-0.28125 -0.25 -0.46875 -0.59375q-0.1875 -0.359375 -0.1875 -0.890625q0 -0.84375 0.453125 -1.28125q0.46875 -0.4375 1.296875 -0.4375q0.546875 0 0.953125 0.109375q0.40625 0.09375 0.6875 0.265625l-0.25 0.796875q-0.25 -0.125 -0.59375 -0.203125q-0.328125 -0.09375 -0.671875 -0.09375q-0.484375 0 -0.703125 0.203125q-0.21875 0.1875 -0.21875 0.625q0 0.328125 0.1875 0.5625q0.1875 0.234375 0.46875 0.4375q0.296875 0.1875 0.625 0.390625q0.328125 0.1875 0.609375 0.46875q0.296875 0.265625 0.484375 0.65625q0.1875 0.375 0.1875 0.9375q0 0.375 -0.125 0.71875q-0.109375 0.328125 -0.359375 0.578125q-0.25 0.234375 -0.625 0.375q-0.359375 0.15625 -0.84375 0.15625q-0.59375 0 -1.015625 -0.109375q-0.421875 -0.109375 -0.71875 -0.296875l0.296875 -0.84375z" fill-rule="nonzero"/><path fill="#d9ead3" d="m106.156166 174.44357l64.970085 0l0 25.44197c-32.485046 0 -32.485046 9.693863 -64.970085 4.185974z" fill-rule="evenodd"/><path stroke="#274e13" stroke-width="1.0" stroke-linejoin="round" stroke-linecap="butt" d="m106.156166 174.44357l64.970085 0l0 25.44197c-32.485046 0 -32.485046 9.693863 -64.970085 4.185974z" fill-rule="evenodd"/><path fill="#274e13" d="m127.71256 182.63643l0.9687576 0l0 6.25q0 1.6875 -0.671875 2.453125q-0.6562576 0.75 -1.8593826 0.75q-1.421875 0 -2.0625 -0.734375q-0.640625 -0.734375 -0.640625 -2.25l0 -6.46875l1.0 0l0 5.9375q0 0.71875 0.09375 1.21875q0.09375 0.5 0.296875 0.8125q0.21875 0.296875 0.53125 0.4375q0.328125 0.125 0.796875 0.125q0.875 0 1.203125 -0.609375q0.34375 -0.625 0.34375 -1.984375l0 -5.9375zm-3.328125 -1.25q0 -0.28125 0.171875 -0.453125q0.171875 -0.171875 0.453125 -0.171875q0.28125 0 0.453125 0.171875q0.171875 0.171875 0.171875 0.453125q0 0.28125 -0.171875 0.453125q-0.171875 0.15625 -0.453125 0.15625q-0.28125 0 -0.453125 -0.15625q-0.171875 -0.171875 -0.171875 -0.453125zm2.109375 0q0 -0.28125 0.15625 -0.453125q0.171875 -0.171875 0.453125 -0.171875q0.296875 0 0.453125 0.171875q0.171875 0.171875 0.171875 0.453125q0 0.28125 -0.171875 0.453125q-0.15625 0.15625 -0.453125 0.15625q-0.28125 0 -0.453125 -0.15625q-0.15625 -0.171875 -0.15625 -0.453125zm3.4595566 9.71875l2.484375 -4.359375l0.46875 -0.578125l-2.953125 0l0 -0.859375l3.890625 0l0 0.859375l-2.484375 4.390625l-0.453125 0.546875l2.9375 0l0 0.859375l-3.890625 0l0 -0.859375zm8.981857 0.40625q-0.3125 0.296875 -0.8125 0.453125q-0.484375 0.15625 -1.03125 0.15625q-0.625 0 -1.09375 -0.234375q-0.453125 -0.25 -0.765625 -0.703125q-0.296875 -0.46875 -0.4375 -1.109375q-0.125 -0.640625 -0.125 -1.4375q0 -1.703125 0.625 -2.59375q0.625 -0.90625 1.765625 -0.90625q0.375 0 0.734375 0.09375q0.375 0.09375 0.65625 0.375q0.296875 0.28125 0.46875 0.796875q0.1875 0.5 0.1875 1.3125q0 0.21875 -0.015625 0.484375q-0.015625 0.265625 -0.046875 0.546875l-3.375 0q0 0.5625 0.078125 1.03125q0.09375 0.46875 0.296875 0.796875q0.203125 0.328125 0.515625 0.515625q0.3125 0.171875 0.78125 0.171875q0.359375 0 0.703125 -0.125q0.359375 -0.140625 0.546875 -0.328125l0.34375 0.703125zm-0.734375 -3.578125q0.015625 -1.0 -0.296875 -1.453125q-0.296875 -0.46875 -0.828125 -0.46875q-0.609375 0 -0.96875 0.46875q-0.359375 0.453125 -0.4375 1.453125l2.53125 0zm5.6763763 4.03125l0 -4.0625q0 -1.0 -0.234375 -1.4375q-0.234375 -0.453125 -0.84375 -0.453125q-0.53125 0 -0.875 0.328125q-0.34375 0.3125 -0.5 0.78125l0 4.84375l-0.96875 0l0 -6.65625l0.703125 0l0.171875 0.703125l0.03125 0q0.265625 -0.359375 0.6875 -0.609375q0.4375 -0.265625 1.03125 -0.265625q0.4375 0 0.75 0.125q0.328125 0.125 0.546875 0.40625q0.234375 0.28125 0.34375 0.765625q0.109375 0.484375 0.109375 1.21875l0 4.3125l-0.953125 0zm6.4135284 -0.453125q-0.3125 0.296875 -0.8125 0.453125q-0.484375 0.15625 -1.03125 0.15625q-0.625 0 -1.09375 -0.234375q-0.453125 -0.25 -0.765625 -0.703125q-0.296875 -0.46875 -0.4375 -1.109375q-0.125 -0.640625 -0.125 -1.4375q0 -1.703125 0.625 -2.59375q0.625 -0.90625 1.765625 -0.90625q0.375 0 0.734375 0.09375q0.375 0.09375 0.65625 0.375q0.296875 0.28125 0.46875 0.796875q0.1875 0.5 0.1875 1.3125q0 0.21875 -0.015625 0.484375q-0.015625 0.265625 -0.046875 0.546875l-3.375 0q0 0.5625 0.078125 1.03125q0.09375 0.46875 0.296875 0.796875q0.203125 0.328125 0.515625 0.515625q0.3125 0.171875 0.78125 0.171875q0.359375 0 0.703125 -0.125q0.359375 -0.140625 0.546875 -0.328125l0.34375 0.703125zm-0.734375 -3.578125q0.015625 -1.0 -0.296875 -1.453125q-0.296875 -0.46875 -0.828125 -0.46875q-0.609375 0 -0.96875 0.46875q-0.359375 0.453125 -0.4375 1.453125l2.53125 0zm1.5982513 -2.625l0.8125 0l0 -1.328125l0.953125 -0.3125l0 1.640625l1.4375 0l0 0.859375l-1.4375 0l0 3.96875q0 0.59375 0.140625 0.859375q0.140625 0.25 0.46875 0.25q0.265625 0 0.453125 -0.0625q0.1875 -0.0625 0.421875 -0.15625l0.1875 0.765625q-0.296875 0.140625 -0.65625 0.21875q-0.34375 0.09375 -0.734375 0.09375q-0.671875 0 -0.953125 -0.421875q-0.28125 -0.4375 -0.28125 -1.40625l0 -4.109375l-0.8125 0l0 -0.859375z" fill-rule="nonzero"/><path fill="#f4cccc" d="m17.079859 128.57874l64.97008 0l0 25.44197c-32.485035 0 -32.485035 9.693863 -64.97008 4.1859894z" fill-rule="evenodd"/><path stroke="#660000" stroke-width="1.0" stroke-linejoin="round" stroke-linecap="butt" d="m17.079859 128.57874l64.97008 0l0 25.44197c-32.485035 0 -32.485035 9.693863 -64.97008 4.1859894z" fill-rule="evenodd"/><path fill="#660000" d="m43.46655 143.49036l-2.640625 0l-0.75 2.609375l-0.984375 0l2.8125 -9.46875l0.546875 0l2.8125 9.46875l-1.03125 0l-0.765625 -2.609375zm-2.375 -0.890625l2.140625 0l-0.8125 -2.890625l-0.265625 -1.390625l-0.015625 0l-0.25 1.421875l-0.796875 2.859375zm9.226059 1.203125q0 0.6875 0.015625 1.25q0.015625 0.546875 0.09375 1.078125l-0.65625 0l-0.21875 -0.796875l-0.046875 0q-0.1875 0.390625 -0.59375 0.65625q-0.390625 0.265625 -0.953125 0.265625q-1.078125 0 -1.609375 -0.828125q-0.515625 -0.84375 -0.515625 -2.640625q0 -1.71875 0.640625 -2.59375q0.640625 -0.875 1.78125 -0.875q0.390625 0 0.609375 0.046875q0.234375 0.046875 0.5 0.15625l0 -2.75l0.953125 0l0 7.03125zm-0.953125 -3.3125q-0.1875 -0.15625 -0.421875 -0.234375q-0.234375 -0.078125 -0.625 -0.078125q-0.703125 0 -1.09375 0.640625q-0.390625 0.640625 -0.390625 1.96875q0 0.59375 0.0625 1.078125q0.078125 0.46875 0.234375 0.8125q0.15625 0.34375 0.390625 0.53125q0.25 0.1875 0.609375 0.1875q0.96875 0 1.234375 -1.140625l0 -3.765625zm2.4585571 -0.65625q0.390625 -0.234375 0.9375 -0.359375q0.5625 -0.140625 1.171875 -0.140625q0.5625 0 0.890625 0.171875q0.34375 0.15625 0.53125 0.453125q0.203125 0.28125 0.265625 0.65625q0.0625 0.359375 0.0625 0.75q0 0.796875 -0.046875 1.5625q-0.03125 0.765625 -0.03125 1.4375q0 0.515625 0.03125 0.953125q0.046875 0.421875 0.140625 0.8125l-0.734375 0l-0.234375 -0.796875l-0.046875 0q-0.203125 0.359375 -0.59375 0.609375q-0.390625 0.25 -1.03125 0.25q-0.71875 0 -1.1875 -0.5q-0.453125 -0.5 -0.453125 -1.375q0 -0.578125 0.1875 -0.953125q0.1875 -0.390625 0.546875 -0.625q0.359375 -0.25 0.84375 -0.34375q0.484375 -0.109375 1.078125 -0.109375q0.140625 0 0.265625 0q0.140625 0 0.28125 0.015625q0.046875 -0.421875 0.046875 -0.734375q0 -0.765625 -0.234375 -1.0625q-0.21875 -0.3125 -0.828125 -0.3125q-0.359375 0 -0.8125 0.125q-0.4375 0.109375 -0.71875 0.28125l-0.328125 -0.765625zm2.890625 3.234375q-0.125 -0.015625 -0.265625 -0.015625q-0.125 -0.015625 -0.265625 -0.015625q-0.3125 0 -0.625 0.0625q-0.3125 0.046875 -0.546875 0.1875q-0.234375 0.125 -0.375 0.359375q-0.140625 0.21875 -0.140625 0.5625q0 0.53125 0.25 0.828125q0.265625 0.296875 0.671875 0.296875q0.5625 0 0.859375 -0.265625q0.3125 -0.28125 0.4375 -0.59375l0 -1.40625zm1.8468628 -3.625l0.8125 0l0 -1.328125l0.953125 -0.3125l0 1.640625l1.4375 0l0 0.859375l-1.4375 0l0 3.96875q0 0.59375 0.140625 0.859375q0.140625 0.25 0.46875 0.25q0.265625 0 0.453125 -0.0625q0.1875 -0.0625 0.421875 -0.15625l0.1875 0.765625q-0.296875 0.140625 -0.65625 0.21875q-0.34375 0.09375 -0.734375 0.09375q-0.671875 0 -0.953125 -0.421875q-0.28125 -0.4375 -0.28125 -1.40625l0 -4.109375l-0.8125 0l0 -0.859375z" fill-rule="nonzero"/><path fill="#fce5cd" d="m24.347769 87.65881l0 0c0 -2.9201508 11.290415 -5.2873993 25.217848 -5.2873993c13.927433 0 25.217846 2.3672485 25.217846 5.2873993l0 21.149605c0 2.9201584 -11.290413 5.287407 -25.217846 5.287407c-13.927433 0 -25.217848 -2.3672485 -25.217848 -5.287407z" fill-rule="evenodd"/><path fill="#000000" fill-opacity="0.0" d="m74.78346 87.65881l0 0c0 2.9201508 -11.290413 5.287407 -25.217846 5.287407c-13.927433 0 -25.217848 -2.3672562 -25.217848 -5.287407" fill-rule="evenodd"/><path fill="#000000" fill-opacity="0.0" d="m24.347769 87.65881l0 0c0 -2.9201508 11.290415 -5.2873993 25.217848 -5.2873993c13.927433 0 25.217846 2.3672485 25.217846 5.2873993l0 21.149605c0 2.9201584 -11.290413 5.287407 -25.217846 5.287407c-13.927433 0 -25.217848 -2.3672485 -25.217848 -5.287407z" fill-rule="evenodd"/><path stroke="#783f04" stroke-width="1.0" stroke-linejoin="round" stroke-linecap="butt" d="m74.78346 87.65881l0 0c0 2.9201508 -11.290413 5.287407 -25.217846 5.287407c-13.927433 0 -25.217848 -2.3672562 -25.217848 -5.287407" fill-rule="evenodd"/><path stroke="#783f04" stroke-width="1.0" stroke-linejoin="round" stroke-linecap="butt" d="m24.347769 87.65881l0 0c0 -2.9201508 11.290415 -5.2873993 25.217848 -5.2873993c13.927433 0 25.217846 2.3672485 25.217846 5.2873993l0 21.149605c0 2.9201584 -11.290413 5.287407 -25.217846 5.287407c-13.927433 0 -25.217848 -2.3672485 -25.217848 -5.287407z" fill-rule="evenodd"/><path fill="#783f04" d="m39.678623 101.36482l-0.46875 0l0 4.3125l-1.0 0l0 -9.328125l1.0 0l0 4.34375l0.453125 -0.1875l2.4375 -4.15625l1.140625 0l-2.4375 4.03125l-0.46875 0.421875l0.546875 0.53125l2.703125 4.34375l-1.265625 0l-2.640625 -4.3125zm5.618866 -2.34375l0 4.078125q0 1.0 0.203125 1.4375q0.203125 0.4375 0.75 0.4375q0.28125 0 0.5 -0.109375q0.21875 -0.125 0.390625 -0.3125q0.171875 -0.1875 0.296875 -0.421875q0.140625 -0.234375 0.234375 -0.5l0 -4.609375l0.953125 0l0 4.765625q0 0.484375 0.03125 1.0q0.03125 0.5 0.109375 0.890625l-0.6875 0l-0.234375 -0.9375l-0.046875 0q-0.21875 0.4375 -0.65625 0.765625q-0.421875 0.328125 -1.0625 0.328125q-0.421875 0 -0.75 -0.109375q-0.3125 -0.09375 -0.546875 -0.375q-0.21875 -0.28125 -0.34375 -0.765625q-0.109375 -0.5 -0.109375 -1.25l0 -4.3125l0.96875 0zm5.940628 5.0625q0 0.46875 0.125 0.671875q0.125 0.203125 0.359375 0.203125q0.28125 0 0.65625 -0.140625l0.078125 0.765625q-0.171875 0.109375 -0.484375 0.171875q-0.3125 0.0625 -0.5625 0.0625q-0.5 0 -0.8125 -0.3125q-0.3125 -0.3125 -0.3125 -1.09375l0 -8.0625l0.953125 0l0 7.734375zm5.761692 1.265625q-0.34375 0.25 -0.7656288 0.359375q-0.421875 0.125 -0.890625 0.125q-0.640625 0 -1.078125 -0.234375q-0.4375 -0.25 -0.71875 -0.703125q-0.265625 -0.46875 -0.390625 -1.109375q-0.125 -0.65625 -0.125 -1.4375q0 -1.703125 0.59375 -2.59375q0.609375 -0.90625 1.75 -0.90625q0.515625 0 0.890625 0.09375q0.3750038 0.09375 0.6406288 0.25l-0.265625 0.828125q-0.5312538 -0.296875 -1.1562538 -0.296875q-0.734375 0 -1.09375 0.640625q-0.359375 0.625 -0.359375 1.984375q0 0.546875 0.078125 1.03125q0.078125 0.46875 0.265625 0.828125q0.1875 0.34375 0.46875 0.5625q0.296875 0.203125 0.734375 0.203125q0.359375 0 0.65625 -0.125q0.2968788 -0.125 0.4843788 -0.28125l0.28125 0.78125zm0.96354675 -0.765625q0.265625 0.15625 0.625 0.28125q0.359375 0.109375 0.75 0.109375q0.4375 0 0.75 -0.21875q0.3125 -0.21875 0.3125 -0.71875q0 -0.40625 -0.1875 -0.671875q-0.1875 -0.265625 -0.484375 -0.484375q-0.28125 -0.21875 -0.625 -0.390625q-0.328125 -0.1875 -0.609375 -0.4375q-0.28125 -0.25 -0.46875 -0.59375q-0.1875 -0.359375 -0.1875 -0.890625q0 -0.84375 0.453125 -1.28125q0.46875 -0.4375 1.296875 -0.4375q0.546875 0 0.953125 0.109375q0.40625 0.09375 0.6875 0.265625l-0.25 0.796875q-0.25 -0.125 -0.59375 -0.203125q-0.328125 -0.09375 -0.671875 -0.09375q-0.484375 0 -0.703125 0.203125q-0.21875 0.1875 -0.21875 0.625q0 0.328125 0.1875 0.5625q0.1875 0.234375 0.46875 0.4375q0.296875 0.1875 0.625 0.390625q0.328125 0.1875 0.609375 0.46875q0.296875 0.265625 0.484375 0.65625q0.1875 0.375 0.1875 0.9375q0 0.375 -0.125 0.71875q-0.109375 0.328125 -0.359375 0.578125q-0.25 0.234375 -0.625 0.375q-0.359375 0.15625 -0.84375 0.15625q-0.59375 0 -1.015625 -0.109375q-0.421875 -0.109375 -0.71875 -0.296875l0.296875 -0.84375z" fill-rule="nonzero"/><path fill="#000000" fill-opacity="0.0" d="m74.78346 98.23362l24.913391 0.34645844" fill-rule="evenodd"/><path stroke="#000000" stroke-width="1.0" stroke-linejoin="round" stroke-linecap="butt" d="m74.78346 98.23362l21.486633 0.2987976" fill-rule="evenodd"/><path fill="#000000" stroke="#000000" stroke-width="1.0" stroke-linecap="butt" d="m96.270096 98.53242l-1.1401138 1.108841l3.1051102 -1.0815125l-3.0738373 -1.1674423z" fill-rule="evenodd"/><path fill="#000000" fill-opacity="0.0" d="m82.049934 144.44142l47.716545 0" fill-rule="evenodd"/><path stroke="#000000" stroke-width="1.0" stroke-linejoin="round" stroke-linecap="butt" d="m82.049934 144.44142l44.28946 0" fill-rule="evenodd"/><path fill="#000000" stroke="#000000" stroke-width="1.0" stroke-linecap="butt" d="m126.339386 144.44142l-1.1245804 1.1245728l3.089775 -1.1245728l-3.089775 -1.124588z" fill-rule="evenodd"/><path fill="#f4cccc" d="m99.696846 35.834644l77.8904 0l0 25.441975c-38.945206 0 -38.945206 9.693855 -77.8904 4.1859818z" fill-rule="evenodd"/><path stroke="#660000" stroke-width="1.0" stroke-linejoin="round" stroke-linecap="butt" d="m99.696846 35.834644l77.8904 0l0 25.441975c-38.945206 0 -38.945206 9.693855 -77.8904 4.1859818z" fill-rule="evenodd"/><path fill="#660000" d="m111.70013 44.027504l1.0 0l0 9.328125l-1.0 0l0 -9.328125zm4.964813 6.375l0.234375 1.4375l0.03125 0l0.265625 -1.453125l1.734375 -6.359375l1.03125 0l-2.828125 9.46875l-0.53125 0l-2.875 -9.46875l1.109375 0l1.828125 6.375zm6.2389374 -2.015625l1.84375 0l0 -2.078125l0.90625 0l0 2.078125l1.828125 0l0 0.890625l-1.828125 0l0 2.078125l-0.90625 0l0 -2.078125l-1.84375 0l0 -0.890625zm13.622337 4.609375q-0.34375 0.28125 -0.84375 0.390625q-0.5 0.125 -1.0625 0.125q-0.703125 0 -1.3125 -0.265625q-0.59375 -0.265625 -1.03125 -0.84375q-0.4375 -0.578125 -0.671875 -1.5q-0.234375 -0.921875 -0.234375 -2.21875q0 -1.328125 0.265625 -2.25q0.28125 -0.921875 0.734375 -1.484375q0.453125 -0.578125 1.046875 -0.828125q0.59375 -0.25 1.21875 -0.25q0.640625 0 1.046875 0.09375q0.421875 0.09375 0.734375 0.21875l-0.234375 0.90625q-0.265625 -0.140625 -0.640625 -0.21875q-0.359375 -0.078125 -0.8125 -0.078125q-0.46875 0 -0.890625 0.203125q-0.40625 0.203125 -0.734375 0.671875q-0.3125 0.453125 -0.5 1.203125q-0.1875 0.734375 -0.1875 1.8125q0 1.953125 0.65625 2.9375q0.671875 0.96875 1.78125 0.96875q0.453125 0 0.8125 -0.125q0.359375 -0.125 0.609375 -0.296875l0.25 0.828125zm0.4965515 -2.96875q0 -1.796875 0.609375 -2.640625q0.625 -0.859375 1.765625 -0.859375q1.234375 0 1.8125 0.875q0.578125 0.859375 0.578125 2.625q0 1.8125 -0.625 2.65625q-0.625 0.828125 -1.765625 0.828125q-1.21875 0 -1.796875 -0.859375q-0.578125 -0.875 -0.578125 -2.625zm1.0 0q0 0.578125 0.0625 1.0625q0.078125 0.484375 0.234375 0.828125q0.171875 0.34375 0.4375 0.546875q0.265625 0.1875 0.640625 0.1875q0.703125 0 1.046875 -0.625q0.34375 -0.625 0.34375 -2.0q0 -0.578125 -0.078125 -1.0625q-0.0625 -0.484375 -0.234375 -0.828125q-0.171875 -0.359375 -0.4375 -0.546875q-0.265625 -0.1875 -0.640625 -0.1875q-0.671875 0 -1.03125 0.625q-0.34375 0.625 -0.34375 2.0zm5.913986 -3.328125l0 4.078125q0 1.0 0.203125 1.4375q0.203125 0.4375 0.75 0.4375q0.28125 0 0.5 -0.109375q0.21875 -0.125 0.390625 -0.3125q0.171875 -0.1875 0.296875 -0.421875q0.140625 -0.234375 0.234375 -0.5l0 -4.609375l0.953125 0l0 4.765625q0 0.484375 0.03125 1.0q0.03125 0.5 0.109375 0.890625l-0.6875 0l-0.234375 -0.9375l-0.046875 0q-0.21875 0.4375 -0.65625 0.765625q-0.421875 0.328125 -1.0625 0.328125q-0.421875 0 -0.75 -0.109375q-0.3125 -0.09375 -0.546875 -0.375q-0.21875 -0.28125 -0.34375 -0.765625q-0.109375 -0.5 -0.109375 -1.25l0 -4.3125l0.96875 0zm8.331253 6.65625l0 -4.0625q0 -1.0 -0.234375 -1.4375q-0.234375 -0.453125 -0.84375 -0.453125q-0.53125 0 -0.875 0.328125q-0.34375 0.3125 -0.5 0.78125l0 4.84375l-0.96875 0l0 -6.65625l0.703125 0l0.171875 0.703125l0.03125 0q0.265625 -0.359375 0.6875 -0.609375q0.4375 -0.265625 1.03125 -0.265625q0.4375 0 0.75 0.125q0.328125 0.125 0.546875 0.40625q0.234375 0.28125 0.34375 0.765625q0.109375 0.484375 0.109375 1.21875l0 4.3125l-0.953125 0zm1.7729034 -6.65625l0.8125 0l0 -1.328125l0.953125 -0.3125l0 1.640625l1.4375 0l0 0.859375l-1.4375 0l0 3.96875q0 0.59375 0.140625 0.859375q0.140625 0.25 0.46875 0.25q0.265625 0 0.453125 -0.0625q0.1875 -0.0625 0.421875 -0.15625l0.1875 0.765625q-0.296875 0.140625 -0.65625 0.21875q-0.34375 0.09375 -0.734375 0.09375q-0.671875 0 -0.953125 -0.421875q-0.28125 -0.4375 -0.28125 -1.40625l0 -4.109375l-0.8125 0l0 -0.859375zm8.199173 6.203125q-0.3125 0.296875 -0.8125 0.453125q-0.484375 0.15625 -1.03125 0.15625q-0.625 0 -1.09375 -0.234375q-0.453125 -0.25 -0.765625 -0.703125q-0.296875 -0.46875 -0.4375 -1.109375q-0.125 -0.640625 -0.125 -1.4375q0 -1.703125 0.625 -2.59375q0.625 -0.90625 1.765625 -0.90625q0.375 0 0.734375 0.09375q0.375 0.09375 0.65625 0.375q0.296875 0.28125 0.46875 0.796875q0.1875 0.5 0.1875 1.3125q0 0.21875 -0.015625 0.484375q-0.015625 0.265625 -0.046875 0.546875l-3.375 0q0 0.5625 0.078125 1.03125q0.09375 0.46875 0.296875 0.796875q0.203125 0.328125 0.515625 0.515625q0.3125 0.171875 0.78125 0.171875q0.359375 0 0.703125 -0.125q0.359375 -0.140625 0.546875 -0.328125l0.34375 0.703125zm-0.734375 -3.578125q0.015625 -1.0 -0.296875 -1.453125q-0.296875 -0.46875 -0.828125 -0.46875q-0.609375 0 -0.96875 0.46875q-0.359375 0.453125 -0.4375 1.453125l2.53125 0zm2.2545013 -2.625l0.6875 0l0.171875 0.703125l0.03125 0q0.1875 -0.390625 0.484375 -0.609375q0.3125 -0.21875 0.734375 -0.21875q0.3125 0 0.6875 0.125l-0.171875 0.96875q-0.359375 -0.125 -0.625 -0.125q-0.421875 0 -0.6875 0.25q-0.265625 0.25 -0.34375 0.65625l0 4.90625l-0.96875 0l0 -6.65625z" fill-rule="nonzero"/><path fill="#000000" fill-opacity="0.0" d="m138.64204 65.4626l0 17.259842" fill-rule="evenodd"/><path stroke="#000000" stroke-width="1.0" stroke-linejoin="round" stroke-linecap="butt" d="m138.64204 65.4626l0 13.832756" fill-rule="evenodd"/><path fill="#000000" stroke="#000000" stroke-width="1.0" stroke-linecap="butt" d="m138.64204 79.29536l-1.1245728 -1.1245804l1.1245728 3.0897675l1.124588 -3.0897675z" fill-rule="evenodd"/><path fill="#efefef" d="m129.77644 144.43964l0 0c0 -4.7835693 3.969513 -8.661423 8.86615 -8.661423l0 0c2.3514404 0 4.6065826 0.9125366 6.2693024 2.5368652c1.662735 1.6243439 2.5968323 3.8274078 2.5968323 6.1245575l0 0c0 4.7835693 -3.9694977 8.661407 -8.866135 8.661407l0 0c-4.896637 0 -8.86615 -3.8778381 -8.86615 -8.661407z" fill-rule="evenodd"/><path fill="#000000" fill-opacity="0.0" d="m138.6426 135.77821l0 17.32283m-8.86615 -8.661407l17.732285 0" fill-rule="evenodd"/><path fill="#000000" fill-opacity="0.0" d="m129.77644 144.43964l0 0c0 -4.7835693 3.969513 -8.661423 8.86615 -8.661423l0 0c2.3514404 0 4.6065826 0.9125366 6.2693024 2.5368652c1.662735 1.6243439 2.5968323 3.8274078 2.5968323 6.1245575l0 0c0 4.7835693 -3.9694977 8.661407 -8.866135 8.661407l0 0c-4.896637 0 -8.86615 -3.8778381 -8.86615 -8.661407z" fill-rule="evenodd"/><path stroke="#434343" stroke-width="1.0" stroke-linejoin="round" stroke-linecap="butt" d="m138.6426 135.77821l0 17.32283m-8.86615 -8.661407l17.732285 0" fill-rule="evenodd"/><path stroke="#434343" stroke-width="1.0" stroke-linejoin="round" stroke-linecap="butt" d="m129.77644 144.43964l0 0c0 -4.7835693 3.969513 -8.661423 8.86615 -8.661423l0 0c2.3514404 0 4.6065826 0.9125366 6.2693024 2.5368652c1.662735 1.6243439 2.5968323 3.8274078 2.5968323 6.1245575l0 0c0 4.7835693 -3.9694977 8.661407 -8.866135 8.661407l0 0c-4.896637 0 -8.86615 -3.8778381 -8.86615 -8.661407z" fill-rule="evenodd"/><path fill="#000000" fill-opacity="0.0" d="m138.6426 153.10104l0 21.35434" fill-rule="evenodd"/><path stroke="#000000" stroke-width="1.0" stroke-linejoin="round" stroke-linecap="butt" d="m138.6426 153.10104l0 17.927246" fill-rule="evenodd"/><path fill="#000000" stroke="#000000" stroke-width="1.0" stroke-linecap="butt" d="m138.6426 171.02829l-1.124588 -1.1245728l1.124588 3.0897675l1.124588 -3.0897675z" fill-rule="evenodd"/><path fill="#000000" fill-opacity="0.0" d="m138.64174 114.438324l0 21.354324" fill-rule="evenodd"/><path stroke="#000000" stroke-width="1.0" stroke-linejoin="round" stroke-linecap="butt" d="m138.64174 114.438324l0 17.927246" fill-rule="evenodd"/><path fill="#000000" stroke="#000000" stroke-width="1.0" stroke-linecap="butt" d="m138.64174 132.36557l-1.124588 -1.124588l1.124588 3.0897675l1.1245728 -3.0897675z" fill-rule="evenodd"/><path fill="#c9daf8" d="m291.69684 88.00798l0 0c0 -2.919487 2.3667297 -5.286194 5.286194 -5.286194l67.31738 0c1.4019775 0 2.7465515 0.5569382 3.737915 1.5482864c0.991333 0.9913559 1.5482788 2.3359222 1.5482788 3.7379074l0 21.144142c0 2.919487 -2.3666992 5.2862015 -5.286194 5.2862015l-67.31738 0l0 0c-2.919464 0 -5.286194 -2.3667145 -5.286194 -5.2862015z" fill-rule="evenodd"/><path stroke="#1c4587" stroke-width="1.0" stroke-linejoin="round" stroke-linecap="butt" d="m291.69684 88.00798l0 0c0 -2.919487 2.3667297 -5.286194 5.286194 -5.286194l67.31738 0c1.4019775 0 2.7465515 0.5569382 3.737915 1.5482864c0.991333 0.9913559 1.5482788 2.3359222 1.5482788 3.7379074l0 21.144142c0 2.919487 -2.3666992 5.2862015 -5.286194 5.2862015l-67.31738 0l0 0c-2.919464 0 -5.286194 -2.3667145 -5.286194 -5.2862015z" fill-rule="evenodd"/><path fill="#1c4587" d="m314.30276 94.9738l-2.28125 0l0 8.40625l-1.0 0l0 -8.40625l-2.296875 0l0 -0.921875l5.578125 0l0 0.921875zm1.1451416 1.75l0.953125 0l0 6.65625l-0.953125 0l0 -6.65625zm-0.1875 -2.03125q0 -0.328125 0.1875 -0.515625q0.1875 -0.203125 0.46875 -0.203125q0.296875 0 0.484375 0.203125q0.203125 0.1875 0.203125 0.515625q0 0.3125 -0.203125 0.5q-0.1875 0.171875 -0.484375 0.171875q-0.28125 0 -0.46875 -0.1875q-0.1875 -0.1875 -0.1875 -0.484375zm2.251587 2.03125l0.8125 0l0 -1.328125l0.953125 -0.3125l0 1.640625l1.4375 0l0 0.859375l-1.4375 0l0 3.96875q0 0.59375 0.140625 0.859375q0.140625 0.25 0.46875 0.25q0.265625 0 0.453125 -0.0625q0.1875 -0.0625 0.421875 -0.15625l0.1875 0.765625q-0.296875 0.140625 -0.65625 0.21875q-0.34375 0.09375 -0.734375 0.09375q-0.671875 0 -0.953125 -0.421875q-0.28125 -0.4375 -0.28125 -1.40625l0 -4.109375l-0.8125 0l0 -0.859375zm5.774597 3.65625l-0.484375 0l0 3.0l-0.96875 0l0 -9.328125l0.96875 0l0 5.671875l0.4375 -0.1875l1.5625 -2.8125l1.09375 0l-1.5625 2.6875l-0.46875 0.421875l0.546875 0.515625l1.71875 3.03125l-1.15625 0l-1.6875 -3.0zm3.3035889 -0.328125q0 -1.796875 0.609375 -2.640625q0.625 -0.859375 1.765625 -0.859375q1.234375 0 1.8125 0.875q0.578125 0.859375 0.578125 2.625q0 1.8125 -0.625 2.65625q-0.625 0.828125 -1.765625 0.828125q-1.21875 0 -1.796875 -0.859375q-0.578125 -0.875 -0.578125 -2.625zm1.0 0q0 0.578125 0.0625 1.0625q0.078125 0.484375 0.234375 0.828125q0.171875 0.34375 0.4375 0.546875q0.265625 0.1875 0.640625 0.1875q0.703125 0 1.046875 -0.625q0.34375 -0.625 0.34375 -2.0q0 -0.578125 -0.078125 -1.0625q-0.0625 -0.484375 -0.234375 -0.828125q-0.171875 -0.359375 -0.4375 -0.546875q-0.265625 -0.1875 -0.640625 -0.1875q-0.671875 0 -1.03125 0.625q-0.34375 0.625 -0.34375 2.0zm4.945221 2.234375q0.265625 0.15625 0.625 0.28125q0.359375 0.109375 0.75 0.109375q0.4375 0 0.75 -0.21875q0.3125 -0.21875 0.3125 -0.71875q0 -0.40625 -0.1875 -0.671875q-0.1875 -0.265625 -0.484375 -0.484375q-0.28125 -0.21875 -0.625 -0.390625q-0.328125 -0.1875 -0.609375 -0.4375q-0.28125 -0.25 -0.46875 -0.59375q-0.1875 -0.359375 -0.1875 -0.890625q0 -0.84375 0.453125 -1.28125q0.46875 -0.4375 1.296875 -0.4375q0.546875 0 0.953125 0.109375q0.40625 0.09375 0.6875 0.265625l-0.25 0.796875q-0.25 -0.125 -0.59375 -0.203125q-0.328125 -0.09375 -0.671875 -0.09375q-0.484375 0 -0.703125 0.203125q-0.21875 0.1875 -0.21875 0.625q0 0.328125 0.1875 0.5625q0.1875 0.234375 0.46875 0.4375q0.296875 0.1875 0.625 0.390625q0.328125 0.1875 0.609375 0.46875q0.296875 0.265625 0.484375 0.65625q0.1875 0.375 0.1875 0.9375q0 0.375 -0.125 0.71875q-0.109375 0.328125 -0.359375 0.578125q-0.25 0.234375 -0.625 0.375q-0.359375 0.15625 -0.84375 0.15625q-0.59375 0 -1.015625 -0.109375q-0.421875 -0.109375 -0.71875 -0.296875l0.296875 -0.84375zm4.770508 -5.5625l0.96875 0l0 6.65625l-0.96875 0l0 -6.65625zm0.46875 -2.9375l1.046875 0l0 0.28125l-1.09375 1.703125l-0.578125 0l0.625 -1.984375zm1.5953369 2.9375l0.8125 0l0 -1.328125l0.953125 -0.3125l0 1.640625l1.4375 0l0 0.859375l-1.4375 0l0 3.96875q0 0.59375 0.140625 0.859375q0.140625 0.25 0.46875 0.25q0.265625 0 0.453125 -0.0625q0.1875 -0.0625 0.421875 -0.15625l0.1875 0.765625q-0.296875 0.140625 -0.65625 0.21875q-0.34375 0.09375 -0.734375 0.09375q-0.671875 0 -0.953125 -0.421875q-0.28125 -0.4375 -0.28125 -1.40625l0 -4.109375l-0.8125 0l0 -0.859375zm4.258972 0.390625q0.390625 -0.234375 0.9375 -0.359375q0.5625 -0.140625 1.171875 -0.140625q0.5625 0 0.890625 0.171875q0.34375 0.15625 0.53125 0.453125q0.203125 0.28125 0.265625 0.65625q0.0625 0.359375 0.0625 0.75q0 0.796875 -0.046875 1.5625q-0.03125 0.765625 -0.03125 1.4375q0 0.515625 0.03125 0.953125q0.046875 0.421875 0.140625 0.8125l-0.734375 0l-0.234375 -0.796875l-0.046875 0q-0.203125 0.359375 -0.59375 0.609375q-0.390625 0.25 -1.03125 0.25q-0.71875 0 -1.1875 -0.5q-0.453125 -0.5 -0.453125 -1.375q0 -0.578125 0.1875 -0.953125q0.1875 -0.390625 0.546875 -0.625q0.359375 -0.25 0.84375 -0.34375q0.484375 -0.109375 1.078125 -0.109375q0.140625 0 0.265625 0q0.140625 0 0.28125 0.015625q0.046875 -0.421875 0.046875 -0.734375q0 -0.765625 -0.234375 -1.0625q-0.21875 -0.3125 -0.828125 -0.3125q-0.359375 0 -0.8125 0.125q-0.4375 0.109375 -0.71875 0.28125l-0.328125 -0.765625zm2.890625 3.234375q-0.125 -0.015625 -0.265625 -0.015625q-0.125 -0.015625 -0.265625 -0.015625q-0.3125 0 -0.625 0.0625q-0.3125 0.046875 -0.546875 0.1875q-0.234375 0.125 -0.375 0.359375q-0.140625 0.21875 -0.140625 0.5625q0 0.53125 0.25 0.828125q0.265625 0.296875 0.671875 0.296875q0.5625 0 0.859375 -0.265625q0.3125 -0.28125 0.4375 -0.59375l0 -1.40625zm-1.1875 -6.5625l1.046875 0l0 0.28125l-1.09375 1.703125l-0.578125 0l0.625 -1.984375zm3.5968628 8.5q0.265625 0.15625 0.625 0.28125q0.359375 0.109375 0.75 0.109375q0.4375 0 0.75 -0.21875q0.3125 -0.21875 0.3125 -0.71875q0 -0.40625 -0.1875 -0.671875q-0.1875 -0.265625 -0.484375 -0.484375q-0.28125 -0.21875 -0.625 -0.390625q-0.328125 -0.1875 -0.609375 -0.4375q-0.28125 -0.25 -0.46875 -0.59375q-0.1875 -0.359375 -0.1875 -0.890625q0 -0.84375 0.453125 -1.28125q0.46875 -0.4375 1.296875 -0.4375q0.546875 0 0.953125 0.109375q0.40625 0.09375 0.6875 0.265625l-0.25 0.796875q-0.25 -0.125 -0.59375 -0.203125q-0.328125 -0.09375 -0.671875 -0.09375q-0.484375 0 -0.703125 0.203125q-0.21875 0.1875 -0.21875 0.625q0 0.328125 0.1875 0.5625q0.1875 0.234375 0.46875 0.4375q0.296875 0.1875 0.625 0.390625q0.328125 0.1875 0.609375 0.46875q0.296875 0.265625 0.484375 0.65625q0.1875 0.375 0.1875 0.9375q0 0.375 -0.125 0.71875q-0.109375 0.328125 -0.359375 0.578125q-0.25 0.234375 -0.625 0.375q-0.359375 0.15625 -0.84375 0.15625q-0.59375 0 -1.015625 -0.109375q-0.421875 -0.109375 -0.71875 -0.296875l0.296875 -0.84375z" fill-rule="nonzero"/><path fill="#d9ead3" d="m298.15616 174.44357l64.97009 0l0 25.44197c-32.485046 0 -32.485046 9.693863 -64.97009 4.185974z" fill-rule="evenodd"/><path stroke="#274e13" stroke-width="1.0" stroke-linejoin="round" stroke-linecap="butt" d="m298.15616 174.44357l64.97009 0l0 25.44197c-32.485046 0 -32.485046 9.693863 -64.97009 4.185974z" fill-rule="evenodd"/><path fill="#274e13" d="m319.71255 182.63643l0.96875 0l0 6.25q0 1.6875 -0.671875 2.453125q-0.65625 0.75 -1.859375 0.75q-1.421875 0 -2.0625 -0.734375q-0.640625 -0.734375 -0.640625 -2.25l0 -6.46875l1.0 0l0 5.9375q0 0.71875 0.09375 1.21875q0.09375 0.5 0.296875 0.8125q0.21875 0.296875 0.53125 0.4375q0.328125 0.125 0.796875 0.125q0.875 0 1.203125 -0.609375q0.34375 -0.625 0.34375 -1.984375l0 -5.9375zm-3.328125 -1.25q0 -0.28125 0.171875 -0.453125q0.171875 -0.171875 0.453125 -0.171875q0.28125 0 0.453125 0.171875q0.171875 0.171875 0.171875 0.453125q0 0.28125 -0.171875 0.453125q-0.171875 0.15625 -0.453125 0.15625q-0.28125 0 -0.453125 -0.15625q-0.171875 -0.171875 -0.171875 -0.453125zm2.109375 0q0 -0.28125 0.15625 -0.453125q0.171875 -0.171875 0.453125 -0.171875q0.296875 0 0.453125 0.171875q0.171875 0.171875 0.171875 0.453125q0 0.28125 -0.171875 0.453125q-0.15625 0.15625 -0.453125 0.15625q-0.28125 0 -0.453125 -0.15625q-0.15625 -0.171875 -0.15625 -0.453125zm3.4595642 9.71875l2.484375 -4.359375l0.46875 -0.578125l-2.953125 0l0 -0.859375l3.890625 0l0 0.859375l-2.484375 4.390625l-0.453125 0.546875l2.9375 0l0 0.859375l-3.890625 0l0 -0.859375zm8.981842 0.40625q-0.3125 0.296875 -0.8125 0.453125q-0.484375 0.15625 -1.03125 0.15625q-0.625 0 -1.09375 -0.234375q-0.453125 -0.25 -0.765625 -0.703125q-0.296875 -0.46875 -0.4375 -1.109375q-0.125 -0.640625 -0.125 -1.4375q0 -1.703125 0.625 -2.59375q0.625 -0.90625 1.765625 -0.90625q0.375 0 0.734375 0.09375q0.375 0.09375 0.65625 0.375q0.296875 0.28125 0.46875 0.796875q0.1875 0.5 0.1875 1.3125q0 0.21875 -0.015625 0.484375q-0.015625 0.265625 -0.046875 0.546875l-3.375 0q0 0.5625 0.078125 1.03125q0.09375 0.46875 0.296875 0.796875q0.203125 0.328125 0.515625 0.515625q0.3125 0.171875 0.78125 0.171875q0.359375 0 0.703125 -0.125q0.359375 -0.140625 0.546875 -0.328125l0.34375 0.703125zm-0.734375 -3.578125q0.015625 -1.0 -0.296875 -1.453125q-0.296875 -0.46875 -0.828125 -0.46875q-0.609375 0 -0.96875 0.46875q-0.359375 0.453125 -0.4375 1.453125l2.53125 0zm5.6763916 4.03125l0 -4.0625q0 -1.0 -0.234375 -1.4375q-0.234375 -0.453125 -0.84375 -0.453125q-0.53125 0 -0.875 0.328125q-0.34375 0.3125 -0.5 0.78125l0 4.84375l-0.96875 0l0 -6.65625l0.703125 0l0.171875 0.703125l0.03125 0q0.265625 -0.359375 0.6875 -0.609375q0.4375 -0.265625 1.03125 -0.265625q0.4375 0 0.75 0.125q0.328125 0.125 0.546875 0.40625q0.234375 0.28125 0.34375 0.765625q0.109375 0.484375 0.109375 1.21875l0 4.3125l-0.953125 0zm6.413513 -0.453125q-0.3125 0.296875 -0.8125 0.453125q-0.484375 0.15625 -1.03125 0.15625q-0.625 0 -1.09375 -0.234375q-0.453125 -0.25 -0.765625 -0.703125q-0.296875 -0.46875 -0.4375 -1.109375q-0.125 -0.640625 -0.125 -1.4375q0 -1.703125 0.625 -2.59375q0.625 -0.90625 1.765625 -0.90625q0.375 0 0.734375 0.09375q0.375 0.09375 0.65625 0.375q0.296875 0.28125 0.46875 0.796875q0.1875 0.5 0.1875 1.3125q0 0.21875 -0.015625 0.484375q-0.015625 0.265625 -0.046875 0.546875l-3.375 0q0 0.5625 0.078125 1.03125q0.09375 0.46875 0.296875 0.796875q0.203125 0.328125 0.515625 0.515625q0.3125 0.171875 0.78125 0.171875q0.359375 0 0.703125 -0.125q0.359375 -0.140625 0.546875 -0.328125l0.34375 0.703125zm-0.734375 -3.578125q0.015625 -1.0 -0.296875 -1.453125q-0.296875 -0.46875 -0.828125 -0.46875q-0.609375 0 -0.96875 0.46875q-0.359375 0.453125 -0.4375 1.453125l2.53125 0zm1.5982666 -2.625l0.8125 0l0 -1.328125l0.953125 -0.3125l0 1.640625l1.4375 0l0 0.859375l-1.4375 0l0 3.96875q0 0.59375 0.140625 0.859375q0.140625 0.25 0.46875 0.25q0.265625 0 0.453125 -0.0625q0.1875 -0.0625 0.421875 -0.15625l0.1875 0.765625q-0.296875 0.140625 -0.65625 0.21875q-0.34375 0.09375 -0.734375 0.09375q-0.671875 0 -0.953125 -0.421875q-0.28125 -0.4375 -0.28125 -1.40625l0 -4.109375l-0.8125 0l0 -0.859375z" fill-rule="nonzero"/><path fill="#f4cccc" d="m209.07986 128.57874l64.97006 0l0 25.44197c-32.48503 0 -32.48503 9.693863 -64.97006 4.1859894z" fill-rule="evenodd"/><path stroke="#660000" stroke-width="1.0" stroke-linejoin="round" stroke-linecap="butt" d="m209.07986 128.57874l64.97006 0l0 25.44197c-32.48503 0 -32.48503 9.693863 -64.97006 4.1859894z" fill-rule="evenodd"/><path fill="#660000" d="m235.46655 143.49036l-2.640625 0l-0.75 2.609375l-0.984375 0l2.8125 -9.46875l0.546875 0l2.8125 9.46875l-1.03125 0l-0.765625 -2.609375zm-2.375 -0.890625l2.140625 0l-0.8125 -2.890625l-0.265625 -1.390625l-0.015625 0l-0.25 1.421875l-0.796875 2.859375zm9.226059 1.203125q0 0.6875 0.015625 1.25q0.015625 0.546875 0.09375 1.078125l-0.65625 0l-0.21875 -0.796875l-0.046875 0q-0.1875 0.390625 -0.59375 0.65625q-0.390625 0.265625 -0.953125 0.265625q-1.078125 0 -1.609375 -0.828125q-0.515625 -0.84375 -0.515625 -2.640625q0 -1.71875 0.640625 -2.59375q0.640625 -0.875 1.78125 -0.875q0.390625 0 0.609375 0.046875q0.234375 0.046875 0.5 0.15625l0 -2.75l0.953125 0l0 7.03125zm-0.953125 -3.3125q-0.1875 -0.15625 -0.421875 -0.234375q-0.234375 -0.078125 -0.625 -0.078125q-0.703125 0 -1.09375 0.640625q-0.390625 0.640625 -0.390625 1.96875q0 0.59375 0.0625 1.078125q0.078125 0.46875 0.234375 0.8125q0.15625 0.34375 0.390625 0.53125q0.25 0.1875 0.609375 0.1875q0.96875 0 1.234375 -1.140625l0 -3.765625zm2.4585571 -0.65625q0.390625 -0.234375 0.9375 -0.359375q0.5625 -0.140625 1.171875 -0.140625q0.5625 0 0.890625 0.171875q0.34375 0.15625 0.53125 0.453125q0.203125 0.28125 0.265625 0.65625q0.0625 0.359375 0.0625 0.75q0 0.796875 -0.046875 1.5625q-0.03125 0.765625 -0.03125 1.4375q0 0.515625 0.03125 0.953125q0.046875 0.421875 0.140625 0.8125l-0.734375 0l-0.234375 -0.796875l-0.046875 0q-0.203125 0.359375 -0.59375 0.609375q-0.390625 0.25 -1.03125 0.25q-0.71875 0 -1.1875 -0.5q-0.453125 -0.5 -0.453125 -1.375q0 -0.578125 0.1875 -0.953125q0.1875 -0.390625 0.546875 -0.625q0.359375 -0.25 0.84375 -0.34375q0.484375 -0.109375 1.078125 -0.109375q0.140625 0 0.265625 0q0.140625 0 0.28125 0.015625q0.046875 -0.421875 0.046875 -0.734375q0 -0.765625 -0.234375 -1.0625q-0.21875 -0.3125 -0.828125 -0.3125q-0.359375 0 -0.8125 0.125q-0.4375 0.109375 -0.71875 0.28125l-0.328125 -0.765625zm2.890625 3.234375q-0.125 -0.015625 -0.265625 -0.015625q-0.125 -0.015625 -0.265625 -0.015625q-0.3125 0 -0.625 0.0625q-0.3125 0.046875 -0.546875 0.1875q-0.234375 0.125 -0.375 0.359375q-0.140625 0.21875 -0.140625 0.5625q0 0.53125 0.25 0.828125q0.265625 0.296875 0.671875 0.296875q0.5625 0 0.859375 -0.265625q0.3125 -0.28125 0.4375 -0.59375l0 -1.40625zm1.8468628 -3.625l0.8125 0l0 -1.328125l0.953125 -0.3125l0 1.640625l1.4375 0l0 0.859375l-1.4375 0l0 3.96875q0 0.59375 0.140625 0.859375q0.140625 0.25 0.46875 0.25q0.265625 0 0.453125 -0.0625q0.1875 -0.0625 0.421875 -0.15625l0.1875 0.765625q-0.296875 0.140625 -0.65625 0.21875q-0.34375 0.09375 -0.734375 0.09375q-0.671875 0 -0.953125 -0.421875q-0.28125 -0.4375 -0.28125 -1.40625l0 -4.109375l-0.8125 0l0 -0.859375z" fill-rule="nonzero"/><path fill="#fce5cd" d="m216.34776 87.65881l0 0c0 -2.9201508 11.290421 -5.2873993 25.21785 -5.2873993c13.927444 0 25.217865 2.3672485 25.217865 5.2873993l0 21.149605c0 2.9201584 -11.290421 5.287407 -25.217865 5.287407c-13.927429 0 -25.21785 -2.3672485 -25.21785 -5.287407z" fill-rule="evenodd"/><path fill="#000000" fill-opacity="0.0" d="m266.78348 87.65881l0 0c0 2.9201508 -11.290421 5.287407 -25.217865 5.287407c-13.927429 0 -25.21785 -2.3672562 -25.21785 -5.287407" fill-rule="evenodd"/><path fill="#000000" fill-opacity="0.0" d="m216.34776 87.65881l0 0c0 -2.9201508 11.290421 -5.2873993 25.21785 -5.2873993c13.927444 0 25.217865 2.3672485 25.217865 5.2873993l0 21.149605c0 2.9201584 -11.290421 5.287407 -25.217865 5.287407c-13.927429 0 -25.21785 -2.3672485 -25.21785 -5.287407z" fill-rule="evenodd"/><path stroke="#783f04" stroke-width="1.0" stroke-linejoin="round" stroke-linecap="butt" d="m266.78348 87.65881l0 0c0 2.9201508 -11.290421 5.287407 -25.217865 5.287407c-13.927429 0 -25.21785 -2.3672562 -25.21785 -5.287407" fill-rule="evenodd"/><path stroke="#783f04" stroke-width="1.0" stroke-linejoin="round" stroke-linecap="butt" d="m216.34776 87.65881l0 0c0 -2.9201508 11.290421 -5.2873993 25.21785 -5.2873993c13.927444 0 25.217865 2.3672485 25.217865 5.2873993l0 21.149605c0 2.9201584 -11.290421 5.287407 -25.217865 5.287407c-13.927429 0 -25.21785 -2.3672485 -25.21785 -5.287407z" fill-rule="evenodd"/><path fill="#783f04" d="m231.67862 101.36482l-0.46875 0l0 4.3125l-1.0 0l0 -9.328125l1.0 0l0 4.34375l0.453125 -0.1875l2.4375 -4.15625l1.140625 0l-2.4375 4.03125l-0.46875 0.421875l0.546875 0.53125l2.703125 4.34375l-1.265625 0l-2.640625 -4.3125zm5.618866 -2.34375l0 4.078125q0 1.0 0.203125 1.4375q0.203125 0.4375 0.75 0.4375q0.28125 0 0.5 -0.109375q0.21875 -0.125 0.390625 -0.3125q0.171875 -0.1875 0.296875 -0.421875q0.140625 -0.234375 0.234375 -0.5l0 -4.609375l0.953125 0l0 4.765625q0 0.484375 0.03125 1.0q0.03125 0.5 0.109375 0.890625l-0.6875 0l-0.234375 -0.9375l-0.046875 0q-0.21875 0.4375 -0.65625 0.765625q-0.421875 0.328125 -1.0625 0.328125q-0.421875 0 -0.75 -0.109375q-0.3125 -0.09375 -0.546875 -0.375q-0.21875 -0.28125 -0.34375 -0.765625q-0.109375 -0.5 -0.109375 -1.25l0 -4.3125l0.96875 0zm5.940628 5.0625q0 0.46875 0.125 0.671875q0.125 0.203125 0.359375 0.203125q0.28125 0 0.65625 -0.140625l0.078125 0.765625q-0.171875 0.109375 -0.484375 0.171875q-0.3125 0.0625 -0.5625 0.0625q-0.5 0 -0.8125 -0.3125q-0.3125 -0.3125 -0.3125 -1.09375l0 -8.0625l0.953125 0l0 7.734375zm5.761688 1.265625q-0.34375 0.25 -0.765625 0.359375q-0.421875 0.125 -0.890625 0.125q-0.640625 0 -1.078125 -0.234375q-0.4375 -0.25 -0.71875 -0.703125q-0.265625 -0.46875 -0.390625 -1.109375q-0.125 -0.65625 -0.125 -1.4375q0 -1.703125 0.59375 -2.59375q0.609375 -0.90625 1.75 -0.90625q0.515625 0 0.890625 0.09375q0.375 0.09375 0.640625 0.25l-0.265625 0.828125q-0.53125 -0.296875 -1.15625 -0.296875q-0.734375 0 -1.09375 0.640625q-0.359375 0.625 -0.359375 1.984375q0 0.546875 0.078125 1.03125q0.078125 0.46875 0.265625 0.828125q0.1875 0.34375 0.46875 0.5625q0.296875 0.203125 0.734375 0.203125q0.359375 0 0.65625 -0.125q0.296875 -0.125 0.484375 -0.28125l0.28125 0.78125zm0.96354675 -0.765625q0.265625 0.15625 0.625 0.28125q0.359375 0.109375 0.75 0.109375q0.4375 0 0.75 -0.21875q0.3125 -0.21875 0.3125 -0.71875q0 -0.40625 -0.1875 -0.671875q-0.1875 -0.265625 -0.484375 -0.484375q-0.28125 -0.21875 -0.625 -0.390625q-0.328125 -0.1875 -0.609375 -0.4375q-0.28125 -0.25 -0.46875 -0.59375q-0.1875 -0.359375 -0.1875 -0.890625q0 -0.84375 0.453125 -1.28125q0.46875 -0.4375 1.296875 -0.4375q0.546875 0 0.953125 0.109375q0.40625 0.09375 0.6875 0.265625l-0.25 0.796875q-0.25 -0.125 -0.59375 -0.203125q-0.328125 -0.09375 -0.671875 -0.09375q-0.484375 0 -0.703125 0.203125q-0.21875 0.1875 -0.21875 0.625q0 0.328125 0.1875 0.5625q0.1875 0.234375 0.46875 0.4375q0.296875 0.1875 0.625 0.390625q0.328125 0.1875 0.609375 0.46875q0.296875 0.265625 0.484375 0.65625q0.1875 0.375 0.1875 0.9375q0 0.375 -0.125 0.71875q-0.109375 0.328125 -0.359375 0.578125q-0.25 0.234375 -0.625 0.375q-0.359375 0.15625 -0.84375 0.15625q-0.59375 0 -1.015625 -0.109375q-0.421875 -0.109375 -0.71875 -0.296875l0.296875 -0.84375z" fill-rule="nonzero"/><path fill="#000000" fill-opacity="0.0" d="m266.78348 98.23362l24.91336 0.34645844" fill-rule="evenodd"/><path stroke="#000000" stroke-width="1.0" stroke-linejoin="round" stroke-linecap="butt" d="m266.78348 98.23362l21.486603 0.2987976" fill-rule="evenodd"/><path fill="#000000" stroke="#000000" stroke-width="1.0" stroke-linecap="butt" d="m288.27008 98.53242l-1.1401062 1.108841l3.1051025 -1.0815125l-3.073822 -1.1674423z" fill-rule="evenodd"/><path fill="#000000" fill-opacity="0.0" d="m274.04993 144.44142l47.716553 0" fill-rule="evenodd"/><path stroke="#000000" stroke-width="1.0" stroke-linejoin="round" stroke-linecap="butt" d="m274.04993 144.44142l44.28946 0" fill-rule="evenodd"/><path fill="#000000" stroke="#000000" stroke-width="1.0" stroke-linecap="butt" d="m318.3394 144.44142l-1.1246033 1.1245728l3.0897827 -1.1245728l-3.0897827 -1.124588z" fill-rule="evenodd"/><path fill="#f4cccc" d="m291.69684 35.834644l77.89041 0l0 25.441975c-38.94519 0 -38.94519 9.693855 -77.89041 4.1859818z" fill-rule="evenodd"/><path stroke="#660000" stroke-width="1.0" stroke-linejoin="round" stroke-linecap="butt" d="m291.69684 35.834644l77.89041 0l0 25.441975c-38.94519 0 -38.94519 9.693855 -77.89041 4.1859818z" fill-rule="evenodd"/><path fill="#660000" d="m303.70013 44.027504l1.0 0l0 9.328125l-1.0 0l0 -9.328125zm4.964813 6.375l0.234375 1.4375l0.03125 0l0.265625 -1.453125l1.734375 -6.359375l1.03125 0l-2.828125 9.46875l-0.53125 0l-2.875 -9.46875l1.109375 0l1.828125 6.375zm6.238922 -2.015625l1.84375 0l0 -2.078125l0.90625 0l0 2.078125l1.828125 0l0 0.890625l-1.828125 0l0 2.078125l-0.90625 0l0 -2.078125l-1.84375 0l0 -0.890625zm13.622345 4.609375q-0.34375 0.28125 -0.84375 0.390625q-0.5 0.125 -1.0625 0.125q-0.703125 0 -1.3125 -0.265625q-0.59375 -0.265625 -1.03125 -0.84375q-0.4375 -0.578125 -0.671875 -1.5q-0.234375 -0.921875 -0.234375 -2.21875q0 -1.328125 0.265625 -2.25q0.28125 -0.921875 0.734375 -1.484375q0.453125 -0.578125 1.046875 -0.828125q0.59375 -0.25 1.21875 -0.25q0.640625 0 1.046875 0.09375q0.421875 0.09375 0.734375 0.21875l-0.234375 0.90625q-0.265625 -0.140625 -0.640625 -0.21875q-0.359375 -0.078125 -0.8125 -0.078125q-0.46875 0 -0.890625 0.203125q-0.40625 0.203125 -0.734375 0.671875q-0.3125 0.453125 -0.5 1.203125q-0.1875 0.734375 -0.1875 1.8125q0 1.953125 0.65625 2.9375q0.671875 0.96875 1.78125 0.96875q0.453125 0 0.8125 -0.125q0.359375 -0.125 0.609375 -0.296875l0.25 0.828125zm0.4965515 -2.96875q0 -1.796875 0.609375 -2.640625q0.625 -0.859375 1.765625 -0.859375q1.234375 0 1.8125 0.875q0.578125 0.859375 0.578125 2.625q0 1.8125 -0.625 2.65625q-0.625 0.828125 -1.765625 0.828125q-1.21875 0 -1.796875 -0.859375q-0.578125 -0.875 -0.578125 -2.625zm1.0 0q0 0.578125 0.0625 1.0625q0.078125 0.484375 0.234375 0.828125q0.171875 0.34375 0.4375 0.546875q0.265625 0.1875 0.640625 0.1875q0.703125 0 1.046875 -0.625q0.34375 -0.625 0.34375 -2.0q0 -0.578125 -0.078125 -1.0625q-0.0625 -0.484375 -0.234375 -0.828125q-0.171875 -0.359375 -0.4375 -0.546875q-0.265625 -0.1875 -0.640625 -0.1875q-0.671875 0 -1.03125 0.625q-0.34375 0.625 -0.34375 2.0zm5.913971 -3.328125l0 4.078125q0 1.0 0.203125 1.4375q0.203125 0.4375 0.75 0.4375q0.28125 0 0.5 -0.109375q0.21875 -0.125 0.390625 -0.3125q0.171875 -0.1875 0.296875 -0.421875q0.140625 -0.234375 0.234375 -0.5l0 -4.609375l0.953125 0l0 4.765625q0 0.484375 0.03125 1.0q0.03125 0.5 0.109375 0.890625l-0.6875 0l-0.234375 -0.9375l-0.046875 0q-0.21875 0.4375 -0.65625 0.765625q-0.421875 0.328125 -1.0625 0.328125q-0.421875 0 -0.75 -0.109375q-0.3125 -0.09375 -0.546875 -0.375q-0.21875 -0.28125 -0.34375 -0.765625q-0.109375 -0.5 -0.109375 -1.25l0 -4.3125l0.96875 0zm8.331268 6.65625l0 -4.0625q0 -1.0 -0.234375 -1.4375q-0.234375 -0.453125 -0.84375 -0.453125q-0.53125 0 -0.875 0.328125q-0.34375 0.3125 -0.5 0.78125l0 4.84375l-0.96875 0l0 -6.65625l0.703125 0l0.171875 0.703125l0.03125 0q0.265625 -0.359375 0.6875 -0.609375q0.4375 -0.265625 1.03125 -0.265625q0.4375 0 0.75 0.125q0.328125 0.125 0.546875 0.40625q0.234375 0.28125 0.34375 0.765625q0.109375 0.484375 0.109375 1.21875l0 4.3125l-0.953125 0zm1.7728882 -6.65625l0.8125 0l0 -1.328125l0.953125 -0.3125l0 1.640625l1.4375 0l0 0.859375l-1.4375 0l0 3.96875q0 0.59375 0.140625 0.859375q0.140625 0.25 0.46875 0.25q0.265625 0 0.453125 -0.0625q0.1875 -0.0625 0.421875 -0.15625l0.1875 0.765625q-0.296875 0.140625 -0.65625 0.21875q-0.34375 0.09375 -0.734375 0.09375q-0.671875 0 -0.953125 -0.421875q-0.28125 -0.4375 -0.28125 -1.40625l0 -4.109375l-0.8125 0l0 -0.859375zm8.199188 6.203125q-0.3125 0.296875 -0.8125 0.453125q-0.484375 0.15625 -1.03125 0.15625q-0.625 0 -1.09375 -0.234375q-0.453125 -0.25 -0.765625 -0.703125q-0.296875 -0.46875 -0.4375 -1.109375q-0.125 -0.640625 -0.125 -1.4375q0 -1.703125 0.625 -2.59375q0.625 -0.90625 1.765625 -0.90625q0.375 0 0.734375 0.09375q0.375 0.09375 0.65625 0.375q0.296875 0.28125 0.46875 0.796875q0.1875 0.5 0.1875 1.3125q0 0.21875 -0.015625 0.484375q-0.015625 0.265625 -0.046875 0.546875l-3.375 0q0 0.5625 0.078125 1.03125q0.09375 0.46875 0.296875 0.796875q0.203125 0.328125 0.515625 0.515625q0.3125 0.171875 0.78125 0.171875q0.359375 0 0.703125 -0.125q0.359375 -0.140625 0.546875 -0.328125l0.34375 0.703125zm-0.734375 -3.578125q0.015625 -1.0 -0.296875 -1.453125q-0.296875 -0.46875 -0.828125 -0.46875q-0.609375 0 -0.96875 0.46875q-0.359375 0.453125 -0.4375 1.453125l2.53125 0zm2.254486 -2.625l0.6875 0l0.171875 0.703125l0.03125 0q0.1875 -0.390625 0.484375 -0.609375q0.3125 -0.21875 0.734375 -0.21875q0.3125 0 0.6875 0.125l-0.171875 0.96875q-0.359375 -0.125 -0.625 -0.125q-0.421875 0 -0.6875 0.25q-0.265625 0.25 -0.34375 0.65625l0 4.90625l-0.96875 0l0 -6.65625z" fill-rule="nonzero"/><path fill="#000000" fill-opacity="0.0" d="m330.64206 65.4626l0 17.259842" fill-rule="evenodd"/><path stroke="#000000" stroke-width="1.0" stroke-linejoin="round" stroke-linecap="butt" d="m330.64203 65.4626l0 13.832756" fill-rule="evenodd"/><path fill="#000000" stroke="#000000" stroke-width="1.0" stroke-linecap="butt" d="m330.64203 79.29536l-1.1245728 -1.1245804l1.1245728 3.0897675l1.1246033 -3.0897675z" fill-rule="evenodd"/><path fill="#efefef" d="m321.77646 144.43964l0 0c0 -4.7835693 3.969513 -8.661423 8.866119 -8.661423l0 0c2.351471 0 4.606598 0.9125366 6.2693176 2.5368652c1.6627197 1.6243439 2.5968323 3.8274078 2.5968323 6.1245575l0 0c0 4.7835693 -3.969513 8.661407 -8.86615 8.661407l0 0c-4.8966064 0 -8.866119 -3.8778381 -8.866119 -8.661407z" fill-rule="evenodd"/><path fill="#000000" fill-opacity="0.0" d="m330.64258 135.77821l0 17.32283m-8.866119 -8.661407l17.73227 0" fill-rule="evenodd"/><path fill="#000000" fill-opacity="0.0" d="m321.77646 144.43964l0 0c0 -4.7835693 3.969513 -8.661423 8.866119 -8.661423l0 0c2.351471 0 4.606598 0.9125366 6.2693176 2.5368652c1.6627197 1.6243439 2.5968323 3.8274078 2.5968323 6.1245575l0 0c0 4.7835693 -3.969513 8.661407 -8.86615 8.661407l0 0c-4.8966064 0 -8.866119 -3.8778381 -8.866119 -8.661407z" fill-rule="evenodd"/><path stroke="#434343" stroke-width="1.0" stroke-linejoin="round" stroke-linecap="butt" d="m330.64258 135.77821l0 17.32283m-8.866119 -8.661407l17.73227 0" fill-rule="evenodd"/><path stroke="#434343" stroke-width="1.0" stroke-linejoin="round" stroke-linecap="butt" d="m321.77646 144.43964l0 0c0 -4.7835693 3.969513 -8.661423 8.866119 -8.661423l0 0c2.351471 0 4.606598 0.9125366 6.2693176 2.5368652c1.6627197 1.6243439 2.5968323 3.8274078 2.5968323 6.1245575l0 0c0 4.7835693 -3.969513 8.661407 -8.86615 8.661407l0 0c-4.8966064 0 -8.866119 -3.8778381 -8.866119 -8.661407z" fill-rule="evenodd"/><path fill="#000000" fill-opacity="0.0" d="m330.64258 153.10104l0 21.35434" fill-rule="evenodd"/><path stroke="#000000" stroke-width="1.0" stroke-linejoin="round" stroke-linecap="butt" d="m330.6426 153.10104l0 17.927246" fill-rule="evenodd"/><path fill="#000000" stroke="#000000" stroke-width="1.0" stroke-linecap="butt" d="m330.6426 171.02829l-1.1246033 -1.1245728l1.1246033 3.0897675l1.1245728 -3.0897675z" fill-rule="evenodd"/><path fill="#000000" fill-opacity="0.0" d="m330.64172 114.438324l0 21.354324" fill-rule="evenodd"/><path stroke="#000000" stroke-width="1.0" stroke-linejoin="round" stroke-linecap="butt" d="m330.64172 114.438324l0 17.927246" fill-rule="evenodd"/><path fill="#000000" stroke="#000000" stroke-width="1.0" stroke-linecap="butt" d="m330.64172 132.36557l-1.1245728 -1.124588l1.1245728 3.0897675l1.1246033 -3.0897675z" fill-rule="evenodd"/><path fill="#000000" fill-opacity="0.0" d="m177.58661 51.697323l114.11023 0" fill-rule="evenodd"/><path stroke="#000000" stroke-width="1.0" stroke-linejoin="round" stroke-linecap="butt" d="m177.58661 51.697323l110.68317 0" fill-rule="evenodd"/><path fill="#000000" stroke="#000000" stroke-width="1.0" stroke-linecap="butt" d="m288.26978 51.697323l-1.1246033 1.1245842l3.0897827 -1.1245842l-3.0897827 -1.1245842z" fill-rule="evenodd"/></g></svg>