<svg version="1.1" viewBox="0.0 0.0 383.6955380577428 202.4015748031496" fill="none" stroke="none" stroke-linecap="square" stroke-miterlimit="10" xmlns:xlink="http://www.w3.org/1999/xlink" xmlns="http://www.w3.org/2000/svg"><clipPath id="p.0"><path d="m0 0l383.69553 0l0 202.40158l-383.69553 0l0 -202.40158z" clip-rule="nonzero"/></clipPath><g clip-path="url(#p.0)"><path fill="#000000" fill-opacity="0.0" d="m0 0l383.69553 0l0 202.40158l-383.69553 0z" fill-rule="evenodd"/><path fill="#c9daf8" d="m86.661415 93.70877l0 0c0 -2.919487 2.3667145 -5.2862015 5.286194 -5.2862015l68.01029 0c1.4019775 0 2.7465515 0.5569382 3.7378998 1.5482941c0.9913635 0.9913559 1.5482941 2.3359146 1.5482941 3.7379074l0 21.144142c0 2.919487 -2.3667145 5.286194 -5.286194 5.286194l-68.01029 0l0 0c-2.9194794 0 -5.286194 -2.3667068 -5.286194 -5.286194z" fill-rule="evenodd"/><path stroke="#1c4587" stroke-width="1.0" stroke-linejoin="round" stroke-linecap="butt" d="m86.661415 93.70877l0 0c0 -2.919487 2.3667145 -5.2862015 5.286194 -5.2862015l68.01029 0c1.4019775 0 2.7465515 0.5569382 3.7378998 1.5482941c0.9913635 0.9913559 1.5482941 2.3359146 1.5482941 3.7379074l0 21.144142c0 2.919487 -2.3667145 5.286194 -5.286194 5.286194l-68.01029 0l0 0c-2.9194794 0 -5.286194 -2.3667068 -5.286194 -5.286194z" fill-rule="evenodd"/><path fill="#1c4587" d="m106.3386 100.04709l-2.75 0l0 10.09375l-1.203125 0l0 -10.09375l-2.75 0l0 -1.109375l6.703125 0l0 1.109375zm1.370758 2.09375l1.140625 0l0 8.0l-1.140625 0l0 -8.0zm-0.21875 -2.4375q0 -0.375 0.21875 -0.609375q0.21875 -0.25 0.578125 -0.25q0.34375 0 0.578125 0.234375q0.234375 0.234375 0.234375 0.625q0 0.390625 -0.234375 0.609375q-0.234375 0.21875 -0.578125 0.21875q-0.359375 0 -0.578125 -0.21875q-0.21875 -0.234375 -0.21875 -0.609375zm2.6907501 2.4375l0.984375 0l0 -1.578125l1.140625 -0.375l0 1.953125l1.734375 0l0 1.046875l-1.734375 0l0 4.765625q0 0.703125 0.171875 1.015625q0.171875 0.3125 0.546875 0.3125q0.328125 0 0.5625 -0.078125q0.234375 -0.078125 0.5 -0.1875l0.21875 0.921875q-0.34375 0.171875 -0.765625 0.265625q-0.421875 0.109375 -0.890625 0.109375q-0.796875 0 -1.140625 -0.515625q-0.34375 -0.515625 -0.34375 -1.6875l0 -4.921875l-0.984375 0l0 -1.046875zm6.946884 4.40625l-0.59375 0l0 3.59375l-1.15625 0l0 -11.203125l1.15625 0l0 6.8125l0.53125 -0.21875l1.875 -3.390625l1.328125 0l-1.890625 3.234375l-0.5625 0.515625l0.65625 0.625l2.0625 3.625l-1.390625 0l-2.015625 -3.59375zm3.9542542 -0.40625q0 -2.15625 0.734375 -3.171875q0.75 -1.015625 2.125 -1.015625q1.46875 0 2.15625 1.046875q0.703125 1.03125 0.703125 3.140625q0 2.171875 -0.75 3.1875q-0.75 1.0 -2.109375 1.0q-1.46875 0 -2.171875 -1.03125q-0.6875 -1.046875 -0.6875 -3.15625zm1.203125 0q0 0.703125 0.078125 1.28125q0.09375 0.578125 0.296875 1.0q0.203125 0.40625 0.515625 0.640625q0.328125 0.234375 0.765625 0.234375q0.828125 0 1.25 -0.75q0.421875 -0.75 0.421875 -2.40625q0 -0.6875 -0.09375 -1.265625q-0.09375 -0.59375 -0.296875 -1.0q-0.1875 -0.421875 -0.515625 -0.65625q-0.3125 -0.234375 -0.765625 -0.234375q-0.8125 0 -1.234375 0.765625q-0.421875 0.75 -0.421875 2.390625zm5.927635 2.6875q0.328125 0.1875 0.765625 0.328125q0.4375 0.140625 0.90625 0.140625q0.53125 0 0.890625 -0.265625q0.375 -0.265625 0.375 -0.859375q0 -0.5 -0.234375 -0.8125q-0.21875 -0.328125 -0.5625 -0.578125q-0.34375 -0.25 -0.75 -0.46875q-0.390625 -0.21875 -0.734375 -0.515625q-0.34375 -0.3125 -0.578125 -0.71875q-0.21875 -0.421875 -0.21875 -1.0625q0 -1.03125 0.546875 -1.546875q0.5625 -0.515625 1.5625 -0.515625q0.65625 0 1.140625 0.125q0.484375 0.109375 0.828125 0.3125l-0.296875 0.96875q-0.3125 -0.15625 -0.71875 -0.265625q-0.390625 -0.109375 -0.8125 -0.109375q-0.5625 0 -0.828125 0.25q-0.265625 0.234375 -0.265625 0.75q0 0.390625 0.21875 0.671875q0.21875 0.28125 0.5625 0.515625q0.34375 0.234375 0.75 0.484375q0.40625 0.234375 0.75 0.5625q0.34375 0.328125 0.5625 0.78125q0.21875 0.453125 0.21875 1.140625q0 0.453125 -0.140625 0.859375q-0.140625 0.390625 -0.4375 0.6875q-0.296875 0.296875 -0.734375 0.46875q-0.4375 0.171875 -1.03125 0.171875q-0.703125 0 -1.21875 -0.140625q-0.515625 -0.125 -0.8593674 -0.34375l0.34374237 -1.015625zm5.7517548 -6.6875l1.140625 0l0 8.0l-1.140625 0l0 -8.0zm0.5625 -3.515625l1.234375 0l0 0.328125l-1.3125 2.046875l-0.6875 0l0.765625 -2.375zm1.8938751 3.515625l0.984375 0l0 -1.578125l1.140625 -0.375l0 1.953125l1.734375 0l0 1.046875l-1.734375 0l0 4.765625q0 0.703125 0.171875 1.015625q0.171875 0.3125 0.546875 0.3125q0.328125 0 0.5625 -0.078125q0.234375 -0.078125 0.5 -0.1875l0.21875 0.921875q-0.34375 0.171875 -0.765625 0.265625q-0.421875 0.109375 -0.890625 0.109375q-0.796875 0 -1.140625 -0.515625q-0.34375 -0.515625 -0.34375 -1.6875l0 -4.921875l-0.984375 0l0 -1.046875zm5.118759 0.484375q0.46875 -0.296875 1.125 -0.453125q0.671875 -0.15625 1.40625 -0.15625q0.671875 0 1.078125 0.203125q0.40625 0.1875 0.640625 0.53125q0.234375 0.34375 0.296875 0.796875q0.078125 0.4375 0.078125 0.90625q0 0.96875 -0.046875 1.890625q-0.03125 0.90625 -0.03125 1.71875q0 0.609375 0.03125 1.125q0.046875 0.515625 0.15625 0.984375l-0.875 0l-0.265625 -0.9375l-0.0625 0q-0.25 0.40625 -0.71875 0.71875q-0.453125 0.296875 -1.234375 0.296875q-0.875 0 -1.421875 -0.59375q-0.546875 -0.609375 -0.546875 -1.65625q0 -0.6875 0.21875 -1.15625q0.234375 -0.46875 0.65625 -0.75q0.4375 -0.296875 1.015625 -0.40625q0.578125 -0.125 1.296875 -0.125q0.171875 0 0.328125 0q0.15625 0 0.328125 0.015625q0.0625 -0.5 0.0625 -0.875q0 -0.921875 -0.28125 -1.28125q-0.265625 -0.375 -0.984375 -0.375q-0.453125 0 -0.984375 0.140625q-0.53125 0.140625 -0.875 0.34375l-0.390625 -0.90625zm3.484375 3.875q-0.171875 -0.015625 -0.328125 -0.03125q-0.15625 -0.015625 -0.3125 -0.015625q-0.390625 0 -0.765625 0.078125q-0.359375 0.0625 -0.65625 0.21875q-0.28125 0.15625 -0.453125 0.4375q-0.171875 0.265625 -0.171875 0.6875q0 0.640625 0.3125 1.0q0.3125 0.34375 0.8125 0.34375q0.671875 0 1.03125 -0.3125q0.375 -0.328125 0.53125 -0.71875l0 -1.6875zm-1.625 -7.875l1.234375 0l0 0.328125l-1.3125 2.046875l-0.6875 0l0.765625 -2.375zm4.493759 10.203125q0.328125 0.1875 0.765625 0.328125q0.4375 0.140625 0.90625 0.140625q0.53125 0 0.890625 -0.265625q0.375 -0.265625 0.375 -0.859375q0 -0.5 -0.234375 -0.8125q-0.21875 -0.328125 -0.5625 -0.578125q-0.34375 -0.25 -0.75 -0.46875q-0.390625 -0.21875 -0.734375 -0.515625q-0.34375 -0.3125 -0.578125 -0.71875q-0.21875 -0.421875 -0.21875 -1.0625q0 -1.03125 0.546875 -1.546875q0.5625 -0.515625 1.5625 -0.515625q0.65625 0 1.140625 0.125q0.484375 0.109375 0.828125 0.3125l-0.296875 0.96875q-0.3125 -0.15625 -0.71875 -0.265625q-0.390625 -0.109375 -0.8125 -0.109375q-0.5625 0 -0.828125 0.25q-0.265625 0.234375 -0.265625 0.75q0 0.390625 0.21875 0.671875q0.21875 0.28125 0.5625 0.515625q0.34375 0.234375 0.75 0.484375q0.40625 0.234375 0.75 0.5625q0.34375 0.328125 0.5625 0.78125q0.21875 0.453125 0.21875 1.140625q0 0.453125 -0.140625 0.859375q-0.140625 0.390625 -0.4375 0.6875q-0.296875 0.296875 -0.734375 0.46875q-0.4375 0.171875 -1.03125 0.171875q-0.703125 0 -1.21875 -0.140625q-0.515625 -0.125 -0.859375 -0.34375l0.34375 -1.015625z" fill-rule="nonzero"/><path fill="#d9ead3" d="m86.661415 137.46457l78.582054 0l0 25.44197c-39.29103 0 -39.29103 9.693863 -78.582054 4.1859894z" fill-rule="evenodd"/><path stroke="#274e13" stroke-width="1.0" stroke-linejoin="round" stroke-linecap="butt" d="m86.661415 137.46457l78.582054 0l0 25.44197c-39.29103 0 -39.29103 9.693863 -78.582054 4.1859894z" fill-rule="evenodd"/><path fill="#274e13" d="m112.83665 144.84242l1.15625 0l0 7.5q0 2.046875 -0.796875 2.953125q-0.78125 0.890625 -2.25 0.890625q-1.6875 0 -2.46875 -0.875q-0.765625 -0.875 -0.765625 -2.703125l0 -7.765625l1.1875 0l0 7.140625q0 0.859375 0.109375 1.453125q0.125 0.59375 0.375 0.96875q0.25 0.359375 0.640625 0.53125q0.390625 0.15625 0.9375 0.15625q1.0625 0 1.46875 -0.734375q0.40625 -0.75 0.40625 -2.375l0 -7.140625zm-4.203125 -1.5q0 -0.34375 0.203125 -0.546875q0.203125 -0.203125 0.5625 -0.203125q0.328125 0 0.53125 0.203125q0.203125 0.203125 0.203125 0.546875q0 0.328125 -0.203125 0.53125q-0.203125 0.203125 -0.53125 0.203125q-0.359375 0 -0.5625 -0.203125q-0.203125 -0.203125 -0.203125 -0.53125zm2.53125 0q0 -0.34375 0.203125 -0.546875q0.203125 -0.203125 0.53125 -0.203125q0.359375 0 0.546875 0.203125q0.203125 0.203125 0.203125 0.546875q0 0.328125 -0.203125 0.53125q-0.1875 0.203125 -0.546875 0.203125q-0.328125 0 -0.53125 -0.203125q-0.203125 -0.203125 -0.203125 -0.53125zm4.367264 11.65625l2.96875 -5.21875l0.5625 -0.6875l-3.53125 0l0 -1.046875l4.671875 0l0 1.046875l-3.0 5.265625l-0.546875 0.640625l3.546875 0l0 1.046875l-4.671875 0l0 -1.046875zm10.786758 0.5q-0.390625 0.359375 -0.984375 0.546875q-0.59375 0.1875 -1.25 0.1875q-0.75 0 -1.3125 -0.296875q-0.546875 -0.296875 -0.90625 -0.84375q-0.359375 -0.546875 -0.53125 -1.3125q-0.15625 -0.78125 -0.15625 -1.734375q0 -2.046875 0.75 -3.109375q0.75 -1.078125 2.125 -1.078125q0.453125 0 0.890625 0.109375q0.4375 0.109375 0.78125 0.453125q0.359375 0.328125 0.578125 0.9375q0.21875 0.609375 0.21875 1.578125q0 0.28125 -0.03125 0.59375q-0.015625 0.3125 -0.046875 0.640625l-4.0625 0q0 0.6875 0.109375 1.25q0.109375 0.5625 0.34375 0.953125q0.25 0.390625 0.625 0.609375q0.375 0.21875 0.9375 0.21875q0.421875 0 0.84375 -0.15625q0.4375 -0.171875 0.65625 -0.390625l0.421875 0.84375zm-0.90625 -4.28125q0.03125 -1.203125 -0.34375 -1.765625q-0.359375 -0.5625 -1.0 -0.5625q-0.734375 0 -1.171875 0.5625q-0.421875 0.5625 -0.5 1.765625l3.015625 0zm6.8267746 4.828125l0 -4.875q0 -1.203125 -0.28125 -1.734375q-0.28125 -0.546875 -1.0 -0.546875q-0.640625 0 -1.0625 0.390625q-0.421875 0.375 -0.609375 0.9375l0 5.828125l-1.15625 0l0 -8.0l0.84375 0l0.203125 0.84375l0.046875 0q0.3125 -0.421875 0.828125 -0.71875q0.515625 -0.3125 1.234375 -0.3125q0.515625 0 0.90625 0.140625q0.390625 0.140625 0.65625 0.484375q0.265625 0.34375 0.390625 0.921875q0.140625 0.578125 0.140625 1.453125l0 5.1875l-1.140625 0zm7.7115173 -0.546875q-0.390625 0.359375 -0.984375 0.546875q-0.59375 0.1875 -1.25 0.1875q-0.75 0 -1.3125 -0.296875q-0.546875 -0.296875 -0.90625 -0.84375q-0.359375 -0.546875 -0.53125 -1.3125q-0.15625 -0.78125 -0.15625 -1.734375q0 -2.046875 0.75 -3.109375q0.75 -1.078125 2.125 -1.078125q0.453125 0 0.890625 0.109375q0.4375 0.109375 0.78125 0.453125q0.359375 0.328125 0.578125 0.9375q0.21875 0.609375 0.21875 1.578125q0 0.28125 -0.03125 0.59375q-0.015625 0.3125 -0.046875 0.640625l-4.0625 0q0 0.6875 0.109375 1.25q0.109375 0.5625 0.34375 0.953125q0.25 0.390625 0.625 0.609375q0.375 0.21875 0.9375 0.21875q0.421875 0 0.84375 -0.15625q0.4375 -0.171875 0.65625 -0.390625l0.421875 0.84375zm-0.90625 -4.28125q0.03125 -1.203125 -0.34375 -1.765625q-0.359375 -0.5625 -1.0 -0.5625q-0.734375 0 -1.171875 0.5625q-0.421875 0.5625 -0.5 1.765625l3.015625 0zm1.920517 -3.171875l0.984375 0l0 -1.578125l1.140625 -0.375l0 1.953125l1.734375 0l0 1.046875l-1.734375 0l0 4.765625q0 0.703125 0.171875 1.015625q0.171875 0.3125 0.546875 0.3125q0.328125 0 0.5625 -0.078125q0.234375 -0.078125 0.5 -0.1875l0.21875 0.921875q-0.34375 0.171875 -0.765625 0.265625q-0.421875 0.109375 -0.890625 0.109375q-0.796875 0 -1.140625 -0.515625q-0.34375 -0.515625 -0.34375 -1.6875l0 -4.921875l-0.984375 0l0 -1.046875z" fill-rule="nonzero"/><path fill="#f4cccc" d="m87.84121 39.372704l76.223625 0l0 25.44197c-38.111816 0 -38.111816 9.693855 -76.223625 4.1859818z" fill-rule="evenodd"/><path stroke="#660000" stroke-width="1.0" stroke-linejoin="round" stroke-linecap="butt" d="m87.84121 39.372704l76.223625 0l0 25.44197c-38.111816 0 -38.111816 9.693855 -76.223625 4.1859818z" fill-rule="evenodd"/><path fill="#660000" d="m118.633125 54.813065l-3.171875 0l-0.890625 3.140625l-1.1875 0l3.375 -11.375l0.65625 0l3.375 11.375l-1.25 0l-0.90625 -3.140625zm-2.84375 -1.0625l2.5625 0l-0.984375 -3.453125l-0.296875 -1.6875l-0.03125 0l-0.3125 1.71875l-0.9375 3.421875zm11.068008 1.453125q0 0.8125 0.015625 1.484375q0.015625 0.65625 0.109375 1.296875l-0.78125 0l-0.25 -0.953125l-0.0625 0q-0.234375 0.46875 -0.71875 0.796875q-0.46875 0.3125 -1.140625 0.3125q-1.296875 0 -1.9375 -1.0q-0.625 -1.015625 -0.625 -3.171875q0 -2.046875 0.765625 -3.09375q0.78125 -1.0625 2.140625 -1.0625q0.46875 0 0.734375 0.0625q0.28125 0.046875 0.59375 0.171875l0 -3.296875l1.15625 0l0 8.453125zm-1.15625 -3.984375q-0.21875 -0.1875 -0.5 -0.28125q-0.28125 -0.09375 -0.75 -0.09375q-0.84375 0 -1.3125 0.78125q-0.46875 0.765625 -0.46875 2.359375q0 0.703125 0.078125 1.28125q0.09375 0.5625 0.28125 0.984375q0.1875 0.40625 0.46875 0.640625q0.296875 0.21875 0.734375 0.21875q1.15625 0 1.46875 -1.359375l0 -4.53125zm2.9592514 -0.78125q0.46875 -0.296875 1.125 -0.453125q0.671875 -0.15625 1.40625 -0.15625q0.671875 0 1.078125 0.203125q0.40625 0.1875 0.640625 0.53125q0.234375 0.34375 0.296875 0.796875q0.078125 0.4375 0.078125 0.90625q0 0.96875 -0.046875 1.890625q-0.03125 0.90625 -0.03125 1.71875q0 0.609375 0.03125 1.125q0.046875 0.515625 0.15625 0.984375l-0.875 0l-0.265625 -0.9375l-0.0625 0q-0.25 0.40625 -0.71875 0.71875q-0.453125 0.296875 -1.234375 0.296875q-0.875 0 -1.421875 -0.59375q-0.546875 -0.609375 -0.546875 -1.65625q0 -0.6875 0.21875 -1.15625q0.234375 -0.46875 0.65625 -0.75q0.4375 -0.296875 1.015625 -0.40625q0.578125 -0.125 1.296875 -0.125q0.171875 0 0.328125 0q0.15625 0 0.328125 0.015625q0.0625 -0.5 0.0625 -0.875q0 -0.921875 -0.28125 -1.28125q-0.265625 -0.375 -0.984375 -0.375q-0.453125 0 -0.984375 0.140625q-0.53125 0.140625 -0.875 0.34375l-0.390625 -0.90625zm3.484375 3.875q-0.171875 -0.015625 -0.328125 -0.03125q-0.15625 -0.015625 -0.3125 -0.015625q-0.390625 0 -0.765625 0.078125q-0.359375 0.0625 -0.65625 0.21875q-0.28125 0.15625 -0.453125 0.4375q-0.171875 0.265625 -0.171875 0.6875q0 0.640625 0.3125 1.0q0.3125 0.34375 0.8125 0.34375q0.671875 0 1.03125 -0.3125q0.375 -0.328125 0.53125 -0.71875l0 -1.6875zm2.1968842 -4.359375l0.984375 0l0 -1.578125l1.140625 -0.375l0 1.953125l1.734375 0l0 1.046875l-1.734375 0l0 4.765625q0 0.703125 0.171875 1.015625q0.171875 0.3125 0.546875 0.3125q0.328125 0 0.5625 -0.078125q0.234375 -0.078125 0.5 -0.1875l0.21875 0.921875q-0.34375 0.171875 -0.765625 0.265625q-0.421875 0.109375 -0.890625 0.109375q-0.796875 0 -1.140625 -0.515625q-0.34375 -0.515625 -0.34375 -1.6875l0 -4.921875l-0.984375 0l0 -1.046875z" fill-rule="nonzero"/><path fill="#fce5cd" d="m15.853019 93.70606l0 0c0 -2.9201508 11.290414 -5.287407 25.217846 -5.287407c13.927433 0 25.217846 2.3672562 25.217846 5.287407l0 21.149605c0 2.9201508 -11.290413 5.2873993 -25.217846 5.2873993c-13.927433 0 -25.217846 -2.3672485 -25.217846 -5.2873993z" fill-rule="evenodd"/><path fill="#000000" fill-opacity="0.0" d="m66.28871 93.70606l0 0c0 2.9201508 -11.290413 5.2873993 -25.217846 5.2873993c-13.927433 0 -25.217846 -2.3672485 -25.217846 -5.2873993" fill-rule="evenodd"/><path fill="#000000" fill-opacity="0.0" d="m15.853019 93.70606l0 0c0 -2.9201508 11.290414 -5.287407 25.217846 -5.287407c13.927433 0 25.217846 2.3672562 25.217846 5.287407l0 21.149605c0 2.9201508 -11.290413 5.2873993 -25.217846 5.2873993c-13.927433 0 -25.217846 -2.3672485 -25.217846 -5.2873993z" fill-rule="evenodd"/><path stroke="#783f04" stroke-width="1.0" stroke-linejoin="round" stroke-linecap="butt" d="m66.28871 93.70606l0 0c0 2.9201508 -11.290413 5.2873993 -25.217846 5.2873993c-13.927433 0 -25.217846 -2.3672485 -25.217846 -5.2873993" fill-rule="evenodd"/><path stroke="#783f04" stroke-width="1.0" stroke-linejoin="round" stroke-linecap="butt" d="m15.853019 93.70606l0 0c0 -2.9201508 11.290414 -5.287407 25.217846 -5.287407c13.927433 0 25.217846 2.3672562 25.217846 5.287407l0 21.149605c0 2.9201508 -11.290413 5.2873993 -25.217846 5.2873993c-13.927433 0 -25.217846 -2.3672485 -25.217846 -5.2873993z" fill-rule="evenodd"/><path fill="#783f04" d="m29.203709 107.59706l-0.578125 0l0 5.1875l-1.1875 0l0 -11.203125l1.1875 0l0 5.21875l0.5625 -0.21875l2.921875 -5.0l1.375 0l-2.9375 4.828125l-0.5625 0.515625l0.65625 0.640625l3.25 5.21875l-1.515625 0l-3.171875 -5.1875zm6.739517 -2.8125l0 4.890625q0 1.21875 0.25 1.75q0.25 0.515625 0.90625 0.515625q0.328125 0 0.59375 -0.140625q0.265625 -0.140625 0.46875 -0.359375q0.21875 -0.21875 0.375 -0.5q0.15625 -0.296875 0.25 -0.609375l0 -5.546875l1.15625 0l0 5.734375q0 0.5625 0.03125 1.1875q0.046875 0.609375 0.125 1.078125l-0.8125 0l-0.28125 -1.125l-0.0625 0q-0.265625 0.53125 -0.78125 0.921875q-0.5 0.390625 -1.28125 0.390625q-0.5 0 -0.890625 -0.125q-0.390625 -0.125 -0.65625 -0.453125q-0.265625 -0.34375 -0.40625 -0.921875q-0.140625 -0.59375 -0.140625 -1.5l0 -5.1875l1.15625 0zm7.1315155 6.09375q0 0.5625 0.15625 0.8125q0.15625 0.234375 0.421875 0.234375q0.34375 0 0.78125 -0.1875l0.109375 0.9375q-0.203125 0.125 -0.578125 0.203125q-0.375 0.078125 -0.671875 0.078125q-0.609375 0 -0.984375 -0.375q-0.375 -0.375 -0.375 -1.3125l0 -9.6875l1.140625 0l0 9.296875zm6.915516 1.5q-0.40625 0.3125 -0.921875 0.453125q-0.5 0.140625 -1.0625 0.140625q-0.7656288 0 -1.2968788 -0.296875q-0.53125 -0.296875 -0.859375 -0.84375q-0.328125 -0.546875 -0.484375 -1.328125q-0.140625 -0.78125 -0.140625 -1.71875q0 -2.046875 0.71875 -3.109375q0.734375 -1.078125 2.0937538 -1.078125q0.625 0 1.0625 0.109375q0.453125 0.109375 0.78125 0.28125l-0.328125 1.015625q-0.640625 -0.375 -1.390625 -0.375q-0.8593788 0 -1.2968788 0.765625q-0.4375 0.765625 -0.4375 2.390625q0 0.65625 0.09375 1.234375q0.09375 0.578125 0.3125 1.0q0.234375 0.421875 0.578125 0.671875q0.359375 0.25 0.8750038 0.25q0.421875 0 0.78125 -0.140625q0.359375 -0.15625 0.59375 -0.34375l0.328125 0.921875zm1.1491394 -0.90625q0.328125 0.1875 0.765625 0.328125q0.4375 0.140625 0.90625 0.140625q0.53125 0 0.890625 -0.265625q0.375 -0.265625 0.375 -0.859375q0 -0.5 -0.234375 -0.8125q-0.21875 -0.328125 -0.5625 -0.578125q-0.34375 -0.25 -0.75 -0.46875q-0.390625 -0.21875 -0.734375 -0.515625q-0.34375 -0.3125 -0.578125 -0.71875q-0.21875 -0.421875 -0.21875 -1.0625q0 -1.03125 0.546875 -1.546875q0.5625 -0.515625 1.5625 -0.515625q0.65625 0 1.140625 0.125q0.484375 0.109375 0.828125 0.3125l-0.296875 0.96875q-0.3125 -0.15625 -0.71875 -0.265625q-0.390625 -0.109375 -0.8125 -0.109375q-0.5625 0 -0.828125 0.25q-0.265625 0.234375 -0.265625 0.75q0 0.390625 0.21875 0.671875q0.21875 0.28125 0.5625 0.515625q0.34375 0.234375 0.75 0.484375q0.40625 0.234375 0.75 0.5625q0.34375 0.328125 0.5625 0.78125q0.21875 0.453125 0.21875 1.140625q0 0.453125 -0.140625 0.859375q-0.140625 0.390625 -0.4375 0.6875q-0.296875 0.296875 -0.734375 0.46875q-0.4375 0.171875 -1.03125 0.171875q-0.703125 0 -1.21875 -0.140625q-0.515625 -0.125 -0.859375 -0.34375l0.34375 -1.015625z" fill-rule="nonzero"/><path fill="#000000" fill-opacity="0.0" d="m66.28871 104.28086l20.377953 0" fill-rule="evenodd"/><path stroke="#000000" stroke-width="1.0" stroke-linejoin="round" stroke-linecap="butt" d="m66.28871 104.28086l16.950867 0" fill-rule="evenodd"/><path fill="#000000" stroke="#000000" stroke-width="1.0" stroke-linecap="butt" d="m83.23958 104.28086l-1.1245804 1.1245804l3.0897675 -1.1245804l-3.0897675 -1.1245804z" fill-rule="evenodd"/><path fill="#000000" fill-opacity="0.0" d="m125.95302 69.000656l0 19.433075" fill-rule="evenodd"/><path stroke="#000000" stroke-width="1.0" stroke-linejoin="round" stroke-linecap="butt" d="m125.953026 69.000656l0 16.005981" fill-rule="evenodd"/><path fill="#000000" stroke="#000000" stroke-width="1.0" stroke-linecap="butt" d="m125.953026 85.00664l-1.124588 -1.1245804l1.124588 3.0897675l1.1245804 -3.0897675z" fill-rule="evenodd"/><path fill="#000000" fill-opacity="0.0" d="m125.95276 120.13911l0 17.322838" fill-rule="evenodd"/><path stroke="#000000" stroke-width="1.0" stroke-linejoin="round" stroke-linecap="butt" d="m125.95276 120.13911l0 13.89576" fill-rule="evenodd"/><path fill="#000000" stroke="#000000" stroke-width="1.0" stroke-linecap="butt" d="m125.95276 134.03485l-1.124588 -1.1245728l1.124588 3.0897675l1.1245804 -3.0897675z" fill-rule="evenodd"/><path fill="#c9daf8" d="m271.98163 93.71008l0 0c0 -2.919487 2.3666992 -5.2862015 5.286194 -5.2862015l68.010284 0c1.4019775 0 2.7465515 0.5569382 3.737915 1.5482941c0.991333 0.9913559 1.5482788 2.3359146 1.5482788 3.7379074l0 21.144142c0 2.919487 -2.3666992 5.286194 -5.286194 5.286194l-68.010284 0l0 0c-2.9194946 0 -5.286194 -2.3667068 -5.286194 -5.286194z" fill-rule="evenodd"/><path stroke="#1c4587" stroke-width="1.0" stroke-linejoin="round" stroke-linecap="butt" d="m271.98163 93.71008l0 0c0 -2.919487 2.3666992 -5.2862015 5.286194 -5.2862015l68.010284 0c1.4019775 0 2.7465515 0.5569382 3.737915 1.5482941c0.991333 0.9913559 1.5482788 2.3359146 1.5482788 3.7379074l0 21.144142c0 2.919487 -2.3666992 5.286194 -5.286194 5.286194l-68.010284 0l0 0c-2.9194946 0 -5.286194 -2.3667068 -5.286194 -5.286194z" fill-rule="evenodd"/><path fill="#1c4587" d="m291.6588 100.0484l-2.75 0l0 10.09375l-1.203125 0l0 -10.09375l-2.75 0l0 -1.109375l6.703125 0l0 1.109375zm1.370758 2.09375l1.140625 0l0 8.0l-1.140625 0l0 -8.0zm-0.21875 -2.4375q0 -0.375 0.21875 -0.609375q0.21875 -0.25 0.578125 -0.25q0.34375 0 0.578125 0.234375q0.234375 0.234375 0.234375 0.625q0 0.390625 -0.234375 0.609375q-0.234375 0.21875 -0.578125 0.21875q-0.359375 0 -0.578125 -0.21875q-0.21875 -0.234375 -0.21875 -0.609375zm2.6907349 2.4375l0.984375 0l0 -1.578125l1.140625 -0.375l0 1.953125l1.734375 0l0 1.046875l-1.734375 0l0 4.765625q0 0.703125 0.171875 1.015625q0.171875 0.3125 0.546875 0.3125q0.328125 0 0.5625 -0.078125q0.234375 -0.078125 0.5 -0.1875l0.21875 0.921875q-0.34375 0.171875 -0.765625 0.265625q-0.421875 0.109375 -0.890625 0.109375q-0.796875 0 -1.140625 -0.515625q-0.34375 -0.515625 -0.34375 -1.6875l0 -4.921875l-0.984375 0l0 -1.046875zm6.9468994 4.40625l-0.59375 0l0 3.59375l-1.15625 0l0 -11.203125l1.15625 0l0 6.8125l0.53125 -0.21875l1.875 -3.390625l1.328125 0l-1.890625 3.234375l-0.5625 0.515625l0.65625 0.625l2.0625 3.625l-1.390625 0l-2.015625 -3.59375zm3.9542542 -0.40625q0 -2.15625 0.734375 -3.171875q0.75 -1.015625 2.125 -1.015625q1.46875 0 2.15625 1.046875q0.703125 1.03125 0.703125 3.140625q0 2.171875 -0.75 3.1875q-0.75 1.0 -2.109375 1.0q-1.46875 0 -2.171875 -1.03125q-0.6875 -1.046875 -0.6875 -3.15625zm1.203125 0q0 0.703125 0.078125 1.28125q0.09375 0.578125 0.296875 1.0q0.203125 0.40625 0.515625 0.640625q0.328125 0.234375 0.765625 0.234375q0.828125 0 1.25 -0.75q0.421875 -0.75 0.421875 -2.40625q0 -0.6875 -0.09375 -1.265625q-0.09375 -0.59375 -0.296875 -1.0q-0.1875 -0.421875 -0.515625 -0.65625q-0.3125 -0.234375 -0.765625 -0.234375q-0.8125 0 -1.234375 0.765625q-0.421875 0.75 -0.421875 2.390625zm5.927643 2.6875q0.328125 0.1875 0.765625 0.328125q0.4375 0.140625 0.90625 0.140625q0.53125 0 0.890625 -0.265625q0.375 -0.265625 0.375 -0.859375q0 -0.5 -0.234375 -0.8125q-0.21875 -0.328125 -0.5625 -0.578125q-0.34375 -0.25 -0.75 -0.46875q-0.390625 -0.21875 -0.734375 -0.515625q-0.34375 -0.3125 -0.578125 -0.71875q-0.21875 -0.421875 -0.21875 -1.0625q0 -1.03125 0.546875 -1.546875q0.5625 -0.515625 1.5625 -0.515625q0.65625 0 1.140625 0.125q0.484375 0.109375 0.828125 0.3125l-0.296875 0.96875q-0.3125 -0.15625 -0.71875 -0.265625q-0.390625 -0.109375 -0.8125 -0.109375q-0.5625 0 -0.828125 0.25q-0.265625 0.234375 -0.265625 0.75q0 0.390625 0.21875 0.671875q0.21875 0.28125 0.5625 0.515625q0.34375 0.234375 0.75 0.484375q0.40625 0.234375 0.75 0.5625q0.34375 0.328125 0.5625 0.78125q0.21875 0.453125 0.21875 1.140625q0 0.453125 -0.140625 0.859375q-0.140625 0.390625 -0.4375 0.6875q-0.296875 0.296875 -0.734375 0.46875q-0.4375 0.171875 -1.03125 0.171875q-0.703125 0 -1.21875 -0.140625q-0.515625 -0.125 -0.859375 -0.34375l0.34375 -1.015625zm5.7517395 -6.6875l1.140625 0l0 8.0l-1.140625 0l0 -8.0zm0.5625 -3.515625l1.234375 0l0 0.328125l-1.3125 2.046875l-0.6875 0l0.765625 -2.375zm1.8938904 3.515625l0.984375 0l0 -1.578125l1.140625 -0.375l0 1.953125l1.734375 0l0 1.046875l-1.734375 0l0 4.765625q0 0.703125 0.171875 1.015625q0.171875 0.3125 0.546875 0.3125q0.328125 0 0.5625 -0.078125q0.234375 -0.078125 0.5 -0.1875l0.21875 0.921875q-0.34375 0.171875 -0.765625 0.265625q-0.421875 0.109375 -0.890625 0.109375q-0.796875 0 -1.140625 -0.515625q-0.34375 -0.515625 -0.34375 -1.6875l0 -4.921875l-0.984375 0l0 -1.046875zm5.118744 0.484375q0.46875 -0.296875 1.125 -0.453125q0.671875 -0.15625 1.40625 -0.15625q0.671875 0 1.078125 0.203125q0.40625 0.1875 0.640625 0.53125q0.234375 0.34375 0.296875 0.796875q0.078125 0.4375 0.078125 0.90625q0 0.96875 -0.046875 1.890625q-0.03125 0.90625 -0.03125 1.71875q0 0.609375 0.03125 1.125q0.046875 0.515625 0.15625 0.984375l-0.875 0l-0.265625 -0.9375l-0.0625 0q-0.25 0.40625 -0.71875 0.71875q-0.453125 0.296875 -1.234375 0.296875q-0.875 0 -1.421875 -0.59375q-0.546875 -0.609375 -0.546875 -1.65625q0 -0.6875 0.21875 -1.15625q0.234375 -0.46875 0.65625 -0.75q0.4375 -0.296875 1.015625 -0.40625q0.578125 -0.125 1.296875 -0.125q0.171875 0 0.328125 0q0.15625 0 0.328125 0.015625q0.0625 -0.5 0.0625 -0.875q0 -0.921875 -0.28125 -1.28125q-0.265625 -0.375 -0.984375 -0.375q-0.453125 0 -0.984375 0.140625q-0.53125 0.140625 -0.875 0.34375l-0.390625 -0.90625zm3.484375 3.875q-0.171875 -0.015625 -0.328125 -0.03125q-0.15625 -0.015625 -0.3125 -0.015625q-0.390625 0 -0.765625 0.078125q-0.359375 0.0625 -0.65625 0.21875q-0.28125 0.15625 -0.453125 0.4375q-0.171875 0.265625 -0.171875 0.6875q0 0.640625 0.3125 1.0q0.3125 0.34375 0.8125 0.34375q0.671875 0 1.03125 -0.3125q0.375 -0.328125 0.53125 -0.71875l0 -1.6875zm-1.625 -7.875l1.234375 0l0 0.328125l-1.3125 2.046875l-0.6875 0l0.765625 -2.375zm4.4937744 10.203125q0.328125 0.1875 0.765625 0.328125q0.4375 0.140625 0.90625 0.140625q0.53125 0 0.890625 -0.265625q0.375 -0.265625 0.375 -0.859375q0 -0.5 -0.234375 -0.8125q-0.21875 -0.328125 -0.5625 -0.578125q-0.34375 -0.25 -0.75 -0.46875q-0.390625 -0.21875 -0.734375 -0.515625q-0.34375 -0.3125 -0.578125 -0.71875q-0.21875 -0.421875 -0.21875 -1.0625q0 -1.03125 0.546875 -1.546875q0.5625 -0.515625 1.5625 -0.515625q0.65625 0 1.140625 0.125q0.484375 0.109375 0.828125 0.3125l-0.296875 0.96875q-0.3125 -0.15625 -0.71875 -0.265625q-0.390625 -0.109375 -0.8125 -0.109375q-0.5625 0 -0.828125 0.25q-0.265625 0.234375 -0.265625 0.75q0 0.390625 0.21875 0.671875q0.21875 0.28125 0.5625 0.515625q0.34375 0.234375 0.75 0.484375q0.40625 0.234375 0.75 0.5625q0.34375 0.328125 0.5625 0.78125q0.21875 0.453125 0.21875 1.140625q0 0.453125 -0.140625 0.859375q-0.140625 0.390625 -0.4375 0.6875q-0.296875 0.296875 -0.734375 0.46875q-0.4375 0.171875 -1.03125 0.171875q-0.703125 0 -1.21875 -0.140625q-0.515625 -0.125 -0.859375 -0.34375l0.34375 -1.015625z" fill-rule="nonzero"/><path fill="#d9ead3" d="m271.98163 137.46588l78.58203 0l0 25.44197c-39.291016 0 -39.291016 9.693863 -78.58203 4.1859894z" fill-rule="evenodd"/><path stroke="#274e13" stroke-width="1.0" stroke-linejoin="round" stroke-linecap="butt" d="m271.98163 137.46588l78.58203 0l0 25.44197c-39.291016 0 -39.291016 9.693863 -78.58203 4.1859894z" fill-rule="evenodd"/><path fill="#274e13" d="m298.15686 144.84373l1.15625 0l0 7.5q0 2.046875 -0.796875 2.953125q-0.78125 0.890625 -2.25 0.890625q-1.6875 0 -2.46875 -0.875q-0.765625 -0.875 -0.765625 -2.703125l0 -7.765625l1.1875 0l0 7.140625q0 0.859375 0.109375 1.453125q0.125 0.59375 0.375 0.96875q0.25 0.359375 0.640625 0.53125q0.390625 0.15625 0.9375 0.15625q1.0625 0 1.46875 -0.734375q0.40625 -0.75 0.40625 -2.375l0 -7.140625zm-4.203125 -1.5q0 -0.34375 0.203125 -0.546875q0.203125 -0.203125 0.5625 -0.203125q0.328125 0 0.53125 0.203125q0.203125 0.203125 0.203125 0.546875q0 0.328125 -0.203125 0.53125q-0.203125 0.203125 -0.53125 0.203125q-0.359375 0 -0.5625 -0.203125q-0.203125 -0.203125 -0.203125 -0.53125zm2.53125 0q0 -0.34375 0.203125 -0.546875q0.203125 -0.203125 0.53125 -0.203125q0.359375 0 0.546875 0.203125q0.203125 0.203125 0.203125 0.546875q0 0.328125 -0.203125 0.53125q-0.1875 0.203125 -0.546875 0.203125q-0.328125 0 -0.53125 -0.203125q-0.203125 -0.203125 -0.203125 -0.53125zm4.3672485 11.65625l2.96875 -5.21875l0.5625 -0.6875l-3.53125 0l0 -1.046875l4.671875 0l0 1.046875l-3.0 5.265625l-0.546875 0.640625l3.546875 0l0 1.046875l-4.671875 0l0 -1.046875zm10.786774 0.5q-0.390625 0.359375 -0.984375 0.546875q-0.59375 0.1875 -1.25 0.1875q-0.75 0 -1.3125 -0.296875q-0.546875 -0.296875 -0.90625 -0.84375q-0.359375 -0.546875 -0.53125 -1.3125q-0.15625 -0.78125 -0.15625 -1.734375q0 -2.046875 0.75 -3.109375q0.75 -1.078125 2.125 -1.078125q0.453125 0 0.890625 0.109375q0.4375 0.109375 0.78125 0.453125q0.359375 0.328125 0.578125 0.9375q0.21875 0.609375 0.21875 1.578125q0 0.28125 -0.03125 0.59375q-0.015625 0.3125 -0.046875 0.640625l-4.0625 0q0 0.6875 0.109375 1.25q0.109375 0.5625 0.34375 0.953125q0.25 0.390625 0.625 0.609375q0.375 0.21875 0.9375 0.21875q0.421875 0 0.84375 -0.15625q0.4375 -0.171875 0.65625 -0.390625l0.421875 0.84375zm-0.90625 -4.28125q0.03125 -1.203125 -0.34375 -1.765625q-0.359375 -0.5625 -1.0 -0.5625q-0.734375 0 -1.171875 0.5625q-0.421875 0.5625 -0.5 1.765625l3.015625 0zm6.8267517 4.828125l0 -4.875q0 -1.203125 -0.28125 -1.734375q-0.28125 -0.546875 -1.0 -0.546875q-0.640625 0 -1.0625 0.390625q-0.421875 0.375 -0.609375 0.9375l0 5.828125l-1.15625 0l0 -8.0l0.84375 0l0.203125 0.84375l0.046875 0q0.3125 -0.421875 0.828125 -0.71875q0.515625 -0.3125 1.234375 -0.3125q0.515625 0 0.90625 0.140625q0.390625 0.140625 0.65625 0.484375q0.265625 0.34375 0.390625 0.921875q0.140625 0.578125 0.140625 1.453125l0 5.1875l-1.140625 0zm7.7115173 -0.546875q-0.390625 0.359375 -0.984375 0.546875q-0.59375 0.1875 -1.25 0.1875q-0.75 0 -1.3125 -0.296875q-0.546875 -0.296875 -0.90625 -0.84375q-0.359375 -0.546875 -0.53125 -1.3125q-0.15625 -0.78125 -0.15625 -1.734375q0 -2.046875 0.75 -3.109375q0.75 -1.078125 2.125 -1.078125q0.453125 0 0.890625 0.109375q0.4375 0.109375 0.78125 0.453125q0.359375 0.328125 0.578125 0.9375q0.21875 0.609375 0.21875 1.578125q0 0.28125 -0.03125 0.59375q-0.015625 0.3125 -0.046875 0.640625l-4.0625 0q0 0.6875 0.109375 1.25q0.109375 0.5625 0.34375 0.953125q0.25 0.390625 0.625 0.609375q0.375 0.21875 0.9375 0.21875q0.421875 0 0.84375 -0.15625q0.4375 -0.171875 0.65625 -0.390625l0.421875 0.84375zm-0.90625 -4.28125q0.03125 -1.203125 -0.34375 -1.765625q-0.359375 -0.5625 -1.0 -0.5625q-0.734375 0 -1.171875 0.5625q-0.421875 0.5625 -0.5 1.765625l3.015625 0zm1.9205322 -3.171875l0.984375 0l0 -1.578125l1.140625 -0.375l0 1.953125l1.734375 0l0 1.046875l-1.734375 0l0 4.765625q0 0.703125 0.171875 1.015625q0.171875 0.3125 0.546875 0.3125q0.328125 0 0.5625 -0.078125q0.234375 -0.078125 0.5 -0.1875l0.21875 0.921875q-0.34375 0.171875 -0.765625 0.265625q-0.421875 0.109375 -0.890625 0.109375q-0.796875 0 -1.140625 -0.515625q-0.34375 -0.515625 -0.34375 -1.6875l0 -4.921875l-0.984375 0l0 -1.046875z" fill-rule="nonzero"/><path fill="#f4cccc" d="m273.1614 39.374016l76.22363 0l0 25.44197c-38.111816 0 -38.111816 9.693855 -76.22363 4.1859818z" fill-rule="evenodd"/><path stroke="#660000" stroke-width="1.0" stroke-linejoin="round" stroke-linecap="butt" d="m273.1614 39.374016l76.22363 0l0 25.44197c-38.111816 0 -38.111816 9.693855 -76.22363 4.1859818z" fill-rule="evenodd"/><path fill="#660000" d="m303.95334 54.814377l-3.171875 0l-0.890625 3.140625l-1.1875 0l3.375 -11.375l0.65625 0l3.375 11.375l-1.25 0l-0.90625 -3.140625zm-2.84375 -1.0625l2.5625 0l-0.984375 -3.453125l-0.296875 -1.6875l-0.03125 0l-0.3125 1.71875l-0.9375 3.421875zm11.067993 1.453125q0 0.8125 0.015625 1.484375q0.015625 0.65625 0.109375 1.296875l-0.78125 0l-0.25 -0.953125l-0.0625 0q-0.234375 0.46875 -0.71875 0.796875q-0.46875 0.3125 -1.140625 0.3125q-1.296875 0 -1.9375 -1.0q-0.625 -1.015625 -0.625 -3.171875q0 -2.046875 0.765625 -3.09375q0.78125 -1.0625 2.140625 -1.0625q0.46875 0 0.734375 0.0625q0.28125 0.046875 0.59375 0.171875l0 -3.296875l1.15625 0l0 8.453125zm-1.15625 -3.984375q-0.21875 -0.1875 -0.5 -0.28125q-0.28125 -0.09375 -0.75 -0.09375q-0.84375 0 -1.3125 0.78125q-0.46875 0.765625 -0.46875 2.359375q0 0.703125 0.078125 1.28125q0.09375 0.5625 0.28125 0.984375q0.1875 0.40625 0.46875 0.640625q0.296875 0.21875 0.734375 0.21875q1.15625 0 1.46875 -1.359375l0 -4.53125zm2.959259 -0.78125q0.46875 -0.296875 1.125 -0.453125q0.671875 -0.15625 1.40625 -0.15625q0.671875 0 1.078125 0.203125q0.40625 0.1875 0.640625 0.53125q0.234375 0.34375 0.296875 0.796875q0.078125 0.4375 0.078125 0.90625q0 0.96875 -0.046875 1.890625q-0.03125 0.90625 -0.03125 1.71875q0 0.609375 0.03125 1.125q0.046875 0.515625 0.15625 0.984375l-0.875 0l-0.265625 -0.9375l-0.0625 0q-0.25 0.40625 -0.71875 0.71875q-0.453125 0.296875 -1.234375 0.296875q-0.875 0 -1.421875 -0.59375q-0.546875 -0.609375 -0.546875 -1.65625q0 -0.6875 0.21875 -1.15625q0.234375 -0.46875 0.65625 -0.75q0.4375 -0.296875 1.015625 -0.40625q0.578125 -0.125 1.296875 -0.125q0.171875 0 0.328125 0q0.15625 0 0.328125 0.015625q0.0625 -0.5 0.0625 -0.875q0 -0.921875 -0.28125 -1.28125q-0.265625 -0.375 -0.984375 -0.375q-0.453125 0 -0.984375 0.140625q-0.53125 0.140625 -0.875 0.34375l-0.390625 -0.90625zm3.484375 3.875q-0.171875 -0.015625 -0.328125 -0.03125q-0.15625 -0.015625 -0.3125 -0.015625q-0.390625 0 -0.765625 0.078125q-0.359375 0.0625 -0.65625 0.21875q-0.28125 0.15625 -0.453125 0.4375q-0.171875 0.265625 -0.171875 0.6875q0 0.640625 0.3125 1.0q0.3125 0.34375 0.8125 0.34375q0.671875 0 1.03125 -0.3125q0.375 -0.328125 0.53125 -0.71875l0 -1.6875zm2.1968994 -4.359375l0.984375 0l0 -1.578125l1.140625 -0.375l0 1.953125l1.734375 0l0 1.046875l-1.734375 0l0 4.765625q0 0.703125 0.171875 1.015625q0.171875 0.3125 0.546875 0.3125q0.328125 0 0.5625 -0.078125q0.234375 -0.078125 0.5 -0.1875l0.21875 0.921875q-0.34375 0.171875 -0.765625 0.265625q-0.421875 0.109375 -0.890625 0.109375q-0.796875 0 -1.140625 -0.515625q-0.34375 -0.515625 -0.34375 -1.6875l0 -4.921875l-0.984375 0l0 -1.046875z" fill-rule="nonzero"/><path fill="#fce5cd" d="m201.17323 93.707375l0 0c0 -2.9201508 11.290405 -5.287407 25.21785 -5.287407c13.927429 0 25.217834 2.3672562 25.217834 5.287407l0 21.149605c0 2.9201508 -11.290405 5.2873993 -25.217834 5.2873993c-13.927444 0 -25.21785 -2.3672485 -25.21785 -5.2873993z" fill-rule="evenodd"/><path fill="#000000" fill-opacity="0.0" d="m251.60892 93.707375l0 0c0 2.9201508 -11.290405 5.2873993 -25.217834 5.2873993c-13.927444 0 -25.21785 -2.3672485 -25.21785 -5.2873993" fill-rule="evenodd"/><path fill="#000000" fill-opacity="0.0" d="m201.17323 93.707375l0 0c0 -2.9201508 11.290405 -5.287407 25.21785 -5.287407c13.927429 0 25.217834 2.3672562 25.217834 5.287407l0 21.149605c0 2.9201508 -11.290405 5.2873993 -25.217834 5.2873993c-13.927444 0 -25.21785 -2.3672485 -25.21785 -5.2873993z" fill-rule="evenodd"/><path stroke="#783f04" stroke-width="1.0" stroke-linejoin="round" stroke-linecap="butt" d="m251.60892 93.707375l0 0c0 2.9201508 -11.290405 5.2873993 -25.217834 5.2873993c-13.927444 0 -25.21785 -2.3672485 -25.21785 -5.2873993" fill-rule="evenodd"/><path stroke="#783f04" stroke-width="1.0" stroke-linejoin="round" stroke-linecap="butt" d="m201.17323 93.707375l0 0c0 -2.9201508 11.290405 -5.287407 25.21785 -5.287407c13.927429 0 25.217834 2.3672562 25.217834 5.287407l0 21.149605c0 2.9201508 -11.290405 5.2873993 -25.217834 5.2873993c-13.927444 0 -25.21785 -2.3672485 -25.21785 -5.2873993z" fill-rule="evenodd"/><path fill="#783f04" d="m214.52393 107.59837l-0.578125 0l0 5.1875l-1.1875 0l0 -11.203125l1.1875 0l0 5.21875l0.5625 -0.21875l2.921875 -5.0l1.375 0l-2.9375 4.828125l-0.5625 0.515625l0.65625 0.640625l3.25 5.21875l-1.515625 0l-3.171875 -5.1875zm6.739517 -2.8125l0 4.890625q0 1.21875 0.25 1.75q0.25 0.515625 0.90625 0.515625q0.328125 0 0.59375 -0.140625q0.265625 -0.140625 0.46875 -0.359375q0.21875 -0.21875 0.375 -0.5q0.15625 -0.296875 0.25 -0.609375l0 -5.546875l1.15625 0l0 5.734375q0 0.5625 0.03125 1.1875q0.046875 0.609375 0.125 1.078125l-0.8125 0l-0.28125 -1.125l-0.0625 0q-0.265625 0.53125 -0.78125 0.921875q-0.5 0.390625 -1.28125 0.390625q-0.5 0 -0.890625 -0.125q-0.390625 -0.125 -0.65625 -0.453125q-0.265625 -0.34375 -0.40625 -0.921875q-0.140625 -0.59375 -0.140625 -1.5l0 -5.1875l1.15625 0zm7.1315155 6.09375q0 0.5625 0.15625 0.8125q0.15625 0.234375 0.421875 0.234375q0.34375 0 0.78125 -0.1875l0.109375 0.9375q-0.203125 0.125 -0.578125 0.203125q-0.375 0.078125 -0.671875 0.078125q-0.609375 0 -0.984375 -0.375q-0.375 -0.375 -0.375 -1.3125l0 -9.6875l1.140625 0l0 9.296875zm6.915512 1.5q-0.40625 0.3125 -0.921875 0.453125q-0.5 0.140625 -1.0625 0.140625q-0.765625 0 -1.296875 -0.296875q-0.53125 -0.296875 -0.859375 -0.84375q-0.328125 -0.546875 -0.484375 -1.328125q-0.140625 -0.78125 -0.140625 -1.71875q0 -2.046875 0.71875 -3.109375q0.734375 -1.078125 2.09375 -1.078125q0.625 0 1.0625 0.109375q0.453125 0.109375 0.78125 0.28125l-0.328125 1.015625q-0.640625 -0.375 -1.390625 -0.375q-0.859375 0 -1.296875 0.765625q-0.4375 0.765625 -0.4375 2.390625q0 0.65625 0.09375 1.234375q0.09375 0.578125 0.3125 1.0q0.234375 0.421875 0.578125 0.671875q0.359375 0.25 0.875 0.25q0.421875 0 0.78125 -0.140625q0.359375 -0.15625 0.59375 -0.34375l0.328125 0.921875zm1.1491394 -0.90625q0.328125 0.1875 0.765625 0.328125q0.4375 0.140625 0.90625 0.140625q0.53125 0 0.890625 -0.265625q0.375 -0.265625 0.375 -0.859375q0 -0.5 -0.234375 -0.8125q-0.21875 -0.328125 -0.5625 -0.578125q-0.34375 -0.25 -0.75 -0.46875q-0.390625 -0.21875 -0.734375 -0.515625q-0.34375 -0.3125 -0.578125 -0.71875q-0.21875 -0.421875 -0.21875 -1.0625q0 -1.03125 0.546875 -1.546875q0.5625 -0.515625 1.5625 -0.515625q0.65625 0 1.140625 0.125q0.484375 0.109375 0.828125 0.3125l-0.296875 0.96875q-0.3125 -0.15625 -0.71875 -0.265625q-0.390625 -0.109375 -0.8125 -0.109375q-0.5625 0 -0.828125 0.25q-0.265625 0.234375 -0.265625 0.75q0 0.390625 0.21875 0.671875q0.21875 0.28125 0.5625 0.515625q0.34375 0.234375 0.75 0.484375q0.40625 0.234375 0.75 0.5625q0.34375 0.328125 0.5625 0.78125q0.21875 0.453125 0.21875 1.140625q0 0.453125 -0.140625 0.859375q-0.140625 0.390625 -0.4375 0.6875q-0.296875 0.296875 -0.734375 0.46875q-0.4375 0.171875 -1.03125 0.171875q-0.703125 0 -1.21875 -0.140625q-0.515625 -0.125 -0.859375 -0.34375l0.34375 -1.015625z" fill-rule="nonzero"/><path fill="#000000" fill-opacity="0.0" d="m251.60892 104.28217l20.37796 0" fill-rule="evenodd"/><path stroke="#000000" stroke-width="1.0" stroke-linejoin="round" stroke-linecap="butt" d="m251.60892 104.28217l16.950867 0" fill-rule="evenodd"/><path fill="#000000" stroke="#000000" stroke-width="1.0" stroke-linecap="butt" d="m268.55978 104.28217l-1.1245728 1.1245804l3.0897522 -1.1245804l-3.0897522 -1.1245804z" fill-rule="evenodd"/><path fill="#000000" fill-opacity="0.0" d="m311.27322 69.00197l0 19.433075" fill-rule="evenodd"/><path stroke="#000000" stroke-width="1.0" stroke-linejoin="round" stroke-linecap="butt" d="m311.27322 69.00197l0 16.005981" fill-rule="evenodd"/><path fill="#000000" stroke="#000000" stroke-width="1.0" stroke-linecap="butt" d="m311.27322 85.00795l-1.1245728 -1.1245804l1.1245728 3.0897675l1.1246033 -3.0897675z" fill-rule="evenodd"/><path fill="#000000" fill-opacity="0.0" d="m311.27298 120.14042l0 17.322838" fill-rule="evenodd"/><path stroke="#000000" stroke-width="1.0" stroke-linejoin="round" stroke-linecap="butt" d="m311.27298 120.14042l0 13.89576" fill-rule="evenodd"/><path fill="#000000" stroke="#000000" stroke-width="1.0" stroke-linecap="butt" d="m311.27298 134.03616l-1.1246033 -1.1245728l1.1246033 3.0897675l1.1245728 -3.0897675z" fill-rule="evenodd"/></g></svg>