<svg version="1.1" viewBox="0.0 0.0 540.9658792650919 441.62729658792654" fill="none" stroke="none" stroke-linecap="square" stroke-miterlimit="10" xmlns:xlink="http://www.w3.org/1999/xlink" xmlns="http://www.w3.org/2000/svg"><clipPath id="p.0"><path d="m0 0l540.9659 0l0 441.6273l-540.9659 0l0 -441.6273z" clip-rule="nonzero"/></clipPath><g clip-path="url(#p.0)"><path fill="#000000" fill-opacity="0.0" d="m0 0l540.9659 0l0 441.6273l-540.9659 0z" fill-rule="evenodd"/><path fill="#000000" fill-opacity="0.0" d="m196.68242 108.58137l291.0866 0l0 135.1181l-291.0866 0z" fill-rule="evenodd"/><path stroke="#434343" stroke-width="1.0" stroke-linejoin="round" stroke-linecap="butt" d="m196.68242 108.58137l291.0866 0l0 135.1181l-291.0866 0z" fill-rule="evenodd"/><path fill="#cfe2f3" d="m8.228347 8.228347l479.55908 0l0 20.377953l-479.55908 0z" fill-rule="evenodd"/><path stroke="#073763" stroke-width="1.0" stroke-linejoin="round" stroke-linecap="butt" d="m8.228347 8.228347l479.55908 0l0 20.377953l-479.55908 0z" fill-rule="evenodd"/><path fill="#073763" d="m91.15965 21.136698l-3.171875 0l-0.890625 3.140625l-1.1875 0l3.375 -11.374999l0.65625 0l3.375 11.374999l-1.25 0l-0.90625 -3.140625zm-2.84375 -1.0625l2.5625 0l-0.984375 -3.453125l-0.296875 -1.687499l-0.03125 0l-0.3125 1.718749l-0.9375 3.421875zm7.2555084 2.296875q0 0.5625 0.15625 0.8125q0.15625 0.234375 0.421875 0.234375q0.34375 0 0.78125 -0.1875l0.109375 0.9375q-0.203125 0.125 -0.578125 0.203125q-0.375 0.078125 -0.671875 0.078125q-0.609375 0 -0.984375 -0.375q-0.375 -0.375 -0.375 -1.3125l0 -9.687499l1.140625 0l0 9.296874zm4.243637 -1.6875l-0.59375 0l0 3.59375l-1.15625 0l0 -11.203124l1.15625 0l0 6.812499l0.53125 -0.21875l1.875 -3.390625l1.328125 0l-1.890625 3.234375l-0.5625 0.515625l0.65625 0.625l2.0625 3.625l-1.390625 0l-2.015625 -3.59375zm4.379883 -3.921875q0.46875 -0.296875 1.125 -0.453125q0.671875 -0.15625 1.40625 -0.15625q0.671875 0 1.078125 0.203125q0.40625 0.1875 0.640625 0.53125q0.234375 0.34375 0.296875 0.796875q0.078125 0.4375 0.078125 0.90625q0 0.96875 -0.046875 1.890625q-0.03125 0.90625 -0.03125 1.71875q0 0.609375 0.03125 1.125q0.046875 0.515625 0.15625 0.984375l-0.875 0l-0.265625 -0.9375l-0.0625 0q-0.25 0.40625 -0.71875 0.71875q-0.453125 0.296875 -1.234375 0.296875q-0.875 0 -1.421875 -0.59375q-0.546875 -0.609375 -0.546875 -1.65625q0 -0.6875 0.21875 -1.15625q0.234375 -0.46875 0.65625 -0.75q0.4375 -0.296875 1.015625 -0.40625q0.578125 -0.125 1.296875 -0.125q0.171875 0 0.328125 0q0.15625 0 0.328125 0.015625q0.0625 -0.5 0.0625 -0.875q0 -0.921875 -0.28125 -1.28125q-0.265625 -0.375 -0.984375 -0.375q-0.453125 0 -0.984375 0.140625q-0.53125 0.140625 -0.875 0.34375l-0.390625 -0.90625zm3.484375 3.875q-0.171875 -0.015625 -0.328125 -0.03125q-0.15625 -0.015625 -0.3125 -0.015625q-0.390625 0 -0.765625 0.078125q-0.359375 0.0625 -0.65625 0.21875q-0.28125 0.15625 -0.453125 0.4375q-0.171875 0.265625 -0.171875 0.6875q0 0.640625 0.3125 1.0q0.3125 0.34375 0.8125 0.34375q0.671875 0 1.03125 -0.3125q0.375 -0.328125 0.53125 -0.71875l0 -1.6875zm4.228134 1.734375q0 0.5625 0.15625 0.8125q0.15625 0.234375 0.421875 0.234375q0.34375 0 0.78125 -0.1875l0.109375 0.9375q-0.203125 0.125 -0.578125 0.203125q-0.375 0.078125 -0.671875 0.078125q-0.609375 0 -0.984375 -0.375q-0.375 -0.375 -0.375 -1.3125l0 -9.687499l1.140625 0l0 9.296874zm6.243637 1.90625l0 -4.75q0 -0.640625 -0.046875 -1.09375q-0.03125 -0.453125 -0.15625 -0.734375q-0.125 -0.296875 -0.359375 -0.4375q-0.21875 -0.140625 -0.59375 -0.140625q-0.546875 0 -0.921875 0.4375q-0.375 0.421875 -0.515625 0.953125l0 5.765625l-1.15625 0l0 -8.0l0.828125 0l0.203125 0.84375l0.046875 0q0.34375 -0.453125 0.796875 -0.734375q0.46875 -0.296875 1.1875 -0.296875q0.609375 0 1.0 0.265625q0.390625 0.265625 0.609375 0.9375q0.296875 -0.5625 0.828125 -0.875q0.53125 -0.328125 1.171875 -0.328125q0.53125 0 0.90625 0.140625q0.375 0.125 0.609375 0.46875q0.234375 0.34375 0.34375 0.921875q0.109375 0.5625 0.109375 1.421875l0 5.234375l-1.140625 0l0 -5.09375q0 -1.03125 -0.203125 -1.546875q-0.203125 -0.515625 -0.921875 -0.515625q-0.609375 0 -0.96875 0.375q-0.359375 0.375 -0.5 1.015625l0 5.765625l-1.15625 0zm6.5878906 -7.515625q0.46875 -0.296875 1.125 -0.453125q0.671875 -0.15625 1.40625 -0.15625q0.671875 0 1.078125 0.203125q0.40625 0.1875 0.640625 0.53125q0.234375 0.34375 0.296875 0.796875q0.078125 0.4375 0.078125 0.90625q0 0.96875 -0.046875 1.890625q-0.03125 0.90625 -0.03125 1.71875q0 0.609375 0.03125 1.125q0.046875 0.515625 0.15625 0.984375l-0.875 0l-0.265625 -0.9375l-0.0625 0q-0.25 0.40625 -0.71875 0.71875q-0.453125 0.296875 -1.234375 0.296875q-0.875 0 -1.421875 -0.59375q-0.546875 -0.609375 -0.546875 -1.65625q0 -0.6875 0.21875 -1.15625q0.234375 -0.46875 0.65625 -0.75q0.4375 -0.296875 1.015625 -0.40625q0.578125 -0.125 1.296875 -0.125q0.171875 0 0.328125 0q0.15625 0 0.328125 0.015625q0.0625 -0.5 0.0625 -0.875q0 -0.921875 -0.28125 -1.28125q-0.265625 -0.375 -0.984375 -0.375q-0.453125 0 -0.984375 0.140625q-0.53125 0.140625 -0.875 0.34375l-0.390625 -0.90625zm3.484375 3.875q-0.171875 -0.015625 -0.328125 -0.03125q-0.15625 -0.015625 -0.3125 -0.015625q-0.390625 0 -0.765625 0.078125q-0.359375 0.0625 -0.65625 0.21875q-0.28125 0.15625 -0.453125 0.4375q-0.171875 0.265625 -0.171875 0.6875q0 0.640625 0.3125 1.0q0.3125 0.34375 0.8125 0.34375q0.671875 0 1.03125 -0.3125q0.375 -0.328125 0.53125 -0.71875l0 -1.6875zm2.5718842 2.59375l2.96875 -5.21875l0.5625 -0.6875l-3.53125 0l0 -1.046875l4.671875 0l0 1.046875l-3.0 5.265625l-0.546875 0.640625l3.546875 0l0 1.046875l-4.671875 0l0 -1.046875zm6.10376 -6.46875q0.46875 -0.296875 1.125 -0.453125q0.671875 -0.15625 1.40625 -0.15625q0.671875 0 1.078125 0.203125q0.40625 0.1875 0.640625 0.53125q0.234375 0.34375 0.296875 0.796875q0.078125 0.4375 0.078125 0.90625q0 0.96875 -0.046875 1.890625q-0.03125 0.90625 -0.03125 1.71875q0 0.609375 0.03125 1.125q0.046875 0.515625 0.15625 0.984375l-0.875 0l-0.265625 -0.9375l-0.0625 0q-0.25 0.40625 -0.71875 0.71875q-0.453125 0.296875 -1.234375 0.296875q-0.875 0 -1.421875 -0.59375q-0.546875 -0.609375 -0.546875 -1.65625q0 -0.6875 0.21875 -1.15625q0.234375 -0.46875 0.65625 -0.75q0.4375 -0.296875 1.015625 -0.40625q0.578125 -0.125 1.296875 -0.125q0.171875 0 0.328125 0q0.15625 0 0.328125 0.015625q0.0625 -0.5 0.0625 -0.875q0 -0.921875 -0.28125 -1.28125q-0.265625 -0.375 -0.984375 -0.375q-0.453125 0 -0.984375 0.140625q-0.53125 0.140625 -0.875 0.34375l-0.390625 -0.90625zm3.484375 3.875q-0.171875 -0.015625 -0.328125 -0.03125q-0.15625 -0.015625 -0.3125 -0.015625q-0.390625 0 -0.765625 0.078125q-0.359375 0.0625 -0.65625 0.21875q-0.28125 0.15625 -0.453125 0.4375q-0.171875 0.265625 -0.171875 0.6875q0 0.640625 0.3125 1.0q0.3125 0.34375 0.8125 0.34375q0.671875 0 1.03125 -0.3125q0.375 -0.328125 0.53125 -0.71875l0 -1.6875zm-1.625 -7.874999l1.234375 0l0 0.328125l-1.3125 2.046875l-0.6875 0l0.765625 -2.375zm4.493759 10.203124q0.328125 0.1875 0.765625 0.328125q0.4375 0.140625 0.90625 0.140625q0.53125 0 0.890625 -0.265625q0.375 -0.265625 0.375 -0.859375q0 -0.5 -0.234375 -0.8125q-0.21875 -0.328125 -0.5625 -0.578125q-0.34375 -0.25 -0.75 -0.46875q-0.390625 -0.21875 -0.734375 -0.515625q-0.34375 -0.3125 -0.578125 -0.71875q-0.21875 -0.421875 -0.21875 -1.0625q0 -1.03125 0.546875 -1.546875q0.5625 -0.515625 1.5625 -0.515625q0.65625 0 1.140625 0.125q0.484375 0.109375 0.828125 0.3125l-0.296875 0.96875q-0.3125 -0.15625 -0.71875 -0.265625q-0.390625 -0.109375 -0.8125 -0.109375q-0.5625 0 -0.828125 0.25q-0.265625 0.234375 -0.265625 0.75q0 0.390625 0.21875 0.671875q0.21875 0.28125 0.5625 0.515625q0.34375 0.234375 0.75 0.484375q0.40625 0.234375 0.75 0.5625q0.34375 0.328125 0.5625 0.78125q0.21875 0.453125 0.21875 1.140625q0 0.453125 -0.140625 0.859375q-0.140625 0.390625 -0.4375 0.6875q-0.296875 0.296875 -0.734375 0.46875q-0.4375 0.171875 -1.03125 0.171875q-0.703125 0 -1.21875 -0.140625q-0.515625 -0.125 -0.859375 -0.34375l0.34375 -1.015625zm5.1892548 -2.6875q0 -2.15625 0.734375 -3.171875q0.75 -1.015625 2.125 -1.015625q1.46875 0 2.15625 1.046875q0.703125 1.03125 0.703125 3.140625q0 2.171875 -0.75 3.1875q-0.75 1.0 -2.109375 1.0q-1.46875 0 -2.171875 -1.03125q-0.6875 -1.046875 -0.6875 -3.15625zm1.203125 0q0 0.703125 0.078125 1.28125q0.09375 0.578125 0.296875 1.0q0.203125 0.40625 0.515625 0.640625q0.328125 0.234375 0.765625 0.234375q0.828125 0 1.25 -0.75q0.421875 -0.75 0.421875 -2.40625q0 -0.6875 -0.09375 -1.265625q-0.09375 -0.59375 -0.296875 -1.0q-0.1875 -0.421875 -0.515625 -0.65625q-0.3125 -0.234375 -0.765625 -0.234375q-0.8125 0 -1.234375 0.765625q-0.421875 0.75 -0.421875 2.390625zm7.802643 0.40625l-0.59375 0l0 3.59375l-1.15625 0l0 -11.203124l1.15625 0l0 6.812499l0.53125 -0.21875l1.875 -3.390625l1.328125 0l-1.890625 3.234375l-0.5625 0.515625l0.65625 0.625l2.0625 3.625l-1.390625 0l-2.015625 -3.59375zm10.778519 -7.796874l0.90625 0.34375l-4.671875 13.281249l-0.9375 -0.328125l4.703125 -13.296874zm4.79953 9.906249q0.3125 0.203125 0.859375 0.390625q0.5625 0.1875 1.265625 0.1875q0.890625 0 1.453125 -0.4375q0.5625 -0.453125 0.5625 -1.390625q0 -0.625 -0.328125 -1.078125q-0.3125 -0.46875 -0.796875 -0.859375q-0.484375 -0.40625 -1.03125 -0.78125q-0.546875 -0.375 -1.03125 -0.828125q-0.484375 -0.453125 -0.8125 -1.046875q-0.3125 -0.59375 -0.3125 -1.421874q0 -1.34375 0.8125 -1.984375q0.8125 -0.65625 2.109375 -0.65625q0.796875 0 1.421875 0.140625q0.625 0.140625 1.0 0.375l-0.375 1.046875q-0.296875 -0.171875 -0.828125 -0.3125q-0.53125 -0.140625 -1.25 -0.140625q-0.859375 0 -1.28125 0.421875q-0.40625 0.421875 -0.40625 1.0625q0 0.56249905 0.3125 0.99999905q0.328125 0.421875 0.796875 0.8125q0.484375 0.375 1.03125 0.765625q0.5625 0.390625 1.03125 0.875q0.484375 0.484375 0.796875 1.09375q0.328125 0.609375 0.328125 1.4375q0 1.40625 -0.828125 2.203125q-0.828125 0.796875 -2.34375 0.796875q-0.96875 0 -1.59375 -0.171875q-0.609375 -0.171875 -0.96875 -0.40625l0.40625 -1.09375zm11.644882 0.9375q-0.390625 0.359375 -0.984375 0.546875q-0.59375 0.1875 -1.25 0.1875q-0.75 0 -1.3125 -0.296875q-0.546875 -0.296875 -0.90625 -0.84375q-0.359375 -0.546875 -0.53125 -1.3125q-0.15625 -0.78125 -0.15625 -1.734375q0 -2.046875 0.75 -3.109375q0.75 -1.078125 2.125 -1.078125q0.453125 0 0.890625 0.109375q0.4375 0.109375 0.78125 0.453125q0.359375 0.328125 0.578125 0.9375q0.21875 0.609375 0.21875 1.578125q0 0.28125 -0.03125 0.59375q-0.015625 0.3125 -0.046875 0.640625l-4.0625 0q0 0.6875 0.109375 1.25q0.109375 0.5625 0.34375 0.953125q0.25 0.390625 0.625 0.609375q0.375 0.21875 0.9375 0.21875q0.421875 0 0.84375 -0.15625q0.4375 -0.171875 0.65625 -0.390625l0.421875 0.84375zm-0.90625 -4.28125q0.03125 -1.203125 -0.34375 -1.765625q-0.359375 -0.5625 -1.0 -0.5625q-0.734375 0 -1.171875 0.5625q-0.421875 0.5625 -0.5 1.765625l3.015625 0zm2.717392 -3.171875l0.828125 0l0.203125 0.84375l0.046875 0q0.21875 -0.453125 0.578125 -0.71875q0.359375 -0.265625 0.875 -0.265625q0.375 0 0.828125 0.140625l-0.21875 1.171875q-0.421875 -0.140625 -0.734375 -0.140625q-0.515625 0 -0.84375 0.296875q-0.3125 0.28125 -0.40625 0.78125l0 5.890625l-1.15625 0l0 -8.0zm6.3215027 4.6875l0.328125 1.578125l0.03125 0l0.28125 -1.609375l1.40625 -4.65625l1.21875 0l-2.734375 8.171875l-0.5625 0l-2.78125 -8.171875l1.3125 0l1.5 4.6875zm5.504883 1.40625q0 0.5625 0.15625 0.8125q0.15625 0.234375 0.421875 0.234375q0.34375 0 0.78125 -0.1875l0.109375 0.9375q-0.203125 0.125 -0.578125 0.203125q-0.375 0.078125 -0.671875 0.078125q-0.609375 0 -0.984375 -0.375q-0.375 -0.375 -0.375 -1.3125l0 -9.687499l1.140625 0l0 9.296874zm7.290512 1.359375q-0.390625 0.359375 -0.984375 0.546875q-0.59375 0.1875 -1.25 0.1875q-0.75 0 -1.3125 -0.296875q-0.546875 -0.296875 -0.90625 -0.84375q-0.359375 -0.546875 -0.53125 -1.3125q-0.15625 -0.78125 -0.15625 -1.734375q0 -2.046875 0.75 -3.109375q0.75 -1.078125 2.125 -1.078125q0.453125 0 0.890625 0.109375q0.4375 0.109375 0.78125 0.453125q0.359375 0.328125 0.578125 0.9375q0.21875 0.609375 0.21875 1.578125q0 0.28125 -0.03125 0.59375q-0.015625 0.3125 -0.046875 0.640625l-4.0625 0q0 0.6875 0.109375 1.25q0.109375 0.5625 0.34375 0.953125q0.25 0.390625 0.625 0.609375q0.375 0.21875 0.9375 0.21875q0.421875 0 0.84375 -0.15625q0.4375 -0.171875 0.65625 -0.390625l0.421875 0.84375zm-0.90625 -4.28125q0.03125 -1.203125 -0.34375 -1.765625q-0.359375 -0.5625 -1.0 -0.5625q-0.734375 0 -1.171875 0.5625q-0.421875 0.5625 -0.5 1.765625l3.015625 0zm1.920517 -3.171875l0.984375 0l0 -1.578124l1.140625 -0.375l0 1.953124l1.734375 0l0 1.046875l-1.734375 0l0 4.765625q0 0.703125 0.171875 1.015625q0.171875 0.3125 0.546875 0.3125q0.328125 0 0.5625 -0.078125q0.234375 -0.078125 0.5 -0.1875l0.21875 0.921875q-0.34375 0.171875 -0.765625 0.265625q-0.421875 0.109375 -0.890625 0.109375q-0.796875 0 -1.140625 -0.515625q-0.34375 -0.515625 -0.34375 -1.6875l0 -4.921875l-0.984375 0l0 -1.046875zm9.865753 7.453125q-0.390625 0.359375 -0.984375 0.546875q-0.59375 0.1875 -1.25 0.1875q-0.75 0 -1.3125 -0.296875q-0.546875 -0.296875 -0.90625 -0.84375q-0.359375 -0.546875 -0.53125 -1.3125q-0.15625 -0.78125 -0.15625 -1.734375q0 -2.046875 0.75 -3.109375q0.75 -1.078125 2.125 -1.078125q0.453125 0 0.890625 0.109375q0.4375 0.109375 0.78125 0.453125q0.359375 0.328125 0.578125 0.9375q0.21875 0.609375 0.21875 1.578125q0 0.28125 -0.03125 0.59375q-0.015625 0.3125 -0.046875 0.640625l-4.0625 0q0 0.6875 0.109375 1.25q0.109375 0.5625 0.34375 0.953125q0.25 0.390625 0.625 0.609375q0.375 0.21875 0.9375 0.21875q0.421875 0 0.84375 -0.15625q0.4375 -0.171875 0.65625 -0.390625l0.421875 0.84375zm-0.90625 -4.28125q0.03125 -1.203125 -0.34375 -1.765625q-0.359375 -0.5625 -1.0 -0.5625q-0.734375 0 -1.171875 0.5625q-0.421875 0.5625 -0.5 1.765625l3.015625 0zm4.467392 1.234375l-0.59375 0l0 3.59375l-1.15625 0l0 -11.203124l1.15625 0l0 6.812499l0.53125 -0.21875l1.875 -3.390625l1.328125 0l-1.890625 3.234375l-0.5625 0.515625l0.65625 0.625l2.0625 3.625l-1.390625 0l-2.015625 -3.59375zm10.778519 -7.796874l0.90625 0.34375l-4.671875 13.281249l-0.9375 -0.328125l4.703125 -13.296874zm5.346405 0.1875l1.203125 0l0 8.687499q0 1.3125 -0.421875 2.0q-0.421875 0.671875 -1.484375 0.671875q-0.25 0 -0.609375 -0.0625q-0.359375 -0.0625 -0.59375 -0.1875l0.265625 -1.046875q0.15625 0.09375 0.359375 0.15625q0.203125 0.046875 0.40625 0.046875q0.28125 0 0.453125 -0.125q0.1875 -0.140625 0.28125 -0.359375q0.09375 -0.234375 0.109375 -0.5625q0.03125 -0.328125 0.03125 -0.75l0 -8.468749zm3.3091278 9.718749q0.3125 0.203125 0.859375 0.390625q0.5625 0.1875 1.265625 0.1875q0.890625 0 1.453125 -0.4375q0.5625 -0.453125 0.5625 -1.390625q0 -0.625 -0.328125 -1.078125q-0.3125 -0.46875 -0.796875 -0.859375q-0.484375 -0.40625 -1.03125 -0.78125q-0.546875 -0.375 -1.03125 -0.828125q-0.484375 -0.453125 -0.8125 -1.046875q-0.3125 -0.59375 -0.3125 -1.421874q0 -1.34375 0.8125 -1.984375q0.8125 -0.65625 2.109375 -0.65625q0.796875 0 1.421875 0.140625q0.625 0.140625 1.0 0.375l-0.375 1.046875q-0.296875 -0.171875 -0.828125 -0.3125q-0.53125 -0.140625 -1.25 -0.140625q-0.859375 0 -1.28125 0.421875q-0.40625 0.421875 -0.40625 1.0625q0 0.56249905 0.3125 0.99999905q0.328125 0.421875 0.796875 0.8125q0.484375 0.375 1.03125 0.765625q0.5625 0.390625 1.03125 0.875q0.484375 0.484375 0.796875 1.09375q0.328125 0.609375 0.328125 1.4375q0 1.40625 -0.828125 2.203125q-0.828125 0.796875 -2.34375 0.796875q-0.96875 0 -1.59375 -0.171875q-0.609375 -0.171875 -0.96875 -0.40625l0.40625 -1.09375zm6.941757 -9.609374q0.5 -0.140625 1.078125 -0.1875q0.578125 -0.046875 1.140625 -0.046875q0.640625 0 1.265625 0.140625q0.625 0.140625 1.125 0.53125q0.5 0.390625 0.8125 1.0625q0.3125 0.671875 0.3125 1.703124q0 1.015625 -0.296875 1.71875q-0.296875 0.703125 -0.78125 1.140625q-0.484375 0.4375 -1.125 0.640625q-0.625 0.203125 -1.296875 0.203125q-0.0625 0 -0.21875 0q-0.140625 0 -0.296875 0q-0.15625 -0.015625 -0.3125 -0.03125q-0.15625 -0.015625 -0.21875 -0.03125l0 4.25l-1.1875 0l0 -11.093749zm2.28125 0.875q-0.328125 0 -0.625 0.03125q-0.28125 0.015625 -0.46875 0.0625l0 4.765624q0.0625 0.03125 0.203125 0.046875q0.140625 0 0.28125 0.015625q0.140625 0 0.28125 0q0.140625 0 0.203125 0q0.4375 0 0.859375 -0.109375q0.421875 -0.109375 0.734375 -0.40625q0.328125 -0.296875 0.515625 -0.796875q0.203125 -0.515625 0.203125 -1.28125q0 -0.67187405 -0.1875 -1.109374q-0.171875 -0.453125 -0.46875 -0.71875q-0.296875 -0.28125 -0.703125 -0.390625q-0.390625 -0.109375 -0.828125 -0.109375zm11.033524 -1.171875l0.90625 0.34375l-4.6718597 13.281249l-0.9375 -0.328125l4.7031097 -13.296874zm4.89328 0.1875l4.96875 0l0 1.109375l-3.78125 0l0 3.796874l3.484375 0l0 1.09375l-3.484375 0l0 4.09375l3.859375 0l0 1.109375l-5.046875 0l0 -11.203124zm7.3171387 0l1.203125 0l0 8.687499q0 1.3125 -0.421875 2.0q-0.421875 0.671875 -1.484375 0.671875q-0.25 0 -0.609375 -0.0625q-0.359375 -0.0625 -0.59375 -0.1875l0.265625 -1.046875q0.15625 0.09375 0.359375 0.15625q0.203125 0.046875 0.40625 0.046875q0.28125 0 0.453125 -0.125q0.1875 -0.140625 0.28125 -0.359375q0.09375 -0.234375 0.109375 -0.5625q0.03125 -0.328125 0.03125 -0.75l0 -8.468749zm8.949738 2.546875q0 0.42187405 -0.09375 0.84374905q-0.09375 0.40625 -0.3125 0.78125q-0.203125 0.359375 -0.515625 0.65625q-0.3125 0.28125 -0.765625 0.421875l0 0.0625q0.390625 0.078125 0.734375 0.265625q0.359375 0.1875 0.625 0.515625q0.28125 0.328125 0.4375 0.796875q0.15625 0.46875 0.15625 1.125q0 0.875 -0.28125 1.5q-0.265625 0.625 -0.734375 1.03125q-0.46875 0.40625 -1.09375 0.59375q-0.609375 0.1875 -1.296875 0.1875q-0.21875 0 -0.515625 0q-0.296875 0 -0.640625 -0.03125q-0.328125 -0.015625 -0.65625 -0.0625q-0.328125 -0.03125 -0.59375 -0.109375l0 -11.031249q0.46875 -0.09375 1.109375 -0.15625q0.65625 -0.0625 1.40625 -0.0625q0.546875 0 1.09375 0.109375q0.546875 0.09375 0.96875 0.390625q0.4375 0.28125 0.703125 0.8125q0.265625 0.515625 0.265625 1.359375zm-3.046875 7.687499q0.4375 0 0.796875 -0.140625q0.375 -0.140625 0.65625 -0.40625q0.28125 -0.28125 0.4375 -0.671875q0.15625 -0.390625 0.15625 -0.921875q0 -0.65625 -0.203125 -1.0625q-0.1875 -0.40625 -0.515625 -0.625q-0.3125 -0.234375 -0.71875 -0.3125q-0.40625 -0.078125 -0.84375 -0.078125l-1.078125 0l0 4.09375q0.09375 0.03125 0.25 0.046875q0.15625 0.015625 0.328125 0.046875q0.1875 0.015625 0.375 0.03125q0.203125 0 0.359375 0zm-0.65625 -5.25q0.234375 0 0.515625 -0.015625q0.296875 -0.015625 0.484375 -0.046875q0.59375 -0.25 1.015625 -0.78125q0.421875 -0.53125 0.421875 -1.328124q0 -0.515625 -0.140625 -0.875q-0.140625 -0.359375 -0.390625 -0.5625q-0.25 -0.21875 -0.59375 -0.296875q-0.328125 -0.09375 -0.703125 -0.09375q-0.40625 0 -0.75 0.03125q-0.328125 0.015625 -0.515625 0.046875l0 3.921874l0.65625 0zm12.30304 -5.171874l0.90625 0.34375l-4.671875 13.281249l-0.9375 -0.328125l4.703125 -13.296874zm5.346405 0.1875l1.203125 0l0 8.687499q0 1.3125 -0.421875 2.0q-0.421875 0.671875 -1.484375 0.671875q-0.25 0 -0.609375 -0.0625q-0.359375 -0.0625 -0.59375 -0.1875l0.265625 -1.046875q0.15625 0.09375 0.359375 0.15625q0.203125 0.046875 0.40625 0.046875q0.28125 0 0.453125 -0.125q0.1875 -0.140625 0.28125 -0.359375q0.09375 -0.234375 0.109375 -0.5625q0.03125 -0.328125 0.03125 -0.75l0 -8.468749zm3.2309875 3.687499q0.46875 -0.296875 1.125 -0.453125q0.671875 -0.15625 1.40625 -0.15625q0.671875 0 1.078125 0.203125q0.40625 0.1875 0.640625 0.53125q0.234375 0.34375 0.296875 0.796875q0.078125 0.4375 0.078125 0.90625q0 0.96875 -0.046875 1.890625q-0.03125 0.90625 -0.03125 1.71875q0 0.609375 0.03125 1.125q0.046875 0.515625 0.15625 0.984375l-0.875 0l-0.265625 -0.9375l-0.0625 0q-0.25 0.40625 -0.71875 0.71875q-0.453125 0.296875 -1.234375 0.296875q-0.875 0 -1.421875 -0.59375q-0.546875 -0.609375 -0.546875 -1.65625q0 -0.6875 0.21875 -1.15625q0.234375 -0.46875 0.65625 -0.75q0.4375 -0.296875 1.015625 -0.40625q0.578125 -0.125 1.296875 -0.125q0.171875 0 0.328125 0q0.15625 0 0.328125 0.015625q0.0625 -0.5 0.0625 -0.875q0 -0.921875 -0.28125 -1.28125q-0.265625 -0.375 -0.984375 -0.375q-0.453125 0 -0.984375 0.140625q-0.53125 0.140625 -0.875 0.34375l-0.390625 -0.90625zm3.484375 3.875q-0.171875 -0.015625 -0.328125 -0.03125q-0.15625 -0.015625 -0.3125 -0.015625q-0.390625 0 -0.765625 0.078125q-0.359375 0.0625 -0.65625 0.21875q-0.28125 0.15625 -0.453125 0.4375q-0.171875 0.265625 -0.171875 0.6875q0 0.640625 0.3125 1.0q0.3125 0.34375 0.8125 0.34375q0.671875 0 1.03125 -0.3125q0.375 -0.328125 0.53125 -0.71875l0 -1.6875zm4.9312744 0.328125l0.328125 1.578125l0.03125 0l0.28125 -1.609375l1.40625 -4.65625l1.21875 0l-2.734375 8.171875l-0.5625 0l-2.78125 -8.171875l1.3125 0l1.5 4.6875zm4.192383 -4.203125q0.46875 -0.296875 1.125 -0.453125q0.671875 -0.15625 1.40625 -0.15625q0.671875 0 1.078125 0.203125q0.40625 0.1875 0.640625 0.53125q0.234375 0.34375 0.296875 0.796875q0.078125 0.4375 0.078125 0.90625q0 0.96875 -0.046875 1.890625q-0.03125 0.90625 -0.03125 1.71875q0 0.609375 0.03125 1.125q0.046875 0.515625 0.15625 0.984375l-0.875 0l-0.265625 -0.9375l-0.0625 0q-0.25 0.40625 -0.71875 0.71875q-0.453125 0.296875 -1.234375 0.296875q-0.875 0 -1.421875 -0.59375q-0.546875 -0.609375 -0.546875 -1.65625q0 -0.6875 0.21875 -1.15625q0.234375 -0.46875 0.65625 -0.75q0.4375 -0.296875 1.015625 -0.40625q0.578125 -0.125 1.296875 -0.125q0.171875 0 0.328125 0q0.15625 0 0.328125 0.015625q0.0625 -0.5 0.0625 -0.875q0 -0.921875 -0.28125 -1.28125q-0.265625 -0.375 -0.984375 -0.375q-0.453125 0 -0.984375 0.140625q-0.53125 0.140625 -0.875 0.34375l-0.390625 -0.90625zm3.484375 3.875q-0.171875 -0.015625 -0.328125 -0.03125q-0.15625 -0.015625 -0.3125 -0.015625q-0.390625 0 -0.765625 0.078125q-0.359375 0.0625 -0.65625 0.21875q-0.28125 0.15625 -0.453125 0.4375q-0.171875 0.265625 -0.171875 0.6875q0 0.640625 0.3125 1.0q0.3125 0.34375 0.8125 0.34375q0.671875 0 1.03125 -0.3125q0.375 -0.328125 0.53125 -0.71875l0 -1.6875zm8.634399 -5.015624q0 0.42187405 -0.09375 0.84374905q-0.09375 0.40625 -0.3125 0.78125q-0.203125 0.359375 -0.515625 0.65625q-0.3125 0.28125 -0.765625 0.421875l0 0.0625q0.390625 0.078125 0.734375 0.265625q0.359375 0.1875 0.625 0.515625q0.28125 0.328125 0.4375 0.796875q0.15625 0.46875 0.15625 1.125q0 0.875 -0.28125 1.5q-0.265625 0.625 -0.734375 1.03125q-0.46875 0.40625 -1.09375 0.59375q-0.609375 0.1875 -1.296875 0.1875q-0.21875 0 -0.515625 0q-0.296875 0 -0.640625 -0.03125q-0.328125 -0.015625 -0.65625 -0.0625q-0.328125 -0.03125 -0.59375 -0.109375l0 -11.031249q0.46875 -0.09375 1.109375 -0.15625q0.65625 -0.0625 1.40625 -0.0625q0.546875 0 1.09375 0.109375q0.546875 0.09375 0.96875 0.390625q0.4375 0.28125 0.703125 0.8125q0.265625 0.515625 0.265625 1.359375zm-3.046875 7.687499q0.4375 0 0.796875 -0.140625q0.375 -0.140625 0.65625 -0.40625q0.28125 -0.28125 0.4375 -0.671875q0.15625 -0.390625 0.15625 -0.921875q0 -0.65625 -0.203125 -1.0625q-0.1875 -0.40625 -0.515625 -0.625q-0.3125 -0.234375 -0.71875 -0.3125q-0.40625 -0.078125 -0.84375 -0.078125l-1.078125 0l0 4.09375q0.09375 0.03125 0.25 0.046875q0.15625 0.015625 0.328125 0.046875q0.1875 0.015625 0.375 0.03125q0.203125 0 0.359375 0zm-0.65625 -5.25q0.234375 0 0.515625 -0.015625q0.296875 -0.015625 0.484375 -0.046875q0.59375 -0.25 1.015625 -0.78125q0.421875 -0.53125 0.421875 -1.328124q0 -0.515625 -0.140625 -0.875q-0.140625 -0.359375 -0.390625 -0.5625q-0.25 -0.21875 -0.59375 -0.296875q-0.328125 -0.09375 -0.703125 -0.09375q-0.40625 0 -0.75 0.03125q-0.328125 0.015625 -0.515625 0.046875l0 3.921874l0.65625 0zm10.395386 5.671875q-0.390625 0.359375 -0.984375 0.546875q-0.59375 0.1875 -1.25 0.1875q-0.75 0 -1.3125 -0.296875q-0.546875 -0.296875 -0.90625 -0.84375q-0.359375 -0.546875 -0.53125 -1.3125q-0.15625 -0.78125 -0.15625 -1.734375q0 -2.046875 0.75 -3.109375q0.75 -1.078125 2.125 -1.078125q0.453125 0 0.890625 0.109375q0.4375 0.109375 0.78125 0.453125q0.359375 0.328125 0.578125 0.9375q0.21875 0.609375 0.21875 1.578125q0 0.28125 -0.03125 0.59375q-0.015625 0.3125 -0.046875 0.640625l-4.0625 0q0 0.6875 0.109375 1.25q0.109375 0.5625 0.34375 0.953125q0.25 0.390625 0.625 0.609375q0.375 0.21875 0.9375 0.21875q0.421875 0 0.84375 -0.15625q0.4375 -0.171875 0.65625 -0.390625l0.421875 0.84375zm-0.90625 -4.28125q0.03125 -1.203125 -0.34375 -1.765625q-0.359375 -0.5625 -1.0 -0.5625q-0.734375 0 -1.171875 0.5625q-0.421875 0.5625 -0.5 1.765625l3.015625 0zm2.6392517 -2.6875q0.46875 -0.296875 1.125 -0.453125q0.671875 -0.15625 1.40625 -0.15625q0.671875 0 1.078125 0.203125q0.40625 0.1875 0.640625 0.53125q0.234375 0.34375 0.296875 0.796875q0.078125 0.4375 0.078125 0.90625q0 0.96875 -0.046875 1.890625q-0.03125 0.90625 -0.03125 1.71875q0 0.609375 0.03125 1.125q0.046875 0.515625 0.15625 0.984375l-0.875 0l-0.265625 -0.9375l-0.0625 0q-0.25 0.40625 -0.71875 0.71875q-0.453125 0.296875 -1.234375 0.296875q-0.875 0 -1.421875 -0.59375q-0.546875 -0.609375 -0.546875 -1.65625q0 -0.6875 0.21875 -1.15625q0.234375 -0.46875 0.65625 -0.75q0.4375 -0.296875 1.015625 -0.40625q0.578125 -0.125 1.296875 -0.125q0.171875 0 0.328125 0q0.15625 0 0.328125 0.015625q0.0625 -0.5 0.0625 -0.875q0 -0.921875 -0.28125 -1.28125q-0.265625 -0.375 -0.984375 -0.375q-0.453125 0 -0.984375 0.140625q-0.53125 0.140625 -0.875 0.34375l-0.390625 -0.90625zm3.484375 3.875q-0.171875 -0.015625 -0.328125 -0.03125q-0.15625 -0.015625 -0.3125 -0.015625q-0.390625 0 -0.765625 0.078125q-0.359375 0.0625 -0.65625 0.21875q-0.28125 0.15625 -0.453125 0.4375q-0.171875 0.265625 -0.171875 0.6875q0 0.640625 0.3125 1.0q0.3125 0.34375 0.8125 0.34375q0.671875 0 1.03125 -0.3125q0.375 -0.328125 0.53125 -0.71875l0 -1.6875zm7.103119 3.640625l0 -4.875q0 -1.203125 -0.28125 -1.734375q-0.28125 -0.546875 -1.0 -0.546875q-0.640625 0 -1.0625 0.390625q-0.421875 0.375 -0.609375 0.9375l0 5.828125l-1.15625 0l0 -8.0l0.84375 0l0.203125 0.84375l0.046875 0q0.3125 -0.421875 0.828125 -0.71875q0.515625 -0.3125 1.234375 -0.3125q0.515625 0 0.90625 0.140625q0.390625 0.140625 0.65625 0.484375q0.265625 0.34375 0.390625 0.921875q0.140625 0.578125 0.140625 1.453125l0 5.1875l-1.140625 0zm2.7896423 -1.3125q0.328125 0.1875 0.765625 0.328125q0.4375 0.140625 0.90625 0.140625q0.53125 0 0.890625 -0.265625q0.375 -0.265625 0.375 -0.859375q0 -0.5 -0.234375 -0.8125q-0.21875 -0.328125 -0.5625 -0.578125q-0.34375 -0.25 -0.75 -0.46875q-0.390625 -0.21875 -0.734375 -0.515625q-0.34375 -0.3125 -0.578125 -0.71875q-0.21875 -0.421875 -0.21875 -1.0625q0 -1.03125 0.546875 -1.546875q0.5625 -0.515625 1.5625 -0.515625q0.65625 0 1.140625 0.125q0.484375 0.109375 0.828125 0.3125l-0.296875 0.96875q-0.3125 -0.15625 -0.71875 -0.265625q-0.390625 -0.109375 -0.8125 -0.109375q-0.5625 0 -0.828125 0.25q-0.265625 0.234375 -0.265625 0.75q0 0.390625 0.21875 0.671875q0.21875 0.28125 0.5625 0.515625q0.34375 0.234375 0.75 0.484375q0.40625 0.234375 0.75 0.5625q0.34375 0.328125 0.5625 0.78125q0.21875 0.453125 0.21875 1.140625q0 0.453125 -0.140625 0.859375q-0.140625 0.390625 -0.4375 0.6875q-0.296875 0.296875 -0.734375 0.46875q-0.4375 0.171875 -1.03125 0.171875q-0.703125 0 -1.21875 -0.140625q-0.515625 -0.125 -0.859375 -0.34375l0.34375 -1.015625zm12.237549 -10.078124l0.90625 0.34375l-4.671875 13.281249l-0.9375 -0.328125l4.703125 -13.296874zm4.8933105 0.1875l4.96875 0l0 1.109375l-3.78125 0l0 3.796874l3.484375 0l0 1.09375l-3.484375 0l0 4.09375l3.859375 0l0 1.109375l-5.046875 0l0 -11.203124zm6.6452637 9.890624q0.328125 0.1875 0.765625 0.328125q0.4375 0.140625 0.90625 0.140625q0.53125 0 0.890625 -0.265625q0.375 -0.265625 0.375 -0.859375q0 -0.5 -0.234375 -0.8125q-0.21875 -0.328125 -0.5625 -0.578125q-0.34375 -0.25 -0.75 -0.46875q-0.390625 -0.21875 -0.734375 -0.515625q-0.34375 -0.3125 -0.578125 -0.71875q-0.21875 -0.421875 -0.21875 -1.0625q0 -1.03125 0.546875 -1.546875q0.5625 -0.515625 1.5625 -0.515625q0.65625 0 1.140625 0.125q0.484375 0.109375 0.828125 0.3125l-0.296875 0.96875q-0.3125 -0.15625 -0.71875 -0.265625q-0.390625 -0.109375 -0.8125 -0.109375q-0.5625 0 -0.828125 0.25q-0.265625 0.234375 -0.265625 0.75q0 0.390625 0.21875 0.671875q0.21875 0.28125 0.5625 0.515625q0.34375 0.234375 0.75 0.484375q0.40625 0.234375 0.75 0.5625q0.34375 0.328125 0.5625 0.78125q0.21875 0.453125 0.21875 1.140625q0 0.453125 -0.140625 0.859375q-0.140625 0.390625 -0.4375 0.6875q-0.296875 0.296875 -0.734375 0.46875q-0.4375 0.171875 -1.03125 0.171875q-0.703125 0 -1.21875 -0.140625q-0.515625 -0.125 -0.859375 -0.34375l0.34375 -1.015625zm5.111145 0.265625l2.96875 -5.21875l0.5625 -0.6875l-3.53125 0l0 -1.046875l4.671875 0l0 1.046875l-3.0 5.265625l-0.546875 0.640625l3.546875 0l0 1.046875l-4.671875 0l0 -1.046875zm7.931885 -2.546875l-0.59375 0l0 3.59375l-1.15625 0l0 -11.203124l1.15625 0l0 6.812499l0.53125 -0.21875l1.875 -3.390625l1.328125 0l-1.890625 3.234375l-0.5625 0.515625l0.65625 0.625l2.0625 3.625l-1.390625 0l-2.015625 -3.59375zm3.9542542 -0.40625q0 -2.15625 0.734375 -3.171875q0.75 -1.015625 2.125 -1.015625q1.46875 0 2.15625 1.046875q0.703125 1.03125 0.703125 3.140625q0 2.171875 -0.75 3.1875q-0.75 1.0 -2.109375 1.0q-1.46875 0 -2.171875 -1.03125q-0.6875 -1.046875 -0.6875 -3.15625zm1.203125 0q0 0.703125 0.078125 1.28125q0.09375 0.578125 0.296875 1.0q0.203125 0.40625 0.515625 0.640625q0.328125 0.234375 0.765625 0.234375q0.828125 0 1.25 -0.75q0.421875 -0.75 0.421875 -2.40625q0 -0.6875 -0.09375 -1.265625q-0.09375 -0.59375 -0.296875 -1.0q-0.1875 -0.421875 -0.515625 -0.65625q-0.3125 -0.234375 -0.765625 -0.234375q-0.8125 0 -1.234375 0.765625q-0.421875 0.75 -0.421875 2.390625zm0.15625 -6.453124q0 -0.359375 0.1875 -0.5625q0.1875 -0.21875 0.5 -0.21875q0.328125 0 0.515625 0.21875q0.1875 0.203125 0.1875 0.5625q0 0.34375 -0.1875 0.546875q-0.1875 0.203125 -0.515625 0.203125q-0.3125 0 -0.5 -0.203125q-0.1875 -0.203125 -0.1875 -0.546875zm2.546875 0q0 -0.359375 0.1875 -0.5625q0.1875 -0.21875 0.5 -0.21875q0.328125 0 0.5 0.21875q0.1875 0.203125 0.1875 0.5625q0 0.34375 -0.1875 0.546875q-0.171875 0.203125 -0.5 0.203125q-0.3125 0 -0.5 -0.203125q-0.1875 -0.203125 -0.1875 -0.546875zm2.7356262 9.406249l2.96875 -5.21875l0.5625 -0.6875l-3.53125 0l0 -1.046875l4.671875 0l0 1.046875l-3.0 5.265625l-0.546875 0.640625l3.546875 0l0 1.046875l-4.671875 0l0 -1.046875zm5.646118 -2.953125q0 -2.15625 0.734375 -3.171875q0.75 -1.015625 2.125 -1.015625q1.46875 0 2.15625 1.046875q0.703125 1.03125 0.703125 3.140625q0 2.171875 -0.75 3.1875q-0.75 1.0 -2.109375 1.0q-1.46875 0 -2.171875 -1.03125q-0.6875 -1.046875 -0.6875 -3.15625zm1.203125 0q0 0.703125 0.078125 1.28125q0.09375 0.578125 0.296875 1.0q0.203125 0.40625 0.515625 0.640625q0.328125 0.234375 0.765625 0.234375q0.828125 0 1.25 -0.75q0.421875 -0.75 0.421875 -2.40625q0 -0.6875 -0.09375 -1.265625q-0.09375 -0.59375 -0.296875 -1.0q-0.1875 -0.421875 -0.515625 -0.65625q-0.3125 -0.234375 -0.765625 -0.234375q-0.8125 0 -1.234375 0.765625q-0.421875 0.75 -0.421875 2.390625zm0.15625 -6.453124q0 -0.359375 0.1875 -0.5625q0.1875 -0.21875 0.5 -0.21875q0.328125 0 0.515625 0.21875q0.1875 0.203125 0.1875 0.5625q0 0.34375 -0.1875 0.546875q-0.1875 0.203125 -0.515625 0.203125q-0.3125 0 -0.5 -0.203125q-0.1875 -0.203125 -0.1875 -0.546875zm2.546875 0q0 -0.359375 0.1875 -0.5625q0.1875 -0.21875 0.5 -0.21875q0.328125 0 0.5 0.21875q0.1875 0.203125 0.1875 0.5625q0 0.34375 -0.1875 0.546875q-0.171875 0.203125 -0.5 0.203125q-0.3125 0 -0.5 -0.203125q-0.1875 -0.203125 -0.1875 -0.546875zm5.099518 6.859374l-0.59375 0l0 3.59375l-1.15625 0l0 -11.203124l1.15625 0l0 6.812499l0.53125 -0.21875l1.875 -3.390625l1.328125 0l-1.890625 3.234375l-0.5625 0.515625l0.65625 0.625l2.0625 3.625l-1.390625 0l-2.015625 -3.59375z" fill-rule="nonzero"/><path fill="#f3f3f3" d="m8.228347 317.35696l0 -280.53543l41.921257 0l0 280.53543z" fill-rule="evenodd"/><path stroke="#434343" stroke-width="1.0" stroke-linejoin="round" stroke-linecap="butt" d="m8.228347 317.35696l0 -280.53543l41.921257 0l0 280.53543z" fill-rule="evenodd"/><path fill="#434343" d="m23.84585 188.52487l0 -1.203125l8.687502 0q1.3125 0 2.0 0.421875q0.671875 0.421875 0.671875 1.484375q0 0.25 -0.0625 0.609375q-0.0625 0.359375 -0.1875 0.59375l-1.046875 -0.265625q0.09375 -0.15625 0.15625 -0.359375q0.046875 -0.203125 0.046875 -0.40625q0 -0.28125 -0.125 -0.453125q-0.140625 -0.1875 -0.359375 -0.28125q-0.234375 -0.09375 -0.5625 -0.109375q-0.328125 -0.03125 -0.75 -0.03125l-8.468752 0zm8.0625 -7.699753l0 3.171875l3.140627 0.890625l0 1.1875l-11.375002 -3.375l0 -0.65625l11.375002 -3.375l0 1.25l-3.140627 0.90625zm-1.0625 2.84375l0 -2.5625l-3.453125 0.984375l-1.6875 0.296875l0 0.03125l1.71875 0.3125l3.421875 0.9375zm1.0625 -10.411758l0 3.171875l3.140627 0.890625l0 1.1875l-11.375002 -3.375l0 -0.65625l11.375002 -3.375l0 1.25l-3.140627 0.90625zm-1.0625 2.84375l0 -2.5625l-3.453125 0.984375l-1.6875 0.296875l0 0.03125l1.71875 0.3125l3.421875 0.9375zm2.718752 -6.0211334q0.203125 -0.3125 0.390625 -0.859375q0.1875 -0.5625 0.1875 -1.265625q0 -0.890625 -0.4375 -1.453125q-0.453125 -0.5625 -1.390625 -0.5625q-0.6250019 0 -1.0781269 0.328125q-0.46875 0.3125 -0.859375 0.796875q-0.40625 0.484375 -0.78125 1.03125q-0.375 0.546875 -0.828125 1.03125q-0.453125 0.484375 -1.046875 0.8125q-0.59375 0.3125 -1.421875 0.3125q-1.34375 0 -1.984375 -0.8125q-0.65625 -0.8125 -0.65625 -2.109375q0 -0.796875 0.140625 -1.421875q0.140625 -0.625 0.375 -1.0l1.046875 0.375q-0.171875 0.296875 -0.3125 0.828125q-0.140625 0.53125 -0.140625 1.25q0 0.859375 0.421875 1.28125q0.421875 0.40625 1.0625 0.40625q0.5625 0 1.0 -0.3125q0.421875 -0.328125 0.8125 -0.796875q0.375 -0.484375 0.765625 -1.03125q0.390625 -0.5625 0.875 -1.03125q0.484375 -0.484375 1.09375 -0.796875q0.609375 -0.328125 1.4375019 -0.328125q1.40625 0 2.203125 0.828125q0.796875 0.828125 0.796875 2.34375q0 0.96875 -0.171875 1.59375q-0.171875 0.609375 -0.40625 0.96875l-1.09375 -0.40625z" fill-rule="nonzero"/><path fill="#d9ead3" d="m64.77428 272.8189l428.12598 0l0 41.921234l-428.12598 0z" fill-rule="evenodd"/><path stroke="#274e13" stroke-width="1.0" stroke-linejoin="round" stroke-linecap="butt" d="m64.77428 272.8189l428.12598 0l0 41.921234l-428.12598 0z" fill-rule="evenodd"/><path fill="#274e13" d="m243.92157 288.4364l1.203125 0l0 8.6875q0 1.3125 -0.421875 2.0q-0.421875 0.671875 -1.484375 0.671875q-0.25 0 -0.609375 -0.0625q-0.359375 -0.0625 -0.59375 -0.1875l0.265625 -1.046875q0.15625 0.09375 0.359375 0.15625q0.203125 0.046875 0.40625 0.046875q0.28125 0 0.453125 -0.125q0.1875 -0.140625 0.28125 -0.359375q0.09375 -0.234375 0.109375 -0.5625q0.03125 -0.328125 0.03125 -0.75l0 -8.46875zm3.2310028 3.6875q0.46875 -0.296875 1.125 -0.453125q0.671875 -0.15625 1.40625 -0.15625q0.671875 0 1.078125 0.203125q0.40625 0.1875 0.640625 0.53125q0.234375 0.34375 0.296875 0.796875q0.078125 0.4375 0.078125 0.90625q0 0.96875 -0.046875 1.890625q-0.03125 0.90625 -0.03125 1.71875q0 0.609375 0.03125 1.125q0.046875 0.515625 0.15625 0.984375l-0.875 0l-0.265625 -0.9375l-0.0625 0q-0.25 0.40625 -0.71875 0.71875q-0.453125 0.296875 -1.234375 0.296875q-0.875 0 -1.421875 -0.59375q-0.546875 -0.609375 -0.546875 -1.65625q0 -0.6875 0.21875 -1.15625q0.234375 -0.46875 0.65625 -0.75q0.4375 -0.296875 1.015625 -0.40625q0.578125 -0.125 1.296875 -0.125q0.171875 0 0.328125 0q0.15625 0 0.328125 0.015625q0.0625 -0.5 0.0625 -0.875q0 -0.921875 -0.28125 -1.28125q-0.265625 -0.375 -0.984375 -0.375q-0.453125 0 -0.984375 0.140625q-0.53125 0.140625 -0.875 0.34375l-0.390625 -0.90625zm3.484375 3.875q-0.171875 -0.015625 -0.328125 -0.03125q-0.15625 -0.015625 -0.3125 -0.015625q-0.390625 0 -0.765625 0.078125q-0.359375 0.0625 -0.65625 0.21875q-0.28125 0.15625 -0.453125 0.4375q-0.171875 0.265625 -0.171875 0.6875q0 0.640625 0.3125 1.0q0.3125 0.34375 0.8125 0.34375q0.671875 0 1.03125 -0.3125q0.375 -0.328125 0.53125 -0.71875l0 -1.6875zm4.931259 0.328125l0.328125 1.578125l0.03125 0l0.28125 -1.609375l1.40625 -4.65625l1.21875 0l-2.734375 8.171875l-0.5625 0l-2.78125 -8.171875l1.3125 0l1.5 4.6875zm4.192383 -4.203125q0.46875 -0.296875 1.125 -0.453125q0.671875 -0.15625 1.40625 -0.15625q0.671875 0 1.078125 0.203125q0.40625 0.1875 0.640625 0.53125q0.234375 0.34375 0.296875 0.796875q0.078125 0.4375 0.078125 0.90625q0 0.96875 -0.046875 1.890625q-0.03125 0.90625 -0.03125 1.71875q0 0.609375 0.03125 1.125q0.046875 0.515625 0.15625 0.984375l-0.875 0l-0.265625 -0.9375l-0.0625 0q-0.25 0.40625 -0.71875 0.71875q-0.453125 0.296875 -1.234375 0.296875q-0.875 0 -1.421875 -0.59375q-0.546875 -0.609375 -0.546875 -1.65625q0 -0.6875 0.21875 -1.15625q0.234375 -0.46875 0.65625 -0.75q0.4375 -0.296875 1.015625 -0.40625q0.578125 -0.125 1.296875 -0.125q0.171875 0 0.328125 0q0.15625 0 0.328125 0.015625q0.0625 -0.5 0.0625 -0.875q0 -0.921875 -0.28125 -1.28125q-0.265625 -0.375 -0.984375 -0.375q-0.453125 0 -0.984375 0.140625q-0.53125 0.140625 -0.875 0.34375l-0.390625 -0.90625zm3.484375 3.875q-0.171875 -0.015625 -0.328125 -0.03125q-0.15625 -0.015625 -0.3125 -0.015625q-0.390625 0 -0.765625 0.078125q-0.359375 0.0625 -0.65625 0.21875q-0.28125 0.15625 -0.453125 0.4375q-0.171875 0.265625 -0.171875 0.6875q0 0.640625 0.3125 1.0q0.3125 0.34375 0.8125 0.34375q0.671875 0 1.03125 -0.3125q0.375 -0.328125 0.53125 -0.71875l0 -1.6875zm6.4795227 -7.453125q0.515625 -0.125 1.140625 -0.171875q0.640625 -0.0625 1.171875 -0.0625q0.625 0 1.1875 0.15625q0.5625 0.140625 0.96875 0.515625q0.421875 0.359375 0.671875 0.9375q0.25 0.578125 0.25 1.46875q0 1.328125 -0.5625 2.125q-0.546875 0.796875 -1.453125 1.0625l0.609375 0.59375l2.203125 4.46875l-1.390625 0l-2.40625 -4.875l-1.203125 -0.25l0 5.125l-1.1875 0l0 -11.09375zm1.1875 5.171875l0.96875 0q0.90625 0 1.4375 -0.5625q0.53125 -0.5625 0.53125 -1.703125q0 -0.890625 -0.453125 -1.453125q-0.4375 -0.578125 -1.296875 -0.578125q-0.3125 0 -0.65625 0.03125q-0.34375 0.015625 -0.53125 0.0625l0 4.203125zm7.445648 -2.078125l0 4.890625q0 1.21875 0.25 1.75q0.25 0.515625 0.90625 0.515625q0.328125 0 0.59375 -0.140625q0.265625 -0.140625 0.46875 -0.359375q0.21875 -0.21875 0.375 -0.5q0.15625 -0.296875 0.25 -0.609375l0 -5.546875l1.15625 0l0 5.734375q0 0.5625 0.03125 1.1875q0.046875 0.609375 0.125 1.078125l-0.8125 0l-0.28125 -1.125l-0.0625 0q-0.265625 0.53125 -0.78125 0.921875q-0.5 0.390625 -1.28125 0.390625q-0.5 0 -0.890625 -0.125q-0.390625 -0.125 -0.65625 -0.453125q-0.265625 -0.34375 -0.40625 -0.921875q-0.140625 -0.59375 -0.140625 -1.5l0 -5.1875l1.15625 0zm10.006531 8.0l0 -4.875q0 -1.203125 -0.28125 -1.734375q-0.28125 -0.546875 -1.0 -0.546875q-0.640625 0 -1.0625 0.390625q-0.421875 0.375 -0.609375 0.9375l0 5.828125l-1.15625 0l0 -8.0l0.84375 0l0.203125 0.84375l0.046875 0q0.3125 -0.421875 0.828125 -0.71875q0.515625 -0.3125 1.234375 -0.3125q0.515625 0 0.90625 0.140625q0.390625 0.140625 0.65625 0.484375q0.265625 0.34375 0.390625 0.921875q0.140625 0.578125 0.140625 1.453125l0 5.1875l-1.140625 0zm2.1177673 -8.0l0.984375 0l0 -1.578125l1.140625 -0.375l0 1.953125l1.734375 0l0 1.046875l-1.734375 0l0 4.765625q0 0.703125 0.171875 1.015625q0.171875 0.3125 0.546875 0.3125q0.328125 0 0.5625 -0.078125q0.234375 -0.078125 0.5 -0.1875l0.21875 0.921875q-0.34375 0.171875 -0.765625 0.265625q-0.421875 0.109375 -0.890625 0.109375q-0.796875 0 -1.140625 -0.515625q-0.34375 -0.515625 -0.34375 -1.6875l0 -4.921875l-0.984375 0l0 -1.046875zm5.399994 0l1.140625 0l0 8.0l-1.140625 0l0 -8.0zm-0.21875 -2.4375q0 -0.375 0.21875 -0.609375q0.21875 -0.25 0.578125 -0.25q0.34375 0 0.578125 0.234375q0.234375 0.234375 0.234375 0.625q0 0.390625 -0.234375 0.609375q-0.234375 0.21875 -0.578125 0.21875q-0.359375 0 -0.578125 -0.21875q-0.21875 -0.234375 -0.21875 -0.609375zm7.2376404 10.4375l0 -4.75q0 -0.640625 -0.046875 -1.09375q-0.03125 -0.453125 -0.15625 -0.734375q-0.125 -0.296875 -0.359375 -0.4375q-0.21875 -0.140625 -0.59375 -0.140625q-0.546875 0 -0.921875 0.4375q-0.375 0.421875 -0.515625 0.953125l0 5.765625l-1.15625 0l0 -8.0l0.828125 0l0.203125 0.84375l0.046875 0q0.34375 -0.453125 0.796875 -0.734375q0.46875 -0.296875 1.1875 -0.296875q0.609375 0 1.0 0.265625q0.390625 0.265625 0.609375 0.9375q0.296875 -0.5625 0.828125 -0.875q0.53125 -0.328125 1.171875 -0.328125q0.53125 0 0.90625 0.140625q0.375 0.125 0.609375 0.46875q0.234375 0.34375 0.34375 0.921875q0.109375 0.5625 0.109375 1.421875l0 5.234375l-1.140625 0l0 -5.09375q0 -1.03125 -0.203125 -1.546875q-0.203125 -0.515625 -0.921875 -0.515625q-0.609375 0 -0.96875 0.375q-0.359375 0.375 -0.5 1.015625l0 5.765625l-1.15625 0zm11.462891 -0.546875q-0.390625 0.359375 -0.984375 0.546875q-0.59375 0.1875 -1.25 0.1875q-0.75 0 -1.3125 -0.296875q-0.546875 -0.296875 -0.90625 -0.84375q-0.359375 -0.546875 -0.53125 -1.3125q-0.15625 -0.78125 -0.15625 -1.734375q0 -2.046875 0.75 -3.109375q0.75 -1.078125 2.125 -1.078125q0.453125 0 0.890625 0.109375q0.4375 0.109375 0.78125 0.453125q0.359375 0.328125 0.578125 0.9375q0.21875 0.609375 0.21875 1.578125q0 0.28125 -0.03125 0.59375q-0.015625 0.3125 -0.046875 0.640625l-4.0625 0q0 0.6875 0.109375 1.25q0.109375 0.5625 0.34375 0.953125q0.25 0.390625 0.625 0.609375q0.375 0.21875 0.9375 0.21875q0.421875 0 0.84375 -0.15625q0.4375 -0.171875 0.65625 -0.390625l0.421875 0.84375zm-0.90625 -4.28125q0.03125 -1.203125 -0.34375 -1.765625q-0.359375 -0.5625 -1.0 -0.5625q-0.734375 0 -1.171875 0.5625q-0.421875 0.5625 -0.5 1.765625l3.015625 0z" fill-rule="nonzero"/><path fill="#f3f3f3" d="m64.77428 245.64043l0 -208.81891l41.921265 0l0 208.81891z" fill-rule="evenodd"/><path stroke="#434343" stroke-width="1.0" stroke-linejoin="round" stroke-linecap="butt" d="m64.77428 245.64043l0 -208.81891l41.921265 0l0 208.81891z" fill-rule="evenodd"/><path fill="#434343" d="m80.391785 152.45862l0 -1.203125l8.6875 0q1.3125 0 2.0 0.421875q0.671875 0.421875 0.671875 1.484375q0 0.25 -0.0625 0.609375q-0.0625 0.359375 -0.1875 0.59375l-1.046875 -0.265625q0.09375 -0.15625 0.15625 -0.359375q0.046875 -0.203125 0.046875 -0.40625q0 -0.28125 -0.125 -0.453125q-0.140625 -0.1875 -0.359375 -0.28125q-0.234375 -0.09375 -0.5625 -0.109375q-0.328125 -0.03125 -0.75 -0.03125l-8.46875 0zm5.625 -6.481003l0 -3.09375l4.921875 0q0.421875 0.453125 0.640625 1.15625q0.203125 0.703125 0.203125 1.421875q0 0.890625 -0.328125 1.625q-0.34375 0.734375 -1.046875 1.25q-0.71875 0.5 -1.796875 0.78125q-1.09375 0.28125 -2.609375 0.28125q-1.578125 0 -2.671875 -0.328125q-1.09375 -0.34375 -1.78125 -0.90625q-0.703125 -0.578125 -1.015625 -1.296875q-0.328125 -0.734375 -0.328125 -1.5q0 -0.765625 0.109375 -1.28125q0.09375 -0.53125 0.265625 -0.890625l1.09375 0.28125q-0.171875 0.328125 -0.265625 0.765625q-0.09375 0.4375 -0.09375 1.015625q0 0.5625 0.234375 1.078125q0.234375 0.5 0.796875 0.90625q0.546875 0.40625 1.453125 0.65625q0.890625 0.234375 2.203125 0.234375q2.390625 0 3.546875 -0.75q1.140625 -0.765625 1.140625 -2.09375q0 -0.828125 -0.40625 -1.375l-3.265625 0l-0.296875 2.0625l-0.703125 0zm4.09375 -4.7001343q0.203125 -0.3125 0.390625 -0.859375q0.1875 -0.5625 0.1875 -1.265625q0 -0.890625 -0.4375 -1.453125q-0.453125 -0.5625 -1.390625 -0.5625q-0.625 0 -1.078125 0.328125q-0.46875 0.3125 -0.859375 0.796875q-0.40625 0.484375 -0.78125 1.03125q-0.375 0.546875 -0.828125 1.03125q-0.453125 0.484375 -1.046875 0.8125q-0.59375 0.3125 -1.421875 0.3125q-1.34375 0 -1.984375 -0.8125q-0.65625 -0.8125 -0.65625 -2.109375q0 -0.796875 0.140625 -1.421875q0.140625 -0.625 0.375 -1.0l1.046875 0.375q-0.171875 0.296875 -0.3125 0.828125q-0.140625 0.53125 -0.140625 1.25q0 0.859375 0.421875 1.28125q0.421875 0.40625 1.0625 0.40625q0.5625 0 1.0 -0.3125q0.421875 -0.328125 0.8125 -0.796875q0.375 -0.484375 0.765625 -1.03125q0.390625 -0.5625 0.875 -1.03125q0.484375 -0.484375 1.09375 -0.796875q0.609375 -0.328125 1.4375 -0.328125q1.40625 0 2.203125 0.828125q0.796875 0.828125 0.796875 2.34375q0 0.96875 -0.171875 1.59375q-0.171875 0.609375 -0.40625 0.96875l-1.09375 -0.40625zm0 -6.848007q0.203125 -0.3125 0.390625 -0.859375q0.1875 -0.5625 0.1875 -1.265625q0 -0.890625 -0.4375 -1.453125q-0.453125 -0.5625 -1.390625 -0.5625q-0.625 0 -1.078125 0.328125q-0.46875 0.3125 -0.859375 0.796875q-0.40625 0.484375 -0.78125 1.03125q-0.375 0.546875 -0.828125 1.03125q-0.453125 0.484375 -1.046875 0.8125q-0.59375 0.3125 -1.421875 0.3125q-1.34375 0 -1.984375 -0.8125q-0.65625 -0.8125 -0.65625 -2.109375q0 -0.796875 0.140625 -1.421875q0.140625 -0.625 0.375 -1.0l1.046875 0.375q-0.171875 0.296875 -0.3125 0.828125q-0.140625 0.53125 -0.140625 1.25q0 0.859375 0.421875 1.28125q0.421875 0.40625 1.0625 0.40625q0.5625 0 1.0 -0.3125q0.421875 -0.328125 0.8125 -0.796875q0.375 -0.484375 0.765625 -1.03125q0.390625 -0.5625 0.875 -1.03125q0.484375 -0.484375 1.09375 -0.796875q0.609375 -0.328125 1.4375 -0.328125q1.40625 0 2.203125 0.828125q0.796875 0.828125 0.796875 2.34375q0 0.96875 -0.171875 1.59375q-0.171875 0.609375 -0.40625 0.96875l-1.09375 -0.40625z" fill-rule="nonzero"/><path fill="#f3f3f3" d="m123.87139 245.64043l0 -208.81891l41.921257 0l0 208.81891z" fill-rule="evenodd"/><path stroke="#434343" stroke-width="1.0" stroke-linejoin="round" stroke-linecap="butt" d="m123.87139 245.64043l0 -208.81891l41.921257 0l0 208.81891z" fill-rule="evenodd"/><path fill="#434343" d="m139.48889 151.95462l0 -1.203125l8.6875 0q1.3125 0 2.0 0.421875q0.671875 0.421875 0.671875 1.484375q0 0.25 -0.0625 0.609375q-0.0625 0.359375 -0.1875 0.59375l-1.046875 -0.265625q0.09375 -0.15625 0.15625 -0.359375q0.046875 -0.203125 0.046875 -0.40625q0 -0.28125 -0.125 -0.453125q-0.140625 -0.1875 -0.359375 -0.28125q-0.234375 -0.09375 -0.5625 -0.109375q-0.328125 -0.03125 -0.75 -0.03125l-8.46875 0zm9.71875 -3.3091278q0.203125 -0.3125 0.390625 -0.859375q0.1875 -0.5625 0.1875 -1.265625q0 -0.890625 -0.4375 -1.453125q-0.453125 -0.5625 -1.390625 -0.5625q-0.625 0 -1.078125 0.328125q-0.46875 0.3125 -0.859375 0.796875q-0.40625 0.484375 -0.78125 1.03125q-0.375 0.546875 -0.828125 1.03125q-0.453125 0.484375 -1.046875 0.8125q-0.59375 0.3125 -1.421875 0.3125q-1.34375 0 -1.984375 -0.8125q-0.65625 -0.8125 -0.65625 -2.109375q0 -0.796875 0.140625 -1.421875q0.140625 -0.625 0.375 -1.0l1.046875 0.375q-0.171875 0.296875 -0.3125 0.828125q-0.140625 0.53125 -0.140625 1.25q0 0.859375 0.421875 1.28125q0.421875 0.40625 1.0625 0.40625q0.5625 0 1.0 -0.3125q0.421875 -0.328125 0.8125 -0.796875q0.375 -0.484375 0.765625 -1.03125q0.390625 -0.5625 0.875 -1.03125q0.484375 -0.484375 1.09375 -0.796875q0.609375 -0.328125 1.4375 -0.328125q1.40625 0 2.203125 0.828125q0.796875 0.828125 0.796875 2.34375q0 0.96875 -0.171875 1.59375q-0.171875 0.609375 -0.40625 0.96875l-1.09375 -0.40625zm0 -6.848007q0.203125 -0.3125 0.390625 -0.859375q0.1875 -0.5625 0.1875 -1.265625q0 -0.890625 -0.4375 -1.453125q-0.453125 -0.5625 -1.390625 -0.5625q-0.625 0 -1.078125 0.328125q-0.46875 0.3125 -0.859375 0.796875q-0.40625 0.484375 -0.78125 1.03125q-0.375 0.546875 -0.828125 1.03125q-0.453125 0.484375 -1.046875 0.8125q-0.59375 0.3125 -1.421875 0.3125q-1.34375 0 -1.984375 -0.8125q-0.65625 -0.8125 -0.65625 -2.109375q0 -0.796875 0.140625 -1.421875q0.140625 -0.625 0.375 -1.0l1.046875 0.375q-0.171875 0.296875 -0.3125 0.828125q-0.140625 0.53125 -0.140625 1.25q0 0.859375 0.421875 1.28125q0.421875 0.40625 1.0625 0.40625q0.5625 0 1.0 -0.3125q0.421875 -0.328125 0.8125 -0.796875q0.375 -0.484375 0.765625 -1.03125q0.390625 -0.5625 0.875 -1.03125q0.484375 -0.484375 1.09375 -0.796875q0.609375 -0.328125 1.4375 -0.328125q1.40625 0 2.203125 0.828125q0.796875 0.828125 0.796875 2.34375q0 0.96875 -0.171875 1.59375q-0.171875 0.609375 -0.40625 0.96875l-1.09375 -0.40625zm-9.71875 -6.941757l0 -4.96875l1.109375 0l0 3.78125l3.796875 0l0 -3.484375l1.09375 0l0 3.484375l4.09375 0l0 -3.859375l1.109375 0l0 5.046875l-11.203125 0z" fill-rule="nonzero"/><path fill="#f3f3f3" d="m196.68242 36.82152l111.9055 0l0 41.92126l-111.9055 0z" fill-rule="evenodd"/><path stroke="#434343" stroke-width="1.0" stroke-linejoin="round" stroke-linecap="butt" d="m196.68242 36.82152l111.9055 0l0 41.92126l-111.9055 0z" fill-rule="evenodd"/><path fill="#434343" d="m235.87012 63.20465q-0.390625 0.34375 -1.0 0.484375q-0.609375 0.140625 -1.28125 0.140625q-0.84375 0 -1.578125 -0.3125q-0.71875 -0.328125 -1.234375 -1.015625q-0.515625 -0.703125 -0.8125 -1.796875q-0.28125 -1.109375 -0.28125 -2.65625q0 -1.609375 0.328125 -2.703125q0.328125 -1.109375 0.875 -1.796875q0.546875 -0.6875 1.25 -0.984375q0.71875 -0.3125 1.46875 -0.3125q0.765625 0 1.265625 0.109375q0.515625 0.109375 0.875 0.265625l-0.28125 1.09375q-0.328125 -0.171875 -0.765625 -0.265625q-0.421875 -0.09375 -0.984375 -0.09375q-0.5625 0 -1.0625 0.25q-0.484375 0.234375 -0.875 0.796875q-0.375 0.546875 -0.609375 1.453125q-0.21875 0.890625 -0.21875 2.1875q0 2.328125 0.796875 3.515625q0.796875 1.171875 2.125 1.171875q0.546875 0 0.96875 -0.15625q0.4375 -0.15625 0.75 -0.359375l0.28125 0.984375zm5.739395 -0.109375q-0.390625 0.359375 -0.984375 0.546875q-0.59375 0.1875 -1.25 0.1875q-0.75 0 -1.3125 -0.296875q-0.546875 -0.296875 -0.90625 -0.84375q-0.359375 -0.546875 -0.53125 -1.3125q-0.15625 -0.78125 -0.15625 -1.734375q0 -2.046875 0.75 -3.109375q0.75 -1.078125 2.125 -1.078125q0.453125 0 0.890625 0.109375q0.4375 0.109375 0.78125 0.453125q0.359375 0.328125 0.578125 0.9375q0.21875 0.609375 0.21875 1.578125q0 0.28125 -0.03125 0.59375q-0.015625 0.3125 -0.046875 0.640625l-4.0625 0q0 0.6875 0.109375 1.25q0.109375 0.5625 0.34375 0.953125q0.25 0.390625 0.625 0.609375q0.375 0.21875 0.9375 0.21875q0.421875 0 0.84375 -0.15625q0.4375 -0.171875 0.65625 -0.390625l0.421875 0.84375zm-0.90625 -4.28125q0.03125 -1.203125 -0.34375 -1.765625q-0.359375 -0.5625 -1.0 -0.5625q-0.734375 0 -1.171875 0.5625q-0.421875 0.5625 -0.5 1.765625l3.015625 0zm2.717392 -3.171875l0.828125 0l0.203125 0.84375l0.046875 0q0.21875 -0.453125 0.578125 -0.71875q0.359375 -0.265625 0.875 -0.265625q0.375 0 0.828125 0.140625l-0.21875 1.171875q-0.421875 -0.140625 -0.734375 -0.140625q-0.515625 0 -0.84375 0.296875q-0.3125 0.28125 -0.40625 0.78125l0 5.890625l-1.15625 0l0 -8.0zm3.9711304 0l0.984375 0l0 -1.578125l1.140625 -0.375l0 1.953125l1.734375 0l0 1.046875l-1.734375 0l0 4.765625q0 0.703125 0.171875 1.015625q0.171875 0.3125 0.546875 0.3125q0.328125 0 0.5625 -0.078125q0.234375 -0.078125 0.5 -0.1875l0.21875 0.921875q-0.34375 0.171875 -0.765625 0.265625q-0.421875 0.109375 -0.890625 0.109375q-0.796875 0 -1.140625 -0.515625q-0.34375 -0.515625 -0.34375 -1.6875l0 -4.921875l-0.984375 0l0 -1.046875zm5.290634 -3.09375q0.5 -0.140625 1.078125 -0.1875q0.578125 -0.046875 1.140625 -0.046875q0.640625 0 1.2656403 0.140625q0.625 0.140625 1.125 0.53125q0.5 0.390625 0.8125 1.0625q0.3125 0.671875 0.3125 1.703125q0 1.015625 -0.296875 1.71875q-0.296875 0.703125 -0.78125 1.140625q-0.484375 0.4375 -1.125 0.640625q-0.62501526 0.203125 -1.2968903 0.203125q-0.0625 0 -0.21875 0q-0.140625 0 -0.296875 0q-0.15625 -0.015625 -0.3125 -0.03125q-0.15625 -0.015625 -0.21875 -0.03125l0 4.25l-1.1875 0l0 -11.09375zm2.28125 0.875q-0.328125 0 -0.625 0.03125q-0.28125 0.015625 -0.46875 0.0625l0 4.765625q0.0625 0.03125 0.203125 0.046875q0.140625 0 0.28125 0.015625q0.140625 0 0.28125 0q0.140625 0 0.203125 0q0.4375 0 0.859375 -0.109375q0.42189026 -0.109375 0.73439026 -0.40625q0.328125 -0.296875 0.515625 -0.796875q0.203125 -0.515625 0.203125 -1.28125q0 -0.671875 -0.1875 -1.109375q-0.171875 -0.453125 -0.46875 -0.71875q-0.296875 -0.28125 -0.70314026 -0.390625q-0.390625 -0.109375 -0.828125 -0.109375zm4.330887 2.703125q0.46875 -0.296875 1.125 -0.453125q0.671875 -0.15625 1.40625 -0.15625q0.671875 0 1.078125 0.203125q0.40625 0.1875 0.640625 0.53125q0.234375 0.34375 0.296875 0.796875q0.078125 0.4375 0.078125 0.90625q0 0.96875 -0.046875 1.890625q-0.03125 0.90625 -0.03125 1.71875q0 0.609375 0.03125 1.125q0.046875 0.515625 0.15625 0.984375l-0.875 0l-0.265625 -0.9375l-0.0625 0q-0.25 0.40625 -0.71875 0.71875q-0.453125 0.296875 -1.234375 0.296875q-0.875 0 -1.421875 -0.59375q-0.546875 -0.609375 -0.546875 -1.65625q0 -0.6875 0.21875 -1.15625q0.234375 -0.46875 0.65625 -0.75q0.4375 -0.296875 1.015625 -0.40625q0.578125 -0.125 1.296875 -0.125q0.171875 0 0.328125 0q0.15625 0 0.328125 0.015625q0.0625 -0.5 0.0625 -0.875q0 -0.921875 -0.28125 -1.28125q-0.265625 -0.375 -0.984375 -0.375q-0.453125 0 -0.984375 0.140625q-0.53125 0.140625 -0.875 0.34375l-0.390625 -0.90625zm3.484375 3.875q-0.171875 -0.015625 -0.328125 -0.03125q-0.15625 -0.015625 -0.3125 -0.015625q-0.390625 0 -0.765625 0.078125q-0.359375 0.0625 -0.65625 0.21875q-0.28125 0.15625 -0.453125 0.4375q-0.171875 0.265625 -0.171875 0.6875q0 0.640625 0.3125 1.0q0.3125 0.34375 0.8125 0.34375q0.671875 0 1.03125 -0.3125q0.375 -0.328125 0.53125 -0.71875l0 -1.6875zm2.1968994 -4.359375l0.984375 0l0 -1.578125l1.140625 -0.375l0 1.953125l1.734375 0l0 1.046875l-1.734375 0l0 4.765625q0 0.703125 0.171875 1.015625q0.171875 0.3125 0.546875 0.3125q0.328125 0 0.5625 -0.078125q0.234375 -0.078125 0.5 -0.1875l0.21875 0.921875q-0.34375 0.171875 -0.765625 0.265625q-0.421875 0.109375 -0.890625 0.109375q-0.796875 0 -1.140625 -0.515625q-0.34375 -0.515625 -0.34375 -1.6875l0 -4.921875l-0.984375 0l0 -1.046875zm9.306244 8.0l0 -4.859375q0 -1.125 -0.265625 -1.703125q-0.265625 -0.59375 -1.046875 -0.59375q-0.5625 0 -1.03125 0.40625q-0.453125 0.390625 -0.609375 1.0l0 5.75l-1.15625 0l0 -11.203125l1.15625 0l0 3.953125l0.046875 0q0.328125 -0.40625 0.796875 -0.671875q0.46875 -0.265625 1.171875 -0.265625q0.53125 0 0.921875 0.140625q0.390625 0.140625 0.640625 0.5q0.265625 0.34375 0.390625 0.9375q0.125 0.578125 0.125 1.4375l0 5.171875l-1.140625 0z" fill-rule="nonzero"/><path fill="#f3f3f3" d="m375.8819 36.82152l111.90552 0l0 41.92126l-111.90552 0z" fill-rule="evenodd"/><path stroke="#434343" stroke-width="1.0" stroke-linejoin="round" stroke-linecap="butt" d="m375.8819 36.82152l111.90552 0l0 41.92126l-111.90552 0z" fill-rule="evenodd"/><path fill="#434343" d="m411.5001 62.157776q0.3125 0.203125 0.859375 0.390625q0.5625 0.1875 1.265625 0.1875q0.890625 0 1.453125 -0.4375q0.5625 -0.453125 0.5625 -1.390625q0 -0.625 -0.328125 -1.078125q-0.3125 -0.46875 -0.796875 -0.859375q-0.484375 -0.40625 -1.03125 -0.78125q-0.546875 -0.375 -1.03125 -0.828125q-0.484375 -0.453125 -0.8125 -1.046875q-0.3125 -0.59375 -0.3125 -1.421875q0 -1.34375 0.8125 -1.984375q0.8125 -0.65625 2.109375 -0.65625q0.796875 0 1.421875 0.140625q0.625 0.140625 1.0 0.375l-0.375 1.046875q-0.296875 -0.171875 -0.828125 -0.3125q-0.53125 -0.140625 -1.25 -0.140625q-0.859375 0 -1.28125 0.421875q-0.40625 0.421875 -0.40625 1.0625q0 0.5625 0.3125 1.0q0.328125 0.421875 0.796875 0.8125q0.484375 0.375 1.03125 0.765625q0.5625 0.390625 1.03125 0.875q0.484375 0.484375 0.796875 1.09375q0.328125 0.609375 0.328125 1.4375q0 1.40625 -0.828125 2.203125q-0.828125 0.796875 -2.34375 0.796875q-0.96875 0 -1.59375 -0.171875q-0.609375 -0.171875 -0.96875 -0.40625l0.40625 -1.09375zm10.160522 -9.90625l0.90625 0.34375l-4.671875 13.28125l-0.9375 -0.328125l4.703125 -13.296875zm8.438751 4.03125l0.140625 -1.703125l-0.0625 0l-0.515625 1.59375l-2.25 4.859375l-0.40625 0l-2.359375 -4.859375l-0.5 -1.59375l-0.0625 0l0.21875 1.703125l0 7.359375l-1.140625 0l0 -11.203125l1.0 0l2.703125 5.5l0.40625 1.3125l0.03125 0l0.375 -1.328125l2.5625 -5.484375l1.0625 0l0 11.203125l-1.203125 0l0 -7.359375zm3.4888916 -3.84375l1.203125 0l0 11.203125l-1.203125 0l0 -11.203125zm10.431152 3.84375l0.140625 -1.703125l-0.0625 0l-0.515625 1.59375l-2.25 4.859375l-0.40625 0l-2.359375 -4.859375l-0.5 -1.59375l-0.0625 0l0.21875 1.703125l0 7.359375l-1.140625 0l0 -11.203125l1.0 0l2.703125 5.5l0.40625 1.3125l0.03125 0l0.375 -1.328125l2.5625 -5.484375l1.0625 0l0 11.203125l-1.203125 0l0 -7.359375zm3.2545166 -3.84375l4.96875 0l0 1.109375l-3.78125 0l0 3.796875l3.484375 0l0 1.09375l-3.484375 0l0 4.09375l3.859375 0l0 1.109375l-5.046875 0l0 -11.203125z" fill-rule="nonzero"/><path fill="#f3f3f3" d="m226.85039 127.40157l115.401596 0l0 41.921257l-115.401596 0z" fill-rule="evenodd"/><path stroke="#434343" stroke-width="1.0" stroke-linejoin="round" stroke-linecap="butt" d="m226.85039 127.40157l115.401596 0l0 41.921257l-115.401596 0z" fill-rule="evenodd"/><path fill="#434343" d="m276.85953 143.01907l1.203125 0l0 8.6875q0 1.3125 -0.421875 2.0q-0.421875 0.671875 -1.484375 0.671875q-0.25 0 -0.609375 -0.0625q-0.359375 -0.0625 -0.59375 -0.1875l0.265625 -1.046875q0.15625 0.09375 0.359375 0.15625q0.203125 0.046875 0.40625 0.046875q0.28125 0 0.453125 -0.125q0.1875 -0.140625 0.28125 -0.359375q0.09375 -0.234375 0.109375 -0.5625q0.03125 -0.328125 0.03125 -0.75l0 -8.46875zm9.246643 10.765625q-0.390625 0.34375 -1.0 0.484375q-0.609375 0.140625 -1.28125 0.140625q-0.84375 0 -1.578125 -0.3125q-0.71875 -0.328125 -1.234375 -1.015625q-0.515625 -0.703125 -0.8125 -1.796875q-0.28125 -1.109375 -0.28125 -2.65625q0 -1.609375 0.328125 -2.703125q0.328125 -1.109375 0.875 -1.796875q0.546875 -0.6875 1.25 -0.984375q0.71875 -0.3125 1.46875 -0.3125q0.765625 0 1.265625 0.109375q0.515625 0.109375 0.875 0.265625l-0.28125 1.09375q-0.328125 -0.171875 -0.765625 -0.265625q-0.421875 -0.09375 -0.984375 -0.09375q-0.5625 0 -1.0625 0.25q-0.484375 0.234375 -0.875 0.796875q-0.375 0.546875 -0.609375 1.453125q-0.21875 0.890625 -0.21875 2.1875q0 2.328125 0.796875 3.515625q0.796875 1.171875 2.125 1.171875q0.546875 0 0.96875 -0.15625q0.4375 -0.15625 0.75 -0.359375l0.28125 0.984375zm5.381134 -2.703125l-3.171875 0l-0.890625 3.140625l-1.1875 0l3.375 -11.375l0.65625 0l3.375 11.375l-1.25 0l-0.90625 -3.140625zm-2.84375 -1.0625l2.5625 0l-0.984375 -3.453125l-0.296875 -1.6875l-0.03125 0l-0.3125 1.71875l-0.9375 3.421875z" fill-rule="nonzero"/><path fill="#f3f3f3" d="m342.22586 127.39895l111.90552 0l0 41.921257l-111.90552 0z" fill-rule="evenodd"/><path stroke="#434343" stroke-width="1.0" stroke-linejoin="round" stroke-linecap="butt" d="m342.22586 127.39895l111.90552 0l0 41.921257l-111.90552 0z" fill-rule="evenodd"/><path fill="#434343" d="m390.63898 143.01645l1.203125 0l0 8.6875q0 1.3125 -0.421875 2.0q-0.421875 0.671875 -1.484375 0.671875q-0.25 0 -0.609375 -0.0625q-0.359375 -0.0625 -0.59375 -0.1875l0.265625 -1.046875q0.15625 0.09375 0.359375 0.15625q0.203125 0.046875 0.40625 0.046875q0.28125 0 0.453125 -0.125q0.1875 -0.140625 0.28125 -0.359375q0.09375 -0.234375 0.109375 -0.5625q0.03125 -0.328125 0.03125 -0.75l0 -8.46875zm9.246643 10.765625q-0.390625 0.34375 -1.0 0.484375q-0.609375 0.140625 -1.28125 0.140625q-0.84375 0 -1.578125 -0.3125q-0.71875 -0.328125 -1.234375 -1.015625q-0.515625 -0.703125 -0.8125 -1.796875q-0.28125 -1.109375 -0.28125 -2.65625q0 -1.609375 0.328125 -2.703125q0.328125 -1.109375 0.875 -1.796875q0.546875 -0.6875 1.25 -0.984375q0.71875 -0.3125 1.46875 -0.3125q0.765625 0 1.265625 0.109375q0.515625 0.109375 0.875 0.265625l-0.28125 1.09375q-0.328125 -0.171875 -0.765625 -0.265625q-0.421875 -0.09375 -0.984375 -0.09375q-0.5625 0 -1.0625 0.25q-0.484375 0.234375 -0.875 0.796875q-0.375 0.546875 -0.609375 1.453125q-0.21875 0.890625 -0.21875 2.1875q0 2.328125 0.796875 3.515625q0.796875 1.171875 2.125 1.171875q0.546875 0 0.96875 -0.15625q0.4375 -0.15625 0.75 -0.359375l0.28125 0.984375zm1.4842529 -10.765625l4.96875 0l0 1.109375l-3.78125 0l0 3.796875l3.484375 0l0 1.09375l-3.484375 0l0 4.09375l3.859375 0l0 1.109375l-5.046875 0l0 -11.203125z" fill-rule="nonzero"/><path fill="#d9ead3" d="m242.40945 198.24672l84.28345 0l0 22.330704l-84.28345 0z" fill-rule="evenodd"/><path stroke="#274e13" stroke-width="1.0" stroke-linejoin="round" stroke-linecap="butt" d="m242.40945 198.24672l84.28345 0l0 22.330704l-84.28345 0z" fill-rule="evenodd"/><path fill="#274e13" d="m262.8224 204.17833q0.5 -0.140625 1.078125 -0.1875q0.578125 -0.046875 1.140625 -0.046875q0.640625 0 1.265625 0.140625q0.625 0.140625 1.125 0.53125q0.5 0.390625 0.8125 1.0625q0.3125 0.671875 0.3125 1.703125q0 1.015625 -0.296875 1.71875q-0.296875 0.703125 -0.78125 1.140625q-0.484375 0.4375 -1.125 0.640625q-0.625 0.203125 -1.296875 0.203125q-0.0625 0 -0.21875 0q-0.140625 0 -0.296875 0q-0.15625 -0.015625 -0.3125 -0.03125q-0.15625 -0.015625 -0.21875 -0.03125l0 4.25l-1.1875 0l0 -11.09375zm2.28125 0.875q-0.328125 0 -0.625 0.03125q-0.28125 0.015625 -0.46875 0.0625l0 4.765625q0.0625 0.03125 0.203125 0.046875q0.140625 0 0.28125 0.015625q0.140625 0 0.28125 0q0.140625 0 0.203125 0q0.4375 0 0.859375 -0.109375q0.421875 -0.109375 0.734375 -0.40625q0.328125 -0.296875 0.515625 -0.796875q0.203125 -0.515625 0.203125 -1.28125q0 -0.671875 -0.1875 -1.109375q-0.171875 -0.453125 -0.46875 -0.71875q-0.296875 -0.28125 -0.703125 -0.390625q-0.390625 -0.109375 -0.828125 -0.109375zm4.409027 2.21875l0.828125 0l0.203125 0.84375l0.046875 0q0.21875 -0.453125 0.578125 -0.71875q0.359375 -0.265625 0.875 -0.265625q0.375 0 0.828125 0.140625l-0.21875 1.171875q-0.421875 -0.140625 -0.734375 -0.140625q-0.515625 0 -0.84375 0.296875q-0.3125 0.28125 -0.40625 0.78125l0 5.890625l-1.15625 0l0 -8.0zm4.0402527 4.0q0 -2.15625 0.734375 -3.171875q0.75 -1.015625 2.125 -1.015625q1.46875 0 2.15625 1.046875q0.703125 1.03125 0.703125 3.140625q0 2.171875 -0.75 3.1875q-0.75 1.0 -2.109375 1.0q-1.46875 0 -2.171875 -1.03125q-0.6875 -1.046875 -0.6875 -3.15625zm1.203125 0q0 0.703125 0.078125 1.28125q0.09375 0.578125 0.296875 1.0q0.203125 0.40625 0.515625 0.640625q0.328125 0.234375 0.765625 0.234375q0.828125 0 1.25 -0.75q0.421875 -0.75 0.421875 -2.40625q0 -0.6875 -0.09375 -1.265625q-0.09375 -0.59375 -0.296875 -1.0q-0.1875 -0.421875 -0.515625 -0.65625q-0.3125 -0.234375 -0.765625 -0.234375q-0.8125 0 -1.234375 0.765625q-0.421875 0.75 -0.421875 2.390625zm7.830139 0.6875l0.328125 1.578125l0.03125 0l0.28125 -1.609375l1.40625 -4.65625l1.21875 0l-2.734375 8.171875l-0.5625 0l-2.78125 -8.171875l1.3125 0l1.5 4.6875zm4.473633 -4.6875l1.140625 0l0 8.0l-1.140625 0l0 -8.0zm-0.21875 -2.4375q0 -0.375 0.21875 -0.609375q0.21875 -0.25 0.578125 -0.25q0.34375 0 0.578125 0.234375q0.234375 0.234375 0.234375 0.625q0 0.390625 -0.234375 0.609375q-0.234375 0.21875 -0.578125 0.21875q-0.359375 0 -0.578125 -0.21875q-0.21875 -0.234375 -0.21875 -0.609375zm8.534485 7.6875q0 0.8125 0.015625 1.484375q0.015625 0.65625 0.109375 1.296875l-0.78125 0l-0.25 -0.953125l-0.0625 0q-0.234375 0.46875 -0.71875 0.796875q-0.46875 0.3125 -1.140625 0.3125q-1.296875 0 -1.9375 -1.0q-0.625 -1.015625 -0.625 -3.171875q0 -2.046875 0.765625 -3.09375q0.78125 -1.0625 2.140625 -1.0625q0.46875 0 0.734375 0.0625q0.28125 0.046875 0.59375 0.171875l0 -3.296875l1.15625 0l0 8.453125zm-1.15625 -3.984375q-0.21875 -0.1875 -0.5 -0.28125q-0.28125 -0.09375 -0.75 -0.09375q-0.84375 0 -1.3125 0.78125q-0.46875 0.765625 -0.46875 2.359375q0 0.703125 0.078125 1.28125q0.09375 0.5625 0.28125 0.984375q0.1875 0.40625 0.46875 0.640625q0.296875 0.21875 0.734375 0.21875q1.15625 0 1.46875 -1.359375l0 -4.53125zm7.834259 6.1875q-0.390625 0.359375 -0.984375 0.546875q-0.59375 0.1875 -1.25 0.1875q-0.75 0 -1.3125 -0.296875q-0.546875 -0.296875 -0.90625 -0.84375q-0.359375 -0.546875 -0.53125 -1.3125q-0.15625 -0.78125 -0.15625 -1.734375q0 -2.046875 0.75 -3.109375q0.75 -1.078125 2.125 -1.078125q0.453125 0 0.890625 0.109375q0.4375 0.109375 0.78125 0.453125q0.359375 0.328125 0.578125 0.9375q0.21875 0.609375 0.21875 1.578125q0 0.28125 -0.03125 0.59375q-0.015625 0.3125 -0.046875 0.640625l-4.0625 0q0 0.6875 0.109375 1.25q0.109375 0.5625 0.34375 0.953125q0.25 0.390625 0.625 0.609375q0.375 0.21875 0.9375 0.21875q0.421875 0 0.84375 -0.15625q0.4375 -0.171875 0.65625 -0.390625l0.421875 0.84375zm-0.90625 -4.28125q0.03125 -1.203125 -0.34375 -1.765625q-0.359375 -0.5625 -1.0 -0.5625q-0.734375 0 -1.171875 0.5625q-0.421875 0.5625 -0.5 1.765625l3.015625 0zm2.7174072 -3.171875l0.828125 0l0.203125 0.84375l0.046875 0q0.21875 -0.453125 0.578125 -0.71875q0.359375 -0.265625 0.875 -0.265625q0.375 0 0.828125 0.140625l-0.21875 1.171875q-0.421875 -0.140625 -0.734375 -0.140625q-0.515625 0 -0.84375 0.296875q-0.3125 0.28125 -0.40625 0.78125l0 5.890625l-1.15625 0l0 -8.0z" fill-rule="nonzero"/><path fill="#d9ead3" d="m356.03674 198.24672l84.28348 0l0 22.330704l-84.28348 0z" fill-rule="evenodd"/><path stroke="#274e13" stroke-width="1.0" stroke-linejoin="round" stroke-linecap="butt" d="m356.03674 198.24672l84.28348 0l0 22.330704l-84.28348 0z" fill-rule="evenodd"/><path fill="#274e13" d="m376.4497 204.17833q0.5 -0.140625 1.078125 -0.1875q0.578125 -0.046875 1.140625 -0.046875q0.640625 0 1.265625 0.140625q0.625 0.140625 1.125 0.53125q0.5 0.390625 0.8125 1.0625q0.3125 0.671875 0.3125 1.703125q0 1.015625 -0.296875 1.71875q-0.296875 0.703125 -0.78125 1.140625q-0.484375 0.4375 -1.125 0.640625q-0.625 0.203125 -1.296875 0.203125q-0.0625 0 -0.21875 0q-0.140625 0 -0.296875 0q-0.15625 -0.015625 -0.3125 -0.03125q-0.15625 -0.015625 -0.21875 -0.03125l0 4.25l-1.1875 0l0 -11.09375zm2.28125 0.875q-0.328125 0 -0.625 0.03125q-0.28125 0.015625 -0.46875 0.0625l0 4.765625q0.0625 0.03125 0.203125 0.046875q0.140625 0 0.28125 0.015625q0.140625 0 0.28125 0q0.140625 0 0.203125 0q0.4375 0 0.859375 -0.109375q0.421875 -0.109375 0.734375 -0.40625q0.328125 -0.296875 0.515625 -0.796875q0.203125 -0.515625 0.203125 -1.28125q0 -0.671875 -0.1875 -1.109375q-0.171875 -0.453125 -0.46875 -0.71875q-0.296875 -0.28125 -0.703125 -0.390625q-0.390625 -0.109375 -0.828125 -0.109375zm4.4089966 2.21875l0.828125 0l0.203125 0.84375l0.046875 0q0.21875 -0.453125 0.578125 -0.71875q0.359375 -0.265625 0.875 -0.265625q0.375 0 0.828125 0.140625l-0.21875 1.171875q-0.421875 -0.140625 -0.734375 -0.140625q-0.515625 0 -0.84375 0.296875q-0.3125 0.28125 -0.40625 0.78125l0 5.890625l-1.15625 0l0 -8.0zm4.0402527 4.0q0 -2.15625 0.734375 -3.171875q0.75 -1.015625 2.125 -1.015625q1.46875 0 2.15625 1.046875q0.703125 1.03125 0.703125 3.140625q0 2.171875 -0.75 3.1875q-0.75 1.0 -2.109375 1.0q-1.46875 0 -2.171875 -1.03125q-0.6875 -1.046875 -0.6875 -3.15625zm1.203125 0q0 0.703125 0.078125 1.28125q0.09375 0.578125 0.296875 1.0q0.203125 0.40625 0.515625 0.640625q0.328125 0.234375 0.765625 0.234375q0.828125 0 1.25 -0.75q0.421875 -0.75 0.421875 -2.40625q0 -0.6875 -0.09375 -1.265625q-0.09375 -0.59375 -0.296875 -1.0q-0.1875 -0.421875 -0.515625 -0.65625q-0.3125 -0.234375 -0.765625 -0.234375q-0.8125 0 -1.234375 0.765625q-0.421875 0.75 -0.421875 2.390625zm7.830139 0.6875l0.328125 1.578125l0.03125 0l0.28125 -1.609375l1.40625 -4.65625l1.21875 0l-2.734375 8.171875l-0.5625 0l-2.78125 -8.171875l1.3125 0l1.5 4.6875zm4.473633 -4.6875l1.140625 0l0 8.0l-1.140625 0l0 -8.0zm-0.21875 -2.4375q0 -0.375 0.21875 -0.609375q0.21875 -0.25 0.578125 -0.25q0.34375 0 0.578125 0.234375q0.234375 0.234375 0.234375 0.625q0 0.390625 -0.234375 0.609375q-0.234375 0.21875 -0.578125 0.21875q-0.359375 0 -0.578125 -0.21875q-0.21875 -0.234375 -0.21875 -0.609375zm8.534515 7.6875q0 0.8125 0.015625 1.484375q0.015625 0.65625 0.109375 1.296875l-0.78125 0l-0.25 -0.953125l-0.0625 0q-0.234375 0.46875 -0.71875 0.796875q-0.46875 0.3125 -1.140625 0.3125q-1.296875 0 -1.9375 -1.0q-0.625 -1.015625 -0.625 -3.171875q0 -2.046875 0.765625 -3.09375q0.78125 -1.0625 2.140625 -1.0625q0.46875 0 0.734375 0.0625q0.28125 0.046875 0.59375 0.171875l0 -3.296875l1.15625 0l0 8.453125zm-1.15625 -3.984375q-0.21875 -0.1875 -0.5 -0.28125q-0.28125 -0.09375 -0.75 -0.09375q-0.84375 0 -1.3125 0.78125q-0.46875 0.765625 -0.46875 2.359375q0 0.703125 0.078125 1.28125q0.09375 0.5625 0.28125 0.984375q0.1875 0.40625 0.46875 0.640625q0.296875 0.21875 0.734375 0.21875q1.15625 0 1.46875 -1.359375l0 -4.53125zm7.834259 6.1875q-0.390625 0.359375 -0.984375 0.546875q-0.59375 0.1875 -1.25 0.1875q-0.75 0 -1.3125 -0.296875q-0.546875 -0.296875 -0.90625 -0.84375q-0.359375 -0.546875 -0.53125 -1.3125q-0.15625 -0.78125 -0.15625 -1.734375q0 -2.046875 0.75 -3.109375q0.75 -1.078125 2.125 -1.078125q0.453125 0 0.890625 0.109375q0.4375 0.109375 0.78125 0.453125q0.359375 0.328125 0.578125 0.9375q0.21875 0.609375 0.21875 1.578125q0 0.28125 -0.03125 0.59375q-0.015625 0.3125 -0.046875 0.640625l-4.0625 0q0 0.6875 0.109375 1.25q0.109375 0.5625 0.34375 0.953125q0.25 0.390625 0.625 0.609375q0.375 0.21875 0.9375 0.21875q0.421875 0 0.84375 -0.15625q0.4375 -0.171875 0.65625 -0.390625l0.421875 0.84375zm-0.90625 -4.28125q0.03125 -1.203125 -0.34375 -1.765625q-0.359375 -0.5625 -1.0 -0.5625q-0.734375 0 -1.171875 0.5625q-0.421875 0.5625 -0.5 1.765625l3.015625 0zm2.7173767 -3.171875l0.828125 0l0.203125 0.84375l0.046875 0q0.21875 -0.453125 0.578125 -0.71875q0.359375 -0.265625 0.875 -0.265625q0.375 0 0.828125 0.140625l-0.21875 1.171875q-0.421875 -0.140625 -0.734375 -0.140625q-0.515625 0 -0.84375 0.296875q-0.3125 0.28125 -0.40625 0.78125l0 5.890625l-1.15625 0l0 -8.0z" fill-rule="nonzero"/><path fill="#000000" fill-opacity="0.0" d="m284.55118 169.32283l0 28.913391" fill-rule="evenodd"/><path stroke="#000000" stroke-width="1.0" stroke-linejoin="round" stroke-linecap="butt" d="m284.55118 169.32283l0 22.913391" fill-rule="evenodd"/><path fill="#000000" stroke="#000000" stroke-width="1.0" stroke-linecap="butt" d="m282.89944 192.23622l1.6517334 4.538101l1.6517334 -4.538101z" fill-rule="evenodd"/><path fill="#000000" fill-opacity="0.0" d="m398.17862 169.3202l0 28.913391" fill-rule="evenodd"/><path stroke="#000000" stroke-width="1.0" stroke-linejoin="round" stroke-linecap="butt" d="m398.17865 169.3202l0 22.913391" fill-rule="evenodd"/><path fill="#000000" stroke="#000000" stroke-width="1.0" stroke-linecap="butt" d="m396.52692 192.2336l1.6517334 4.538101l1.6517334 -4.538101z" fill-rule="evenodd"/><path fill="#000000" fill-opacity="0.0" d="m431.83466 78.74278l0.72439575 30.173225" fill-rule="evenodd"/><path stroke="#000000" stroke-width="1.0" stroke-linejoin="round" stroke-linecap="butt" d="m431.83466 78.74278l0.5803833 24.174957" fill-rule="evenodd"/><path fill="#000000" stroke="#000000" stroke-width="1.0" stroke-linecap="butt" d="m430.7638 102.95738l1.7601624 4.4971466l1.5423584 -4.5764313z" fill-rule="evenodd"/><path fill="#000000" fill-opacity="0.0" d="m252.63518 78.74278l-0.31497192 31.338585" fill-rule="evenodd"/><path stroke="#000000" stroke-width="1.0" stroke-linejoin="round" stroke-linecap="butt" d="m252.63518 78.74278l-0.2546692 25.33889" fill-rule="evenodd"/><path fill="#000000" stroke="#000000" stroke-width="1.0" stroke-linecap="butt" d="m250.72887 104.06507l1.6060333 4.5544662l1.6972504 -4.5212708z" fill-rule="evenodd"/><path fill="#000000" fill-opacity="0.0" d="m165.79265 141.23097l29.32283 -0.1889801" fill-rule="evenodd"/><path stroke="#000000" stroke-width="1.0" stroke-linejoin="round" stroke-linecap="butt" d="m165.79265 141.23097l23.322968 -0.15031433" fill-rule="evenodd"/><path fill="#000000" stroke="#000000" stroke-width="1.0" stroke-linecap="butt" d="m189.12625 142.73236l4.527359 -1.6809387l-4.548645 -1.6224518z" fill-rule="evenodd"/><path fill="#000000" fill-opacity="0.0" d="m106.69554 141.23097l17.165352 0" fill-rule="evenodd"/><path stroke="#000000" stroke-width="1.0" stroke-linejoin="round" stroke-linecap="butt" d="m106.69554 141.23097l11.165352 0" fill-rule="evenodd"/><path fill="#000000" stroke="#000000" stroke-width="1.0" stroke-linecap="butt" d="m117.86089 142.8827l4.5380936 -1.6517334l-4.5380936 -1.6517334z" fill-rule="evenodd"/><path fill="#000000" fill-opacity="0.0" d="m50.53806 141.82939l14.2362175 -0.5984192" fill-rule="evenodd"/><path stroke="#000000" stroke-width="1.0" stroke-linejoin="round" stroke-linecap="butt" d="m50.53806 141.82939l8.241516 -0.34643555" fill-rule="evenodd"/><path fill="#000000" stroke="#000000" stroke-width="1.0" stroke-linecap="butt" d="m58.84894 143.13324l4.4647255 -1.8408661l-4.603466 -1.4596863z" fill-rule="evenodd"/><path fill="#000000" fill-opacity="0.0" d="m50.947506 293.84253l13.826771 -0.06298828" fill-rule="evenodd"/><path stroke="#000000" stroke-width="1.0" stroke-linejoin="round" stroke-linecap="butt" d="m50.947506 293.84253l7.8268356 -0.03567505" fill-rule="evenodd"/><path fill="#000000" stroke="#000000" stroke-width="1.0" stroke-linecap="butt" d="m58.781864 295.4586l4.530525 -1.6723938l-4.545574 -1.6310425z" fill-rule="evenodd"/></g></svg>