<svg version="1.1" viewBox="0.0 0.0 405.7979002624672 308.9790026246719" fill="none" stroke="none" stroke-linecap="square" stroke-miterlimit="10" xmlns:xlink="http://www.w3.org/1999/xlink" xmlns="http://www.w3.org/2000/svg"><clipPath id="p.0"><path d="m0 0l405.7979 0l0 308.979l-405.7979 0l0 -308.979z" clip-rule="nonzero"/></clipPath><g clip-path="url(#p.0)"><path fill="#000000" fill-opacity="0.0" d="m0 0l405.7979 0l0 308.979l-405.7979 0z" fill-rule="evenodd"/><path fill="#b4a7d6" d="m157.55118 36.913387l106.86615 0l0 74.708664l-106.86615 0z" fill-rule="evenodd"/><path stroke="#20124d" stroke-width="1.0" stroke-linejoin="round" stroke-linecap="butt" d="m157.55118 36.913387l106.86615 0l0 74.708664l-106.86615 0z" fill-rule="evenodd"/><path fill="#20124d" d="m168.89711 48.70026l3.3125 0l0 0.734375l-2.515625 0l0 2.625l2.34375 0l0 0.734375l-2.34375 0l0 3.359375l-0.796875 0l0 -7.453125zm4.1042023 4.78125q0 -1.4375 0.5 -2.109375q0.5 -0.671875 1.40625 -0.671875q0.984375 0 1.4375 0.6875q0.46875 0.6875 0.46875 2.09375q0 1.453125 -0.5 2.125q-0.5 0.671875 -1.40625 0.671875q-0.96875 0 -1.4375 -0.6875q-0.46875 -0.6875 -0.46875 -2.109375zm0.796875 0q0 0.484375 0.0625 0.875q0.0625 0.375 0.1875 0.65625q0.140625 0.265625 0.34375 0.421875q0.21875 0.15625 0.515625 0.15625q0.5625 0 0.828125 -0.5q0.28125 -0.5 0.28125 -1.609375q0 -0.453125 -0.0625 -0.84375q-0.046875 -0.390625 -0.1875 -0.65625q-0.125 -0.28125 -0.34375 -0.4375q-0.21875 -0.15625 -0.515625 -0.15625q-0.53125 0 -0.828125 0.5q-0.28125 0.5 -0.28125 1.59375zm7.400421 2.921875q0 1.03125 -0.46875 1.515625q-0.453125 0.5 -1.328125 0.5q-0.53125 0 -0.875 -0.09375q-0.328125 -0.09375 -0.546875 -0.21875l0.21875 -0.65625q0.21875 0.09375 0.46875 0.171875q0.265625 0.09375 0.640625 0.09375q0.640625 0 0.875 -0.359375q0.25 -0.359375 0.25 -1.21875l0 -0.390625l-0.03125 0q-0.171875 0.25 -0.4375 0.390625q-0.265625 0.140625 -0.6875 0.140625q-0.859375 0 -1.265625 -0.671875q-0.40625 -0.671875 -0.40625 -2.09375q0 -1.375 0.53125 -2.078125q0.53125 -0.703125 1.5625 -0.703125q0.5 0 0.859375 0.09375q0.359375 0.09375 0.640625 0.21875l0 5.359375zm-0.765625 -4.8125q-0.3125 -0.171875 -0.828125 -0.171875q-0.53125 0 -0.875 0.5q-0.328125 0.5 -0.328125 1.578125q0 0.453125 0.046875 0.828125q0.0625 0.375 0.1875 0.65625q0.140625 0.28125 0.328125 0.4375q0.203125 0.15625 0.484375 0.15625q0.40625 0 0.640625 -0.203125q0.234375 -0.21875 0.34375 -0.640625l0 -3.140625zm1.9629211 -0.453125q0.3125 -0.1875 0.75 -0.28125q0.4375 -0.109375 0.9375 -0.109375q0.4375 0 0.703125 0.140625q0.28125 0.125 0.4375 0.359375q0.15625 0.21875 0.203125 0.515625q0.046875 0.28125 0.046875 0.609375q0 0.640625 -0.03125 1.25q-0.015625 0.609375 -0.015625 1.140625q0 0.40625 0.015625 0.765625q0.03125 0.34375 0.109375 0.640625l-0.59375 0l-0.171875 -0.625l-0.046875 0q-0.15625 0.28125 -0.46875 0.484375q-0.3125 0.203125 -0.828125 0.203125q-0.578125 0 -0.953125 -0.390625q-0.359375 -0.40625 -0.359375 -1.109375q0 -0.46875 0.15625 -0.765625q0.15625 -0.3125 0.4375 -0.5q0.28125 -0.203125 0.65625 -0.28125q0.390625 -0.078125 0.875 -0.078125q0.109375 0 0.21875 0q0.109375 0 0.21875 0.015625q0.03125 -0.34375 0.03125 -0.59375q0 -0.609375 -0.1875 -0.84375q-0.171875 -0.25 -0.65625 -0.25q-0.296875 0 -0.65625 0.09375q-0.34375 0.078125 -0.578125 0.21875l-0.25 -0.609375zm2.3125 2.59375q-0.109375 -0.015625 -0.21875 -0.015625q-0.109375 -0.015625 -0.203125 -0.015625q-0.265625 0 -0.515625 0.046875q-0.234375 0.046875 -0.4375 0.15625q-0.1875 0.09375 -0.296875 0.28125q-0.109375 0.171875 -0.109375 0.453125q0 0.421875 0.203125 0.65625q0.21875 0.234375 0.546875 0.234375q0.4375 0 0.6875 -0.203125q0.25 -0.21875 0.34375 -0.46875l0 -1.125zm5.3562927 0.59375q0 0.53125 0 0.984375q0.015625 0.4375 0.09375 0.859375l-0.53125 0l-0.171875 -0.640625l-0.046875 0q-0.140625 0.328125 -0.46875 0.546875q-0.3125 0.203125 -0.765625 0.203125q-0.859375 0 -1.28125 -0.671875q-0.421875 -0.671875 -0.421875 -2.109375q0 -1.359375 0.515625 -2.0625q0.515625 -0.703125 1.421875 -0.703125q0.3125 0 0.484375 0.046875q0.1875 0.03125 0.40625 0.109375l0 -2.1875l0.765625 0l0 5.625zm-0.765625 -2.65625q-0.15625 -0.125 -0.34375 -0.1875q-0.171875 -0.0625 -0.484375 -0.0625q-0.5625 0 -0.890625 0.515625q-0.3125 0.515625 -0.3125 1.578125q0 0.46875 0.0625 0.84375q0.0625 0.375 0.1875 0.65625q0.125 0.28125 0.3125 0.4375q0.203125 0.140625 0.484375 0.140625q0.765625 0 0.984375 -0.90625l0 -3.015625zm1.7860718 1.8125q0 -1.4375 0.5 -2.109375q0.5 -0.671875 1.40625 -0.671875q0.984375 0 1.4375 0.6875q0.46875 0.6875 0.46875 2.09375q0 1.453125 -0.5 2.125q-0.5 0.671875 -1.40625 0.671875q-0.96875 0 -1.4375 -0.6875q-0.46875 -0.6875 -0.46875 -2.109375zm0.796875 0q0 0.484375 0.0625 0.875q0.0625 0.375 0.1875 0.65625q0.140625 0.265625 0.34375 0.421875q0.21875 0.15625 0.515625 0.15625q0.5625 0 0.828125 -0.5q0.28125 -0.5 0.28125 -1.609375q0 -0.453125 -0.0625 -0.84375q-0.046875 -0.390625 -0.1875 -0.65625q-0.125 -0.28125 -0.34375 -0.4375q-0.21875 -0.15625 -0.515625 -0.15625q-0.53125 0 -0.828125 0.5q-0.28125 0.5 -0.28125 1.59375zm0.953125 -5.0l0.828125 0l0 0.21875l-0.875 1.375l-0.453125 0l0.5 -1.59375zm5.3470764 2.34375l0.546875 0l0.125 0.578125l0.03125 0q0.390625 -0.703125 1.234375 -0.703125q0.84375 0 1.265625 0.625q0.421875 0.625 0.421875 2.0625q0 0.671875 -0.140625 1.21875q-0.140625 0.53125 -0.390625 0.90625q-0.25 0.375 -0.625 0.578125q-0.359375 0.1875 -0.8125 0.1875q-0.3125 0 -0.5 -0.046875q-0.171875 -0.03125 -0.390625 -0.140625l0 2.1875l-0.765625 0l0 -7.453125zm0.765625 4.484375q0.15625 0.125 0.34375 0.203125q0.1875 0.078125 0.5 0.078125q0.5625 0 0.890625 -0.578125q0.328125 -0.578125 0.328125 -1.640625q0 -0.453125 -0.0625 -0.8125q-0.0625 -0.359375 -0.1875 -0.609375q-0.125 -0.265625 -0.328125 -0.40625q-0.1875 -0.15625 -0.484375 -0.15625q-0.765625 0 -1.0 0.953125l0 2.96875zm4.5730133 -4.484375l0 3.265625q0 0.8125 0.15625 1.15625q0.171875 0.34375 0.609375 0.34375q0.21875 0 0.390625 -0.09375q0.1875 -0.09375 0.3125 -0.234375q0.140625 -0.15625 0.25 -0.34375q0.109375 -0.1875 0.171875 -0.390625l0 -3.703125l0.765625 0l0 3.8125q0 0.390625 0.015625 0.796875q0.03125 0.40625 0.09375 0.71875l-0.546875 0l-0.1875 -0.75l-0.03125 0q-0.1875 0.359375 -0.53125 0.625q-0.328125 0.25 -0.84375 0.25q-0.34375 0 -0.609375 -0.09375q-0.25 -0.078125 -0.4375 -0.296875q-0.171875 -0.21875 -0.265625 -0.609375q-0.09375 -0.390625 -0.09375 -1.0l0 -3.453125l0.78125 0zm3.9217377 -2.125l0.765625 0l0 2.53125l0.03125 0q0.4375 -0.53125 1.171875 -0.53125q0.8125 0 1.21875 0.65625q0.421875 0.640625 0.421875 2.046875q0 1.4375 -0.546875 2.140625q-0.546875 0.703125 -1.5625 0.703125q-0.484375 0 -0.890625 -0.109375q-0.40625 -0.109375 -0.609375 -0.265625l0 -7.171875zm0.765625 6.671875q0.15625 0.09375 0.375 0.140625q0.21875 0.046875 0.46875 0.046875q0.546875 0 0.875 -0.53125q0.328125 -0.53125 0.328125 -1.625q0 -0.453125 -0.0625 -0.8125q-0.0625 -0.375 -0.1875 -0.640625q-0.125 -0.265625 -0.328125 -0.40625q-0.1875 -0.15625 -0.46875 -0.15625q-0.375 0 -0.625 0.234375q-0.25 0.21875 -0.375 0.625l0 3.125zm4.6873627 -0.484375q0 0.375 0.09375 0.53125q0.109375 0.15625 0.28125 0.15625q0.234375 0 0.53125 -0.109375l0.0625 0.609375q-0.125 0.09375 -0.375 0.140625q-0.25 0.0625 -0.453125 0.0625q-0.40625 0 -0.65625 -0.25q-0.25 -0.265625 -0.25 -0.890625l0 -6.4375l0.765625 0l0 6.1875zm1.7798004 -4.0625l0.78125 0l0 5.328125l-0.78125 0l0 -5.328125zm-0.125 -1.625q0 -0.25 0.140625 -0.40625q0.140625 -0.15625 0.375 -0.15625q0.234375 0 0.390625 0.15625q0.15625 0.140625 0.15625 0.40625q0 0.265625 -0.15625 0.40625q-0.15625 0.140625 -0.390625 0.140625q-0.234375 0 -0.375 -0.140625q-0.140625 -0.15625 -0.140625 -0.40625zm3.4842987 4.5625l-0.40625 0l0 2.390625l-0.765625 0l0 -7.453125l0.765625 0l0 4.53125l0.359375 -0.140625l1.25 -2.265625l0.875 0l-1.25 2.15625l-0.375 0.34375l0.4375 0.40625l1.375 2.421875l-0.921875 0l-1.34375 -2.390625zm3.665924 -2.9375l0 3.265625q0 0.8125 0.15625 1.15625q0.171875 0.34375 0.609375 0.34375q0.21875 0 0.390625 -0.09375q0.1875 -0.09375 0.3125 -0.234375q0.140625 -0.15625 0.25 -0.34375q0.109375 -0.1875 0.171875 -0.390625l0 -3.703125l0.765625 0l0 3.8125q0 0.390625 0.015625 0.796875q0.03125 0.40625 0.09375 0.71875l-0.546875 0l-0.1875 -0.75l-0.03125 0q-0.1875 0.359375 -0.53125 0.625q-0.328125 0.25 -0.84375 0.25q-0.34375 0 -0.609375 -0.09375q-0.25 -0.078125 -0.4375 -0.296875q-0.171875 -0.21875 -0.265625 -0.609375q-0.09375 -0.390625 -0.09375 -1.0l0 -3.453125l0.78125 0zm3.8436127 4.453125q0.203125 0.125 0.5 0.21875q0.296875 0.09375 0.609375 0.09375q0.34375 0 0.59375 -0.171875q0.25 -0.1875 0.25 -0.578125q0 -0.328125 -0.15625 -0.53125q-0.15625 -0.21875 -0.390625 -0.390625q-0.21875 -0.171875 -0.484375 -0.3125q-0.265625 -0.15625 -0.5 -0.34375q-0.21875 -0.203125 -0.375 -0.484375q-0.140625 -0.28125 -0.140625 -0.703125q0 -0.6875 0.359375 -1.03125q0.375 -0.34375 1.046875 -0.34375q0.4375 0 0.75 0.078125q0.328125 0.078125 0.5625 0.21875l-0.203125 0.640625q-0.203125 -0.109375 -0.46875 -0.171875q-0.265625 -0.078125 -0.546875 -0.078125q-0.390625 0 -0.5625 0.171875q-0.171875 0.15625 -0.171875 0.484375q0 0.265625 0.140625 0.453125q0.15625 0.1875 0.375 0.34375q0.234375 0.15625 0.5 0.328125q0.265625 0.15625 0.5 0.375q0.234375 0.21875 0.375 0.515625q0.15625 0.296875 0.15625 0.765625q0 0.296875 -0.109375 0.5625q-0.09375 0.265625 -0.296875 0.46875q-0.1875 0.1875 -0.484375 0.296875q-0.28125 0.125 -0.6875 0.125q-0.46875 0 -0.8125 -0.09375q-0.328125 -0.078125 -0.5625 -0.234375l0.234375 -0.671875zm7.1110077 -1.515625l-0.40625 0l0 2.390625l-0.765625 0l0 -7.453125l0.765625 0l0 4.53125l0.359375 -0.140625l1.25 -2.265625l0.875 0l-1.25 2.15625l-0.375 0.34375l0.4375 0.40625l1.375 2.421875l-0.921875 0l-1.34375 -2.390625zm3.665924 -2.9375l0 3.265625q0 0.8125 0.15625 1.15625q0.171875 0.34375 0.609375 0.34375q0.21875 0 0.390625 -0.09375q0.1875 -0.09375 0.3125 -0.234375q0.140625 -0.15625 0.25 -0.34375q0.109375 -0.1875 0.171875 -0.390625l0 -3.703125l0.765625 0l0 3.8125q0 0.390625 0.015625 0.796875q0.03125 0.40625 0.09375 0.71875l-0.546875 0l-0.1875 -0.75l-0.03125 0q-0.1875 0.359375 -0.53125 0.625q-0.328125 0.25 -0.84375 0.25q-0.34375 0 -0.609375 -0.09375q-0.25 -0.078125 -0.4375 -0.296875q-0.171875 -0.21875 -0.265625 -0.609375q-0.09375 -0.390625 -0.09375 -1.0l0 -3.453125l0.78125 0zm4.7498627 4.0625q0 0.375 0.09375 0.53125q0.109375 0.15625 0.28125 0.15625q0.234375 0 0.53125 -0.109375l0.0625 0.609375q-0.125 0.09375 -0.375 0.140625q-0.25 0.0625 -0.453125 0.0625q-0.40625 0 -0.65625 -0.25q-0.25 -0.265625 -0.25 -0.890625l0 -6.4375l0.765625 0l0 6.1875zm4.5923004 1.0q-0.265625 0.203125 -0.609375 0.296875q-0.328125 0.09375 -0.703125 0.09375q-0.515625 0 -0.875 -0.1875q-0.34375 -0.203125 -0.5625 -0.5625q-0.21875 -0.375 -0.328125 -0.890625q-0.09375 -0.515625 -0.09375 -1.15625q0 -1.359375 0.484375 -2.0625q0.484375 -0.71875 1.390625 -0.71875q0.421875 0 0.71875 0.078125q0.296875 0.0625 0.515625 0.1875l-0.21875 0.671875q-0.421875 -0.25 -0.921875 -0.25q-0.578125 0 -0.875 0.515625q-0.296875 0.5 -0.296875 1.578125q0 0.4375 0.0625 0.828125q0.078125 0.390625 0.21875 0.671875q0.15625 0.28125 0.390625 0.453125q0.234375 0.15625 0.578125 0.15625q0.28125 0 0.515625 -0.09375q0.25 -0.09375 0.390625 -0.234375l0.21875 0.625zm0.77804565 -0.609375q0.203125 0.125 0.5 0.21875q0.296875 0.09375 0.609375 0.09375q0.34375 0 0.59375 -0.171875q0.25 -0.1875 0.25 -0.578125q0 -0.328125 -0.15625 -0.53125q-0.15625 -0.21875 -0.390625 -0.390625q-0.21875 -0.171875 -0.484375 -0.3125q-0.265625 -0.15625 -0.5 -0.34375q-0.21875 -0.203125 -0.375 -0.484375q-0.140625 -0.28125 -0.140625 -0.703125q0 -0.6875 0.359375 -1.03125q0.375 -0.34375 1.046875 -0.34375q0.4375 0 0.75 0.078125q0.328125 0.078125 0.5625 0.21875l-0.203125 0.640625q-0.203125 -0.109375 -0.46875 -0.171875q-0.265625 -0.078125 -0.546875 -0.078125q-0.390625 0 -0.5625 0.171875q-0.171875 0.15625 -0.171875 0.484375q0 0.265625 0.140625 0.453125q0.15625 0.1875 0.375 0.34375q0.234375 0.15625 0.5 0.328125q0.265625 0.15625 0.5 0.375q0.234375 0.21875 0.375 0.515625q0.15625 0.296875 0.15625 0.765625q0 0.296875 -0.109375 0.5625q-0.09375 0.265625 -0.296875 0.46875q-0.1875 0.1875 -0.484375 0.296875q-0.28125 0.125 -0.6875 0.125q-0.46875 0 -0.8125 -0.09375q-0.328125 -0.078125 -0.5625 -0.234375l0.234375 -0.671875zm3.6331024 -4.140625q0.3125 -0.1875 0.75 -0.28125q0.4375 -0.109375 0.9375 -0.109375q0.4375 0 0.703125 0.140625q0.28125 0.125 0.4375 0.359375q0.15625 0.21875 0.203125 0.515625q0.046875 0.28125 0.046875 0.609375q0 0.640625 -0.03125 1.25q-0.015625 0.609375 -0.015625 1.140625q0 0.40625 0.015625 0.765625q0.03125 0.34375 0.109375 0.640625l-0.59375 0l-0.171875 -0.625l-0.046875 0q-0.15625 0.28125 -0.46875 0.484375q-0.3125 0.203125 -0.828125 0.203125q-0.578125 0 -0.953125 -0.390625q-0.359375 -0.40625 -0.359375 -1.109375q0 -0.46875 0.15625 -0.765625q0.15625 -0.3125 0.4375 -0.5q0.28125 -0.203125 0.65625 -0.28125q0.390625 -0.078125 0.875 -0.078125q0.109375 0 0.21875 0q0.109375 0 0.21875 0.015625q0.03125 -0.34375 0.03125 -0.59375q0 -0.609375 -0.1875 -0.84375q-0.171875 -0.25 -0.65625 -0.25q-0.296875 0 -0.65625 0.09375q-0.34375 0.078125 -0.578125 0.21875l-0.25 -0.609375zm2.3125 2.59375q-0.109375 -0.015625 -0.21875 -0.015625q-0.109375 -0.015625 -0.203125 -0.015625q-0.265625 0 -0.515625 0.046875q-0.234375 0.046875 -0.4375 0.15625q-0.1875 0.09375 -0.296875 0.28125q-0.109375 0.171875 -0.109375 0.453125q0 0.421875 0.203125 0.65625q0.21875 0.234375 0.546875 0.234375q0.4375 0 0.6875 -0.203125q0.25 -0.21875 0.34375 -0.46875l0 -1.125z" fill-rule="nonzero"/><path fill="#d9d2e9" d="m163.13911 68.86089l96.47243 0l0 42.771652l-96.47243 0z" fill-rule="evenodd"/><path stroke="#20124d" stroke-width="1.0" stroke-linejoin="round" stroke-linecap="butt" d="m163.13911 68.86089l96.47243 0l0 42.771652l-96.47243 0z" fill-rule="evenodd"/><path fill="#20124d" d="m178.13799 84.647766l-0.375 0l0 3.453125l-0.796875 0l0 -7.453125l0.796875 0l0 3.46875l0.375 -0.15625l1.9375 -3.3125l0.90625 0l-1.9375 3.21875l-0.375 0.328125l0.4375 0.4375l2.15625 3.46875l-1.015625 0l-2.109375 -3.453125zm4.722336 -1.875l0 3.265625q0 0.8125 0.15625 1.15625q0.171875 0.34375 0.609375 0.34375q0.21875 0 0.390625 -0.09375q0.1875 -0.09375 0.3125 -0.234375q0.140625 -0.15625 0.25 -0.34375q0.109375 -0.1875 0.171875 -0.390625l0 -3.703125l0.765625 0l0 3.8125q0 0.390625 0.015625 0.796875q0.03125 0.40625 0.09375 0.71875l-0.546875 0l-0.1875 -0.75l-0.03125 0q-0.1875 0.359375 -0.53125 0.625q-0.328125 0.25 -0.84375 0.25q-0.34375 0 -0.609375 -0.09375q-0.25 -0.078125 -0.4375 -0.296875q-0.171875 -0.21875 -0.265625 -0.609375q-0.09375 -0.390625 -0.09375 -1.0l0 -3.453125l0.78125 0zm-0.6875 -1.625q0 -0.25 0.125 -0.390625q0.125 -0.140625 0.328125 -0.140625q0.21875 0 0.34375 0.140625q0.125 0.140625 0.125 0.390625q0 0.21875 -0.125 0.359375q-0.125 0.140625 -0.34375 0.140625q-0.203125 0 -0.328125 -0.140625q-0.125 -0.140625 -0.125 -0.359375zm1.6875 0q0 -0.25 0.125 -0.390625q0.125 -0.140625 0.34375 -0.140625q0.203125 0 0.328125 0.140625q0.125 0.140625 0.125 0.390625q0 0.21875 -0.125 0.359375q-0.125 0.140625 -0.328125 0.140625q-0.21875 0 -0.34375 -0.140625q-0.125 -0.140625 -0.125 -0.359375zm3.7498627 5.6875q0 0.375 0.09375 0.53125q0.109375 0.15625 0.28125 0.15625q0.234375 0 0.53125 -0.109375l0.0625 0.609375q-0.125 0.09375 -0.375 0.140625q-0.25 0.0625 -0.453125 0.0625q-0.40625 0 -0.65625 -0.25q-0.25 -0.265625 -0.25 -0.890625l0 -6.4375l0.765625 0l0 6.1875zm5.0141754 -0.5625q0 0.53125 0 0.984375q0.015625 0.4375 0.09375 0.859375l-0.53125 0l-0.171875 -0.640625l-0.046875 0q-0.140625 0.328125 -0.46875 0.546875q-0.3125 0.203125 -0.765625 0.203125q-0.859375 0 -1.28125 -0.671875q-0.421875 -0.671875 -0.421875 -2.109375q0 -1.359375 0.515625 -2.0625q0.515625 -0.703125 1.421875 -0.703125q0.3125 0 0.484375 0.046875q0.1875 0.03125 0.40625 0.109375l0 -2.1875l0.765625 0l0 5.625zm-0.765625 -2.65625q-0.15625 -0.125 -0.34375 -0.1875q-0.171875 -0.0625 -0.484375 -0.0625q-0.5625 0 -0.890625 0.515625q-0.3125 0.515625 -0.3125 1.578125q0 0.46875 0.0625 0.84375q0.0625 0.375 0.1875 0.65625q0.125 0.28125 0.3125 0.4375q0.203125 0.140625 0.484375 0.140625q0.765625 0 0.984375 -0.90625l0 -3.015625zm1.7860718 1.8125q0 -1.4375 0.5 -2.109375q0.5 -0.671875 1.40625 -0.671875q0.984375 0 1.4375 0.6875q0.46875 0.6875 0.46875 2.09375q0 1.453125 -0.5 2.125q-0.5 0.671875 -1.40625 0.671875q-0.96875 0 -1.4375 -0.6875q-0.46875 -0.6875 -0.46875 -2.109375zm0.796875 0q0 0.484375 0.0625 0.875q0.0625 0.375 0.1875 0.65625q0.140625 0.265625 0.34375 0.421875q0.21875 0.15625 0.515625 0.15625q0.5625 0 0.828125 -0.5q0.28125 -0.5 0.28125 -1.609375q0 -0.453125 -0.0625 -0.84375q-0.046875 -0.390625 -0.1875 -0.65625q-0.125 -0.28125 -0.34375 -0.4375q-0.21875 -0.15625 -0.515625 -0.15625q-0.53125 0 -0.828125 0.5q-0.28125 0.5 -0.28125 1.59375zm0.75 -4.78125l0.734375 0l0 0.171875l-0.609375 1.203125l-0.421875 0l0.296875 -1.375zm1.3125 0l0.796875 0l0 0.171875l-0.984375 1.203125l-0.4375 0l0.625 -1.375zm4.2377014 2.125l0.546875 0l0.125 0.578125l0.03125 0q0.390625 -0.703125 1.234375 -0.703125q0.84375 0 1.265625 0.625q0.421875 0.625 0.421875 2.0625q0 0.671875 -0.140625 1.21875q-0.140625 0.53125 -0.390625 0.90625q-0.25 0.375 -0.625 0.578125q-0.359375 0.1875 -0.8125 0.1875q-0.3125 0 -0.5 -0.046875q-0.171875 -0.03125 -0.390625 -0.140625l0 2.1875l-0.765625 0l0 -7.453125zm0.765625 4.484375q0.15625 0.125 0.34375 0.203125q0.1875 0.078125 0.5 0.078125q0.5625 0 0.890625 -0.578125q0.328125 -0.578125 0.328125 -1.640625q0 -0.453125 -0.0625 -0.8125q-0.0625 -0.359375 -0.1875 -0.609375q-0.125 -0.265625 -0.328125 -0.40625q-0.1875 -0.15625 -0.484375 -0.15625q-0.765625 0 -1.0 0.953125l0 2.96875zm3.8698883 -4.484375l0.546875 0l0.140625 0.5625l0.03125 0q0.140625 -0.3125 0.375 -0.484375q0.25 -0.171875 0.59375 -0.171875q0.25 0 0.546875 0.09375l-0.140625 0.78125q-0.28125 -0.09375 -0.484375 -0.09375q-0.34375 0 -0.5625 0.203125q-0.21875 0.1875 -0.28125 0.515625l0 3.921875l-0.765625 0l0 -5.328125zm3.0448456 0l0.78125 0l0 5.328125l-0.78125 0l0 -5.328125zm-0.125 -1.625q0 -0.25 0.140625 -0.40625q0.140625 -0.15625 0.375 -0.15625q0.234375 0 0.390625 0.15625q0.15625 0.140625 0.15625 0.40625q0 0.265625 -0.15625 0.40625q-0.15625 0.140625 -0.390625 0.140625q-0.234375 0 -0.375 -0.140625q-0.140625 -0.15625 -0.140625 -0.40625zm3.6092987 4.75l0.203125 1.046875l0.03125 0l0.1875 -1.078125l0.9375 -3.09375l0.8125 0l-1.828125 5.453125l-0.375 0l-1.84375 -5.453125l0.875 0l1.0 3.125zm2.790924 -2.8125q0.3125 -0.1875 0.75 -0.28125q0.4375 -0.109375 0.9375 -0.109375q0.4375 0 0.703125 0.140625q0.28125 0.125 0.4375 0.359375q0.15625 0.21875 0.203125 0.515625q0.046875 0.28125 0.046875 0.609375q0 0.640625 -0.03125 1.25q-0.015625 0.609375 -0.015625 1.140625q0 0.40625 0.015625 0.765625q0.03125 0.34375 0.109375 0.640625l-0.59375 0l-0.171875 -0.625l-0.046875 0q-0.15625 0.28125 -0.46875 0.484375q-0.3125 0.203125 -0.828125 0.203125q-0.578125 0 -0.953125 -0.390625q-0.359375 -0.40625 -0.359375 -1.109375q0 -0.46875 0.15625 -0.765625q0.15625 -0.3125 0.4375 -0.5q0.28125 -0.203125 0.65625 -0.28125q0.390625 -0.078125 0.875 -0.078125q0.109375 0 0.21875 0q0.109375 0 0.21875 0.015625q0.03125 -0.34375 0.03125 -0.59375q0 -0.609375 -0.1875 -0.84375q-0.171875 -0.25 -0.65625 -0.25q-0.296875 0 -0.65625 0.09375q-0.34375 0.078125 -0.578125 0.21875l-0.25 -0.609375zm2.3125 2.59375q-0.109375 -0.015625 -0.21875 -0.015625q-0.109375 -0.015625 -0.203125 -0.015625q-0.265625 0 -0.515625 0.046875q-0.234375 0.046875 -0.4375 0.15625q-0.1875 0.09375 -0.296875 0.28125q-0.109375 0.171875 -0.109375 0.453125q0 0.421875 0.203125 0.65625q0.21875 0.234375 0.546875 0.234375q0.4375 0 0.6875 -0.203125q0.25 -0.21875 0.34375 -0.46875l0 -1.125zm-0.75 -5.25l0.828125 0l0 0.21875l-0.875 1.375l-0.453125 0l0.5 -1.59375zm2.2156677 2.34375l0.65625 0l0 -1.0625l0.765625 -0.234375l0 1.296875l1.15625 0l0 0.6875l-1.15625 0l0 3.1875q0 0.46875 0.109375 0.671875q0.109375 0.203125 0.375 0.203125q0.203125 0 0.359375 -0.046875q0.15625 -0.046875 0.34375 -0.125l0.140625 0.609375q-0.234375 0.125 -0.515625 0.1875q-0.28125 0.078125 -0.59375 0.078125q-0.53125 0 -0.765625 -0.34375q-0.21875 -0.359375 -0.21875 -1.140625l0 -3.28125l-0.65625 0l0 -0.6875zm6.8927765 2.9375l-0.40625 0l0 2.390625l-0.765625 0l0 -7.453125l0.765625 0l0 4.53125l0.359375 -0.140625l1.25 -2.265625l0.875 0l-1.25 2.15625l-0.375 0.34375l0.4375 0.40625l1.375 2.421875l-0.921875 0l-1.34375 -2.390625zm3.665924 -2.9375l0 3.265625q0 0.8125 0.15625 1.15625q0.171875 0.34375 0.609375 0.34375q0.21875 0 0.390625 -0.09375q0.1875 -0.09375 0.3125 -0.234375q0.140625 -0.15625 0.25 -0.34375q0.109375 -0.1875 0.171875 -0.390625l0 -3.703125l0.765625 0l0 3.8125q0 0.390625 0.015625 0.796875q0.03125 0.40625 0.09375 0.71875l-0.546875 0l-0.1875 -0.75l-0.03125 0q-0.1875 0.359375 -0.53125 0.625q-0.328125 0.25 -0.84375 0.25q-0.34375 0 -0.609375 -0.09375q-0.25 -0.078125 -0.4375 -0.296875q-0.171875 -0.21875 -0.265625 -0.609375q-0.09375 -0.390625 -0.09375 -1.0l0 -3.453125l0.78125 0zm4.7498627 4.0625q0 0.375 0.09375 0.53125q0.109375 0.15625 0.28125 0.15625q0.234375 0 0.53125 -0.109375l0.0625 0.609375q-0.125 0.09375 -0.375 0.140625q-0.25 0.0625 -0.453125 0.0625q-0.40625 0 -0.65625 -0.25q-0.25 -0.265625 -0.25 -0.890625l0 -6.4375l0.765625 0l0 6.1875zm4.5923004 1.0q-0.265625 0.203125 -0.609375 0.296875q-0.328125 0.09375 -0.703125 0.09375q-0.515625 0 -0.875 -0.1875q-0.34375 -0.203125 -0.5625 -0.5625q-0.21875 -0.375 -0.328125 -0.890625q-0.09375 -0.515625 -0.09375 -1.15625q0 -1.359375 0.484375 -2.0625q0.484375 -0.71875 1.390625 -0.71875q0.421875 0 0.71875 0.078125q0.296875 0.0625 0.515625 0.1875l-0.21875 0.671875q-0.421875 -0.25 -0.921875 -0.25q-0.578125 0 -0.875 0.515625q-0.296875 0.5 -0.296875 1.578125q0 0.4375 0.0625 0.828125q0.078125 0.390625 0.21875 0.671875q0.15625 0.28125 0.390625 0.453125q0.234375 0.15625 0.578125 0.15625q0.28125 0 0.515625 -0.09375q0.25 -0.09375 0.390625 -0.234375l0.21875 0.625zm0.77804565 -0.609375q0.203125 0.125 0.5 0.21875q0.296875 0.09375 0.609375 0.09375q0.34375 0 0.59375 -0.171875q0.25 -0.1875 0.25 -0.578125q0 -0.328125 -0.15625 -0.53125q-0.15625 -0.21875 -0.390625 -0.390625q-0.21875 -0.171875 -0.484375 -0.3125q-0.265625 -0.15625 -0.5 -0.34375q-0.21875 -0.203125 -0.375 -0.484375q-0.140625 -0.28125 -0.140625 -0.703125q0 -0.6875 0.359375 -1.03125q0.375 -0.34375 1.046875 -0.34375q0.4375 0 0.75 0.078125q0.328125 0.078125 0.5625 0.21875l-0.203125 0.640625q-0.203125 -0.109375 -0.46875 -0.171875q-0.265625 -0.078125 -0.546875 -0.078125q-0.390625 0 -0.5625 0.171875q-0.171875 0.15625 -0.171875 0.484375q0 0.265625 0.140625 0.453125q0.15625 0.1875 0.375 0.34375q0.234375 0.15625 0.5 0.328125q0.265625 0.15625 0.5 0.375q0.234375 0.21875 0.375 0.515625q0.15625 0.296875 0.15625 0.765625q0 0.296875 -0.109375 0.5625q-0.09375 0.265625 -0.296875 0.46875q-0.1875 0.1875 -0.484375 0.296875q-0.28125 0.125 -0.6875 0.125q-0.46875 0 -0.8125 -0.09375q-0.328125 -0.078125 -0.5625 -0.234375l0.234375 -0.671875zm3.6331024 -4.140625q0.3125 -0.1875 0.75 -0.28125q0.4375 -0.109375 0.9375 -0.109375q0.4375 0 0.703125 0.140625q0.28125 0.125 0.4375 0.359375q0.15625 0.21875 0.203125 0.515625q0.046875 0.28125 0.046875 0.609375q0 0.640625 -0.03125 1.25q-0.015625 0.609375 -0.015625 1.140625q0 0.40625 0.015625 0.765625q0.03125 0.34375 0.109375 0.640625l-0.59375 0l-0.171875 -0.625l-0.046875 0q-0.15625 0.28125 -0.46875 0.484375q-0.3125 0.203125 -0.828125 0.203125q-0.578125 0 -0.953125 -0.390625q-0.359375 -0.40625 -0.359375 -1.109375q0 -0.46875 0.15625 -0.765625q0.15625 -0.3125 0.4375 -0.5q0.28125 -0.203125 0.65625 -0.28125q0.390625 -0.078125 0.875 -0.078125q0.109375 0 0.21875 0q0.109375 0 0.21875 0.015625q0.03125 -0.34375 0.03125 -0.59375q0 -0.609375 -0.1875 -0.84375q-0.171875 -0.25 -0.65625 -0.25q-0.296875 0 -0.65625 0.09375q-0.34375 0.078125 -0.578125 0.21875l-0.25 -0.609375zm2.3125 2.59375q-0.109375 -0.015625 -0.21875 -0.015625q-0.109375 -0.015625 -0.203125 -0.015625q-0.265625 0 -0.515625 0.046875q-0.234375 0.046875 -0.4375 0.15625q-0.1875 0.09375 -0.296875 0.28125q-0.109375 0.171875 -0.109375 0.453125q0 0.421875 0.203125 0.65625q0.21875 0.234375 0.546875 0.234375q0.4375 0 0.6875 -0.203125q0.25 -0.21875 0.34375 -0.46875l0 -1.125z" fill-rule="nonzero"/><path fill="#cfe2f3" d="m45.07874 105.21785l69.85826 0l0 48.692917l-69.85826 0z" fill-rule="evenodd"/><path stroke="#073763" stroke-width="1.0" stroke-linejoin="round" stroke-linecap="butt" d="m45.07874 105.21785l69.85826 0l0 48.692917l-69.85826 0z" fill-rule="evenodd"/><path fill="#073763" d="m66.60471 130.2368l-0.578125 0l0 5.1875l-1.1875 0l0 -11.203125l1.1875 0l0 5.21875l0.5625 -0.21875l2.921875 -5.0l1.375 0l-2.9375 4.828125l-0.5625 0.515625l0.65625 0.640625l3.25 5.21875l-1.515625 0l-3.171875 -5.1875zm7.0755157 -2.8125l0 4.890625q0 1.21875 0.25 1.75q0.25 0.515625 0.90625 0.515625q0.328125 0 0.59375 -0.140625q0.265625 -0.140625 0.46875 -0.359375q0.21875 -0.21875 0.375 -0.5q0.15625 -0.296875 0.25 -0.609375l0 -5.546875l1.15625 0l0 5.734375q0 0.5625 0.03125 1.1875q0.046875 0.609375 0.125 1.078125l-0.8125 0l-0.28125 -1.125l-0.0625 0q-0.265625 0.53125 -0.78125 0.921875q-0.5 0.390625 -1.28125 0.390625q-0.5 0 -0.890625 -0.125q-0.390625 -0.125 -0.65625 -0.453125q-0.265625 -0.34375 -0.40625 -0.921875q-0.140625 -0.59375 -0.140625 -1.5l0 -5.1875l1.15625 0zm-0.03125 -2.453125q0 -0.359375 0.1875 -0.5625q0.1875 -0.21875 0.5 -0.21875q0.328125 0 0.515625 0.21875q0.1875 0.203125 0.1875 0.5625q0 0.34375 -0.1875 0.546875q-0.1875 0.203125 -0.515625 0.203125q-0.3125 0 -0.5 -0.203125q-0.1875 -0.203125 -0.1875 -0.546875zm2.546875 0q0 -0.359375 0.1875 -0.5625q0.1875 -0.21875 0.5 -0.21875q0.328125 0 0.5 0.21875q0.1875 0.203125 0.1875 0.5625q0 0.34375 -0.1875 0.546875q-0.171875 0.203125 -0.5 0.203125q-0.3125 0 -0.5 -0.203125q-0.1875 -0.203125 -0.1875 -0.546875zm4.6158905 8.546875q0 0.5625 0.15625 0.8125q0.15625 0.234375 0.421875 0.234375q0.34375 0 0.78125 -0.1875l0.109375 0.9375q-0.203125 0.125 -0.578125 0.203125q-0.375 0.078125 -0.671875 0.078125q-0.609375 0 -0.984375 -0.375q-0.375 -0.375 -0.375 -1.3125l0 -9.6875l1.140625 0l0 9.296875zm7.540512 -0.84375q0 0.8125 0.015625 1.484375q0.015625 0.65625 0.109375 1.296875l-0.78125 0l-0.25 -0.953125l-0.0625 0q-0.234375 0.46875 -0.71875 0.796875q-0.46875 0.3125 -1.140625 0.3125q-1.296875 0 -1.9375 -1.0q-0.625 -1.015625 -0.625 -3.171875q0 -2.046875 0.765625 -3.09375q0.78125 -1.0625 2.140625 -1.0625q0.46875 0 0.734375 0.0625q0.28125 0.046875 0.59375 0.171875l0 -3.296875l1.15625 0l0 8.453125zm-1.15625 -3.984375q-0.21875 -0.1875 -0.5 -0.28125q-0.28125 -0.09375 -0.75 -0.09375q-0.84375 0 -1.3125 0.78125q-0.46875 0.765625 -0.46875 2.359375q0 0.703125 0.078125 1.28125q0.09375 0.5625 0.28125 0.984375q0.1875 0.40625 0.46875 0.640625q0.296875 0.21875 0.734375 0.21875q1.15625 0 1.46875 -1.359375l0 -4.53125zm2.693634 2.734375q0 -2.15625 0.734375 -3.171875q0.75 -1.015625 2.125 -1.015625q1.46875 0 2.15625 1.046875q0.703125 1.03125 0.703125 3.140625q0 2.171875 -0.75 3.1875q-0.75 1.0 -2.109375 1.0q-1.46875 0 -2.171875 -1.03125q-0.6875 -1.046875 -0.6875 -3.15625zm1.203125 0q0 0.703125 0.078125 1.28125q0.09375 0.578125 0.296875 1.0q0.203125 0.40625 0.515625 0.640625q0.328125 0.234375 0.765625 0.234375q0.828125 0 1.25 -0.75q0.421875 -0.75 0.421875 -2.40625q0 -0.6875 -0.09375 -1.265625q-0.09375 -0.59375 -0.296875 -1.0q-0.1875 -0.421875 -0.515625 -0.65625q-0.3125 -0.234375 -0.765625 -0.234375q-0.8125 0 -1.234375 0.765625q-0.421875 0.75 -0.421875 2.390625zm0.609375 -7.203125l1.109375 0l0 0.265625l-0.9375 1.796875l-0.625 0l0.453125 -2.0625zm1.96875 0l1.203125 0l0 0.265625l-1.46875 1.796875l-0.671875 0l0.9375 -2.0625z" fill-rule="nonzero"/><path fill="#cfe2f3" d="m303.09448 105.21785l69.85828 0l0 48.692917l-69.85828 0z" fill-rule="evenodd"/><path stroke="#073763" stroke-width="1.0" stroke-linejoin="round" stroke-linecap="butt" d="m303.09448 105.21785l69.85828 0l0 48.692917l-69.85828 0z" fill-rule="evenodd"/><path fill="#073763" d="m318.71884 124.221176l4.96875 0l0 1.109375l-3.78125 0l0 3.953125l3.53125 0l0 1.09375l-3.53125 0l0 5.046875l-1.1875 0l0 -11.203125zm6.1705017 7.203125q0 -2.15625 0.734375 -3.171875q0.75 -1.015625 2.125 -1.015625q1.46875 0 2.15625 1.046875q0.703125 1.03125 0.703125 3.140625q0 2.171875 -0.75 3.1875q-0.75 1.0 -2.109375 1.0q-1.46875 0 -2.171875 -1.03125q-0.6875 -1.046875 -0.6875 -3.15625zm1.203125 0q0 0.703125 0.078125 1.28125q0.09375 0.578125 0.296875 1.0q0.203125 0.40625 0.515625 0.640625q0.328125 0.234375 0.765625 0.234375q0.828125 0 1.25 -0.75q0.421875 -0.75 0.421875 -2.40625q0 -0.6875 -0.09375 -1.265625q-0.09375 -0.59375 -0.296875 -1.0q-0.1875 -0.421875 -0.515625 -0.65625q-0.3125 -0.234375 -0.765625 -0.234375q-0.8125 0 -1.234375 0.765625q-0.421875 0.75 -0.421875 2.390625zm11.099518 4.375q0 1.546875 -0.6875 2.28125q-0.6875 0.734375 -2.0 0.734375q-0.796875 0 -1.3125 -0.140625q-0.515625 -0.125 -0.828125 -0.3125l0.328125 -0.984375q0.328125 0.140625 0.703125 0.265625q0.390625 0.140625 0.953125 0.140625q0.96875 0 1.328125 -0.546875q0.359375 -0.546875 0.359375 -1.828125l0 -0.59375l-0.046875 0q-0.25 0.375 -0.65625 0.578125q-0.390625 0.203125 -1.015625 0.203125q-1.296875 0 -1.90625 -1.0q-0.609375 -1.0 -0.609375 -3.140625q0 -2.0625 0.78125 -3.109375q0.796875 -1.0625 2.359375 -1.0625q0.75 0 1.28125 0.140625q0.546875 0.140625 0.96875 0.34375l0 8.03125zm-1.15625 -7.21875q-0.46875 -0.265625 -1.234375 -0.265625q-0.8125 0 -1.3125 0.75q-0.484375 0.75 -0.484375 2.375q0 0.671875 0.078125 1.25q0.078125 0.5625 0.265625 0.984375q0.203125 0.421875 0.484375 0.65625q0.296875 0.234375 0.734375 0.234375q0.609375 0 0.953125 -0.3125q0.359375 -0.328125 0.515625 -0.96875l0 -4.703125zm2.9432678 -0.671875q0.46875 -0.296875 1.125 -0.453125q0.671875 -0.15625 1.40625 -0.15625q0.671875 0 1.078125 0.203125q0.40625 0.1875 0.640625 0.53125q0.234375 0.34375 0.296875 0.796875q0.078125 0.4375 0.078125 0.90625q0 0.96875 -0.046875 1.890625q-0.03125 0.90625 -0.03125 1.71875q0 0.609375 0.03125 1.125q0.046875 0.515625 0.15625 0.984375l-0.875 0l-0.265625 -0.9375l-0.0625 0q-0.25 0.40625 -0.71875 0.71875q-0.453125 0.296875 -1.234375 0.296875q-0.875 0 -1.421875 -0.59375q-0.546875 -0.609375 -0.546875 -1.65625q0 -0.6875 0.21875 -1.15625q0.234375 -0.46875 0.65625 -0.75q0.4375 -0.296875 1.015625 -0.40625q0.578125 -0.125 1.296875 -0.125q0.171875 0 0.328125 0q0.15625 0 0.328125 0.015625q0.0625 -0.5 0.0625 -0.875q0 -0.921875 -0.28125 -1.28125q-0.265625 -0.375 -0.984375 -0.375q-0.453125 0 -0.984375 0.140625q-0.53125 0.140625 -0.875 0.34375l-0.390625 -0.90625zm3.484375 3.875q-0.171875 -0.015625 -0.328125 -0.03125q-0.15625 -0.015625 -0.3125 -0.015625q-0.390625 0 -0.765625 0.078125q-0.359375 0.0625 -0.65625 0.21875q-0.28125 0.15625 -0.453125 0.4375q-0.171875 0.265625 -0.171875 0.6875q0 0.640625 0.3125 1.0q0.3125 0.34375 0.8125 0.34375q0.671875 0 1.03125 -0.3125q0.375 -0.328125 0.53125 -0.71875l0 -1.6875zm8.040649 0.890625q0 0.8125 0.015625 1.484375q0.015625 0.65625 0.109375 1.296875l-0.78125 0l-0.25 -0.953125l-0.0625 0q-0.234375 0.46875 -0.71875 0.796875q-0.46875 0.3125 -1.140625 0.3125q-1.296875 0 -1.9375 -1.0q-0.625 -1.015625 -0.625 -3.171875q0 -2.046875 0.765625 -3.09375q0.78125 -1.0625 2.140625 -1.0625q0.46875 0 0.734375 0.0625q0.28125 0.046875 0.59375 0.171875l0 -3.296875l1.15625 0l0 8.453125zm-1.15625 -3.984375q-0.21875 -0.1875 -0.5 -0.28125q-0.28125 -0.09375 -0.75 -0.09375q-0.84375 0 -1.3125 0.78125q-0.46875 0.765625 -0.46875 2.359375q0 0.703125 0.078125 1.28125q0.09375 0.5625 0.28125 0.984375q0.1875 0.40625 0.46875 0.640625q0.296875 0.21875 0.734375 0.21875q1.15625 0 1.46875 -1.359375l0 -4.53125zm2.693634 2.734375q0 -2.15625 0.734375 -3.171875q0.75 -1.015625 2.125 -1.015625q1.46875 0 2.15625 1.046875q0.703125 1.03125 0.703125 3.140625q0 2.171875 -0.75 3.1875q-0.75 1.0 -2.109375 1.0q-1.46875 0 -2.171875 -1.03125q-0.6875 -1.046875 -0.6875 -3.15625zm1.203125 0q0 0.703125 0.078125 1.28125q0.09375 0.578125 0.296875 1.0q0.203125 0.40625 0.515625 0.640625q0.328125 0.234375 0.765625 0.234375q0.828125 0 1.25 -0.75q0.421875 -0.75 0.421875 -2.40625q0 -0.6875 -0.09375 -1.265625q-0.09375 -0.59375 -0.296875 -1.0q-0.1875 -0.421875 -0.515625 -0.65625q-0.3125 -0.234375 -0.765625 -0.234375q-0.8125 0 -1.234375 0.765625q-0.421875 0.75 -0.421875 2.390625zm1.921875 -7.515625l1.234375 0l0 0.328125l-1.3125 2.046875l-0.6875 0l0.765625 -2.375z" fill-rule="nonzero"/><path fill="#cfe2f3" d="m176.4462 234.57217l69.85826 0l0 48.692932l-69.85826 0z" fill-rule="evenodd"/><path stroke="#073763" stroke-width="1.0" stroke-linejoin="round" stroke-linecap="butt" d="m176.4462 234.57217l69.85826 0l0 48.692932l-69.85826 0z" fill-rule="evenodd"/><path fill="#073763" d="m189.19054 244.18489q0.5 -0.140625 1.078125 -0.1875q0.578125 -0.046875 1.140625 -0.046875q0.640625 0 1.265625 0.140625q0.625 0.140625 1.125 0.53125q0.5 0.390625 0.8125 1.0625q0.3125 0.671875 0.3125 1.703125q0 1.015625 -0.296875 1.71875q-0.296875 0.703125 -0.78125 1.140625q-0.484375 0.4375 -1.125 0.640625q-0.625 0.203125 -1.296875 0.203125q-0.0625 0 -0.21875 0q-0.140625 0 -0.296875 0q-0.15625 -0.015625 -0.3125 -0.03125q-0.15625 -0.015625 -0.21875 -0.03125l0 4.25l-1.1875 0l0 -11.09375zm2.28125 0.875q-0.328125 0 -0.625 0.03125q-0.28125 0.015625 -0.46875 0.0625l0 4.765625q0.0625 0.03125 0.203125 0.046875q0.140625 0 0.28125 0.015625q0.140625 0 0.28125 0q0.140625 0 0.203125 0q0.4375 0 0.859375 -0.109375q0.421875 -0.109375 0.734375 -0.40625q0.328125 -0.296875 0.515625 -0.796875q0.203125 -0.515625 0.203125 -1.28125q0 -0.671875 -0.1875 -1.109375q-0.171875 -0.453125 -0.46875 -0.71875q-0.296875 -0.28125 -0.703125 -0.390625q-0.390625 -0.109375 -0.828125 -0.109375zm5.455887 2.21875l0 4.890625q0 1.21875 0.25 1.75q0.25 0.515625 0.90625 0.515625q0.328125 0 0.59375 -0.140625q0.265625 -0.140625 0.46875 -0.359375q0.21875 -0.21875 0.375 -0.5q0.15625 -0.296875 0.25 -0.609375l0 -5.546875l1.15625 0l0 5.734375q0 0.5625 0.03125 1.1875q0.046875 0.609375 0.125 1.078125l-0.8125 0l-0.28125 -1.125l-0.0625 0q-0.265625 0.53125 -0.78125 0.921875q-0.5 0.390625 -1.28125 0.390625q-0.5 0 -0.890625 -0.125q-0.390625 -0.125 -0.65625 -0.453125q-0.265625 -0.34375 -0.40625 -0.921875q-0.140625 -0.59375 -0.140625 -1.5l0 -5.1875l1.15625 0zm5.8971405 -3.203125l1.15625 0l0 3.8125l0.046875 0q0.65625 -0.796875 1.75 -0.796875q1.234375 0 1.84375 0.984375q0.625 0.96875 0.625 3.078125q0 2.15625 -0.828125 3.21875q-0.828125 1.046875 -2.328125 1.046875q-0.734375 0 -1.34375 -0.15625q-0.609375 -0.171875 -0.921875 -0.40625l0 -10.78125zm1.15625 10.03125q0.21875 0.125 0.546875 0.203125q0.328125 0.078125 0.703125 0.078125q0.828125 0 1.3125 -0.796875q0.5 -0.796875 0.5 -2.4375q0 -0.6875 -0.09375 -1.234375q-0.09375 -0.5625 -0.28125 -0.953125q-0.171875 -0.40625 -0.46875 -0.625q-0.296875 -0.21875 -0.71875 -0.21875q-0.5625 0 -0.953125 0.34375q-0.375 0.34375 -0.546875 0.9375l0 4.703125zm7.0221405 -0.734375q0 0.5625 0.15625 0.8125q0.15625 0.234375 0.421875 0.234375q0.34375 0 0.78125 -0.1875l0.109375 0.9375q-0.203125 0.125 -0.578125 0.203125q-0.375 0.078125 -0.671875 0.078125q-0.609375 0 -0.984375 -0.375q-0.375 -0.375 -0.375 -1.3125l0 -9.6875l1.140625 0l0 9.296875zm2.696762 -6.09375l1.140625 0l0 8.0l-1.140625 0l0 -8.0zm-0.21875 -2.4375q0 -0.375 0.21875 -0.609375q0.21875 -0.25 0.578125 -0.25q0.34375 0 0.578125 0.234375q0.234375 0.234375 0.234375 0.625q0 0.390625 -0.234375 0.609375q-0.234375 0.21875 -0.578125 0.21875q-0.359375 0 -0.578125 -0.21875q-0.21875 -0.234375 -0.21875 -0.609375zm5.237625 6.84375l-0.59375 0l0 3.59375l-1.15625 0l0 -11.203125l1.15625 0l0 6.8125l0.53125 -0.21875l1.875 -3.390625l1.328125 0l-1.890625 3.234375l-0.5625 0.515625l0.65625 0.625l2.0625 3.625l-1.390625 0l-2.015625 -3.59375zm5.504883 -4.40625l0 4.890625q0 1.21875 0.25 1.75q0.25 0.515625 0.90625 0.515625q0.328125 0 0.59375 -0.140625q0.265625 -0.140625 0.46875 -0.359375q0.21875 -0.21875 0.375 -0.5q0.15625 -0.296875 0.25 -0.609375l0 -5.546875l1.15625 0l0 5.734375q0 0.5625 0.03125 1.1875q0.046875 0.609375 0.125 1.078125l-0.8125 0l-0.28125 -1.125l-0.0625 0q-0.265625 0.53125 -0.78125 0.921875q-0.5 0.390625 -1.28125 0.390625q-0.5 0 -0.890625 -0.125q-0.390625 -0.125 -0.65625 -0.453125q-0.265625 -0.34375 -0.40625 -0.921875q-0.140625 -0.59375 -0.140625 -1.5l0 -5.1875l1.15625 0zm5.7721405 6.6875q0.328125 0.1875 0.765625 0.328125q0.4375 0.140625 0.90625 0.140625q0.53125 0 0.890625 -0.265625q0.375 -0.265625 0.375 -0.859375q0 -0.5 -0.234375 -0.8125q-0.21875 -0.328125 -0.5625 -0.578125q-0.34375 -0.25 -0.75 -0.46875q-0.390625 -0.21875 -0.734375 -0.515625q-0.34375 -0.3125 -0.578125 -0.71875q-0.21875 -0.421875 -0.21875 -1.0625q0 -1.03125 0.546875 -1.546875q0.5625 -0.515625 1.5625 -0.515625q0.65625 0 1.140625 0.125q0.484375 0.109375 0.828125 0.3125l-0.296875 0.96875q-0.3125 -0.15625 -0.71875 -0.265625q-0.390625 -0.109375 -0.8125 -0.109375q-0.5625 0 -0.828125 0.25q-0.265625 0.234375 -0.265625 0.75q0 0.390625 0.21875 0.671875q0.21875 0.28125 0.5625 0.515625q0.34375 0.234375 0.75 0.484375q0.40625 0.234375 0.75 0.5625q0.34375 0.328125 0.5625 0.78125q0.21875 0.453125 0.21875 1.140625q0 0.453125 -0.140625 0.859375q-0.140625 0.390625 -0.4375 0.6875q-0.296875 0.296875 -0.734375 0.46875q-0.4375 0.171875 -1.03125 0.171875q-0.703125 0 -1.21875 -0.140625q-0.515625 -0.125 -0.859375 -0.34375l0.34375 -1.015625z" fill-rule="nonzero"/><path fill="#073763" d="m192.94817 269.09113l-0.578125 0l0 5.1875l-1.1875 0l0 -11.203125l1.1875 0l0 5.21875l0.5625 -0.21875l2.921875 -5.0l1.375 0l-2.9375 4.828125l-0.5625 0.515625l0.65625 0.640625l3.25 5.21875l-1.515625 0l-3.171875 -5.1875zm6.739517 -2.8125l0 4.890625q0 1.21875 0.25 1.75q0.25 0.515625 0.90625 0.515625q0.328125 0 0.59375 -0.140625q0.265625 -0.140625 0.46875 -0.359375q0.21875 -0.21875 0.375 -0.5q0.15625 -0.296875 0.25 -0.609375l0 -5.546875l1.15625 0l0 5.734375q0 0.5625 0.03125 1.1875q0.046875 0.609375 0.125 1.078125l-0.8125 0l-0.28125 -1.125l-0.0625 0q-0.265625 0.53125 -0.78125 0.921875q-0.5 0.390625 -1.28125 0.390625q-0.5 0 -0.890625 -0.125q-0.390625 -0.125 -0.65625 -0.453125q-0.265625 -0.34375 -0.40625 -0.921875q-0.140625 -0.59375 -0.140625 -1.5l0 -5.1875l1.15625 0zm7.1315155 6.09375q0 0.5625 0.15625 0.8125q0.15625 0.234375 0.421875 0.234375q0.34375 0 0.78125 -0.1875l0.109375 0.9375q-0.203125 0.125 -0.578125 0.203125q-0.375 0.078125 -0.671875 0.078125q-0.609375 0 -0.984375 -0.375q-0.375 -0.375 -0.375 -1.3125l0 -9.6875l1.140625 0l0 9.296875zm6.915512 1.5q-0.40625 0.3125 -0.921875 0.453125q-0.5 0.140625 -1.0625 0.140625q-0.765625 0 -1.296875 -0.296875q-0.53125 -0.296875 -0.859375 -0.84375q-0.328125 -0.546875 -0.484375 -1.328125q-0.140625 -0.78125 -0.140625 -1.71875q0 -2.046875 0.71875 -3.109375q0.734375 -1.078125 2.09375 -1.078125q0.625 0 1.0625 0.109375q0.453125 0.109375 0.78125 0.28125l-0.328125 1.015625q-0.640625 -0.375 -1.390625 -0.375q-0.859375 0 -1.296875 0.765625q-0.4375 0.765625 -0.4375 2.390625q0 0.65625 0.09375 1.234375q0.09375 0.578125 0.3125 1.0q0.234375 0.421875 0.578125 0.671875q0.359375 0.25 0.875 0.25q0.421875 0 0.78125 -0.140625q0.359375 -0.15625 0.59375 -0.34375l0.328125 0.921875zm1.1491394 -0.90625q0.328125 0.1875 0.765625 0.328125q0.4375 0.140625 0.90625 0.140625q0.53125 0 0.890625 -0.265625q0.375 -0.265625 0.375 -0.859375q0 -0.5 -0.234375 -0.8125q-0.21875 -0.328125 -0.5625 -0.578125q-0.34375 -0.25 -0.75 -0.46875q-0.390625 -0.21875 -0.734375 -0.515625q-0.34375 -0.3125 -0.578125 -0.71875q-0.21875 -0.421875 -0.21875 -1.0625q0 -1.03125 0.546875 -1.546875q0.5625 -0.515625 1.5625 -0.515625q0.65625 0 1.140625 0.125q0.484375 0.109375 0.828125 0.3125l-0.296875 0.96875q-0.3125 -0.15625 -0.71875 -0.265625q-0.390625 -0.109375 -0.8125 -0.109375q-0.5625 0 -0.828125 0.25q-0.265625 0.234375 -0.265625 0.75q0 0.390625 0.21875 0.671875q0.21875 0.28125 0.5625 0.515625q0.34375 0.234375 0.75 0.484375q0.40625 0.234375 0.75 0.5625q0.34375 0.328125 0.5625 0.78125q0.21875 0.453125 0.21875 1.140625q0 0.453125 -0.140625 0.859375q-0.140625 0.390625 -0.4375 0.6875q-0.296875 0.296875 -0.734375 0.46875q-0.4375 0.171875 -1.03125 0.171875q-0.703125 0 -1.21875 -0.140625q-0.515625 -0.125 -0.859375 -0.34375l0.34375 -1.015625zm5.1892548 -2.6875q0 -2.15625 0.734375 -3.171875q0.75 -1.015625 2.125 -1.015625q1.46875 0 2.15625 1.046875q0.703125 1.03125 0.703125 3.140625q0 2.171875 -0.75 3.1875q-0.75 1.0 -2.109375 1.0q-1.46875 0 -2.171875 -1.03125q-0.6875 -1.046875 -0.6875 -3.15625zm1.203125 0q0 0.703125 0.078125 1.28125q0.09375 0.578125 0.296875 1.0q0.203125 0.40625 0.515625 0.640625q0.328125 0.234375 0.765625 0.234375q0.828125 0 1.25 -0.75q0.421875 -0.75 0.421875 -2.40625q0 -0.6875 -0.09375 -1.265625q-0.09375 -0.59375 -0.296875 -1.0q-0.1875 -0.421875 -0.515625 -0.65625q-0.3125 -0.234375 -0.765625 -0.234375q-0.8125 0 -1.234375 0.765625q-0.421875 0.75 -0.421875 2.390625zm7.802643 0.40625l-0.59375 0l0 3.59375l-1.15625 0l0 -11.203125l1.15625 0l0 6.8125l0.53125 -0.21875l1.875 -3.390625l1.328125 0l-1.890625 3.234375l-0.5625 0.515625l0.65625 0.625l2.0625 3.625l-1.390625 0l-2.015625 -3.59375z" fill-rule="nonzero"/><path fill="#000000" fill-opacity="0.0" d="m176.4462 258.91864l-96.44095 -105.00787" fill-rule="evenodd"/><path stroke="#000000" stroke-width="1.0" stroke-linejoin="round" stroke-linecap="butt" d="m176.4462 258.91864l-94.12278 -102.48378" fill-rule="evenodd"/><path fill="#000000" stroke="#000000" stroke-width="1.0" stroke-linecap="butt" d="m82.32342 156.43484l1.5889587 0.06758118l-2.9182587 -1.5149536l1.2617264 3.0363464z" fill-rule="evenodd"/><path fill="#000000" fill-opacity="0.0" d="m246.30446 258.91864l91.71654 -105.00787" fill-rule="evenodd"/><path stroke="#000000" stroke-width="1.0" stroke-linejoin="round" stroke-linecap="butt" d="m246.30446 258.91864l89.46208 -102.42671" fill-rule="evenodd"/><path fill="#000000" stroke="#000000" stroke-width="1.0" stroke-linecap="butt" d="m335.76654 156.49191l0.10720825 1.586792l1.1855469 -3.0668945l-2.8795166 1.5873108z" fill-rule="evenodd"/><path fill="#000000" fill-opacity="0.0" d="m114.937004 129.5643l188.15747 0" fill-rule="evenodd"/><path stroke="#000000" stroke-width="1.0" stroke-linejoin="round" stroke-linecap="butt" d="m114.937004 129.5643l184.73041 0" fill-rule="evenodd"/><path fill="#000000" stroke="#000000" stroke-width="1.0" stroke-linecap="butt" d="m299.6674 129.5643l-1.1245728 1.124588l3.0897827 -1.124588l-3.0897827 -1.1245728z" fill-rule="evenodd"/><path fill="#f3f3f3" d="m183.0971 92.2126l55.11812 0l0 16.44094l-55.11812 0z" fill-rule="evenodd"/><path stroke="#434343" stroke-width="1.0" stroke-linejoin="round" stroke-linecap="butt" d="m183.0971 92.2126l55.11812 0l0 16.44094l-55.11812 0z" fill-rule="evenodd"/><path fill="#434343" d="m201.93002 96.71995l0.765625 0l0 4.984375q0 1.359375 -0.53125 1.96875q-0.53125 0.59375 -1.5 0.59375q-1.125 0 -1.640625 -0.578125q-0.515625 -0.59375 -0.515625 -1.8125l0 -5.15625l0.796875 0l0 4.75q0 0.578125 0.0625 0.96875q0.078125 0.390625 0.25 0.640625q0.171875 0.234375 0.421875 0.34375q0.265625 0.109375 0.640625 0.109375q0.703125 0 0.96875 -0.484375q0.28125 -0.5 0.28125 -1.578125l0 -4.75zm-2.46875 -1.015625q0 -0.21875 0.125 -0.359375q0.140625 -0.140625 0.375 -0.140625q0.21875 0 0.34375 0.140625q0.140625 0.140625 0.140625 0.359375q0 0.234375 -0.140625 0.375q-0.125 0.125 -0.34375 0.125q-0.234375 0 -0.375 -0.125q-0.125 -0.140625 -0.125 -0.375zm1.6875 0q0 -0.21875 0.125 -0.359375q0.140625 -0.140625 0.359375 -0.140625q0.234375 0 0.359375 0.140625q0.140625 0.140625 0.140625 0.359375q0 0.234375 -0.140625 0.375q-0.125 0.125 -0.359375 0.125q-0.21875 0 -0.359375 -0.125q-0.125 -0.140625 -0.125 -0.375zm2.5675812 7.78125l1.984375 -3.484375l0.375 -0.46875l-2.359375 0l0 -0.6875l3.109375 0l0 0.6875l-2.0 3.515625l-0.359375 0.4375l2.359375 0l0 0.6875l-3.109375 0l0 -0.6875zm7.1770325 0.328125q-0.25 0.234375 -0.65625 0.359375q-0.390625 0.125 -0.828125 0.125q-0.5 0 -0.875 -0.1875q-0.359375 -0.203125 -0.59375 -0.5625q-0.234375 -0.375 -0.359375 -0.890625q-0.109375 -0.515625 -0.109375 -1.15625q0 -1.359375 0.5 -2.0625q0.5 -0.71875 1.421875 -0.71875q0.296875 0 0.59375 0.078125q0.296875 0.0625 0.53125 0.296875q0.234375 0.21875 0.375 0.625q0.140625 0.40625 0.140625 1.046875q0 0.1875 -0.015625 0.40625q-0.015625 0.203125 -0.03125 0.421875l-2.71875 0q0 0.453125 0.078125 0.828125q0.078125 0.375 0.234375 0.640625q0.15625 0.25 0.40625 0.40625q0.25 0.140625 0.625 0.140625q0.296875 0 0.578125 -0.109375q0.28125 -0.109375 0.421875 -0.25l0.28125 0.5625zm-0.59375 -2.859375q0.015625 -0.796875 -0.234375 -1.171875q-0.234375 -0.375 -0.65625 -0.375q-0.5 0 -0.796875 0.375q-0.28125 0.375 -0.328125 1.171875l2.015625 0zm4.5417023 3.21875l0 -3.25q0 -0.796875 -0.1875 -1.15625q-0.1875 -0.359375 -0.671875 -0.359375q-0.421875 0 -0.703125 0.265625q-0.265625 0.25 -0.40625 0.625l0 3.875l-0.765625 0l0 -5.328125l0.5625 0l0.140625 0.5625l0.03125 0q0.203125 -0.28125 0.546875 -0.484375q0.34375 -0.203125 0.828125 -0.203125q0.328125 0 0.59375 0.09375q0.265625 0.09375 0.4375 0.328125q0.171875 0.21875 0.265625 0.609375q0.09375 0.390625 0.09375 0.96875l0 3.453125l-0.765625 0zm5.1312714 -0.359375q-0.25 0.234375 -0.65625 0.359375q-0.390625 0.125 -0.828125 0.125q-0.5 0 -0.875 -0.1875q-0.359375 -0.203125 -0.59375 -0.5625q-0.234375 -0.375 -0.359375 -0.890625q-0.109375 -0.515625 -0.109375 -1.15625q0 -1.359375 0.5 -2.0625q0.5 -0.71875 1.421875 -0.71875q0.296875 0 0.59375 0.078125q0.296875 0.0625 0.53125 0.296875q0.234375 0.21875 0.375 0.625q0.140625 0.40625 0.140625 1.046875q0 0.1875 -0.015625 0.40625q-0.015625 0.203125 -0.03125 0.421875l-2.71875 0q0 0.453125 0.078125 0.828125q0.078125 0.375 0.234375 0.640625q0.15625 0.25 0.40625 0.40625q0.25 0.140625 0.625 0.140625q0.296875 0 0.578125 -0.109375q0.28125 -0.109375 0.421875 -0.25l0.28125 0.5625zm-0.59375 -2.859375q0.015625 -0.796875 -0.234375 -1.171875q-0.234375 -0.375 -0.65625 -0.375q-0.5 0 -0.796875 0.375q-0.28125 0.375 -0.328125 1.171875l2.015625 0zm1.2760773 -2.109375l0.65625 0l0 -1.0625l0.765625 -0.234375l0 1.296875l1.15625 0l0 0.6875l-1.15625 0l0 3.1875q0 0.46875 0.109375 0.671875q0.109375 0.203125 0.375 0.203125q0.203125 0 0.359375 -0.046875q0.15625 -0.046875 0.34375 -0.125l0.140625 0.609375q-0.234375 0.125 -0.515625 0.1875q-0.28125 0.078125 -0.59375 0.078125q-0.53125 0 -0.765625 -0.34375q-0.21875 -0.359375 -0.21875 -1.140625l0 -3.28125l-0.65625 0l0 -0.6875z" fill-rule="nonzero"/><path fill="#000000" fill-opacity="0.0" d="m176.4462 258.91864l-96.44095 0l0 -105.00787" fill-rule="evenodd"/><path stroke="#000000" stroke-width="1.0" stroke-linejoin="round" stroke-linecap="butt" d="m176.4462 258.91864l-96.44095 0l0 -101.580795" fill-rule="evenodd"/><path fill="#000000" stroke="#000000" stroke-width="1.0" stroke-linecap="butt" d="m80.00525 157.33784l1.1245804 1.124588l-1.1245804 -3.0897675l-1.1245804 3.0897675z" fill-rule="evenodd"/><path fill="#000000" fill-opacity="0.0" d="m246.30446 258.91864l91.71654 0l0 -105.00787" fill-rule="evenodd"/><path stroke="#000000" stroke-width="1.0" stroke-linejoin="round" stroke-linecap="butt" d="m246.30446 258.91864l91.71654 0l0 -101.580795" fill-rule="evenodd"/><path fill="#000000" stroke="#000000" stroke-width="1.0" stroke-linecap="butt" d="m338.021 157.33784l1.1245728 1.124588l-1.1245728 -3.0897675l-1.1245728 3.0897675z" fill-rule="evenodd"/><path fill="#fff2cc" d="m280.35434 249.18636l92.59842 0l0 19.464554l-92.59842 0z" fill-rule="evenodd"/><path stroke="#7f6000" stroke-width="1.0" stroke-linejoin="round" stroke-linecap="butt" d="m280.35434 249.18636l92.59842 0l0 19.464554l-92.59842 0z" fill-rule="evenodd"/><path fill="#7f6000" d="m293.93246 262.37738q-0.265625 0.21875 -0.671875 0.3125q-0.40625 0.09375 -0.84375 0.09375q-0.5625 0 -1.046875 -0.203125q-0.484375 -0.21875 -0.828125 -0.671875q-0.34375 -0.46875 -0.546875 -1.203125q-0.1875 -0.75 -0.1875 -1.78125q0 -1.0625 0.21875 -1.796875q0.21875 -0.734375 0.578125 -1.1875q0.375 -0.46875 0.84375 -0.671875q0.46875 -0.203125 0.96875 -0.203125q0.515625 0 0.84375 0.078125q0.34375 0.078125 0.59375 0.1875l-0.1875 0.71875q-0.21875 -0.109375 -0.515625 -0.171875q-0.28125 -0.078125 -0.65625 -0.078125q-0.375 0 -0.703125 0.171875q-0.328125 0.171875 -0.59375 0.546875q-0.25 0.359375 -0.40625 0.953125q-0.140625 0.59375 -0.140625 1.453125q0 1.5625 0.53125 2.34375q0.53125 0.78125 1.421875 0.78125q0.359375 0 0.640625 -0.09375q0.296875 -0.109375 0.5 -0.25l0.1875 0.671875zm3.5827026 -1.8125l-2.109375 0l-0.59375 2.09375l-0.796875 0l2.25 -7.578125l0.4375 0l2.25 7.578125l-0.828125 0l-0.609375 -2.09375zm-1.890625 -0.703125l1.703125 0l-0.65625 -2.3125l-0.203125 -1.109375l-0.015625 0l-0.203125 1.140625l-0.625 2.28125zm5.9788513 -4.59375q0.328125 -0.09375 0.71875 -0.125q0.390625 -0.03125 0.75 -0.03125q0.4375 0 0.84375 0.09375q0.421875 0.09375 0.75 0.359375q0.34375 0.25 0.546875 0.703125q0.203125 0.4375 0.203125 1.140625q0 0.671875 -0.203125 1.140625q-0.1875 0.46875 -0.515625 0.765625q-0.3125 0.28125 -0.734375 0.421875q-0.421875 0.125 -0.875 0.125q-0.046875 0 -0.140625 0q-0.09375 0 -0.203125 0q-0.109375 0 -0.203125 -0.015625q-0.09375 -0.015625 -0.140625 -0.015625l0 2.828125l-0.796875 0l0 -7.390625zm1.515625 0.578125q-0.203125 0 -0.40625 0.015625q-0.203125 0.015625 -0.3125 0.046875l0 3.1875q0.046875 0.015625 0.125 0.03125q0.09375 0 0.1875 0q0.09375 0 0.1875 0q0.09375 0 0.140625 0q0.296875 0 0.5625 -0.0625q0.28125 -0.078125 0.5 -0.28125q0.21875 -0.203125 0.34375 -0.53125q0.140625 -0.328125 0.140625 -0.84375q0 -0.453125 -0.125 -0.75q-0.125 -0.296875 -0.328125 -0.46875q-0.1875 -0.1875 -0.453125 -0.265625q-0.265625 -0.078125 -0.5625 -0.078125zm3.6430054 1.484375l0 3.265625q0 0.8125 0.15625 1.15625q0.171875 0.34375 0.609375 0.34375q0.21875 0 0.390625 -0.09375q0.1875 -0.09375 0.3125 -0.234375q0.140625 -0.15625 0.25 -0.34375q0.109375 -0.1875 0.171875 -0.390625l0 -3.703125l0.765625 0l0 3.8125q0 0.390625 0.015625 0.796875q0.03125 0.40625 0.09375 0.71875l-0.546875 0l-0.1875 -0.75l-0.03125 0q-0.1875 0.359375 -0.53125 0.625q-0.328125 0.25 -0.84375 0.25q-0.34375 0 -0.609375 -0.09375q-0.25 -0.078125 -0.4375 -0.296875q-0.171875 -0.21875 -0.265625 -0.609375q-0.09375 -0.390625 -0.09375 -1.0l0 -3.453125l0.78125 0zm3.921753 -2.125l0.765625 0l0 2.53125l0.03125 0q0.4375 -0.53125 1.171875 -0.53125q0.8125 0 1.21875 0.65625q0.421875 0.640625 0.421875 2.046875q0 1.4375 -0.546875 2.140625q-0.546875 0.703125 -1.5625 0.703125q-0.484375 0 -0.890625 -0.109375q-0.40625 -0.109375 -0.609375 -0.265625l0 -7.171875zm0.765625 6.671875q0.15625 0.09375 0.375 0.140625q0.21875 0.046875 0.46875 0.046875q0.546875 0 0.875 -0.53125q0.328125 -0.53125 0.328125 -1.625q0 -0.453125 -0.0625 -0.8125q-0.0625 -0.375 -0.1875 -0.640625q-0.125 -0.265625 -0.328125 -0.40625q-0.1875 -0.15625 -0.46875 -0.15625q-0.375 0 -0.625 0.234375q-0.25 0.21875 -0.375 0.625l0 3.125zm4.6873474 -0.484375q0 0.375 0.09375 0.53125q0.109375 0.15625 0.28125 0.15625q0.234375 0 0.53125 -0.109375l0.0625 0.609375q-0.125 0.09375 -0.375 0.140625q-0.25 0.0625 -0.453125 0.0625q-0.40625 0 -0.65625 -0.25q-0.25 -0.265625 -0.25 -0.890625l0 -6.4375l0.765625 0l0 6.1875zm1.7798157 -4.0625l0.78125 0l0 5.328125l-0.78125 0l0 -5.328125zm-0.125 -1.625q0 -0.25 0.140625 -0.40625q0.140625 -0.15625 0.375 -0.15625q0.234375 0 0.390625 0.15625q0.15625 0.140625 0.15625 0.40625q0 0.265625 -0.15625 0.40625q-0.15625 0.140625 -0.390625 0.140625q-0.234375 0 -0.375 -0.140625q-0.140625 -0.15625 -0.140625 -0.40625zm3.4842834 4.5625l-0.40625 0l0 2.390625l-0.765625 0l0 -7.453125l0.765625 0l0 4.53125l0.359375 -0.140625l1.25 -2.265625l0.875 0l-1.25 2.15625l-0.375 0.34375l0.4375 0.40625l1.375 2.421875l-0.921875 0l-1.34375 -2.390625zm3.665924 -2.9375l0 3.265625q0 0.8125 0.15625 1.15625q0.171875 0.34375 0.609375 0.34375q0.21875 0 0.390625 -0.09375q0.1875 -0.09375 0.3125 -0.234375q0.140625 -0.15625 0.25 -0.34375q0.109375 -0.1875 0.171875 -0.390625l0 -3.703125l0.765625 0l0 3.8125q0 0.390625 0.015625 0.796875q0.03125 0.40625 0.09375 0.71875l-0.546875 0l-0.1875 -0.75l-0.03125 0q-0.1875 0.359375 -0.53125 0.625q-0.328125 0.25 -0.84375 0.25q-0.34375 0 -0.609375 -0.09375q-0.25 -0.078125 -0.4375 -0.296875q-0.171875 -0.21875 -0.265625 -0.609375q-0.09375 -0.390625 -0.09375 -1.0l0 -3.453125l0.78125 0zm3.843628 4.453125q0.203125 0.125 0.5 0.21875q0.296875 0.09375 0.609375 0.09375q0.34375 0 0.59375 -0.171875q0.25 -0.1875 0.25 -0.578125q0 -0.328125 -0.15625 -0.53125q-0.15625 -0.21875 -0.390625 -0.390625q-0.21875 -0.171875 -0.484375 -0.3125q-0.265625 -0.15625 -0.5 -0.34375q-0.21875 -0.203125 -0.375 -0.484375q-0.140625 -0.28125 -0.140625 -0.703125q0 -0.6875 0.359375 -1.03125q0.375 -0.34375 1.046875 -0.34375q0.4375 0 0.75 0.078125q0.328125 0.078125 0.5625 0.21875l-0.203125 0.640625q-0.203125 -0.109375 -0.46875 -0.171875q-0.265625 -0.078125 -0.546875 -0.078125q-0.390625 0 -0.5625 0.171875q-0.171875 0.15625 -0.171875 0.484375q0 0.265625 0.140625 0.453125q0.15625 0.1875 0.375 0.34375q0.234375 0.15625 0.5 0.328125q0.265625 0.15625 0.5 0.375q0.234375 0.21875 0.375 0.515625q0.15625 0.296875 0.15625 0.765625q0 0.296875 -0.109375 0.5625q-0.09375 0.265625 -0.296875 0.46875q-0.1875 0.1875 -0.484375 0.296875q-0.28125 0.125 -0.6875 0.125q-0.46875 0 -0.8125 -0.09375q-0.328125 -0.078125 -0.5625 -0.234375l0.234375 -0.671875zm7.1109924 -1.515625l-0.40625 0l0 2.390625l-0.765625 0l0 -7.453125l0.765625 0l0 4.53125l0.359375 -0.140625l1.25 -2.265625l0.875 0l-1.25 2.15625l-0.375 0.34375l0.4375 0.40625l1.375 2.421875l-0.921875 0l-1.34375 -2.390625zm3.665924 -2.9375l0 3.265625q0 0.8125 0.15625 1.15625q0.171875 0.34375 0.609375 0.34375q0.21875 0 0.390625 -0.09375q0.1875 -0.09375 0.3125 -0.234375q0.140625 -0.15625 0.25 -0.34375q0.109375 -0.1875 0.171875 -0.390625l0 -3.703125l0.765625 0l0 3.8125q0 0.390625 0.015625 0.796875q0.03125 0.40625 0.09375 0.71875l-0.546875 0l-0.1875 -0.75l-0.03125 0q-0.1875 0.359375 -0.53125 0.625q-0.328125 0.25 -0.84375 0.25q-0.34375 0 -0.609375 -0.09375q-0.25 -0.078125 -0.4375 -0.296875q-0.171875 -0.21875 -0.265625 -0.609375q-0.09375 -0.390625 -0.09375 -1.0l0 -3.453125l0.78125 0zm4.749878 4.0625q0 0.375 0.09375 0.53125q0.109375 0.15625 0.28125 0.15625q0.234375 0 0.53125 -0.109375l0.0625 0.609375q-0.125 0.09375 -0.375 0.140625q-0.25 0.0625 -0.453125 0.0625q-0.40625 0 -0.65625 -0.25q-0.25 -0.265625 -0.25 -0.890625l0 -6.4375l0.765625 0l0 6.1875zm4.592285 1.0q-0.265625 0.203125 -0.609375 0.296875q-0.328125 0.09375 -0.703125 0.09375q-0.515625 0 -0.875 -0.1875q-0.34375 -0.203125 -0.5625 -0.5625q-0.21875 -0.375 -0.328125 -0.890625q-0.09375 -0.515625 -0.09375 -1.15625q0 -1.359375 0.484375 -2.0625q0.484375 -0.71875 1.390625 -0.71875q0.421875 0 0.71875 0.078125q0.296875 0.0625 0.515625 0.1875l-0.21875 0.671875q-0.421875 -0.25 -0.921875 -0.25q-0.578125 0 -0.875 0.515625q-0.296875 0.5 -0.296875 1.578125q0 0.4375 0.0625 0.828125q0.078125 0.390625 0.21875 0.671875q0.15625 0.28125 0.390625 0.453125q0.234375 0.15625 0.578125 0.15625q0.28125 0 0.515625 -0.09375q0.25 -0.09375 0.390625 -0.234375l0.21875 0.625zm0.77804565 -0.609375q0.203125 0.125 0.5 0.21875q0.296875 0.09375 0.609375 0.09375q0.34375 0 0.59375 -0.171875q0.25 -0.1875 0.25 -0.578125q0 -0.328125 -0.15625 -0.53125q-0.15625 -0.21875 -0.390625 -0.390625q-0.21875 -0.171875 -0.484375 -0.3125q-0.265625 -0.15625 -0.5 -0.34375q-0.21875 -0.203125 -0.375 -0.484375q-0.140625 -0.28125 -0.140625 -0.703125q0 -0.6875 0.359375 -1.03125q0.375 -0.34375 1.046875 -0.34375q0.4375 0 0.75 0.078125q0.328125 0.078125 0.5625 0.21875l-0.203125 0.640625q-0.203125 -0.109375 -0.46875 -0.171875q-0.265625 -0.078125 -0.546875 -0.078125q-0.390625 0 -0.5625 0.171875q-0.171875 0.15625 -0.171875 0.484375q0 0.265625 0.140625 0.453125q0.15625 0.1875 0.375 0.34375q0.234375 0.15625 0.5 0.328125q0.265625 0.15625 0.5 0.375q0.234375 0.21875 0.375 0.515625q0.15625 0.296875 0.15625 0.765625q0 0.296875 -0.109375 0.5625q-0.09375 0.265625 -0.296875 0.46875q-0.1875 0.1875 -0.484375 0.296875q-0.28125 0.125 -0.6875 0.125q-0.46875 0 -0.8125 -0.09375q-0.328125 -0.078125 -0.5625 -0.234375l0.234375 -0.671875z" fill-rule="nonzero"/><path fill="#fff2cc" d="m49.7979 249.18636l92.598434 0l0 19.464554l-92.598434 0z" fill-rule="evenodd"/><path stroke="#7f6000" stroke-width="1.0" stroke-linejoin="round" stroke-linecap="butt" d="m49.7979 249.18636l92.598434 0l0 19.464554l-92.598434 0z" fill-rule="evenodd"/><path fill="#7f6000" d="m63.376026 262.37738q-0.265625 0.21875 -0.671875 0.3125q-0.40625 0.09375 -0.84375 0.09375q-0.5625 0 -1.046875 -0.203125q-0.484375 -0.21875 -0.828125 -0.671875q-0.34375 -0.46875 -0.546875 -1.203125q-0.1875 -0.75 -0.1875 -1.78125q0 -1.0625 0.21875 -1.796875q0.21875 -0.734375 0.578125 -1.1875q0.375 -0.46875 0.84375 -0.671875q0.46875 -0.203125 0.96875 -0.203125q0.515625 0 0.84375 0.078125q0.34375 0.078125 0.59375 0.1875l-0.1875 0.71875q-0.21875 -0.109375 -0.515625 -0.171875q-0.28125 -0.078125 -0.65625 -0.078125q-0.375 0 -0.703125 0.171875q-0.328125 0.171875 -0.59375 0.546875q-0.25 0.359375 -0.40625 0.953125q-0.140625 0.59375 -0.140625 1.453125q0 1.5625 0.53125 2.34375q0.53125 0.78125 1.421875 0.78125q0.359375 0 0.640625 -0.09375q0.296875 -0.109375 0.5 -0.25l0.1875 0.671875zm3.5826988 -1.8125l-2.109375 0l-0.59375 2.09375l-0.7968712 0l2.2499962 -7.578125l0.4375 0l2.25 7.578125l-0.828125 0l-0.609375 -2.09375zm-1.890625 -0.703125l1.703125 0l-0.65625 -2.3125l-0.203125 -1.109375l-0.015625 0l-0.203125 1.140625l-0.625 2.28125zm5.9788513 -4.59375q0.328125 -0.09375 0.71875 -0.125q0.390625 -0.03125 0.75 -0.03125q0.4375 0 0.84375 0.09375q0.421875 0.09375 0.75 0.359375q0.34375 0.25 0.546875 0.703125q0.203125 0.4375 0.203125 1.140625q0 0.671875 -0.203125 1.140625q-0.1875 0.46875 -0.515625 0.765625q-0.3125 0.28125 -0.734375 0.421875q-0.421875 0.125 -0.875 0.125q-0.046875 0 -0.140625 0q-0.09375 0 -0.203125 0q-0.109375 0 -0.203125 -0.015625q-0.09375 -0.015625 -0.140625 -0.015625l0 2.828125l-0.796875 0l0 -7.390625zm1.515625 0.578125q-0.203125 0 -0.40625 0.015625q-0.203125 0.015625 -0.3125 0.046875l0 3.1875q0.046875 0.015625 0.125 0.03125q0.09375 0 0.1875 0q0.09375 0 0.1875 0q0.09375 0 0.140625 0q0.296875 0 0.5625 -0.0625q0.28125 -0.078125 0.5 -0.28125q0.21875 -0.203125 0.34375 -0.53125q0.140625 -0.328125 0.140625 -0.84375q0 -0.453125 -0.125 -0.75q-0.125 -0.296875 -0.328125 -0.46875q-0.1875 -0.1875 -0.453125 -0.265625q-0.265625 -0.078125 -0.5625 -0.078125zm3.6430206 1.484375l0 3.265625q0 0.8125 0.15625 1.15625q0.171875 0.34375 0.609375 0.34375q0.21875 0 0.390625 -0.09375q0.1875 -0.09375 0.3125 -0.234375q0.140625 -0.15625 0.25 -0.34375q0.109375 -0.1875 0.171875 -0.390625l0 -3.703125l0.765625 0l0 3.8125q0 0.390625 0.015625 0.796875q0.03125 0.40625 0.09375 0.71875l-0.546875 0l-0.1875 -0.75l-0.03125 0q-0.1875 0.359375 -0.53125 0.625q-0.328125 0.25 -0.84375 0.25q-0.34375 0 -0.609375 -0.09375q-0.25 -0.078125 -0.4375 -0.296875q-0.171875 -0.21875 -0.265625 -0.609375q-0.09375 -0.390625 -0.09375 -1.0l0 -3.453125l0.78125 0zm3.9217377 -2.125l0.765625 0l0 2.53125l0.03125 0q0.4375 -0.53125 1.171875 -0.53125q0.8125 0 1.21875 0.65625q0.421875 0.640625 0.421875 2.046875q0 1.4375 -0.546875 2.140625q-0.546875 0.703125 -1.5625 0.703125q-0.484375 0 -0.890625 -0.109375q-0.40625 -0.109375 -0.609375 -0.265625l0 -7.171875zm0.765625 6.671875q0.15625 0.09375 0.375 0.140625q0.21875 0.046875 0.46875 0.046875q0.546875 0 0.875 -0.53125q0.328125 -0.53125 0.328125 -1.625q0 -0.453125 -0.0625 -0.8125q-0.0625 -0.375 -0.1875 -0.640625q-0.125 -0.265625 -0.328125 -0.40625q-0.1875 -0.15625 -0.46875 -0.15625q-0.375 0 -0.625 0.234375q-0.25 0.21875 -0.375 0.625l0 3.125zm4.6873627 -0.484375q0 0.375 0.09375 0.53125q0.109375 0.15625 0.28125 0.15625q0.234375 0 0.53125 -0.109375l0.0625 0.609375q-0.125 0.09375 -0.375 0.140625q-0.25 0.0625 -0.453125 0.0625q-0.40625 0 -0.65625 -0.25q-0.25 -0.265625 -0.25 -0.890625l0 -6.4375l0.765625 0l0 6.1875zm1.7798004 -4.0625l0.78125 0l0 5.328125l-0.78125 0l0 -5.328125zm-0.125 -1.625q0 -0.25 0.140625 -0.40625q0.140625 -0.15625 0.375 -0.15625q0.234375 0 0.390625 0.15625q0.15625 0.140625 0.15625 0.40625q0 0.265625 -0.15625 0.40625q-0.15625 0.140625 -0.390625 0.140625q-0.234375 0 -0.375 -0.140625q-0.140625 -0.15625 -0.140625 -0.40625zm3.4842987 4.5625l-0.40625 0l0 2.390625l-0.765625 0l0 -7.453125l0.765625 0l0 4.53125l0.359375 -0.140625l1.25 -2.265625l0.875 0l-1.25 2.15625l-0.375 0.34375l0.4375 0.40625l1.375 2.421875l-0.921875 0l-1.34375 -2.390625zm3.665924 -2.9375l0 3.265625q0 0.8125 0.15625 1.15625q0.171875 0.34375 0.609375 0.34375q0.21875 0 0.390625 -0.09375q0.1875 -0.09375 0.3125 -0.234375q0.140625 -0.15625 0.25 -0.34375q0.109375 -0.1875 0.171875 -0.390625l0 -3.703125l0.765625 0l0 3.8125q0 0.390625 0.015625 0.796875q0.03125 0.40625 0.09375 0.71875l-0.546875 0l-0.1875 -0.75l-0.03125 0q-0.1875 0.359375 -0.53125 0.625q-0.328125 0.25 -0.84375 0.25q-0.34375 0 -0.609375 -0.09375q-0.25 -0.078125 -0.4375 -0.296875q-0.171875 -0.21875 -0.265625 -0.609375q-0.09375 -0.390625 -0.09375 -1.0l0 -3.453125l0.78125 0zm3.8436127 4.453125q0.203125 0.125 0.5 0.21875q0.296875 0.09375 0.609375 0.09375q0.34375 0 0.59375 -0.171875q0.25 -0.1875 0.25 -0.578125q0 -0.328125 -0.15625 -0.53125q-0.15625 -0.21875 -0.390625 -0.390625q-0.21875 -0.171875 -0.484375 -0.3125q-0.265625 -0.15625 -0.5 -0.34375q-0.21875 -0.203125 -0.375 -0.484375q-0.140625 -0.28125 -0.140625 -0.703125q0 -0.6875 0.359375 -1.03125q0.375 -0.34375 1.046875 -0.34375q0.4375 0 0.75 0.078125q0.328125 0.078125 0.5625 0.21875l-0.203125 0.640625q-0.203125 -0.109375 -0.46875 -0.171875q-0.265625 -0.078125 -0.546875 -0.078125q-0.390625 0 -0.5625 0.171875q-0.171875 0.15625 -0.171875 0.484375q0 0.265625 0.140625 0.453125q0.15625 0.1875 0.375 0.34375q0.234375 0.15625 0.5 0.328125q0.265625 0.15625 0.5 0.375q0.234375 0.21875 0.375 0.515625q0.15625 0.296875 0.15625 0.765625q0 0.296875 -0.109375 0.5625q-0.09375 0.265625 -0.296875 0.46875q-0.1875 0.1875 -0.484375 0.296875q-0.28125 0.125 -0.6875 0.125q-0.46875 0 -0.8125 -0.09375q-0.328125 -0.078125 -0.5625 -0.234375l0.234375 -0.671875zm7.1110077 -1.515625l-0.40625 0l0 2.390625l-0.765625 0l0 -7.453125l0.765625 0l0 4.53125l0.359375 -0.140625l1.25 -2.265625l0.875 0l-1.25 2.15625l-0.375 0.34375l0.4375 0.40625l1.375 2.421875l-0.921875 0l-1.34375 -2.390625zm3.665924 -2.9375l0 3.265625q0 0.8125 0.15625 1.15625q0.171875 0.34375 0.609375 0.34375q0.21875 0 0.390625 -0.09375q0.1875 -0.09375 0.3125 -0.234375q0.140625 -0.15625 0.25 -0.34375q0.109375 -0.1875 0.171875 -0.390625l0 -3.703125l0.765625 0l0 3.8125q0 0.390625 0.015625 0.796875q0.03125 0.40625 0.09375 0.71875l-0.546875 0l-0.1875 -0.75l-0.03125 0q-0.1875 0.359375 -0.53125 0.625q-0.328125 0.25 -0.84375 0.25q-0.34375 0 -0.609375 -0.09375q-0.25 -0.078125 -0.4375 -0.296875q-0.171875 -0.21875 -0.265625 -0.609375q-0.09375 -0.390625 -0.09375 -1.0l0 -3.453125l0.78125 0zm4.7498627 4.0625q0 0.375 0.09375 0.53125q0.109375 0.15625 0.28125 0.15625q0.234375 0 0.53125 -0.109375l0.0625 0.609375q-0.125 0.09375 -0.375 0.140625q-0.25 0.0625 -0.453125 0.0625q-0.40625 0 -0.65625 -0.25q-0.25 -0.265625 -0.25 -0.890625l0 -6.4375l0.765625 0l0 6.1875zm4.5923004 1.0q-0.265625 0.203125 -0.609375 0.296875q-0.328125 0.09375 -0.703125 0.09375q-0.515625 0 -0.875 -0.1875q-0.34375 -0.203125 -0.5625 -0.5625q-0.21875 -0.375 -0.328125 -0.890625q-0.09375 -0.515625 -0.09375 -1.15625q0 -1.359375 0.484375 -2.0625q0.484375 -0.71875 1.390625 -0.71875q0.421875 0 0.71875 0.078125q0.296875 0.0625 0.515625 0.1875l-0.21875 0.671875q-0.421875 -0.25 -0.921875 -0.25q-0.578125 0 -0.875 0.515625q-0.296875 0.5 -0.296875 1.578125q0 0.4375 0.0625 0.828125q0.078125 0.390625 0.21875 0.671875q0.15625 0.28125 0.390625 0.453125q0.234375 0.15625 0.578125 0.15625q0.28125 0 0.515625 -0.09375q0.25 -0.09375 0.390625 -0.234375l0.21875 0.625zm0.77804565 -0.609375q0.203125 0.125 0.5 0.21875q0.296875 0.09375 0.609375 0.09375q0.34375 0 0.59375 -0.171875q0.25 -0.1875 0.25 -0.578125q0 -0.328125 -0.15625 -0.53125q-0.15625 -0.21875 -0.390625 -0.390625q-0.21875 -0.171875 -0.484375 -0.3125q-0.265625 -0.15625 -0.5 -0.34375q-0.21875 -0.203125 -0.375 -0.484375q-0.140625 -0.28125 -0.140625 -0.703125q0 -0.6875 0.359375 -1.03125q0.375 -0.34375 1.046875 -0.34375q0.4375 0 0.75 0.078125q0.328125 0.078125 0.5625 0.21875l-0.203125 0.640625q-0.203125 -0.109375 -0.46875 -0.171875q-0.265625 -0.078125 -0.546875 -0.078125q-0.390625 0 -0.5625 0.171875q-0.171875 0.15625 -0.171875 0.484375q0 0.265625 0.140625 0.453125q0.15625 0.1875 0.375 0.34375q0.234375 0.15625 0.5 0.328125q0.265625 0.15625 0.5 0.375q0.234375 0.21875 0.375 0.515625q0.15625 0.296875 0.15625 0.765625q0 0.296875 -0.109375 0.5625q-0.09375 0.265625 -0.296875 0.46875q-0.1875 0.1875 -0.484375 0.296875q-0.28125 0.125 -0.6875 0.125q-0.46875 0 -0.8125 -0.09375q-0.328125 -0.078125 -0.5625 -0.234375l0.234375 -0.671875z" fill-rule="nonzero"/><path fill="#fff2cc" d="m90.2126 162.04199l88.28346 0l0 65.480316l-88.28346 0z" fill-rule="evenodd"/><path stroke="#7f6000" stroke-width="1.0" stroke-linejoin="round" stroke-linecap="butt" d="m90.2126 162.04199l88.28346 0l0 65.480316l-88.28346 0z" fill-rule="evenodd"/><path fill="#7f6000" d="m123.96074 181.00075q-0.265625 0.21875 -0.671875 0.3125q-0.40625 0.09375 -0.84375 0.09375q-0.5625 0 -1.046875 -0.203125q-0.484375 -0.21875 -0.828125 -0.671875q-0.34375 -0.46875 -0.546875 -1.203125q-0.1875 -0.75 -0.1875 -1.78125q0 -1.0625 0.21875 -1.796875q0.21875 -0.734375 0.578125 -1.1875q0.375 -0.46875 0.84375 -0.671875q0.46875 -0.203125 0.96875 -0.203125q0.515625 0 0.84375 0.078125q0.34375 0.078125 0.59375 0.1875l-0.1875 0.71875q-0.21875 -0.109375 -0.515625 -0.171875q-0.28125 -0.078125 -0.65625 -0.078125q-0.375 0 -0.703125 0.171875q-0.328125 0.171875 -0.59375 0.546875q-0.25 0.359375 -0.40625 0.953125q-0.140625 0.59375 -0.140625 1.453125q0 1.5625 0.53125 2.34375q0.53125 0.78125 1.421875 0.78125q0.359375 0 0.640625 -0.09375q0.296875 -0.109375 0.5 -0.25l0.1875 0.671875zm3.5827026 -1.8125l-2.109375 0l-0.59375 2.09375l-0.796875 0l2.25 -7.578125l0.4375 0l2.25 7.578125l-0.828125 0l-0.609375 -2.09375zm-1.890625 -0.703125l1.703125 0l-0.65625 -2.3125l-0.203125 -1.109375l-0.015625 0l-0.203125 1.140625l-0.625 2.28125zm9.623398 -3.921875l-1.828125 0l0 6.71875l-0.796875 0l0 -6.71875l-1.828125 0l0 -0.734375l4.453125 0l0 0.734375zm0.9040222 1.390625l0.78125 0l0 5.328125l-0.78125 0l0 -5.328125zm-0.125 -1.625q0 -0.25 0.140625 -0.40625q0.140625 -0.15625 0.375 -0.15625q0.234375 0 0.390625 0.15625q0.15625 0.140625 0.15625 0.40625q0 0.265625 -0.15625 0.40625q-0.15625 0.140625 -0.390625 0.140625q-0.234375 0 -0.375 -0.140625q-0.140625 -0.15625 -0.140625 -0.40625zm1.7811737 1.625l0.65625 0l0 -1.0625l0.765625 -0.234375l0 1.296875l1.15625 0l0 0.6875l-1.15625 0l0 3.1875q0 0.46875 0.109375 0.671875q0.109375 0.203125 0.375 0.203125q0.203125 0 0.359375 -0.046875q0.15625 -0.046875 0.34375 -0.125l0.140625 0.609375q-0.234375 0.125 -0.515625 0.1875q-0.28125 0.078125 -0.59375 0.078125q-0.53125 0 -0.765625 -0.34375q-0.21875 -0.359375 -0.21875 -1.140625l0 -3.28125l-0.65625 0l0 -0.6875zm3.142044 2.65625q0 -1.4375 0.5 -2.109375q0.5 -0.671875 1.40625 -0.671875q0.984375 0 1.4375 0.6875q0.46875 0.6875 0.46875 2.09375q0 1.453125 -0.5 2.125q-0.5 0.671875 -1.40625 0.671875q-0.96875 0 -1.4375 -0.6875q-0.46875 -0.6875 -0.46875 -2.109375zm0.796875 0q0 0.484375 0.0625 0.875q0.0625 0.375 0.1875 0.65625q0.140625 0.265625 0.34375 0.421875q0.21875 0.15625 0.515625 0.15625q0.5625 0 0.828125 -0.5q0.28125 -0.5 0.28125 -1.609375q0 -0.453125 -0.0625 -0.84375q-0.046875 -0.390625 -0.1875 -0.65625q-0.125 -0.28125 -0.34375 -0.4375q-0.21875 -0.15625 -0.515625 -0.15625q-0.53125 0 -0.828125 0.5q-0.28125 0.5 -0.28125 1.59375zm5.212921 0.28125l-0.40625 0l0 2.390625l-0.765625 0l0 -7.453125l0.765625 0l0 4.53125l0.359375 -0.140625l1.25 -2.265625l0.875 0l-1.25 2.15625l-0.375 0.34375l0.4375 0.40625l1.375 2.421875l-0.921875 0l-1.34375 -2.390625z" fill-rule="nonzero"/><path fill="#fff2cc" d="m235.84251 165.02887l88.28346 0l0 65.480316l-88.28346 0z" fill-rule="evenodd"/><path stroke="#7f6000" stroke-width="1.0" stroke-linejoin="round" stroke-linecap="butt" d="m235.84251 165.02887l88.28346 0l0 65.480316l-88.28346 0z" fill-rule="evenodd"/><path fill="#7f6000" d="m269.59067 183.98763q-0.265625 0.21875 -0.671875 0.3125q-0.40625 0.09375 -0.84375 0.09375q-0.5625 0 -1.046875 -0.203125q-0.484375 -0.21875 -0.828125 -0.671875q-0.34375 -0.46875 -0.546875 -1.203125q-0.1875 -0.75 -0.1875 -1.78125q0 -1.0625 0.21875 -1.796875q0.21875 -0.734375 0.578125 -1.1875q0.375 -0.46875 0.84375 -0.671875q0.46875 -0.203125 0.96875 -0.203125q0.515625 0 0.84375 0.078125q0.34375 0.078125 0.59375 0.1875l-0.1875 0.71875q-0.21875 -0.109375 -0.515625 -0.171875q-0.28125 -0.078125 -0.65625 -0.078125q-0.375 0 -0.703125 0.171875q-0.328125 0.171875 -0.59375 0.546875q-0.25 0.359375 -0.40625 0.953125q-0.140625 0.59375 -0.140625 1.453125q0 1.5625 0.53125 2.34375q0.53125 0.78125 1.421875 0.78125q0.359375 0 0.640625 -0.09375q0.296875 -0.109375 0.5 -0.25l0.1875 0.671875zm3.5827026 -1.8125l-2.109375 0l-0.59375 2.09375l-0.796875 0l2.25 -7.578125l0.4375 0l2.25 7.578125l-0.828125 0l-0.609375 -2.09375zm-1.890625 -0.703125l1.703125 0l-0.65625 -2.3125l-0.203125 -1.109375l-0.015625 0l-0.203125 1.140625l-0.625 2.28125zm9.623383 -3.921875l-1.828125 0l0 6.71875l-0.796875 0l0 -6.71875l-1.828125 0l0 -0.734375l4.453125 0l0 0.734375zm0.9040222 1.390625l0.78125 0l0 5.328125l-0.78125 0l0 -5.328125zm-0.125 -1.625q0 -0.25 0.140625 -0.40625q0.140625 -0.15625 0.375 -0.15625q0.234375 0 0.390625 0.15625q0.15625 0.140625 0.15625 0.40625q0 0.265625 -0.15625 0.40625q-0.15625 0.140625 -0.390625 0.140625q-0.234375 0 -0.375 -0.140625q-0.140625 -0.15625 -0.140625 -0.40625zm1.781189 1.625l0.65625 0l0 -1.0625l0.765625 -0.234375l0 1.296875l1.15625 0l0 0.6875l-1.15625 0l0 3.1875q0 0.46875 0.109375 0.671875q0.109375 0.203125 0.375 0.203125q0.203125 0 0.359375 -0.046875q0.15625 -0.046875 0.34375 -0.125l0.140625 0.609375q-0.234375 0.125 -0.515625 0.1875q-0.28125 0.078125 -0.59375 0.078125q-0.53125 0 -0.765625 -0.34375q-0.21875 -0.359375 -0.21875 -1.140625l0 -3.28125l-0.65625 0l0 -0.6875zm3.1420288 2.65625q0 -1.4375 0.5 -2.109375q0.5 -0.671875 1.40625 -0.671875q0.984375 0 1.4375 0.6875q0.46875 0.6875 0.46875 2.09375q0 1.453125 -0.5 2.125q-0.5 0.671875 -1.40625 0.671875q-0.96875 0 -1.4375 -0.6875q-0.46875 -0.6875 -0.46875 -2.109375zm0.796875 0q0 0.484375 0.0625 0.875q0.0625 0.375 0.1875 0.65625q0.140625 0.265625 0.34375 0.421875q0.21875 0.15625 0.515625 0.15625q0.5625 0 0.828125 -0.5q0.28125 -0.5 0.28125 -1.609375q0 -0.453125 -0.0625 -0.84375q-0.046875 -0.390625 -0.1875 -0.65625q-0.125 -0.28125 -0.34375 -0.4375q-0.21875 -0.15625 -0.515625 -0.15625q-0.53125 0 -0.828125 0.5q-0.28125 0.5 -0.28125 1.59375zm5.212921 0.28125l-0.40625 0l0 2.390625l-0.765625 0l0 -7.453125l0.765625 0l0 4.53125l0.359375 -0.140625l1.25 -2.265625l0.875 0l-1.25 2.15625l-0.375 0.34375l0.4375 0.40625l1.375 2.421875l-0.921875 0l-1.34375 -2.390625z" fill-rule="nonzero"/><path fill="#f3f3f3" d="m96.27559 196.38583l76.157486 0l0 26.708649l-76.157486 0z" fill-rule="evenodd"/><path stroke="#434343" stroke-width="1.0" stroke-linejoin="round" stroke-linecap="butt" d="m96.27559 196.38583l76.157486 0l0 26.708649l-76.157486 0z" fill-rule="evenodd"/><path fill="#434343" d="m121.497604 199.52704l3.3125 0l0 0.734375l-2.515625 0l0 2.625l2.34375 0l0 0.734375l-2.34375 0l0 3.359375l-0.796875 0l0 -7.453125zm4.1042023 4.78125q0 -1.4375 0.5 -2.109375q0.5 -0.671875 1.40625 -0.671875q0.984375 0 1.4375 0.6875q0.46875 0.6875 0.46875 2.09375q0 1.453125 -0.5 2.125q-0.5 0.671875 -1.40625 0.671875q-0.96875 0 -1.4375 -0.6875q-0.46875 -0.6875 -0.46875 -2.109375zm0.796875 0q0 0.484375 0.0625 0.875q0.0625 0.375 0.1875 0.65625q0.140625 0.265625 0.34375 0.421875q0.21875 0.15625 0.515625 0.15625q0.5625 0 0.828125 -0.5q0.28125 -0.5 0.28125 -1.609375q0 -0.453125 -0.0625 -0.84375q-0.046875 -0.390625 -0.1875 -0.65625q-0.125 -0.28125 -0.34375 -0.4375q-0.21875 -0.15625 -0.515625 -0.15625q-0.53125 0 -0.828125 0.5q-0.28125 0.5 -0.28125 1.59375zm7.400421 2.921875q0 1.03125 -0.46875 1.515625q-0.453125 0.5 -1.328125 0.5q-0.53125 0 -0.875 -0.09375q-0.328125 -0.09375 -0.546875 -0.21875l0.21875 -0.65625q0.21875 0.09375 0.46875 0.171875q0.265625 0.09375 0.640625 0.09375q0.640625 0 0.875 -0.359375q0.25 -0.359375 0.25 -1.21875l0 -0.390625l-0.03125 0q-0.171875 0.25 -0.4375 0.390625q-0.265625 0.140625 -0.6875 0.140625q-0.859375 0 -1.265625 -0.671875q-0.40625 -0.671875 -0.40625 -2.09375q0 -1.375 0.53125 -2.078125q0.53125 -0.703125 1.5625 -0.703125q0.5 0 0.859375 0.09375q0.359375 0.09375 0.640625 0.21875l0 5.359375zm-0.765625 -4.8125q-0.3125 -0.171875 -0.828125 -0.171875q-0.53125 0 -0.875 0.5q-0.328125 0.5 -0.328125 1.578125q0 0.453125 0.046875 0.828125q0.0625 0.375 0.1875 0.65625q0.140625 0.28125 0.328125 0.4375q0.203125 0.15625 0.484375 0.15625q0.40625 0 0.640625 -0.203125q0.234375 -0.21875 0.34375 -0.640625l0 -3.140625zm1.9629211 -0.453125q0.3125 -0.1875 0.75 -0.28125q0.4375 -0.109375 0.9375 -0.109375q0.4375 0 0.703125 0.140625q0.28125 0.125 0.4375 0.359375q0.15625 0.21875 0.203125 0.515625q0.046875 0.28125 0.046875 0.609375q0 0.640625 -0.03125 1.25q-0.015625 0.609375 -0.015625 1.140625q0 0.40625 0.015625 0.765625q0.03125 0.34375 0.109375 0.640625l-0.59375 0l-0.171875 -0.625l-0.046875 0q-0.15625 0.28125 -0.46875 0.484375q-0.3125 0.203125 -0.828125 0.203125q-0.578125 0 -0.953125 -0.390625q-0.359375 -0.40625 -0.359375 -1.109375q0 -0.46875 0.15625 -0.765625q0.15625 -0.3125 0.4375 -0.5q0.28125 -0.203125 0.65625 -0.28125q0.390625 -0.078125 0.875 -0.078125q0.109375 0 0.21875 0q0.109375 0 0.21875 0.015625q0.03125 -0.34375 0.03125 -0.59375q0 -0.609375 -0.1875 -0.84375q-0.171875 -0.25 -0.65625 -0.25q-0.296875 0 -0.65625 0.09375q-0.34375 0.078125 -0.578125 0.21875l-0.25 -0.609375zm2.3125 2.59375q-0.109375 -0.015625 -0.21875 -0.015625q-0.109375 -0.015625 -0.203125 -0.015625q-0.265625 0 -0.515625 0.046875q-0.234375 0.046875 -0.4375 0.15625q-0.1875 0.09375 -0.296875 0.28125q-0.109375 0.171875 -0.109375 0.453125q0 0.421875 0.203125 0.65625q0.21875 0.234375 0.546875 0.234375q0.4375 0 0.6875 -0.203125q0.25 -0.21875 0.34375 -0.46875l0 -1.125zm5.3562927 0.59375q0 0.53125 0 0.984375q0.015625 0.4375 0.09375 0.859375l-0.53125 0l-0.171875 -0.640625l-0.046875 0q-0.140625 0.328125 -0.46875 0.546875q-0.3125 0.203125 -0.765625 0.203125q-0.859375 0 -1.28125 -0.671875q-0.421875 -0.671875 -0.421875 -2.109375q0 -1.359375 0.515625 -2.0625q0.515625 -0.703125 1.421875 -0.703125q0.3125 0 0.484375 0.046875q0.1875 0.03125 0.40625 0.109375l0 -2.1875l0.765625 0l0 5.625zm-0.765625 -2.65625q-0.15625 -0.125 -0.34375 -0.1875q-0.171875 -0.0625 -0.484375 -0.0625q-0.5625 0 -0.890625 0.515625q-0.3125 0.515625 -0.3125 1.578125q0 0.46875 0.0625 0.84375q0.0625 0.375 0.1875 0.65625q0.125 0.28125 0.3125 0.4375q0.203125 0.140625 0.484375 0.140625q0.765625 0 0.984375 -0.90625l0 -3.015625zm1.7860718 1.8125q0 -1.4375 0.5 -2.109375q0.5 -0.671875 1.40625 -0.671875q0.984375 0 1.4375 0.6875q0.46875 0.6875 0.46875 2.09375q0 1.453125 -0.5 2.125q-0.5 0.671875 -1.40625 0.671875q-0.96875 0 -1.4375 -0.6875q-0.46875 -0.6875 -0.46875 -2.109375zm0.796875 0q0 0.484375 0.0625 0.875q0.0625 0.375 0.1875 0.65625q0.140625 0.265625 0.34375 0.421875q0.21875 0.15625 0.515625 0.15625q0.5625 0 0.828125 -0.5q0.28125 -0.5 0.28125 -1.609375q0 -0.453125 -0.0625 -0.84375q-0.046875 -0.390625 -0.1875 -0.65625q-0.125 -0.28125 -0.34375 -0.4375q-0.21875 -0.15625 -0.515625 -0.15625q-0.53125 0 -0.828125 0.5q-0.28125 0.5 -0.28125 1.59375zm0.953125 -5.0l0.828125 0l0 0.21875l-0.875 1.375l-0.453125 0l0.5 -1.59375z" fill-rule="nonzero"/><path fill="#434343" d="m106.8785 214.65204l0.546875 0l0.125 0.578125l0.03125 0q0.390625 -0.703125 1.234375 -0.703125q0.84375 0 1.265625 0.625q0.421875 0.625 0.421875 2.0625q0 0.671875 -0.140625 1.21875q-0.140625 0.53125 -0.390625 0.90625q-0.25 0.375 -0.625 0.578125q-0.359375 0.1875 -0.8125 0.1875q-0.3125 0 -0.5 -0.046875q-0.171875 -0.03125 -0.390625 -0.140625l0 2.1875l-0.765625 0l0 -7.453125zm0.765625 4.484375q0.15625 0.125 0.34375 0.203125q0.1875 0.078125 0.5 0.078125q0.5625 0 0.890625 -0.578125q0.328125 -0.578125 0.328125 -1.640625q0 -0.453125 -0.0625 -0.8125q-0.0625 -0.359375 -0.1875 -0.609375q-0.125 -0.265625 -0.328125 -0.40625q-0.1875 -0.15625 -0.484375 -0.15625q-0.765625 0 -1.0 0.953125l0 2.96875zm4.5730133 -4.484375l0 3.265625q0 0.8125 0.15625 1.15625q0.171875 0.34375 0.609375 0.34375q0.21875 0 0.390625 -0.09375q0.1875 -0.09375 0.3125 -0.234375q0.140625 -0.15625 0.25 -0.34375q0.109375 -0.1875 0.171875 -0.390625l0 -3.703125l0.765625 0l0 3.8125q0 0.390625 0.015625 0.796875q0.03125 0.40625 0.09375 0.71875l-0.546875 0l-0.1875 -0.75l-0.03125 0q-0.1875 0.359375 -0.53125 0.625q-0.328125 0.25 -0.84375 0.25q-0.34375 0 -0.609375 -0.09375q-0.25 -0.078125 -0.4375 -0.296875q-0.171875 -0.21875 -0.265625 -0.609375q-0.09375 -0.390625 -0.09375 -1.0l0 -3.453125l0.78125 0zm3.9217377 -2.125l0.765625 0l0 2.53125l0.03125 0q0.4375 -0.53125 1.171875 -0.53125q0.8125 0 1.21875 0.65625q0.421875 0.640625 0.421875 2.046875q0 1.4375 -0.546875 2.140625q-0.546875 0.703125 -1.5625 0.703125q-0.484375 0 -0.890625 -0.109375q-0.40625 -0.109375 -0.609375 -0.265625l0 -7.171875zm0.765625 6.671875q0.15625 0.09375 0.375 0.140625q0.21875 0.046875 0.46875 0.046875q0.546875 0 0.875 -0.53125q0.328125 -0.53125 0.328125 -1.625q0 -0.453125 -0.0625 -0.8125q-0.0625 -0.375 -0.1875 -0.640625q-0.125 -0.265625 -0.328125 -0.40625q-0.1875 -0.15625 -0.46875 -0.15625q-0.375 0 -0.625 0.234375q-0.25 0.21875 -0.375 0.625l0 3.125zm4.6873627 -0.484375q0 0.375 0.09375 0.53125q0.109375 0.15625 0.28125 0.15625q0.234375 0 0.53125 -0.109375l0.0625 0.609375q-0.125 0.09375 -0.375 0.140625q-0.25 0.0625 -0.453125 0.0625q-0.40625 0 -0.65625 -0.25q-0.25 -0.265625 -0.25 -0.890625l0 -6.4375l0.765625 0l0 6.1875zm1.7798004 -4.0625l0.78125 0l0 5.328125l-0.78125 0l0 -5.328125zm-0.125 -1.625q0 -0.25 0.140625 -0.40625q0.140625 -0.15625 0.375 -0.15625q0.234375 0 0.390625 0.15625q0.15625 0.140625 0.15625 0.40625q0 0.265625 -0.15625 0.40625q-0.15625 0.140625 -0.390625 0.140625q-0.234375 0 -0.375 -0.140625q-0.140625 -0.15625 -0.140625 -0.40625zm3.4842987 4.5625l-0.40625 0l0 2.390625l-0.765625 0l0 -7.453125l0.765625 0l0 4.53125l0.359375 -0.140625l1.25 -2.265625l0.8750076 0l-1.2500076 2.15625l-0.375 0.34375l0.4375 0.40625l1.3750076 2.421875l-0.92189026 0l-1.3437424 -2.390625zm3.6659317 -2.9375l0 3.265625q0 0.8125 0.15625 1.15625q0.171875 0.34375 0.609375 0.34375q0.21875 0 0.390625 -0.09375q0.1875 -0.09375 0.3125 -0.234375q0.140625 -0.15625 0.25 -0.34375q0.109375 -0.1875 0.171875 -0.390625l0 -3.703125l0.765625 0l0 3.8125q0 0.390625 0.015625 0.796875q0.03125 0.40625 0.09375 0.71875l-0.546875 0l-0.1875 -0.75l-0.03125 0q-0.1875 0.359375 -0.53125 0.625q-0.328125 0.25 -0.84375 0.25q-0.34375 0 -0.609375 -0.09375q-0.25 -0.078125 -0.4375 -0.296875q-0.171875 -0.21875 -0.265625 -0.609375q-0.09375 -0.390625 -0.09375 -1.0l0 -3.453125l0.78125 0zm3.8436127 4.453125q0.203125 0.125 0.5 0.21875q0.296875 0.09375 0.609375 0.09375q0.34375 0 0.59375 -0.171875q0.25 -0.1875 0.25 -0.578125q0 -0.328125 -0.15625 -0.53125q-0.15625 -0.21875 -0.390625 -0.390625q-0.21875 -0.171875 -0.484375 -0.3125q-0.265625 -0.15625 -0.5 -0.34375q-0.21875 -0.203125 -0.375 -0.484375q-0.140625 -0.28125 -0.140625 -0.703125q0 -0.6875 0.359375 -1.03125q0.375 -0.34375 1.046875 -0.34375q0.4375 0 0.75 0.078125q0.328125 0.078125 0.5625 0.21875l-0.203125 0.640625q-0.203125 -0.109375 -0.46875 -0.171875q-0.265625 -0.078125 -0.546875 -0.078125q-0.390625 0 -0.5625 0.171875q-0.171875 0.15625 -0.171875 0.484375q0 0.265625 0.140625 0.453125q0.15625 0.1875 0.375 0.34375q0.234375 0.15625 0.5 0.328125q0.265625 0.15625 0.5 0.375q0.234375 0.21875 0.375 0.515625q0.15625 0.296875 0.15625 0.765625q0 0.296875 -0.109375 0.5625q-0.09375 0.265625 -0.296875 0.46875q-0.1875 0.1875 -0.484375 0.296875q-0.28125 0.125 -0.6875 0.125q-0.46875 0 -0.8125 -0.09375q-0.328125 -0.078125 -0.5625 -0.234375l0.234375 -0.671875zm7.1110077 -1.515625l-0.40625 0l0 2.390625l-0.765625 0l0 -7.453125l0.765625 0l0 4.53125l0.359375 -0.140625l1.25 -2.265625l0.875 0l-1.25 2.15625l-0.375 0.34375l0.4375 0.40625l1.375 2.421875l-0.921875 0l-1.34375 -2.390625zm3.665924 -2.9375l0 3.265625q0 0.8125 0.15625 1.15625q0.171875 0.34375 0.609375 0.34375q0.21875 0 0.390625 -0.09375q0.1875 -0.09375 0.3125 -0.234375q0.140625 -0.15625 0.25 -0.34375q0.109375 -0.1875 0.171875 -0.390625l0 -3.703125l0.765625 0l0 3.8125q0 0.390625 0.015625 0.796875q0.03125 0.40625 0.09375 0.71875l-0.546875 0l-0.1875 -0.75l-0.03125 0q-0.1875 0.359375 -0.53125 0.625q-0.328125 0.25 -0.84375 0.25q-0.34375 0 -0.609375 -0.09375q-0.25 -0.078125 -0.4375 -0.296875q-0.171875 -0.21875 -0.265625 -0.609375q-0.09375 -0.390625 -0.09375 -1.0l0 -3.453125l0.78125 0zm4.7498627 4.0625q0 0.375 0.09375 0.53125q0.109375 0.15625 0.28125 0.15625q0.234375 0 0.53125 -0.109375l0.0625 0.609375q-0.125 0.09375 -0.375 0.140625q-0.25 0.0625 -0.453125 0.0625q-0.40625 0 -0.65625 -0.25q-0.25 -0.265625 -0.25 -0.890625l0 -6.4375l0.765625 0l0 6.1875zm4.5923004 1.0q-0.265625 0.203125 -0.609375 0.296875q-0.328125 0.09375 -0.703125 0.09375q-0.515625 0 -0.875 -0.1875q-0.34375 -0.203125 -0.5625 -0.5625q-0.21875 -0.375 -0.328125 -0.890625q-0.09375 -0.515625 -0.09375 -1.15625q0 -1.359375 0.484375 -2.0625q0.484375 -0.71875 1.390625 -0.71875q0.421875 0 0.71875 0.078125q0.296875 0.0625 0.515625 0.1875l-0.21875 0.671875q-0.421875 -0.25 -0.921875 -0.25q-0.578125 0 -0.875 0.515625q-0.296875 0.5 -0.296875 1.578125q0 0.4375 0.0625 0.828125q0.078125 0.390625 0.21875 0.671875q0.15625 0.28125 0.390625 0.453125q0.234375 0.15625 0.578125 0.15625q0.28125 0 0.515625 -0.09375q0.25 -0.09375 0.390625 -0.234375l0.21875 0.625zm0.77804565 -0.609375q0.203125 0.125 0.5 0.21875q0.296875 0.09375 0.609375 0.09375q0.34375 0 0.59375 -0.171875q0.25 -0.1875 0.25 -0.578125q0 -0.328125 -0.15625 -0.53125q-0.15625 -0.21875 -0.390625 -0.390625q-0.21875 -0.171875 -0.484375 -0.3125q-0.265625 -0.15625 -0.5 -0.34375q-0.21875 -0.203125 -0.375 -0.484375q-0.140625 -0.28125 -0.140625 -0.703125q0 -0.6875 0.359375 -1.03125q0.375 -0.34375 1.046875 -0.34375q0.4375 0 0.75 0.078125q0.328125 0.078125 0.5625 0.21875l-0.203125 0.640625q-0.203125 -0.109375 -0.46875 -0.171875q-0.265625 -0.078125 -0.546875 -0.078125q-0.390625 0 -0.5625 0.171875q-0.171875 0.15625 -0.171875 0.484375q0 0.265625 0.140625 0.453125q0.15625 0.1875 0.375 0.34375q0.234375 0.15625 0.5 0.328125q0.265625 0.15625 0.5 0.375q0.234375 0.21875 0.375 0.515625q0.15625 0.296875 0.15625 0.765625q0 0.296875 -0.109375 0.5625q-0.09375 0.265625 -0.296875 0.46875q-0.1875 0.1875 -0.484375 0.296875q-0.28125 0.125 -0.6875 0.125q-0.46875 0 -0.8125 -0.09375q-0.328125 -0.078125 -0.5625 -0.234375l0.234375 -0.671875zm3.6331024 -4.140625q0.3125 -0.1875 0.75 -0.28125q0.4375 -0.109375 0.9375 -0.109375q0.4375 0 0.703125 0.140625q0.28125 0.125 0.4375 0.359375q0.15625 0.21875 0.203125 0.515625q0.046875 0.28125 0.046875 0.609375q0 0.640625 -0.03125 1.25q-0.015625 0.609375 -0.015625 1.140625q0 0.40625 0.015625 0.765625q0.03125 0.34375 0.109375 0.640625l-0.59375 0l-0.171875 -0.625l-0.046875 0q-0.15625 0.28125 -0.46875 0.484375q-0.3125 0.203125 -0.828125 0.203125q-0.578125 0 -0.953125 -0.390625q-0.359375 -0.40625 -0.359375 -1.109375q0 -0.46875 0.15625 -0.765625q0.15625 -0.3125 0.4375 -0.5q0.28125 -0.203125 0.65625 -0.28125q0.390625 -0.078125 0.875 -0.078125q0.109375 0 0.21875 0q0.109375 0 0.21875 0.015625q0.03125 -0.34375 0.03125 -0.59375q0 -0.609375 -0.1875 -0.84375q-0.171875 -0.25 -0.65625 -0.25q-0.296875 0 -0.65625 0.09375q-0.34375 0.078125 -0.578125 0.21875l-0.25 -0.609375zm2.3125 2.59375q-0.109375 -0.015625 -0.21875 -0.015625q-0.109375 -0.015625 -0.203125 -0.015625q-0.265625 0 -0.515625 0.046875q-0.234375 0.046875 -0.4375 0.15625q-0.1875 0.09375 -0.296875 0.28125q-0.109375 0.171875 -0.109375 0.453125q0 0.421875 0.203125 0.65625q0.21875 0.234375 0.546875 0.234375q0.4375 0 0.6875 -0.203125q0.25 -0.21875 0.34375 -0.46875l0 -1.125z" fill-rule="nonzero"/><path fill="#f3f3f3" d="m241.90552 196.38583l76.15747 0l0 26.708649l-76.15747 0z" fill-rule="evenodd"/><path stroke="#434343" stroke-width="1.0" stroke-linejoin="round" stroke-linecap="butt" d="m241.90552 196.38583l76.15747 0l0 26.708649l-76.15747 0z" fill-rule="evenodd"/><path fill="#434343" d="m253.27393 203.52704l-0.375 0l0 3.453125l-0.796875 0l0 -7.453125l0.796875 0l0 3.46875l0.375 -0.15625l1.9375 -3.3125l0.90625 0l-1.9375 3.21875l-0.375 0.328125l0.4375 0.4375l2.15625 3.46875l-1.015625 0l-2.109375 -3.453125zm4.7223206 -1.875l0 3.265625q0 0.8125 0.15625 1.15625q0.171875 0.34375 0.609375 0.34375q0.21875 0 0.390625 -0.09375q0.1875 -0.09375 0.3125 -0.234375q0.140625 -0.15625 0.25 -0.34375q0.109375 -0.1875 0.171875 -0.390625l0 -3.703125l0.765625 0l0 3.8125q0 0.390625 0.015625 0.796875q0.03125 0.40625 0.09375 0.71875l-0.546875 0l-0.1875 -0.75l-0.03125 0q-0.1875 0.359375 -0.53125 0.625q-0.328125 0.25 -0.84375 0.25q-0.34375 0 -0.609375 -0.09375q-0.25 -0.078125 -0.4375 -0.296875q-0.171875 -0.21875 -0.265625 -0.609375q-0.09375 -0.390625 -0.09375 -1.0l0 -3.453125l0.78125 0zm-0.6875 -1.625q0 -0.25 0.125 -0.390625q0.125 -0.140625 0.328125 -0.140625q0.21875 0 0.34375 0.140625q0.125 0.140625 0.125 0.390625q0 0.21875 -0.125 0.359375q-0.125 0.140625 -0.34375 0.140625q-0.203125 0 -0.328125 -0.140625q-0.125 -0.140625 -0.125 -0.359375zm1.6875 0q0 -0.25 0.125 -0.390625q0.125 -0.140625 0.34375 -0.140625q0.203125 0 0.328125 0.140625q0.125 0.140625 0.125 0.390625q0 0.21875 -0.125 0.359375q-0.125 0.140625 -0.328125 0.140625q-0.21875 0 -0.34375 -0.140625q-0.125 -0.140625 -0.125 -0.359375zm3.749878 5.6875q0 0.375 0.09375 0.53125q0.109375 0.15625 0.28125 0.15625q0.234375 0 0.53125 -0.109375l0.0625 0.609375q-0.125 0.09375 -0.375 0.140625q-0.25 0.0625 -0.453125 0.0625q-0.40625 0 -0.65625 -0.25q-0.25 -0.265625 -0.25 -0.890625l0 -6.4375l0.765625 0l0 6.1875zm5.01416 -0.5625q0 0.53125 0 0.984375q0.015625 0.4375 0.09375 0.859375l-0.53125 0l-0.171875 -0.640625l-0.046875 0q-0.140625 0.328125 -0.46875 0.546875q-0.3125 0.203125 -0.765625 0.203125q-0.859375 0 -1.28125 -0.671875q-0.421875 -0.671875 -0.421875 -2.109375q0 -1.359375 0.515625 -2.0625q0.515625 -0.703125 1.421875 -0.703125q0.3125 0 0.484375 0.046875q0.1875 0.03125 0.40625 0.109375l0 -2.1875l0.765625 0l0 5.625zm-0.765625 -2.65625q-0.15625 -0.125 -0.34375 -0.1875q-0.171875 -0.0625 -0.484375 -0.0625q-0.5625 0 -0.890625 0.515625q-0.3125 0.515625 -0.3125 1.578125q0 0.46875 0.0625 0.84375q0.0625 0.375 0.1875 0.65625q0.125 0.28125 0.3125 0.4375q0.203125 0.140625 0.484375 0.140625q0.765625 0 0.984375 -0.90625l0 -3.015625zm1.7860718 1.8125q0 -1.4375 0.5 -2.109375q0.5 -0.671875 1.40625 -0.671875q0.984375 0 1.4375 0.6875q0.46875 0.6875 0.46875 2.09375q0 1.453125 -0.5 2.125q-0.5 0.671875 -1.40625 0.671875q-0.96875 0 -1.4375 -0.6875q-0.46875 -0.6875 -0.46875 -2.109375zm0.796875 0q0 0.484375 0.0625 0.875q0.0625 0.375 0.1875 0.65625q0.140625 0.265625 0.34375 0.421875q0.21875 0.15625 0.515625 0.15625q0.5625 0 0.828125 -0.5q0.28125 -0.5 0.28125 -1.609375q0 -0.453125 -0.0625 -0.84375q-0.046875 -0.390625 -0.1875 -0.65625q-0.125 -0.28125 -0.34375 -0.4375q-0.21875 -0.15625 -0.515625 -0.15625q-0.53125 0 -0.828125 0.5q-0.28125 0.5 -0.28125 1.59375zm0.75 -4.78125l0.734375 0l0 0.171875l-0.609375 1.203125l-0.421875 0l0.296875 -1.375zm1.3125 0l0.796875 0l0 0.171875l-0.984375 1.203125l-0.4375 0l0.625 -1.375zm6.496887 2.125l0.546875 0l0.125 0.578125l0.03125 0q0.390625 -0.703125 1.234375 -0.703125q0.84375 0 1.265625 0.625q0.421875 0.625 0.421875 2.0625q0 0.671875 -0.140625 1.21875q-0.140625 0.53125 -0.390625 0.90625q-0.25 0.375 -0.625 0.578125q-0.359375 0.1875 -0.8125 0.1875q-0.3125 0 -0.5 -0.046875q-0.171875 -0.03125 -0.390625 -0.140625l0 2.1875l-0.765625 0l0 -7.453125zm0.765625 4.484375q0.15625 0.125 0.34375 0.203125q0.1875 0.078125 0.5 0.078125q0.5625 0 0.890625 -0.578125q0.328125 -0.578125 0.328125 -1.640625q0 -0.453125 -0.0625 -0.8125q-0.0625 -0.359375 -0.1875 -0.609375q-0.125 -0.265625 -0.328125 -0.40625q-0.1875 -0.15625 -0.484375 -0.15625q-0.765625 0 -1.0 0.953125l0 2.96875zm4.572998 -4.484375l0 3.265625q0 0.8125 0.15625 1.15625q0.171875 0.34375 0.609375 0.34375q0.21875 0 0.390625 -0.09375q0.1875 -0.09375 0.3125 -0.234375q0.140625 -0.15625 0.25 -0.34375q0.109375 -0.1875 0.171875 -0.390625l0 -3.703125l0.765625 0l0 3.8125q0 0.390625 0.015625 0.796875q0.03125 0.40625 0.09375 0.71875l-0.546875 0l-0.1875 -0.75l-0.03125 0q-0.1875 0.359375 -0.53125 0.625q-0.328125 0.25 -0.84375 0.25q-0.34375 0 -0.609375 -0.09375q-0.25 -0.078125 -0.4375 -0.296875q-0.171875 -0.21875 -0.265625 -0.609375q-0.09375 -0.390625 -0.09375 -1.0l0 -3.453125l0.78125 0zm3.921753 -2.125l0.765625 0l0 2.53125l0.03125 0q0.4375 -0.53125 1.171875 -0.53125q0.8125 0 1.21875 0.65625q0.421875 0.640625 0.421875 2.046875q0 1.4375 -0.546875 2.140625q-0.546875 0.703125 -1.5625 0.703125q-0.484375 0 -0.890625 -0.109375q-0.40625 -0.109375 -0.609375 -0.265625l0 -7.171875zm0.765625 6.671875q0.15625 0.09375 0.375 0.140625q0.21875 0.046875 0.46875 0.046875q0.546875 0 0.875 -0.53125q0.328125 -0.53125 0.328125 -1.625q0 -0.453125 -0.0625 -0.8125q-0.0625 -0.375 -0.1875 -0.640625q-0.125 -0.265625 -0.328125 -0.40625q-0.1875 -0.15625 -0.46875 -0.15625q-0.375 0 -0.625 0.234375q-0.25 0.21875 -0.375 0.625l0 3.125zm4.6873474 -0.484375q0 0.375 0.09375 0.53125q0.109375 0.15625 0.28125 0.15625q0.234375 0 0.53125 -0.109375l0.0625 0.609375q-0.125 0.09375 -0.375 0.140625q-0.25 0.0625 -0.453125 0.0625q-0.40625 0 -0.65625 -0.25q-0.25 -0.265625 -0.25 -0.890625l0 -6.4375l0.765625 0l0 6.1875zm1.7798157 -4.0625l0.78125 0l0 5.328125l-0.78125 0l0 -5.328125zm-0.125 -1.625q0 -0.25 0.140625 -0.40625q0.140625 -0.15625 0.375 -0.15625q0.234375 0 0.390625 0.15625q0.15625 0.140625 0.15625 0.40625q0 0.265625 -0.15625 0.40625q-0.15625 0.140625 -0.390625 0.140625q-0.234375 0 -0.375 -0.140625q-0.140625 -0.15625 -0.140625 -0.40625zm3.4842834 4.5625l-0.40625 0l0 2.390625l-0.765625 0l0 -7.453125l0.765625 0l0 4.53125l0.359375 -0.140625l1.25 -2.265625l0.875 0l-1.25 2.15625l-0.375 0.34375l0.4375 0.40625l1.375 2.421875l-0.921875 0l-1.34375 -2.390625zm3.665924 -2.9375l0 3.265625q0 0.8125 0.15625 1.15625q0.171875 0.34375 0.609375 0.34375q0.21875 0 0.390625 -0.09375q0.1875 -0.09375 0.3125 -0.234375q0.140625 -0.15625 0.25 -0.34375q0.109375 -0.1875 0.171875 -0.390625l0 -3.703125l0.765625 0l0 3.8125q0 0.390625 0.015625 0.796875q0.03125 0.40625 0.09375 0.71875l-0.546875 0l-0.1875 -0.75l-0.03125 0q-0.1875 0.359375 -0.53125 0.625q-0.328125 0.25 -0.84375 0.25q-0.34375 0 -0.609375 -0.09375q-0.25 -0.078125 -0.4375 -0.296875q-0.171875 -0.21875 -0.265625 -0.609375q-0.09375 -0.390625 -0.09375 -1.0l0 -3.453125l0.78125 0zm3.843628 4.453125q0.203125 0.125 0.5 0.21875q0.296875 0.09375 0.609375 0.09375q0.34375 0 0.59375 -0.171875q0.25 -0.1875 0.25 -0.578125q0 -0.328125 -0.15625 -0.53125q-0.15625 -0.21875 -0.390625 -0.390625q-0.21875 -0.171875 -0.484375 -0.3125q-0.265625 -0.15625 -0.5 -0.34375q-0.21875 -0.203125 -0.375 -0.484375q-0.140625 -0.28125 -0.140625 -0.703125q0 -0.6875 0.359375 -1.03125q0.375 -0.34375 1.046875 -0.34375q0.4375 0 0.75 0.078125q0.328125 0.078125 0.5625 0.21875l-0.203125 0.640625q-0.203125 -0.109375 -0.46875 -0.171875q-0.265625 -0.078125 -0.546875 -0.078125q-0.390625 0 -0.5625 0.171875q-0.171875 0.15625 -0.171875 0.484375q0 0.265625 0.140625 0.453125q0.15625 0.1875 0.375 0.34375q0.234375 0.15625 0.5 0.328125q0.265625 0.15625 0.5 0.375q0.234375 0.21875 0.375 0.515625q0.15625 0.296875 0.15625 0.765625q0 0.296875 -0.109375 0.5625q-0.09375 0.265625 -0.296875 0.46875q-0.1875 0.1875 -0.484375 0.296875q-0.28125 0.125 -0.6875 0.125q-0.46875 0 -0.8125 -0.09375q-0.328125 -0.078125 -0.5625 -0.234375l0.234375 -0.671875z" fill-rule="nonzero"/><path fill="#434343" d="m270.33087 217.58954l-0.40625 0l0 2.390625l-0.765625 0l0 -7.453125l0.765625 0l0 4.53125l0.359375 -0.140625l1.25 -2.265625l0.875 0l-1.25 2.15625l-0.375 0.34375l0.4375 0.40625l1.375 2.421875l-0.921875 0l-1.34375 -2.390625zm3.665924 -2.9375l0 3.265625q0 0.8125 0.15625 1.15625q0.171875 0.34375 0.609375 0.34375q0.21875 0 0.390625 -0.09375q0.1875 -0.09375 0.3125 -0.234375q0.140625 -0.15625 0.25 -0.34375q0.109375 -0.1875 0.171875 -0.390625l0 -3.703125l0.765625 0l0 3.8125q0 0.390625 0.015625 0.796875q0.03125 0.40625 0.09375 0.71875l-0.546875 0l-0.1875 -0.75l-0.03125 0q-0.1875 0.359375 -0.53125 0.625q-0.328125 0.25 -0.84375 0.25q-0.34375 0 -0.609375 -0.09375q-0.25 -0.078125 -0.4375 -0.296875q-0.171875 -0.21875 -0.265625 -0.609375q-0.09375 -0.390625 -0.09375 -1.0l0 -3.453125l0.78125 0zm4.7498474 4.0625q0 0.375 0.09375 0.53125q0.109375 0.15625 0.28125 0.15625q0.234375 0 0.53125 -0.109375l0.0625 0.609375q-0.125 0.09375 -0.375 0.140625q-0.25 0.0625 -0.453125 0.0625q-0.40625 0 -0.65625 -0.25q-0.25 -0.265625 -0.25 -0.890625l0 -6.4375l0.765625 0l0 6.1875zm4.5923157 1.0q-0.265625 0.203125 -0.609375 0.296875q-0.328125 0.09375 -0.703125 0.09375q-0.515625 0 -0.875 -0.1875q-0.34375 -0.203125 -0.5625 -0.5625q-0.21875 -0.375 -0.328125 -0.890625q-0.09375 -0.515625 -0.09375 -1.15625q0 -1.359375 0.484375 -2.0625q0.484375 -0.71875 1.390625 -0.71875q0.421875 0 0.71875 0.078125q0.296875 0.0625 0.515625 0.1875l-0.21875 0.671875q-0.421875 -0.25 -0.921875 -0.25q-0.578125 0 -0.875 0.515625q-0.296875 0.5 -0.296875 1.578125q0 0.4375 0.0625 0.828125q0.078125 0.390625 0.21875 0.671875q0.15625 0.28125 0.390625 0.453125q0.234375 0.15625 0.578125 0.15625q0.28125 0 0.515625 -0.09375q0.25 -0.09375 0.390625 -0.234375l0.21875 0.625zm0.77804565 -0.609375q0.203125 0.125 0.5 0.21875q0.296875 0.09375 0.609375 0.09375q0.34375 0 0.59375 -0.171875q0.25 -0.1875 0.25 -0.578125q0 -0.328125 -0.15625 -0.53125q-0.15625 -0.21875 -0.390625 -0.390625q-0.21875 -0.171875 -0.484375 -0.3125q-0.265625 -0.15625 -0.5 -0.34375q-0.21875 -0.203125 -0.375 -0.484375q-0.140625 -0.28125 -0.140625 -0.703125q0 -0.6875 0.359375 -1.03125q0.375 -0.34375 1.046875 -0.34375q0.4375 0 0.75 0.078125q0.328125 0.078125 0.5625 0.21875l-0.203125 0.640625q-0.203125 -0.109375 -0.46875 -0.171875q-0.265625 -0.078125 -0.546875 -0.078125q-0.390625 0 -0.5625 0.171875q-0.171875 0.15625 -0.171875 0.484375q0 0.265625 0.140625 0.453125q0.15625 0.1875 0.375 0.34375q0.234375 0.15625 0.5 0.328125q0.265625 0.15625 0.5 0.375q0.234375 0.21875 0.375 0.515625q0.15625 0.296875 0.15625 0.765625q0 0.296875 -0.109375 0.5625q-0.09375 0.265625 -0.296875 0.46875q-0.1875 0.1875 -0.484375 0.296875q-0.28125 0.125 -0.6875 0.125q-0.46875 0 -0.8125 -0.09375q-0.328125 -0.078125 -0.5625 -0.234375l0.234375 -0.671875zm3.6330872 -4.140625q0.3125 -0.1875 0.75 -0.28125q0.4375 -0.109375 0.9375 -0.109375q0.4375 0 0.703125 0.140625q0.28125 0.125 0.4375 0.359375q0.15625 0.21875 0.203125 0.515625q0.046875 0.28125 0.046875 0.609375q0 0.640625 -0.03125 1.25q-0.015625 0.609375 -0.015625 1.140625q0 0.40625 0.015625 0.765625q0.03125 0.34375 0.109375 0.640625l-0.59375 0l-0.171875 -0.625l-0.046875 0q-0.15625 0.28125 -0.46875 0.484375q-0.3125 0.203125 -0.828125 0.203125q-0.578125 0 -0.953125 -0.390625q-0.359375 -0.40625 -0.359375 -1.109375q0 -0.46875 0.15625 -0.765625q0.15625 -0.3125 0.4375 -0.5q0.28125 -0.203125 0.65625 -0.28125q0.390625 -0.078125 0.875 -0.078125q0.109375 0 0.21875 0q0.109375 0 0.21875 0.015625q0.03125 -0.34375 0.03125 -0.59375q0 -0.609375 -0.1875 -0.84375q-0.171875 -0.25 -0.65625 -0.25q-0.296875 0 -0.65625 0.09375q-0.34375 0.078125 -0.578125 0.21875l-0.25 -0.609375zm2.3125 2.59375q-0.109375 -0.015625 -0.21875 -0.015625q-0.109375 -0.015625 -0.203125 -0.015625q-0.265625 0 -0.515625 0.046875q-0.234375 0.046875 -0.4375 0.15625q-0.1875 0.09375 -0.296875 0.28125q-0.109375 0.171875 -0.109375 0.453125q0 0.421875 0.203125 0.65625q0.21875 0.234375 0.546875 0.234375q0.4375 0 0.6875 -0.203125q0.25 -0.21875 0.34375 -0.46875l0 -1.125z" fill-rule="nonzero"/></g></svg>