<svg version="1.1" viewBox="0.0 0.0 352.75853018372703 265.61942257217845" fill="none" stroke="none" stroke-linecap="square" stroke-miterlimit="10" xmlns:xlink="http://www.w3.org/1999/xlink" xmlns="http://www.w3.org/2000/svg"><clipPath id="p.0"><path d="m0 0l352.75854 0l0 265.61942l-352.75854 0l0 -265.61942z" clip-rule="nonzero"/></clipPath><g clip-path="url(#p.0)"><path fill="#000000" fill-opacity="0.0" d="m0 0l352.75854 0l0 265.61942l-352.75854 0z" fill-rule="evenodd"/><path fill="#b4a7d6" d="m186.37796 14.196851l106.86612 0l0 74.70866l-106.86612 0z" fill-rule="evenodd"/><path stroke="#20124d" stroke-width="1.0" stroke-linejoin="round" stroke-linecap="butt" d="m186.37796 14.196851l106.86612 0l0 74.70866l-106.86612 0z" fill-rule="evenodd"/><path fill="#20124d" d="m197.72389 25.983725l3.3125 0l0 0.734375l-2.515625 0l0 2.625l2.34375 0l0 0.734375l-2.34375 0l0 3.359377l-0.796875 0l0 -7.453127zm4.1042023 4.78125q0 -1.4375 0.5 -2.109375q0.5 -0.671875 1.40625 -0.671875q0.984375 0 1.4375 0.6875q0.46875 0.6875 0.46875 2.09375q0 1.4531269 -0.5 2.125002q-0.5 0.671875 -1.40625 0.671875q-0.96875 0 -1.4375 -0.6875q-0.46875 -0.6875 -0.46875 -2.109377zm0.796875 0q0 0.484375 0.0625 0.875q0.0625 0.3750019 0.1875 0.6562519q0.140625 0.265625 0.34375 0.421875q0.21875 0.15625 0.515625 0.15625q0.5625 0 0.828125 -0.5q0.28125 -0.5000019 0.28125 -1.6093769q0 -0.453125 -0.0625 -0.84375q-0.046875 -0.390625 -0.1875 -0.65625q-0.125 -0.28125 -0.34375 -0.4375q-0.21875 -0.15625 -0.515625 -0.15625q-0.53125 0 -0.828125 0.5q-0.28125 0.5 -0.28125 1.59375zm7.400421 2.921877q0 1.03125 -0.46875 1.515625q-0.453125 0.5 -1.328125 0.5q-0.53125 0 -0.875 -0.09375q-0.328125 -0.09375 -0.546875 -0.21875l0.21875 -0.65625q0.21875 0.09375 0.46875 0.171875q0.265625 0.09375 0.640625 0.09375q0.640625 0 0.875 -0.359375q0.25 -0.359375 0.25 -1.21875l0 -0.390625l-0.03125 0q-0.171875 0.25 -0.4375 0.390625q-0.265625 0.140625 -0.6875 0.140625q-0.859375 0 -1.265625 -0.671875q-0.40625 -0.671875 -0.40625 -2.093752q0 -1.375 0.53125 -2.078125q0.53125 -0.703125 1.5625 -0.703125q0.5 0 0.859375 0.09375q0.359375 0.09375 0.640625 0.21875l0 5.359377zm-0.765625 -4.812502q-0.3125 -0.171875 -0.828125 -0.171875q-0.53125 0 -0.875 0.5q-0.328125 0.5 -0.328125 1.578125q0 0.453125 0.046875 0.828125q0.0625 0.375 0.1875 0.6562519q0.140625 0.28125 0.328125 0.4375q0.203125 0.15625 0.484375 0.15625q0.40625 0 0.640625 -0.203125q0.234375 -0.21875 0.34375 -0.640625l0 -3.140627zm1.9629211 -0.453125q0.3125 -0.1875 0.75 -0.28125q0.4375 -0.109375 0.9375 -0.109375q0.4375 0 0.703125 0.140625q0.28125 0.125 0.4375 0.359375q0.15625 0.21875 0.203125 0.515625q0.046875 0.28125 0.046875 0.609375q0 0.640625 -0.03125 1.25q-0.015625 0.609375 -0.015625 1.1406269q0 0.40625 0.015625 0.765625q0.03125 0.34375 0.109375 0.640625l-0.59375 0l-0.171875 -0.625l-0.046875 0q-0.15625 0.28125 -0.46875 0.484375q-0.3125 0.203125 -0.828125 0.203125q-0.578125 0 -0.953125 -0.390625q-0.359375 -0.40625 -0.359375 -1.109375q0 -0.4687519 0.15625 -0.7656269q0.15625 -0.3125 0.4375 -0.5q0.28125 -0.203125 0.65625 -0.28125q0.390625 -0.078125 0.875 -0.078125q0.109375 0 0.21875 0q0.109375 0 0.21875 0.015625q0.03125 -0.34375 0.03125 -0.59375q0 -0.609375 -0.1875 -0.84375q-0.171875 -0.25 -0.65625 -0.25q-0.296875 0 -0.65625 0.09375q-0.34375 0.078125 -0.578125 0.21875l-0.25 -0.609375zm2.3125 2.59375q-0.109375 -0.015625 -0.21875 -0.015625q-0.109375 -0.015625 -0.203125 -0.015625q-0.265625 0 -0.515625 0.046875q-0.234375 0.046875 -0.4375 0.15625q-0.1875 0.09375 -0.296875 0.28125q-0.109375 0.171875 -0.109375 0.453125q0 0.4218769 0.203125 0.6562519q0.21875 0.234375 0.546875 0.234375q0.4375 0 0.6875 -0.203125q0.25 -0.21875 0.34375 -0.46875l0 -1.1250019zm5.3562927 0.59375q0 0.5312519 0 0.9843769q0.015625 0.4375 0.09375 0.859375l-0.53125 0l-0.171875 -0.640625l-0.046875 0q-0.140625 0.328125 -0.46875 0.546875q-0.3125 0.203125 -0.765625 0.203125q-0.859375 0 -1.28125 -0.671875q-0.421875 -0.671875 -0.421875 -2.109377q0 -1.359375 0.515625 -2.0625q0.515625 -0.703125 1.421875 -0.703125q0.3125 0 0.484375 0.046875q0.1875 0.03125 0.40625 0.109375l0 -2.1875l0.765625 0l0 5.625zm-0.765625 -2.65625q-0.15625 -0.125 -0.34375 -0.1875q-0.171875 -0.0625 -0.484375 -0.0625q-0.5625 0 -0.890625 0.515625q-0.3125 0.515625 -0.3125 1.578125q0 0.46875 0.0625 0.84375q0.0625 0.3750019 0.1875 0.6562519q0.125 0.28125 0.3125 0.4375q0.203125 0.140625 0.484375 0.140625q0.765625 0 0.984375 -0.9062519l0 -3.015625zm1.7860718 1.8125q0 -1.4375 0.5 -2.109375q0.5 -0.671875 1.40625 -0.671875q0.984375 0 1.4375 0.6875q0.46875 0.6875 0.46875 2.09375q0 1.4531269 -0.5 2.125002q-0.5 0.671875 -1.40625 0.671875q-0.96875 0 -1.4375 -0.6875q-0.46875 -0.6875 -0.46875 -2.109377zm0.796875 0q0 0.484375 0.0625 0.875q0.0625 0.3750019 0.1875 0.6562519q0.140625 0.265625 0.34375 0.421875q0.21875 0.15625 0.515625 0.15625q0.5625 0 0.828125 -0.5q0.28125 -0.5000019 0.28125 -1.6093769q0 -0.453125 -0.0625 -0.84375q-0.046875 -0.390625 -0.1875 -0.65625q-0.125 -0.28125 -0.34375 -0.4375q-0.21875 -0.15625 -0.515625 -0.15625q-0.53125 0 -0.828125 0.5q-0.28125 0.5 -0.28125 1.59375zm0.953125 -5.0l0.828125 0l0 0.21875l-0.875 1.375l-0.453125 0l0.5 -1.59375zm5.3470764 2.34375l0.546875 0l0.125 0.578125l0.03125 0q0.390625 -0.703125 1.234375 -0.703125q0.84375 0 1.265625 0.625q0.421875 0.625 0.421875 2.0625q0 0.671875 -0.140625 1.21875q-0.140625 0.5312519 -0.390625 0.9062519q-0.25 0.375 -0.625 0.578125q-0.359375 0.1875 -0.8125 0.1875q-0.3125 0 -0.5 -0.046875q-0.171875 -0.03125 -0.390625 -0.140625l0 2.1875l-0.765625 0l0 -7.453127zm0.765625 4.484377q0.15625 0.125 0.34375 0.203125q0.1875 0.078125 0.5 0.078125q0.5625 0 0.890625 -0.578125q0.328125 -0.5781269 0.328125 -1.6406269q0 -0.453125 -0.0625 -0.8125q-0.0625 -0.359375 -0.1875 -0.609375q-0.125 -0.265625 -0.328125 -0.40625q-0.1875 -0.15625 -0.484375 -0.15625q-0.765625 0 -1.0 0.953125l0 2.968752zm4.5730133 -4.484377l0 3.265625q0 0.8125019 0.15625 1.1562519q0.171875 0.34375 0.609375 0.34375q0.21875 0 0.390625 -0.09375q0.1875 -0.09375 0.3125 -0.234375q0.140625 -0.15625 0.25 -0.34375q0.109375 -0.1875 0.171875 -0.3906269l0 -3.703125l0.765625 0l0 3.8125q0 0.3906269 0.015625 0.7968769q0.03125 0.40625 0.09375 0.71875l-0.546875 0l-0.1875 -0.75l-0.03125 0q-0.1875 0.359375 -0.53125 0.625q-0.328125 0.25 -0.84375 0.25q-0.34375 0 -0.609375 -0.09375q-0.25 -0.078125 -0.4375 -0.296875q-0.171875 -0.21875 -0.265625 -0.609375q-0.09375 -0.390625 -0.09375 -1.0000019l0 -3.453125l0.78125 0zm3.9217377 -2.125l0.765625 0l0 2.53125l0.03125 0q0.4375 -0.53125 1.171875 -0.53125q0.8125 0 1.21875 0.65625q0.421875 0.640625 0.421875 2.046875q0 1.4375019 -0.546875 2.140627q-0.546875 0.703125 -1.5625 0.703125q-0.484375 0 -0.890625 -0.109375q-0.40625 -0.109375 -0.609375 -0.265625l0 -7.171877zm0.765625 6.671877q0.15625 0.09375 0.375 0.140625q0.21875 0.046875 0.46875 0.046875q0.546875 0 0.875 -0.53125q0.328125 -0.5312519 0.328125 -1.6250019q0 -0.453125 -0.0625 -0.8125q-0.0625 -0.375 -0.1875 -0.640625q-0.125 -0.265625 -0.328125 -0.40625q-0.1875 -0.15625 -0.46875 -0.15625q-0.375 0 -0.625 0.234375q-0.25 0.21875 -0.375 0.625l0 3.125002zm4.6873627 -0.484375q0 0.375 0.09375 0.53125q0.109375 0.15625 0.28125 0.15625q0.234375 0 0.53125 -0.109375l0.0625 0.609375q-0.125 0.09375 -0.375 0.140625q-0.25 0.0625 -0.453125 0.0625q-0.40625 0 -0.65625 -0.25q-0.25 -0.265625 -0.25 -0.890625l0 -6.437502l0.765625 0l0 6.187502zm1.7798004 -4.062502l0.78125 0l0 5.328127l-0.78125 0l0 -5.328127zm-0.125 -1.625q0 -0.25 0.140625 -0.40625q0.140625 -0.15625 0.375 -0.15625q0.234375 0 0.390625 0.15625q0.15625 0.140625 0.15625 0.40625q0 0.265625 -0.15625 0.40625q-0.15625 0.140625 -0.390625 0.140625q-0.234375 0 -0.375 -0.140625q-0.140625 -0.15625 -0.140625 -0.40625zm3.4842987 4.5625l-0.40625 0l0 2.390627l-0.765625 0l0 -7.453127l0.765625 0l0 4.53125l0.359375 -0.140625l1.25 -2.265625l0.875 0l-1.25 2.15625l-0.375 0.34375l0.4375 0.40625l1.375 2.421877l-0.921875 0l-1.34375 -2.390627zm3.665924 -2.9375l0 3.265625q0 0.8125019 0.15625 1.1562519q0.171875 0.34375 0.609375 0.34375q0.21875 0 0.390625 -0.09375q0.1875 -0.09375 0.3125 -0.234375q0.140625 -0.15625 0.25 -0.34375q0.109375 -0.1875 0.171875 -0.3906269l0 -3.703125l0.765625 0l0 3.8125q0 0.3906269 0.015625 0.7968769q0.03125 0.40625 0.09375 0.71875l-0.546875 0l-0.1875 -0.75l-0.03125 0q-0.1875 0.359375 -0.53125 0.625q-0.328125 0.25 -0.84375 0.25q-0.34375 0 -0.609375 -0.09375q-0.25 -0.078125 -0.4375 -0.296875q-0.171875 -0.21875 -0.265625 -0.609375q-0.09375 -0.390625 -0.09375 -1.0000019l0 -3.453125l0.78125 0zm3.8436127 4.453127q0.203125 0.125 0.5 0.21875q0.296875 0.09375 0.609375 0.09375q0.34375 0 0.59375 -0.171875q0.25 -0.1875 0.25 -0.578125q0 -0.3281269 -0.15625 -0.5312519q-0.15625 -0.21875 -0.390625 -0.390625q-0.21875 -0.171875 -0.484375 -0.3125q-0.265625 -0.15625 -0.5 -0.34375q-0.21875 -0.203125 -0.375 -0.484375q-0.140625 -0.28125 -0.140625 -0.703125q0 -0.6875 0.359375 -1.03125q0.375 -0.34375 1.046875 -0.34375q0.4375 0 0.75 0.078125q0.328125 0.078125 0.5625 0.21875l-0.203125 0.640625q-0.203125 -0.109375 -0.46875 -0.171875q-0.265625 -0.078125 -0.546875 -0.078125q-0.390625 0 -0.5625 0.171875q-0.171875 0.15625 -0.171875 0.484375q0 0.265625 0.140625 0.453125q0.15625 0.1875 0.375 0.34375q0.234375 0.15625 0.5 0.328125q0.265625 0.15625 0.5 0.375q0.234375 0.21875 0.375 0.515625q0.15625 0.296875 0.15625 0.7656269q0 0.296875 -0.109375 0.5625q-0.09375 0.265625 -0.296875 0.46875q-0.1875 0.1875 -0.484375 0.296875q-0.28125 0.125 -0.6875 0.125q-0.46875 0 -0.8125 -0.09375q-0.328125 -0.078125 -0.5625 -0.234375l0.234375 -0.671875zm7.1109924 -1.5156269l-0.40625 0l0 2.390627l-0.765625 0l0 -7.453127l0.765625 0l0 4.53125l0.359375 -0.140625l1.25 -2.265625l0.875 0l-1.25 2.15625l-0.375 0.34375l0.4375 0.40625l1.375 2.421877l-0.921875 0l-1.34375 -2.390627zm3.665924 -2.9375l0 3.265625q0 0.8125019 0.15625 1.1562519q0.171875 0.34375 0.609375 0.34375q0.21875 0 0.390625 -0.09375q0.1875 -0.09375 0.3125 -0.234375q0.140625 -0.15625 0.25 -0.34375q0.109375 -0.1875 0.171875 -0.3906269l0 -3.703125l0.765625 0l0 3.8125q0 0.3906269 0.015625 0.7968769q0.03125 0.40625 0.09375 0.71875l-0.546875 0l-0.1875 -0.75l-0.03125 0q-0.1875 0.359375 -0.53125 0.625q-0.328125 0.25 -0.84375 0.25q-0.34375 0 -0.609375 -0.09375q-0.25 -0.078125 -0.4375 -0.296875q-0.171875 -0.21875 -0.265625 -0.609375q-0.09375 -0.390625 -0.09375 -1.0000019l0 -3.453125l0.78125 0zm4.749878 4.062502q0 0.375 0.09375 0.53125q0.109375 0.15625 0.28125 0.15625q0.234375 0 0.53125 -0.109375l0.0625 0.609375q-0.125 0.09375 -0.375 0.140625q-0.25 0.0625 -0.453125 0.0625q-0.40625 0 -0.65625 -0.25q-0.25 -0.265625 -0.25 -0.890625l0 -6.437502l0.765625 0l0 6.187502zm4.592285 1.0q-0.265625 0.203125 -0.609375 0.296875q-0.328125 0.09375 -0.703125 0.09375q-0.515625 0 -0.875 -0.1875q-0.34375 -0.203125 -0.5625 -0.5625q-0.21875 -0.375 -0.328125 -0.8906269q-0.09375 -0.515625 -0.09375 -1.15625q0 -1.359375 0.484375 -2.0625q0.484375 -0.71875 1.390625 -0.71875q0.421875 0 0.71875 0.078125q0.296875 0.0625 0.515625 0.1875l-0.21875 0.671875q-0.421875 -0.25 -0.921875 -0.25q-0.578125 0 -0.875 0.515625q-0.296875 0.5 -0.296875 1.578125q0 0.4375 0.0625 0.828125q0.078125 0.390625 0.21875 0.6718769q0.15625 0.28125 0.390625 0.453125q0.234375 0.15625 0.578125 0.15625q0.28125 0 0.515625 -0.09375q0.25 -0.09375 0.390625 -0.234375l0.21875 0.625zm0.77804565 -0.609375q0.203125 0.125 0.5 0.21875q0.296875 0.09375 0.609375 0.09375q0.34375 0 0.59375 -0.171875q0.25 -0.1875 0.25 -0.578125q0 -0.3281269 -0.15625 -0.5312519q-0.15625 -0.21875 -0.390625 -0.390625q-0.21875 -0.171875 -0.484375 -0.3125q-0.265625 -0.15625 -0.5 -0.34375q-0.21875 -0.203125 -0.375 -0.484375q-0.140625 -0.28125 -0.140625 -0.703125q0 -0.6875 0.359375 -1.03125q0.375 -0.34375 1.046875 -0.34375q0.4375 0 0.75 0.078125q0.328125 0.078125 0.5625 0.21875l-0.203125 0.640625q-0.203125 -0.109375 -0.46875 -0.171875q-0.265625 -0.078125 -0.546875 -0.078125q-0.390625 0 -0.5625 0.171875q-0.171875 0.15625 -0.171875 0.484375q0 0.265625 0.140625 0.453125q0.15625 0.1875 0.375 0.34375q0.234375 0.15625 0.5 0.328125q0.265625 0.15625 0.5 0.375q0.234375 0.21875 0.375 0.515625q0.15625 0.296875 0.15625 0.7656269q0 0.296875 -0.109375 0.5625q-0.09375 0.265625 -0.296875 0.46875q-0.1875 0.1875 -0.484375 0.296875q-0.28125 0.125 -0.6875 0.125q-0.46875 0 -0.8125 -0.09375q-0.328125 -0.078125 -0.5625 -0.234375l0.234375 -0.671875zm3.6331177 -4.140627q0.3125 -0.1875 0.75 -0.28125q0.4375 -0.109375 0.9375 -0.109375q0.4375 0 0.703125 0.140625q0.28125 0.125 0.4375 0.359375q0.15625 0.21875 0.203125 0.515625q0.046875 0.28125 0.046875 0.609375q0 0.640625 -0.03125 1.25q-0.015625 0.609375 -0.015625 1.1406269q0 0.40625 0.015625 0.765625q0.03125 0.34375 0.109375 0.640625l-0.59375 0l-0.171875 -0.625l-0.046875 0q-0.15625 0.28125 -0.46875 0.484375q-0.3125 0.203125 -0.828125 0.203125q-0.578125 0 -0.953125 -0.390625q-0.359375 -0.40625 -0.359375 -1.109375q0 -0.4687519 0.15625 -0.7656269q0.15625 -0.3125 0.4375 -0.5q0.28125 -0.203125 0.65625 -0.28125q0.390625 -0.078125 0.875 -0.078125q0.109375 0 0.21875 0q0.109375 0 0.21875 0.015625q0.03125 -0.34375 0.03125 -0.59375q0 -0.609375 -0.1875 -0.84375q-0.171875 -0.25 -0.65625 -0.25q-0.296875 0 -0.65625 0.09375q-0.34375 0.078125 -0.578125 0.21875l-0.25 -0.609375zm2.3125 2.59375q-0.109375 -0.015625 -0.21875 -0.015625q-0.109375 -0.015625 -0.203125 -0.015625q-0.265625 0 -0.515625 0.046875q-0.234375 0.046875 -0.4375 0.15625q-0.1875 0.09375 -0.296875 0.28125q-0.109375 0.171875 -0.109375 0.453125q0 0.4218769 0.203125 0.6562519q0.21875 0.234375 0.546875 0.234375q0.4375 0 0.6875 -0.203125q0.25 -0.21875 0.34375 -0.46875l0 -1.1250019z" fill-rule="nonzero"/><path fill="#d9d2e9" d="m189.29659 46.144356l100.598434 0l0 42.771652l-100.598434 0z" fill-rule="evenodd"/><path stroke="#20124d" stroke-width="1.0" stroke-linejoin="round" stroke-linecap="butt" d="m189.29659 46.144356l100.598434 0l0 42.771652l-100.598434 0z" fill-rule="evenodd"/><path fill="#20124d" d="m205.49625 58.665607l-1.828125 0l0 6.718746l-0.796875 0l0 -6.718746l-1.828125 0l0 -0.734375l4.453125 0l0 0.734375zm0.09214783 1.703125q0.3125 -0.1875 0.75 -0.28125q0.4375 -0.109375 0.9375 -0.109375q0.4375 0 0.703125 0.140625q0.28125 0.125 0.4375 0.359375q0.15625 0.21875 0.203125 0.515625q0.046875 0.28125 0.046875 0.609375q0 0.640625 -0.03125 1.25q-0.015625 0.609375 -0.015625 1.140625q0 0.4062462 0.015625 0.7656212q0.03125 0.34375 0.109375 0.640625l-0.59375 0l-0.171875 -0.625l-0.046875 0q-0.15625 0.28125 -0.46875 0.484375q-0.3125 0.203125 -0.828125 0.203125q-0.578125 0 -0.953125 -0.390625q-0.359375 -0.40625 -0.359375 -1.1093712q0 -0.46875 0.15625 -0.765625q0.15625 -0.3125 0.4375 -0.5q0.28125 -0.203125 0.65625 -0.28125q0.390625 -0.078125 0.875 -0.078125q0.109375 0 0.21875 0q0.109375 0 0.21875 0.015625q0.03125 -0.34375 0.03125 -0.59375q0 -0.609375 -0.1875 -0.84375q-0.171875 -0.25 -0.65625 -0.25q-0.296875 0 -0.65625 0.09375q-0.34375 0.078125 -0.578125 0.21875l-0.25 -0.609375zm2.3125 2.59375q-0.109375 -0.015625 -0.21875 -0.015625q-0.109375 -0.015625 -0.203125 -0.015625q-0.265625 0 -0.515625 0.046875q-0.234375 0.046875 -0.4375 0.15625q-0.1875 0.09375 -0.296875 0.28125q-0.109375 0.171875 -0.109375 0.453125q0 0.4218712 0.203125 0.6562462q0.21875 0.234375 0.546875 0.234375q0.4375 0 0.6875 -0.203125q0.25 -0.21875 0.34375 -0.46875l0 -1.1249962zm-0.75 -5.25l0.828125 0l0 0.21875l-0.875 1.375l-0.453125 0l0.5 -1.59375zm5.2469177 7.671871l0 -3.1718712q0 -0.421875 -0.03125 -0.71875q-0.03125 -0.3125 -0.109375 -0.5q-0.078125 -0.1875 -0.234375 -0.28125q-0.15625 -0.09375 -0.390625 -0.09375q-0.359375 0 -0.625 0.28125q-0.25 0.28125 -0.34375 0.640625l0 3.8437462l-0.765625 0l0 -5.328121l0.546875 0l0.140625 0.5625l0.03125 0q0.21875 -0.3125 0.53125 -0.5q0.3125 -0.1875 0.796875 -0.1875q0.390625 0 0.65625 0.171875q0.265625 0.171875 0.40625 0.625q0.203125 -0.375 0.546875 -0.578125q0.359375 -0.21875 0.796875 -0.21875q0.34375 0 0.59375 0.09375q0.25 0.078125 0.40625 0.3125q0.15625 0.234375 0.234375 0.609375q0.078125 0.375 0.078125 0.953125l0 3.4843712l-0.78125 0l0 -3.3906212q0 -0.6875 -0.140625 -1.03125q-0.125 -0.34375 -0.59375 -0.34375q-0.40625 0 -0.65625 0.25q-0.234375 0.25 -0.328125 0.671875l0 3.8437462l-0.765625 0zm4.3904114 -5.015621q0.3125 -0.1875 0.75 -0.28125q0.4375 -0.109375 0.9375 -0.109375q0.4375 0 0.703125 0.140625q0.28125 0.125 0.4375 0.359375q0.15625 0.21875 0.203125 0.515625q0.046875 0.28125 0.046875 0.609375q0 0.640625 -0.03125 1.25q-0.015625 0.609375 -0.015625 1.140625q0 0.4062462 0.015625 0.7656212q0.03125 0.34375 0.109375 0.640625l-0.59375 0l-0.171875 -0.625l-0.046875 0q-0.15625 0.28125 -0.46875 0.484375q-0.3125 0.203125 -0.828125 0.203125q-0.578125 0 -0.953125 -0.390625q-0.359375 -0.40625 -0.359375 -1.1093712q0 -0.46875 0.15625 -0.765625q0.15625 -0.3125 0.4375 -0.5q0.28125 -0.203125 0.65625 -0.28125q0.390625 -0.078125 0.875 -0.078125q0.109375 0 0.21875 0q0.109375 0 0.21875 0.015625q0.03125 -0.34375 0.03125 -0.59375q0 -0.609375 -0.1875 -0.84375q-0.171875 -0.25 -0.65625 -0.25q-0.296875 0 -0.65625 0.09375q-0.34375 0.078125 -0.578125 0.21875l-0.25 -0.609375zm2.3125 2.59375q-0.109375 -0.015625 -0.21875 -0.015625q-0.109375 -0.015625 -0.203125 -0.015625q-0.265625 0 -0.515625 0.046875q-0.234375 0.046875 -0.4375 0.15625q-0.1875 0.09375 -0.296875 0.28125q-0.109375 0.171875 -0.109375 0.453125q0 0.4218712 0.203125 0.6562462q0.21875 0.234375 0.546875 0.234375q0.4375 0 0.6875 -0.203125q0.25 -0.21875 0.34375 -0.46875l0 -1.1249962zm5.3562927 0.59375q0 0.5312462 0 0.9843712q0.015625 0.4375 0.09375 0.859375l-0.53125 0l-0.171875 -0.640625l-0.046875 0q-0.140625 0.328125 -0.46875 0.546875q-0.3125 0.203125 -0.765625 0.203125q-0.859375 0 -1.28125 -0.671875q-0.421875 -0.671875 -0.421875 -2.1093712q0 -1.359375 0.515625 -2.0625q0.515625 -0.703125 1.421875 -0.703125q0.3125 0 0.484375 0.046875q0.1875 0.03125 0.40625 0.109375l0 -2.1875l0.765625 0l0 5.625zm-0.765625 -2.65625q-0.15625 -0.125 -0.34375 -0.1875q-0.171875 -0.0625 -0.484375 -0.0625q-0.5625 0 -0.890625 0.515625q-0.3125 0.515625 -0.3125 1.578125q0 0.46875 0.0625 0.84375q0.0625 0.375 0.1875 0.6562462q0.125 0.28125 0.3125 0.4375q0.203125 0.140625 0.484375 0.140625q0.765625 0 0.984375 -0.9062462l0 -3.015625zm1.7860718 1.8125q0 -1.4375 0.5 -2.109375q0.5 -0.671875 1.40625 -0.671875q0.984375 0 1.4375 0.6875q0.46875 0.6875 0.46875 2.09375q0 1.4531212 -0.5 2.1249962q-0.5 0.671875 -1.40625 0.671875q-0.96875 0 -1.4375 -0.6875q-0.46875 -0.6875 -0.46875 -2.1093712zm0.796875 0q0 0.484375 0.0625 0.875q0.0625 0.375 0.1875 0.6562462q0.140625 0.265625 0.34375 0.421875q0.21875 0.15625 0.515625 0.15625q0.5625 0 0.828125 -0.5q0.28125 -0.4999962 0.28125 -1.6093712q0 -0.453125 -0.0625 -0.84375q-0.046875 -0.390625 -0.1875 -0.65625q-0.125 -0.28125 -0.34375 -0.4375q-0.21875 -0.15625 -0.515625 -0.15625q-0.53125 0 -0.828125 0.5q-0.28125 0.5 -0.28125 1.59375zm0.953125 -5.0l0.828125 0l0 0.21875l-0.875 1.375l-0.453125 0l0.5 -1.59375zm5.3470764 2.34375l0.546875 0l0.125 0.578125l0.03125 0q0.390625 -0.703125 1.234375 -0.703125q0.84375 0 1.265625 0.625q0.421875 0.625 0.421875 2.0625q0 0.671875 -0.140625 1.21875q-0.140625 0.5312462 -0.390625 0.9062462q-0.25 0.375 -0.625 0.578125q-0.359375 0.1875 -0.8125 0.1875q-0.3125 0 -0.5 -0.046875q-0.171875 -0.03125 -0.390625 -0.140625l0 2.1875l-0.765625 0l0 -7.453121zm0.765625 4.484371q0.15625 0.125 0.34375 0.203125q0.1875 0.078125 0.5 0.078125q0.5625 0 0.890625 -0.578125q0.328125 -0.5781212 0.328125 -1.6406212q0 -0.453125 -0.0625 -0.8125q-0.0625 -0.359375 -0.1875 -0.609375q-0.125 -0.265625 -0.328125 -0.40625q-0.1875 -0.15625 -0.484375 -0.15625q-0.765625 0 -1.0 0.953125l0 2.9687462zm3.8698883 -4.484371l0.546875 0l0.140625 0.5625l0.03125 0q0.140625 -0.3125 0.375 -0.484375q0.25 -0.171875 0.59375 -0.171875q0.25 0 0.546875 0.09375l-0.140625 0.78125q-0.28125 -0.09375 -0.484375 -0.09375q-0.34375 0 -0.5625 0.203125q-0.21875 0.1875 -0.28125 0.515625l0 3.9218712l-0.765625 0l0 -5.328121zm3.0448456 0l0.78125 0l0 5.328121l-0.78125 0l0 -5.328121zm-0.125 -1.625q0 -0.25 0.140625 -0.40625q0.140625 -0.15625 0.375 -0.15625q0.234375 0 0.390625 0.15625q0.15625 0.140625 0.15625 0.40625q0 0.265625 -0.15625 0.40625q-0.15625 0.140625 -0.390625 0.140625q-0.234375 0 -0.375 -0.140625q-0.140625 -0.15625 -0.140625 -0.40625zm3.6092987 4.75l0.203125 1.0468712l0.03125 0l0.1875 -1.0781212l0.9375 -3.09375l0.8125 0l-1.828125 5.453121l-0.375 0l-1.84375 -5.453121l0.875 0l1.0 3.125zm2.790924 -2.8125q0.3125 -0.1875 0.75 -0.28125q0.4375 -0.109375 0.9375 -0.109375q0.4375 0 0.703125 0.140625q0.28125 0.125 0.4375 0.359375q0.15625 0.21875 0.203125 0.515625q0.046875 0.28125 0.046875 0.609375q0 0.640625 -0.03125 1.25q-0.015625 0.609375 -0.015625 1.140625q0 0.4062462 0.015625 0.7656212q0.03125 0.34375 0.109375 0.640625l-0.59375 0l-0.171875 -0.625l-0.046875 0q-0.15625 0.28125 -0.46875 0.484375q-0.3125 0.203125 -0.828125 0.203125q-0.578125 0 -0.953125 -0.390625q-0.359375 -0.40625 -0.359375 -1.1093712q0 -0.46875 0.15625 -0.765625q0.15625 -0.3125 0.4375 -0.5q0.28125 -0.203125 0.65625 -0.28125q0.390625 -0.078125 0.875 -0.078125q0.109375 0 0.21875 0q0.109375 0 0.21875 0.015625q0.03125 -0.34375 0.03125 -0.59375q0 -0.609375 -0.1875 -0.84375q-0.171875 -0.25 -0.65625 -0.25q-0.296875 0 -0.65625 0.09375q-0.34375 0.078125 -0.578125 0.21875l-0.25 -0.609375zm2.3125 2.59375q-0.109375 -0.015625 -0.21875 -0.015625q-0.109375 -0.015625 -0.203125 -0.015625q-0.265625 0 -0.515625 0.046875q-0.234375 0.046875 -0.4375 0.15625q-0.1875 0.09375 -0.296875 0.28125q-0.109375 0.171875 -0.109375 0.453125q0 0.4218712 0.203125 0.6562462q0.21875 0.234375 0.546875 0.234375q0.4375 0 0.6875 -0.203125q0.25 -0.21875 0.34375 -0.46875l0 -1.1249962zm-0.75 -5.25l0.828125 0l0 0.21875l-0.875 1.375l-0.453125 0l0.5 -1.59375zm2.2156677 2.34375l0.65625 0l0 -1.0625l0.765625 -0.234375l0 1.296875l1.15625 0l0 0.6875l-1.15625 0l0 3.1875q0 0.4687462 0.109375 0.6718712q0.109375 0.203125 0.375 0.203125q0.203125 0 0.359375 -0.046875q0.15625 -0.046875 0.34375 -0.125l0.140625 0.609375q-0.234375 0.125 -0.515625 0.1875q-0.28125 0.078125 -0.59375 0.078125q-0.53125 0 -0.765625 -0.34375q-0.21875 -0.359375 -0.21875 -1.140625l0 -3.2812462l-0.65625 0l0 -0.6875zm6.8927917 2.9375l-0.40625 0l0 2.3906212l-0.765625 0l0 -7.453121l0.765625 0l0 4.53125l0.359375 -0.140625l1.25 -2.265625l0.875 0l-1.25 2.15625l-0.375 0.34375l0.4375 0.40625l1.375 2.4218712l-0.921875 0l-1.34375 -2.3906212zm3.665924 -2.9375l0 3.265625q0 0.8124962 0.15625 1.1562462q0.171875 0.34375 0.609375 0.34375q0.21875 0 0.390625 -0.09375q0.1875 -0.09375 0.3125 -0.234375q0.140625 -0.15625 0.25 -0.34375q0.109375 -0.18749619 0.171875 -0.3906212l0 -3.703125l0.765625 0l0 3.8125q0 0.3906212 0.015625 0.7968712q0.03125 0.40625 0.09375 0.71875l-0.546875 0l-0.1875 -0.75l-0.03125 0q-0.1875 0.359375 -0.53125 0.625q-0.328125 0.25 -0.84375 0.25q-0.34375 0 -0.609375 -0.09375q-0.25 -0.078125 -0.4375 -0.296875q-0.171875 -0.21875 -0.265625 -0.609375q-0.09375 -0.390625 -0.09375 -0.9999962l0 -3.453125l0.78125 0zm4.7498474 4.062496q0 0.375 0.09375 0.53125q0.109375 0.15625 0.28125 0.15625q0.234375 0 0.53125 -0.109375l0.0625 0.609375q-0.125 0.09375 -0.375 0.140625q-0.25 0.0625 -0.453125 0.0625q-0.40625 0 -0.65625 -0.25q-0.25 -0.265625 -0.25 -0.890625l0 -6.437496l0.765625 0l0 6.187496zm4.5923157 1.0q-0.265625 0.203125 -0.609375 0.296875q-0.328125 0.09375 -0.703125 0.09375q-0.515625 0 -0.875 -0.1875q-0.34375 -0.203125 -0.5625 -0.5625q-0.21875 -0.375 -0.328125 -0.8906212q-0.09375 -0.515625 -0.09375 -1.15625q0 -1.359375 0.484375 -2.0625q0.484375 -0.71875 1.390625 -0.71875q0.421875 0 0.71875 0.078125q0.296875 0.0625 0.515625 0.1875l-0.21875 0.671875q-0.421875 -0.25 -0.921875 -0.25q-0.578125 0 -0.875 0.515625q-0.296875 0.5 -0.296875 1.578125q0 0.4375 0.0625 0.828125q0.078125 0.390625 0.21875 0.6718712q0.15625 0.28125 0.390625 0.453125q0.234375 0.15625 0.578125 0.15625q0.28125 0 0.515625 -0.09375q0.25 -0.09375 0.390625 -0.234375l0.21875 0.625zm0.77804565 -0.609375q0.203125 0.125 0.5 0.21875q0.296875 0.09375 0.609375 0.09375q0.34375 0 0.59375 -0.171875q0.25 -0.1875 0.25 -0.578125q0 -0.3281212 -0.15625 -0.5312462q-0.15625 -0.21875 -0.390625 -0.390625q-0.21875 -0.171875 -0.484375 -0.3125q-0.265625 -0.15625 -0.5 -0.34375q-0.21875 -0.203125 -0.375 -0.484375q-0.140625 -0.28125 -0.140625 -0.703125q0 -0.6875 0.359375 -1.03125q0.375 -0.34375 1.046875 -0.34375q0.4375 0 0.75 0.078125q0.328125 0.078125 0.5625 0.21875l-0.203125 0.640625q-0.203125 -0.109375 -0.46875 -0.171875q-0.265625 -0.078125 -0.546875 -0.078125q-0.390625 0 -0.5625 0.171875q-0.171875 0.15625 -0.171875 0.484375q0 0.265625 0.140625 0.453125q0.15625 0.1875 0.375 0.34375q0.234375 0.15625 0.5 0.328125q0.265625 0.15625 0.5 0.375q0.234375 0.21875 0.375 0.515625q0.15625 0.296875 0.15625 0.7656212q0 0.296875 -0.109375 0.5625q-0.09375 0.265625 -0.296875 0.46875q-0.1875 0.1875 -0.484375 0.296875q-0.28125 0.125 -0.6875 0.125q-0.46875 0 -0.8125 -0.09375q-0.328125 -0.078125 -0.5625 -0.234375l0.234375 -0.671875zm3.6330872 -4.140621q0.3125 -0.1875 0.75 -0.28125q0.4375 -0.109375 0.9375 -0.109375q0.4375 0 0.703125 0.140625q0.28125 0.125 0.4375 0.359375q0.15625 0.21875 0.203125 0.515625q0.046875 0.28125 0.046875 0.609375q0 0.640625 -0.03125 1.25q-0.015625 0.609375 -0.015625 1.140625q0 0.4062462 0.015625 0.7656212q0.03125 0.34375 0.109375 0.640625l-0.59375 0l-0.171875 -0.625l-0.046875 0q-0.15625 0.28125 -0.46875 0.484375q-0.3125 0.203125 -0.828125 0.203125q-0.578125 0 -0.953125 -0.390625q-0.359375 -0.40625 -0.359375 -1.1093712q0 -0.46875 0.15625 -0.765625q0.15625 -0.3125 0.4375 -0.5q0.28125 -0.203125 0.65625 -0.28125q0.390625 -0.078125 0.875 -0.078125q0.109375 0 0.21875 0q0.109375 0 0.21875 0.015625q0.03125 -0.34375 0.03125 -0.59375q0 -0.609375 -0.1875 -0.84375q-0.171875 -0.25 -0.65625 -0.25q-0.296875 0 -0.65625 0.09375q-0.34375 0.078125 -0.578125 0.21875l-0.25 -0.609375zm2.3125 2.59375q-0.109375 -0.015625 -0.21875 -0.015625q-0.109375 -0.015625 -0.203125 -0.015625q-0.265625 0 -0.515625 0.046875q-0.234375 0.046875 -0.4375 0.15625q-0.1875 0.09375 -0.296875 0.28125q-0.109375 0.171875 -0.109375 0.453125q0 0.4218712 0.203125 0.6562462q0.21875 0.234375 0.546875 0.234375q0.4375 0 0.6875 -0.203125q0.25 -0.21875 0.34375 -0.46875l0 -1.1249962z" fill-rule="nonzero"/><path fill="#f3f3f3" d="m211.92389 69.49606l55.118103 0l0 16.44094l-55.118103 0z" fill-rule="evenodd"/><path stroke="#434343" stroke-width="1.0" stroke-linejoin="round" stroke-linecap="butt" d="m211.92389 69.49606l55.118103 0l0 16.44094l-55.118103 0z" fill-rule="evenodd"/><path fill="#434343" d="m230.75679 74.00341l0.765625 0l0 4.984375q0 1.359375 -0.53125 1.96875q-0.53125 0.59375 -1.5 0.59375q-1.125 0 -1.640625 -0.578125q-0.515625 -0.59375 -0.515625 -1.8125l0 -5.15625l0.796875 0l0 4.75q0 0.578125 0.0625 0.96875q0.078125 0.390625 0.25 0.640625q0.171875 0.234375 0.421875 0.34375q0.265625 0.109375 0.640625 0.109375q0.703125 0 0.96875 -0.484375q0.28125 -0.5 0.28125 -1.578125l0 -4.75zm-2.46875 -1.015625q0 -0.21875 0.125 -0.359375q0.140625 -0.140625 0.375 -0.140625q0.21875 0 0.34375 0.140625q0.140625 0.140625 0.140625 0.359375q0 0.234375 -0.140625 0.375q-0.125 0.125 -0.34375 0.125q-0.234375 0 -0.375 -0.125q-0.125 -0.140625 -0.125 -0.375zm1.6875 0q0 -0.21875 0.125 -0.359375q0.140625 -0.140625 0.359375 -0.140625q0.234375 0 0.359375 0.140625q0.140625 0.140625 0.140625 0.359375q0 0.234375 -0.140625 0.375q-0.125 0.125 -0.359375 0.125q-0.21875 0 -0.359375 -0.125q-0.125 -0.140625 -0.125 -0.375zm2.5675812 7.78125l1.984375 -3.484375l0.375 -0.46875l-2.359375 0l0 -0.6875l3.109375 0l0 0.6875l-2.0 3.515625l-0.359375 0.4375l2.359375 0l0 0.6875l-3.109375 0l0 -0.6875zm7.1770325 0.328125q-0.25 0.234375 -0.65625 0.359375q-0.390625 0.125 -0.828125 0.125q-0.5 0 -0.875 -0.1875q-0.359375 -0.203125 -0.59375 -0.5625q-0.234375 -0.375 -0.359375 -0.890625q-0.109375 -0.515625 -0.109375 -1.15625q0 -1.359375 0.5 -2.0625q0.5 -0.71875 1.421875 -0.71875q0.296875 0 0.59375 0.078125q0.296875 0.0625 0.53125 0.296875q0.234375 0.21875 0.375 0.625q0.140625 0.40625 0.140625 1.046875q0 0.1875 -0.015625 0.40625q-0.015625 0.203125 -0.03125 0.421875l-2.71875 0q0 0.453125 0.078125 0.828125q0.078125 0.375 0.234375 0.640625q0.15625 0.25 0.40625 0.40625q0.25 0.140625 0.625 0.140625q0.296875 0 0.578125 -0.109375q0.28125 -0.109375 0.421875 -0.25l0.28125 0.5625zm-0.59375 -2.859375q0.015625 -0.796875 -0.234375 -1.171875q-0.234375 -0.375 -0.65625 -0.375q-0.5 0 -0.796875 0.375q-0.28125 0.375 -0.328125 1.171875l2.015625 0zm4.5417023 3.21875l0 -3.25q0 -0.796875 -0.1875 -1.15625q-0.1875 -0.359375 -0.671875 -0.359375q-0.421875 0 -0.703125 0.265625q-0.265625 0.25 -0.40625 0.625l0 3.875l-0.765625 0l0 -5.328125l0.5625 0l0.140625 0.5625l0.03125 0q0.203125 -0.28125 0.546875 -0.484375q0.34375 -0.203125 0.828125 -0.203125q0.328125 0 0.59375 0.09375q0.265625 0.09375 0.4375 0.328125q0.171875 0.21875 0.265625 0.609375q0.09375 0.390625 0.09375 0.96875l0 3.453125l-0.765625 0zm5.1312714 -0.359375q-0.25 0.234375 -0.65625 0.359375q-0.390625 0.125 -0.828125 0.125q-0.5 0 -0.875 -0.1875q-0.359375 -0.203125 -0.59375 -0.5625q-0.234375 -0.375 -0.359375 -0.890625q-0.109375 -0.515625 -0.109375 -1.15625q0 -1.359375 0.5 -2.0625q0.5 -0.71875 1.421875 -0.71875q0.296875 0 0.59375 0.078125q0.296875 0.0625 0.53125 0.296875q0.234375 0.21875 0.375 0.625q0.140625 0.40625 0.140625 1.046875q0 0.1875 -0.015625 0.40625q-0.015625 0.203125 -0.03125 0.421875l-2.71875 0q0 0.453125 0.078125 0.828125q0.078125 0.375 0.234375 0.640625q0.15625 0.25 0.40625 0.40625q0.25 0.140625 0.625 0.140625q0.296875 0 0.578125 -0.109375q0.28125 -0.109375 0.421875 -0.25l0.28125 0.5625zm-0.59375 -2.859375q0.015625 -0.796875 -0.234375 -1.171875q-0.234375 -0.375 -0.65625 -0.375q-0.5 0 -0.796875 0.375q-0.28125 0.375 -0.328125 1.171875l2.015625 0zm1.2760773 -2.109375l0.65625 0l0 -1.0625l0.765625 -0.234375l0 1.296875l1.15625 0l0 0.6875l-1.15625 0l0 3.1875q0 0.46875 0.109375 0.671875q0.109375 0.203125 0.375 0.203125q0.203125 0 0.359375 -0.046875q0.15625 -0.046875 0.34375 -0.125l0.140625 0.609375q-0.234375 0.125 -0.515625 0.1875q-0.28125 0.078125 -0.59375 0.078125q-0.53125 0 -0.765625 -0.34375q-0.21875 -0.359375 -0.21875 -1.140625l0 -3.28125l-0.65625 0l0 -0.6875z" fill-rule="nonzero"/><path fill="#b4a7d6" d="m70.191605 14.2021l106.866135 0l0 74.70866l-106.866135 0z" fill-rule="evenodd"/><path stroke="#20124d" stroke-width="1.0" stroke-linejoin="round" stroke-linecap="butt" d="m70.191605 14.2021l106.866135 0l0 74.70866l-106.866135 0z" fill-rule="evenodd"/><path fill="#20124d" d="m84.60188 26.723349l-1.828125 0l0 6.718752l-0.796875 0l0 -6.718752l-1.828125 0l0 -0.734375l4.453125 0l0 0.734375zm0.09214783 1.703125q0.3125 -0.1875 0.75 -0.28125q0.4375 -0.109375 0.9375 -0.109375q0.4375 0 0.703125 0.140625q0.28125 0.125 0.4375 0.359375q0.15625 0.21875 0.203125 0.515625q0.046875 0.28125 0.046875 0.609375q0 0.640625 -0.03125 1.25q-0.015625 0.609375 -0.015625 1.1406269q0 0.40625 0.015625 0.765625q0.03125 0.34375 0.109375 0.640625l-0.59375 0l-0.171875 -0.625l-0.046875 0q-0.15625 0.28125 -0.46875 0.484375q-0.3125 0.203125 -0.828125 0.203125q-0.578125 0 -0.953125 -0.390625q-0.359375 -0.40625 -0.359375 -1.109375q0 -0.4687519 0.15625 -0.7656269q0.15625 -0.3125 0.4375 -0.5q0.28125 -0.203125 0.65625 -0.28125q0.390625 -0.078125 0.875 -0.078125q0.109375 0 0.21875 0q0.109375 0 0.21875 0.015625q0.03125 -0.34375 0.03125 -0.59375q0 -0.609375 -0.1875 -0.84375q-0.171875 -0.25 -0.65625 -0.25q-0.296875 0 -0.65625 0.09375q-0.34375 0.078125 -0.578125 0.21875l-0.25 -0.609375zm2.3125 2.59375q-0.109375 -0.015625 -0.21875 -0.015625q-0.109375 -0.015625 -0.203125 -0.015625q-0.265625 0 -0.515625 0.046875q-0.234375 0.046875 -0.4375 0.15625q-0.1875 0.09375 -0.296875 0.28125q-0.109375 0.171875 -0.109375 0.453125q0 0.4218769 0.203125 0.6562519q0.21875 0.234375 0.546875 0.234375q0.4375 0 0.6875 -0.203125q0.25 -0.21875 0.34375 -0.46875l0 -1.1250019zm-0.75 -5.25l0.828125 0l0 0.21875l-0.875 1.375l-0.453125 0l0.5 -1.59375zm5.2469177 7.671877l0 -3.171877q0 -0.421875 -0.03125 -0.71875q-0.03125 -0.3125 -0.109375 -0.5q-0.078125 -0.1875 -0.234375 -0.28125q-0.15625 -0.09375 -0.390625 -0.09375q-0.359375 0 -0.625 0.28125q-0.25 0.28125 -0.34375 0.640625l0 3.843752l-0.765625 0l0 -5.328127l0.546875 0l0.140625 0.5625l0.03125 0q0.21875 -0.3125 0.53125 -0.5q0.3125 -0.1875 0.796875 -0.1875q0.390625 0 0.65625 0.171875q0.265625 0.171875 0.40625 0.625q0.203125 -0.375 0.546875 -0.578125q0.359375 -0.21875 0.796875 -0.21875q0.34375 0 0.59375 0.09375q0.25 0.078125 0.40625 0.3125q0.15625 0.234375 0.234375 0.609375q0.078125 0.375 0.078125 0.953125l0 3.484377l-0.78125 0l0 -3.390627q0 -0.6875 -0.140625 -1.03125q-0.125 -0.34375 -0.59375 -0.34375q-0.40625 0 -0.65625 0.25q-0.234375 0.25 -0.328125 0.671875l0 3.843752l-0.765625 0zm4.3904114 -5.015627q0.3125 -0.1875 0.75 -0.28125q0.4375 -0.109375 0.9375 -0.109375q0.4375 0 0.703125 0.140625q0.28125 0.125 0.4375 0.359375q0.15625 0.21875 0.203125 0.515625q0.046875 0.28125 0.046875 0.609375q0 0.640625 -0.03125 1.25q-0.015625 0.609375 -0.015625 1.1406269q0 0.40625 0.015625 0.765625q0.03125 0.34375 0.109375 0.640625l-0.59375 0l-0.171875 -0.625l-0.046875 0q-0.15625 0.28125 -0.46875 0.484375q-0.3125 0.203125 -0.828125 0.203125q-0.578125 0 -0.953125 -0.390625q-0.359375 -0.40625 -0.359375 -1.109375q0 -0.4687519 0.15625 -0.7656269q0.15625 -0.3125 0.4375 -0.5q0.28125 -0.203125 0.65625 -0.28125q0.390625 -0.078125 0.875 -0.078125q0.109375 0 0.21875 0q0.109375 0 0.21875 0.015625q0.03125 -0.34375 0.03125 -0.59375q0 -0.609375 -0.1875 -0.84375q-0.171875 -0.25 -0.65625 -0.25q-0.296875 0 -0.65625 0.09375q-0.34375 0.078125 -0.578125 0.21875l-0.25 -0.609375zm2.3125 2.59375q-0.109375 -0.015625 -0.21875 -0.015625q-0.109375 -0.015625 -0.203125 -0.015625q-0.265625 0 -0.515625 0.046875q-0.234375 0.046875 -0.4375 0.15625q-0.1875 0.09375 -0.296875 0.28125q-0.109375 0.171875 -0.109375 0.453125q0 0.4218769 0.203125 0.6562519q0.21875 0.234375 0.546875 0.234375q0.4375 0 0.6875 -0.203125q0.25 -0.21875 0.34375 -0.46875l0 -1.1250019zm5.3562927 0.59375q0 0.5312519 0 0.9843769q0.015625 0.4375 0.09375 0.859375l-0.53125 0l-0.171875 -0.640625l-0.046875 0q-0.140625 0.328125 -0.46875 0.546875q-0.3125 0.203125 -0.765625 0.203125q-0.859375 0 -1.28125 -0.671875q-0.421875 -0.671875 -0.421875 -2.109377q0 -1.359375 0.515625 -2.0625q0.515625 -0.703125 1.421875 -0.703125q0.3125 0 0.484375 0.046875q0.1875 0.03125 0.40625 0.109375l0 -2.1875l0.765625 0l0 5.625zm-0.765625 -2.65625q-0.15625 -0.125 -0.34375 -0.1875q-0.171875 -0.0625 -0.484375 -0.0625q-0.5625 0 -0.890625 0.515625q-0.3125 0.515625 -0.3125 1.578125q0 0.46875 0.0625 0.84375q0.0625 0.3750019 0.1875 0.6562519q0.125 0.28125 0.3125 0.4375q0.203125 0.140625 0.484375 0.140625q0.765625 0 0.984375 -0.9062519l0 -3.015625zm1.7860718 1.8125q0 -1.4375 0.5 -2.109375q0.5 -0.671875 1.40625 -0.671875q0.984375 0 1.4375 0.6875q0.46875 0.6875 0.46875 2.09375q0 1.4531269 -0.5 2.125002q-0.5 0.671875 -1.40625 0.671875q-0.96875 0 -1.4375 -0.6875q-0.46875 -0.6875 -0.46875 -2.109377zm0.796875 0q0 0.484375 0.0625 0.875q0.0625 0.3750019 0.1875 0.6562519q0.140625 0.265625 0.34375 0.421875q0.21875 0.15625 0.515625 0.15625q0.5625 0 0.828125 -0.5q0.28125 -0.5000019 0.28125 -1.6093769q0 -0.453125 -0.0625 -0.84375q-0.046875 -0.390625 -0.1875 -0.65625q-0.125 -0.28125 -0.34375 -0.4375q-0.21875 -0.15625 -0.515625 -0.15625q-0.53125 0 -0.828125 0.5q-0.28125 0.5 -0.28125 1.59375zm0.953125 -5.0l0.828125 0l0 0.21875l-0.875 1.375l-0.453125 0l0.5 -1.59375zm5.3470764 2.34375l0.546875 0l0.125 0.578125l0.03125 0q0.390625 -0.703125 1.234375 -0.703125q0.84375 0 1.265625 0.625q0.421875 0.625 0.421875 2.0625q0 0.671875 -0.140625 1.21875q-0.140625 0.5312519 -0.390625 0.9062519q-0.25 0.375 -0.625 0.578125q-0.359375 0.1875 -0.8125 0.1875q-0.3125 0 -0.5 -0.046875q-0.171875 -0.03125 -0.390625 -0.140625l0 2.1875l-0.765625 0l0 -7.453127zm0.765625 4.484377q0.15625 0.125 0.34375 0.203125q0.1875 0.078125 0.5 0.078125q0.5625 0 0.890625 -0.578125q0.328125 -0.5781269 0.328125 -1.6406269q0 -0.453125 -0.0625 -0.8125q-0.0625 -0.359375 -0.1875 -0.609375q-0.125 -0.265625 -0.328125 -0.40625q-0.1875 -0.15625 -0.484375 -0.15625q-0.765625 0 -1.0 0.953125l0 2.968752zm4.5730133 -4.484377l0 3.265625q0 0.8125019 0.15625 1.1562519q0.171875 0.34375 0.609375 0.34375q0.21875 0 0.390625 -0.09375q0.1875 -0.09375 0.3125 -0.234375q0.140625 -0.15625 0.25 -0.34375q0.109375 -0.1875 0.171875 -0.3906269l0 -3.703125l0.765625 0l0 3.8125q0 0.3906269 0.015625 0.7968769q0.03125 0.40625 0.09375 0.71875l-0.546875 0l-0.1875 -0.75l-0.03125 0q-0.1875 0.359375 -0.53125 0.625q-0.328125 0.25 -0.84375 0.25q-0.34375 0 -0.609375 -0.09375q-0.25 -0.078125 -0.4375 -0.296875q-0.171875 -0.21875 -0.265625 -0.609375q-0.09375 -0.390625 -0.09375 -1.0000019l0 -3.453125l0.78125 0zm3.9217377 -2.125l0.765625 0l0 2.53125l0.03125 0q0.4375 -0.53125 1.171875 -0.53125q0.8125 0 1.21875 0.65625q0.421875 0.640625 0.421875 2.046875q0 1.4375019 -0.546875 2.140627q-0.546875 0.703125 -1.5625 0.703125q-0.484375 0 -0.890625 -0.109375q-0.40625 -0.109375 -0.609375 -0.265625l0 -7.171877zm0.765625 6.671877q0.15625 0.09375 0.375 0.140625q0.21875 0.046875 0.46875 0.046875q0.546875 0 0.875 -0.53125q0.328125 -0.5312519 0.328125 -1.6250019q0 -0.453125 -0.0625 -0.8125q-0.0625 -0.375 -0.1875 -0.640625q-0.125 -0.265625 -0.328125 -0.40625q-0.1875 -0.15625 -0.46875 -0.15625q-0.375 0 -0.625 0.234375q-0.25 0.21875 -0.375 0.625l0 3.125002zm4.6873627 -0.484375q0 0.375 0.09375 0.53125q0.109375 0.15625 0.28125 0.15625q0.234375 0 0.53125 -0.109375l0.0625 0.609375q-0.125 0.09375 -0.375 0.140625q-0.25 0.0625 -0.453125 0.0625q-0.40625 0 -0.65625 -0.25q-0.25 -0.265625 -0.25 -0.890625l0 -6.437502l0.765625 0l0 6.187502zm1.7798004 -4.062502l0.78125 0l0 5.328127l-0.78125 0l0 -5.328127zm-0.125 -1.625q0 -0.25 0.140625 -0.40625q0.140625 -0.15625 0.375 -0.15625q0.234375 0 0.390625 0.15625q0.15625 0.140625 0.15625 0.40625q0 0.265625 -0.15625 0.40625q-0.15625 0.140625 -0.390625 0.140625q-0.234375 0 -0.375 -0.140625q-0.140625 -0.15625 -0.140625 -0.40625zm3.4842987 4.5625l-0.40625 0l0 2.390627l-0.765625 0l0 -7.453127l0.765625 0l0 4.53125l0.359375 -0.140625l1.25 -2.265625l0.875 0l-1.25 2.15625l-0.375 0.34375l0.4375 0.40625l1.375 2.421877l-0.921875 0l-1.34375 -2.390627zm3.665924 -2.9375l0 3.265625q0 0.8125019 0.15625 1.1562519q0.171875 0.34375 0.609375 0.34375q0.21875 0 0.390625 -0.09375q0.1875 -0.09375 0.3125 -0.234375q0.140625 -0.15625 0.25 -0.34375q0.109375 -0.1875 0.171875 -0.3906269l0 -3.703125l0.765625 0l0 3.8125q0 0.3906269 0.015625 0.7968769q0.03125 0.40625 0.09375 0.71875l-0.546875 0l-0.1875 -0.75l-0.03125 0q-0.1875 0.359375 -0.53125 0.625q-0.328125 0.25 -0.84375 0.25q-0.34375 0 -0.609375 -0.09375q-0.25 -0.078125 -0.4375 -0.296875q-0.171875 -0.21875 -0.265625 -0.609375q-0.09375 -0.390625 -0.09375 -1.0000019l0 -3.453125l0.78125 0zm3.8436127 4.453127q0.203125 0.125 0.5 0.21875q0.296875 0.09375 0.609375 0.09375q0.34375 0 0.59375 -0.171875q0.25 -0.1875 0.25 -0.578125q0 -0.3281269 -0.15625 -0.5312519q-0.15625 -0.21875 -0.390625 -0.390625q-0.21875 -0.171875 -0.484375 -0.3125q-0.265625 -0.15625 -0.5 -0.34375q-0.21875 -0.203125 -0.375 -0.484375q-0.140625 -0.28125 -0.140625 -0.703125q0 -0.6875 0.359375 -1.03125q0.375 -0.34375 1.046875 -0.34375q0.4375 0 0.75 0.078125q0.328125 0.078125 0.5625 0.21875l-0.203125 0.640625q-0.203125 -0.109375 -0.46875 -0.171875q-0.265625 -0.078125 -0.546875 -0.078125q-0.390625 0 -0.5625 0.171875q-0.171875 0.15625 -0.171875 0.484375q0 0.265625 0.140625 0.453125q0.15625 0.1875 0.375 0.34375q0.234375 0.15625 0.5 0.328125q0.265625 0.15625 0.5 0.375q0.234375 0.21875 0.375 0.515625q0.15625 0.296875 0.15625 0.7656269q0 0.296875 -0.109375 0.5625q-0.09375 0.265625 -0.296875 0.46875q-0.1875 0.1875 -0.484375 0.296875q-0.28125 0.125 -0.6875 0.125q-0.46875 0 -0.8125 -0.09375q-0.328125 -0.078125 -0.5625 -0.234375l0.234375 -0.671875zm7.1110077 -1.5156269l-0.40625 0l0 2.390627l-0.765625 0l0 -7.453127l0.765625 0l0 4.53125l0.359375 -0.140625l1.25 -2.265625l0.875 0l-1.25 2.15625l-0.375 0.34375l0.4375 0.40625l1.375 2.421877l-0.921875 0l-1.34375 -2.390627zm3.665924 -2.9375l0 3.265625q0 0.8125019 0.15625 1.1562519q0.171875 0.34375 0.609375 0.34375q0.21875 0 0.390625 -0.09375q0.1875 -0.09375 0.3125 -0.234375q0.140625 -0.15625 0.25 -0.34375q0.109375 -0.1875 0.171875 -0.3906269l0 -3.703125l0.765625 0l0 3.8125q0 0.3906269 0.015625 0.7968769q0.03125 0.40625 0.09375 0.71875l-0.546875 0l-0.1875 -0.75l-0.03125 0q-0.1875 0.359375 -0.53125 0.625q-0.328125 0.25 -0.84375 0.25q-0.34375 0 -0.609375 -0.09375q-0.25 -0.078125 -0.4375 -0.296875q-0.171875 -0.21875 -0.265625 -0.609375q-0.09375 -0.390625 -0.09375 -1.0000019l0 -3.453125l0.78125 0zm4.7498627 4.062502q0 0.375 0.09375 0.53125q0.109375 0.15625 0.28125 0.15625q0.234375 0 0.53125 -0.109375l0.0625 0.609375q-0.125 0.09375 -0.375 0.140625q-0.25 0.0625 -0.453125 0.0625q-0.40625 0 -0.65625 -0.25q-0.25 -0.265625 -0.25 -0.890625l0 -6.437502l0.765625 0l0 6.187502zm4.5923004 1.0q-0.265625 0.203125 -0.609375 0.296875q-0.328125 0.09375 -0.703125 0.09375q-0.515625 0 -0.875 -0.1875q-0.34375 -0.203125 -0.5625 -0.5625q-0.21875 -0.375 -0.328125 -0.8906269q-0.09375 -0.515625 -0.09375 -1.15625q0 -1.359375 0.484375 -2.0625q0.484375 -0.71875 1.390625 -0.71875q0.421875 0 0.71875 0.078125q0.296875 0.0625 0.515625 0.1875l-0.21875 0.671875q-0.421875 -0.25 -0.921875 -0.25q-0.578125 0 -0.875 0.515625q-0.296875 0.5 -0.296875 1.578125q0 0.4375 0.0625 0.828125q0.078125 0.390625 0.21875 0.6718769q0.15625 0.28125 0.390625 0.453125q0.234375 0.15625 0.578125 0.15625q0.28125 0 0.515625 -0.09375q0.25 -0.09375 0.390625 -0.234375l0.21875 0.625zm0.77804565 -0.609375q0.203125 0.125 0.5 0.21875q0.296875 0.09375 0.609375 0.09375q0.34375 0 0.59375 -0.171875q0.25 -0.1875 0.25 -0.578125q0 -0.3281269 -0.15625 -0.5312519q-0.15625 -0.21875 -0.390625 -0.390625q-0.21875 -0.171875 -0.484375 -0.3125q-0.265625 -0.15625 -0.5 -0.34375q-0.21875 -0.203125 -0.375 -0.484375q-0.140625 -0.28125 -0.140625 -0.703125q0 -0.6875 0.359375 -1.03125q0.375 -0.34375 1.046875 -0.34375q0.4375 0 0.75 0.078125q0.328125 0.078125 0.5625 0.21875l-0.203125 0.640625q-0.203125 -0.109375 -0.46875 -0.171875q-0.265625 -0.078125 -0.546875 -0.078125q-0.390625 0 -0.5625 0.171875q-0.171875 0.15625 -0.171875 0.484375q0 0.265625 0.140625 0.453125q0.15625 0.1875 0.375 0.34375q0.234375 0.15625 0.5 0.328125q0.265625 0.15625 0.5 0.375q0.234375 0.21875 0.375 0.515625q0.15625 0.296875 0.15625 0.7656269q0 0.296875 -0.109375 0.5625q-0.09375 0.265625 -0.296875 0.46875q-0.1875 0.1875 -0.484375 0.296875q-0.28125 0.125 -0.6875 0.125q-0.46875 0 -0.8125 -0.09375q-0.328125 -0.078125 -0.5625 -0.234375l0.234375 -0.671875zm3.6331024 -4.140627q0.3125 -0.1875 0.75 -0.28125q0.4375 -0.109375 0.9375 -0.109375q0.4375 0 0.703125 0.140625q0.28125 0.125 0.4375 0.359375q0.15625 0.21875 0.203125 0.515625q0.046875 0.28125 0.046875 0.609375q0 0.640625 -0.03125 1.25q-0.015625 0.609375 -0.015625 1.1406269q0 0.40625 0.015625 0.765625q0.03125 0.34375 0.109375 0.640625l-0.59375 0l-0.171875 -0.625l-0.046875 0q-0.15625 0.28125 -0.46875 0.484375q-0.3125 0.203125 -0.828125 0.203125q-0.578125 0 -0.953125 -0.390625q-0.359375 -0.40625 -0.359375 -1.109375q0 -0.4687519 0.15625 -0.7656269q0.15625 -0.3125 0.4375 -0.5q0.28125 -0.203125 0.65625 -0.28125q0.390625 -0.078125 0.875 -0.078125q0.109375 0 0.21875 0q0.109375 0 0.21875 0.015625q0.03125 -0.34375 0.03125 -0.59375q0 -0.609375 -0.1875 -0.84375q-0.171875 -0.25 -0.65625 -0.25q-0.296875 0 -0.65625 0.09375q-0.34375 0.078125 -0.578125 0.21875l-0.25 -0.609375zm2.3125 2.59375q-0.109375 -0.015625 -0.21875 -0.015625q-0.109375 -0.015625 -0.203125 -0.015625q-0.265625 0 -0.515625 0.046875q-0.234375 0.046875 -0.4375 0.15625q-0.1875 0.09375 -0.296875 0.28125q-0.109375 0.171875 -0.109375 0.453125q0 0.4218769 0.203125 0.6562519q0.21875 0.234375 0.546875 0.234375q0.4375 0 0.6875 -0.203125q0.25 -0.21875 0.34375 -0.46875l0 -1.1250019z" fill-rule="nonzero"/><path fill="#d9d2e9" d="m75.779526 46.149605l96.47244 0l0 42.771652l-96.47244 0z" fill-rule="evenodd"/><path stroke="#20124d" stroke-width="1.0" stroke-linejoin="round" stroke-linecap="butt" d="m75.779526 46.149605l96.47244 0l0 42.771652l-96.47244 0z" fill-rule="evenodd"/><path fill="#20124d" d="m90.7784 61.93648l-0.375 0l0 3.4531212l-0.796875 0l0 -7.453121l0.796875 0l0 3.46875l0.375 -0.15625l1.9375 -3.3125l0.90625 0l-1.9375 3.21875l-0.375 0.328125l0.4375 0.4375l2.15625 3.4687462l-1.015625 0l-2.109375 -3.4531212zm4.722336 -1.875l0 3.265625q0 0.8124962 0.15625 1.1562462q0.171875 0.34375 0.609375 0.34375q0.21875 0 0.390625 -0.09375q0.1875 -0.09375 0.3125 -0.234375q0.140625 -0.15625 0.25 -0.34375q0.109375 -0.18749619 0.171875 -0.3906212l0 -3.703125l0.765625 0l0 3.8125q0 0.3906212 0.015625 0.7968712q0.03125 0.40625 0.09375 0.71875l-0.546875 0l-0.1875 -0.75l-0.03125 0q-0.1875 0.359375 -0.53125 0.625q-0.328125 0.25 -0.84375 0.25q-0.34375 0 -0.609375 -0.09375q-0.25 -0.078125 -0.4375 -0.296875q-0.171875 -0.21875 -0.265625 -0.609375q-0.09375 -0.390625 -0.09375 -0.9999962l0 -3.453125l0.78125 0zm-0.6875 -1.625q0 -0.25 0.125 -0.390625q0.125 -0.140625 0.328125 -0.140625q0.21875 0 0.34375 0.140625q0.125 0.140625 0.125 0.390625q0 0.21875 -0.125 0.359375q-0.125 0.140625 -0.34375 0.140625q-0.203125 0 -0.328125 -0.140625q-0.125 -0.140625 -0.125 -0.359375zm1.6875 0q0 -0.25 0.125 -0.390625q0.125 -0.140625 0.34375 -0.140625q0.203125 0 0.328125 0.140625q0.125 0.140625 0.125 0.390625q0 0.21875 -0.125 0.359375q-0.125 0.140625 -0.328125 0.140625q-0.21875 0 -0.34375 -0.140625q-0.125 -0.140625 -0.125 -0.359375zm3.7498627 5.687496q0 0.375 0.09375 0.53125q0.109375 0.15625 0.28125 0.15625q0.234375 0 0.53125 -0.109375l0.0625 0.609375q-0.125 0.09375 -0.375 0.140625q-0.25 0.0625 -0.453125 0.0625q-0.40625 0 -0.65625 -0.25q-0.25 -0.265625 -0.25 -0.890625l0 -6.437496l0.765625 0l0 6.187496zm5.0141754 -0.5624962q0 0.5312462 0 0.9843712q0.015625 0.4375 0.09375 0.859375l-0.53125 0l-0.171875 -0.640625l-0.046875 0q-0.140625 0.328125 -0.46875 0.546875q-0.3125 0.203125 -0.765625 0.203125q-0.859375 0 -1.28125 -0.671875q-0.421875 -0.671875 -0.421875 -2.1093712q0 -1.359375 0.515625 -2.0625q0.515625 -0.703125 1.421875 -0.703125q0.3125 0 0.484375 0.046875q0.1875 0.03125 0.40625 0.109375l0 -2.1875l0.765625 0l0 5.625zm-0.765625 -2.65625q-0.15625 -0.125 -0.34375 -0.1875q-0.171875 -0.0625 -0.484375 -0.0625q-0.5625 0 -0.890625 0.515625q-0.3125 0.515625 -0.3125 1.578125q0 0.46875 0.0625 0.84375q0.0625 0.375 0.1875 0.6562462q0.125 0.28125 0.3125 0.4375q0.203125 0.140625 0.484375 0.140625q0.765625 0 0.984375 -0.9062462l0 -3.015625zm1.7860718 1.8125q0 -1.4375 0.5 -2.109375q0.5 -0.671875 1.40625 -0.671875q0.984375 0 1.4375 0.6875q0.46875 0.6875 0.46875 2.09375q0 1.4531212 -0.5 2.1249962q-0.5 0.671875 -1.40625 0.671875q-0.96875 0 -1.4375 -0.6875q-0.46875 -0.6875 -0.46875 -2.1093712zm0.796875 0q0 0.484375 0.0625 0.875q0.0625 0.375 0.1875 0.6562462q0.140625 0.265625 0.34375 0.421875q0.21875 0.15625 0.515625 0.15625q0.5625 0 0.828125 -0.5q0.28125 -0.4999962 0.28125 -1.6093712q0 -0.453125 -0.0625 -0.84375q-0.046875 -0.390625 -0.1875 -0.65625q-0.125 -0.28125 -0.34375 -0.4375q-0.21875 -0.15625 -0.515625 -0.15625q-0.53125 0 -0.828125 0.5q-0.28125 0.5 -0.28125 1.59375zm0.75 -4.78125l0.734375 0l0 0.171875l-0.609375 1.203125l-0.421875 0l0.296875 -1.375zm1.3125 0l0.796875 0l0 0.171875l-0.984375 1.203125l-0.4375 0l0.625 -1.375zm4.2377014 2.125l0.546875 0l0.125 0.578125l0.03125 0q0.390625 -0.703125 1.234375 -0.703125q0.84375 0 1.265625 0.625q0.421875 0.625 0.421875 2.0625q0 0.671875 -0.140625 1.21875q-0.140625 0.5312462 -0.390625 0.9062462q-0.25 0.375 -0.625 0.578125q-0.359375 0.1875 -0.8125 0.1875q-0.3125 0 -0.5 -0.046875q-0.171875 -0.03125 -0.390625 -0.140625l0 2.1875l-0.765625 0l0 -7.453121zm0.765625 4.484371q0.15625 0.125 0.34375 0.203125q0.1875 0.078125 0.5 0.078125q0.5625 0 0.890625 -0.578125q0.328125 -0.5781212 0.328125 -1.6406212q0 -0.453125 -0.0625 -0.8125q-0.0625 -0.359375 -0.1875 -0.609375q-0.125 -0.265625 -0.328125 -0.40625q-0.1875 -0.15625 -0.484375 -0.15625q-0.765625 0 -1.0 0.953125l0 2.9687462zm3.8698883 -4.484371l0.546875 0l0.140625 0.5625l0.03125 0q0.140625 -0.3125 0.375 -0.484375q0.25 -0.171875 0.59375 -0.171875q0.25 0 0.546875 0.09375l-0.140625 0.78125q-0.28125 -0.09375 -0.484375 -0.09375q-0.34375 0 -0.5625 0.203125q-0.21875 0.1875 -0.28125 0.515625l0 3.9218712l-0.765625 0l0 -5.328121zm3.0448456 0l0.78125 0l0 5.328121l-0.78125 0l0 -5.328121zm-0.125 -1.625q0 -0.25 0.140625 -0.40625q0.140625 -0.15625 0.375 -0.15625q0.234375 0 0.390625 0.15625q0.15625 0.140625 0.15625 0.40625q0 0.265625 -0.15625 0.40625q-0.15625 0.140625 -0.390625 0.140625q-0.234375 0 -0.375 -0.140625q-0.140625 -0.15625 -0.140625 -0.40625zm3.6092987 4.75l0.203125 1.0468712l0.03125 0l0.1875 -1.0781212l0.9375 -3.09375l0.8125 0l-1.828125 5.453121l-0.375 0l-1.84375 -5.453121l0.875 0l1.0 3.125zm2.790924 -2.8125q0.3125 -0.1875 0.75 -0.28125q0.4375 -0.109375 0.9375 -0.109375q0.4375 0 0.703125 0.140625q0.28125 0.125 0.4375 0.359375q0.15625 0.21875 0.203125 0.515625q0.046875 0.28125 0.046875 0.609375q0 0.640625 -0.03125 1.25q-0.015625 0.609375 -0.015625 1.140625q0 0.4062462 0.015625 0.7656212q0.03125 0.34375 0.109375 0.640625l-0.59375 0l-0.171875 -0.625l-0.046875 0q-0.15625 0.28125 -0.46875 0.484375q-0.3125 0.203125 -0.828125 0.203125q-0.578125 0 -0.953125 -0.390625q-0.359375 -0.40625 -0.359375 -1.1093712q0 -0.46875 0.15625 -0.765625q0.15625 -0.3125 0.4375 -0.5q0.28125 -0.203125 0.65625 -0.28125q0.390625 -0.078125 0.875 -0.078125q0.109375 0 0.21875 0q0.109375 0 0.21875 0.015625q0.03125 -0.34375 0.03125 -0.59375q0 -0.609375 -0.1875 -0.84375q-0.171875 -0.25 -0.65625 -0.25q-0.296875 0 -0.65625 0.09375q-0.34375 0.078125 -0.578125 0.21875l-0.25 -0.609375zm2.3125 2.59375q-0.109375 -0.015625 -0.21875 -0.015625q-0.109375 -0.015625 -0.203125 -0.015625q-0.265625 0 -0.515625 0.046875q-0.234375 0.046875 -0.4375 0.15625q-0.1875 0.09375 -0.296875 0.28125q-0.109375 0.171875 -0.109375 0.453125q0 0.4218712 0.203125 0.6562462q0.21875 0.234375 0.546875 0.234375q0.4375 0 0.6875 -0.203125q0.25 -0.21875 0.34375 -0.46875l0 -1.1249962zm-0.75 -5.25l0.828125 0l0 0.21875l-0.875 1.375l-0.453125 0l0.5 -1.59375zm2.2156677 2.34375l0.65625 0l0 -1.0625l0.765625 -0.234375l0 1.296875l1.15625 0l0 0.6875l-1.15625 0l0 3.1875q0 0.4687462 0.109375 0.6718712q0.109375 0.203125 0.375 0.203125q0.203125 0 0.359375 -0.046875q0.15625 -0.046875 0.34375 -0.125l0.140625 0.609375q-0.234375 0.125 -0.515625 0.1875q-0.28125 0.078125 -0.59375 0.078125q-0.53125 0 -0.765625 -0.34375q-0.21875 -0.359375 -0.21875 -1.140625l0 -3.2812462l-0.65625 0l0 -0.6875zm6.8927765 2.9375l-0.40625 0l0 2.3906212l-0.765625 0l0 -7.453121l0.765625 0l0 4.53125l0.359375 -0.140625l1.25 -2.265625l0.875 0l-1.25 2.15625l-0.375 0.34375l0.4375 0.40625l1.375 2.4218712l-0.921875 0l-1.34375 -2.3906212zm3.665924 -2.9375l0 3.265625q0 0.8124962 0.15625 1.1562462q0.171875 0.34375 0.609375 0.34375q0.21875 0 0.390625 -0.09375q0.1875 -0.09375 0.3125 -0.234375q0.140625 -0.15625 0.25 -0.34375q0.109375 -0.18749619 0.171875 -0.3906212l0 -3.703125l0.765625 0l0 3.8125q0 0.3906212 0.015625 0.7968712q0.03125 0.40625 0.09375 0.71875l-0.546875 0l-0.1875 -0.75l-0.03125 0q-0.1875 0.359375 -0.53125 0.625q-0.328125 0.25 -0.84375 0.25q-0.34375 0 -0.609375 -0.09375q-0.25 -0.078125 -0.4375 -0.296875q-0.171875 -0.21875 -0.265625 -0.609375q-0.09375 -0.390625 -0.09375 -0.9999962l0 -3.453125l0.78125 0zm4.7498627 4.062496q0 0.375 0.09375 0.53125q0.109375 0.15625 0.28125 0.15625q0.234375 0 0.53125 -0.109375l0.0625 0.609375q-0.125 0.09375 -0.375 0.140625q-0.25 0.0625 -0.453125 0.0625q-0.40625 0 -0.65625 -0.25q-0.25 -0.265625 -0.25 -0.890625l0 -6.437496l0.765625 0l0 6.187496zm4.5923004 1.0q-0.265625 0.203125 -0.609375 0.296875q-0.328125 0.09375 -0.703125 0.09375q-0.515625 0 -0.875 -0.1875q-0.34375 -0.203125 -0.5625 -0.5625q-0.21875 -0.375 -0.328125 -0.8906212q-0.09375 -0.515625 -0.09375 -1.15625q0 -1.359375 0.484375 -2.0625q0.484375 -0.71875 1.390625 -0.71875q0.421875 0 0.71875 0.078125q0.296875 0.0625 0.515625 0.1875l-0.21875 0.671875q-0.421875 -0.25 -0.921875 -0.25q-0.578125 0 -0.875 0.515625q-0.296875 0.5 -0.296875 1.578125q0 0.4375 0.0625 0.828125q0.078125 0.390625 0.21875 0.6718712q0.15625 0.28125 0.390625 0.453125q0.234375 0.15625 0.578125 0.15625q0.28125 0 0.515625 -0.09375q0.25 -0.09375 0.390625 -0.234375l0.21875 0.625zm0.77804565 -0.609375q0.203125 0.125 0.5 0.21875q0.296875 0.09375 0.609375 0.09375q0.34375 0 0.59375 -0.171875q0.25 -0.1875 0.25 -0.578125q0 -0.3281212 -0.15625 -0.5312462q-0.15625 -0.21875 -0.390625 -0.390625q-0.21875 -0.171875 -0.484375 -0.3125q-0.265625 -0.15625 -0.5 -0.34375q-0.21875 -0.203125 -0.375 -0.484375q-0.140625 -0.28125 -0.140625 -0.703125q0 -0.6875 0.359375 -1.03125q0.375 -0.34375 1.046875 -0.34375q0.4375 0 0.75 0.078125q0.328125 0.078125 0.5625 0.21875l-0.203125 0.640625q-0.203125 -0.109375 -0.46875 -0.171875q-0.265625 -0.078125 -0.546875 -0.078125q-0.390625 0 -0.5625 0.171875q-0.171875 0.15625 -0.171875 0.484375q0 0.265625 0.140625 0.453125q0.15625 0.1875 0.375 0.34375q0.234375 0.15625 0.5 0.328125q0.265625 0.15625 0.5 0.375q0.234375 0.21875 0.375 0.515625q0.15625 0.296875 0.15625 0.7656212q0 0.296875 -0.109375 0.5625q-0.09375 0.265625 -0.296875 0.46875q-0.1875 0.1875 -0.484375 0.296875q-0.28125 0.125 -0.6875 0.125q-0.46875 0 -0.8125 -0.09375q-0.328125 -0.078125 -0.5625 -0.234375l0.234375 -0.671875zm3.6331024 -4.140621q0.3125 -0.1875 0.75 -0.28125q0.4375 -0.109375 0.9375 -0.109375q0.4375 0 0.703125 0.140625q0.28125 0.125 0.4375 0.359375q0.15625 0.21875 0.203125 0.515625q0.046875 0.28125 0.046875 0.609375q0 0.640625 -0.03125 1.25q-0.015625 0.609375 -0.015625 1.140625q0 0.4062462 0.015625 0.7656212q0.03125 0.34375 0.109375 0.640625l-0.59375 0l-0.171875 -0.625l-0.046875 0q-0.15625 0.28125 -0.46875 0.484375q-0.3125 0.203125 -0.828125 0.203125q-0.578125 0 -0.953125 -0.390625q-0.359375 -0.40625 -0.359375 -1.1093712q0 -0.46875 0.15625 -0.765625q0.15625 -0.3125 0.4375 -0.5q0.28125 -0.203125 0.65625 -0.28125q0.390625 -0.078125 0.875 -0.078125q0.109375 0 0.21875 0q0.109375 0 0.21875 0.015625q0.03125 -0.34375 0.03125 -0.59375q0 -0.609375 -0.1875 -0.84375q-0.171875 -0.25 -0.65625 -0.25q-0.296875 0 -0.65625 0.09375q-0.34375 0.078125 -0.578125 0.21875l-0.25 -0.609375zm2.3125 2.59375q-0.109375 -0.015625 -0.21875 -0.015625q-0.109375 -0.015625 -0.203125 -0.015625q-0.265625 0 -0.515625 0.046875q-0.234375 0.046875 -0.4375 0.15625q-0.1875 0.09375 -0.296875 0.28125q-0.109375 0.171875 -0.109375 0.453125q0 0.4218712 0.203125 0.6562462q0.21875 0.234375 0.546875 0.234375q0.4375 0 0.6875 -0.203125q0.25 -0.21875 0.34375 -0.46875l0 -1.1249962z" fill-rule="nonzero"/><path fill="#cfe2f3" d="m50.842518 97.24147l69.85828 0l0 48.692917l-69.85828 0z" fill-rule="evenodd"/><path stroke="#073763" stroke-width="1.0" stroke-linejoin="round" stroke-linecap="butt" d="m50.842518 97.24147l69.85828 0l0 48.692917l-69.85828 0z" fill-rule="evenodd"/><path fill="#073763" d="m72.36849 122.26042l-0.578125 0l0 5.1875l-1.1875 0l0 -11.203125l1.1875 0l0 5.21875l0.5625 -0.21875l2.921875 -5.0l1.375 0l-2.9375 4.828125l-0.5625 0.515625l0.65625 0.640625l3.25 5.21875l-1.515625 0l-3.171875 -5.1875zm7.0755157 -2.8125l0 4.890625q0 1.21875 0.25 1.75q0.25 0.515625 0.90625 0.515625q0.328125 0 0.59375 -0.140625q0.265625 -0.140625 0.46875 -0.359375q0.21875 -0.21875 0.375 -0.5q0.15625 -0.296875 0.25 -0.609375l0 -5.546875l1.15625 0l0 5.734375q0 0.5625 0.03125 1.1875q0.046875 0.609375 0.125 1.078125l-0.8125 0l-0.28125 -1.125l-0.0625 0q-0.265625 0.53125 -0.78125 0.921875q-0.5 0.390625 -1.28125 0.390625q-0.5 0 -0.890625 -0.125q-0.390625 -0.125 -0.65625 -0.453125q-0.265625 -0.34375 -0.40625 -0.921875q-0.140625 -0.59375 -0.140625 -1.5l0 -5.1875l1.15625 0zm-0.03125 -2.453125q0 -0.359375 0.1875 -0.5625q0.1875 -0.21875 0.5 -0.21875q0.328125 0 0.515625 0.21875q0.1875 0.203125 0.1875 0.5625q0 0.34375 -0.1875 0.546875q-0.1875 0.203125 -0.515625 0.203125q-0.3125 0 -0.5 -0.203125q-0.1875 -0.203125 -0.1875 -0.546875zm2.546875 0q0 -0.359375 0.1875 -0.5625q0.1875 -0.21875 0.5 -0.21875q0.328125 0 0.5 0.21875q0.1875 0.203125 0.1875 0.5625q0 0.34375 -0.1875 0.546875q-0.171875 0.203125 -0.5 0.203125q-0.3125 0 -0.5 -0.203125q-0.1875 -0.203125 -0.1875 -0.546875zm4.6158905 8.546875q0 0.5625 0.15625 0.8125q0.15625 0.234375 0.421875 0.234375q0.34375 0 0.78125 -0.1875l0.109375 0.9375q-0.203125 0.125 -0.578125 0.203125q-0.375 0.078125 -0.671875 0.078125q-0.609375 0 -0.984375 -0.375q-0.375 -0.375 -0.375 -1.3125l0 -9.6875l1.140625 0l0 9.296875zm7.540512 -0.84375q0 0.8125 0.015625 1.484375q0.015625 0.65625 0.109375 1.296875l-0.78125 0l-0.25 -0.953125l-0.0625 0q-0.234375 0.46875 -0.71875 0.796875q-0.46875 0.3125 -1.140625 0.3125q-1.296875 0 -1.9375 -1.0q-0.625 -1.015625 -0.625 -3.171875q0 -2.046875 0.765625 -3.09375q0.78125 -1.0625 2.140625 -1.0625q0.46875 0 0.734375 0.0625q0.28125 0.046875 0.59375 0.171875l0 -3.296875l1.15625 0l0 8.453125zm-1.15625 -3.984375q-0.21875 -0.1875 -0.5 -0.28125q-0.28125 -0.09375 -0.75 -0.09375q-0.84375 0 -1.3125 0.78125q-0.46875 0.765625 -0.46875 2.359375q0 0.703125 0.078125 1.28125q0.09375 0.5625 0.28125 0.984375q0.1875 0.40625 0.46875 0.640625q0.296875 0.21875 0.734375 0.21875q1.15625 0 1.46875 -1.359375l0 -4.53125zm2.693634 2.734375q0 -2.15625 0.734375 -3.171875q0.75 -1.015625 2.125 -1.015625q1.46875 0 2.15625 1.046875q0.703125 1.03125 0.703125 3.140625q0 2.171875 -0.75 3.1875q-0.75 1.0 -2.109375 1.0q-1.46875 0 -2.171875 -1.03125q-0.6875 -1.046875 -0.6875 -3.15625zm1.203125 0q0 0.703125 0.078125 1.28125q0.09375 0.578125 0.296875 1.0q0.203125 0.40625 0.515625 0.640625q0.328125 0.234375 0.765625 0.234375q0.828125 0 1.25 -0.75q0.421875 -0.75 0.421875 -2.40625q0 -0.6875 -0.09375 -1.265625q-0.09375 -0.59375 -0.296875 -1.0q-0.1875 -0.421875 -0.515625 -0.65625q-0.3125 -0.234375 -0.765625 -0.234375q-0.8125 0 -1.234375 0.765625q-0.421875 0.75 -0.421875 2.390625zm0.609375 -7.203125l1.109375 0l0 0.265625l-0.9375 1.796875l-0.625 0l0.453125 -2.0625zm1.96875 0l1.203125 0l0 0.265625l-1.46875 1.796875l-0.671875 0l0.9375 -2.0625z" fill-rule="nonzero"/><path fill="#cfe2f3" d="m239.54593 97.24147l69.85828 0l0 48.692917l-69.85828 0z" fill-rule="evenodd"/><path stroke="#073763" stroke-width="1.0" stroke-linejoin="round" stroke-linecap="butt" d="m239.54593 97.24147l69.85828 0l0 48.692917l-69.85828 0z" fill-rule="evenodd"/><path fill="#073763" d="m255.17027 116.2448l4.9687347 0l0 1.109375l-3.78125 0l0 3.953125l3.53125 0l0 1.09375l-3.53125 0l0 5.046875l-1.1874847 0l0 -11.203125zm6.170517 7.203125q0 -2.15625 0.734375 -3.171875q0.75 -1.015625 2.125 -1.015625q1.46875 0 2.15625 1.046875q0.703125 1.03125 0.703125 3.140625q0 2.171875 -0.75 3.1875q-0.75 1.0 -2.109375 1.0q-1.46875 0 -2.171875 -1.03125q-0.6875 -1.046875 -0.6875 -3.15625zm1.203125 0q0 0.703125 0.078125 1.28125q0.09375 0.578125 0.296875 1.0q0.203125 0.40625 0.515625 0.640625q0.328125 0.234375 0.765625 0.234375q0.828125 0 1.25 -0.75q0.421875 -0.75 0.421875 -2.40625q0 -0.6875 -0.09375 -1.265625q-0.09375 -0.59375 -0.296875 -1.0q-0.1875 -0.421875 -0.515625 -0.65625q-0.3125 -0.234375 -0.765625 -0.234375q-0.8125 0 -1.234375 0.765625q-0.421875 0.75 -0.421875 2.390625zm11.099518 4.375q0 1.546875 -0.6875 2.28125q-0.6875 0.734375 -2.0 0.734375q-0.796875 0 -1.3125 -0.140625q-0.515625 -0.125 -0.828125 -0.3125l0.328125 -0.984375q0.328125 0.140625 0.703125 0.265625q0.390625 0.140625 0.953125 0.140625q0.96875 0 1.328125 -0.546875q0.359375 -0.546875 0.359375 -1.828125l0 -0.59375l-0.046875 0q-0.25 0.375 -0.65625 0.578125q-0.390625 0.203125 -1.015625 0.203125q-1.296875 0 -1.90625 -1.0q-0.609375 -1.0 -0.609375 -3.140625q0 -2.0625 0.78125 -3.109375q0.796875 -1.0625 2.359375 -1.0625q0.75 0 1.28125 0.140625q0.546875 0.140625 0.96875 0.34375l0 8.03125zm-1.15625 -7.21875q-0.46875 -0.265625 -1.234375 -0.265625q-0.8125 0 -1.3125 0.75q-0.484375 0.75 -0.484375 2.375q0 0.671875 0.078125 1.25q0.078125 0.5625 0.265625 0.984375q0.203125 0.421875 0.484375 0.65625q0.296875 0.234375 0.734375 0.234375q0.609375 0 0.953125 -0.3125q0.359375 -0.328125 0.515625 -0.96875l0 -4.703125zm2.9432678 -0.671875q0.46875 -0.296875 1.125 -0.453125q0.671875 -0.15625 1.40625 -0.15625q0.671875 0 1.078125 0.203125q0.40625 0.1875 0.640625 0.53125q0.234375 0.34375 0.296875 0.796875q0.078125 0.4375 0.078125 0.90625q0 0.96875 -0.046875 1.890625q-0.03125 0.90625 -0.03125 1.71875q0 0.609375 0.03125 1.125q0.046875 0.515625 0.15625 0.984375l-0.875 0l-0.265625 -0.9375l-0.0625 0q-0.25 0.40625 -0.71875 0.71875q-0.453125 0.296875 -1.234375 0.296875q-0.875 0 -1.421875 -0.59375q-0.546875 -0.609375 -0.546875 -1.65625q0 -0.6875 0.21875 -1.15625q0.234375 -0.46875 0.65625 -0.75q0.4375 -0.296875 1.015625 -0.40625q0.578125 -0.125 1.296875 -0.125q0.171875 0 0.328125 0q0.15625 0 0.328125 0.015625q0.0625 -0.5 0.0625 -0.875q0 -0.921875 -0.28125 -1.28125q-0.265625 -0.375 -0.984375 -0.375q-0.453125 0 -0.984375 0.140625q-0.53125 0.140625 -0.875 0.34375l-0.390625 -0.90625zm3.484375 3.875q-0.171875 -0.015625 -0.328125 -0.03125q-0.15625 -0.015625 -0.3125 -0.015625q-0.390625 0 -0.765625 0.078125q-0.359375 0.0625 -0.65625 0.21875q-0.28125 0.15625 -0.453125 0.4375q-0.171875 0.265625 -0.171875 0.6875q0 0.640625 0.3125 1.0q0.3125 0.34375 0.8125 0.34375q0.671875 0 1.03125 -0.3125q0.375 -0.328125 0.53125 -0.71875l0 -1.6875zm8.040619 0.890625q0 0.8125 0.015625 1.484375q0.015625 0.65625 0.109375 1.296875l-0.78125 0l-0.25 -0.953125l-0.0625 0q-0.234375 0.46875 -0.71875 0.796875q-0.46875 0.3125 -1.140625 0.3125q-1.296875 0 -1.9375 -1.0q-0.625 -1.015625 -0.625 -3.171875q0 -2.046875 0.765625 -3.09375q0.78125 -1.0625 2.140625 -1.0625q0.46875 0 0.734375 0.0625q0.28125 0.046875 0.59375 0.171875l0 -3.296875l1.15625 0l0 8.453125zm-1.15625 -3.984375q-0.21875 -0.1875 -0.5 -0.28125q-0.28125 -0.09375 -0.75 -0.09375q-0.84375 0 -1.3125 0.78125q-0.46875 0.765625 -0.46875 2.359375q0 0.703125 0.078125 1.28125q0.09375 0.5625 0.28125 0.984375q0.1875 0.40625 0.46875 0.640625q0.296875 0.21875 0.734375 0.21875q1.15625 0 1.46875 -1.359375l0 -4.53125zm2.693634 2.734375q0 -2.15625 0.734375 -3.171875q0.75 -1.015625 2.125 -1.015625q1.46875 0 2.15625 1.046875q0.703125 1.03125 0.703125 3.140625q0 2.171875 -0.75 3.1875q-0.75 1.0 -2.109375 1.0q-1.46875 0 -2.171875 -1.03125q-0.6875 -1.046875 -0.6875 -3.15625zm1.203125 0q0 0.703125 0.078125 1.28125q0.09375 0.578125 0.296875 1.0q0.203125 0.40625 0.515625 0.640625q0.328125 0.234375 0.765625 0.234375q0.828125 0 1.25 -0.75q0.421875 -0.75 0.421875 -2.40625q0 -0.6875 -0.09375 -1.265625q-0.09375 -0.59375 -0.296875 -1.0q-0.1875 -0.421875 -0.515625 -0.65625q-0.3125 -0.234375 -0.765625 -0.234375q-0.8125 0 -1.234375 0.765625q-0.421875 0.75 -0.421875 2.390625zm1.921875 -7.515625l1.234375 0l0 0.328125l-1.3125 2.046875l-0.6875 0l0.765625 -2.375z" fill-rule="nonzero"/><path fill="#cfe2f3" d="m145.91339 196.28609l69.85826 0l0 48.692917l-69.85826 0z" fill-rule="evenodd"/><path stroke="#073763" stroke-width="1.0" stroke-linejoin="round" stroke-linecap="butt" d="m145.91339 196.28609l69.85826 0l0 48.692917l-69.85826 0z" fill-rule="evenodd"/><path fill="#073763" d="m158.65773 205.89879q0.5 -0.140625 1.078125 -0.1875q0.578125 -0.046875 1.140625 -0.046875q0.640625 0 1.265625 0.140625q0.625 0.140625 1.125 0.53125q0.5 0.390625 0.8125 1.0625q0.3125 0.671875 0.3125 1.703125q0 1.015625 -0.296875 1.71875q-0.296875 0.703125 -0.78125 1.140625q-0.484375 0.4375 -1.125 0.640625q-0.625 0.203125 -1.296875 0.203125q-0.0625 0 -0.21875 0q-0.140625 0 -0.296875 0q-0.15625 -0.015625 -0.3125 -0.03125q-0.15625 -0.015625 -0.21875 -0.03125l0 4.25l-1.1875 0l0 -11.09375zm2.28125 0.875q-0.328125 0 -0.625 0.03125q-0.28125 0.015625 -0.46875 0.0625l0 4.765625q0.0625 0.03125 0.203125 0.046875q0.140625 0 0.28125 0.015625q0.140625 0 0.28125 0q0.140625 0 0.203125 0q0.4375 0 0.859375 -0.109375q0.421875 -0.109375 0.734375 -0.40625q0.328125 -0.296875 0.515625 -0.796875q0.203125 -0.515625 0.203125 -1.28125q0 -0.671875 -0.1875 -1.109375q-0.171875 -0.453125 -0.46875 -0.71875q-0.296875 -0.28125 -0.703125 -0.390625q-0.390625 -0.109375 -0.828125 -0.109375zm5.455887 2.21875l0 4.890625q0 1.21875 0.25 1.75q0.25 0.515625 0.90625 0.515625q0.328125 0 0.59375 -0.140625q0.265625 -0.140625 0.46875 -0.359375q0.21875 -0.21875 0.375 -0.5q0.15625 -0.296875 0.25 -0.609375l0 -5.546875l1.15625 0l0 5.734375q0 0.5625 0.03125 1.1875q0.046875 0.609375 0.125 1.078125l-0.8125 0l-0.28125 -1.125l-0.0625 0q-0.265625 0.53125 -0.78125 0.921875q-0.5 0.390625 -1.28125 0.390625q-0.5 0 -0.890625 -0.125q-0.390625 -0.125 -0.65625 -0.453125q-0.265625 -0.34375 -0.40625 -0.921875q-0.140625 -0.59375 -0.140625 -1.5l0 -5.1875l1.15625 0zm5.8971405 -3.203125l1.15625 0l0 3.8125l0.046875 0q0.65625 -0.796875 1.75 -0.796875q1.234375 0 1.84375 0.984375q0.625 0.96875 0.625 3.078125q0 2.15625 -0.828125 3.21875q-0.828125 1.046875 -2.328125 1.046875q-0.734375 0 -1.34375 -0.15625q-0.609375 -0.171875 -0.921875 -0.40625l0 -10.78125zm1.15625 10.03125q0.21875 0.125 0.546875 0.203125q0.328125 0.078125 0.703125 0.078125q0.828125 0 1.3125 -0.796875q0.5 -0.796875 0.5 -2.4375q0 -0.6875 -0.09375 -1.234375q-0.09375 -0.5625 -0.28125 -0.953125q-0.171875 -0.40625 -0.46875 -0.625q-0.296875 -0.21875 -0.71875 -0.21875q-0.5625 0 -0.953125 0.34375q-0.375 0.34375 -0.546875 0.9375l0 4.703125zm7.0221405 -0.734375q0 0.5625 0.15625 0.8125q0.15625 0.234375 0.421875 0.234375q0.34375 0 0.78125 -0.1875l0.109375 0.9375q-0.203125 0.125 -0.578125 0.203125q-0.375 0.078125 -0.671875 0.078125q-0.609375 0 -0.984375 -0.375q-0.375 -0.375 -0.375 -1.3125l0 -9.6875l1.140625 0l0 9.296875zm2.696762 -6.09375l1.140625 0l0 8.0l-1.140625 0l0 -8.0zm-0.21875 -2.4375q0 -0.375 0.21875 -0.609375q0.21875 -0.25 0.578125 -0.25q0.34375 0 0.578125 0.234375q0.234375 0.234375 0.234375 0.625q0 0.390625 -0.234375 0.609375q-0.234375 0.21875 -0.578125 0.21875q-0.359375 0 -0.578125 -0.21875q-0.21875 -0.234375 -0.21875 -0.609375zm5.237625 6.84375l-0.59375 0l0 3.59375l-1.15625 0l0 -11.203125l1.15625 0l0 6.8125l0.53125 -0.21875l1.875 -3.390625l1.328125 0l-1.890625 3.234375l-0.5625 0.515625l0.65625 0.625l2.0625 3.625l-1.390625 0l-2.015625 -3.59375zm5.504883 -4.40625l0 4.890625q0 1.21875 0.25 1.75q0.25 0.515625 0.90625 0.515625q0.328125 0 0.59375 -0.140625q0.265625 -0.140625 0.46875 -0.359375q0.21875 -0.21875 0.375 -0.5q0.15625 -0.296875 0.25 -0.609375l0 -5.546875l1.15625 0l0 5.734375q0 0.5625 0.03125 1.1875q0.046875 0.609375 0.125 1.078125l-0.8125 0l-0.28125 -1.125l-0.0625 0q-0.265625 0.53125 -0.78125 0.921875q-0.5 0.390625 -1.28125 0.390625q-0.5 0 -0.890625 -0.125q-0.390625 -0.125 -0.65625 -0.453125q-0.265625 -0.34375 -0.40625 -0.921875q-0.140625 -0.59375 -0.140625 -1.5l0 -5.1875l1.15625 0zm5.7721405 6.6875q0.328125 0.1875 0.765625 0.328125q0.4375 0.140625 0.90625 0.140625q0.53125 0 0.890625 -0.265625q0.375 -0.265625 0.375 -0.859375q0 -0.5 -0.234375 -0.8125q-0.21875 -0.328125 -0.5625 -0.578125q-0.34375 -0.25 -0.75 -0.46875q-0.390625 -0.21875 -0.734375 -0.515625q-0.34375 -0.3125 -0.578125 -0.71875q-0.21875 -0.421875 -0.21875 -1.0625q0 -1.03125 0.546875 -1.546875q0.5625 -0.515625 1.5625 -0.515625q0.65625 0 1.140625 0.125q0.484375 0.109375 0.828125 0.3125l-0.296875 0.96875q-0.3125 -0.15625 -0.71875 -0.265625q-0.390625 -0.109375 -0.8125 -0.109375q-0.5625 0 -0.828125 0.25q-0.265625 0.234375 -0.265625 0.75q0 0.390625 0.21875 0.671875q0.21875 0.28125 0.5625 0.515625q0.34375 0.234375 0.75 0.484375q0.40625 0.234375 0.75 0.5625q0.34375 0.328125 0.5625 0.78125q0.21875 0.453125 0.21875 1.140625q0 0.453125 -0.140625 0.859375q-0.140625 0.390625 -0.4375 0.6875q-0.296875 0.296875 -0.734375 0.46875q-0.4375 0.171875 -1.03125 0.171875q-0.703125 0 -1.21875 -0.140625q-0.515625 -0.125 -0.859375 -0.34375l0.34375 -1.015625z" fill-rule="nonzero"/><path fill="#073763" d="m162.41534 230.80504l-0.578125 0l0 5.1875l-1.1875 0l0 -11.203125l1.1875 0l0 5.21875l0.5625 -0.21875l2.921875 -5.0l1.375 0l-2.9375 4.828125l-0.5625 0.515625l0.65625 0.640625l3.25 5.21875l-1.515625 0l-3.171875 -5.1875zm6.739517 -2.8125l0 4.890625q0 1.21875 0.25 1.75q0.25 0.515625 0.90625 0.515625q0.328125 0 0.59375 -0.140625q0.265625 -0.140625 0.46875 -0.359375q0.21875 -0.21875 0.375 -0.5q0.15625 -0.296875 0.25 -0.609375l0 -5.546875l1.15625 0l0 5.734375q0 0.5625 0.03125 1.1875q0.046875 0.609375 0.125 1.078125l-0.8125 0l-0.28125 -1.125l-0.0625 0q-0.265625 0.53125 -0.78125 0.921875q-0.5 0.390625 -1.28125 0.390625q-0.5 0 -0.890625 -0.125q-0.390625 -0.125 -0.65625 -0.453125q-0.265625 -0.34375 -0.40625 -0.921875q-0.140625 -0.59375 -0.140625 -1.5l0 -5.1875l1.15625 0zm7.1315155 6.09375q0 0.5625 0.15625 0.8125q0.15625 0.234375 0.421875 0.234375q0.34375 0 0.78125 -0.1875l0.109375 0.9375q-0.203125 0.125 -0.578125 0.203125q-0.375 0.078125 -0.671875 0.078125q-0.609375 0 -0.984375 -0.375q-0.375 -0.375 -0.375 -1.3125l0 -9.6875l1.140625 0l0 9.296875zm6.915512 1.5q-0.40625 0.3125 -0.921875 0.453125q-0.5 0.140625 -1.0625 0.140625q-0.765625 0 -1.296875 -0.296875q-0.53125 -0.296875 -0.859375 -0.84375q-0.328125 -0.546875 -0.484375 -1.328125q-0.140625 -0.78125 -0.140625 -1.71875q0 -2.046875 0.71875 -3.109375q0.734375 -1.078125 2.09375 -1.078125q0.625 0 1.0625 0.109375q0.453125 0.109375 0.78125 0.28125l-0.328125 1.015625q-0.640625 -0.375 -1.390625 -0.375q-0.859375 0 -1.296875 0.765625q-0.4375 0.765625 -0.4375 2.390625q0 0.65625 0.09375 1.234375q0.09375 0.578125 0.3125 1.0q0.234375 0.421875 0.578125 0.671875q0.359375 0.25 0.875 0.25q0.421875 0 0.78125 -0.140625q0.359375 -0.15625 0.59375 -0.34375l0.328125 0.921875zm1.1491394 -0.90625q0.328125 0.1875 0.765625 0.328125q0.4375 0.140625 0.90625 0.140625q0.53125 0 0.890625 -0.265625q0.375 -0.265625 0.375 -0.859375q0 -0.5 -0.234375 -0.8125q-0.21875 -0.328125 -0.5625 -0.578125q-0.34375 -0.25 -0.75 -0.46875q-0.390625 -0.21875 -0.734375 -0.515625q-0.34375 -0.3125 -0.578125 -0.71875q-0.21875 -0.421875 -0.21875 -1.0625q0 -1.03125 0.546875 -1.546875q0.5625 -0.515625 1.5625 -0.515625q0.65625 0 1.140625 0.125q0.484375 0.109375 0.828125 0.3125l-0.296875 0.96875q-0.3125 -0.15625 -0.71875 -0.265625q-0.390625 -0.109375 -0.8125 -0.109375q-0.5625 0 -0.828125 0.25q-0.265625 0.234375 -0.265625 0.75q0 0.390625 0.21875 0.671875q0.21875 0.28125 0.5625 0.515625q0.34375 0.234375 0.75 0.484375q0.40625 0.234375 0.75 0.5625q0.34375 0.328125 0.5625 0.78125q0.21875 0.453125 0.21875 1.140625q0 0.453125 -0.140625 0.859375q-0.140625 0.390625 -0.4375 0.6875q-0.296875 0.296875 -0.734375 0.46875q-0.4375 0.171875 -1.03125 0.171875q-0.703125 0 -1.21875 -0.140625q-0.515625 -0.125 -0.859375 -0.34375l0.34375 -1.015625zm5.1892548 -2.6875q0 -2.15625 0.734375 -3.171875q0.75 -1.015625 2.125 -1.015625q1.46875 0 2.15625 1.046875q0.703125 1.03125 0.703125 3.140625q0 2.171875 -0.75 3.1875q-0.75 1.0 -2.109375 1.0q-1.46875 0 -2.171875 -1.03125q-0.6875 -1.046875 -0.6875 -3.15625zm1.203125 0q0 0.703125 0.078125 1.28125q0.09375 0.578125 0.296875 1.0q0.203125 0.40625 0.515625 0.640625q0.328125 0.234375 0.765625 0.234375q0.828125 0 1.25 -0.75q0.421875 -0.75 0.421875 -2.40625q0 -0.6875 -0.09375 -1.265625q-0.09375 -0.59375 -0.296875 -1.0q-0.1875 -0.421875 -0.515625 -0.65625q-0.3125 -0.234375 -0.765625 -0.234375q-0.8125 0 -1.234375 0.765625q-0.421875 0.75 -0.421875 2.390625zm7.802643 0.40625l-0.59375 0l0 3.59375l-1.15625 0l0 -11.203125l1.15625 0l0 6.8125l0.53125 -0.21875l1.875 -3.390625l1.328125 0l-1.890625 3.234375l-0.5625 0.515625l0.65625 0.625l2.0625 3.625l-1.390625 0l-2.015625 -3.59375z" fill-rule="nonzero"/><path fill="#000000" fill-opacity="0.0" d="m145.91339 220.63255l-60.12599 -74.708664" fill-rule="evenodd"/><path stroke="#000000" stroke-width="1.0" stroke-linejoin="round" stroke-linecap="butt" d="m145.91339 220.63255l-56.364136 -70.03444" fill-rule="evenodd"/><path fill="#000000" stroke="#000000" stroke-width="1.0" stroke-linecap="butt" d="m90.83602 149.56253l-4.132042 -2.499771l1.5585098 4.5709534z" fill-rule="evenodd"/><path fill="#000000" fill-opacity="0.0" d="m215.77165 220.63255l58.708664 -74.708664" fill-rule="evenodd"/><path stroke="#000000" stroke-width="1.0" stroke-linejoin="round" stroke-linecap="butt" d="m215.77165 220.63255l55.00139 -69.99104" fill-rule="evenodd"/><path fill="#000000" stroke="#000000" stroke-width="1.0" stroke-linecap="butt" d="m272.07175 151.6621l1.5052795 -4.5887604l-4.1026917 2.5476074z" fill-rule="evenodd"/><path fill="#000000" fill-opacity="0.0" d="m120.70079 121.58793l118.83464 0" fill-rule="evenodd"/><path stroke="#000000" stroke-width="1.0" stroke-linejoin="round" stroke-linecap="butt" d="m120.70079 121.58793l112.83464 0" fill-rule="evenodd"/><path fill="#000000" stroke="#000000" stroke-width="1.0" stroke-linecap="butt" d="m233.53543 123.23966l4.538101 -1.6517334l-4.538101 -1.6517334z" fill-rule="evenodd"/><path fill="#f3f3f3" d="m95.73753 69.50131l55.118103 0l0 16.440948l-55.118103 0z" fill-rule="evenodd"/><path stroke="#434343" stroke-width="1.0" stroke-linejoin="round" stroke-linecap="butt" d="m95.73753 69.50131l55.118103 0l0 16.440948l-55.118103 0z" fill-rule="evenodd"/><path fill="#434343" d="m114.57044 74.00866l0.765625 0l0 4.984375q0 1.359375 -0.53125 1.96875q-0.53125 0.59375 -1.5 0.59375q-1.125 0 -1.640625 -0.578125q-0.515625 -0.59375 -0.515625 -1.8125l0 -5.15625l0.796875 0l0 4.75q0 0.578125 0.0625 0.96875q0.078125 0.390625 0.25 0.640625q0.171875 0.234375 0.421875 0.34375q0.265625 0.109375 0.640625 0.109375q0.703125 0 0.96875 -0.484375q0.28125 -0.5 0.28125 -1.578125l0 -4.75zm-2.46875 -1.015625q0 -0.21875 0.125 -0.359375q0.140625 -0.140625 0.375 -0.140625q0.21875 0 0.34375 0.140625q0.140625 0.140625 0.140625 0.359375q0 0.234375 -0.140625 0.375q-0.125 0.125 -0.34375 0.125q-0.234375 0 -0.375 -0.125q-0.125 -0.140625 -0.125 -0.375zm1.6875 0q0 -0.21875 0.125 -0.359375q0.140625 -0.140625 0.359375 -0.140625q0.234375 0 0.359375 0.140625q0.140625 0.140625 0.140625 0.359375q0 0.234375 -0.140625 0.375q-0.125 0.125 -0.359375 0.125q-0.21875 0 -0.359375 -0.125q-0.125 -0.140625 -0.125 -0.375zm2.5675812 7.78125l1.984375 -3.484375l0.375 -0.46875l-2.359375 0l0 -0.6875l3.109375 0l0 0.6875l-2.0 3.515625l-0.359375 0.4375l2.359375 0l0 0.6875l-3.109375 0l0 -0.6875zm7.1770325 0.328125q-0.25 0.234375 -0.65625 0.359375q-0.390625 0.125 -0.828125 0.125q-0.5 0 -0.875 -0.1875q-0.359375 -0.203125 -0.59375 -0.5625q-0.234375 -0.375 -0.359375 -0.890625q-0.109375 -0.515625 -0.109375 -1.15625q0 -1.359375 0.5 -2.0625q0.5 -0.71875 1.421875 -0.71875q0.296875 0 0.59375 0.078125q0.296875 0.0625 0.53125 0.296875q0.234375 0.21875 0.375 0.625q0.140625 0.40625 0.140625 1.046875q0 0.1875 -0.015625 0.40625q-0.015625 0.203125 -0.03125 0.421875l-2.71875 0q0 0.453125 0.078125 0.828125q0.078125 0.375 0.234375 0.640625q0.15625 0.25 0.40625 0.40625q0.25 0.140625 0.625 0.140625q0.296875 0 0.578125 -0.109375q0.28125 -0.109375 0.421875 -0.25l0.28125 0.5625zm-0.59375 -2.859375q0.015625 -0.796875 -0.234375 -1.171875q-0.234375 -0.375 -0.65625 -0.375q-0.5 0 -0.796875 0.375q-0.28125 0.375 -0.328125 1.171875l2.015625 0zm4.5417023 3.21875l0 -3.25q0 -0.796875 -0.1875 -1.15625q-0.1875 -0.359375 -0.671875 -0.359375q-0.421875 0 -0.703125 0.265625q-0.265625 0.25 -0.40625 0.625l0 3.875l-0.765625 0l0 -5.328125l0.5625 0l0.140625 0.5625l0.03125 0q0.203125 -0.28125 0.546875 -0.484375q0.34375 -0.203125 0.828125 -0.203125q0.328125 0 0.59375 0.09375q0.265625 0.09375 0.4375 0.328125q0.17188263 0.21875 0.26563263 0.609375q0.09375 0.390625 0.09375 0.96875l0 3.453125l-0.7656326 0zm5.131279 -0.359375q-0.25 0.234375 -0.65625 0.359375q-0.390625 0.125 -0.828125 0.125q-0.5 0 -0.875 -0.1875q-0.359375 -0.203125 -0.59375 -0.5625q-0.234375 -0.375 -0.359375 -0.890625q-0.109375 -0.515625 -0.109375 -1.15625q0 -1.359375 0.5 -2.0625q0.5 -0.71875 1.421875 -0.71875q0.296875 0 0.59375 0.078125q0.296875 0.0625 0.53125 0.296875q0.234375 0.21875 0.375 0.625q0.140625 0.40625 0.140625 1.046875q0 0.1875 -0.015625 0.40625q-0.015625 0.203125 -0.03125 0.421875l-2.71875 0q0 0.453125 0.078125 0.828125q0.078125 0.375 0.234375 0.640625q0.15625 0.25 0.40625 0.40625q0.25 0.140625 0.625 0.140625q0.296875 0 0.578125 -0.109375q0.28125 -0.109375 0.421875 -0.25l0.28125 0.5625zm-0.59375 -2.859375q0.015625 -0.796875 -0.234375 -1.171875q-0.234375 -0.375 -0.65625 -0.375q-0.5 0 -0.796875 0.375q-0.28125 0.375 -0.328125 1.171875l2.015625 0zm1.2760773 -2.109375l0.65625 0l0 -1.0625l0.765625 -0.234375l0 1.296875l1.15625 0l0 0.6875l-1.15625 0l0 3.1875q0 0.46875 0.109375 0.671875q0.109375 0.203125 0.375 0.203125q0.203125 0 0.359375 -0.046875q0.15625 -0.046875 0.34375 -0.125l0.140625 0.609375q-0.234375 0.125 -0.515625 0.1875q-0.28125 0.078125 -0.59375 0.078125q-0.53125 0 -0.765625 -0.34375q-0.21875 -0.359375 -0.21875 -1.140625l0 -3.28125l-0.65625 0l0 -0.6875z" fill-rule="nonzero"/><path fill="#f4cccc" d="m124.049866 190.71391l55.924545 -76.54069l55.924545 76.54069z" fill-rule="evenodd"/><path stroke="#660000" stroke-width="1.0" stroke-linejoin="round" stroke-linecap="butt" d="m124.049866 190.71391l55.924545 -76.54069l55.924545 76.54069z" fill-rule="evenodd"/><path fill="#660000" d="m166.77777 167.97249l-2.28125 0l0 8.40625l-1.0 0l0 -8.40625l-2.296875 0l0 -0.921875l5.578125 0l0 0.921875zm0.11077881 2.140625q0.390625 -0.234375 0.9375 -0.359375q0.5625 -0.140625 1.171875 -0.140625q0.5625 0 0.890625 0.171875q0.34375 0.15625 0.53125 0.453125q0.203125 0.28125 0.265625 0.65625q0.0625 0.359375 0.0625 0.75q0 0.796875 -0.046875 1.5625q-0.03125 0.765625 -0.03125 1.4375q0 0.515625 0.03125 0.953125q0.046875 0.421875 0.140625 0.8125l-0.734375 0l-0.234375 -0.796875l-0.046875 0q-0.203125 0.359375 -0.59375 0.609375q-0.390625 0.25 -1.03125 0.25q-0.71875 0 -1.1875 -0.5q-0.453125 -0.5 -0.453125 -1.375q0 -0.578125 0.1875 -0.953125q0.1875 -0.390625 0.546875 -0.625q0.359375 -0.25 0.84375 -0.34375q0.484375 -0.109375 1.078125 -0.109375q0.140625 0 0.265625 0q0.140625 0 0.28125 0.015625q0.046875 -0.421875 0.046875 -0.734375q0 -0.765625 -0.234375 -1.0625q-0.21875 -0.3125 -0.828125 -0.3125q-0.359375 0 -0.8125 0.125q-0.4375 0.109375 -0.71875 0.28125l-0.328125 -0.765625zm2.890625 3.234375q-0.125 -0.015625 -0.265625 -0.015625q-0.125 -0.015625 -0.265625 -0.015625q-0.3125 0 -0.625 0.0625q-0.3125 0.046875 -0.546875 0.1875q-0.234375 0.125 -0.375 0.359375q-0.140625 0.21875 -0.140625 0.5625q0 0.53125 0.25 0.828125q0.265625 0.296875 0.671875 0.296875q0.5625 0 0.859375 -0.265625q0.3125 -0.28125 0.4375 -0.59375l0 -1.40625zm-1.1875 -6.5625l1.046875 0l0 0.28125l-1.09375 1.703125l-0.578125 0l0.625 -1.984375zm6.815613 9.59375l0 -3.953125q0 -0.53125 -0.03125 -0.90625q-0.03125 -0.390625 -0.140625 -0.625q-0.109375 -0.25 -0.296875 -0.359375q-0.1875 -0.109375 -0.484375 -0.109375q-0.453125 0 -0.78125 0.359375q-0.3125 0.34375 -0.421875 0.796875l0 4.796875l-0.96875 0l0 -6.65625l0.6875 0l0.171875 0.703125l0.03125 0q0.28125 -0.390625 0.671875 -0.625q0.390625 -0.25 0.984375 -0.25q0.515625 0 0.828125 0.21875q0.328125 0.21875 0.515625 0.78125q0.25 -0.46875 0.6875 -0.734375q0.453125 -0.265625 0.984375 -0.265625q0.4375 0 0.75 0.125q0.3125 0.109375 0.5 0.390625q0.203125 0.28125 0.296875 0.765625q0.09375 0.46875 0.09375 1.1875l0 4.359375l-0.953125 0l0 -4.234375q0 -0.875 -0.171875 -1.296875q-0.171875 -0.421875 -0.765625 -0.421875q-0.515625 0 -0.8125 0.3125q-0.296875 0.3125 -0.421875 0.84375l0 4.796875l-0.953125 0zm5.4890747 -6.265625q0.390625 -0.234375 0.9375 -0.359375q0.5625 -0.140625 1.171875 -0.140625q0.5625 0 0.890625 0.171875q0.34375 0.15625 0.53125 0.453125q0.203125 0.28125 0.265625 0.65625q0.0625 0.359375 0.0625 0.75q0 0.796875 -0.046875 1.5625q-0.03125 0.765625 -0.03125 1.4375q0 0.515625 0.03125 0.953125q0.046875 0.421875 0.140625 0.8125l-0.734375 0l-0.234375 -0.796875l-0.046875 0q-0.203125 0.359375 -0.59375 0.609375q-0.390625 0.25 -1.03125 0.25q-0.71875 0 -1.1875 -0.5q-0.453125 -0.5 -0.453125 -1.375q0 -0.578125 0.1875 -0.953125q0.1875 -0.390625 0.546875 -0.625q0.359375 -0.25 0.84375 -0.34375q0.484375 -0.109375 1.078125 -0.109375q0.140625 0 0.265625 0q0.140625 0 0.28125 0.015625q0.046875 -0.421875 0.046875 -0.734375q0 -0.765625 -0.234375 -1.0625q-0.21875 -0.3125 -0.828125 -0.3125q-0.359375 0 -0.8125 0.125q-0.4375 0.109375 -0.71875 0.28125l-0.328125 -0.765625zm2.890625 3.234375q-0.125 -0.015625 -0.265625 -0.015625q-0.125 -0.015625 -0.265625 -0.015625q-0.3125 0 -0.625 0.0625q-0.3125 0.046875 -0.546875 0.1875q-0.234375 0.125 -0.375 0.359375q-0.140625 0.21875 -0.140625 0.5625q0 0.53125 0.25 0.828125q0.265625 0.296875 0.671875 0.296875q0.5625 0 0.859375 -0.265625q0.3125 -0.28125 0.4375 -0.59375l0 -1.40625zm6.706238 0.734375q0 0.6875 0.015625 1.25q0.015625 0.546875 0.09375 1.078125l-0.65625 0l-0.21875 -0.796875l-0.046875 0q-0.1875 0.390625 -0.59375 0.65625q-0.390625 0.265625 -0.953125 0.265625q-1.078125 0 -1.609375 -0.828125q-0.515625 -0.84375 -0.515625 -2.640625q0 -1.71875 0.640625 -2.59375q0.640625 -0.875 1.78125 -0.875q0.390625 0 0.609375 0.046875q0.234375 0.046875 0.5 0.15625l0 -2.75l0.953125 0l0 7.03125zm-0.953125 -3.3125q-0.1875 -0.15625 -0.421875 -0.234375q-0.234375 -0.078125 -0.625 -0.078125q-0.703125 0 -1.09375 0.640625q-0.390625 0.640625 -0.390625 1.96875q0 0.59375 0.0625 1.078125q0.078125 0.46875 0.234375 0.8125q0.15625 0.34375 0.390625 0.53125q0.25 0.1875 0.609375 0.1875q0.96875 0 1.234375 -1.140625l0 -3.765625zm2.2398071 2.28125q0 -1.796875 0.609375 -2.640625q0.625 -0.859375 1.765625 -0.859375q1.234375 0 1.8125 0.875q0.578125 0.859375 0.578125 2.625q0 1.8125 -0.625 2.65625q-0.625 0.828125 -1.765625 0.828125q-1.21875 0 -1.796875 -0.859375q-0.578125 -0.875 -0.578125 -2.625zm1.0 0q0 0.578125 0.0625 1.0625q0.078125 0.484375 0.234375 0.828125q0.171875 0.34375 0.4375 0.546875q0.265625 0.1875 0.640625 0.1875q0.703125 0 1.046875 -0.625q0.34375 -0.625 0.34375 -2.0q0 -0.578125 -0.078125 -1.0625q-0.0625 -0.484375 -0.234375 -0.828125q-0.171875 -0.359375 -0.4375 -0.546875q-0.265625 -0.1875 -0.640625 -0.1875q-0.671875 0 -1.03125 0.625q-0.34375 0.625 -0.34375 2.0zm1.921875 -6.265625l1.046875 0l0 0.28125l-1.09375 1.703125l-0.578125 0l0.625 -1.984375z" fill-rule="nonzero"/></g></svg>