<svg version="1.1" viewBox="0.0 0.0 427.50656167979 232.85564304461943" fill="none" stroke="none" stroke-linecap="square" stroke-miterlimit="10" xmlns:xlink="http://www.w3.org/1999/xlink" xmlns="http://www.w3.org/2000/svg"><clipPath id="p.0"><path d="m0 0l427.50656 0l0 232.85564l-427.50656 0l0 -232.85564z" clip-rule="nonzero"/></clipPath><g clip-path="url(#p.0)"><path fill="#000000" fill-opacity="0.0" d="m0 0l427.50656 0l0 232.85564l-427.50656 0z" fill-rule="evenodd"/><path fill="#c9daf8" d="m103.08399 71.36756l0 0c0 -2.919487 2.3667068 -5.286194 5.286194 -5.286194l67.317375 0c1.4019775 0 2.7465515 0.55693054 3.7378998 1.5482864c0.99134827 0.9913559 1.5482941 2.3359222 1.5482941 3.7379074l0 21.144142c0 2.919487 -2.3667145 5.286194 -5.286194 5.286194l-67.317375 0l0 0c-2.919487 0 -5.286194 -2.3667068 -5.286194 -5.286194z" fill-rule="evenodd"/><path stroke="#1c4587" stroke-width="1.0" stroke-linejoin="round" stroke-linecap="butt" d="m103.08399 71.36756l0 0c0 -2.919487 2.3667068 -5.286194 5.286194 -5.286194l67.317375 0c1.4019775 0 2.7465515 0.55693054 3.7378998 1.5482864c0.99134827 0.9913559 1.5482941 2.3359222 1.5482941 3.7379074l0 21.144142c0 2.919487 -2.3667145 5.286194 -5.286194 5.286194l-67.317375 0l0 0c-2.919487 0 -5.286194 -2.3667068 -5.286194 -5.286194z" fill-rule="evenodd"/><path fill="#1c4587" d="m125.689896 78.33338l-2.28125 0l0 8.40625l-1.0 0l0 -8.40625l-2.296875 0l0 -0.921875l5.578125 0l0 0.921875zm1.1451569 1.75l0.953125 0l0 6.65625l-0.953125 0l0 -6.65625zm-0.1875 -2.03125q0 -0.328125 0.1875 -0.515625q0.1875 -0.203125 0.46875 -0.203125q0.296875 0 0.484375 0.203125q0.203125 0.1875 0.203125 0.515625q0 0.3125 -0.203125 0.5q-0.1875 0.171875 -0.484375 0.171875q-0.28125 0 -0.46875 -0.1875q-0.1875 -0.1875 -0.1875 -0.484375zm2.2515717 2.03125l0.8125 0l0 -1.328125l0.953125 -0.3125l0 1.640625l1.4375 0l0 0.859375l-1.4375 0l0 3.96875q0 0.59375 0.140625 0.859375q0.140625 0.25 0.46875 0.25q0.265625 0 0.453125 -0.0625q0.1875 -0.0625 0.421875 -0.15625l0.1875 0.765625q-0.296875 0.140625 -0.65625 0.21875q-0.34375 0.09375 -0.734375 0.09375q-0.671875 0 -0.953125 -0.421875q-0.28125 -0.4375 -0.28125 -1.40625l0 -4.109375l-0.8125 0l0 -0.859375zm5.774597 3.65625l-0.484375 0l0 3.0l-0.96875 0l0 -9.328125l0.96875 0l0 5.671875l0.4375 -0.1875l1.5625 -2.8125l1.09375 0l-1.5625 2.6875l-0.46875 0.421875l0.546875 0.515625l1.71875 3.03125l-1.15625 0l-1.6875 -3.0zm3.3035889 -0.328125q0 -1.796875 0.609375 -2.640625q0.625 -0.859375 1.765625 -0.859375q1.234375 0 1.8125 0.875q0.578125 0.859375 0.578125 2.625q0 1.8125 -0.625 2.65625q-0.625 0.828125 -1.765625 0.828125q-1.21875 0 -1.796875 -0.859375q-0.578125 -0.875 -0.578125 -2.625zm1.0 0q0 0.578125 0.0625 1.0625q0.078125 0.484375 0.234375 0.828125q0.171875 0.34375 0.4375 0.546875q0.265625 0.1875 0.640625 0.1875q0.703125 0 1.046875 -0.625q0.34375 -0.625 0.34375 -2.0q0 -0.578125 -0.078125 -1.0625q-0.0625 -0.484375 -0.234375 -0.828125q-0.171875 -0.359375 -0.4375 -0.546875q-0.265625 -0.1875 -0.640625 -0.1875q-0.671875 0 -1.03125 0.625q-0.34375 0.625 -0.34375 2.0zm4.945236 2.234375q0.265625 0.15625 0.625 0.28125q0.359375 0.109375 0.75 0.109375q0.4375 0 0.75 -0.21875q0.3125 -0.21875 0.3125 -0.71875q0 -0.40625 -0.1875 -0.671875q-0.1875 -0.265625 -0.484375 -0.484375q-0.28125 -0.21875 -0.625 -0.390625q-0.328125 -0.1875 -0.609375 -0.4375q-0.28125 -0.25 -0.46875 -0.59375q-0.1875 -0.359375 -0.1875 -0.890625q0 -0.84375 0.453125 -1.28125q0.46875 -0.4375 1.296875 -0.4375q0.546875 0 0.953125 0.109375q0.40625 0.09375 0.6875 0.265625l-0.25 0.796875q-0.25 -0.125 -0.59375 -0.203125q-0.328125 -0.09375 -0.671875 -0.09375q-0.484375 0 -0.703125 0.203125q-0.21875 0.1875 -0.21875 0.625q0 0.328125 0.1875 0.5625q0.1875 0.234375 0.46875 0.4375q0.296875 0.1875 0.625 0.390625q0.328125 0.1875 0.609375 0.46875q0.296875 0.265625 0.484375 0.65625q0.1875 0.375 0.1875 0.9375q0 0.375 -0.125 0.71875q-0.109375 0.328125 -0.359375 0.578125q-0.25 0.234375 -0.625 0.375q-0.359375 0.15625 -0.84375 0.15625q-0.59375 0 -1.015625 -0.109375q-0.421875 -0.109375 -0.71875 -0.296875l0.296875 -0.84375zm4.770508 -5.5625l0.96875 0l0 6.65625l-0.96875 0l0 -6.65625zm0.46875 -2.9375l1.046875 0l0 0.28125l-1.09375 1.703125l-0.578125 0l0.625 -1.984375zm1.5953217 2.9375l0.8125 0l0 -1.328125l0.953125 -0.3125l0 1.640625l1.4375 0l0 0.859375l-1.4375 0l0 3.96875q0 0.59375 0.140625 0.859375q0.140625 0.25 0.46875 0.25q0.265625 0 0.453125 -0.0625q0.1875 -0.0625 0.421875 -0.15625l0.1875 0.765625q-0.296875 0.140625 -0.65625 0.21875q-0.34375 0.09375 -0.734375 0.09375q-0.671875 0 -0.953125 -0.421875q-0.28125 -0.4375 -0.28125 -1.40625l0 -4.109375l-0.8125 0l0 -0.859375zm4.258972 0.390625q0.390625 -0.234375 0.9375 -0.359375q0.5625 -0.140625 1.171875 -0.140625q0.5625 0 0.890625 0.171875q0.34375 0.15625 0.53125 0.453125q0.203125 0.28125 0.265625 0.65625q0.0625 0.359375 0.0625 0.75q0 0.796875 -0.046875 1.5625q-0.03125 0.765625 -0.03125 1.4375q0 0.515625 0.03125 0.953125q0.046875 0.421875 0.140625 0.8125l-0.734375 0l-0.234375 -0.796875l-0.046875 0q-0.203125 0.359375 -0.59375 0.609375q-0.390625 0.25 -1.03125 0.25q-0.71875 0 -1.1875 -0.5q-0.453125 -0.5 -0.453125 -1.375q0 -0.578125 0.1875 -0.953125q0.1875 -0.390625 0.546875 -0.625q0.359375 -0.25 0.84375 -0.34375q0.484375 -0.109375 1.078125 -0.109375q0.140625 0 0.265625 0q0.140625 0 0.28125 0.015625q0.046875 -0.421875 0.046875 -0.734375q0 -0.765625 -0.234375 -1.0625q-0.21875 -0.3125 -0.828125 -0.3125q-0.359375 0 -0.8125 0.125q-0.4375 0.109375 -0.71875 0.28125l-0.328125 -0.765625zm2.890625 3.234375q-0.125 -0.015625 -0.265625 -0.015625q-0.125 -0.015625 -0.265625 -0.015625q-0.3125 0 -0.625 0.0625q-0.3125 0.046875 -0.546875 0.1875q-0.234375 0.125 -0.375 0.359375q-0.140625 0.21875 -0.140625 0.5625q0 0.53125 0.25 0.828125q0.265625 0.296875 0.671875 0.296875q0.5625 0 0.859375 -0.265625q0.3125 -0.28125 0.4375 -0.59375l0 -1.40625zm-1.1875 -6.5625l1.046875 0l0 0.28125l-1.09375 1.703125l-0.578125 0l0.625 -1.984375zm3.5968628 8.5q0.265625 0.15625 0.625 0.28125q0.359375 0.109375 0.75 0.109375q0.4375 0 0.75 -0.21875q0.3125 -0.21875 0.3125 -0.71875q0 -0.40625 -0.1875 -0.671875q-0.1875 -0.265625 -0.484375 -0.484375q-0.28125 -0.21875 -0.625 -0.390625q-0.328125 -0.1875 -0.609375 -0.4375q-0.28125 -0.25 -0.46875 -0.59375q-0.1875 -0.359375 -0.1875 -0.890625q0 -0.84375 0.453125 -1.28125q0.46875 -0.4375 1.296875 -0.4375q0.546875 0 0.953125 0.109375q0.40625 0.09375 0.6875 0.265625l-0.25 0.796875q-0.25 -0.125 -0.59375 -0.203125q-0.328125 -0.09375 -0.671875 -0.09375q-0.484375 0 -0.703125 0.203125q-0.21875 0.1875 -0.21875 0.625q0 0.328125 0.1875 0.5625q0.1875 0.234375 0.46875 0.4375q0.296875 0.1875 0.625 0.390625q0.328125 0.1875 0.609375 0.46875q0.296875 0.265625 0.484375 0.65625q0.1875 0.375 0.1875 0.9375q0 0.375 -0.125 0.71875q-0.109375 0.328125 -0.359375 0.578125q-0.25 0.234375 -0.625 0.375q-0.359375 0.15625 -0.84375 0.15625q-0.59375 0 -1.015625 -0.109375q-0.421875 -0.109375 -0.71875 -0.296875l0.296875 -0.84375z" fill-rule="nonzero"/><path fill="#d9ead3" d="m109.543304 157.80315l64.97008 0l0 25.44197c-32.48503 0 -32.48503 9.693863 -64.97008 4.1859894z" fill-rule="evenodd"/><path stroke="#274e13" stroke-width="1.0" stroke-linejoin="round" stroke-linecap="butt" d="m109.543304 157.80315l64.97008 0l0 25.44197c-32.48503 0 -32.48503 9.693863 -64.97008 4.1859894z" fill-rule="evenodd"/><path fill="#274e13" d="m131.0997 165.996l0.96875 0l0 6.25q0 1.6875 -0.671875 2.453125q-0.65625 0.75 -1.859375 0.75q-1.421875 0 -2.0625 -0.734375q-0.640625 -0.734375 -0.640625 -2.25l0 -6.46875l1.0 0l0 5.9375q0 0.71875 0.09375 1.21875q0.09375 0.5 0.296875 0.8125q0.21875 0.296875 0.53125 0.4375q0.328125 0.125 0.796875 0.125q0.875 0 1.203125 -0.609375q0.34375 -0.625 0.34375 -1.984375l0 -5.9375zm-3.328125 -1.25q0 -0.28125 0.171875 -0.453125q0.171875 -0.171875 0.453125 -0.171875q0.28125 0 0.453125 0.171875q0.171875 0.171875 0.171875 0.453125q0 0.28125 -0.171875 0.453125q-0.171875 0.15625 -0.453125 0.15625q-0.28125 0 -0.453125 -0.15625q-0.171875 -0.171875 -0.171875 -0.453125zm2.109375 0q0 -0.28125 0.15625 -0.453125q0.171875 -0.171875 0.453125 -0.171875q0.296875 0 0.453125 0.171875q0.171875 0.171875 0.171875 0.453125q0 0.28125 -0.171875 0.453125q-0.15625 0.15625 -0.453125 0.15625q-0.28125 0 -0.453125 -0.15625q-0.15625 -0.171875 -0.15625 -0.453125zm3.459549 9.71875l2.484375 -4.359375l0.46875 -0.578125l-2.953125 0l0 -0.859375l3.890625 0l0 0.859375l-2.484375 4.390625l-0.453125 0.546875l2.9375 0l0 0.859375l-3.890625 0l0 -0.859375zm8.981857 0.40625q-0.3125 0.296875 -0.8125 0.453125q-0.484375 0.15625 -1.03125 0.15625q-0.625 0 -1.09375 -0.234375q-0.453125 -0.25 -0.765625 -0.703125q-0.296875 -0.46875 -0.4375 -1.109375q-0.125 -0.640625 -0.125 -1.4375q0 -1.703125 0.625 -2.59375q0.625 -0.90625 1.765625 -0.90625q0.375 0 0.734375 0.09375q0.375 0.09375 0.65625 0.375q0.296875 0.28125 0.46875 0.796875q0.1875 0.5 0.1875 1.3125q0 0.21875 -0.015625 0.484375q-0.015625 0.265625 -0.046875 0.546875l-3.375 0q0 0.5625 0.078125 1.03125q0.09375 0.46875 0.296875 0.796875q0.203125 0.328125 0.515625 0.515625q0.3125 0.171875 0.78125 0.171875q0.359375 0 0.703125 -0.125q0.359375 -0.140625 0.546875 -0.328125l0.34375 0.703125zm-0.734375 -3.578125q0.015625 -1.0 -0.296875 -1.453125q-0.296875 -0.46875 -0.828125 -0.46875q-0.609375 0 -0.96875 0.46875q-0.359375 0.453125 -0.4375 1.453125l2.53125 0zm5.6763763 4.03125l0 -4.0625q0 -1.0 -0.234375 -1.4375q-0.234375 -0.453125 -0.84375 -0.453125q-0.53125 0 -0.875 0.328125q-0.34375 0.3125 -0.5 0.78125l0 4.84375l-0.96875 0l0 -6.65625l0.703125 0l0.171875 0.703125l0.03125 0q0.265625 -0.359375 0.6875 -0.609375q0.4375 -0.265625 1.03125 -0.265625q0.4375 0 0.75 0.125q0.328125 0.125 0.546875 0.40625q0.234375 0.28125 0.34375 0.765625q0.109375 0.484375 0.109375 1.21875l0 4.3125l-0.953125 0zm6.4135284 -0.453125q-0.3125 0.296875 -0.8125 0.453125q-0.484375 0.15625 -1.03125 0.15625q-0.625 0 -1.09375 -0.234375q-0.453125 -0.25 -0.765625 -0.703125q-0.296875 -0.46875 -0.4375 -1.109375q-0.125 -0.640625 -0.125 -1.4375q0 -1.703125 0.625 -2.59375q0.625 -0.90625 1.765625 -0.90625q0.375 0 0.734375 0.09375q0.375 0.09375 0.65625 0.375q0.296875 0.28125 0.46875 0.796875q0.1875 0.5 0.1875 1.3125q0 0.21875 -0.015625 0.484375q-0.015625 0.265625 -0.046875 0.546875l-3.375 0q0 0.5625 0.078125 1.03125q0.09375 0.46875 0.296875 0.796875q0.203125 0.328125 0.515625 0.515625q0.3125 0.171875 0.78125 0.171875q0.359375 0 0.703125 -0.125q0.359375 -0.140625 0.546875 -0.328125l0.34375 0.703125zm-0.734375 -3.578125q0.015625 -1.0 -0.296875 -1.453125q-0.296875 -0.46875 -0.828125 -0.46875q-0.609375 0 -0.96875 0.46875q-0.359375 0.453125 -0.4375 1.453125l2.53125 0zm1.5982513 -2.625l0.8125 0l0 -1.328125l0.953125 -0.3125l0 1.640625l1.4375 0l0 0.859375l-1.4375 0l0 3.96875q0 0.59375 0.140625 0.859375q0.140625 0.25 0.46875 0.25q0.265625 0 0.453125 -0.0625q0.1875 -0.0625 0.421875 -0.15625l0.1875 0.765625q-0.296875 0.140625 -0.65625 0.21875q-0.34375 0.09375 -0.734375 0.09375q-0.671875 0 -0.953125 -0.421875q-0.28125 -0.4375 -0.28125 -1.40625l0 -4.109375l-0.8125 0l0 -0.859375z" fill-rule="nonzero"/><path fill="#f4cccc" d="m20.466997 111.938324l64.970085 0l0 25.44197c-32.485043 0 -32.485043 9.693863 -64.970085 4.185974z" fill-rule="evenodd"/><path stroke="#660000" stroke-width="1.0" stroke-linejoin="round" stroke-linecap="butt" d="m20.466997 111.938324l64.970085 0l0 25.44197c-32.485043 0 -32.485043 9.693863 -64.970085 4.185974z" fill-rule="evenodd"/><path fill="#660000" d="m46.853687 126.84993l-2.640625 0l-0.75 2.609375l-0.984375 0l2.8125 -9.46875l0.546875 0l2.8125 9.46875l-1.03125 0l-0.765625 -2.609375zm-2.375 -0.890625l2.140625 0l-0.8125 -2.890625l-0.265625 -1.390625l-0.015625 0l-0.25 1.421875l-0.796875 2.859375zm9.226059 1.203125q0 0.6875 0.015625 1.25q0.015625 0.546875 0.09375 1.078125l-0.65625 0l-0.21875 -0.796875l-0.046875 0q-0.1875 0.390625 -0.59375 0.65625q-0.390625 0.265625 -0.953125 0.265625q-1.078125 0 -1.609375 -0.828125q-0.515625 -0.84375 -0.515625 -2.640625q0 -1.71875 0.640625 -2.59375q0.640625 -0.875 1.78125 -0.875q0.390625 0 0.609375 0.046875q0.234375 0.046875 0.5 0.15625l0 -2.75l0.953125 0l0 7.03125zm-0.953125 -3.3125q-0.1875 -0.15625 -0.421875 -0.234375q-0.234375 -0.078125 -0.625 -0.078125q-0.703125 0 -1.09375 0.640625q-0.390625 0.640625 -0.390625 1.96875q0 0.59375 0.0625 1.078125q0.078125 0.46875 0.234375 0.8125q0.15625 0.34375 0.390625 0.53125q0.25 0.1875 0.609375 0.1875q0.96875 0 1.234375 -1.140625l0 -3.765625zm2.4585571 -0.65625q0.390625 -0.234375 0.9375 -0.359375q0.5625 -0.140625 1.171875 -0.140625q0.5625 0 0.890625 0.171875q0.34375 0.15625 0.53125 0.453125q0.203125 0.28125 0.265625 0.65625q0.0625 0.359375 0.0625 0.75q0 0.796875 -0.046875 1.5625q-0.03125 0.765625 -0.03125 1.4375q0 0.515625 0.03125 0.953125q0.046875 0.421875 0.140625 0.8125l-0.734375 0l-0.234375 -0.796875l-0.046875 0q-0.203125 0.359375 -0.59375 0.609375q-0.390625 0.25 -1.03125 0.25q-0.71875 0 -1.1875 -0.5q-0.453125 -0.5 -0.453125 -1.375q0 -0.578125 0.1875 -0.953125q0.1875 -0.390625 0.546875 -0.625q0.359375 -0.25 0.84375 -0.34375q0.484375 -0.109375 1.078125 -0.109375q0.140625 0 0.265625 0q0.140625 0 0.28125 0.015625q0.046875 -0.421875 0.046875 -0.734375q0 -0.765625 -0.234375 -1.0625q-0.21875 -0.3125 -0.828125 -0.3125q-0.359375 0 -0.8125 0.125q-0.4375 0.109375 -0.71875 0.28125l-0.328125 -0.765625zm2.890625 3.234375q-0.125 -0.015625 -0.265625 -0.015625q-0.125 -0.015625 -0.265625 -0.015625q-0.3125 0 -0.625 0.0625q-0.3125 0.046875 -0.546875 0.1875q-0.234375 0.125 -0.375 0.359375q-0.140625 0.21875 -0.140625 0.5625q0 0.53125 0.25 0.828125q0.265625 0.296875 0.671875 0.296875q0.5625 0 0.859375 -0.265625q0.3125 -0.28125 0.4375 -0.59375l0 -1.40625zm1.8468628 -3.625l0.8125 0l0 -1.328125l0.953125 -0.3125l0 1.640625l1.4375 0l0 0.859375l-1.4375 0l0 3.96875q0 0.59375 0.140625 0.859375q0.140625 0.25 0.46875 0.25q0.265625 0 0.453125 -0.0625q0.1875 -0.0625 0.421875 -0.15625l0.1875 0.765625q-0.296875 0.140625 -0.65625 0.21875q-0.34375 0.09375 -0.734375 0.09375q-0.671875 0 -0.953125 -0.421875q-0.28125 -0.4375 -0.28125 -1.40625l0 -4.109375l-0.8125 0l0 -0.859375z" fill-rule="nonzero"/><path fill="#fce5cd" d="m27.73491 71.018394l0 0c0 -2.9201508 11.290413 -5.2873993 25.217846 -5.2873993c13.927433 0 25.217846 2.3672485 25.217846 5.2873993l0 21.149605c0 2.9201508 -11.290413 5.287407 -25.217846 5.287407c-13.927433 0 -25.217846 -2.3672562 -25.217846 -5.287407z" fill-rule="evenodd"/><path fill="#000000" fill-opacity="0.0" d="m78.1706 71.018394l0 0c0 2.9201508 -11.290413 5.2873993 -25.217846 5.2873993c-13.927433 0 -25.217846 -2.3672485 -25.217846 -5.2873993" fill-rule="evenodd"/><path fill="#000000" fill-opacity="0.0" d="m27.73491 71.018394l0 0c0 -2.9201508 11.290413 -5.2873993 25.217846 -5.2873993c13.927433 0 25.217846 2.3672485 25.217846 5.2873993l0 21.149605c0 2.9201508 -11.290413 5.287407 -25.217846 5.287407c-13.927433 0 -25.217846 -2.3672562 -25.217846 -5.287407z" fill-rule="evenodd"/><path stroke="#783f04" stroke-width="1.0" stroke-linejoin="round" stroke-linecap="butt" d="m78.1706 71.018394l0 0c0 2.9201508 -11.290413 5.2873993 -25.217846 5.2873993c-13.927433 0 -25.217846 -2.3672485 -25.217846 -5.2873993" fill-rule="evenodd"/><path stroke="#783f04" stroke-width="1.0" stroke-linejoin="round" stroke-linecap="butt" d="m27.73491 71.018394l0 0c0 -2.9201508 11.290413 -5.2873993 25.217846 -5.2873993c13.927433 0 25.217846 2.3672485 25.217846 5.2873993l0 21.149605c0 2.9201508 -11.290413 5.287407 -25.217846 5.287407c-13.927433 0 -25.217846 -2.3672562 -25.217846 -5.287407z" fill-rule="evenodd"/><path fill="#783f04" d="m43.06576 84.724396l-0.46875 0l0 4.3125l-1.0 0l0 -9.328125l1.0 0l0 4.34375l0.453125 -0.1875l2.4375 -4.15625l1.140625 0l-2.4375 4.03125l-0.46875 0.421875l0.546875 0.53125l2.703125 4.34375l-1.265625 0l-2.640625 -4.3125zm5.618866 -2.34375l0 4.078125q0 1.0 0.203125 1.4375q0.203125 0.4375 0.75 0.4375q0.28125 0 0.5 -0.109375q0.21875 -0.125 0.390625 -0.3125q0.171875 -0.1875 0.296875 -0.421875q0.140625 -0.234375 0.234375 -0.5l0 -4.609375l0.953125 0l0 4.765625q0 0.484375 0.03125 1.0q0.03125 0.5 0.109375 0.890625l-0.6875 0l-0.234375 -0.9375l-0.046875 0q-0.21875 0.4375 -0.65625 0.765625q-0.421875 0.328125 -1.0625 0.328125q-0.421875 0 -0.75 -0.109375q-0.3125 -0.09375 -0.546875 -0.375q-0.21875 -0.28125 -0.34375 -0.765625q-0.109375 -0.5 -0.109375 -1.25l0 -4.3125l0.96875 0zm5.940628 5.0625q0 0.46875 0.125 0.671875q0.125 0.203125 0.359375 0.203125q0.28125 0 0.65625 -0.140625l0.078125 0.765625q-0.171875 0.109375 -0.484375 0.171875q-0.3125 0.0625 -0.5625 0.0625q-0.5 0 -0.8125 -0.3125q-0.3125 -0.3125 -0.3125 -1.09375l0 -8.0625l0.953125 0l0 7.734375zm5.761692 1.265625q-0.34375 0.25 -0.7656288 0.359375q-0.421875 0.125 -0.890625 0.125q-0.640625 0 -1.078125 -0.234375q-0.4375 -0.25 -0.71875 -0.703125q-0.265625 -0.46875 -0.390625 -1.109375q-0.125 -0.65625 -0.125 -1.4375q0 -1.703125 0.59375 -2.59375q0.609375 -0.90625 1.75 -0.90625q0.515625 0 0.890625 0.09375q0.3750038 0.09375 0.6406288 0.25l-0.265625 0.828125q-0.5312538 -0.296875 -1.1562538 -0.296875q-0.734375 0 -1.09375 0.640625q-0.359375 0.625 -0.359375 1.984375q0 0.546875 0.078125 1.03125q0.078125 0.46875 0.265625 0.828125q0.1875 0.34375 0.46875 0.5625q0.296875 0.203125 0.734375 0.203125q0.359375 0 0.65625 -0.125q0.2968788 -0.125 0.4843788 -0.28125l0.28125 0.78125zm0.96354675 -0.765625q0.265625 0.15625 0.625 0.28125q0.359375 0.109375 0.75 0.109375q0.4375 0 0.75 -0.21875q0.3125 -0.21875 0.3125 -0.71875q0 -0.40625 -0.1875 -0.671875q-0.1875 -0.265625 -0.484375 -0.484375q-0.28125 -0.21875 -0.625 -0.390625q-0.328125 -0.1875 -0.609375 -0.4375q-0.28125 -0.25 -0.46875 -0.59375q-0.1875 -0.359375 -0.1875 -0.890625q0 -0.84375 0.453125 -1.28125q0.46875 -0.4375 1.296875 -0.4375q0.546875 0 0.953125 0.109375q0.40625 0.09375 0.6875 0.265625l-0.25 0.796875q-0.25 -0.125 -0.59375 -0.203125q-0.328125 -0.09375 -0.671875 -0.09375q-0.484375 0 -0.703125 0.203125q-0.21875 0.1875 -0.21875 0.625q0 0.328125 0.1875 0.5625q0.1875 0.234375 0.46875 0.4375q0.296875 0.1875 0.625 0.390625q0.328125 0.1875 0.609375 0.46875q0.296875 0.265625 0.484375 0.65625q0.1875 0.375 0.1875 0.9375q0 0.375 -0.125 0.71875q-0.109375 0.328125 -0.359375 0.578125q-0.25 0.234375 -0.625 0.375q-0.359375 0.15625 -0.84375 0.15625q-0.59375 0 -1.015625 -0.109375q-0.421875 -0.109375 -0.71875 -0.296875l0.296875 -0.84375z" fill-rule="nonzero"/><path fill="#000000" fill-opacity="0.0" d="m78.1706 81.5932l24.913391 0.34645844" fill-rule="evenodd"/><path stroke="#000000" stroke-width="1.0" stroke-linejoin="round" stroke-linecap="butt" d="m78.1706 81.5932l21.486633 0.29880524" fill-rule="evenodd"/><path fill="#000000" stroke="#000000" stroke-width="1.0" stroke-linecap="butt" d="m99.657234 81.892006l-1.1401138 1.1088333l3.1051102 -1.0815125l-3.0738373 -1.1674347z" fill-rule="evenodd"/><path fill="#000000" fill-opacity="0.0" d="m85.43708 127.800995l47.71653 0" fill-rule="evenodd"/><path stroke="#000000" stroke-width="1.0" stroke-linejoin="round" stroke-linecap="butt" d="m85.43707 127.800995l44.28946 0" fill-rule="evenodd"/><path fill="#000000" stroke="#000000" stroke-width="1.0" stroke-linecap="butt" d="m129.72653 127.800995l-1.124588 1.124588l3.0897675 -1.124588l-3.0897675 -1.1245804z" fill-rule="evenodd"/><path fill="#f4cccc" d="m103.08399 19.194225l77.89039 0l0 25.44197c-38.94519 0 -38.94519 9.693859 -77.89039 4.1859856z" fill-rule="evenodd"/><path stroke="#660000" stroke-width="1.0" stroke-linejoin="round" stroke-linecap="butt" d="m103.08399 19.194225l77.89039 0l0 25.44197c-38.94519 0 -38.94519 9.693859 -77.89039 4.1859856z" fill-rule="evenodd"/><path fill="#660000" d="m138.4379 27.387085l1.0 0l0 9.328125l-1.0 0l0 -9.328125zm4.964813 6.375l0.234375 1.4375l0.03125 0l0.265625 -1.453125l1.734375 -6.359375l1.03125 0l-2.828125 9.46875l-0.53125 0l-2.875 -9.46875l1.109375 0l1.828125 6.375z" fill-rule="nonzero"/><path fill="#000000" fill-opacity="0.0" d="m142.02919 48.82218l0 17.259842" fill-rule="evenodd"/><path stroke="#000000" stroke-width="1.0" stroke-linejoin="round" stroke-linecap="butt" d="m142.02919 48.82218l0 13.832756" fill-rule="evenodd"/><path fill="#000000" stroke="#000000" stroke-width="1.0" stroke-linecap="butt" d="m142.02919 62.654938l-1.124588 -1.1245804l1.124588 3.0897675l1.124588 -3.0897675z" fill-rule="evenodd"/><path fill="#efefef" d="m133.16359 127.79921l0 0c0 -4.7835693 3.969513 -8.661415 8.866135 -8.661415l0 0c2.3514557 0 4.606598 0.9125366 6.2693176 2.5368729c1.6627197 1.6243286 2.5968323 3.8273926 2.5968323 6.124542l0 0c0 4.7835693 -3.969513 8.661423 -8.86615 8.661423l0 0c-4.8966217 0 -8.866135 -3.8778534 -8.866135 -8.661423z" fill-rule="evenodd"/><path fill="#000000" fill-opacity="0.0" d="m142.02972 119.137794l0 17.322838m-8.866135 -8.661423l17.732285 0" fill-rule="evenodd"/><path fill="#000000" fill-opacity="0.0" d="m133.16359 127.79921l0 0c0 -4.7835693 3.969513 -8.661415 8.866135 -8.661415l0 0c2.3514557 0 4.606598 0.9125366 6.2693176 2.5368729c1.6627197 1.6243286 2.5968323 3.8273926 2.5968323 6.124542l0 0c0 4.7835693 -3.969513 8.661423 -8.86615 8.661423l0 0c-4.8966217 0 -8.866135 -3.8778534 -8.866135 -8.661423z" fill-rule="evenodd"/><path stroke="#434343" stroke-width="1.0" stroke-linejoin="round" stroke-linecap="butt" d="m142.02972 119.137794l0 17.322838m-8.866135 -8.661423l17.732285 0" fill-rule="evenodd"/><path stroke="#434343" stroke-width="1.0" stroke-linejoin="round" stroke-linecap="butt" d="m133.16359 127.79921l0 0c0 -4.7835693 3.969513 -8.661415 8.866135 -8.661415l0 0c2.3514557 0 4.606598 0.9125366 6.2693176 2.5368729c1.6627197 1.6243286 2.5968323 3.8273926 2.5968323 6.124542l0 0c0 4.7835693 -3.969513 8.661423 -8.86615 8.661423l0 0c-4.8966217 0 -8.866135 -3.8778534 -8.866135 -8.661423z" fill-rule="evenodd"/><path fill="#000000" fill-opacity="0.0" d="m142.02972 136.46063l0 21.354324" fill-rule="evenodd"/><path stroke="#000000" stroke-width="1.0" stroke-linejoin="round" stroke-linecap="butt" d="m142.02974 136.46063l0 17.927246" fill-rule="evenodd"/><path fill="#000000" stroke="#000000" stroke-width="1.0" stroke-linecap="butt" d="m142.02974 154.38788l-1.124588 -1.124588l1.124588 3.0897675l1.1245728 -3.0897675z" fill-rule="evenodd"/><path fill="#000000" fill-opacity="0.0" d="m142.02887 97.7979l0 21.354332" fill-rule="evenodd"/><path stroke="#000000" stroke-width="1.0" stroke-linejoin="round" stroke-linecap="butt" d="m142.02887 97.7979l0 17.927254" fill-rule="evenodd"/><path fill="#000000" stroke="#000000" stroke-width="1.0" stroke-linecap="butt" d="m142.02887 115.72514l-1.124588 -1.1245804l1.124588 3.0897675l1.124588 -3.0897675z" fill-rule="evenodd"/><path fill="#c9daf8" d="m311.08398 71.36756l0 0c0 -2.919487 2.3667297 -5.286194 5.286194 -5.286194l67.31738 0c1.4019775 0 2.7465515 0.55693054 3.737915 1.5482864c0.991333 0.9913559 1.5482788 2.3359222 1.5482788 3.7379074l0 21.144142c0 2.919487 -2.3666992 5.286194 -5.286194 5.286194l-67.31738 0l0 0c-2.919464 0 -5.286194 -2.3667068 -5.286194 -5.286194z" fill-rule="evenodd"/><path stroke="#1c4587" stroke-width="1.0" stroke-linejoin="round" stroke-linecap="butt" d="m311.08398 71.36756l0 0c0 -2.919487 2.3667297 -5.286194 5.286194 -5.286194l67.31738 0c1.4019775 0 2.7465515 0.55693054 3.737915 1.5482864c0.991333 0.9913559 1.5482788 2.3359222 1.5482788 3.7379074l0 21.144142c0 2.919487 -2.3666992 5.286194 -5.286194 5.286194l-67.31738 0l0 0c-2.919464 0 -5.286194 -2.3667068 -5.286194 -5.286194z" fill-rule="evenodd"/><path fill="#1c4587" d="m333.6899 78.33338l-2.28125 0l0 8.40625l-1.0 0l0 -8.40625l-2.296875 0l0 -0.921875l5.578125 0l0 0.921875zm1.1451416 1.75l0.953125 0l0 6.65625l-0.953125 0l0 -6.65625zm-0.1875 -2.03125q0 -0.328125 0.1875 -0.515625q0.1875 -0.203125 0.46875 -0.203125q0.296875 0 0.484375 0.203125q0.203125 0.1875 0.203125 0.515625q0 0.3125 -0.203125 0.5q-0.1875 0.171875 -0.484375 0.171875q-0.28125 0 -0.46875 -0.1875q-0.1875 -0.1875 -0.1875 -0.484375zm2.251587 2.03125l0.8125 0l0 -1.328125l0.953125 -0.3125l0 1.640625l1.4375 0l0 0.859375l-1.4375 0l0 3.96875q0 0.59375 0.140625 0.859375q0.140625 0.25 0.46875 0.25q0.265625 0 0.453125 -0.0625q0.1875 -0.0625 0.421875 -0.15625l0.1875 0.765625q-0.296875 0.140625 -0.65625 0.21875q-0.34375 0.09375 -0.734375 0.09375q-0.671875 0 -0.953125 -0.421875q-0.28125 -0.4375 -0.28125 -1.40625l0 -4.109375l-0.8125 0l0 -0.859375zm5.774597 3.65625l-0.484375 0l0 3.0l-0.96875 0l0 -9.328125l0.96875 0l0 5.671875l0.4375 -0.1875l1.5625 -2.8125l1.0937195 0l-1.5624695 2.6875l-0.46875 0.421875l0.546875 0.515625l1.7187195 3.03125l-1.1562195 0l-1.6875 -3.0zm3.3035583 -0.328125q0 -1.796875 0.609375 -2.640625q0.625 -0.859375 1.765625 -0.859375q1.234375 0 1.8125 0.875q0.578125 0.859375 0.578125 2.625q0 1.8125 -0.625 2.65625q-0.625 0.828125 -1.765625 0.828125q-1.21875 0 -1.796875 -0.859375q-0.578125 -0.875 -0.578125 -2.625zm1.0 0q0 0.578125 0.0625 1.0625q0.078125 0.484375 0.234375 0.828125q0.171875 0.34375 0.4375 0.546875q0.265625 0.1875 0.640625 0.1875q0.703125 0 1.046875 -0.625q0.34375 -0.625 0.34375 -2.0q0 -0.578125 -0.078125 -1.0625q-0.0625 -0.484375 -0.234375 -0.828125q-0.171875 -0.359375 -0.4375 -0.546875q-0.265625 -0.1875 -0.640625 -0.1875q-0.671875 0 -1.03125 0.625q-0.34375 0.625 -0.34375 2.0zm4.9452515 2.234375q0.265625 0.15625 0.625 0.28125q0.359375 0.109375 0.75 0.109375q0.4375 0 0.75 -0.21875q0.3125 -0.21875 0.3125 -0.71875q0 -0.40625 -0.1875 -0.671875q-0.1875 -0.265625 -0.484375 -0.484375q-0.28125 -0.21875 -0.625 -0.390625q-0.328125 -0.1875 -0.609375 -0.4375q-0.28125 -0.25 -0.46875 -0.59375q-0.1875 -0.359375 -0.1875 -0.890625q0 -0.84375 0.453125 -1.28125q0.46875 -0.4375 1.296875 -0.4375q0.546875 0 0.953125 0.109375q0.40625 0.09375 0.6875 0.265625l-0.25 0.796875q-0.25 -0.125 -0.59375 -0.203125q-0.328125 -0.09375 -0.671875 -0.09375q-0.484375 0 -0.703125 0.203125q-0.21875 0.1875 -0.21875 0.625q0 0.328125 0.1875 0.5625q0.1875 0.234375 0.46875 0.4375q0.296875 0.1875 0.625 0.390625q0.328125 0.1875 0.609375 0.46875q0.296875 0.265625 0.484375 0.65625q0.1875 0.375 0.1875 0.9375q0 0.375 -0.125 0.71875q-0.109375 0.328125 -0.359375 0.578125q-0.25 0.234375 -0.625 0.375q-0.359375 0.15625 -0.84375 0.15625q-0.59375 0 -1.015625 -0.109375q-0.421875 -0.109375 -0.71875 -0.296875l0.296875 -0.84375zm4.770508 -5.5625l0.96875 0l0 6.65625l-0.96875 0l0 -6.65625zm0.46875 -2.9375l1.046875 0l0 0.28125l-1.09375 1.703125l-0.578125 0l0.625 -1.984375zm1.5953064 2.9375l0.8125 0l0 -1.328125l0.953125 -0.3125l0 1.640625l1.4375 0l0 0.859375l-1.4375 0l0 3.96875q0 0.59375 0.140625 0.859375q0.140625 0.25 0.46875 0.25q0.265625 0 0.453125 -0.0625q0.1875 -0.0625 0.421875 -0.15625l0.1875 0.765625q-0.296875 0.140625 -0.65625 0.21875q-0.34375 0.09375 -0.734375 0.09375q-0.671875 0 -0.953125 -0.421875q-0.28125 -0.4375 -0.28125 -1.40625l0 -4.109375l-0.8125 0l0 -0.859375zm4.258972 0.390625q0.390625 -0.234375 0.9375 -0.359375q0.5625 -0.140625 1.171875 -0.140625q0.5625 0 0.890625 0.171875q0.34375 0.15625 0.53125 0.453125q0.203125 0.28125 0.265625 0.65625q0.0625 0.359375 0.0625 0.75q0 0.796875 -0.046875 1.5625q-0.03125 0.765625 -0.03125 1.4375q0 0.515625 0.03125 0.953125q0.046875 0.421875 0.140625 0.8125l-0.734375 0l-0.234375 -0.796875l-0.046875 0q-0.203125 0.359375 -0.59375 0.609375q-0.390625 0.25 -1.03125 0.25q-0.71875 0 -1.1875 -0.5q-0.453125 -0.5 -0.453125 -1.375q0 -0.578125 0.1875 -0.953125q0.1875 -0.390625 0.546875 -0.625q0.359375 -0.25 0.84375 -0.34375q0.484375 -0.109375 1.078125 -0.109375q0.140625 0 0.265625 0q0.140625 0 0.28125 0.015625q0.046875 -0.421875 0.046875 -0.734375q0 -0.765625 -0.234375 -1.0625q-0.21875 -0.3125 -0.828125 -0.3125q-0.359375 0 -0.8125 0.125q-0.4375 0.109375 -0.71875 0.28125l-0.328125 -0.765625zm2.890625 3.234375q-0.125 -0.015625 -0.265625 -0.015625q-0.125 -0.015625 -0.265625 -0.015625q-0.3125 0 -0.625 0.0625q-0.3125 0.046875 -0.546875 0.1875q-0.234375 0.125 -0.375 0.359375q-0.140625 0.21875 -0.140625 0.5625q0 0.53125 0.25 0.828125q0.265625 0.296875 0.671875 0.296875q0.5625 0 0.859375 -0.265625q0.3125 -0.28125 0.4375 -0.59375l0 -1.40625zm-1.1875 -6.5625l1.046875 0l0 0.28125l-1.09375 1.703125l-0.578125 0l0.625 -1.984375zm3.5968628 8.5q0.265625 0.15625 0.625 0.28125q0.359375 0.109375 0.75 0.109375q0.4375 0 0.75 -0.21875q0.3125 -0.21875 0.3125 -0.71875q0 -0.40625 -0.1875 -0.671875q-0.1875 -0.265625 -0.484375 -0.484375q-0.28125 -0.21875 -0.625 -0.390625q-0.328125 -0.1875 -0.609375 -0.4375q-0.28125 -0.25 -0.46875 -0.59375q-0.1875 -0.359375 -0.1875 -0.890625q0 -0.84375 0.453125 -1.28125q0.46875 -0.4375 1.296875 -0.4375q0.546875 0 0.953125 0.109375q0.40625 0.09375 0.6875 0.265625l-0.25 0.796875q-0.25 -0.125 -0.59375 -0.203125q-0.328125 -0.09375 -0.671875 -0.09375q-0.484375 0 -0.703125 0.203125q-0.21875 0.1875 -0.21875 0.625q0 0.328125 0.1875 0.5625q0.1875 0.234375 0.46875 0.4375q0.296875 0.1875 0.625 0.390625q0.328125 0.1875 0.609375 0.46875q0.296875 0.265625 0.484375 0.65625q0.1875 0.375 0.1875 0.9375q0 0.375 -0.125 0.71875q-0.109375 0.328125 -0.359375 0.578125q-0.25 0.234375 -0.625 0.375q-0.359375 0.15625 -0.84375 0.15625q-0.59375 0 -1.015625 -0.109375q-0.421875 -0.109375 -0.71875 -0.296875l0.296875 -0.84375z" fill-rule="nonzero"/><path fill="#d9ead3" d="m317.5433 157.80315l64.97009 0l0 25.44197c-32.485046 0 -32.485046 9.693863 -64.97009 4.1859894z" fill-rule="evenodd"/><path stroke="#274e13" stroke-width="1.0" stroke-linejoin="round" stroke-linecap="butt" d="m317.5433 157.80315l64.97009 0l0 25.44197c-32.485046 0 -32.485046 9.693863 -64.97009 4.1859894z" fill-rule="evenodd"/><path fill="#274e13" d="m339.0997 165.996l0.96875 0l0 6.25q0 1.6875 -0.671875 2.453125q-0.65625 0.75 -1.859375 0.75q-1.421875 0 -2.0625 -0.734375q-0.640625 -0.734375 -0.640625 -2.25l0 -6.46875l1.0 0l0 5.9375q0 0.71875 0.09375 1.21875q0.09375 0.5 0.296875 0.8125q0.21875 0.296875 0.53125 0.4375q0.328125 0.125 0.796875 0.125q0.875 0 1.203125 -0.609375q0.34375 -0.625 0.34375 -1.984375l0 -5.9375zm-3.328125 -1.25q0 -0.28125 0.171875 -0.453125q0.171875 -0.171875 0.453125 -0.171875q0.28125 0 0.453125 0.171875q0.171875 0.171875 0.171875 0.453125q0 0.28125 -0.171875 0.453125q-0.171875 0.15625 -0.453125 0.15625q-0.28125 0 -0.453125 -0.15625q-0.171875 -0.171875 -0.171875 -0.453125zm2.109375 0q0 -0.28125 0.15625 -0.453125q0.171875 -0.171875 0.453125 -0.171875q0.296875 0 0.453125 0.171875q0.171875 0.171875 0.171875 0.453125q0 0.28125 -0.171875 0.453125q-0.15625 0.15625 -0.453125 0.15625q-0.28125 0 -0.453125 -0.15625q-0.15625 -0.171875 -0.15625 -0.453125zm3.4595642 9.71875l2.484375 -4.359375l0.46875 -0.578125l-2.953125 0l0 -0.859375l3.890625 0l0 0.859375l-2.484375 4.390625l-0.453125 0.546875l2.9375 0l0 0.859375l-3.890625 0l0 -0.859375zm8.981842 0.40625q-0.3125 0.296875 -0.8125 0.453125q-0.484375 0.15625 -1.03125 0.15625q-0.625 0 -1.09375 -0.234375q-0.453125 -0.25 -0.765625 -0.703125q-0.296875 -0.46875 -0.4375 -1.109375q-0.125 -0.640625 -0.125 -1.4375q0 -1.703125 0.625 -2.59375q0.625 -0.90625 1.765625 -0.90625q0.375 0 0.734375 0.09375q0.375 0.09375 0.65625 0.375q0.296875 0.28125 0.46875 0.796875q0.1875 0.5 0.1875 1.3125q0 0.21875 -0.015625 0.484375q-0.015625 0.265625 -0.046875 0.546875l-3.375 0q0 0.5625 0.078125 1.03125q0.09375 0.46875 0.296875 0.796875q0.203125 0.328125 0.515625 0.515625q0.3125 0.171875 0.78125 0.171875q0.359375 0 0.703125 -0.125q0.359375 -0.140625 0.546875 -0.328125l0.34375 0.703125zm-0.734375 -3.578125q0.015625 -1.0 -0.296875 -1.453125q-0.296875 -0.46875 -0.828125 -0.46875q-0.609375 0 -0.96875 0.46875q-0.359375 0.453125 -0.4375 1.453125l2.53125 0zm5.6763916 4.03125l0 -4.0625q0 -1.0 -0.234375 -1.4375q-0.234375 -0.453125 -0.84375 -0.453125q-0.53125 0 -0.875 0.328125q-0.34375 0.3125 -0.5 0.78125l0 4.84375l-0.96875 0l0 -6.65625l0.703125 0l0.171875 0.703125l0.03125 0q0.265625 -0.359375 0.6875 -0.609375q0.4375 -0.265625 1.03125 -0.265625q0.4375 0 0.75 0.125q0.328125 0.125 0.546875 0.40625q0.234375 0.28125 0.34375 0.765625q0.109375 0.484375 0.109375 1.21875l0 4.3125l-0.953125 0zm6.413513 -0.453125q-0.3125 0.296875 -0.8125 0.453125q-0.484375 0.15625 -1.03125 0.15625q-0.625 0 -1.09375 -0.234375q-0.453125 -0.25 -0.765625 -0.703125q-0.296875 -0.46875 -0.4375 -1.109375q-0.125 -0.640625 -0.125 -1.4375q0 -1.703125 0.625 -2.59375q0.625 -0.90625 1.765625 -0.90625q0.375 0 0.734375 0.09375q0.375 0.09375 0.65625 0.375q0.296875 0.28125 0.46875 0.796875q0.1875 0.5 0.1875 1.3125q0 0.21875 -0.015625 0.484375q-0.015625 0.265625 -0.046875 0.546875l-3.375 0q0 0.5625 0.078125 1.03125q0.09375 0.46875 0.296875 0.796875q0.203125 0.328125 0.515625 0.515625q0.3125 0.171875 0.78125 0.171875q0.359375 0 0.703125 -0.125q0.359375 -0.140625 0.546875 -0.328125l0.34375 0.703125zm-0.734375 -3.578125q0.015625 -1.0 -0.296875 -1.453125q-0.296875 -0.46875 -0.828125 -0.46875q-0.609375 0 -0.96875 0.46875q-0.359375 0.453125 -0.4375 1.453125l2.53125 0zm1.5982666 -2.625l0.8125 0l0 -1.328125l0.953125 -0.3125l0 1.640625l1.4375 0l0 0.859375l-1.4375 0l0 3.96875q0 0.59375 0.140625 0.859375q0.140625 0.25 0.46875 0.25q0.265625 0 0.453125 -0.0625q0.1875 -0.0625 0.421875 -0.15625l0.1875 0.765625q-0.296875 0.140625 -0.65625 0.21875q-0.34375 0.09375 -0.734375 0.09375q-0.671875 0 -0.953125 -0.421875q-0.28125 -0.4375 -0.28125 -1.40625l0 -4.109375l-0.8125 0l0 -0.859375z" fill-rule="nonzero"/><path fill="#f4cccc" d="m228.467 111.938324l64.97008 0l0 25.44197c-32.485046 0 -32.485046 9.693863 -64.97008 4.185974z" fill-rule="evenodd"/><path stroke="#660000" stroke-width="1.0" stroke-linejoin="round" stroke-linecap="butt" d="m228.467 111.938324l64.97008 0l0 25.44197c-32.485046 0 -32.485046 9.693863 -64.97008 4.185974z" fill-rule="evenodd"/><path fill="#660000" d="m254.85368 126.84993l-2.640625 0l-0.75 2.609375l-0.984375 0l2.8125 -9.46875l0.546875 0l2.8125153 9.46875l-1.0312653 0l-0.765625 -2.609375zm-2.375 -0.890625l2.140625 0l-0.8125 -2.890625l-0.265625 -1.390625l-0.015625 0l-0.25 1.421875l-0.796875 2.859375zm9.226059 1.203125q0 0.6875 0.015625 1.25q0.015625 0.546875 0.09375 1.078125l-0.65625 0l-0.21875 -0.796875l-0.046875 0q-0.1875 0.390625 -0.59375 0.65625q-0.390625 0.265625 -0.953125 0.265625q-1.078125 0 -1.609375 -0.828125q-0.515625 -0.84375 -0.515625 -2.640625q0 -1.71875 0.640625 -2.59375q0.640625 -0.875 1.78125 -0.875q0.390625 0 0.609375 0.046875q0.234375 0.046875 0.5 0.15625l0 -2.75l0.953125 0l0 7.03125zm-0.953125 -3.3125q-0.1875 -0.15625 -0.421875 -0.234375q-0.234375 -0.078125 -0.625 -0.078125q-0.703125 0 -1.09375 0.640625q-0.390625 0.640625 -0.390625 1.96875q0 0.59375 0.0625 1.078125q0.078125 0.46875 0.234375 0.8125q0.15625 0.34375 0.390625 0.53125q0.25 0.1875 0.609375 0.1875q0.96875 0 1.234375 -1.140625l0 -3.765625zm2.4585571 -0.65625q0.390625 -0.234375 0.9375 -0.359375q0.5625 -0.140625 1.171875 -0.140625q0.5625 0 0.890625 0.171875q0.34375 0.15625 0.53125 0.453125q0.203125 0.28125 0.265625 0.65625q0.0625 0.359375 0.0625 0.75q0 0.796875 -0.046875 1.5625q-0.03125 0.765625 -0.03125 1.4375q0 0.515625 0.03125 0.953125q0.046875 0.421875 0.140625 0.8125l-0.734375 0l-0.234375 -0.796875l-0.046875 0q-0.203125 0.359375 -0.59375 0.609375q-0.390625 0.25 -1.03125 0.25q-0.71875 0 -1.1875 -0.5q-0.453125 -0.5 -0.453125 -1.375q0 -0.578125 0.1875 -0.953125q0.1875 -0.390625 0.546875 -0.625q0.359375 -0.25 0.84375 -0.34375q0.484375 -0.109375 1.078125 -0.109375q0.140625 0 0.265625 0q0.140625 0 0.28125 0.015625q0.046875 -0.421875 0.046875 -0.734375q0 -0.765625 -0.234375 -1.0625q-0.21875 -0.3125 -0.828125 -0.3125q-0.359375 0 -0.8125 0.125q-0.4375 0.109375 -0.71875 0.28125l-0.328125 -0.765625zm2.890625 3.234375q-0.125 -0.015625 -0.265625 -0.015625q-0.125 -0.015625 -0.265625 -0.015625q-0.3125 0 -0.625 0.0625q-0.3125 0.046875 -0.546875 0.1875q-0.234375 0.125 -0.375 0.359375q-0.140625 0.21875 -0.140625 0.5625q0 0.53125 0.25 0.828125q0.265625 0.296875 0.671875 0.296875q0.5625 0 0.859375 -0.265625q0.3125 -0.28125 0.4375 -0.59375l0 -1.40625zm1.8468628 -3.625l0.8125 0l0 -1.328125l0.953125 -0.3125l0 1.640625l1.4375 0l0 0.859375l-1.4375 0l0 3.96875q0 0.59375 0.140625 0.859375q0.140625 0.25 0.46875 0.25q0.265625 0 0.453125 -0.0625q0.1875 -0.0625 0.421875 -0.15625l0.1875 0.765625q-0.296875 0.140625 -0.65625 0.21875q-0.34375 0.09375 -0.734375 0.09375q-0.671875 0 -0.953125 -0.421875q-0.28125 -0.4375 -0.28125 -1.40625l0 -4.109375l-0.8125 0l0 -0.859375z" fill-rule="nonzero"/><path fill="#fce5cd" d="m235.73491 71.018394l0 0c0 -2.9201508 11.290421 -5.2873993 25.21785 -5.2873993c13.927429 0 25.217834 2.3672485 25.217834 5.2873993l0 21.149605c0 2.9201508 -11.290405 5.287407 -25.217834 5.287407c-13.927429 0 -25.21785 -2.3672562 -25.21785 -5.287407z" fill-rule="evenodd"/><path fill="#000000" fill-opacity="0.0" d="m286.1706 71.018394l0 0c0 2.9201508 -11.290405 5.2873993 -25.217834 5.2873993c-13.927429 0 -25.21785 -2.3672485 -25.21785 -5.2873993" fill-rule="evenodd"/><path fill="#000000" fill-opacity="0.0" d="m235.73491 71.018394l0 0c0 -2.9201508 11.290421 -5.2873993 25.21785 -5.2873993c13.927429 0 25.217834 2.3672485 25.217834 5.2873993l0 21.149605c0 2.9201508 -11.290405 5.287407 -25.217834 5.287407c-13.927429 0 -25.21785 -2.3672562 -25.21785 -5.287407z" fill-rule="evenodd"/><path stroke="#783f04" stroke-width="1.0" stroke-linejoin="round" stroke-linecap="butt" d="m286.1706 71.018394l0 0c0 2.9201508 -11.290405 5.2873993 -25.217834 5.2873993c-13.927429 0 -25.21785 -2.3672485 -25.21785 -5.2873993" fill-rule="evenodd"/><path stroke="#783f04" stroke-width="1.0" stroke-linejoin="round" stroke-linecap="butt" d="m235.73491 71.018394l0 0c0 -2.9201508 11.290421 -5.2873993 25.21785 -5.2873993c13.927429 0 25.217834 2.3672485 25.217834 5.2873993l0 21.149605c0 2.9201508 -11.290405 5.287407 -25.217834 5.287407c-13.927429 0 -25.21785 -2.3672562 -25.21785 -5.287407z" fill-rule="evenodd"/><path fill="#783f04" d="m251.06577 84.724396l-0.46875 0l0 4.3125l-1.0 0l0 -9.328125l1.0 0l0 4.34375l0.453125 -0.1875l2.4375 -4.15625l1.140625 0l-2.4375 4.03125l-0.46875 0.421875l0.546875 0.53125l2.703125 4.34375l-1.265625 0l-2.640625 -4.3125zm5.618866 -2.34375l0 4.078125q0 1.0 0.203125 1.4375q0.203125 0.4375 0.75 0.4375q0.28125 0 0.5 -0.109375q0.21875 -0.125 0.390625 -0.3125q0.171875 -0.1875 0.296875 -0.421875q0.140625 -0.234375 0.234375 -0.5l0 -4.609375l0.953125 0l0 4.765625q0 0.484375 0.03125 1.0q0.03125 0.5 0.109375 0.890625l-0.6875 0l-0.234375 -0.9375l-0.046875 0q-0.21875 0.4375 -0.65625 0.765625q-0.421875 0.328125 -1.0625 0.328125q-0.421875 0 -0.75 -0.109375q-0.3125 -0.09375 -0.546875 -0.375q-0.21875 -0.28125 -0.34375 -0.765625q-0.109375 -0.5 -0.109375 -1.25l0 -4.3125l0.96875 0zm5.940613 5.0625q0 0.46875 0.125 0.671875q0.125 0.203125 0.359375 0.203125q0.28125 0 0.65625 -0.140625l0.078125 0.765625q-0.171875 0.109375 -0.484375 0.171875q-0.3125 0.0625 -0.5625 0.0625q-0.5 0 -0.8125 -0.3125q-0.3125 -0.3125 -0.3125 -1.09375l0 -8.0625l0.953125 0l0 7.734375zm5.761688 1.265625q-0.34375 0.25 -0.765625 0.359375q-0.421875 0.125 -0.890625 0.125q-0.640625 0 -1.078125 -0.234375q-0.4375 -0.25 -0.71875 -0.703125q-0.265625 -0.46875 -0.390625 -1.109375q-0.125 -0.65625 -0.125 -1.4375q0 -1.703125 0.59375 -2.59375q0.609375 -0.90625 1.75 -0.90625q0.515625 0 0.890625 0.09375q0.375 0.09375 0.640625 0.25l-0.265625 0.828125q-0.53125 -0.296875 -1.15625 -0.296875q-0.734375 0 -1.09375 0.640625q-0.359375 0.625 -0.359375 1.984375q0 0.546875 0.078125 1.03125q0.078125 0.46875 0.265625 0.828125q0.1875 0.34375 0.46875 0.5625q0.296875 0.203125 0.734375 0.203125q0.359375 0 0.65625 -0.125q0.296875 -0.125 0.484375 -0.28125l0.28125 0.78125zm0.963562 -0.765625q0.265625 0.15625 0.625 0.28125q0.359375 0.109375 0.75 0.109375q0.4375 0 0.75 -0.21875q0.3125 -0.21875 0.3125 -0.71875q0 -0.40625 -0.1875 -0.671875q-0.1875 -0.265625 -0.484375 -0.484375q-0.28125 -0.21875 -0.625 -0.390625q-0.328125 -0.1875 -0.609375 -0.4375q-0.28125 -0.25 -0.46875 -0.59375q-0.1875 -0.359375 -0.1875 -0.890625q0 -0.84375 0.453125 -1.28125q0.46875 -0.4375 1.296875 -0.4375q0.546875 0 0.953125 0.109375q0.40625 0.09375 0.6875 0.265625l-0.25 0.796875q-0.25 -0.125 -0.59375 -0.203125q-0.328125 -0.09375 -0.671875 -0.09375q-0.484375 0 -0.703125 0.203125q-0.21875 0.1875 -0.21875 0.625q0 0.328125 0.1875 0.5625q0.1875 0.234375 0.46875 0.4375q0.296875 0.1875 0.625 0.390625q0.328125 0.1875 0.609375 0.46875q0.296875 0.265625 0.484375 0.65625q0.1875 0.375 0.1875 0.9375q0 0.375 -0.125 0.71875q-0.109375 0.328125 -0.359375 0.578125q-0.25 0.234375 -0.625 0.375q-0.359375 0.15625 -0.84375 0.15625q-0.59375 0 -1.015625 -0.109375q-0.421875 -0.109375 -0.71875 -0.296875l0.296875 -0.84375z" fill-rule="nonzero"/><path fill="#000000" fill-opacity="0.0" d="m286.1706 81.5932l24.913391 0.34645844" fill-rule="evenodd"/><path stroke="#000000" stroke-width="1.0" stroke-linejoin="round" stroke-linecap="butt" d="m286.1706 81.5932l21.486633 0.29880524" fill-rule="evenodd"/><path fill="#000000" stroke="#000000" stroke-width="1.0" stroke-linecap="butt" d="m307.65723 81.892006l-1.1401062 1.1088333l3.1051025 -1.0815125l-3.073822 -1.1674347z" fill-rule="evenodd"/><path fill="#000000" fill-opacity="0.0" d="m293.43707 127.800995l47.716553 0" fill-rule="evenodd"/><path stroke="#000000" stroke-width="1.0" stroke-linejoin="round" stroke-linecap="butt" d="m293.43707 127.800995l44.28946 0" fill-rule="evenodd"/><path fill="#000000" stroke="#000000" stroke-width="1.0" stroke-linecap="butt" d="m337.72653 127.800995l-1.1246033 1.124588l3.0897827 -1.124588l-3.0897827 -1.1245804z" fill-rule="evenodd"/><path fill="#efefef" d="m341.16357 127.79921l0 0c0 -4.7835693 3.969513 -8.661415 8.86615 -8.661415l0 0c2.3514404 0 4.606598 0.9125366 6.2693176 2.5368729c1.6627197 1.6243286 2.5968323 3.8273926 2.5968323 6.124542l0 0c0 4.7835693 -3.969513 8.661423 -8.86615 8.661423l0 0c-4.896637 0 -8.86615 -3.8778534 -8.86615 -8.661423z" fill-rule="evenodd"/><path fill="#000000" fill-opacity="0.0" d="m350.02972 119.137794l0 17.322838m-8.86615 -8.661423l17.7323 0" fill-rule="evenodd"/><path fill="#000000" fill-opacity="0.0" d="m341.16357 127.79921l0 0c0 -4.7835693 3.969513 -8.661415 8.86615 -8.661415l0 0c2.3514404 0 4.606598 0.9125366 6.2693176 2.5368729c1.6627197 1.6243286 2.5968323 3.8273926 2.5968323 6.124542l0 0c0 4.7835693 -3.969513 8.661423 -8.86615 8.661423l0 0c-4.896637 0 -8.86615 -3.8778534 -8.86615 -8.661423z" fill-rule="evenodd"/><path stroke="#434343" stroke-width="1.0" stroke-linejoin="round" stroke-linecap="butt" d="m350.02972 119.137794l0 17.322838m-8.86615 -8.661423l17.7323 0" fill-rule="evenodd"/><path stroke="#434343" stroke-width="1.0" stroke-linejoin="round" stroke-linecap="butt" d="m341.16357 127.79921l0 0c0 -4.7835693 3.969513 -8.661415 8.86615 -8.661415l0 0c2.3514404 0 4.606598 0.9125366 6.2693176 2.5368729c1.6627197 1.6243286 2.5968323 3.8273926 2.5968323 6.124542l0 0c0 4.7835693 -3.969513 8.661423 -8.86615 8.661423l0 0c-4.896637 0 -8.86615 -3.8778534 -8.86615 -8.661423z" fill-rule="evenodd"/><path fill="#000000" fill-opacity="0.0" d="m350.02972 136.46063l0 21.354324" fill-rule="evenodd"/><path stroke="#000000" stroke-width="1.0" stroke-linejoin="round" stroke-linecap="butt" d="m350.02972 136.46063l0 17.927246" fill-rule="evenodd"/><path fill="#000000" stroke="#000000" stroke-width="1.0" stroke-linecap="butt" d="m350.02972 154.38788l-1.1245728 -1.124588l1.1245728 3.0897675l1.1246033 -3.0897675z" fill-rule="evenodd"/><path fill="#000000" fill-opacity="0.0" d="m350.02887 97.7979l0 21.354332" fill-rule="evenodd"/><path stroke="#000000" stroke-width="1.0" stroke-linejoin="round" stroke-linecap="butt" d="m350.02887 97.7979l0 17.927254" fill-rule="evenodd"/><path fill="#000000" stroke="#000000" stroke-width="1.0" stroke-linecap="butt" d="m350.02887 115.72514l-1.1245728 -1.1245804l1.1245728 3.0897675l1.1245728 -3.0897675z" fill-rule="evenodd"/><path fill="#000000" fill-opacity="0.0" d="m142.02887 97.7979l0 8.202217l80.4232 0l0 -64.91867l127.5768 0l0 24.999928" fill-rule="evenodd"/><path stroke="#000000" stroke-width="1.0" stroke-linejoin="round" stroke-linecap="butt" d="m142.02887 97.7979l0 8.202217l80.4232 0l0 -64.91867l127.5768 0l0 21.572838" fill-rule="evenodd"/><path fill="#000000" stroke="#000000" stroke-width="1.0" stroke-linecap="butt" d="m350.02887 62.654278l-1.1245728 -1.1245842l1.1245728 3.0897675l1.1245728 -3.0897675z" fill-rule="evenodd"/></g></svg>