<svg version="1.1" xmlns="http://www.w3.org/2000/svg" viewBox="0 0 1017 439.75">
  <!-- svg-source:excalidraw -->
  <defs>
    <style>
      @font-face {
        font-family: "Virgil";
        src: url("https://excalidraw.com/FG_Virgil.woff2");
      }
      @font-face {
        font-family: "Cascadia";
        src: url("https://excalidraw.com/Cascadia.woff2");
      }
    </style>
  </defs>
  <g transform="translate(10 65.5) rotate(0 66 181)"><path d="M0 0 C0 0, 0 0, 0 0 M0 0 C0 0, 0 0, 0 0 M0.13314538086761107 12.040858453929006 C4.0641047060290045 7.518807036192519, 7.995064031190398 2.9967556184560316, 10.630089844715727 -0.03449482963534578 M0.13314538086761107 12.040858453929006 C3.787289883686412 7.837246062465934, 7.441434386505213 3.633633671002862, 10.630089844715727 -0.03449482963534578 M0.26629076173522215 24.081716907858013 C5.041601452739391 18.58835035426209, 9.81691214374356 13.094983800666165, 21.260179689431453 -0.06898965927069156 M0.26629076173522215 24.081716907858013 C5.179017490222088 18.430271286096495, 10.091744218708953 12.77882566433498, 21.260179689431453 -0.06898965927069156 M-0.25662288638767805 36.877284942009794 C10.206264219681428 24.841110166867836, 20.669151325750533 12.80493539172588, 31.89026953414718 -0.10348448890603734 M-0.25662288638767805 36.877284942009794 C9.69566539088043 25.428486928284556, 19.64795366814854 13.979688914559315, 31.89026953414718 -0.10348448890603734 M-0.12347750552006431 48.9181433959388 C14.022022150833509 32.645607486914, 28.167521807187082 16.3730715778892, 42.520359378862906 -0.13797931854138312 M-0.12347750552006431 48.9181433959388 C11.89872115857549 35.08818586742865, 23.920919822671046 21.258228338918492, 42.520359378862906 -0.13797931854138312 M0.009667875347545873 60.9590018498678 C16.16521284144713 42.37417331942842, 32.32075780754671 23.78934478898904, 53.15044922357863 -0.1724741481767289 M0.009667875347545873 60.9590018498678 C14.922598634417303 43.803637445559524, 29.83552939348706 26.648273041251244, 53.15044922357863 -0.1724741481767289 M0.14281325621515606 72.99986030379681 C18.308655675719088 52.102449093844214, 36.47449809522302 31.205037883891627, 63.78053906829436 -0.20696897781207468 M0.14281325621515606 72.99986030379681 C13.96959688198835 57.09396524722656, 27.796380507761544 41.18807019065632, 63.78053906829436 -0.20696897781207468 M0.27595863708276624 85.04071875772581 C29.559331114888504 51.35405220237288, 58.84270359269424 17.66738564701994, 74.41062891301009 -0.2414638074474169 M0.27595863708276624 85.04071875772581 C18.41782324743641 64.1708908618941, 36.55968785779005 43.301062966062375, 74.41062891301009 -0.2414638074474169 M-0.24695501104012862 97.8362867918776 C18.35551065031738 76.43659799863823, 36.95797631167489 55.03690920539887, 85.04071875772581 -0.27595863708276624 M-0.24695501104012862 97.8362867918776 C26.746989347823085 66.78330601515957, 53.7409337066863 35.73032523844153, 85.04071875772581 -0.27595863708276624 M-0.11380963017251844 109.87714524580659 C28.371230711007378 77.10885475889728, 56.856271052187275 44.34056427198796, 95.67080860244155 -0.3104534667181156 M-0.11380963017251844 109.87714524580659 C23.473165146672958 82.74343464060473, 47.060139923518435 55.60972403540288, 95.67080860244155 -0.3104534667181156 M0.019335750695091747 121.9180036997356 C34.36589728838612 82.40680441010358, 68.71245882607715 42.89560512047156, 106.30089844715727 -0.3449482963534578 M0.019335750695091747 121.9180036997356 C28.395752260480446 89.27467063673387, 56.7721687702658 56.631337573732125, 106.30089844715727 -0.3449482963534578 M0.15248113156270904 133.9588621536646 C26.18465967088566 104.01226639089072, 52.216838210208614 74.06567062811683, 116.2749292628825 0.375266454233973 M0.15248113156270904 133.9588621536646 C33.89566126158504 95.14177377291921, 67.63884139160737 56.324685392173805, 116.2749292628825 0.375266454233973 M0.2856265124303121 145.99972060759362 C45.635031237470834 93.83119812562782, 90.98443596251136 41.66267564366203, 126.9050191075982 0.34077162459862365 M0.2856265124303121 145.99972060759362 C34.0997681550586 107.1010003446177, 67.91390979768688 68.20228008164179, 126.9050191075982 0.34077162459862365 M-0.23728713569258275 158.7952886417454 C27.25689429126981 127.16685094576522, 54.7510757182322 95.53841324978504, 135.56693186534244 2.5704055356315934 M-0.23728713569258275 158.7952886417454 C32.8985370215122 120.67688338406629, 66.03436117871698 82.55847812638719, 135.56693186534244 2.5704055356315934 M-0.10414175482497967 170.8361470956744 C46.47999458323495 117.24722837469405, 93.06413092129488 63.6583096537137, 135.04401821721953 15.365973569783378 M-0.10414175482497967 170.8361470956744 C43.94595447539871 120.16230805737978, 87.9960507056224 69.48846901908516, 135.04401821721953 15.365973569783378 M0.02900362604263762 182.8770055496034 C50.486789431831944 124.83196286029869, 100.94457523762125 66.78692017099398, 135.17716359808713 27.406832023712383 M0.02900362604263762 182.8770055496034 C45.129919458532704 130.994336839173, 90.23083529102277 79.11166812874258, 135.17716359808713 27.406832023712383 M0.1621490069102549 194.91786400353243 C36.44091608988826 153.183916498345, 72.71968317286627 111.44996899315761, 135.31030897895474 39.44769047764138 M0.1621490069102549 194.91786400353243 C49.33457810699646 138.35145506047823, 98.50700720708267 81.78504611742402, 135.31030897895474 39.44769047764138 M0.295294387777858 206.95872245746142 C39.76803649734166 161.55052698823684, 79.24077860690547 116.14233151901225, 135.44345435982234 51.488548931570385 M0.295294387777858 206.95872245746142 C33.797809446982704 168.41848757090605, 67.30032450618755 129.87825268435068, 135.44345435982234 51.488548931570385 M-0.22761926034503688 219.75429049161318 C51.259777522210776 160.52481586290833, 102.74717430476659 101.29534123420345, 135.57659974068997 63.52940738549939 M-0.22761926034503688 219.75429049161318 C42.12783964286531 171.02990869601217, 84.48329854607566 122.30552690041114, 135.57659974068997 63.52940738549939 M-0.0944738794774338 231.79514894554222 C30.702112146908654 196.36772933052364, 61.49869817329474 160.94030971550507, 135.05368609256706 76.32497541965118 M-0.0944738794774338 231.79514894554222 C31.75102942757917 195.1610880290521, 63.59653273463577 158.52702711256202, 135.05368609256706 76.32497541965118 M0.038671501390183494 243.8360073994712 C39.30746512083619 198.66242782997858, 78.5762587402822 153.48884826048595, 135.1868314734347 88.36583387358019 M0.038671501390183494 243.8360073994712 C28.709075331204012 210.85448061138516, 57.37947916101784 177.8729538232991, 135.1868314734347 88.36583387358019 M0.17181688225778657 255.8768658534002 C35.86238126430957 214.8195681524004, 71.55294564636135 173.7622704514006, 135.3199768543023 100.40669232750918 M0.17181688225778657 255.8768658534002 C28.14298238269317 223.6997207485491, 56.11414788312855 191.52257564369802, 135.3199768543023 100.40669232750918 M0.3049622631254181 267.9177243073292 C38.2259013334003 224.29467402873212, 76.14684040367518 180.67162375013504, 135.4531222351699 112.4475507814382 M0.3049622631254181 267.9177243073292 C43.228953788305546 218.53932054493964, 86.15294531348567 169.16091678255006, 135.4531222351699 112.4475507814382 M-0.217951384997491 280.713292341481 C53.84485057609518 218.52115295959396, 107.90765253718786 156.32901357770692, 135.58626761603753 124.4884092353672 M-0.217951384997491 280.713292341481 C31.406014958502748 244.33408054889782, 63.02998130200299 207.95486875631465, 135.58626761603753 124.4884092353672 M-0.08480600412988792 292.75415079541 C52.77556407244274 231.94525106531003, 105.63593414901537 171.13635133521007, 135.06335396791462 137.28397726951897 M-0.08480600412988792 292.75415079541 C52.923783670159764 231.77474392276537, 105.93237334444942 170.79533705012074, 135.06335396791462 137.28397726951897 M0.04833937673774358 304.79500924933905 C32.66632811023227 267.2723055032361, 65.2843168437268 229.74960175713315, 135.19649934878223 149.324835723448 M0.04833937673774358 304.79500924933905 C33.19157778396307 266.66807487267306, 66.3348161911884 228.54114049600705, 135.19649934878223 149.324835723448 M0.18148475760534666 316.83586770326804 C44.532504732289 265.815855496364, 88.88352470697265 214.79584328945998, 135.32964472964986 161.36569417737698 M0.18148475760534666 316.83586770326804 C28.680849462916136 284.051098920409, 57.180214168226925 251.26633013754997, 135.32964472964986 161.36569417737698 M0.31463013847294974 328.876726157197 C43.47634752016568 279.22485007989576, 86.63806490185841 229.57297400259455, 135.46279011051743 173.406552631306 M0.31463013847294974 328.876726157197 C45.8499881021674 276.4942889442633, 91.38534606586185 224.11185173132964, 135.46279011051743 173.406552631306 M-0.20828350964995934 341.6722941913488 C48.917871998277406 285.15911692680277, 98.04402750620477 228.64593966225675, 135.59593549138506 185.44741108523502 M-0.20828350964995934 341.6722941913488 C35.01525654614241 301.1522465206815, 70.23879660193478 260.6321988500142, 135.59593549138506 185.44741108523502 M-0.07513812878232784 353.7131526452778 C50.161743655976466 295.92223096279463, 100.39862544073526 238.13130928031154, 135.07302184326215 198.24297911938677 M-0.07513812878232784 353.7131526452778 C35.29679902861523 313.0223936372007, 70.6687361860128 272.33163462912364, 135.07302184326215 198.24297911938677 M2.0261843390568117 363.4898823585385 C32.12022358642146 328.8706503627011, 62.2142628337861 294.2514183668637, 135.20616722412979 210.2838375733158 M2.0261843390568117 363.4898823585385 C33.25206420250004 327.56861667595473, 64.47794406594326 291.64735099337094, 135.20616722412979 210.2838375733158 M12.656274183772524 363.45538752890315 C43.57743748429705 327.884658153458, 74.49860078482158 292.31392877801284, 135.33931260499736 222.32469602724478 M12.656274183772524 363.45538752890315 C53.675570133112046 316.2680853823342, 94.69486608245157 269.0807832357653, 135.33931260499736 222.32469602724478 M23.286364028488265 363.4208926992678 C47.855450839839776 335.1573914372187, 72.42453765119129 306.89389017516953, 135.472457985865 234.3655544811738 M23.286364028488265 363.4208926992678 C61.86118174786355 319.0456410805893, 100.43599946723883 274.67038946191076, 135.472457985865 234.3655544811738 M33.91645387320398 363.38639786963245 C57.105445702241795 336.7105142742012, 80.29443753127961 310.03463067877, 135.60560336673262 246.40641293510282 M33.91645387320398 363.38639786963245 C67.52090015573708 324.72890452405085, 101.1253464382702 286.0714111784693, 135.60560336673262 246.40641293510282 M44.54654371791969 363.3519030399971 C71.98689647045637 331.78538815047887, 99.42724922299305 300.21887326096055, 135.08268971860969 259.2019809692546 M44.54654371791969 363.3519030399971 C63.21027399565939 341.88173736759114, 81.8740042733991 320.4115716951852, 135.08268971860969 259.2019809692546 M55.17663356263543 363.3174082103618 C77.70531986582367 337.40111923098135, 100.23400616901189 311.48483025160095, 135.21583509947732 271.24283942318357 M55.17663356263543 363.3174082103618 C86.12424963365416 327.7162484034567, 117.07186570467287 292.1150885965515, 135.21583509947732 271.24283942318357 M65.80672340735117 363.2829133807264 C80.02895193338802 346.9221110040962, 94.25118045942487 330.56130862746596, 135.34898048034495 283.28369787711256 M65.80672340735117 363.2829133807264 C90.21113825259498 335.20884554604254, 114.61555309783878 307.13477771135865, 135.34898048034495 283.28369787711256 M75.7807542230764 364.0031281313138 C88.20844068201932 349.7067102540976, 100.63612714096223 335.4102923768813, 135.48212586121255 295.3245563310416 M75.7807542230764 364.0031281313138 C93.71897535616876 343.3675652580601, 111.65719648926112 322.7320023848064, 135.48212586121255 295.3245563310416 M86.41084406779208 363.96863330167855 C101.84301167255512 346.2159552342196, 117.27517927731814 328.4632771667607, 135.61527124208015 307.3654147849706 M86.41084406779208 363.96863330167855 C102.09216258218939 345.929339899146, 117.77348109658669 327.8900464966134, 135.61527124208015 307.3654147849706 M97.04093391250782 363.9341384720432 C109.14152490338776 350.01400088743173, 121.24211589426768 336.0938633028203, 135.09235759395727 320.1609828191224 M97.04093391250782 363.9341384720432 C105.80662647796834 353.85036267732534, 114.57231904342886 343.7665868826075, 135.09235759395727 320.1609828191224 M107.67102375722357 363.8996436424078 C118.27595110232379 351.7000702637303, 128.880878447424 339.5004968850529, 135.22550297482488 332.2018412730514 M107.67102375722357 363.8996436424078 C117.61519327258527 352.46018519588546, 127.559362787947 341.02072674936306, 135.22550297482488 332.2018412730514 M118.30111360193928 363.8651488127725 C124.01448580122657 357.29266593601756, 129.72785800051386 350.72018305926264, 135.35864835569248 344.2426997269804 M118.30111360193928 363.8651488127725 C125.05181395881775 356.0993563956039, 131.80251431569621 348.3335639784353, 135.35864835569248 344.2426997269804 M128.931203446655 363.83065398313715 C130.48413531334 362.04421022513594, 132.03706718002505 360.25776646713473, 135.49179373656008 356.2835581809094 M128.931203446655 363.83065398313715 C131.16107553527277 361.2654795802473, 133.39094762389055 358.7003051773575, 135.49179373656008 356.2835581809094" stroke="#e73b2b" stroke-width="1" fill="none"></path><path d="M0 0 C49.951522693410524 0, 99.90304538682105 0, 132 0 M0 0 C41.52141505144537 0, 83.04283010289075 0, 132 0 M132 0 C132 103.51418317202479, 132 207.02836634404957, 132 362 M132 0 C132 81.33416312988848, 132 162.66832625977696, 132 362 M132 362 C83.14962102435528 362, 34.29924204871057 362, 0 362 M132 362 C85.87633992768824 362, 39.752679855376485 362, 0 362 M0 362 C0 260.55547776576134, 0 159.11095553152262, 0 0 M0 362 C0 226.7285636657849, 0 91.45712733156978, 0 0" stroke="#e73b2b" stroke-width="2" fill="none"></path></g><g transform="translate(183 182.5) rotate(0 66 122.5)"><path d="M0 0 C0 0, 0 0, 0 0 M0 0 C0 0, 0 0, 0 0 M0.13314538086761107 12.040858453929006 C3.785205006005296 7.839644439883211, 7.437264631142981 3.6384304258374147, 10.630089844715727 -0.03449482963534578 M0.13314538086761107 12.040858453929006 C3.367954522529774 8.319636213971144, 6.6027636641919365 4.59841397401328, 10.630089844715727 -0.03449482963534578 M0.26629076173522215 24.081716907858013 C6.765804895094708 16.60488118655482, 13.265319028454194 9.12804546525163, 21.260179689431453 -0.06898965927069156 M0.26629076173522215 24.081716907858013 C8.263677690615477 14.881775644551912, 16.261064619495734 5.68183438124581, 21.260179689431453 -0.06898965927069156 M-0.25662288638767805 36.877284942009794 C6.313252179659162 29.319508226640465, 12.883127245706001 21.761731511271137, 31.89026953414718 -0.10348448890603734 M-0.25662288638767805 36.877284942009794 C7.686558390592806 27.73970014814201, 15.62973966757329 18.602115354274225, 31.89026953414718 -0.10348448890603734 M-0.12347750552006431 48.9181433959388 C16.541102123498735 29.74773747109676, 33.205681752517535 10.577331546254719, 42.520359378862906 -0.13797931854138312 M-0.12347750552006431 48.9181433959388 C13.02345828158643 33.79432381468821, 26.170394068692925 18.670504233437622, 42.520359378862906 -0.13797931854138312 M0.009667875347545873 60.9590018498678 C12.460457532956951 46.63600678279985, 24.911247190566357 32.313011715731896, 53.15044922357863 -0.1724741481767289 M0.009667875347545873 60.9590018498678 C11.547137580821868 47.686661201420655, 23.08460728629619 34.41432055297351, 53.15044922357863 -0.1724741481767289 M0.14281325621515606 72.99986030379681 C23.477581696185606 46.15627990063692, 46.812350136156056 19.312699497477027, 63.78053906829436 -0.20696897781207468 M0.14281325621515606 72.99986030379681 C17.17187491177202 53.41016577062549, 34.20093656732888 33.82047123745417, 63.78053906829436 -0.20696897781207468 M0.27595863708276624 85.04071875772581 C18.467874442073345 64.1133135488401, 36.659790247063924 43.18590833995437, 74.41062891301009 -0.2414638074474169 M0.27595863708276624 85.04071875772581 C21.47333116557665 60.65593108485192, 42.67070369407053 36.27114341197803, 74.41062891301009 -0.2414638074474169 M-0.24695501104012862 97.8362867918776 C17.914074445610094 76.94441226233704, 36.07510390226032 56.05253773279649, 85.04071875772581 -0.27595863708276624 M-0.24695501104012862 97.8362867918776 C18.606983789529554 76.14731124402385, 37.46092259009924 54.458335696170124, 85.04071875772581 -0.27595863708276624 M-0.11380963017251844 109.87714524580659 C24.4333109409477 81.63891325254494, 48.980431512067916 53.4006812592833, 95.67080860244155 -0.3104534667181156 M-0.11380963017251844 109.87714524580659 C22.425319367547505 83.94884332055054, 44.96444836526753 58.02054139529449, 95.67080860244155 -0.3104534667181156 M0.019335750695091747 121.9180036997356 C28.306520164409925 89.37732042096351, 56.59370457812476 56.83663714219141, 106.30089844715727 -0.3449482963534578 M0.019335750695091747 121.9180036997356 C31.37212225008781 85.85074863248883, 62.72490874948053 49.783493565242054, 106.30089844715727 -0.3449482963534578 M0.15248113156270904 133.9588621536646 C46.196853136044865 80.99087126937683, 92.24122514052702 28.022880385089053, 116.2749292628825 0.375266454233973 M0.15248113156270904 133.9588621536646 C30.469301354315053 99.0833499620113, 60.7861215770674 64.207837770358, 116.2749292628825 0.375266454233973 M0.2856265124303121 145.99972060759362 C41.29256082624969 98.82663889598865, 82.29949514006907 51.653557184383686, 126.9050191075982 0.34077162459862365 M0.2856265124303121 145.99972060759362 C35.70789149655681 105.25106605764347, 71.13015648068331 64.50241150769332, 126.9050191075982 0.34077162459862365 M-0.23728713569258275 158.7952886417454 C27.822266654941302 126.51646444028167, 55.88182044557519 94.23764023881793, 135.56693186534244 2.5704055356315934 M-0.23728713569258275 158.7952886417454 C36.85297272482208 116.12782548259182, 73.94323258533674 73.46036232343822, 135.56693186534244 2.5704055356315934 M-0.10414175482497967 170.8361470956744 C46.45843694395516 117.27202760185578, 93.02101564273529 63.707908108037174, 135.04401821721953 15.365973569783378 M-0.10414175482497967 170.8361470956744 C44.46112359925085 119.56967377292455, 89.02638895332667 68.3032004501747, 135.04401821721953 15.365973569783378 M0.02900362604263762 182.8770055496034 C45.71186306854073 130.32488729543562, 91.39472251103882 77.77276904126784, 135.17716359808713 27.406832023712383 M0.02900362604263762 182.8770055496034 C53.46372021012012 121.40739574247212, 106.89843679419761 59.93778593534083, 135.17716359808713 27.406832023712383 M0.1621490069102549 194.91786400353243 C47.13594514574127 140.880692958181, 94.10974128457228 86.84352191282952, 135.31030897895474 39.44769047764138 M0.1621490069102549 194.91786400353243 C35.769742573642965 153.95601330719705, 71.37733614037568 112.99416261086166, 135.31030897895474 39.44769047764138 M0.295294387777858 206.95872245746142 C34.501603137898144 167.60886554367545, 68.70791188801843 128.25900862988948, 135.44345435982234 51.488548931570385 M0.295294387777858 206.95872245746142 C36.228269252807905 165.62256339526422, 72.16124411783795 124.28640433306704, 135.44345435982234 51.488548931570385 M-0.22761926034503688 219.75429049161318 C42.324548432775444 170.80362111867686, 84.87671612589592 121.85295174574057, 135.57659974068997 63.52940738549939 M-0.22761926034503688 219.75429049161318 C35.55090748163735 178.5958036707246, 71.32943422361974 137.437316849836, 135.57659974068997 63.52940738549939 M-0.0944738794774338 231.79514894554222 C43.852767845507046 181.23963048061512, 87.80000957049153 130.68411201568802, 135.05368609256706 76.32497541965118 M-0.0944738794774338 231.79514894554222 C45.40851164005574 179.44995196963617, 90.91149715958892 127.10475499373013, 135.05368609256706 76.32497541965118 M0.038671501390183494 243.8360073994712 C38.299147701250554 199.8223643339205, 76.55962390111092 155.80872126836977, 135.1868314734347 88.36583387358019 M0.038671501390183494 243.8360073994712 C50.896982334964925 185.33021337190084, 101.75529316853967 126.82441934433045, 135.1868314734347 88.36583387358019 M5.420289114181855 249.83918921161805 C49.39151281034403 199.25608264470526, 93.36273650650621 148.67297607779244, 135.3199768543023 100.40669232750918 M5.420289114181855 249.83918921161805 C53.99630998644121 193.95886945166254, 102.57233085870057 138.07854969170702, 135.3199768543023 100.40669232750918 M16.050378958897582 249.8046943819827 C46.9865584284792 214.2166908800568, 77.92273789806082 178.6286873781309, 135.4531222351699 112.4475507814382 M16.050378958897582 249.8046943819827 C41.44918536061381 220.58670991632562, 66.84799176233005 191.36872545066853, 135.4531222351699 112.4475507814382 M26.680468803613323 249.77019955234738 C68.96446535203913 201.12802579199612, 111.24846190046492 152.48585203164487, 135.58626761603753 124.4884092353672 M26.680468803613323 249.77019955234738 C65.65354289481921 204.93680638554045, 104.6266169860251 160.10341321873352, 135.58626761603753 124.4884092353672 M37.31055864832902 249.735704722712 C67.0729809758206 215.49795435479652, 96.83540330331216 181.26020398688104, 135.06335396791462 137.28397726951897 M37.31055864832902 249.735704722712 C61.493498127875355 221.9164151517042, 85.67643760742169 194.09712558069643, 135.06335396791462 137.28397726951897 M47.94064849304476 249.70120989307668 C81.14921311948584 211.4991262976617, 114.35777774592692 173.2970427022467, 135.19649934878223 149.324835723448 M47.94064849304476 249.70120989307668 C81.33196360387856 211.28889591401196, 114.72327871471238 172.87658193494724, 135.19649934878223 149.324835723448 M58.5707383377605 249.6667150634413 C77.24790274379492 228.18109519426656, 95.92506714982935 206.69547532509182, 135.32964472964986 161.36569417737698 M58.5707383377605 249.6667150634413 C83.06673514656032 221.48729423121134, 107.56273195536012 193.30787339898137, 135.32964472964986 161.36569417737698 M69.2008281824762 249.63222023380598 C91.2359549319736 224.28370657207358, 113.271081681471 198.93519291034121, 135.46279011051743 173.406552631306 M69.2008281824762 249.63222023380598 C92.83929743194045 222.43927201415698, 116.4777666814047 195.24632379450796, 135.46279011051743 173.406552631306 M79.83091802719194 249.59772540417063 C99.94502087563644 226.45909694772595, 120.05912372408093 203.3204684912813, 135.59593549138506 185.44741108523502 M79.83091802719194 249.59772540417063 C98.27758706239146 228.37726012761505, 116.724256097591 207.15679485105946, 135.59593549138506 185.44741108523502 M90.46100787190767 249.56323057453528 C102.60157782659044 235.59710245301162, 114.74214778127322 221.63097433148792, 135.07302184326215 198.24297911938677 M90.46100787190767 249.56323057453528 C103.95291476641448 234.04256712992733, 117.44482166092128 218.52190368531936, 135.07302184326215 198.24297911938677 M101.09109771662341 249.52873574489993 C111.41269137081602 237.6551004929439, 121.73428502500863 225.78146524098787, 135.20616722412979 210.2838375733158 M101.09109771662341 249.52873574489993 C113.00745985616688 235.8205292105646, 124.92382199571034 222.1123226762292, 135.20616722412979 210.2838375733158 M111.72118756133912 249.49424091526458 C119.71125235427627 240.3027228058208, 127.70131714721342 231.11120469637703, 135.33931260499736 222.32469602724478 M111.72118756133912 249.49424091526458 C117.77186725416517 242.53373015442375, 123.82254694699124 235.57321939358292, 135.33931260499736 222.32469602724478 M122.35127740605485 249.45974608562923 C127.28230674407332 243.78724572009284, 132.2133360820918 238.11474535455648, 135.472457985865 234.3655544811738 M122.35127740605485 249.45974608562923 C126.36149284854515 244.84652093443856, 130.37170829103545 240.2332957832479, 135.472457985865 234.3655544811738" stroke="#e73b2b" stroke-width="1" fill="none"></path><path d="M0 0 C51.702923437580466 0, 103.40584687516093 0, 132 0 M0 0 C43.445150456205006 0, 86.89030091241001 0, 132 0 M132 0 C132 92.94208029238507, 132 185.88416058477014, 132 245 M132 0 C132 54.665616516489536, 132 109.33123303297907, 132 245 M132 245 C87.99674270488322 245, 43.993485409766436 245, 0 245 M132 245 C80.06713065169751 245, 28.134261303395036 245, 0 245 M0 245 C0 154.7951041427441, 0 64.59020828548816, 0 0 M0 245 C0 160.05766686378047, 0 75.11533372756091, 0 0" stroke="#e73b2b" stroke-width="2" fill="none"></path></g><g transform="translate(355 281.5) rotate(0 66 73)"><path d="M0 0 C0 0, 0 0, 0 0 M0 0 C0 0, 0 0, 0 0 M0.13314538086761107 12.040858453929006 C3.6381969650676425 8.00875784578534, 7.143248549267674 3.976657237641673, 10.630089844715727 -0.03449482963534578 M0.13314538086761107 12.040858453929006 C3.3914770837973816 8.292576602631968, 6.649808786727152 4.544294751334927, 10.630089844715727 -0.03449482963534578 M0.26629076173522215 24.081716907858013 C7.150977111379052 16.161791237602014, 14.035663461022882 8.241865567346014, 21.260179689431453 -0.06898965927069156 M0.26629076173522215 24.081716907858013 C5.035486433297681 18.595384879437376, 9.80468210486014 13.109052851016736, 21.260179689431453 -0.06898965927069156 M-0.25662288638767805 36.877284942009794 C9.72527629485033 25.394423479848328, 19.707175476088338 13.911562017686862, 31.89026953414718 -0.10348448890603734 M-0.25662288638767805 36.877284942009794 C9.25472519147199 25.935730603157758, 18.76607326933166 14.994176264305718, 31.89026953414718 -0.10348448890603734 M-0.12347750552006431 48.9181433959388 C9.892006885466103 37.39664656953316, 19.90749127645227 25.87514974312752, 42.520359378862906 -0.13797931854138312 M-0.12347750552006431 48.9181433959388 C8.636026700697677 38.84148649418636, 17.39553090691542 28.764829592433923, 42.520359378862906 -0.13797931854138312 M0.009667875347545873 60.9590018498678 C18.880928369863767 39.250099972538415, 37.75218886437999 17.541198095209026, 53.15044922357863 -0.1724741481767289 M0.009667875347545873 60.9590018498678 C13.879305254443917 45.003809189343734, 27.74894263354029 29.04861652881966, 53.15044922357863 -0.1724741481767289 M0.14281325621515606 72.99986030379681 C13.94543330385683 57.12176226411448, 27.748053351498505 41.24366422443215, 63.78053906829436 -0.20696897781207468 M0.14281325621515606 72.99986030379681 C22.004028103720703 47.85140939975557, 43.86524295122625 22.70295849571432, 63.78053906829436 -0.20696897781207468 M0.27595863708276624 85.04071875772581 C26.070340922374992 55.36767629294437, 51.86472320766722 25.694633828162928, 74.41062891301009 -0.2414638074474169 M0.27595863708276624 85.04071875772581 C27.627679193299453 53.57616354671667, 54.97939974951614 22.111608335707537, 74.41062891301009 -0.2414638074474169 M-0.24695501104012862 97.8362867918776 C20.96915098431699 73.42994873056651, 42.18525697967411 49.023610669255426, 85.04071875772581 -0.27595863708276624 M-0.24695501104012862 97.8362867918776 C20.87405061584387 73.53934918997307, 41.99505624272787 49.24241158806854, 85.04071875772581 -0.27595863708276624 M-0.11380963017251844 109.87714524580659 C27.01580132524487 78.66809790249744, 54.145412280662256 47.45905055918829, 95.67080860244155 -0.3104534667181156 M-0.11380963017251844 109.87714524580659 C32.818224835325125 71.99317321118468, 65.75025930082276 34.10920117656276, 95.67080860244155 -0.3104534667181156 M0.019335750695091747 121.9180036997356 C28.63613037118485 88.99814725239204, 57.25292499167461 56.07829080504848, 106.30089844715727 -0.3449482963534578 M0.019335750695091747 121.9180036997356 C24.977544412130374 93.20686895479069, 49.93575307356566 64.49573420984578, 106.30089844715727 -0.3449482963534578 M0.15248113156270904 133.9588621536646 C43.0401652295243 84.6222253084947, 85.92784932748589 35.285588463324814, 116.2749292628825 0.375266454233973 M0.15248113156270904 133.9588621536646 C43.191305865013625 84.44835789638049, 86.23013059846454 34.93785363909636, 116.2749292628825 0.375266454233973 M0.2856265124303121 145.99972060759362 C35.89552457530743 105.03521889169916, 71.50542263818454 64.0707171758047, 126.9050191075982 0.34077162459862365 M0.2856265124303121 145.99972060759362 C29.79923438240428 112.04819853086622, 59.312842252378246 78.0966764541388, 126.9050191075982 0.34077162459862365 M10.915716357146039 145.96522577795827 C51.877997111709625 98.84351211019116, 92.84027786627321 51.721798442424046, 135.56693186534244 2.5704055356315934 M10.915716357146039 145.96522577795827 C60.19997272311718 89.27017428116416, 109.48422908908832 32.57512278437005, 135.56693186534244 2.5704055356315934 M21.545806201861765 145.93073094832295 C50.10443534250193 113.07778623138921, 78.66306448314208 80.22484151445548, 135.04401821721953 15.365973569783378 M21.545806201861765 145.93073094832295 C53.47956295927843 109.19514605071038, 85.4133197166951 72.45956115309781, 135.04401821721953 15.365973569783378 M32.1758960465775 145.89623611868757 C62.82254564761966 110.64129863047631, 93.46919524866183 75.38636114226505, 135.17716359808713 27.406832023712383 M32.1758960465775 145.89623611868757 C55.34654748192831 119.24145073272986, 78.51719891727912 92.58666534677215, 135.17716359808713 27.406832023712383 M42.80598589129322 145.86174128905225 C62.360873933263434 123.36641587882579, 81.91576197523364 100.87109046859935, 135.31030897895474 39.44769047764138 M42.80598589129322 145.86174128905225 C64.03746989058226 121.43771285785175, 85.2689538898713 97.01368442665127, 135.31030897895474 39.44769047764138 M53.436075736008945 145.82724645941687 C80.22039139277598 115.01541591883704, 107.00470704954301 84.2035853782572, 135.44345435982234 51.488548931570385 M53.436075736008945 145.82724645941687 C72.06922195514849 124.39226372178912, 90.70236817428805 102.95728098416137, 135.44345435982234 51.488548931570385 M64.06616558072469 145.79275162978155 C89.49506873006459 116.54014481649807, 114.92397187940449 87.2875380032146, 135.57659974068997 63.52940738549939 M64.06616558072469 145.79275162978155 C81.11308942574118 126.18250899817207, 98.16001327075769 106.57226636656259, 135.57659974068997 63.52940738549939 M74.04019639644989 146.51296638036897 C91.14876393301672 126.83181079349549, 108.25733146958356 107.15065520662203, 135.05368609256706 76.32497541965118 M74.04019639644989 146.51296638036897 C88.13037958409186 130.304064789349, 102.22056277173382 114.09516319832909, 135.05368609256706 76.32497541965118 M84.67028624116563 146.47847155073362 C102.01446750413791 126.52627337669571, 119.3586487671102 106.57407520265782, 135.1868314734347 88.36583387358019 M84.67028624116563 146.47847155073362 C98.80010440096629 130.22397513992124, 112.92992256076695 113.96947872910886, 135.1868314734347 88.36583387358019 M95.30037608588134 146.44397672109827 C108.8096899894809 130.90328880316582, 122.31900389308046 115.36260088523335, 135.3199768543023 100.40669232750918 M95.30037608588134 146.44397672109827 C104.3385698759106 136.0467241267075, 113.37676366593985 125.64947153231672, 135.3199768543023 100.40669232750918 M105.93046593059708 146.40948189146295 C117.67404412859322 132.90004054475875, 129.41762232658937 119.39059919805453, 135.4531222351699 112.4475507814382 M105.93046593059708 146.40948189146295 C112.903076589008 138.38841087417455, 119.87568724741891 130.36733985688613, 135.4531222351699 112.4475507814382 M116.56055577531282 146.3749870618276 C122.09308379804521 140.01054161241134, 127.6256118207776 133.64609616299506, 135.58626761603753 124.4884092353672 M116.56055577531282 146.3749870618276 C121.55667222609524 140.62761253805033, 126.55278867687767 134.88023801427306, 135.58626761603753 124.4884092353672 M127.19064562002852 146.34049223219225 C128.8137169770949 144.47336222035776, 130.4367883341613 142.60623220852327, 135.06335396791462 137.28397726951897 M127.19064562002852 146.34049223219225 C128.7764163412859 144.5162716933617, 130.36218706254328 142.6920511545311, 135.06335396791462 137.28397726951897" stroke="#e73b2b" stroke-width="1" fill="none"></path><path d="M0 0 C35.825815472379325 0, 71.65163094475865 0, 132 0 M0 0 C46.79190491102636 0, 93.58380982205271 0, 132 0 M132 0 C132 34.202561491914096, 132 68.40512298382819, 132 146 M132 0 C132 33.6557555584237, 132 67.3115111168474, 132 146 M132 146 C97.57639483474195 146, 63.152789669483894 146, 0 146 M132 146 C94.97512039281428 146, 57.95024078562855 146, 0 146 M0 146 C0 93.55849649291486, 0 41.11699298582971, 0 0 M0 146 C0 116.45181457716971, 0 86.90362915433943, 0 0" stroke="#e73b2b" stroke-width="2" fill="none"></path></g><g transform="translate(27 11) rotate(0 47 11.5)"><text x="47" y="18" font-family="Helvetica, Segoe UI Emoji" font-size="20px" fill="#162d4a" text-anchor="middle" style="white-space: pre;" direction="ltr">Algoritmus</text></g><g transform="translate(188.5 11) rotate(0 59.5 11.5)"><text x="59.5" y="18" font-family="Helvetica, Segoe UI Emoji" font-size="20px" fill="#162d4a" text-anchor="middle" style="white-space: pre;" direction="ltr">Adatstruktúra</text></g><g transform="translate(343.5 10) rotate(0 72.5 11.5)"><text x="72.5" y="18" font-family="Helvetica, Segoe UI Emoji" font-size="20px" fill="#162d4a" text-anchor="middle" style="white-space: pre;" direction="ltr">Párhuzamosítás</text></g><g transform="translate(700 360.75) rotate(0 66 34.5)"><path d="M0 0 C0 0, 0 0, 0 0 M0 0 C0 0, 0 0, 0 0 M0.13314538086761107 12.040858453929006 C4.1926578020264085 7.370923615906657, 8.252170223185207 2.700988777884307, 10.630089844715727 -0.03449482963534578 M0.13314538086761107 12.040858453929006 C2.241903562251111 9.615009663596597, 4.350661743634611 7.1891608732641865, 10.630089844715727 -0.03449482963534578 M0.26629076173522215 24.081716907858013 C6.14402970793813 17.32015171825368, 12.021768654141038 10.558586528649345, 21.260179689431453 -0.06898965927069156 M0.26629076173522215 24.081716907858013 C6.313319276888561 17.12540634646104, 12.3603477920419 10.169095785064068, 21.260179689431453 -0.06898965927069156 M-0.25662288638767805 36.877284942009794 C9.425510041139683 25.739265107668054, 19.107642968667044 14.60124527332631, 31.89026953414718 -0.10348448890603734 M-0.25662288638767805 36.877284942009794 C12.043855286768547 22.72720345789927, 24.344333459924773 8.577121973788753, 31.89026953414718 -0.10348448890603734 M-0.12347750552006431 48.9181433959388 C11.920356711193985 35.06329701122356, 23.964190927908035 21.20845062650832, 42.520359378862906 -0.13797931854138312 M-0.12347750552006431 48.9181433959388 C9.151905643726304 38.24803565617566, 18.42728879297267 27.577927916412527, 42.520359378862906 -0.13797931854138312 M0.009667875347545873 60.9590018498678 C14.800360890456032 43.94425588438254, 29.591053905564518 26.929509918897274, 53.15044922357863 -0.1724741481767289 M0.009667875347545873 60.9590018498678 C16.522805912466644 41.96280954788644, 33.03594394958574 22.966617245905063, 53.15044922357863 -0.1724741481767289 M2.1109903431866783 70.7357315631285 C22.181144419945582 47.6476603851671, 42.251298496704486 24.55958920720571, 63.78053906829436 -0.20696897781207468 M2.1109903431866783 70.7357315631285 C17.916848918976633 52.55317120853647, 33.722707494766595 34.37061085394444, 63.78053906829436 -0.20696897781207468 M12.741080187902405 70.70123673349315 C31.343282467064448 49.301850926810474, 49.94548474622649 27.9024651201278, 74.41062891301009 -0.2414638074474169 M12.741080187902405 70.70123673349315 C32.1448294424828 48.379776609385644, 51.548578697063206 26.058316485278134, 74.41062891301009 -0.2414638074474169 M23.37117003261813 70.6667419038578 C40.97591595070484 50.414798382537825, 58.580661868791545 30.162854861217852, 85.04071875772581 -0.27595863708276624 M23.37117003261813 70.6667419038578 C42.07930312191291 49.145496639847096, 60.787436211207684 27.6242513758364, 85.04071875772581 -0.27595863708276624 M34.001259877333865 70.63224707422245 C47.29301486689034 55.34183205771446, 60.58476985644681 40.05141704120648, 95.67080860244155 -0.3104534667181156 M34.001259877333865 70.63224707422245 C57.917162716895426 43.1201480174236, 81.83306555645699 15.60804896062475, 95.67080860244155 -0.3104534667181156 M44.63134972204959 70.59775224458711 C60.04091991333563 52.871069527677044, 75.45049010462166 35.144386810766974, 106.30089844715727 -0.3449482963534578 M44.63134972204959 70.59775224458711 C67.55429132601645 44.22792442281153, 90.47723292998333 17.858096601035953, 106.30089844715727 -0.3449482963534578 M55.26143956676532 70.56325741495176 C69.01040437862488 54.746882663395176, 82.75936919048443 38.93050791183859, 116.2749292628825 0.375266454233973 M55.26143956676532 70.56325741495176 C72.8203342830565 50.364059667610476, 90.37922899934767 30.164861920269196, 116.2749292628825 0.375266454233973 M65.89152941148103 70.52876258531641 C79.12992131681301 55.29973477501215, 92.368313222145 40.07070696470788, 126.9050191075982 0.34077162459862365 M65.89152941148103 70.52876258531641 C83.4884051452642 50.28587267537824, 101.08528087904736 30.042982765440073, 126.9050191075982 0.34077162459862365 M76.52161925619677 70.49426775568107 C99.98391284135624 43.50398645436947, 123.44620642651572 16.513705153057863, 135.56693186534244 2.5704055356315934 M76.52161925619677 70.49426775568107 C90.46732062675079 54.451573482456986, 104.41302199730482 38.40887920923291, 135.56693186534244 2.5704055356315934 M87.1517091009125 70.45977292604573 C106.11834365798792 48.64115574027993, 125.08497821506333 26.822538554514118, 135.04401821721953 15.365973569783378 M87.1517091009125 70.45977292604573 C106.05046503578356 48.719241162789515, 124.94922097065461 26.9787093995333, 135.04401821721953 15.365973569783378 M97.78179894562822 70.42527809641038 C111.19951486377872 54.989961607103616, 124.61723078192921 39.55464511779685, 135.17716359808713 27.406832023712383 M97.78179894562822 70.42527809641038 C105.95920329686817 61.01825047767234, 114.13660764810811 51.61122285893429, 135.17716359808713 27.406832023712383 M107.75582976135344 71.14549284699781 C116.22109910662795 61.40731443357754, 124.68636845190244 51.66913602015727, 135.31030897895474 39.44769047764138 M107.75582976135344 71.14549284699781 C114.52061028882568 63.36350304640986, 121.28539081629792 55.58151324582192, 135.31030897895474 39.44769047764138 M118.38591960606917 71.11099801736246 C125.17209860909207 63.30439208653832, 131.95827761211498 55.49778615571418, 135.44345435982234 51.488548931570385 M118.38591960606917 71.11099801736246 C123.24701151959283 65.51895145544731, 128.1081034331165 59.926904893532146, 135.44345435982234 51.488548931570385 M129.0160094507849 71.07650318772711 C130.86400074027 68.95063239148384, 132.7119920297551 66.82476159524057, 135.57659974068997 63.52940738549939 M129.0160094507849 71.07650318772711 C131.05216097176478 68.73417880567685, 133.08831249274468 66.39185442362658, 135.57659974068997 63.52940738549939" stroke="#e73b2b" stroke-width="1" fill="none"></path><path d="M0 0 C28.465729626640677 0, 56.93145925328135 0, 132 0 M0 0 C49.76188204027712 0, 99.52376408055424 0, 132 0 M132 0 C132 21.853382174950095, 132 43.70676434990019, 132 69 M132 0 C132 19.26161174448207, 132 38.52322348896414, 132 69 M132 69 C86.37011128999292 69, 40.74022257998584 69, 0 69 M132 69 C88.23284001611172 69, 44.465680032223446 69, 0 69 M0 69 C0 47.44148877980187, 0 25.882977559603745, 0 0 M0 69 C0 55.188685128372164, 0 41.37737025674433, 0 0" stroke="#e73b2b" stroke-width="2" fill="none"></path></g><g transform="translate(721 12.25) rotate(0 39 11.5)"><text x="39" y="18" font-family="Helvetica, Segoe UI Emoji" font-size="20px" fill="#162d4a" text-anchor="middle" style="white-space: pre;" direction="ltr">Memória</text></g><g transform="translate(875 387.75) rotate(0 66 20.5)"><path d="M0 0 C0 0, 0 0, 0 0 M0 0 C0 0, 0 0, 0 0 M0.13314538086761107 12.040858453929006 C2.4985586818326966 9.319761722478411, 4.863971982797782 6.598664991027815, 10.630089844715727 -0.03449482963534578 M0.13314538086761107 12.040858453929006 C3.154030493347814 8.565727658687495, 6.174915605828017 5.090596863445984, 10.630089844715727 -0.03449482963534578 M0.26629076173522215 24.081716907858013 C4.821436363569885 18.841621317215683, 9.376581965404547 13.601525726573357, 21.260179689431453 -0.06898965927069156 M0.26629076173522215 24.081716907858013 C6.32112972389717 17.116421454976063, 12.375968686059117 10.151126002094111, 21.260179689431453 -0.06898965927069156 M-0.25662288638767805 36.877284942009794 C12.517292509976919 22.18257623351792, 25.291207906341516 7.487867525026047, 31.89026953414718 -0.10348448890603734 M-0.25662288638767805 36.877284942009794 C7.3360367486917335 28.14292917103224, 14.928696383771145 19.408573400054685, 31.89026953414718 -0.10348448890603734 M3.8128766684229802 44.38988591460216 C19.14207446112777 26.755661065832538, 34.47127225383256 9.121436217062914, 42.520359378862906 -0.13797931854138312 M3.8128766684229802 44.38988591460216 C19.087213656880408 26.81877120183344, 34.361550645337836 9.247656489064717, 42.520359378862906 -0.13797931854138312 M14.442966513138707 44.35539108496682 C28.331479481048863 28.37848454340368, 42.21999244895902 12.401578001840537, 53.15044922357863 -0.1724741481767289 M14.442966513138707 44.35539108496682 C22.907297332843207 34.61829232171165, 31.37162815254771 24.88119355845648, 53.15044922357863 -0.1724741481767289 M25.073056357854433 44.320896255331476 C36.9647442476448 30.641074198383954, 48.85643213743518 16.961252141436436, 63.78053906829436 -0.20696897781207468 M25.073056357854433 44.320896255331476 C34.575962336922586 33.38905344021984, 44.07886831599073 22.457210625108196, 63.78053906829436 -0.20696897781207468 M35.70314620257016 44.286401425696134 C51.102552401737555 26.571411044210592, 66.50195860090496 8.85642066272505, 74.41062891301009 -0.2414638074474169 M35.70314620257016 44.286401425696134 C46.734085544796955 31.596757304427122, 57.76502488702375 18.907113183158113, 74.41062891301009 -0.2414638074474169 M46.33323604728589 44.251906596060785 C57.23638465524797 31.709268898225478, 68.13953326321004 19.16663120039017, 85.04071875772581 -0.27595863708276624 M46.33323604728589 44.251906596060785 C58.34653002106719 30.432192741964236, 70.35982399484848 16.612478887867685, 85.04071875772581 -0.27595863708276624 M56.96332589200161 44.217411766425435 C71.03575482965603 28.028934103685078, 85.10818376731045 11.84045644094472, 95.67080860244155 -0.3104534667181156 M56.96332589200161 44.217411766425435 C66.59776582675826 33.13425644421294, 76.23220576151492 22.05110112200044, 95.67080860244155 -0.3104534667181156 M67.59341573671735 44.18291693679009 C81.58524257627339 28.087161381257832, 95.57706941582943 11.991405825725572, 106.30089844715727 -0.3449482963534578 M67.59341573671735 44.18291693679009 C78.14123218204087 32.049042132923695, 88.6890486273644 19.9151673290573, 106.30089844715727 -0.3449482963534578 M78.22350558143307 44.148422107154744 C92.15011885073118 28.12768618256931, 106.07673212002928 12.106950257983875, 116.2749292628825 0.375266454233973 M78.22350558143307 44.148422107154744 C92.99871671214993 27.15148601235787, 107.77392784286677 10.154549917560999, 116.2749292628825 0.375266454233973 M88.85359542614879 44.113927277519394 C104.05926474079318 26.621805687302537, 119.26493405543758 9.12968409708568, 126.9050191075982 0.34077162459862365 M88.85359542614879 44.113927277519394 C101.3844012471811 29.6988841439827, 113.9152070682134 15.283841010446004, 126.9050191075982 0.34077162459862365 M99.48368527086453 44.079432447884045 C109.4470189660412 32.61792813435224, 119.41035266121787 21.156423820820443, 135.56693186534244 2.5704055356315934 M99.48368527086453 44.079432447884045 C111.93519283940205 29.755611518765207, 124.38670040793956 15.431790589646365, 135.56693186534244 2.5704055356315934 M110.11377511558024 44.04493761824871 C119.08911811692654 33.719986585527735, 128.06446111827285 23.395035552806753, 135.04401821721953 15.365973569783378 M110.11377511558024 44.04493761824871 C117.39954662632894 35.66361625005252, 124.68531813707764 27.28229488185633, 135.04401821721953 15.365973569783378 M120.74386496029598 44.01044278861336 C124.00357091716218 40.26058003900435, 127.26327687402838 36.510717289395345, 135.17716359808713 27.406832023712383 M120.74386496029598 44.01044278861336 C123.99466763264267 40.270822096236095, 127.24547030498937 36.53120140385883, 135.17716359808713 27.406832023712383" stroke="#e73b2b" stroke-width="1" fill="none"></path><path d="M0 0 C42.958970722183594 0, 85.91794144436719 0, 132 0 M0 0 C33.83149990774691 0, 67.66299981549382 0, 132 0 M132 0 C132 12.367372701968998, 132 24.734745403937996, 132 41 M132 0 C132 12.90026821801439, 132 25.80053643602878, 132 41 M132 41 C94.31808876134454 41, 56.636177522689096 41, 0 41 M132 41 C91.9563541676849 41, 51.91270833536983 41, 0 41 M0 41 C0 32.16319211283699, 0 23.326384225673973, 0 0 M0 41 C0 25.099899598862976, 0 9.199799197725952, 0 0" stroke="#e73b2b" stroke-width="2" fill="none"></path></g><g transform="translate(887 11.25) rotate(0 53 11.5)"><text x="53" y="18" font-family="Helvetica, Segoe UI Emoji" font-size="20px" fill="#162d4a" text-anchor="middle" style="white-space: pre;" direction="ltr">JVM Tuning</text></g><g transform="translate(525 343.75) rotate(0 66 42)"><path d="M0 0 C0 0, 0 0, 0 0 M0 0 C0 0, 0 0, 0 0 M0.13314538086761107 12.040858453929006 C3.961525126534896 7.636811343668558, 7.789904872202181 3.23276423340811, 10.630089844715727 -0.03449482963534578 M0.13314538086761107 12.040858453929006 C2.32762339453039 9.51640027667023, 4.522101408193169 6.991942099411454, 10.630089844715727 -0.03449482963534578 M0.26629076173522215 24.081716907858013 C8.452204878286548 14.664899923952886, 16.638118994837875 5.248082940047759, 21.260179689431453 -0.06898965927069156 M0.26629076173522215 24.081716907858013 C7.075081303209563 16.2490993775607, 13.883871844683904 8.416481847263388, 21.260179689431453 -0.06898965927069156 M-0.25662288638767805 36.877284942009794 C11.41540169081804 23.450156620085174, 23.08742626802376 10.02302829816055, 31.89026953414718 -0.10348448890603734 M-0.25662288638767805 36.877284942009794 C9.853009057678678 25.247483744923542, 19.962641001745034 13.617682547837287, 31.89026953414718 -0.10348448890603734 M-0.12347750552006431 48.9181433959388 C12.205167342232098 34.735659859236634, 24.53381218998426 20.553176322534476, 42.520359378862906 -0.13797931854138312 M-0.12347750552006431 48.9181433959388 C15.717281434790646 30.695434764601597, 31.558040375101356 12.472726133264395, 42.520359378862906 -0.13797931854138312 M0.009667875347545873 60.9590018498678 C20.70218792639881 37.15498051735115, 41.394707977450075 13.350959184834501, 53.15044922357863 -0.1724741481767289 M0.009667875347545873 60.9590018498678 C17.965227751985854 40.30349303381793, 35.92078762862416 19.647984217768048, 53.15044922357863 -0.1724741481767289 M0.14281325621515606 72.99986030379681 C25.118380274929233 44.26875705303711, 50.09394729364331 15.537653802277418, 63.78053906829436 -0.20696897781207468 M0.14281325621515606 72.99986030379681 C23.460500210756226 46.17592990182328, 46.7781871652973 19.351999499849754, 63.78053906829436 -0.20696897781207468 M0.9320176660732713 84.28600917750305 C24.78425654699382 56.847147127403446, 48.63649542791437 29.408285077303837, 74.41062891301009 -0.2414638074474169 M0.9320176660732713 84.28600917750305 C21.443526182318273 60.69021779597011, 41.955034698563274 37.09442641443718, 74.41062891301009 -0.2414638074474169 M11.562107510788998 84.2515143478677 C26.29486745713337 67.30341275442204, 41.02762740347774 50.35531116097638, 85.04071875772581 -0.27595863708276624 M11.562107510788998 84.2515143478677 C28.242368500168237 65.06306908148477, 44.922629489547475 45.874623815101835, 85.04071875772581 -0.27595863708276624 M22.19219735550473 84.21701951823235 C37.90195513395247 66.14501048481156, 53.611712912400215 48.073001451390766, 95.67080860244155 -0.3104534667181156 M22.19219735550473 84.21701951823235 C40.49469448903537 63.162405042565624, 58.797191622566 42.1077905668989, 95.67080860244155 -0.3104534667181156 M32.166228171229946 84.93723426881978 C49.054128305337755 65.50992749023871, 65.94202843944558 46.082620711657626, 106.30089844715727 -0.3449482963534578 M32.166228171229946 84.93723426881978 C56.78168419084018 56.62039133452194, 81.39714021045043 28.303548400224102, 106.30089844715727 -0.3449482963534578 M42.79631801594568 84.90273943918444 C69.69346661432922 53.961109447275156, 96.59061521271278 23.019479455365868, 116.2749292628825 0.375266454233973 M42.79631801594568 84.90273943918444 C69.94296087356615 53.67409913366599, 97.08960373118663 22.44545882814753, 116.2749292628825 0.375266454233973 M53.4264078606614 84.8682446095491 C75.68978102852799 59.257163479063436, 97.95315419639459 33.64608234857778, 126.9050191075982 0.34077162459862365 M53.4264078606614 84.8682446095491 C69.68138833989188 66.16902860624812, 85.93636881912235 47.46981260294715, 126.9050191075982 0.34077162459862365 M64.05649770537713 84.83374977991375 C82.25910557839433 63.894044753762344, 100.46171345141153 42.95433972761094, 135.56693186534244 2.5704055356315934 M64.05649770537713 84.83374977991375 C83.57387086164927 62.38158030899487, 103.09124401792141 39.929410838076, 135.56693186534244 2.5704055356315934 M74.68658755009285 84.7992549502784 C90.90927544857661 66.13718731165609, 107.13196334706038 47.47511967303379, 135.04401821721953 15.365973569783378 M74.68658755009285 84.7992549502784 C92.50519860758827 64.30128772917672, 110.3238096650837 43.80332050807506, 135.04401821721953 15.365973569783378 M85.3166773948086 84.76476012064305 C96.11166412372907 72.34654843132286, 106.90665085264953 59.928336742002685, 135.17716359808713 27.406832023712383 M85.3166773948086 84.76476012064305 C95.44615837938844 73.11212521443642, 105.57563936396829 61.4594903082298, 135.17716359808713 27.406832023712383 M95.9467672395243 84.7302652910077 C107.04414913739272 71.96418775283354, 118.14153103526114 59.198110214659394, 135.31030897895474 39.44769047764138 M95.9467672395243 84.7302652910077 C108.37094595322338 70.43788261310051, 120.79512466692246 56.14549993519333, 135.31030897895474 39.44769047764138 M106.57685708424003 84.69577046137235 C116.77326790531555 72.96614158576064, 126.96967872639107 61.23651271014893, 135.44345435982234 51.488548931570385 M106.57685708424003 84.69577046137235 C115.66097877473038 74.24568386128115, 124.74510046522072 63.79559726118994, 135.44345435982234 51.488548931570385 M117.20694692895577 84.661275631737 C122.96117445940655 78.04179407274506, 128.71540198985733 71.42231251375311, 135.57659974068997 63.52940738549939 M117.20694692895577 84.661275631737 C122.80932068748551 78.21648185448036, 128.41169444601525 71.77168807722373, 135.57659974068997 63.52940738549939 M127.83703677367149 84.62678080210166 C129.4973383349959 82.71682233949434, 131.15763989632032 80.80686387688704, 135.05368609256706 76.32497541965118 M127.83703677367149 84.62678080210166 C130.52916081172492 81.52984636040476, 133.22128484977833 78.43291191870786, 135.05368609256706 76.32497541965118" stroke="#e73b2b" stroke-width="1" fill="none"></path><path d="M0 0 C29.45959219671786 0, 58.91918439343572 0, 132 0 M0 0 C40.29962274692953 0, 80.59924549385906 0, 132 0 M132 0 C132 29.246135275438427, 132 58.49227055087685, 132 84 M132 0 C132 25.815630341693762, 132 51.631260683387524, 132 84 M132 84 C96.05494034551083 84, 60.10988069102167 84, 0 84 M132 84 C91.51002416945994 84, 51.02004833891988 84, 0 84 M0 84 C0 52.301708633825186, 0 20.603417267650364, 0 0 M0 84 C0 64.45528070814908, 0 44.91056141629815, 0 0" stroke="#e73b2b" stroke-width="2" fill="none"></path></g><g transform="translate(545.5 11.25) rotate(0 45.5 11.5)"><text x="45.5" y="18" font-family="Helvetica, Segoe UI Emoji" font-size="20px" fill="#162d4a" text-anchor="middle" style="white-space: pre;" direction="ltr">Streaming</text></g></svg>