<svg version="1.1" xmlns="http://www.w3.org/2000/svg" viewBox="0 0 1017 439.7499999999999">
  <!-- svg-source:excalidraw -->
  <defs>
    <style>
      @font-face {
        font-family: "Virgil";
        src: url("https://excalidraw.com/FG_Virgil.woff2");
      }
      @font-face {
        font-family: "Cascadia";
        src: url("https://excalidraw.com/Cascadia.woff2");
      }
    </style>
  </defs>
  <g transform="translate(10 65.5) rotate(0 66 181)"><path d="M0 0 C0 0, 0 0, 0 0 M0 0 C0 0, 0 0, 0 0 M0.13314538086761107 12.040858453929006 C4.0641047060290045 7.518807036192519, 7.995064031190398 2.9967556184560316, 10.630089844715727 -0.03449482963534578 M0.13314538086761107 12.040858453929006 C3.787289883686412 7.837246062465934, 7.441434386505213 3.633633671002862, 10.630089844715727 -0.03449482963534578 M0.26629076173522215 24.081716907858013 C5.041601452739391 18.58835035426209, 9.81691214374356 13.094983800666165, 21.260179689431453 -0.06898965927069156 M0.26629076173522215 24.081716907858013 C5.179017490222088 18.430271286096495, 10.091744218708953 12.77882566433498, 21.260179689431453 -0.06898965927069156 M-0.25662288638767805 36.877284942009794 C10.206264219681428 24.841110166867836, 20.669151325750533 12.80493539172588, 31.89026953414718 -0.10348448890603734 M-0.25662288638767805 36.877284942009794 C9.69566539088043 25.428486928284556, 19.64795366814854 13.979688914559315, 31.89026953414718 -0.10348448890603734 M-0.12347750552006431 48.9181433959388 C14.022022150833509 32.645607486914, 28.167521807187082 16.3730715778892, 42.520359378862906 -0.13797931854138312 M-0.12347750552006431 48.9181433959388 C11.89872115857549 35.08818586742865, 23.920919822671046 21.258228338918492, 42.520359378862906 -0.13797931854138312 M0.009667875347545873 60.9590018498678 C16.16521284144713 42.37417331942842, 32.32075780754671 23.78934478898904, 53.15044922357863 -0.1724741481767289 M0.009667875347545873 60.9590018498678 C14.922598634417303 43.803637445559524, 29.83552939348706 26.648273041251244, 53.15044922357863 -0.1724741481767289 M0.14281325621515606 72.99986030379681 C18.308655675719088 52.102449093844214, 36.47449809522302 31.205037883891627, 63.78053906829436 -0.20696897781207468 M0.14281325621515606 72.99986030379681 C13.96959688198835 57.09396524722656, 27.796380507761544 41.18807019065632, 63.78053906829436 -0.20696897781207468 M0.27595863708276624 85.04071875772581 C29.559331114888504 51.35405220237288, 58.84270359269424 17.66738564701994, 74.41062891301009 -0.2414638074474169 M0.27595863708276624 85.04071875772581 C18.41782324743641 64.1708908618941, 36.55968785779005 43.301062966062375, 74.41062891301009 -0.2414638074474169 M-0.24695501104012862 97.8362867918776 C18.35551065031738 76.43659799863823, 36.95797631167489 55.03690920539887, 85.04071875772581 -0.27595863708276624 M-0.24695501104012862 97.8362867918776 C26.746989347823085 66.78330601515957, 53.7409337066863 35.73032523844153, 85.04071875772581 -0.27595863708276624 M-0.11380963017251844 109.87714524580659 C28.371230711007378 77.10885475889728, 56.856271052187275 44.34056427198796, 95.67080860244155 -0.3104534667181156 M-0.11380963017251844 109.87714524580659 C23.473165146672958 82.74343464060473, 47.060139923518435 55.60972403540288, 95.67080860244155 -0.3104534667181156 M0.019335750695091747 121.9180036997356 C34.36589728838612 82.40680441010358, 68.71245882607715 42.89560512047156, 106.30089844715727 -0.3449482963534578 M0.019335750695091747 121.9180036997356 C28.395752260480446 89.27467063673387, 56.7721687702658 56.631337573732125, 106.30089844715727 -0.3449482963534578 M0.15248113156270904 133.9588621536646 C26.18465967088566 104.01226639089072, 52.216838210208614 74.06567062811683, 116.2749292628825 0.375266454233973 M0.15248113156270904 133.9588621536646 C33.89566126158504 95.14177377291921, 67.63884139160737 56.324685392173805, 116.2749292628825 0.375266454233973 M0.2856265124303121 145.99972060759362 C45.635031237470834 93.83119812562782, 90.98443596251136 41.66267564366203, 126.9050191075982 0.34077162459862365 M0.2856265124303121 145.99972060759362 C34.0997681550586 107.1010003446177, 67.91390979768688 68.20228008164179, 126.9050191075982 0.34077162459862365 M-0.23728713569258275 158.7952886417454 C27.25689429126981 127.16685094576522, 54.7510757182322 95.53841324978504, 135.56693186534244 2.5704055356315934 M-0.23728713569258275 158.7952886417454 C32.8985370215122 120.67688338406629, 66.03436117871698 82.55847812638719, 135.56693186534244 2.5704055356315934 M-0.10414175482497967 170.8361470956744 C46.47999458323495 117.24722837469405, 93.06413092129488 63.6583096537137, 135.04401821721953 15.365973569783378 M-0.10414175482497967 170.8361470956744 C43.94595447539871 120.16230805737978, 87.9960507056224 69.48846901908516, 135.04401821721953 15.365973569783378 M0.02900362604263762 182.8770055496034 C50.486789431831944 124.83196286029869, 100.94457523762125 66.78692017099398, 135.17716359808713 27.406832023712383 M0.02900362604263762 182.8770055496034 C45.129919458532704 130.994336839173, 90.23083529102277 79.11166812874258, 135.17716359808713 27.406832023712383 M0.1621490069102549 194.91786400353243 C36.44091608988826 153.183916498345, 72.71968317286627 111.44996899315761, 135.31030897895474 39.44769047764138 M0.1621490069102549 194.91786400353243 C49.33457810699646 138.35145506047823, 98.50700720708267 81.78504611742402, 135.31030897895474 39.44769047764138 M0.295294387777858 206.95872245746142 C39.76803649734166 161.55052698823684, 79.24077860690547 116.14233151901225, 135.44345435982234 51.488548931570385 M0.295294387777858 206.95872245746142 C33.797809446982704 168.41848757090605, 67.30032450618755 129.87825268435068, 135.44345435982234 51.488548931570385 M-0.22761926034503688 219.75429049161318 C51.259777522210776 160.52481586290833, 102.74717430476659 101.29534123420345, 135.57659974068997 63.52940738549939 M-0.22761926034503688 219.75429049161318 C42.12783964286531 171.02990869601217, 84.48329854607566 122.30552690041114, 135.57659974068997 63.52940738549939 M-0.0944738794774338 231.79514894554222 C30.702112146908654 196.36772933052364, 61.49869817329474 160.94030971550507, 135.05368609256706 76.32497541965118 M-0.0944738794774338 231.79514894554222 C31.75102942757917 195.1610880290521, 63.59653273463577 158.52702711256202, 135.05368609256706 76.32497541965118 M0.038671501390183494 243.8360073994712 C39.30746512083619 198.66242782997858, 78.5762587402822 153.48884826048595, 135.1868314734347 88.36583387358019 M0.038671501390183494 243.8360073994712 C28.709075331204012 210.85448061138516, 57.37947916101784 177.8729538232991, 135.1868314734347 88.36583387358019 M0.17181688225778657 255.8768658534002 C35.86238126430957 214.8195681524004, 71.55294564636135 173.7622704514006, 135.3199768543023 100.40669232750918 M0.17181688225778657 255.8768658534002 C28.14298238269317 223.6997207485491, 56.11414788312855 191.52257564369802, 135.3199768543023 100.40669232750918 M0.3049622631254181 267.9177243073292 C38.2259013334003 224.29467402873212, 76.14684040367518 180.67162375013504, 135.4531222351699 112.4475507814382 M0.3049622631254181 267.9177243073292 C43.228953788305546 218.53932054493964, 86.15294531348567 169.16091678255006, 135.4531222351699 112.4475507814382 M-0.217951384997491 280.713292341481 C53.84485057609518 218.52115295959396, 107.90765253718786 156.32901357770692, 135.58626761603753 124.4884092353672 M-0.217951384997491 280.713292341481 C31.406014958502748 244.33408054889782, 63.02998130200299 207.95486875631465, 135.58626761603753 124.4884092353672 M-0.08480600412988792 292.75415079541 C52.77556407244274 231.94525106531003, 105.63593414901537 171.13635133521007, 135.06335396791462 137.28397726951897 M-0.08480600412988792 292.75415079541 C52.923783670159764 231.77474392276537, 105.93237334444942 170.79533705012074, 135.06335396791462 137.28397726951897 M0.04833937673774358 304.79500924933905 C32.66632811023227 267.2723055032361, 65.2843168437268 229.74960175713315, 135.19649934878223 149.324835723448 M0.04833937673774358 304.79500924933905 C33.19157778396307 266.66807487267306, 66.3348161911884 228.54114049600705, 135.19649934878223 149.324835723448 M0.18148475760534666 316.83586770326804 C44.532504732289 265.815855496364, 88.88352470697265 214.79584328945998, 135.32964472964986 161.36569417737698 M0.18148475760534666 316.83586770326804 C28.680849462916136 284.051098920409, 57.180214168226925 251.26633013754997, 135.32964472964986 161.36569417737698 M0.31463013847294974 328.876726157197 C43.47634752016568 279.22485007989576, 86.63806490185841 229.57297400259455, 135.46279011051743 173.406552631306 M0.31463013847294974 328.876726157197 C45.8499881021674 276.4942889442633, 91.38534606586185 224.11185173132964, 135.46279011051743 173.406552631306 M-0.20828350964995934 341.6722941913488 C48.917871998277406 285.15911692680277, 98.04402750620477 228.64593966225675, 135.59593549138506 185.44741108523502 M-0.20828350964995934 341.6722941913488 C35.01525654614241 301.1522465206815, 70.23879660193478 260.6321988500142, 135.59593549138506 185.44741108523502 M-0.07513812878232784 353.7131526452778 C50.161743655976466 295.92223096279463, 100.39862544073526 238.13130928031154, 135.07302184326215 198.24297911938677 M-0.07513812878232784 353.7131526452778 C35.29679902861523 313.0223936372007, 70.6687361860128 272.33163462912364, 135.07302184326215 198.24297911938677 M2.0261843390568117 363.4898823585385 C32.12022358642146 328.8706503627011, 62.2142628337861 294.2514183668637, 135.20616722412979 210.2838375733158 M2.0261843390568117 363.4898823585385 C33.25206420250004 327.56861667595473, 64.47794406594326 291.64735099337094, 135.20616722412979 210.2838375733158 M12.656274183772524 363.45538752890315 C43.57743748429705 327.884658153458, 74.49860078482158 292.31392877801284, 135.33931260499736 222.32469602724478 M12.656274183772524 363.45538752890315 C53.675570133112046 316.2680853823342, 94.69486608245157 269.0807832357653, 135.33931260499736 222.32469602724478 M23.286364028488265 363.4208926992678 C47.855450839839776 335.1573914372187, 72.42453765119129 306.89389017516953, 135.472457985865 234.3655544811738 M23.286364028488265 363.4208926992678 C61.86118174786355 319.0456410805893, 100.43599946723883 274.67038946191076, 135.472457985865 234.3655544811738 M33.91645387320398 363.38639786963245 C57.105445702241795 336.7105142742012, 80.29443753127961 310.03463067877, 135.60560336673262 246.40641293510282 M33.91645387320398 363.38639786963245 C67.52090015573708 324.72890452405085, 101.1253464382702 286.0714111784693, 135.60560336673262 246.40641293510282 M44.54654371791969 363.3519030399971 C71.98689647045637 331.78538815047887, 99.42724922299305 300.21887326096055, 135.08268971860969 259.2019809692546 M44.54654371791969 363.3519030399971 C63.21027399565939 341.88173736759114, 81.8740042733991 320.4115716951852, 135.08268971860969 259.2019809692546 M55.17663356263543 363.3174082103618 C77.70531986582367 337.40111923098135, 100.23400616901189 311.48483025160095, 135.21583509947732 271.24283942318357 M55.17663356263543 363.3174082103618 C86.12424963365416 327.7162484034567, 117.07186570467287 292.1150885965515, 135.21583509947732 271.24283942318357 M65.80672340735117 363.2829133807264 C80.02895193338802 346.9221110040962, 94.25118045942487 330.56130862746596, 135.34898048034495 283.28369787711256 M65.80672340735117 363.2829133807264 C90.21113825259498 335.20884554604254, 114.61555309783878 307.13477771135865, 135.34898048034495 283.28369787711256 M75.7807542230764 364.0031281313138 C88.20844068201932 349.7067102540976, 100.63612714096223 335.4102923768813, 135.48212586121255 295.3245563310416 M75.7807542230764 364.0031281313138 C93.71897535616876 343.3675652580601, 111.65719648926112 322.7320023848064, 135.48212586121255 295.3245563310416 M86.41084406779208 363.96863330167855 C101.84301167255512 346.2159552342196, 117.27517927731814 328.4632771667607, 135.61527124208015 307.3654147849706 M86.41084406779208 363.96863330167855 C102.09216258218939 345.929339899146, 117.77348109658669 327.8900464966134, 135.61527124208015 307.3654147849706 M97.04093391250782 363.9341384720432 C109.14152490338776 350.01400088743173, 121.24211589426768 336.0938633028203, 135.09235759395727 320.1609828191224 M97.04093391250782 363.9341384720432 C105.80662647796834 353.85036267732534, 114.57231904342886 343.7665868826075, 135.09235759395727 320.1609828191224 M107.67102375722357 363.8996436424078 C118.27595110232379 351.7000702637303, 128.880878447424 339.5004968850529, 135.22550297482488 332.2018412730514 M107.67102375722357 363.8996436424078 C117.61519327258527 352.46018519588546, 127.559362787947 341.02072674936306, 135.22550297482488 332.2018412730514 M118.30111360193928 363.8651488127725 C124.01448580122657 357.29266593601756, 129.72785800051386 350.72018305926264, 135.35864835569248 344.2426997269804 M118.30111360193928 363.8651488127725 C125.05181395881775 356.0993563956039, 131.80251431569621 348.3335639784353, 135.35864835569248 344.2426997269804 M128.931203446655 363.83065398313715 C130.48413531334 362.04421022513594, 132.03706718002505 360.25776646713473, 135.49179373656008 356.2835581809094 M128.931203446655 363.83065398313715 C131.16107553527277 361.2654795802473, 133.39094762389055 358.7003051773575, 135.49179373656008 356.2835581809094" stroke="#e73b2b" stroke-width="1" fill="none"></path><path d="M0 0 C49.951522693410524 0, 99.90304538682105 0, 132 0 M0 0 C41.52141505144537 0, 83.04283010289075 0, 132 0 M132 0 C132 103.51418317202479, 132 207.02836634404957, 132 362 M132 0 C132 81.33416312988848, 132 162.66832625977696, 132 362 M132 362 C83.14962102435528 362, 34.29924204871057 362, 0 362 M132 362 C85.87633992768824 362, 39.752679855376485 362, 0 362 M0 362 C0 260.55547776576134, 0 159.11095553152262, 0 0 M0 362 C0 226.7285636657849, 0 91.45712733156978, 0 0" stroke="#e73b2b" stroke-width="2" fill="none"></path></g><g transform="translate(183 66.5) rotate(0 66 180.5)"><path d="M0 0 C0 0, 0 0, 0 0 M0 0 C0 0, 0 0, 0 0 M0.13314538086761107 12.040858453929006 C3.785205006005296 7.839644439883211, 7.437264631142981 3.6384304258374147, 10.630089844715727 -0.03449482963534578 M0.13314538086761107 12.040858453929006 C3.367954522529774 8.319636213971144, 6.6027636641919365 4.59841397401328, 10.630089844715727 -0.03449482963534578 M0.26629076173522215 24.081716907858013 C6.765804895094708 16.60488118655482, 13.265319028454194 9.12804546525163, 21.260179689431453 -0.06898965927069156 M0.26629076173522215 24.081716907858013 C8.263677690615477 14.881775644551912, 16.261064619495734 5.68183438124581, 21.260179689431453 -0.06898965927069156 M-0.25662288638767805 36.877284942009794 C6.313252179659162 29.319508226640465, 12.883127245706001 21.761731511271137, 31.89026953414718 -0.10348448890603734 M-0.25662288638767805 36.877284942009794 C7.686558390592806 27.73970014814201, 15.62973966757329 18.602115354274225, 31.89026953414718 -0.10348448890603734 M-0.12347750552006431 48.9181433959388 C16.541102123498735 29.74773747109676, 33.205681752517535 10.577331546254719, 42.520359378862906 -0.13797931854138312 M-0.12347750552006431 48.9181433959388 C13.02345828158643 33.79432381468821, 26.170394068692925 18.670504233437622, 42.520359378862906 -0.13797931854138312 M0.009667875347545873 60.9590018498678 C12.460457532956951 46.63600678279985, 24.911247190566357 32.313011715731896, 53.15044922357863 -0.1724741481767289 M0.009667875347545873 60.9590018498678 C11.547137580821868 47.686661201420655, 23.08460728629619 34.41432055297351, 53.15044922357863 -0.1724741481767289 M0.14281325621515606 72.99986030379681 C23.477581696185606 46.15627990063692, 46.812350136156056 19.312699497477027, 63.78053906829436 -0.20696897781207468 M0.14281325621515606 72.99986030379681 C17.17187491177202 53.41016577062549, 34.20093656732888 33.82047123745417, 63.78053906829436 -0.20696897781207468 M0.27595863708276624 85.04071875772581 C18.467874442073345 64.1133135488401, 36.659790247063924 43.18590833995437, 74.41062891301009 -0.2414638074474169 M0.27595863708276624 85.04071875772581 C21.47333116557665 60.65593108485192, 42.67070369407053 36.27114341197803, 74.41062891301009 -0.2414638074474169 M-0.24695501104012862 97.8362867918776 C17.914074445610094 76.94441226233704, 36.07510390226032 56.05253773279649, 85.04071875772581 -0.27595863708276624 M-0.24695501104012862 97.8362867918776 C18.606983789529554 76.14731124402385, 37.46092259009924 54.458335696170124, 85.04071875772581 -0.27595863708276624 M-0.11380963017251844 109.87714524580659 C24.4333109409477 81.63891325254494, 48.980431512067916 53.4006812592833, 95.67080860244155 -0.3104534667181156 M-0.11380963017251844 109.87714524580659 C22.425319367547505 83.94884332055054, 44.96444836526753 58.02054139529449, 95.67080860244155 -0.3104534667181156 M0.019335750695091747 121.9180036997356 C28.306520164409925 89.37732042096351, 56.59370457812476 56.83663714219141, 106.30089844715727 -0.3449482963534578 M0.019335750695091747 121.9180036997356 C31.37212225008781 85.85074863248883, 62.72490874948053 49.783493565242054, 106.30089844715727 -0.3449482963534578 M0.15248113156270904 133.9588621536646 C46.196853136044865 80.99087126937683, 92.24122514052702 28.022880385089053, 116.2749292628825 0.375266454233973 M0.15248113156270904 133.9588621536646 C30.469301354315053 99.0833499620113, 60.7861215770674 64.207837770358, 116.2749292628825 0.375266454233973 M0.2856265124303121 145.99972060759362 C41.29256082624969 98.82663889598865, 82.29949514006907 51.653557184383686, 126.9050191075982 0.34077162459862365 M0.2856265124303121 145.99972060759362 C35.70789149655681 105.25106605764347, 71.13015648068331 64.50241150769332, 126.9050191075982 0.34077162459862365 M-0.23728713569258275 158.7952886417454 C27.822266654941302 126.51646444028167, 55.88182044557519 94.23764023881793, 135.56693186534244 2.5704055356315934 M-0.23728713569258275 158.7952886417454 C36.85297272482208 116.12782548259182, 73.94323258533674 73.46036232343822, 135.56693186534244 2.5704055356315934 M-0.10414175482497967 170.8361470956744 C46.45843694395516 117.27202760185578, 93.02101564273529 63.707908108037174, 135.04401821721953 15.365973569783378 M-0.10414175482497967 170.8361470956744 C44.46112359925085 119.56967377292455, 89.02638895332667 68.3032004501747, 135.04401821721953 15.365973569783378 M0.02900362604263762 182.8770055496034 C45.71186306854073 130.32488729543562, 91.39472251103882 77.77276904126784, 135.17716359808713 27.406832023712383 M0.02900362604263762 182.8770055496034 C53.46372021012012 121.40739574247212, 106.89843679419761 59.93778593534083, 135.17716359808713 27.406832023712383 M0.1621490069102549 194.91786400353243 C47.13594514574127 140.880692958181, 94.10974128457228 86.84352191282952, 135.31030897895474 39.44769047764138 M0.1621490069102549 194.91786400353243 C35.769742573642965 153.95601330719705, 71.37733614037568 112.99416261086166, 135.31030897895474 39.44769047764138 M0.295294387777858 206.95872245746142 C34.501603137898144 167.60886554367545, 68.70791188801843 128.25900862988948, 135.44345435982234 51.488548931570385 M0.295294387777858 206.95872245746142 C36.228269252807905 165.62256339526422, 72.16124411783795 124.28640433306704, 135.44345435982234 51.488548931570385 M-0.22761926034503688 219.75429049161318 C42.324548432775444 170.80362111867686, 84.87671612589592 121.85295174574057, 135.57659974068997 63.52940738549939 M-0.22761926034503688 219.75429049161318 C35.55090748163735 178.5958036707246, 71.32943422361974 137.437316849836, 135.57659974068997 63.52940738549939 M-0.0944738794774338 231.79514894554222 C43.852767845507046 181.23963048061512, 87.80000957049153 130.68411201568802, 135.05368609256706 76.32497541965118 M-0.0944738794774338 231.79514894554222 C45.40851164005574 179.44995196963617, 90.91149715958892 127.10475499373013, 135.05368609256706 76.32497541965118 M0.038671501390183494 243.8360073994712 C38.299147701250554 199.8223643339205, 76.55962390111092 155.80872126836977, 135.1868314734347 88.36583387358019 M0.038671501390183494 243.8360073994712 C50.896982334964925 185.33021337190084, 101.75529316853967 126.82441934433045, 135.1868314734347 88.36583387358019 M0.17181688225778657 255.8768658534002 C45.9196556772548 203.24999740499598, 91.66749447225182 150.62312895659176, 135.3199768543023 100.40669232750918 M0.17181688225778657 255.8768658534002 C50.71050526450742 197.73875539607275, 101.24919364675705 139.6006449387453, 135.3199768543023 100.40669232750918 M0.3049622631254181 267.9177243073292 C35.320637926498016 227.6367972666878, 70.33631358987061 187.35587022604642, 135.4531222351699 112.4475507814382 M0.3049622631254181 267.9177243073292 C29.05306181671632 234.84681881323382, 57.80116137030722 201.77591331913845, 135.4531222351699 112.4475507814382 M-0.217951384997491 280.713292341481 C52.50968286514793 220.05708771260927, 105.23731711529335 159.40088308373754, 135.58626761603753 124.4884092353672 M-0.217951384997491 280.713292341481 C48.38100245162672 224.80659122383625, 96.97995628825093 168.8998901061915, 135.58626761603753 124.4884092353672 M-0.08480600412988792 292.75415079541 C41.06324097213362 245.41873753507048, 82.21128794839713 198.08332427473096, 135.06335396791462 137.28397726951897 M-0.08480600412988792 292.75415079541 C33.34932508839726 254.29258266368112, 66.7834561809244 215.83101453195223, 135.06335396791462 137.28397726951897 M0.04833937673774358 304.79500924933905 C51.48416127934573 245.62486473313237, 102.91998318195371 186.4547202169257, 135.19649934878223 149.324835723448 M0.04833937673774358 304.79500924933905 C51.76721842058559 245.29924474041172, 103.48609746443344 185.8034802314844, 135.19649934878223 149.324835723448 M0.18148475760534666 316.83586770326804 C33.06606482293091 279.0064857113877, 65.95064488825648 241.1771037195074, 135.32964472964986 161.36569417737698 M0.18148475760534666 316.83586770326804 C43.3111885406204 267.22081905848705, 86.44089232363545 217.60577041370607, 135.32964472964986 161.36569417737698 M0.31463013847294974 328.876726157197 C45.25756192457655 277.17579730257455, 90.20049371068015 225.47486844795208, 135.46279011051743 173.406552631306 M0.31463013847294974 328.876726157197 C48.52774563738023 273.4138812735565, 96.7408611362875 217.95103638991594, 135.46279011051743 173.406552631306 M-0.20828350964995934 341.6722941913488 C48.77547283891489 285.32292842094824, 97.75922918747973 228.9735626505477, 135.59593549138506 185.44741108523502 M-0.20828350964995934 341.6722941913488 C44.71478108195359 289.9942199296193, 89.63784567355714 238.31614566788983, 135.59593549138506 185.44741108523502 M-0.07513812878232784 353.7131526452778 C36.70364732216845 311.4039998065443, 73.48243277311923 269.0948469678108, 135.07302184326215 198.24297911938677 M-0.07513812878232784 353.7131526452778 C40.797403345753004 306.6946722101419, 81.66994482028834 259.67619177500603, 135.07302184326215 198.24297911938677 M2.682243368047324 362.7351727783157 C42.777664870872464 316.6106666072557, 82.8730863736976 270.48616043619575, 135.20616722412979 210.2838375733158 M2.682243368047324 362.7351727783157 C48.972727063966154 309.48406277955144, 95.26321075988498 256.2329527807872, 135.20616722412979 210.2838375733158 M13.312333212763036 362.7006779486804 C54.594334642938314 315.2111677165542, 95.87633607311359 267.721657484428, 135.33931260499736 222.32469602724478 M13.312333212763036 362.7006779486804 C44.57417829236435 326.73803901766945, 75.83602337196567 290.7754000866585, 135.33931260499736 222.32469602724478 M23.286364028488265 363.4208926992678 C65.44666486854624 314.92101457393176, 107.6069657086042 266.42113644859563, 135.472457985865 234.3655544811738 M23.286364028488265 363.4208926992678 C57.573706061780335 323.97781765658766, 91.8610480950724 284.5347426139075, 135.472457985865 234.3655544811738 M33.91645387320398 363.38639786963245 C62.48296651965372 330.5243842166772, 91.04947916610347 297.66237056372205, 135.60560336673262 246.40641293510282 M33.91645387320398 363.38639786963245 C71.39259938472617 320.2750240487599, 108.86874489624834 277.1636502278874, 135.60560336673262 246.40641293510282 M44.54654371791969 363.3519030399971 C67.0270422159598 337.49104778927244, 89.50754071399992 311.6301925385477, 135.08268971860969 259.2019809692546 M44.54654371791969 363.3519030399971 C71.23905011890268 332.64568696676173, 97.93155651988567 301.9394708935263, 135.08268971860969 259.2019809692546 M55.17663356263543 363.3174082103618 C84.05520757143813 330.0964090250414, 112.93378158024082 296.875409839721, 135.21583509947732 271.24283942318357 M55.17663356263543 363.3174082103618 C71.50846429827163 344.52978610000486, 87.84029503390785 325.74216398964785, 135.21583509947732 271.24283942318357 M65.80672340735117 363.2829133807264 C83.11081040122906 343.3768383871653, 100.41489739510695 323.4707633936042, 135.34898048034495 283.28369787711256 M65.80672340735117 363.2829133807264 C85.00033277680467 341.20319154156596, 104.19394214625817 319.1234697024055, 135.34898048034495 283.28369787711256 M76.43681325206688 363.24841855109105 C91.18110054167512 346.28705626613544, 105.92538783128336 329.3256939811799, 135.48212586121255 295.3245563310416 M76.43681325206688 363.24841855109105 C90.68801272762101 346.854288909409, 104.93921220317515 330.4601592677269, 135.48212586121255 295.3245563310416 M87.0669030967826 363.2139237214558 C100.0342339868894 348.2967159394958, 113.00156487699623 333.37950815753584, 135.61527124208015 307.3654147849706 M87.0669030967826 363.2139237214558 C105.14216914616006 342.4207087061374, 123.21743519553753 321.62749369081905, 135.61527124208015 307.3654147849706 M97.69699294149834 363.1794288918204 C110.04974607262578 348.969211947571, 122.40249920375322 334.7589950033216, 135.09235759395727 320.1609828191224 M97.69699294149834 363.1794288918204 C111.65197038360692 347.12606371893685, 125.60694782571551 331.0726985460533, 135.09235759395727 320.1609828191224 M108.32708278621408 363.14493406218503 C115.15341734592319 355.2921344475747, 121.9797519056323 347.43933483296445, 135.22550297482488 332.2018412730514 M108.32708278621408 363.14493406218503 C118.30652069409356 351.66490397113677, 128.28595860197305 340.1848738800885, 135.22550297482488 332.2018412730514 M118.95717263092979 363.1104392325497 C125.45682317128825 355.6334465929444, 131.9564737116467 348.156453953339, 135.35864835569248 344.2426997269804 M118.95717263092979 363.1104392325497 C122.34000001104691 359.21894148738073, 125.72282739116403 355.3274437422118, 135.35864835569248 344.2426997269804 M129.5872624756455 363.0759444029144 C131.47947111155602 360.89920736829214, 133.37167974746654 358.7224703336699, 135.49179373656008 356.2835581809094 M129.5872624756455 363.0759444029144 C130.9061175909088 361.55877514461366, 132.22497270617205 360.041605886313, 135.49179373656008 356.2835581809094" stroke="#e73b2b" stroke-width="1" fill="none"></path><path d="M0 0 C51.702923437580466 0, 103.40584687516093 0, 132 0 M0 0 C43.445150456205006 0, 86.89030091241001 0, 132 0 M132 0 C132 136.94731014510617, 132 273.89462029021234, 132 361 M132 0 C132 80.54811249980703, 132 161.09622499961407, 132 361 M132 361 C87.99674270488322 361, 43.993485409766436 361, 0 361 M132 361 C80.06713065169751 361, 28.134261303395036 361, 0 361 M0 361 C0 228.0858473286964, 0 95.17169465739278, 0 0 M0 361 C0 235.84007239928468, 0 110.68014479856936, 0 0" stroke="#e73b2b" stroke-width="2" fill="none"></path></g><g transform="translate(355 66.5) rotate(0 66 180.49999999999997)"><path d="M0 0 C0 0, 0 0, 0 0 M0 0 C0 0, 0 0, 0 0 M0.13314538086761107 12.040858453929006 C3.6381969650676425 8.00875784578534, 7.143248549267674 3.976657237641673, 10.630089844715727 -0.03449482963534578 M0.13314538086761107 12.040858453929006 C3.3914770837973816 8.292576602631968, 6.649808786727152 4.544294751334927, 10.630089844715727 -0.03449482963534578 M0.26629076173522215 24.081716907858013 C7.150977111379052 16.161791237602014, 14.035663461022882 8.241865567346014, 21.260179689431453 -0.06898965927069156 M0.26629076173522215 24.081716907858013 C5.035486433297681 18.595384879437376, 9.80468210486014 13.109052851016736, 21.260179689431453 -0.06898965927069156 M-0.25662288638767805 36.877284942009794 C9.72527629485033 25.394423479848328, 19.707175476088338 13.911562017686862, 31.89026953414718 -0.10348448890603734 M-0.25662288638767805 36.877284942009794 C9.25472519147199 25.935730603157758, 18.76607326933166 14.994176264305718, 31.89026953414718 -0.10348448890603734 M-0.12347750552006431 48.9181433959388 C9.892006885466103 37.39664656953316, 19.90749127645227 25.87514974312752, 42.520359378862906 -0.13797931854138312 M-0.12347750552006431 48.9181433959388 C8.636026700697677 38.84148649418636, 17.39553090691542 28.764829592433923, 42.520359378862906 -0.13797931854138312 M0.009667875347545873 60.9590018498678 C18.880928369863767 39.250099972538415, 37.75218886437999 17.541198095209026, 53.15044922357863 -0.1724741481767289 M0.009667875347545873 60.9590018498678 C13.879305254443917 45.003809189343734, 27.74894263354029 29.04861652881966, 53.15044922357863 -0.1724741481767289 M0.14281325621515606 72.99986030379681 C13.94543330385683 57.12176226411448, 27.748053351498505 41.24366422443215, 63.78053906829436 -0.20696897781207468 M0.14281325621515606 72.99986030379681 C22.004028103720703 47.85140939975557, 43.86524295122625 22.70295849571432, 63.78053906829436 -0.20696897781207468 M0.27595863708276624 85.04071875772581 C26.070340922374992 55.36767629294437, 51.86472320766722 25.694633828162928, 74.41062891301009 -0.2414638074474169 M0.27595863708276624 85.04071875772581 C27.627679193299453 53.57616354671667, 54.97939974951614 22.111608335707537, 74.41062891301009 -0.2414638074474169 M-0.24695501104012862 97.8362867918776 C20.96915098431699 73.42994873056651, 42.18525697967411 49.023610669255426, 85.04071875772581 -0.27595863708276624 M-0.24695501104012862 97.8362867918776 C20.87405061584387 73.53934918997307, 41.99505624272787 49.24241158806854, 85.04071875772581 -0.27595863708276624 M-0.11380963017251844 109.87714524580659 C27.01580132524487 78.66809790249744, 54.145412280662256 47.45905055918829, 95.67080860244155 -0.3104534667181156 M-0.11380963017251844 109.87714524580659 C32.818224835325125 71.99317321118468, 65.75025930082276 34.10920117656276, 95.67080860244155 -0.3104534667181156 M0.019335750695091747 121.9180036997356 C28.63613037118485 88.99814725239204, 57.25292499167461 56.07829080504848, 106.30089844715727 -0.3449482963534578 M0.019335750695091747 121.9180036997356 C24.977544412130374 93.20686895479069, 49.93575307356566 64.49573420984578, 106.30089844715727 -0.3449482963534578 M0.15248113156270904 133.9588621536646 C43.0401652295243 84.6222253084947, 85.92784932748589 35.285588463324814, 116.2749292628825 0.375266454233973 M0.15248113156270904 133.9588621536646 C43.191305865013625 84.44835789638049, 86.23013059846454 34.93785363909636, 116.2749292628825 0.375266454233973 M0.2856265124303121 145.99972060759362 C35.89552457530743 105.03521889169916, 71.50542263818454 64.0707171758047, 126.9050191075982 0.34077162459862365 M0.2856265124303121 145.99972060759362 C29.79923438240428 112.04819853086622, 59.312842252378246 78.0966764541388, 126.9050191075982 0.34077162459862365 M-0.23728713569258275 158.7952886417454 C44.390039791647744 107.45742164580965, 89.01736671898807 56.11955464987389, 135.56693186534244 2.5704055356315934 M-0.23728713569258275 158.7952886417454 C53.45661322091808 97.0275220110276, 107.15051357752874 35.25975538030981, 135.56693186534244 2.5704055356315934 M-0.10414175482497967 170.8361470956744 C33.90208716408758 131.71645569863193, 67.90831608300014 92.59676430158945, 135.04401821721953 15.365973569783378 M-0.10414175482497967 170.8361470956744 C37.921025251116255 127.09319629273689, 75.94619225705749 83.35024548979939, 135.04401821721953 15.365973569783378 M0.02900362604263762 182.8770055496034 C40.240531128047 136.61893470519882, 80.45205863005137 90.36086386079424, 135.17716359808713 27.406832023712383 M0.02900362604263762 182.8770055496034 C30.43125964949656 147.90321071197738, 60.83351567295048 112.92941587435133, 135.17716359808713 27.406832023712383 M0.1621490069102549 194.91786400353243 C28.7317017490795 162.05235312050655, 57.30125449124875 129.18684223748068, 135.31030897895474 39.44769047764138 M0.1621490069102549 194.91786400353243 C31.181196551970835 159.23453168560832, 62.200244097031415 123.55119936768419, 135.31030897895474 39.44769047764138 M0.295294387777858 206.95872245746142 C44.43584659012993 156.18082572658585, 88.576398792482 105.40292899571025, 135.44345435982234 51.488548931570385 M0.295294387777858 206.95872245746142 C31.002719356919847 171.63387090585087, 61.71014432606184 136.30901935424035, 135.44345435982234 51.488548931570385 M-0.22761926034503688 219.75429049161318 C48.06396745445644 164.20117480033173, 96.35555416925791 108.6480591090503, 135.57659974068997 63.52940738549939 M-0.22761926034503688 219.75429049161318 C32.145896665511984 182.51282053984104, 64.519412591369 145.2713505880689, 135.57659974068997 63.52940738549939 M-0.0944738794774338 231.79514894554222 C37.80192302947707 188.20033119397303, 75.69831993843157 144.60551344240383, 135.05368609256706 76.32497541965118 M-0.0944738794774338 231.79514894554222 C31.116039417880042 195.89156047511096, 62.32655271523752 159.9879720046797, 135.05368609256706 76.32497541965118 M0.038671501390183494 243.8360073994712 C46.43998760752382 190.4573992974997, 92.84130371365745 137.07879119552817, 135.1868314734347 88.36583387358019 M0.038671501390183494 243.8360073994712 C37.840522682155594 200.34995206664848, 75.642373862921 156.86389673382573, 135.1868314734347 88.36583387358019 M0.17181688225778657 255.8768658534002 C45.79343432720054 203.3951984584152, 91.4150517721433 150.91353106343018, 135.3199768543023 100.40669232750918 M0.17181688225778657 255.8768658534002 C30.69424181252051 220.76483250185106, 61.21666674278323 185.6527991503019, 135.3199768543023 100.40669232750918 M0.3049622631254181 267.9177243073292 C54.064453569507776 206.07450392019442, 107.82394487589013 144.23128353305964, 135.4531222351699 112.4475507814382 M0.3049622631254181 267.9177243073292 C32.22402438829539 231.19904365040895, 64.14308651346536 194.4803629934887, 135.4531222351699 112.4475507814382 M-0.217951384997491 280.713292341481 C39.27285208760958 235.28431965082012, 78.76365556021665 189.8553469601592, 135.58626761603753 124.4884092353672 M-0.217951384997491 280.713292341481 C35.443983280932216 239.68892936141575, 71.10591794686192 198.66456638135048, 135.58626761603753 124.4884092353672 M-0.08480600412988792 292.75415079541 C27.77791895884292 260.7017522589179, 55.64064392181573 228.64935372242581, 135.06335396791462 137.28397726951897 M-0.08480600412988792 292.75415079541 C27.137591377455173 261.4383648788186, 54.359988759040235 230.12257896222724, 135.06335396791462 137.28397726951897 M0.04833937673774358 304.79500924933905 C33.40874570871533 266.4182517529763, 66.76915204069292 228.04149425661353, 135.19649934878223 149.324835723448 M0.04833937673774358 304.79500924933905 C47.72781216980741 249.94605007523802, 95.40728496287707 195.097090901137, 135.19649934878223 149.324835723448 M0.18148475760534666 316.83586770326804 C29.884048149019147 282.6669771643063, 59.58661154043295 248.4980866253445, 135.32964472964986 161.36569417737698 M0.18148475760534666 316.83586770326804 C51.539983123772274 257.7546737405178, 102.8984814899392 198.67347977776748, 135.32964472964986 161.36569417737698 M0.31463013847294974 328.876726157197 C44.4466894713848 278.10859935501213, 88.57874880429665 227.34047255282724, 135.46279011051743 173.406552631306 M0.31463013847294974 328.876726157197 C50.1797380084335 271.5134814409267, 100.04484587839406 214.15023672465634, 135.46279011051743 173.406552631306 M-0.20828350964995934 341.6722941913488 C47.86353341216896 286.371994726776, 95.93535033398788 231.0716952622032, 135.59593549138506 185.44741108523502 M-0.20828350964995934 341.6722941913488 C52.40920074709106 281.1428026349451, 105.02668500383209 220.61331107854141, 135.59593549138506 185.44741108523502 M-0.07513812878232784 353.7131526452778 C49.22522335099823 296.9995743343626, 98.52558483077878 240.28599602344747, 135.07302184326215 198.24297911938677 M-0.07513812878232784 353.7131526452778 C46.495057811146125 300.14027051789196, 93.06525375107458 246.56738839050615, 135.07302184326215 198.24297911938677 M2.682243368047324 362.7351727783157 C40.87382727225343 318.80078123318657, 79.06541117645953 274.8663896880575, 135.20616722412979 210.2838375733158 M2.682243368047324 362.7351727783157 C49.088286065526084 309.3511273549869, 95.49432876300484 255.9670819316581, 135.20616722412979 210.2838375733158 M13.312333212763036 362.7006779486804 C39.00128945799234 333.14891426968575, 64.69024570322165 303.59715059069106, 135.33931260499736 222.32469602724478 M13.312333212763036 362.7006779486804 C58.95814529786446 310.19117780403275, 104.60395738296589 257.68167765938506, 135.33931260499736 222.32469602724478 M23.286364028488265 363.4208926992678 C64.33321201449658 316.20189556016055, 105.38006000050488 268.9828984210532, 135.472457985865 234.3655544811738 M23.286364028488265 363.4208926992678 C46.34669600288018 336.8930153358989, 69.4070279772721 310.3651379725299, 135.472457985865 234.3655544811738 M33.91645387320398 363.38639786963245 C56.974661332344155 336.86096448148976, 80.03286879148433 310.3355310933471, 135.60560336673262 246.40641293510282 M33.91645387320398 363.38639786963245 C65.71912945631959 326.80160461371725, 97.52180503943521 290.21681135780204, 135.60560336673262 246.40641293510282 M44.54654371791969 363.3519030399971 C71.21931665545468 332.66838771967736, 97.89208959298966 301.9848723993576, 135.08268971860969 259.2019809692546 M44.54654371791969 363.3519030399971 C62.82725172247694 342.3223540899222, 81.10795972703418 321.29280513984736, 135.08268971860969 259.2019809692546 M55.17663356263543 363.3174082103618 C86.43693760573558 327.3565420390562, 117.69724164883574 291.3956758677505, 135.21583509947732 271.24283942318357 M55.17663356263543 363.3174082103618 C77.34050522793115 337.8207904649047, 99.50437689322688 312.3241727194476, 135.21583509947732 271.24283942318357 M65.80672340735117 363.2829133807264 C82.91236261315777 343.60512645304544, 100.01800181896436 323.92733952536446, 135.34898048034495 283.28369787711256 M65.80672340735117 363.2829133807264 C93.519975269767 331.40246397684444, 121.23322713218282 299.52201457296246, 135.34898048034495 283.28369787711256 M76.43681325206688 363.24841855109105 C99.6468123651227 336.548368839804, 122.85681147817851 309.84831912851695, 135.48212586121255 295.3245563310416 M76.43681325206688 363.24841855109105 C96.73605704654587 339.8968097994453, 117.03530084102485 316.5452010477996, 135.48212586121255 295.3245563310416 M87.0669030967826 363.2139237214558 C104.33301655892777 343.3515322791106, 121.59913002107294 323.48914083676544, 135.61527124208015 307.3654147849706 M87.0669030967826 363.2139237214558 C104.81254075497063 342.7999027934848, 122.55817841315867 322.38588186551385, 135.61527124208015 307.3654147849706 M97.69699294149834 363.1794288918204 C110.39378870092719 348.5734361772358, 123.09058446035603 333.96744346265115, 135.09235759395727 320.1609828191224 M97.69699294149834 363.1794288918204 C107.10334611976532 352.35865736837917, 116.5096992980323 341.5378858449379, 135.09235759395727 320.1609828191224 M108.32708278621408 363.14493406218503 C114.33509455732596 356.233507130486, 120.34310632843784 349.3220801987869, 135.22550297482488 332.2018412730514 M108.32708278621408 363.14493406218503 C115.96866025636156 354.35430475919554, 123.61023772650904 345.56367545620606, 135.22550297482488 332.2018412730514 M118.95717263092979 363.1104392325497 C123.04355355155154 358.40959572159574, 127.12993447217329 353.70875221064176, 135.35864835569248 344.2426997269804 M118.95717263092979 363.1104392325497 C123.86532054509539 357.4642609341259, 128.77346845926098 351.8180826357021, 135.35864835569248 344.2426997269804 M129.5872624756455 363.0759444029144 C130.8443581926993 361.62982120516284, 132.1014539097531 360.1836980074113, 135.49179373656008 356.2835581809094 M129.5872624756455 363.0759444029144 C131.04137628177128 361.4031778198434, 132.49549008789705 359.7304112367724, 135.49179373656008 356.2835581809094" stroke="#e73b2b" stroke-width="1" fill="none"></path><path d="M0 0 C35.825815472379325 0, 71.65163094475865 0, 132 0 M0 0 C46.79190491102636 0, 93.58380982205271 0, 132 0 M132 0 C132 84.5693472505547, 132 169.1386945011094, 132 360.99999999999994 M132 0 C132 83.2173134013079, 132 166.4346268026158, 132 360.99999999999994 M132 360.99999999999994 C97.57639483474195 360.99999999999994, 63.152789669483894 360.99999999999994, 0 360.99999999999994 M132 360.99999999999994 C94.97512039281428 360.99999999999994, 57.95024078562855 360.99999999999994, 0 360.99999999999994 M0 360.99999999999994 C0 231.33299475302917, 0 101.6659895060584, 0 0 M0 360.99999999999994 C0 287.93907576957713, 0 214.87815153915432, 0 0" stroke="#e73b2b" stroke-width="2" fill="none"></path></g><g transform="translate(27 11) rotate(0 47 11.5)"><text x="47" y="18" font-family="Helvetica, Segoe UI Emoji" font-size="20px" fill="#162d4a" text-anchor="middle" style="white-space: pre;" direction="ltr">Algoritmus</text></g><g transform="translate(188.5 11) rotate(0 59.5 11.5)"><text x="59.5" y="18" font-family="Helvetica, Segoe UI Emoji" font-size="20px" fill="#162d4a" text-anchor="middle" style="white-space: pre;" direction="ltr">Adatstruktúra</text></g><g transform="translate(343.5 10) rotate(0 72.5 11.5)"><text x="72.5" y="18" font-family="Helvetica, Segoe UI Emoji" font-size="20px" fill="#162d4a" text-anchor="middle" style="white-space: pre;" direction="ltr">Párhuzamosítás</text></g><g transform="translate(700 67.75) rotate(0 66 180.99999999999994)"><path d="M0 0 C0 0, 0 0, 0 0 M0 0 C0 0, 0 0, 0 0 M0.13314538086761107 12.040858453929006 C4.1926578020264085 7.370923615906657, 8.252170223185207 2.700988777884307, 10.630089844715727 -0.03449482963534578 M0.13314538086761107 12.040858453929006 C2.241903562251111 9.615009663596597, 4.350661743634611 7.1891608732641865, 10.630089844715727 -0.03449482963534578 M0.26629076173522215 24.081716907858013 C6.14402970793813 17.32015171825368, 12.021768654141038 10.558586528649345, 21.260179689431453 -0.06898965927069156 M0.26629076173522215 24.081716907858013 C6.313319276888561 17.12540634646104, 12.3603477920419 10.169095785064068, 21.260179689431453 -0.06898965927069156 M-0.25662288638767805 36.877284942009794 C9.425510041139683 25.739265107668054, 19.107642968667044 14.60124527332631, 31.89026953414718 -0.10348448890603734 M-0.25662288638767805 36.877284942009794 C12.043855286768547 22.72720345789927, 24.344333459924773 8.577121973788753, 31.89026953414718 -0.10348448890603734 M-0.12347750552006431 48.9181433959388 C11.920356711193985 35.06329701122356, 23.964190927908035 21.20845062650832, 42.520359378862906 -0.13797931854138312 M-0.12347750552006431 48.9181433959388 C9.151905643726304 38.24803565617566, 18.42728879297267 27.577927916412527, 42.520359378862906 -0.13797931854138312 M0.009667875347545873 60.9590018498678 C14.800360890456032 43.94425588438254, 29.591053905564518 26.929509918897274, 53.15044922357863 -0.1724741481767289 M0.009667875347545873 60.9590018498678 C16.522805912466644 41.96280954788644, 33.03594394958574 22.966617245905063, 53.15044922357863 -0.1724741481767289 M0.14281325621515606 72.99986030379681 C20.853504165211046 49.174935790368565, 41.564195074206935 25.350011276940315, 63.78053906829436 -0.20696897781207468 M0.14281325621515606 72.99986030379681 C16.453114126977134 54.23700546980291, 32.76341499773911 35.474150635809, 63.78053906829436 -0.20696897781207468 M0.27595863708276624 85.04071875772581 C22.63818052586267 59.315925181607284, 45.00040241464257 33.59113160548875, 74.41062891301009 -0.2414638074474169 M0.27595863708276624 85.04071875772581 C23.601742315461333 58.207474140447644, 46.9275259938399 31.37422952316947, 74.41062891301009 -0.2414638074474169 M-0.24695501104012862 97.8362867918776 C24.1000340246117 69.82827979430742, 48.447023060263525 41.82027279673724, 85.04071875772581 -0.27595863708276624 M-0.24695501104012862 97.8362867918776 C25.62599500606967 68.0728624905862, 51.498945023179466 38.309438189294816, 85.04071875772581 -0.27595863708276624 M-0.11380963017251844 109.87714524580659 C20.530831098287535 86.12820277335801, 41.17547182674759 62.37926030090944, 95.67080860244155 -0.3104534667181156 M-0.11380963017251844 109.87714524580659 C37.03216712063586 67.1455871363105, 74.17814387144423 24.41402902681442, 95.67080860244155 -0.3104534667181156 M0.019335750695091747 121.9180036997356 C26.576254590996566 91.36776327272037, 53.13317343129804 60.81752284570514, 106.30089844715727 -0.3449482963534578 M0.019335750695091747 121.9180036997356 C39.52483085540395 76.47213021965428, 79.0303259601128 31.026256739572958, 106.30089844715727 -0.3449482963534578 M0.15248113156270904 133.9588621536646 C26.319865773488967 103.85672956199238, 52.487250415415225 73.75459697032016, 116.2749292628825 0.375266454233973 M0.15248113156270904 133.9588621536646 C33.57102268837495 95.51522773130539, 66.9895642451872 57.07159330894618, 116.2749292628825 0.375266454233973 M0.2856265124303121 145.99972060759362 C27.758848423495618 114.39539407653209, 55.23207033456092 82.79106754547054, 126.9050191075982 0.34077162459862365 M0.2856265124303121 145.99972060759362 C36.80387400296956 103.99028240739935, 73.3221214935088 61.980844207205095, 126.9050191075982 0.34077162459862365 M-0.23728713569258275 158.7952886417454 C53.7259881101742 96.71764164872872, 107.68926335604098 34.63999465571203, 135.56693186534244 2.5704055356315934 M-0.23728713569258275 158.7952886417454 C31.837826016581673 121.89709181333002, 63.91293916885593 84.99889498491464, 135.56693186534244 2.5704055356315934 M-0.10414175482497967 170.8361470956744 C53.41814206377141 109.26580270844485, 106.9404258823678 47.69545832121531, 135.04401821721953 15.365973569783378 M-0.10414175482497967 170.8361470956744 C53.22659417097554 109.48615335278699, 106.55733009677606 48.13615960989958, 135.04401821721953 15.365973569783378 M0.02900362604263762 182.8770055496034 C48.52109975128826 127.09323016719651, 97.01319587653389 71.30945478478961, 135.17716359808713 27.406832023712383 M0.02900362604263762 182.8770055496034 C29.58242987789225 148.8796776643396, 59.13585612974186 114.88234977907578, 135.17716359808713 27.406832023712383 M0.1621490069102549 194.91786400353243 C41.682279605161376 147.15441749961397, 83.2024102034125 99.39097099569551, 135.31030897895474 39.44769047764138 M0.1621490069102549 194.91786400353243 C33.341786832131255 156.74905688636298, 66.52142465735226 118.58024976919351, 135.31030897895474 39.44769047764138 M0.295294387777858 206.95872245746142 C54.06271264249792 145.10638315939326, 107.83013089721798 83.2540438613251, 135.44345435982234 51.488548931570385 M0.295294387777858 206.95872245746142 C38.8100995487731 162.6525073899798, 77.32490470976835 118.34629232249817, 135.44345435982234 51.488548931570385 M-0.22761926034503688 219.75429049161318 C38.025800431996494 175.74876500937745, 76.27922012433802 131.74323952714172, 135.57659974068997 63.52940738549939 M-0.22761926034503688 219.75429049161318 C41.92071722393851 171.26817578317275, 84.06905370822206 122.78206107473231, 135.57659974068997 63.52940738549939 M-0.0944738794774338 231.79514894554222 C49.03976952996001 175.27266761461829, 98.17401293939746 118.75018628369432, 135.05368609256706 76.32497541965118 M-0.0944738794774338 231.79514894554222 C33.54441809611358 193.09803036290197, 67.1833100717046 154.40091178026174, 135.05368609256706 76.32497541965118 M0.038671501390183494 243.8360073994712 C48.8914906361113 187.63726766320605, 97.74430977083242 131.43852792694085, 135.1868314734347 88.36583387358019 M0.038671501390183494 243.8360073994712 C36.86664078506216 201.47027503342923, 73.69461006873414 159.10454266738725, 135.1868314734347 88.36583387358019 M0.17181688225778657 255.8768658534002 C49.6353053904545 198.97563136263125, 99.09879389865121 142.0743968718623, 135.3199768543023 100.40669232750918 M0.17181688225778657 255.8768658534002 C52.64929089825212 195.5084376546389, 105.12676491424645 135.1400094558776, 135.3199768543023 100.40669232750918 M0.3049622631254181 267.9177243073292 C54.311305001345175 205.7905338317314, 108.31764773956493 143.6633433561336, 135.4531222351699 112.4475507814382 M0.3049622631254181 267.9177243073292 C44.81092776541259 216.7194676606299, 89.31689326769977 165.5212110139306, 135.4531222351699 112.4475507814382 M-0.217951384997491 280.713292341481 C37.28041361321289 237.57635792509768, 74.77877861142328 194.43942350871436, 135.58626761603753 124.4884092353672 M-0.217951384997491 280.713292341481 C46.644995282043695 226.80363902643373, 93.50794194908488 172.89398571138645, 135.58626761603753 124.4884092353672 M-0.08480600412988792 292.75415079541 C48.571000792642174 236.78204782855414, 97.22680758941424 180.8099448616983, 135.06335396791462 137.28397726951897 M-0.08480600412988792 292.75415079541 C39.41174481729728 247.31856653624118, 78.90829563872445 201.88298227707236, 135.06335396791462 137.28397726951897 M0.04833937673774358 304.79500924933905 C30.571040609212165 269.6826580484547, 61.09374184168659 234.57030684757035, 135.19649934878223 149.324835723448 M0.04833937673774358 304.79500924933905 C30.487673490529502 269.77856094798824, 60.92700760432126 234.7621126466375, 135.19649934878223 149.324835723448 M0.18148475760534666 316.83586770326804 C29.587494490560626 283.00812312404275, 58.993504223515906 249.18037854481747, 135.32964472964986 161.36569417737698 M0.18148475760534666 316.83586770326804 C38.94401982331353 272.24467197988076, 77.70655488902172 227.65347625649352, 135.32964472964986 161.36569417737698 M0.31463013847294974 328.876726157197 C41.94263983393267 280.98917894805027, 83.57064952939238 233.10163173890354, 135.46279011051743 173.406552631306 M0.31463013847294974 328.876726157197 C40.69638195539686 282.42283463876817, 81.07813377232077 235.96894312033928, 135.46279011051743 173.406552631306 M-0.20828350964995934 341.6722941913488 C34.845439106153165 301.34759913864025, 69.89916172195629 261.02290408593177, 135.59593549138506 185.44741108523502 M-0.20828350964995934 341.6722941913488 C34.09505014298837 302.21082289499236, 68.3983837956267 262.749351598636, 135.59593549138506 185.44741108523502 M-0.07513812878232784 353.7131526452778 C37.282385665411546 310.73823750043, 74.63990945960542 267.76332235558226, 135.07302184326215 198.24297911938677 M-0.07513812878232784 353.7131526452778 C40.45364593651281 307.09011987348, 80.98243000180794 260.4670871016822, 135.07302184326215 198.24297911938677 M2.0261843390568117 363.4898823585385 C52.41873573536745 305.5198832729618, 102.81128713167809 247.54988418738506, 135.20616722412979 210.2838375733158 M2.0261843390568117 363.4898823585385 C34.41831553852073 326.22699798411725, 66.81044673798465 288.96411360969597, 135.20616722412979 210.2838375733158 M12.656274183772524 363.45538752890315 C42.80836065296414 328.76937984294904, 72.96044712215576 294.08337215699487, 135.33931260499736 222.32469602724478 M12.656274183772524 363.45538752890315 C52.73217445300308 317.35333796824034, 92.80807472223364 271.25128840757753, 135.33931260499736 222.32469602724478 M23.286364028488265 363.4208926992678 C66.59617236661968 313.5986574642844, 109.9059807047511 263.7764222293009, 135.472457985865 234.3655544811738 M23.286364028488265 363.4208926992678 C59.90338978810457 321.29782309900736, 96.52041554772087 279.17475349874684, 135.472457985865 234.3655544811738 M33.91645387320398 363.38639786963245 C73.75179665786857 317.5610780393349, 113.58713944253316 271.7357582090374, 135.60560336673262 246.40641293510282 M33.91645387320398 363.38639786963245 C68.62922944590798 323.4539175238406, 103.342005018612 283.5214371780487, 135.60560336673262 246.40641293510282 M44.54654371791969 363.3519030399971 C71.6865023924052 332.13095200758517, 98.82646106689073 300.91000097517326, 135.08268971860969 259.2019809692546 M44.54654371791969 363.3519030399971 C70.24801532655268 333.785742082338, 95.94948693518566 304.2195811246788, 135.08268971860969 259.2019809692546 M55.17663356263543 363.3174082103618 C75.25912587583733 340.21514351499553, 95.34161818903922 317.1128788196293, 135.21583509947732 271.24283942318357 M55.17663356263543 363.3174082103618 C76.80936107198652 338.4318019215835, 98.4420885813376 313.54619563280517, 135.21583509947732 271.24283942318357 M65.80672340735117 363.2829133807264 C83.1292054737817 343.35567727685225, 100.45168754021223 323.428441172978, 135.34898048034495 283.28369787711256 M65.80672340735117 363.2829133807264 C87.4692776452371 338.36299536575086, 109.13183188312303 313.4430773507753, 135.34898048034495 283.28369787711256 M75.7807542230764 364.0031281313138 C88.964118570069 348.8374022856497, 102.14748291706161 333.67167643998556, 135.48212586121255 295.3245563310416 M75.7807542230764 364.0031281313138 C93.91585622725803 343.14107972397284, 112.05095823143967 322.2790313166319, 135.48212586121255 295.3245563310416 M86.41084406779208 363.96863330167855 C104.8392270714265 342.7692036981289, 123.26761007506094 321.5697740945792, 135.61527124208015 307.3654147849706 M86.41084406779208 363.96863330167855 C102.11428230242048 345.90389407181556, 117.81772053704886 327.8391548419526, 135.61527124208015 307.3654147849706 M97.04093391250782 363.9341384720432 C106.93235894264086 352.555355614983, 116.8237839727739 341.1765727579228, 135.09235759395727 320.1609828191224 M97.04093391250782 363.9341384720432 C112.118481564723 346.58940399456554, 127.19602921693817 329.2446695170879, 135.09235759395727 320.1609828191224 M107.67102375722357 363.8996436424078 C116.6954422805738 353.5182376796056, 125.71986080392405 343.13683171680344, 135.22550297482488 332.2018412730514 M107.67102375722357 363.8996436424078 C114.02964561756528 356.5848859408058, 120.38826747790698 349.27012823920387, 135.22550297482488 332.2018412730514 M118.30111360193928 363.8651488127725 C124.91429643429466 356.2575522112545, 131.52747926665003 348.64995560973654, 135.35864835569248 344.2426997269804 M118.30111360193928 363.8651488127725 C124.54743681914498 356.67957592240793, 130.79376003635068 349.4940030320434, 135.35864835569248 344.2426997269804 M128.931203446655 363.83065398313715 C131.36141399532028 361.0350165450574, 133.79162454398553 358.2393791069776, 135.49179373656008 356.2835581809094 M128.931203446655 363.83065398313715 C130.7968418801853 361.6844824699066, 132.66248031371558 359.538310956676, 135.49179373656008 356.2835581809094" stroke="#e73b2b" stroke-width="1" fill="none"></path><path d="M0 0 C28.465729626640677 0, 56.93145925328135 0, 132 0 M0 0 C49.76188204027712 0, 99.52376408055424 0, 132 0 M132 0 C132 114.65107749756423, 132 229.30215499512846, 132 361.9999999999999 M132 0 C132 101.05367321018127, 132 202.10734642036255, 132 361.9999999999999 M132 361.9999999999999 C86.37011128999292 361.9999999999999, 40.74022257998584 361.9999999999999, 0 361.9999999999999 M132 361.9999999999999 C88.23284001611172 361.9999999999999, 44.465680032223446 361.9999999999999, 0 361.9999999999999 M0 361.9999999999999 C0 248.89592664185903, 0 135.79185328371815, 0 0 M0 361.9999999999999 C0 289.54063791986545, 0 217.08127583973103, 0 0" stroke="#e73b2b" stroke-width="2" fill="none"></path></g><g transform="translate(721 12.25) rotate(0 39 11.5)"><text x="39" y="18" font-family="Helvetica, Segoe UI Emoji" font-size="20px" fill="#162d4a" text-anchor="middle" style="white-space: pre;" direction="ltr">Memória</text></g><g transform="translate(875 67.75) rotate(0 66 180.49999999999991)"><path d="M0 0 C0 0, 0 0, 0 0 M0 0 C0 0, 0 0, 0 0 M0.13314538086761107 12.040858453929006 C2.4985586818326966 9.319761722478411, 4.863971982797782 6.598664991027815, 10.630089844715727 -0.03449482963534578 M0.13314538086761107 12.040858453929006 C3.154030493347814 8.565727658687495, 6.174915605828017 5.090596863445984, 10.630089844715727 -0.03449482963534578 M0.26629076173522215 24.081716907858013 C4.821436363569885 18.841621317215683, 9.376581965404547 13.601525726573357, 21.260179689431453 -0.06898965927069156 M0.26629076173522215 24.081716907858013 C6.32112972389717 17.116421454976063, 12.375968686059117 10.151126002094111, 21.260179689431453 -0.06898965927069156 M-0.25662288638767805 36.877284942009794 C12.517292509976919 22.18257623351792, 25.291207906341516 7.487867525026047, 31.89026953414718 -0.10348448890603734 M-0.25662288638767805 36.877284942009794 C7.3360367486917335 28.14292917103224, 14.928696383771145 19.408573400054685, 31.89026953414718 -0.10348448890603734 M-0.12347750552006431 48.9181433959388 C16.76462175762928 29.49060754559938, 33.65272102077862 10.063071695259964, 42.520359378862906 -0.13797931854138312 M-0.12347750552006431 48.9181433959388 C16.704181888543204 29.560135661532577, 33.53184128260647 10.202127927126355, 42.520359378862906 -0.13797931854138312 M0.009667875347545873 60.9590018498678 C19.07694839061403 39.02460473348451, 38.14422890588052 17.090207617101207, 53.15044922357863 -0.1724741481767289 M0.009667875347545873 60.9590018498678 C11.6301898481622 47.59112049692426, 23.250711820976854 34.22323914398072, 53.15044922357863 -0.1724741481767289 M0.14281325621515606 72.99986030379681 C19.693554363158647 50.50930539661191, 39.24429547010214 28.018750489427, 63.78053906829436 -0.20696897781207468 M0.14281325621515606 72.99986030379681 C15.766234950615338 55.027169573867496, 31.38965664501552 37.05447884393819, 63.78053906829436 -0.20696897781207468 M0.27595863708276624 85.04071875772581 C29.76973661175931 51.112008366067066, 59.26351458643585 17.18329797440832, 74.41062891301009 -0.2414638074474169 M0.27595863708276624 85.04071875772581 C21.403011953551033 60.73682408478686, 42.5300652700193 36.432929411847915, 74.41062891301009 -0.2414638074474169 M-0.24695501104012862 97.8362867918776 C23.776931752266147 70.19996644071506, 47.80081851557242 42.56364608955252, 85.04071875772581 -0.27595863708276624 M-0.24695501104012862 97.8362867918776 C26.22301476169833 67.38606982522418, 52.69298453443679 36.93585285857077, 85.04071875772581 -0.27595863708276624 M-0.11380963017251844 109.87714524580659 C34.70948909690451 69.81752255495758, 69.53278782398155 29.757899864108566, 95.67080860244155 -0.3104534667181156 M-0.11380963017251844 109.87714524580659 C23.727346818547332 82.45103207558583, 47.56850326726718 55.024918905365084, 95.67080860244155 -0.3104534667181156 M0.019335750695091747 121.9180036997356 C38.43757215761169 77.72287827607076, 76.85580856452829 33.5277528524059, 106.30089844715727 -0.3449482963534578 M0.019335750695091747 121.9180036997356 C28.981136837854603 88.60126271284821, 57.942937925014114 55.284521725960815, 106.30089844715727 -0.3449482963534578 M0.15248113156270904 133.9588621536646 C42.65266300511037 85.06799562518836, 85.15284487865803 36.177129096712136, 116.2749292628825 0.375266454233973 M0.15248113156270904 133.9588621536646 C45.242349582198614 82.08890200230172, 90.33221803283452 30.21894185093886, 116.2749292628825 0.375266454233973 M0.2856265124303121 145.99972060759362 C50.883801990471156 87.79317807463062, 101.481977468512 29.586635541667633, 126.9050191075982 0.34077162459862365 M0.2856265124303121 145.99972060759362 C41.98296312379645 98.03242190461806, 83.68029973516259 50.06512320164251, 126.9050191075982 0.34077162459862365 M-0.23728713569258275 158.7952886417454 C37.2610778625178 115.65835422536207, 74.75944286072819 72.52141980897875, 135.56693186534244 2.5704055356315934 M-0.23728713569258275 158.7952886417454 C46.6256595313486 104.88563532669812, 93.48860619838979 50.97598201165084, 135.56693186534244 2.5704055356315934 M-0.10414175482497967 170.8361470956744 C48.55166504194708 114.86404412881855, 97.20747183871914 58.891941161962706, 135.04401821721953 15.365973569783378 M-0.10414175482497967 170.8361470956744 C39.39240906660219 125.40056283650557, 78.88895988802936 79.96497857733674, 135.04401821721953 15.365973569783378 M0.02900362604263762 182.8770055496034 C30.55170485851706 147.76465434871906, 61.07440609099148 112.65230314783471, 135.17716359808713 27.406832023712383 M0.02900362604263762 182.8770055496034 C30.468337739834396 147.86055724825263, 60.907671853626155 112.84410894690187, 135.17716359808713 27.406832023712383 M0.1621490069102549 194.91786400353243 C29.568158739865527 161.09011942430715, 58.9741684728208 127.26237484508188, 135.31030897895474 39.44769047764138 M0.1621490069102549 194.91786400353243 C38.92468407261843 150.32666828014516, 77.68721913832661 105.73547255675791, 135.31030897895474 39.44769047764138 M0.295294387777858 206.95872245746142 C41.923304083237575 159.07117524831466, 83.55131377869729 111.18362803916793, 135.44345435982234 51.488548931570385 M0.295294387777858 206.95872245746142 C40.67704620470177 160.50483093903256, 81.05879802162568 114.05093942060367, 135.44345435982234 51.488548931570385 M-0.22761926034503688 219.75429049161318 C34.82610335545808 179.42959543890464, 69.8798259712612 139.10490038619614, 135.57659974068997 63.52940738549939 M-0.22761926034503688 219.75429049161318 C34.075714392293285 180.29281919525678, 68.37904804493161 140.8313478989004, 135.57659974068997 63.52940738549939 M-0.0944738794774338 231.79514894554222 C37.26304991471644 188.82023380069444, 74.62057370891031 145.84531865584668, 135.05368609256706 76.32497541965118 M-0.0944738794774338 231.79514894554222 C40.4343101858177 185.17211617374443, 80.96309425111284 138.54908340194663, 135.05368609256706 76.32497541965118 M0.038671501390183494 243.8360073994712 C51.175940406020686 185.009308820019, 102.31320931065119 126.18261024056673, 135.1868314734347 88.36583387358019 M0.038671501390183494 243.8360073994712 C32.9095041471516 206.02244000473829, 65.78033679291302 168.20887261000536, 135.1868314734347 88.36583387358019 M0.17181688225778657 255.8768658534002 C33.38748432960257 217.66661139721543, 66.60315177694736 179.4563569410307, 135.3199768543023 100.40669232750918 M0.17181688225778657 255.8768658534002 C44.31960006654387 205.09065082935456, 88.46738325082995 154.3044358053089, 135.3199768543023 100.40669232750918 M0.3049622631254181 267.9177243073292 C52.47935125526034 207.89795554471758, 104.65374024739526 147.87818678210596, 135.4531222351699 112.4475507814382 M0.3049622631254181 267.9177243073292 C44.41670089751699 217.1729737947347, 88.52843953190856 166.4282232821402, 135.4531222351699 112.4475507814382 M-0.217951384997491 280.713292341481 C52.981506398393286 219.51431682618045, 106.18096418178406 158.31534131087986, 135.58626761603753 124.4884092353672 M-0.217951384997491 280.713292341481 C46.140400508871735 227.38410891193962, 92.49875240274096 174.0549254823982, 135.58626761603753 124.4884092353672 M-0.08480600412988792 292.75415079541 C40.428465640391984 246.1489630223893, 80.94173728491386 199.5437752493686, 135.06335396791462 137.28397726951897 M-0.08480600412988792 292.75415079541 C38.28115886093096 248.61915690209275, 76.6471237259918 204.48416300877548, 135.06335396791462 137.28397726951897 M0.04833937673774358 304.79500924933905 C33.958121479357345 265.786267222737, 67.86790358197695 226.777525196135, 135.19649934878223 149.324835723448 M0.04833937673774358 304.79500924933905 C36.57573172859284 262.7750510895986, 73.10312408044794 220.75509292985817, 135.19649934878223 149.324835723448 M0.18148475760534666 316.83586770326804 C33.845931037649585 278.1093522561163, 67.51037731769382 239.38283680896456, 135.32964472964986 161.36569417737698 M0.18148475760534666 316.83586770326804 C42.28041091802516 268.406593070391, 84.37933707844498 219.97731843751396, 135.32964472964986 161.36569417737698 M0.31463013847294974 328.876726157197 C30.158290088807863 294.5455225944848, 60.00195003914278 260.2143190317726, 135.46279011051743 173.406552631306 M0.31463013847294974 328.876726157197 C41.367718191895115 281.6505506416779, 82.42080624531728 234.4243751261588, 135.46279011051743 173.406552631306 M-0.20828350964995934 341.6722941913488 C50.654053580381046 283.16186848555174, 101.51639067041205 224.65144277975475, 135.59593549138506 185.44741108523502 M-0.20828350964995934 341.6722941913488 C43.13320601792437 291.81361391692707, 86.4746955454987 241.9549336425053, 135.59593549138506 185.44741108523502 M-0.07513812878232784 353.7131526452778 C35.05647490927637 313.2988549115813, 70.18808794733506 272.8845571778849, 135.07302184326215 198.24297911938677 M-0.07513812878232784 353.7131526452778 C53.47615180839566 292.1094405356159, 107.02744174557365 230.50572842595395, 135.07302184326215 198.24297911938677 M2.682243368047324 362.7351727783157 C46.08539912320799 312.8055536238861, 89.48855487836866 262.8759344694566, 135.20616722412979 210.2838375733158 M2.682243368047324 362.7351727783157 C33.26418660111935 327.5546714515633, 63.846129834191366 292.3741701248109, 135.20616722412979 210.2838375733158 M13.312333212763036 362.7006779486804 C60.62202578268993 308.27710226089795, 107.93171835261683 253.8535265731155, 135.33931260499736 222.32469602724478 M13.312333212763036 362.7006779486804 C57.99756853584992 311.2961949637649, 102.68280385893681 259.89171197884946, 135.33931260499736 222.32469602724478 M23.286364028488265 363.4208926992678 C64.84296441066434 315.6154925081039, 106.39956479284042 267.81009231694003, 135.472457985865 234.3655544811738 M23.286364028488265 363.4208926992678 C55.18878124185626 326.7213598230255, 87.09119845522426 290.0218269467833, 135.472457985865 234.3655544811738 M33.91645387320398 363.38639786963245 C73.00756495067671 318.4172186829406, 112.09867602814943 273.4480394962488, 135.60560336673262 246.40641293510282 M33.91645387320398 363.38639786963245 C74.2014012467516 317.04386712454226, 114.48634862029924 270.70133637945213, 135.60560336673262 246.40641293510282 M44.54654371791969 363.3519030399971 C69.58735521812343 334.5457445989862, 94.62816671832718 305.7395861579753, 135.08268971860969 259.2019809692546 M44.54654371791969 363.3519030399971 C74.60791545153928 328.7702507199145, 104.66928718515888 294.1885983998318, 135.08268971860969 259.2019809692546 M55.17663356263543 363.3174082103618 C78.49928352784518 336.4877685177103, 101.82193349305493 309.65812882505884, 135.21583509947732 271.24283942318357 M55.17663356263543 363.3174082103618 C81.80942247445556 332.6798892500179, 108.44221138627569 302.042370289674, 135.21583509947732 271.24283942318357 M65.80672340735117 363.2829133807264 C81.8180455225982 344.8639942615072, 97.82936763784522 326.4450751422879, 135.34898048034495 283.28369787711256 M65.80672340735117 363.2829133807264 C89.44436713641772 336.09091481366244, 113.08201086548429 308.89891624659845, 135.34898048034495 283.28369787711256 M76.43681325206688 363.24841855109105 C94.79034952583196 342.13509026096693, 113.14388579959703 321.02176197084276, 135.48212586121255 295.3245563310416 M76.43681325206688 363.24841855109105 C99.26535383231982 336.9871866846053, 122.09389441257275 310.7259548181196, 135.48212586121255 295.3245563310416 M87.0669030967826 363.2139237214558 C102.92190291083722 344.9748328388724, 118.77690272489184 326.73574195628896, 135.61527124208015 307.3654147849706 M87.0669030967826 363.2139237214558 C101.05703513914311 347.1201178070739, 115.04716718150364 331.026311892692, 135.61527124208015 307.3654147849706 M97.69699294149834 363.1794288918204 C109.1369965308736 350.01921018410815, 120.57700012024887 336.8589914763959, 135.09235759395727 320.1609828191224 M97.69699294149834 363.1794288918204 C106.39258356323619 353.1762961584459, 115.08817418497404 343.1731634250714, 135.09235759395727 320.1609828191224 M108.32708278621408 363.14493406218503 C115.63645485497094 354.73646335766347, 122.94582692372781 346.3279926531419, 135.22550297482488 332.2018412730514 M108.32708278621408 363.14493406218503 C115.61915901529323 354.7563599452051, 122.9112352443724 346.36778582822507, 135.22550297482488 332.2018412730514 M118.95717263092979 363.1104392325497 C123.88964802845827 357.43627536583807, 128.82212342598675 351.7621114991264, 135.35864835569248 344.2426997269804 M118.95717263092979 363.1104392325497 C124.02936237525651 357.2755523952458, 129.10155211958323 351.440665557942, 135.35864835569248 344.2426997269804 M129.5872624756455 363.0759444029144 C131.25694052734906 361.1551995220043, 132.92661857905262 359.2344546410942, 135.49179373656008 356.2835581809094 M129.5872624756455 363.0759444029144 C131.9314330713418 360.37928460848894, 134.27560366703807 357.68262481406344, 135.49179373656008 356.2835581809094" stroke="#e73b2b" stroke-width="1" fill="none"></path><path d="M0 0 C42.958970722183594 0, 85.91794144436719 0, 132 0 M0 0 C33.83149990774691 0, 67.66299981549382 0, 132 0 M132 0 C132 108.89320842465382, 132 217.78641684930764, 132 360.99999999999983 M132 0 C132 113.58528845617542, 132 227.17057691235084, 132 360.99999999999983 M132 360.99999999999983 C94.31808876134454 360.99999999999983, 56.636177522689096 360.99999999999983, 0 360.99999999999983 M132 360.99999999999983 C91.9563541676849 360.99999999999983, 51.91270833536983 360.99999999999983, 0 360.99999999999983 M0 360.99999999999983 C0 283.19298421302796, 0 205.38596842605608, 0 0 M0 360.99999999999983 C0 221.00155500462267, 0 81.00311000924552, 0 0" stroke="#e73b2b" stroke-width="2" fill="none"></path></g><g transform="translate(887 11.25) rotate(0 53 11.5)"><text x="53" y="18" font-family="Helvetica, Segoe UI Emoji" font-size="20px" fill="#162d4a" text-anchor="middle" style="white-space: pre;" direction="ltr">JVM Tuning</text></g><g transform="translate(525 66.75) rotate(0 66 180.5)"><path d="M0 0 C0 0, 0 0, 0 0 M0 0 C0 0, 0 0, 0 0 M0.13314538086761107 12.040858453929006 C3.961525126534896 7.636811343668558, 7.789904872202181 3.23276423340811, 10.630089844715727 -0.03449482963534578 M0.13314538086761107 12.040858453929006 C2.32762339453039 9.51640027667023, 4.522101408193169 6.991942099411454, 10.630089844715727 -0.03449482963534578 M0.26629076173522215 24.081716907858013 C8.452204878286548 14.664899923952886, 16.638118994837875 5.248082940047759, 21.260179689431453 -0.06898965927069156 M0.26629076173522215 24.081716907858013 C7.075081303209563 16.2490993775607, 13.883871844683904 8.416481847263388, 21.260179689431453 -0.06898965927069156 M-0.25662288638767805 36.877284942009794 C11.41540169081804 23.450156620085174, 23.08742626802376 10.02302829816055, 31.89026953414718 -0.10348448890603734 M-0.25662288638767805 36.877284942009794 C9.853009057678678 25.247483744923542, 19.962641001745034 13.617682547837287, 31.89026953414718 -0.10348448890603734 M-0.12347750552006431 48.9181433959388 C12.205167342232098 34.735659859236634, 24.53381218998426 20.553176322534476, 42.520359378862906 -0.13797931854138312 M-0.12347750552006431 48.9181433959388 C15.717281434790646 30.695434764601597, 31.558040375101356 12.472726133264395, 42.520359378862906 -0.13797931854138312 M0.009667875347545873 60.9590018498678 C20.70218792639881 37.15498051735115, 41.394707977450075 13.350959184834501, 53.15044922357863 -0.1724741481767289 M0.009667875347545873 60.9590018498678 C17.965227751985854 40.30349303381793, 35.92078762862416 19.647984217768048, 53.15044922357863 -0.1724741481767289 M0.14281325621515606 72.99986030379681 C25.118380274929233 44.26875705303711, 50.09394729364331 15.537653802277418, 63.78053906829436 -0.20696897781207468 M0.14281325621515606 72.99986030379681 C23.460500210756226 46.17592990182328, 46.7781871652973 19.351999499849754, 63.78053906829436 -0.20696897781207468 M0.27595863708276624 85.04071875772581 C24.341163936582962 57.356866867893174, 48.40636923608316 29.673014978060543, 74.41062891301009 -0.2414638074474169 M0.27595863708276624 85.04071875772581 C20.97060562222281 61.234250667429194, 41.66525260736285 37.427782577132575, 74.41062891301009 -0.2414638074474169 M-0.24695501104012862 97.8362867918776 C16.853569926681015 78.16438315662816, 33.95409486440216 58.49247952137874, 85.04071875772581 -0.27595863708276624 M-0.24695501104012862 97.8362867918776 C19.114062208775053 75.56398425054027, 38.475079428590234 53.29168170920293, 85.04071875772581 -0.27595863708276624 M-0.11380963017251844 109.87714524580659 C20.364981759589714 86.31899061295448, 40.84377314935195 62.760835980102385, 95.67080860244155 -0.3104534667181156 M-0.11380963017251844 109.87714524580659 C23.74480270460848 82.43095137574105, 47.60341503938948 54.98475750567549, 95.67080860244155 -0.3104534667181156 M0.019335750695091747 121.9180036997356 C24.23030762437178 94.06646654814149, 48.441279498048466 66.21492939654738, 106.30089844715727 -0.3449482963534578 M0.019335750695091747 121.9180036997356 C35.30875057526906 81.32217577622896, 70.59816539984303 40.72634785272233, 106.30089844715727 -0.3449482963534578 M0.15248113156270904 133.9588621536646 C42.65958204150813 85.06003618430796, 85.16668295145355 36.16121021495134, 116.2749292628825 0.375266454233973 M0.15248113156270904 133.9588621536646 C43.053872076195056 84.60645738512204, 85.9552630208274 35.2540526165795, 116.2749292628825 0.375266454233973 M0.2856265124303121 145.99972060759362 C38.65018920348614 101.86633973095314, 77.01475189454197 57.732958854312685, 126.9050191075982 0.34077162459862365 M0.2856265124303121 145.99972060759362 C28.29644108824712 113.7769644590482, 56.30725566406393 81.55420831050277, 126.9050191075982 0.34077162459862365 M-0.23728713569258275 158.7952886417454 C34.33096818278962 119.02905983061385, 68.89922350127182 79.26283101948229, 135.56693186534244 2.5704055356315934 M-0.23728713569258275 158.7952886417454 C36.82781601429213 116.15676496761506, 73.89291916427685 73.51824129348473, 135.56693186534244 2.5704055356315934 M-0.10414175482497967 170.8361470956744 C36.22057245264952 129.04934347006358, 72.54528666012402 87.26253984445276, 135.04401821721953 15.365973569783378 M-0.10414175482497967 170.8361470956744 C39.79405256956694 124.93852483972935, 79.69224689395885 79.0409025837843, 135.04401821721953 15.365973569783378 M0.02900362604263762 182.8770055496034 C29.289099233379716 149.2171159706566, 58.549194840716794 115.55722639170978, 135.17716359808713 27.406832023712383 M0.02900362604263762 182.8770055496034 C27.48522840003538 151.29223198804334, 54.94145317402812 119.7074584264833, 135.17716359808713 27.406832023712383 M0.1621490069102549 194.91786400353243 C38.263160189591815 151.08766445580116, 76.36417137227338 107.25746490806989, 135.31030897895474 39.44769047764138 M0.1621490069102549 194.91786400353243 C42.818495923943765 145.84735014271774, 85.47484284097727 96.77683628190309, 135.31030897895474 39.44769047764138 M0.295294387777858 206.95872245746142 C48.03303595917688 152.04273272164295, 95.7707775305759 97.12674298582446, 135.44345435982234 51.488548931570385 M0.295294387777858 206.95872245746142 C42.82550048416447 158.03331701157987, 85.35570658055109 109.10791156569833, 135.44345435982234 51.488548931570385 M-0.22761926034503688 219.75429049161318 C42.3125628397732 170.81740896620846, 84.85274493989144 121.88052744080375, 135.57659974068997 63.52940738549939 M-0.22761926034503688 219.75429049161318 C41.189929597356944 172.1088507811802, 82.60747845505892 124.46341107074723, 135.57659974068997 63.52940738549939 M-0.0944738794774338 231.79514894554222 C30.99844626896154 196.02683591853244, 62.091366417400515 160.25852289152266, 135.05368609256706 76.32497541965118 M-0.0944738794774338 231.79514894554222 C50.32166719679576 173.7980130374001, 100.73780827306895 115.800877129258, 135.05368609256706 76.32497541965118 M0.038671501390183494 243.8360073994712 C33.50715791425515 205.33491799260574, 66.97564432712012 166.83382858574026, 135.1868314734347 88.36583387358019 M0.038671501390183494 243.8360073994712 C33.38644523885352 205.4737820407389, 66.73421897631685 167.1115566820066, 135.1868314734347 88.36583387358019 M0.17181688225778657 255.8768658534002 C51.04744453403955 197.35115110525086, 101.92307218582131 138.82543635710152, 135.3199768543023 100.40669232750918 M0.17181688225778657 255.8768658534002 C34.586998021239445 216.28672874232734, 69.0021791602211 176.69659163125448, 135.3199768543023 100.40669232750918 M0.3049622631254181 267.9177243073292 C52.20997958207743 208.20783220734745, 104.11499690102944 148.4979401073657, 135.4531222351699 112.4475507814382 M0.3049622631254181 267.9177243073292 C52.38368906575644 208.00800230528844, 104.46241586838747 148.0982803032477, 135.4531222351699 112.4475507814382 M-0.217951384997491 280.713292341481 C52.18081215932182 220.4354101826521, 104.57957570364113 160.15752802382323, 135.58626761603753 124.4884092353672 M-0.217951384997491 280.713292341481 C33.30994382160016 242.14386093519437, 66.8378390281978 203.57442952890773, 135.58626761603753 124.4884092353672 M-0.08480600412988792 292.75415079541 C45.25883852710542 240.5922546584172, 90.60248305834072 188.4303585214244, 135.06335396791462 137.28397726951897 M-0.08480600412988792 292.75415079541 C43.98884720489256 242.05321255293572, 88.062500413915 191.35227431046144, 135.06335396791462 137.28397726951897 M0.04833937673774358 304.79500924933905 C29.213407161893702 271.2444366748364, 58.37847494704966 237.69386410033377, 135.19649934878223 149.324835723448 M0.04833937673774358 304.79500924933905 C47.08904455304768 250.6808681611143, 94.12974972935761 196.5667270728895, 135.19649934878223 149.324835723448 M0.18148475760534666 316.83586770326804 C44.654647629097155 265.67534616670946, 89.12781050058896 214.51482463015088, 135.32964472964986 161.36569417737698 M0.18148475760534666 316.83586770326804 C45.50185462867383 264.70074600001993, 90.82222449974232 212.56562429677186, 135.32964472964986 161.36569417737698 M0.31463013847294974 328.876726157197 C39.227908199310995 284.1121204546025, 78.14118626014904 239.34751475200798, 135.46279011051743 173.406552631306 M0.31463013847294974 328.876726157197 C49.97503713853222 271.74896285459175, 99.6354441385915 214.62119955198648, 135.46279011051743 173.406552631306 M-0.20828350964995934 341.6722941913488 C41.33082869949983 293.88701184193434, 82.86994090864962 246.10172949251995, 135.59593549138506 185.44741108523502 M-0.20828350964995934 341.6722941913488 C32.41753385007417 304.1405846409594, 65.0433512097983 266.60887509057, 135.59593549138506 185.44741108523502 M-0.07513812878232784 353.7131526452778 C52.34867445329746 293.4064548647779, 104.77248703537725 233.09975708427808, 135.07302184326215 198.24297911938677 M-0.07513812878232784 353.7131526452778 C30.36377546492502 318.6971880969467, 60.80268905863237 283.68122354861566, 135.07302184326215 198.24297911938677 M2.682243368047324 362.7351727783157 C31.986819976940144 329.0241136604576, 61.29139658583296 295.31305454259956, 135.20616722412979 210.2838375733158 M2.682243368047324 362.7351727783157 C46.28025702107615 312.5813952542811, 89.87827067410498 262.42761773024654, 135.20616722412979 210.2838375733158 M13.312333212763036 362.7006779486804 C57.90551961424121 311.4020851351023, 102.49870601571938 260.1034923215243, 135.33931260499736 222.32469602724478 M13.312333212763036 362.7006779486804 C44.12653369235647 327.2529952231816, 74.9407341719499 291.80531249768285, 135.33931260499736 222.32469602724478 M23.286364028488265 363.4208926992678 C61.8881994994328 319.01456071274987, 100.49003497037734 274.6082287262319, 135.472457985865 234.3655544811738 M23.286364028488265 363.4208926992678 C51.406599833298074 331.07226182580956, 79.52683563810788 298.7236309523513, 135.472457985865 234.3655544811738 M33.91645387320398 363.38639786963245 C57.746217593221765 335.9733905345826, 81.57598131323955 308.56038319953274, 135.60560336673262 246.40641293510282 M33.91645387320398 363.38639786963245 C63.54836499942176 329.2987834644508, 93.18027612563954 295.2111690592692, 135.60560336673262 246.40641293510282 M44.54654371791969 363.3519030399971 C76.9659693573793 326.05762000411204, 109.3853949968389 288.7633369682269, 135.08268971860969 259.2019809692546 M44.54654371791969 363.3519030399971 C73.0926144640161 330.51340510339196, 101.63868521011248 297.6749071667868, 135.08268971860969 259.2019809692546 M55.17663356263543 363.3174082103618 C76.98426143562864 338.2306020688381, 98.79188930862186 313.1437959273144, 135.21583509947732 271.24283942318357 M55.17663356263543 363.3174082103618 C86.78102563360639 326.9607140424906, 118.38541770457735 290.60401987461944, 135.21583509947732 271.24283942318357 M65.80672340735117 363.2829133807264 C83.92247047781093 342.44313027766293, 102.0382175482707 321.6033471745995, 135.34898048034495 283.28369787711256 M65.80672340735117 363.2829133807264 C93.19827258633562 331.77254058038216, 120.58982176532007 300.2621677800378, 135.34898048034495 283.28369787711256 M76.43681325206688 363.24841855109105 C95.4330882206877 341.3957039723064, 114.4293631893085 319.5429893935218, 135.48212586121255 295.3245563310416 M76.43681325206688 363.24841855109105 C95.735968075745 341.0472805558648, 115.03512289942314 318.84614256063855, 135.48212586121255 295.3245563310416 M87.0669030967826 363.2139237214558 C99.82489069906978 348.5375378440673, 112.58287830135696 333.8611519666788, 135.61527124208015 307.3654147849706 M87.0669030967826 363.2139237214558 C97.66578906413855 351.0213001528714, 108.2646750314945 338.828676584287, 135.61527124208015 307.3654147849706 M97.69699294149834 363.1794288918204 C108.47083144594598 350.7855454518026, 119.24466995039361 338.3916620117848, 135.09235759395727 320.1609828191224 M97.69699294149834 363.1794288918204 C107.50394802829507 351.89781758893406, 117.31090311509182 340.6162062860477, 135.09235759395727 320.1609828191224 M108.32708278621408 363.14493406218503 C116.14009183332331 354.15709528905865, 123.95310088043254 345.16925651593226, 135.22550297482488 332.2018412730514 M108.32708278621408 363.14493406218503 C115.89749258952855 354.43617379473585, 123.46790239284303 345.72741352728667, 135.22550297482488 332.2018412730514 M118.95717263092979 363.1104392325497 C122.92064705793007 358.5509834689002, 126.88412148493035 353.9915277052507, 135.35864835569248 344.2426997269804 M118.95717263092979 363.1104392325497 C123.6622414207374 357.69787674295344, 128.367310210545 352.28531425335717, 135.35864835569248 344.2426997269804 M129.5872624756455 363.0759444029144 C131.2588226725398 361.1530343616391, 132.93038286943408 359.2301243203637, 135.49179373656008 356.2835581809094 M129.5872624756455 363.0759444029144 C131.57740176497666 360.78655103849854, 133.5675410543078 358.4971576740827, 135.49179373656008 356.2835581809094" stroke="#e73b2b" stroke-width="1" fill="none"></path><path d="M0 0 C29.45959219671786 0, 58.91918439343572 0, 132 0 M0 0 C40.29962274692953 0, 80.59924549385906 0, 132 0 M132 0 C132 125.68874802896752, 132 251.37749605793505, 132 361 M132 0 C132 110.94574468275533, 132 221.89148936551067, 132 361 M132 361 C96.05494034551083 361, 60.10988069102167 361, 0 361 M132 361 C91.51002416945994 361, 51.02004833891988 361, 0 361 M0 361 C0 224.77281924774869, 0 88.54563849549737, 0 0 M0 361 C0 277.004242090974, 0 193.008484181948, 0 0" stroke="#e73b2b" stroke-width="2" fill="none"></path></g><g transform="translate(545.5 11.25) rotate(0 45.5 11.5)"><text x="45.5" y="18" font-family="Helvetica, Segoe UI Emoji" font-size="20px" fill="#162d4a" text-anchor="middle" style="white-space: pre;" direction="ltr">Streaming</text></g></svg>