<svg version="1.1" viewBox="0.0 0.0 626.9002624671916 346.257217847769" fill="none" stroke="none" stroke-linecap="square" stroke-miterlimit="10" xmlns:xlink="http://www.w3.org/1999/xlink" xmlns="http://www.w3.org/2000/svg"><clipPath id="p.0"><path d="m0 0l626.90027 0l0 346.25723l-626.90027 0l0 -346.25723z" clip-rule="nonzero"/></clipPath><g clip-path="url(#p.0)"><path fill="#000000" fill-opacity="0.0" d="m0 0l626.90027 0l0 346.25723l-626.90027 0z" fill-rule="evenodd"/><path fill="#fce5cd" d="m235.82677 8.95556l0 0c0 -4.946019 4.009552 -8.95556 8.955566 -8.95556l130.6873 0c2.3751526 0 4.6530457 0.9435295 6.33255 2.6230228c1.6794739 1.6794932 2.6230164 3.9573748 2.6230164 6.3325367l0 35.821163c0 4.946022 -4.009552 8.955563 -8.955566 8.955563l-130.6873 0c-4.9460144 0 -8.955566 -4.0095406 -8.955566 -8.955563z" fill-rule="evenodd"/><path stroke="#783f04" stroke-width="1.0" stroke-linejoin="round" stroke-linecap="butt" d="m235.82677 8.95556l0 0c0 -4.946019 4.009552 -8.95556 8.955566 -8.95556l130.6873 0c2.3751526 0 4.6530457 0.9435295 6.33255 2.6230228c1.6794739 1.6794932 2.6230164 3.9573748 2.6230164 6.3325367l0 35.821163c0 4.946022 -4.009552 8.955563 -8.955566 8.955563l-130.6873 0c-4.9460144 0 -8.955566 -4.0095406 -8.955566 -8.955563z" fill-rule="evenodd"/><path fill="#783f04" d="m290.53543 20.893017l-3.671875 0l0 13.453125l-1.59375 0l0 -13.453125l-3.671875 0l0 -1.484375l8.9375 0l0 1.484375zm0.17559814 3.421875q0.609375 -0.375 1.5 -0.578125q0.890625 -0.21875 1.859375 -0.21875q0.90625 0 1.4375 0.265625q0.546875 0.265625 0.859375 0.71875q0.3125 0.453125 0.40625 1.046875q0.09375 0.578125 0.09375 1.21875q0 1.28125 -0.0625 2.5q-0.046875 1.21875 -0.046875 2.3125q0 0.796875 0.046875 1.5q0.0625 0.6875 0.21875 1.3125l-1.171875 0l-0.375 -1.265625l-0.078125 0q-0.3125 0.5625 -0.9375 0.96875q-0.625 0.40625 -1.671875 0.40625q-1.140625 0 -1.875 -0.796875q-0.734375 -0.8125 -0.734375 -2.21875q0 -0.921875 0.296875 -1.53125q0.3125 -0.625 0.875 -1.0q0.578125 -0.390625 1.34375 -0.546875q0.78125 -0.15625 1.75 -0.15625q0.203125 0 0.421875 0q0.21875 0 0.453125 0.015625q0.0625 -0.65625 0.0625 -1.171875q0 -1.21875 -0.375 -1.703125q-0.359375 -0.5 -1.3125 -0.5q-0.59375 0 -1.296875 0.1875q-0.703125 0.1875 -1.1875 0.453125l-0.5 -1.21875zm4.625 5.171875q-0.21875 -0.03125 -0.4375 -0.03125q-0.203125 -0.015625 -0.421875 -0.015625q-0.5 0 -1.0 0.09375q-0.484375 0.078125 -0.875 0.296875q-0.375 0.203125 -0.609375 0.578125q-0.21875 0.359375 -0.21875 0.90625q0 0.859375 0.40625 1.328125q0.421875 0.46875 1.09375 0.46875q0.890625 0 1.375 -0.421875q0.5 -0.4375 0.6875 -0.953125l0 -2.25zm-1.5 -10.5l1.671875 0l0 0.453125l-1.75 2.734375l-0.921875 0l1.0 -3.1875zm10.5000305 15.359375l0 -6.328125q0 -0.859375 -0.0625 -1.46875q-0.046875 -0.609375 -0.21875 -0.984375q-0.171875 -0.390625 -0.46875 -0.5625q-0.296875 -0.1875 -0.78125 -0.1875q-0.734375 0 -1.234375 0.5625q-0.5 0.5625 -0.6875 1.296875l0 7.671875l-1.53125 0l0 -10.671875l1.078125 0l0.28125 1.140625l0.0625 0q0.453125 -0.625 1.0625 -1.0q0.625 -0.390625 1.578125 -0.390625q0.8125 0 1.328125 0.359375q0.53125 0.34375 0.828125 1.234375q0.390625 -0.734375 1.09375 -1.15625q0.71875 -0.4375 1.578125 -0.4375q0.703125 0 1.203125 0.1875q0.5 0.171875 0.8125 0.640625q0.3125 0.453125 0.453125 1.21875q0.15625 0.75 0.15625 1.90625l0 6.96875l-1.546875 0l0 -6.78125q0 -1.390625 -0.265625 -2.0625q-0.265625 -0.6875 -1.21875 -0.6875q-0.8125 0 -1.296875 0.5q-0.46875 0.5 -0.671875 1.359375l0 7.671875l-1.53125 0zm8.790894 -10.03125q0.609375 -0.375 1.5 -0.578125q0.890625 -0.21875 1.859375 -0.21875q0.90625 0 1.4375 0.265625q0.546875 0.265625 0.859375 0.71875q0.3125 0.453125 0.40625 1.046875q0.09375 0.578125 0.09375 1.21875q0 1.28125 -0.0625 2.5q-0.046875 1.21875 -0.046875 2.3125q0 0.796875 0.046875 1.5q0.0625 0.6875 0.21875 1.3125l-1.171875 0l-0.375 -1.265625l-0.078125 0q-0.3125 0.5625 -0.9375 0.96875q-0.625 0.40625 -1.671875 0.40625q-1.140625 0 -1.875 -0.796875q-0.734375 -0.8125 -0.734375 -2.21875q0 -0.921875 0.296875 -1.53125q0.3125 -0.625 0.875 -1.0q0.578125 -0.390625 1.34375 -0.546875q0.78125 -0.15625 1.75 -0.15625q0.203125 0 0.421875 0q0.21875 0 0.453125 0.015625q0.0625 -0.65625 0.0625 -1.171875q0 -1.21875 -0.375 -1.703125q-0.359375 -0.5 -1.3125 -0.5q-0.59375 0 -1.296875 0.1875q-0.703125 0.1875 -1.1875 0.453125l-0.5 -1.21875zm4.625 5.171875q-0.21875 -0.03125 -0.4375 -0.03125q-0.203125 -0.015625 -0.421875 -0.015625q-0.5 0 -1.0 0.09375q-0.484375 0.078125 -0.875 0.296875q-0.375 0.203125 -0.609375 0.578125q-0.21875 0.359375 -0.21875 0.90625q0 0.859375 0.40625 1.328125q0.421875 0.46875 1.09375 0.46875q0.890625 0 1.375 -0.421875q0.5 -0.4375 0.6875 -0.953125l0 -2.25zm10.7344055 1.1875q0 1.09375 0.015625 1.984375q0.015625 0.875 0.140625 1.734375l-1.03125 0l-0.34375 -1.28125l-0.09375 0q-0.296875 0.640625 -0.9375 1.0625q-0.640625 0.421875 -1.53125 0.421875q-1.734375 0 -2.578125 -1.34375q-0.828125 -1.34375 -0.828125 -4.21875q0 -2.734375 1.03125 -4.140625q1.03125 -1.40625 2.84375 -1.40625q0.625 0 0.984375 0.078125q0.359375 0.078125 0.78125 0.25l0 -4.40625l1.546875 0l0 11.265625zm-1.546875 -5.3125q-0.296875 -0.25 -0.671875 -0.359375q-0.375 -0.125 -0.984375 -0.125q-1.140625 0 -1.765625 1.03125q-0.625 1.015625 -0.625 3.140625q0 0.953125 0.109375 1.703125q0.125 0.75 0.359375 1.3125q0.25 0.546875 0.640625 0.859375q0.40625 0.296875 0.984375 0.296875q1.53125 0 1.953125 -1.8125l0 -6.046875zm3.594513 3.65625q0 -2.890625 0.984375 -4.234375q0.984375 -1.359375 2.828125 -1.359375q1.953125 0 2.875 1.390625q0.9375 1.390625 0.9375 4.203125q0 2.890625 -1.0 4.234375q-1.0 1.34375 -2.8125 1.34375q-1.96875 0 -2.890625 -1.375q-0.921875 -1.390625 -0.921875 -4.203125zm1.59375 0q0 0.9375 0.109375 1.703125q0.125 0.765625 0.390625 1.328125q0.265625 0.546875 0.6875 0.859375q0.4375 0.3125 1.03125 0.3125q1.109375 0 1.65625 -0.984375q0.5625 -1.0 0.5625 -3.21875q0 -0.921875 -0.125 -1.703125q-0.109375 -0.78125 -0.375 -1.328125q-0.265625 -0.5625 -0.703125 -0.859375q-0.421875 -0.3125 -1.015625 -0.3125q-1.09375 0 -1.65625 1.0q-0.5625 1.0 -0.5625 3.203125zm2.890625 -10.03125l1.671875 0l0 0.453125l-1.75 2.734375l-0.921875 0l1.0 -3.1875z" fill-rule="nonzero"/><path fill="#c9daf8" d="m107.71391 96.1892l0 0c0 -6.3028336 5.109459 -11.4123 11.4123 -11.4123l104.92342 0c3.0267334 0 5.9295044 1.2023621 8.069717 3.3425903c2.1402283 2.1402206 3.3425903 5.042984 3.3425903 8.06971l0 45.647835c0 6.302841 -5.1094666 11.412308 -11.412308 11.412308l-104.92342 0c-6.302841 0 -11.4123 -5.1094666 -11.4123 -11.412308z" fill-rule="evenodd"/><path stroke="#1c4587" stroke-width="1.0" stroke-linejoin="round" stroke-linecap="butt" d="m107.71391 96.1892l0 0c0 -6.3028336 5.109459 -11.4123 11.4123 -11.4123l104.92342 0c3.0267334 0 5.9295044 1.2023621 8.069717 3.3425903c2.1402283 2.1402206 3.3425903 5.042984 3.3425903 8.06971l0 45.647835c0 6.302841 -5.1094666 11.412308 -11.412308 11.412308l-104.92342 0c-6.302841 0 -11.4123 -5.1094666 -11.4123 -11.412308z" fill-rule="evenodd"/><path fill="#1c4587" d="m145.44948 113.04l-3.671875 0l0 13.453125l-1.59375 0l0 -13.453125l-3.671875 0l0 -1.484375l8.9375 0l0 1.484375zm1.8149567 2.78125l1.53125 0l0 10.671875l-1.53125 0l0 -10.671875zm-0.28125 -3.234375q0 -0.515625 0.28125 -0.828125q0.296875 -0.328125 0.765625 -0.328125q0.46875 0 0.78125 0.3125q0.3125 0.3125 0.3125 0.84375q0 0.515625 -0.3125 0.8125q-0.3125 0.28125 -0.78125 0.28125q-0.46875 0 -0.765625 -0.296875q-0.28125 -0.3125 -0.28125 -0.796875zm3.5813446 3.234375l1.3125 0l0 -2.109375l1.53125 -0.484375l0 2.59375l2.296875 0l0 1.390625l-2.296875 0l0 6.359375q0 0.9375 0.21875 1.359375q0.21875 0.40625 0.734375 0.40625q0.4375 0 0.734375 -0.09375q0.3125 -0.09375 0.671875 -0.25l0.296875 1.21875q-0.46875 0.234375 -1.03125 0.375q-0.5625 0.140625 -1.1875 0.140625q-1.0625 0 -1.515625 -0.6875q-0.453125 -0.703125 -0.453125 -2.25l0 -6.578125l-1.3125 0l0 -1.390625zm9.25589 5.875l-0.78125 0l0 4.796875l-1.53125 0l0 -14.9375l1.53125 0l0 9.09375l0.703125 -0.296875l2.5 -4.53125l1.765625 0l-2.515625 4.3125l-0.75 0.6875l0.875 0.828125l2.75 4.84375l-1.859375 0l-2.6875 -4.796875zm5.2807617 -0.53125q0 -2.890625 0.984375 -4.234375q0.984375 -1.359375 2.828125 -1.359375q1.953125 0 2.875 1.390625q0.9375 1.390625 0.9375 4.203125q0 2.890625 -1.0 4.234375q-1.0 1.34375 -2.8125 1.34375q-1.96875 0 -2.890625 -1.375q-0.921875 -1.390625 -0.921875 -4.203125zm1.59375 0q0 0.9375 0.109375 1.703125q0.125 0.765625 0.390625 1.328125q0.265625 0.546875 0.6875 0.859375q0.4375 0.3125 1.03125 0.3125q1.109375 0 1.65625 -0.984375q0.5625 -1.0 0.5625 -3.21875q0 -0.921875 -0.125 -1.703125q-0.109375 -0.78125 -0.375 -1.328125q-0.265625 -0.5625 -0.703125 -0.859375q-0.421875 -0.3125 -1.015625 -0.3125q-1.09375 0 -1.65625 1.0q-0.5625 1.0 -0.5625 3.203125zm7.916916 3.578125q0.421875 0.25 1.0 0.4375q0.59375 0.1875 1.21875 0.1875q0.703125 0 1.1875 -0.34375q0.484375 -0.359375 0.484375 -1.15625q0 -0.65625 -0.296875 -1.078125q-0.296875 -0.4375 -0.765625 -0.765625q-0.453125 -0.34375 -0.984375 -0.625q-0.53125 -0.296875 -0.984375 -0.703125q-0.453125 -0.40625 -0.765625 -0.953125q-0.296875 -0.5625 -0.296875 -1.421875q0 -1.359375 0.734375 -2.046875q0.75 -0.703125 2.09375 -0.703125q0.859375 0 1.5 0.171875q0.640625 0.15625 1.109375 0.421875l-0.40625 1.28125q-0.390625 -0.203125 -0.9375 -0.34375q-0.53125 -0.140625 -1.078125 -0.140625q-0.765625 0 -1.125 0.328125q-0.34375 0.3125 -0.34375 0.984375q0 0.546875 0.296875 0.921875q0.296875 0.359375 0.75 0.671875q0.46875 0.3125 1.0 0.640625q0.53125 0.3125 0.984375 0.75q0.453125 0.4375 0.75 1.046875q0.3125 0.609375 0.3125 1.515625q0 0.609375 -0.203125 1.140625q-0.1875 0.53125 -0.578125 0.921875q-0.390625 0.390625 -0.984375 0.625q-0.578125 0.234375 -1.375 0.234375q-0.9375 0 -1.625 -0.1875q-0.671875 -0.171875 -1.140625 -0.46875l0.46875 -1.34375zm7.6464386 -8.921875l1.546875 0l0 10.671875l-1.546875 0l0 -10.671875zm0.75 -4.6875l1.671875 0l0 0.453125l-1.75 2.734375l-0.921875 0l1.0 -3.1875zm2.5344696 4.6875l1.3125 0l0 -2.109375l1.53125 -0.484375l0 2.59375l2.296875 0l0 1.390625l-2.296875 0l0 6.359375q0 0.9375 0.21875 1.359375q0.21875 0.40625 0.734375 0.40625q0.4375 0 0.734375 -0.09375q0.3125 -0.09375 0.671875 -0.25l0.296875 1.21875q-0.46875 0.234375 -1.03125 0.375q-0.5625 0.140625 -1.1875 0.140625q-1.0625 0 -1.515625 -0.6875q-0.453125 -0.703125 -0.453125 -2.25l0 -6.578125l-1.3125 0l0 -1.390625zm6.834015 0.640625q0.609375 -0.375 1.5 -0.578125q0.890625 -0.21875 1.859375 -0.21875q0.90625 0 1.4375 0.265625q0.546875 0.265625 0.859375 0.71875q0.3125 0.453125 0.40625 1.046875q0.09375 0.578125 0.09375 1.21875q0 1.28125 -0.0625 2.5q-0.046875 1.21875 -0.046875 2.3125q0 0.796875 0.046875 1.5q0.0625 0.6875 0.21875 1.3125l-1.171875 0l-0.375 -1.265625l-0.078125 0q-0.3125 0.5625 -0.9375 0.96875q-0.625 0.40625 -1.671875 0.40625q-1.140625 0 -1.875 -0.796875q-0.734375 -0.8125 -0.734375 -2.21875q0 -0.921875 0.296875 -1.53125q0.3125 -0.625 0.875 -1.0q0.578125 -0.390625 1.34375 -0.546875q0.78125 -0.15625 1.75 -0.15625q0.203125 0 0.421875 0q0.21875 0 0.453125 0.015625q0.0625 -0.65625 0.0625 -1.171875q0 -1.21875 -0.375 -1.703125q-0.359375 -0.5 -1.3125 -0.5q-0.59375 0 -1.296875 0.1875q-0.703125 0.1875 -1.1875 0.453125l-0.5 -1.21875zm4.625 5.171875q-0.21875 -0.03125 -0.4375 -0.03125q-0.203125 -0.015625 -0.421875 -0.015625q-0.5 0 -1.0 0.09375q-0.484375 0.078125 -0.875 0.296875q-0.375 0.203125 -0.609375 0.578125q-0.21875 0.359375 -0.21875 0.90625q0 0.859375 0.40625 1.328125q0.421875 0.46875 1.09375 0.46875q0.890625 0 1.375 -0.421875q0.5 -0.4375 0.6875 -0.953125l0 -2.25zm-1.5 -10.5l1.671875 0l0 0.453125l-1.75 2.734375l-0.921875 0l1.0 -3.1875zm5.3437805 13.609375q0.421875 0.25 1.0 0.4375q0.59375 0.1875 1.21875 0.1875q0.703125 0 1.1875 -0.34375q0.484375 -0.359375 0.484375 -1.15625q0 -0.65625 -0.296875 -1.078125q-0.296875 -0.4375 -0.765625 -0.765625q-0.453125 -0.34375 -0.984375 -0.625q-0.53125 -0.296875 -0.984375 -0.703125q-0.453125 -0.40625 -0.765625 -0.953125q-0.296875 -0.5625 -0.296875 -1.421875q0 -1.359375 0.734375 -2.046875q0.75 -0.703125 2.09375 -0.703125q0.859375 0 1.5 0.171875q0.640625 0.15625 1.109375 0.421875l-0.40625 1.28125q-0.390625 -0.203125 -0.9375 -0.34375q-0.53125 -0.140625 -1.078125 -0.140625q-0.765625 0 -1.125 0.328125q-0.34375 0.3125 -0.34375 0.984375q0 0.546875 0.296875 0.921875q0.296875 0.359375 0.75 0.671875q0.46875 0.3125 1.0 0.640625q0.53125 0.3125 0.984375 0.75q0.453125 0.4375 0.75 1.046875q0.3125 0.609375 0.3125 1.515625q0 0.609375 -0.203125 1.140625q-0.1875 0.53125 -0.578125 0.921875q-0.390625 0.390625 -0.984375 0.625q-0.578125 0.234375 -1.375 0.234375q-0.9375 0 -1.625 -0.1875q-0.671875 -0.171875 -1.140625 -0.46875l0.46875 -1.34375z" fill-rule="nonzero"/><path fill="#d9ead3" d="m266.95276 96.49084l86.34897 0l0 36.294365c-43.17447 0 -43.17447 13.828812 -86.34897 5.971527z" fill-rule="evenodd"/><path stroke="#274e13" stroke-width="1.0" stroke-linejoin="round" stroke-linecap="butt" d="m266.95276 96.49084l86.34897 0l0 36.294365c-43.17447 0 -43.17447 13.828812 -86.34897 5.971527z" fill-rule="evenodd"/><path fill="#274e13" d="m292.6562 107.18052l1.53125 0l0 10.015625q0 2.703125 -1.0625 3.90625q-1.046875 1.203125 -3.0 1.203125q-2.25 0 -3.296875 -1.171875q-1.03125 -1.171875 -1.03125 -3.59375l0 -10.359375l1.609375 0l0 9.515625q0 1.15625 0.140625 1.953125q0.15625 0.78125 0.5 1.28125q0.34375 0.484375 0.84375 0.703125q0.515625 0.203125 1.265625 0.203125q1.40625 0 1.953125 -0.96875q0.546875 -0.984375 0.546875 -3.171875l0 -9.515625zm-4.9375 -2.0q0 -0.4375 0.265625 -0.71875q0.265625 -0.28125 0.734375 -0.28125q0.453125 0 0.71875 0.28125q0.265625 0.28125 0.265625 0.71875q0 0.453125 -0.265625 0.71875q-0.265625 0.265625 -0.71875 0.265625q-0.46875 0 -0.734375 -0.265625q-0.265625 -0.265625 -0.265625 -0.71875zm3.375 0q0 -0.4375 0.265625 -0.71875q0.265625 -0.28125 0.703125 -0.28125q0.46875 0 0.734375 0.28125q0.28125 0.28125 0.28125 0.71875q0 0.453125 -0.28125 0.71875q-0.265625 0.265625 -0.734375 0.265625q-0.4375 0 -0.703125 -0.265625q-0.265625 -0.265625 -0.265625 -0.71875zm5.1432495 15.546875l3.96875 -6.96875l0.734375 -0.921875l-4.703125 0l0 -1.390625l6.21875 0l0 1.390625l-3.984375 7.046875l-0.71875 0.84375l4.703125 0l0 1.390625l-6.21875 0l0 -1.390625zm14.375305 0.671875q-0.515625 0.46875 -1.3125 0.71875q-0.78125 0.25 -1.65625 0.25q-1.0 0 -1.734375 -0.390625q-0.734375 -0.390625 -1.21875 -1.125q-0.484375 -0.734375 -0.703125 -1.75q-0.21875 -1.03125 -0.21875 -2.3125q0 -2.734375 1.0 -4.15625q1.0 -1.4375 2.828125 -1.4375q0.59375 0 1.1875 0.15625q0.59375 0.140625 1.0625 0.59375q0.46875 0.453125 0.75 1.265625q0.28125 0.796875 0.28125 2.109375q0 0.359375 -0.03125 0.78125q-0.03125 0.40625 -0.0625 0.859375l-5.421875 0q0 0.90625 0.140625 1.65625q0.15625 0.75 0.46875 1.28125q0.328125 0.515625 0.828125 0.8125q0.5 0.28125 1.25 0.28125q0.578125 0 1.140625 -0.21875q0.5625 -0.21875 0.859375 -0.515625l0.5625 1.140625zm-1.203125 -5.71875q0.046875 -1.609375 -0.453125 -2.34375q-0.484375 -0.75 -1.328125 -0.75q-0.984375 0 -1.5625 0.75q-0.578125 0.734375 -0.6875 2.34375l4.03125 0zm9.089783 6.4375l0 -6.5q0 -1.609375 -0.375 -2.3125q-0.375 -0.71875 -1.328125 -0.71875q-0.859375 0 -1.421875 0.515625q-0.546875 0.5 -0.796875 1.25l0 7.765625l-1.53125 0l0 -10.671875l1.109375 0l0.265625 1.140625l0.0625 0q0.40625 -0.578125 1.09375 -0.984375q0.703125 -0.40625 1.65625 -0.40625q0.6875 0 1.203125 0.203125q0.53125 0.1875 0.875 0.640625q0.359375 0.453125 0.53125 1.234375q0.1875 0.765625 0.1875 1.9375l0 6.90625l-1.53125 0zm10.284973 -0.71875q-0.515625 0.46875 -1.3125 0.71875q-0.78125 0.25 -1.65625 0.25q-1.0 0 -1.734375 -0.390625q-0.734375 -0.390625 -1.21875 -1.125q-0.484375 -0.734375 -0.703125 -1.75q-0.21875 -1.03125 -0.21875 -2.3125q0 -2.734375 1.0 -4.15625q1.0 -1.4375 2.828125 -1.4375q0.59375 0 1.1875 0.15625q0.59375 0.140625 1.0625 0.59375q0.46875 0.453125 0.75 1.265625q0.28125 0.796875 0.28125 2.109375q0 0.359375 -0.03125 0.78125q-0.03125 0.40625 -0.0625 0.859375l-5.421875 0q0 0.90625 0.140625 1.65625q0.15625 0.75 0.46875 1.28125q0.328125 0.515625 0.828125 0.8125q0.5 0.28125 1.25 0.28125q0.578125 0 1.140625 -0.21875q0.5625 -0.21875 0.859375 -0.515625l0.5625 1.140625zm-1.203125 -5.71875q0.046875 -1.609375 -0.453125 -2.34375q-0.484375 -0.75 -1.328125 -0.75q-0.984375 0 -1.5625 0.75q-0.578125 0.734375 -0.6875 2.34375l4.03125 0zm2.5585327 -4.234375l1.3125 0l0 -2.109375l1.53125 -0.484375l0 2.59375l2.296875 0l0 1.390625l-2.296875 0l0 6.359375q0 0.9375 0.21875 1.359375q0.21875 0.40625 0.734375 0.40625q0.4375 0 0.734375 -0.09375q0.3125 -0.09375 0.671875 -0.25l0.296875 1.21875q-0.46875 0.234375 -1.03125 0.375q-0.5625 0.140625 -1.1875 0.140625q-1.0625 0 -1.515625 -0.6875q-0.453125 -0.703125 -0.453125 -2.25l0 -6.578125l-1.3125 0l0 -1.390625z" fill-rule="nonzero"/><path fill="#f4cccc" d="m0 96.48692l76.223625 0l0 36.294357c-38.111813 0 -38.111813 13.828827 -76.223625 5.9715424z" fill-rule="evenodd"/><path stroke="#660000" stroke-width="1.0" stroke-linejoin="round" stroke-linecap="butt" d="m0 96.48692l76.223625 0l0 36.294357c-38.111813 0 -38.111813 13.828827 -76.223625 5.9715424z" fill-rule="evenodd"/><path fill="#660000" d="m28.36123 117.926605l-4.234375 0l-1.1875 4.1875l-1.578125 0l4.5 -15.171875l0.875 0l4.5 15.171875l-1.671875 0l-1.203125 -4.1875zm-3.796875 -1.421875l3.40625 0l-1.296875 -4.609375l-0.40625 -2.234375l-0.046875 0l-0.40625 2.28125l-1.25 4.5625zm14.760115 1.9375q0 1.09375 0.015625 1.984375q0.015625 0.875 0.140625 1.734375l-1.03125 0l-0.34375 -1.28125l-0.09375 0q-0.296875 0.640625 -0.9375 1.0625q-0.640625 0.421875 -1.53125 0.421875q-1.734375 0 -2.578125 -1.34375q-0.828125 -1.34375 -0.828125 -4.21875q0 -2.734375 1.03125 -4.140625q1.03125 -1.40625 2.84375 -1.40625q0.625 0 0.984375 0.078125q0.359375 0.078125 0.78125 0.25l0 -4.40625l1.546875 0l0 11.265625zm-1.546875 -5.3125q-0.296875 -0.25 -0.671875 -0.359375q-0.375 -0.125 -0.984375 -0.125q-1.140625 0 -1.765625 1.03125q-0.625 1.015625 -0.625 3.140625q0 0.953125 0.109375 1.703125q0.125 0.75 0.359375 1.3125q0.25 0.546875 0.640625 0.859375q0.40625 0.296875 0.984375 0.296875q1.53125 0 1.953125 -1.8125l0 -6.046875zm3.9538727 -1.046875q0.609375 -0.375 1.5 -0.578125q0.890625 -0.21875 1.859375 -0.21875q0.90625 0 1.4375 0.265625q0.546875 0.265625 0.859375 0.71875q0.3125 0.453125 0.40625 1.046875q0.09375 0.578125 0.09375 1.21875q0 1.28125 -0.0625 2.5q-0.046875 1.21875 -0.046875 2.3125q0 0.796875 0.046875 1.5q0.0625 0.6875 0.21875 1.3125l-1.171875 0l-0.375 -1.265625l-0.078125 0q-0.3125 0.5625 -0.9375 0.96875q-0.625 0.40625 -1.671875 0.40625q-1.140625 0 -1.875 -0.796875q-0.734375 -0.8125 -0.734375 -2.21875q0 -0.921875 0.296875 -1.53125q0.3125 -0.625 0.875 -1.0q0.578125 -0.390625 1.34375 -0.546875q0.78125 -0.15625 1.75 -0.15625q0.203125 0 0.421875 0q0.21875 0 0.453125 0.015625q0.0625 -0.65625 0.0625 -1.171875q0 -1.21875 -0.375 -1.703125q-0.359375 -0.5 -1.3125 -0.5q-0.59375 0 -1.296875 0.1875q-0.703125 0.1875 -1.1875 0.453125l-0.5 -1.21875zm4.625 5.171875q-0.21875 -0.03125 -0.4375 -0.03125q-0.203125 -0.015625 -0.421875 -0.015625q-0.5 0 -1.0 0.09375q-0.484375 0.078125 -0.875 0.296875q-0.375 0.203125 -0.609375 0.578125q-0.21875 0.359375 -0.21875 0.90625q0 0.859375 0.40625 1.328125q0.421875 0.46875 1.09375 0.46875q0.890625 0 1.375 -0.421875q0.5 -0.4375 0.6875 -0.953125l0 -2.25zm2.9375305 -5.8125l1.3125 0l0 -2.109375l1.53125 -0.484375l0 2.59375l2.296875 0l0 1.390625l-2.296875 0l0 6.359375q0 0.9375 0.21875 1.359375q0.21875 0.40625 0.734375 0.40625q0.4375 0 0.734375 -0.09375q0.3125 -0.09375 0.671875 -0.25l0.296875 1.21875q-0.46875 0.234375 -1.03125 0.375q-0.5625 0.140625 -1.1875 0.140625q-1.0625 0 -1.515625 -0.6875q-0.453125 -0.703125 -0.453125 -2.25l0 -6.578125l-1.3125 0l0 -1.390625z" fill-rule="nonzero"/><path fill="#000000" fill-opacity="0.0" d="m310.12598 53.732285l0 42.771652" fill-rule="evenodd"/><path stroke="#000000" stroke-width="1.0" stroke-linejoin="round" stroke-linecap="butt" d="m310.12598 53.732285l0 36.771652" fill-rule="evenodd"/><path fill="#000000" stroke="#000000" stroke-width="1.0" stroke-linecap="butt" d="m308.47424 90.50394l1.6517334 4.538101l1.6517334 -4.538101z" fill-rule="evenodd"/><path fill="#000000" fill-opacity="0.0" d="m76.223625 119.1159l31.496063 -0.09449005" fill-rule="evenodd"/><path stroke="#000000" stroke-width="1.0" stroke-linejoin="round" stroke-linecap="butt" d="m76.22362 119.1159l25.496094 -0.07648468" fill-rule="evenodd"/><path fill="#000000" stroke="#000000" stroke-width="1.0" stroke-linecap="butt" d="m101.72466 120.69113l4.533127 -1.6653366l-4.5430374 -1.6381149z" fill-rule="evenodd"/><path fill="#000000" fill-opacity="0.0" d="m235.46194 119.01312l31.496063 0.09449005" fill-rule="evenodd"/><path stroke="#000000" stroke-width="1.0" stroke-linejoin="round" stroke-linecap="butt" d="m235.46194 119.01312l25.496094 0.07648468" fill-rule="evenodd"/><path fill="#000000" stroke="#000000" stroke-width="1.0" stroke-linecap="butt" d="m260.95306 120.74133l4.5430603 -1.6381073l-4.533142 -1.6653366z" fill-rule="evenodd"/><path fill="#c9daf8" d="m384.4252 96.1892l0 0c0 -6.3028336 5.1094666 -11.4123 11.4122925 -11.4123l104.92343 0c3.0267334 0 5.9295044 1.2023621 8.069702 3.3425903c2.1402283 2.1402206 3.3425903 5.042984 3.3425903 8.06971l0 45.647835c0 6.302841 -5.109436 11.412308 -11.4122925 11.412308l-104.92343 0c-6.302826 0 -11.4122925 -5.1094666 -11.4122925 -11.412308z" fill-rule="evenodd"/><path stroke="#1c4587" stroke-width="1.0" stroke-linejoin="round" stroke-linecap="butt" d="m384.4252 96.1892l0 0c0 -6.3028336 5.1094666 -11.4123 11.4122925 -11.4123l104.92343 0c3.0267334 0 5.9295044 1.2023621 8.069702 3.3425903c2.1402283 2.1402206 3.3425903 5.042984 3.3425903 8.06971l0 45.647835c0 6.302841 -5.109436 11.412308 -11.4122925 11.412308l-104.92343 0c-6.302826 0 -11.4122925 -5.1094666 -11.4122925 -11.412308z" fill-rule="evenodd"/><path fill="#1c4587" d="m411.43845 111.555626q0.34375 -0.0625 0.75 -0.09375q0.421875 -0.03125 0.84375 -0.03125q0.4375 -0.015625 0.84375 -0.015625q0.421875 -0.015625 0.78125 -0.015625q1.5625 0 2.640625 0.53125q1.09375 0.53125 1.78125 1.53125q0.6875 0.984375 0.984375 2.375q0.296875 1.375 0.296875 3.078125q0 1.546875 -0.296875 2.953125q-0.28125 1.40625 -0.96875 2.46875q-0.671875 1.0625 -1.796875 1.703125q-1.125 0.640625 -2.796875 0.640625q-0.28125 0 -0.71875 -0.015625q-0.421875 0 -0.875 -0.03125q-0.453125 -0.03125 -0.859375 -0.0625q-0.390625 -0.015625 -0.609375 -0.0625l0 -14.953125zm3.3125 1.3125q-0.21875 0 -0.46875 0q-0.234375 0 -0.46875 0.015625q-0.234375 0.015625 -0.4375 0.046875q-0.203125 0.015625 -0.328125 0.046875l0 12.15625q0.078125 0.015625 0.296875 0.03125q0.234375 0 0.46875 0.015625q0.25 0.015625 0.46875 0.03125q0.234375 0 0.34375 0q1.171875 0 1.953125 -0.5q0.796875 -0.515625 1.25 -1.375q0.46875 -0.875 0.65625 -2.015625q0.1875 -1.140625 0.1875 -2.421875q0 -1.125 -0.171875 -2.21875q-0.171875 -1.09375 -0.609375 -1.921875q-0.4375 -0.84375 -1.203125 -1.359375q-0.75 -0.53125 -1.9375 -0.53125zm14.166077 12.90625q-0.515625 0.46875 -1.3125 0.71875q-0.78125 0.25 -1.65625 0.25q-1.0 0 -1.734375 -0.390625q-0.734375 -0.390625 -1.21875 -1.125q-0.484375 -0.734375 -0.703125 -1.75q-0.21875 -1.03125 -0.21875 -2.3125q0 -2.734375 1.0 -4.15625q1.0 -1.4375 2.828125 -1.4375q0.59375 0 1.1875 0.15625q0.59375 0.140625 1.0625 0.59375q0.46875 0.453125 0.75 1.265625q0.28125 0.796875 0.28125 2.109375q0 0.359375 -0.03125 0.78125q-0.03125 0.40625 -0.0625 0.859375l-5.421875 0q0 0.90625 0.140625 1.65625q0.15625 0.75 0.46875 1.28125q0.328125 0.515625 0.828125 0.8125q0.5 0.28125 1.25 0.28125q0.578125 0 1.140625 -0.21875q0.5625 -0.21875 0.859375 -0.515625l0.5625 1.140625zm-1.203125 -5.71875q0.046875 -1.609375 -0.453125 -2.34375q-0.484375 -0.75 -1.328125 -0.75q-0.984375 0 -1.5625 0.75q-0.578125 0.734375 -0.6875 2.34375l4.03125 0zm5.9491577 1.640625l-0.78125 0l0 4.796875l-1.53125 0l0 -14.9375l1.53125 0l0 9.09375l0.703125 -0.296875l2.5 -4.53125l1.765625 0l-2.515625 4.3125l-0.75 0.6875l0.875 0.828125l2.75 4.84375l-1.859375 0l-2.6875 -4.796875zm5.2807617 -0.53125q0 -2.890625 0.984375 -4.234375q0.984375 -1.359375 2.828125 -1.359375q1.953125 0 2.875 1.390625q0.9375 1.390625 0.9375 4.203125q0 2.890625 -1.0 4.234375q-1.0 1.34375 -2.8125 1.34375q-1.96875 0 -2.890625 -1.375q-0.921875 -1.390625 -0.921875 -4.203125zm1.59375 0q0 0.9375 0.109375 1.703125q0.125 0.765625 0.390625 1.328125q0.265625 0.546875 0.6875 0.859375q0.4375 0.3125 1.03125 0.3125q1.109375 0 1.65625 -0.984375q0.5625 -1.0 0.5625 -3.21875q0 -0.921875 -0.125 -1.703125q-0.109375 -0.78125 -0.375 -1.328125q-0.265625 -0.5625 -0.703125 -0.859375q-0.421875 -0.3125 -1.015625 -0.3125q-1.09375 0 -1.65625 1.0q-0.5625 1.0 -0.5625 3.203125zm2.890625 -10.03125l1.671875 0l0 0.453125l-1.75 2.734375l-0.921875 0l1.0 -3.1875zm11.916931 11.6875q0 1.09375 0.015625 1.984375q0.015625 0.875 0.140625 1.734375l-1.03125 0l-0.34375 -1.28125l-0.09375 0q-0.296875 0.640625 -0.9375 1.0625q-0.640625 0.421875 -1.53125 0.421875q-1.734375 0 -2.578125 -1.34375q-0.828125 -1.34375 -0.828125 -4.21875q0 -2.734375 1.03125 -4.140625q1.03125 -1.40625 2.84375 -1.40625q0.625 0 0.984375 0.078125q0.359375 0.078125 0.78125 0.25l0 -4.40625l1.546875 0l0 11.265625zm-1.546875 -5.3125q-0.296875 -0.25 -0.671875 -0.359375q-0.375 -0.125 -0.984375 -0.125q-1.140625 0 -1.765625 1.03125q-0.625 1.015625 -0.625 3.140625q0 0.953125 0.109375 1.703125q0.125 0.75 0.359375 1.3125q0.25 0.546875 0.640625 0.859375q0.40625 0.296875 0.984375 0.296875q1.53125 0 1.953125 -1.8125l0 -6.046875zm3.5944824 3.65625q0 -2.890625 0.984375 -4.234375q0.984375 -1.359375 2.828125 -1.359375q1.953125 0 2.875 1.390625q0.9375 1.390625 0.9375 4.203125q0 2.890625 -1.0 4.234375q-1.0 1.34375 -2.8125 1.34375q-1.96875 0 -2.890625 -1.375q-0.921875 -1.390625 -0.921875 -4.203125zm1.59375 0q0 0.9375 0.109375 1.703125q0.125 0.765625 0.390625 1.328125q0.265625 0.546875 0.6875 0.859375q0.4375 0.3125 1.03125 0.3125q1.109375 0 1.65625 -0.984375q0.5625 -1.0 0.5625 -3.21875q0 -0.921875 -0.125 -1.703125q-0.109375 -0.78125 -0.375 -1.328125q-0.265625 -0.5625 -0.703125 -0.859375q-0.421875 -0.3125 -1.015625 -0.3125q-1.09375 0 -1.65625 1.0q-0.5625 1.0 -0.5625 3.203125zm9.729431 2.796875q0 0.734375 0.203125 1.0625q0.203125 0.3125 0.5625 0.3125q0.4375 0 1.046875 -0.234375l0.140625 1.234375q-0.28125 0.171875 -0.78125 0.28125q-0.5 0.109375 -0.90625 0.109375q-0.796875 0 -1.3125 -0.5q-0.5 -0.5 -0.5 -1.765625l0 -12.90625l1.546875 0l0 12.40625zm3.219452 -7.5q0.609375 -0.375 1.5 -0.578125q0.890625 -0.21875 1.859375 -0.21875q0.90625 0 1.4375 0.265625q0.546875 0.265625 0.859375 0.71875q0.3125 0.453125 0.40625 1.046875q0.09375 0.578125 0.09375 1.21875q0 1.28125 -0.0625 2.5q-0.046875 1.21875 -0.046875 2.3125q0 0.796875 0.046875 1.5q0.0625 0.6875 0.21875 1.3125l-1.171875 0l-0.375 -1.265625l-0.078125 0q-0.3125 0.5625 -0.9375 0.96875q-0.625 0.40625 -1.671875 0.40625q-1.140625 0 -1.875 -0.796875q-0.734375 -0.8125 -0.734375 -2.21875q0 -0.921875 0.296875 -1.53125q0.3125 -0.625 0.875 -1.0q0.578125 -0.390625 1.34375 -0.546875q0.78125 -0.15625 1.75 -0.15625q0.203125 0 0.421875 0q0.21875 0 0.453125 0.015625q0.0625 -0.65625 0.0625 -1.171875q0 -1.21875 -0.375 -1.703125q-0.359375 -0.5 -1.3125 -0.5q-0.59375 0 -1.296875 0.1875q-0.703125 0.1875 -1.1875 0.453125l-0.5 -1.21875zm4.625 5.171875q-0.21875 -0.03125 -0.4375 -0.03125q-0.203125 -0.015625 -0.421875 -0.015625q-0.5 0 -1.0 0.09375q-0.484375 0.078125 -0.875 0.296875q-0.375 0.203125 -0.609375 0.578125q-0.21875 0.359375 -0.21875 0.90625q0 0.859375 0.40625 1.328125q0.421875 0.46875 1.09375 0.46875q0.890625 0 1.375 -0.421875q0.5 -0.4375 0.6875 -0.953125l0 -2.25zm-1.5 -10.5l1.671875 0l0 0.453125l-1.75 2.734375l-0.921875 0l1.0 -3.1875zm5.3437805 13.609375q0.421875 0.25 1.0 0.4375q0.59375 0.1875 1.21875 0.1875q0.703125 0 1.1875 -0.34375q0.484375 -0.359375 0.484375 -1.15625q0 -0.65625 -0.296875 -1.078125q-0.296875 -0.4375 -0.765625 -0.765625q-0.453125 -0.34375 -0.984375 -0.625q-0.53125 -0.296875 -0.984375 -0.703125q-0.453125 -0.40625 -0.765625 -0.953125q-0.296875 -0.5625 -0.296875 -1.421875q0 -1.359375 0.734375 -2.046875q0.75 -0.703125 2.09375 -0.703125q0.859375 0 1.5 0.171875q0.640625 0.15625 1.109375 0.421875l-0.40625 1.28125q-0.390625 -0.203125 -0.9375 -0.34375q-0.53125 -0.140625 -1.078125 -0.140625q-0.765625 0 -1.125 0.328125q-0.34375 0.3125 -0.34375 0.984375q0 0.546875 0.296875 0.921875q0.296875 0.359375 0.75 0.671875q0.46875 0.3125 1.0 0.640625q0.53125 0.3125 0.984375 0.75q0.453125 0.4375 0.75 1.046875q0.3125 0.609375 0.3125 1.515625q0 0.609375 -0.203125 1.140625q-0.1875 0.53125 -0.578125 0.921875q-0.390625 0.390625 -0.984375 0.625q-0.578125 0.234375 -1.375 0.234375q-0.9375 0 -1.625 -0.1875q-0.671875 -0.171875 -1.140625 -0.46875l0.46875 -1.34375z" fill-rule="nonzero"/><path fill="#000000" fill-opacity="0.0" d="m353.30173 119.11981l31.118103 -0.09449005" fill-rule="evenodd"/><path stroke="#000000" stroke-width="1.0" stroke-linejoin="round" stroke-linecap="butt" d="m353.30173 119.11981l25.118134 -0.07627106" fill-rule="evenodd"/><path fill="#000000" stroke="#000000" stroke-width="1.0" stroke-linecap="butt" d="m378.42487 120.69527l4.5330505 -1.6655045l-4.543091 -1.6379471z" fill-rule="evenodd"/><path fill="#f4cccc" d="m543.2992 96.48821l76.22363 0l0 36.294365c-38.111816 0 -38.111816 13.828812 -76.22363 5.971527z" fill-rule="evenodd"/><path stroke="#660000" stroke-width="1.0" stroke-linejoin="round" stroke-linecap="butt" d="m543.2992 96.48821l76.22363 0l0 36.294365c-38.111816 0 -38.111816 13.828812 -76.22363 5.971527z" fill-rule="evenodd"/><path fill="#660000" d="m571.66046 117.927895l-4.234375 0l-1.1875 4.1875l-1.578125 0l4.5 -15.171875l0.875 0l4.5 15.171875l-1.671875 0l-1.203125 -4.1875zm-3.796875 -1.421875l3.40625 0l-1.296875 -4.609375l-0.40625 -2.234375l-0.046875 0l-0.40625 2.28125l-1.25 4.5625zm14.760071 1.9375q0 1.09375 0.015625 1.984375q0.015625 0.875 0.140625 1.734375l-1.03125 0l-0.34375 -1.28125l-0.09375 0q-0.296875 0.640625 -0.9375 1.0625q-0.640625 0.421875 -1.53125 0.421875q-1.734375 0 -2.578125 -1.34375q-0.828125 -1.34375 -0.828125 -4.21875q0 -2.734375 1.03125 -4.140625q1.03125 -1.40625 2.84375 -1.40625q0.625 0 0.984375 0.078125q0.359375 0.078125 0.78125 0.25l0 -4.40625l1.546875 0l0 11.265625zm-1.546875 -5.3125q-0.296875 -0.25 -0.671875 -0.359375q-0.375 -0.125 -0.984375 -0.125q-1.140625 0 -1.765625 1.03125q-0.625 1.015625 -0.625 3.140625q0 0.953125 0.109375 1.703125q0.125 0.75 0.359375 1.3125q0.25 0.546875 0.640625 0.859375q0.40625 0.296875 0.984375 0.296875q1.53125 0 1.953125 -1.8125l0 -6.046875zm3.9539185 -1.046875q0.609375 -0.375 1.5 -0.578125q0.890625 -0.21875 1.859375 -0.21875q0.90625 0 1.4375 0.265625q0.546875 0.265625 0.859375 0.71875q0.3125 0.453125 0.40625 1.046875q0.09375 0.578125 0.09375 1.21875q0 1.28125 -0.0625 2.5q-0.046875 1.21875 -0.046875 2.3125q0 0.796875 0.046875 1.5q0.0625 0.6875 0.21875 1.3125l-1.171875 0l-0.375 -1.265625l-0.078125 0q-0.3125 0.5625 -0.9375 0.96875q-0.625 0.40625 -1.671875 0.40625q-1.140625 0 -1.875 -0.796875q-0.734375 -0.8125 -0.734375 -2.21875q0 -0.921875 0.296875 -1.53125q0.3125 -0.625 0.875 -1.0q0.578125 -0.390625 1.34375 -0.546875q0.78125 -0.15625 1.75 -0.15625q0.203125 0 0.421875 0q0.21875 0 0.453125 0.015625q0.0625 -0.65625 0.0625 -1.171875q0 -1.21875 -0.375 -1.703125q-0.359375 -0.5 -1.3125 -0.5q-0.59375 0 -1.296875 0.1875q-0.703125 0.1875 -1.1875 0.453125l-0.5 -1.21875zm4.625 5.171875q-0.21875 -0.03125 -0.4375 -0.03125q-0.203125 -0.015625 -0.421875 -0.015625q-0.5 0 -1.0 0.09375q-0.484375 0.078125 -0.875 0.296875q-0.375 0.203125 -0.609375 0.578125q-0.21875 0.359375 -0.21875 0.90625q0 0.859375 0.40625 1.328125q0.421875 0.46875 1.09375 0.46875q0.890625 0 1.375 -0.421875q0.5 -0.4375 0.6875 -0.953125l0 -2.25zm2.9375 -5.8125l1.3125 0l0 -2.109375l1.53125 -0.484375l0 2.59375l2.296875 0l0 1.390625l-2.296875 0l0 6.359375q0 0.9375 0.21875 1.359375q0.21875 0.40625 0.734375 0.40625q0.4375 0 0.734375 -0.09375q0.3125 -0.09375 0.671875 -0.25l0.296875 1.21875q-0.46875 0.234375 -1.03125 0.375q-0.5625 0.140625 -1.1875 0.140625q-1.0625 0 -1.515625 -0.6875q-0.453125 -0.703125 -0.453125 -2.25l0 -6.578125l-1.3125 0l0 -1.390625z" fill-rule="nonzero"/><path fill="#000000" fill-opacity="0.0" d="m512.1732 119.01312l31.118103 0.09449005" fill-rule="evenodd"/><path stroke="#000000" stroke-width="1.0" stroke-linejoin="round" stroke-linecap="butt" d="m512.1732 119.01312l25.118164 0.07627106" fill-rule="evenodd"/><path fill="#000000" stroke="#000000" stroke-width="1.0" stroke-linecap="butt" d="m537.2864 120.74112l4.543091 -1.6379471l-4.533081 -1.6655045z" fill-rule="evenodd"/><path fill="#fce5cd" d="m281.8924 232.84164l0 0c0 -5.3165283 12.9296875 -9.626419 28.879272 -9.626419c15.949554 0 28.879242 4.3098907 28.879242 9.626419l0 38.505676c0 5.3165283 -12.9296875 9.626434 -28.879242 9.626434c-15.949585 0 -28.879272 -4.309906 -28.879272 -9.626434z" fill-rule="evenodd"/><path fill="#000000" fill-opacity="0.0" d="m339.6509 232.84164l0 0c0 5.3165283 -12.9296875 9.626419 -28.879242 9.626419c-15.949585 0 -28.879272 -4.3098907 -28.879272 -9.626419" fill-rule="evenodd"/><path fill="#000000" fill-opacity="0.0" d="m281.8924 232.84164l0 0c0 -5.3165283 12.9296875 -9.626419 28.879272 -9.626419c15.949554 0 28.879242 4.3098907 28.879242 9.626419l0 38.505676c0 5.3165283 -12.9296875 9.626434 -28.879242 9.626434c-15.949585 0 -28.879272 -4.309906 -28.879272 -9.626434z" fill-rule="evenodd"/><path stroke="#783f04" stroke-width="1.0" stroke-linejoin="round" stroke-linecap="butt" d="m339.6509 232.84164l0 0c0 5.3165283 -12.9296875 9.626419 -28.879242 9.626419c-15.949585 0 -28.879272 -4.3098907 -28.879272 -9.626419" fill-rule="evenodd"/><path stroke="#783f04" stroke-width="1.0" stroke-linejoin="round" stroke-linecap="butt" d="m281.8924 232.84164l0 0c0 -5.3165283 12.9296875 -9.626419 28.879272 -9.626419c15.949554 0 28.879242 4.3098907 28.879242 9.626419l0 38.505676c0 5.3165283 -12.9296875 9.626434 -28.879242 9.626434c-15.949585 0 -28.879272 -4.309906 -28.879272 -9.626434z" fill-rule="evenodd"/><path fill="#783f04" d="m296.93893 257.78082l-0.671875 0l0 6.046875l-1.40625 0l0 -13.0625l1.40625 0l0 6.078125l0.65625 -0.25l3.390625 -5.828125l1.609375 0l-3.421875 5.640625l-0.65625 0.59375l0.765625 0.75l3.796875 6.078125l-1.78125 0l-3.6875 -6.046875zm7.852417 -3.28125l0 5.703125q0 1.421875 0.28125 2.03125q0.296875 0.609375 1.0625 0.609375q0.390625 0 0.703125 -0.15625q0.3125 -0.171875 0.546875 -0.421875q0.25 -0.265625 0.421875 -0.59375q0.1875 -0.34375 0.3125 -0.703125l0 -6.46875l1.34375 0l0 6.671875q0 0.671875 0.046875 1.390625q0.046875 0.71875 0.125 1.265625l-0.9375 0l-0.34375 -1.3125l-0.046875 0q-0.328125 0.625 -0.921875 1.078125q-0.59375 0.453125 -1.484375 0.453125q-0.609375 0 -1.0625 -0.15625q-0.4375 -0.140625 -0.765625 -0.53125q-0.3125 -0.390625 -0.46875 -1.0625q-0.15625 -0.6875 -0.15625 -1.75l0 -6.046875l1.34375 0zm8.315552 7.109375q0 0.65625 0.171875 0.9375q0.1875 0.28125 0.5 0.28125q0.390625 0 0.921875 -0.21875l0.125 1.09375q-0.234375 0.140625 -0.671875 0.234375q-0.4375 0.09375 -0.796875 0.09375q-0.703125 0 -1.15625 -0.4375q-0.4375 -0.4375 -0.4375 -1.53125l0 -11.296875l1.34375 0l0 10.84375zm8.065674 1.75q-0.46875 0.359375 -1.0625 0.515625q-0.59375 0.171875 -1.25 0.171875q-0.890625 0 -1.515625 -0.34375q-0.609375 -0.34375 -1.0 -0.984375q-0.375 -0.640625 -0.5625 -1.546875q-0.171875 -0.90625 -0.171875 -2.015625q0 -2.375 0.84375 -3.625q0.859375 -1.25 2.4375 -1.25q0.734375 0 1.25 0.125q0.53125 0.125 0.90625 0.34375l-0.375 1.171875q-0.75 -0.4375 -1.625 -0.4375q-1.015625 0 -1.53125 0.890625q-0.5 0.890625 -0.5 2.78125q0 0.765625 0.109375 1.4375q0.109375 0.671875 0.359375 1.171875q0.265625 0.5 0.671875 0.796875q0.421875 0.28125 1.03125 0.28125q0.484375 0 0.90625 -0.171875q0.421875 -0.171875 0.6875 -0.390625l0.390625 1.078125zm1.3447571 -1.0625q0.375 0.21875 0.875 0.390625q0.515625 0.15625 1.0625 0.15625q0.609375 0 1.03125 -0.3125q0.4375 -0.3125 0.4375 -1.0q0 -0.578125 -0.265625 -0.953125q-0.25 -0.375 -0.65625 -0.671875q-0.390625 -0.296875 -0.859375 -0.546875q-0.46875 -0.25 -0.875 -0.59375q-0.390625 -0.359375 -0.65625 -0.84375q-0.265625 -0.5 -0.265625 -1.234375q0 -1.203125 0.640625 -1.796875q0.65625 -0.609375 1.828125 -0.609375q0.765625 0 1.3125 0.140625q0.5625 0.140625 0.984375 0.375l-0.359375 1.125q-0.359375 -0.1875 -0.828125 -0.3125q-0.453125 -0.125 -0.9375 -0.125q-0.671875 0 -0.984375 0.28125q-0.3125 0.28125 -0.3125 0.875q0 0.46875 0.265625 0.796875q0.265625 0.328125 0.65625 0.609375q0.40625 0.265625 0.875 0.546875q0.46875 0.265625 0.859375 0.65625q0.40625 0.375 0.65625 0.90625q0.265625 0.53125 0.265625 1.34375q0 0.515625 -0.171875 0.984375q-0.15625 0.46875 -0.5 0.8125q-0.34375 0.34375 -0.859375 0.546875q-0.515625 0.203125 -1.203125 0.203125q-0.828125 0 -1.421875 -0.15625q-0.59375 -0.15625 -1.0 -0.421875l0.40625 -1.171875z" fill-rule="nonzero"/><path fill="#000000" fill-opacity="0.0" d="m281.8924 252.09448l-110.299225 -98.83464" fill-rule="evenodd"/><path stroke="#000000" stroke-width="1.0" stroke-linejoin="round" stroke-linecap="butt" d="m281.8924 252.09448l-105.83072 -94.8306" fill-rule="evenodd"/><path fill="#000000" stroke="#000000" stroke-width="1.0" stroke-linecap="butt" d="m177.16396 156.03377l-4.482025 -1.7983398l2.277481 4.2585907z" fill-rule="evenodd"/><path fill="#000000" fill-opacity="0.0" d="m339.6509 252.09448l108.66144 -98.83464" fill-rule="evenodd"/><path stroke="#000000" stroke-width="1.0" stroke-linejoin="round" stroke-linecap="butt" d="m339.6509 252.09448l104.22281 -94.797455" fill-rule="evenodd"/><path fill="#000000" stroke="#000000" stroke-width="1.0" stroke-linecap="butt" d="m444.98514 158.51892l2.2457275 -4.275421l-4.468506 1.8316345z" fill-rule="evenodd"/></g></svg>